<svg xmlns="http://www.w3.org/2000/svg"><symbol id="arrow" viewBox="0 0 17.03 10.94"><path class="cls-1" d="M14.23 4.68H.8a.8.8 0 0 0-.8.79.785.785 0 0 0 .8.78h13.43l-3.5 3.37a.77.77 0 0 0-.01 1.11.827.827 0 0 0 1.15.01l4.89-4.71a.773.773 0 0 0 0-1.12L11.87.2a.827.827 0 0 0-1.15 0 .77.77 0 0 0 .01 1.11z"/></symbol><symbol id="burger" viewBox="0 0 29 25"><path class="cls-1" d="M1.839 0H27.16a1.84 1.84 0 1 1 0 3.679H1.839a1.84 1.84 0 0 1 0-3.679zm7.838 10.281H27.16a1.84 1.84 0 0 1 0 3.68H9.677a1.84 1.84 0 0 1 0-3.68zM1.839 21.32H27.16a1.84 1.84 0 1 1 0 3.679H1.839a1.84 1.84 0 0 1 0-3.679z"/></symbol><symbol id="chevron-down" viewBox="0 0 451.847 451.847"><path d="M225.923 354.706c-8.098 0-16.195-3.092-22.369-9.263L9.27 151.157c-12.359-12.359-12.359-32.397 0-44.751 12.354-12.354 32.388-12.354 44.748 0l171.905 171.915 171.906-171.909c12.359-12.354 32.391-12.354 44.744 0 12.365 12.354 12.365 32.392 0 44.751L248.292 345.449c-6.177 6.172-14.274 9.257-22.369 9.257z"/></symbol><symbol id="class" viewBox="0 0 100 100"><path d="M26 20c-8.863 0-16 7.137-16 16v28c0 8.863 7.137 16 16 16h48c8.863 0 16-7.137 16-16V36c0-8.863-7.137-16-16-16zm14 16l22 14-22 14z"/></symbol><symbol id="clock" viewBox="0 0 474.64 474.64"><path d="M405.131 69.508C358.792 23.169 298.056 0 237.32 0S115.847 23.169 69.508 69.508c-92.678 92.678-92.678 242.977 0 335.591 46.371 46.339 107.075 69.54 167.812 69.54s121.473-23.169 167.811-69.54c92.678-92.709 92.678-242.945 0-335.591zm-22.47 313.09c-38.838 38.838-90.421 60.26-145.341 60.26-54.888 0-106.503-21.421-145.341-60.26-38.806-38.838-60.196-90.421-60.196-145.309 0-54.92 21.39-106.503 60.196-145.341 38.87-38.806 90.485-60.196 145.341-60.196s106.503 21.39 145.341 60.196 60.196 90.453 60.196 145.341-21.39 106.534-60.196 145.309z"/><path d="M331.618 220.348h-79.456V108.887c0-8.772-7.119-15.891-15.891-15.891-8.708 0-15.891 7.119-15.891 15.891v127.352c0 8.74 7.151 15.891 15.891 15.891h95.347c8.772 0 15.891-7.151 15.891-15.891.001-8.772-7.119-15.891-15.891-15.891z"/></symbol><symbol id="coach" viewBox="0 0 100 100"><path d="M1355.1 100.38c0-5.71-4.644-10.355-10.355-10.355-5.71 0-10.355 4.644-10.355 10.355 0 5.71 4.644 10.355 10.355 10.355 5.71 0 10.355-4.644 10.355-10.355zm-10.352 9.156c-5.05 0-9.152-4.105-9.152-9.156 0-5.047 4.105-9.152 9.152-9.152s9.152 4.105 9.152 9.152c0 5.05-4.105 9.156-9.152 9.156z"/><path d="M1423.5 129.8c-.004-.004-.012-.012-.016-.02-.004-.003-.004-.003-.004-.007-8.054-12.02-18.355-22.004-30.625-29.684h-.003c-6.977-5.016-15.176-7.77-23.738-8.016a146.15 146.15 0 0 0-2.239-31.754 4.694 4.694 0 0 0-1.96-3.035 4.707 4.707 0 0 0-3.532-.762c-1.238.227-2.316.922-3.035 1.957s-.984 2.29-.762 3.531a136.027 136.027 0 0 1 2.02 31.477v.004l-1.086 15.754a136.016 136.016 0 0 1-6.317 30.895 4.725 4.725 0 0 0 4.485 6.196 4.728 4.728 0 0 0 4.484-3.247 145.523 145.523 0 0 0 6.512-30.574c4.695-.109 9.309 1.368 13.027 4.239a87.085 87.085 0 0 1 20.523 26.602 5.407 5.407 0 0 0 3.14 2.722 5.414 5.414 0 0 0 4.145-.293 5.394 5.394 0 0 0 2.723-3.14 5.4 5.4 0 0 0-.297-4.145 98.58 98.58 0 0 0-14.523-21.422.397.397 0 0 1-.012-.52.404.404 0 0 1 .57-.054 87.44 87.44 0 0 1 17.458 19.285 5.43 5.43 0 0 0 4.527 2.426 5.372 5.372 0 0 0 2.992-.906c2.504-1.664 3.184-5.04 1.543-7.508zm-2.195 6.5a4.236 4.236 0 0 1-5.864-1.184 88.642 88.642 0 0 0-17.695-19.55s0-.005-.004-.005a1.61 1.61 0 0 0-2.257.223 1.595 1.595 0 0 0 .047 2.082 97.222 97.222 0 0 1 14.348 21.156 4.184 4.184 0 0 1 .23 3.23 4.192 4.192 0 0 1-2.121 2.446 4.202 4.202 0 0 1-3.23.23 4.199 4.199 0 0 1-2.446-2.117 88.397 88.397 0 0 0-20.816-26.98c-.004-.004-.012-.008-.02-.011l-.011-.012a21.636 21.636 0 0 0-14.348-4.496c-.04.004-.074.02-.113.027a.548.548 0 0 0-.215.105c-.008.008-.02.012-.024.02a.56.56 0 0 0-.11.125c-.015.023-.026.043-.042.066a.432.432 0 0 0-.035.122c-.008.023-.02.042-.024.07a144.276 144.276 0 0 1-6.515 30.855 3.523 3.523 0 0 1-4.442 2.242 3.525 3.525 0 0 1-2.246-4.441 137.164 137.164 0 0 0 6.371-31.176v-.004s.004-.004.004-.008l1.094-15.836c.004-.008-.004-.016-.004-.02.551-10.59-.137-21.246-2.039-31.676-.168-.925.031-1.859.566-2.632s1.34-1.293 2.266-1.461a3.465 3.465 0 0 1 2.633.566c.77.535 1.289 1.34 1.46 2.266a144.273 144.273 0 0 1 2.204 32.078v.015c0 .032.012.059.016.09.007.047.011.094.023.137.016.031.035.058.055.086.023.035.039.078.07.11.023.027.059.042.09.066s.062.05.097.066c.036.016.075.02.11.027.035.008.07.024.113.028h.016a41.425 41.425 0 0 1 23.664 7.82.03.03 0 0 0 .015.004c.008.004.012.012.02.016 12.137 7.593 22.328 17.465 30.293 29.352.004 0 .004.003.004.003 1.281 1.961.754 4.59-1.188 5.88zM42.43 41.75c0-5.387-4.367-9.754-9.754-9.754s-9.754 4.367-9.754 9.754 4.367 9.754 9.754 9.754 9.754-4.367 9.754-9.754z"/><path d="M48.684 55.441a100.628 100.628 0 0 1-9.395 9.703 97.85 97.85 0 0 1 12.11.117 73.972 73.972 0 0 0 27.038 2.727c4.286-.363 7.465-4.129 7.102-8.41a7.766 7.766 0 0 0-1.281-3.664 49.85 49.85 0 0 0-29.31-20.688c-4.167-1.051-8.397 1.48-9.448 5.648a7.744 7.744 0 0 0 0 3.805 91.772 91.772 0 0 1-15.918 16.71 4.123 4.123 0 0 0-.594 5.798 4.123 4.123 0 0 0 5.797.593 100.166 100.166 0 0 0 16.723-17.367 41.673 41.673 0 0 1 11.305 4.098 81.202 81.202 0 0 0-10.785 1.121 105.884 105.884 0 0 0-3.344-.191z"/><path d="M27.5 66.477a5.053 5.053 0 0 1 1.492-5.813 89.856 89.856 0 0 0 5.488-4.851 108.248 108.248 0 0 0-15.612 2.602 4.827 4.827 0 1 0 2.277 9.382 98.072 98.072 0 0 1 6.355-1.32z"/></symbol><symbol id="course" viewBox="0 0 100 100"><path d="M63.258 13.133c0 7.25-5.879 13.129-13.133 13.129-7.25 0-13.129-5.879-13.129-13.129C36.996 5.879 42.875 0 50.125 0c7.254 0 13.133 5.879 13.133 13.133M51.895 29.293h6.063c3.535 0 6.816 1.77 8.332 5.05l10.354 18.689c.758 1.262 1.516 3.031 2.524 4.547 2.02 3.535 4.797 6.566 8.082 9.09l6.566 4.796s5.305 4.04 3.535 7.575c-2.019 3.789-7.828 2.02-15.91-2.778-11.616-7.07-19.694-28.03-19.694-28.03v34.09H38.013l-.008-34.09s-8.082 20.96-19.695 28.03C10.228 80.81 4.419 82.575 2.4 79.04c-2.02-3.79 3.535-7.575 3.535-7.575l6.566-4.797c3.281-2.523 6.063-5.554 8.082-9.09 1.012-1.515 1.77-3.28 2.524-4.546l10.355-18.688c1.77-3.031 4.797-5.051 8.332-5.051zM70.328 84.344c-18.434 1.012-37.121.758-55.555-1.262-4.04-.504-7.828 2.524-8.332 6.567-.504 4.039 2.523 7.828 6.816 8.332a357.601 357.601 0 0 0 73.484 0c4.293-.504 7.325-4.293 6.817-8.332-.504-4.04-4.293-7.07-8.332-6.567-5.051.504-9.848 1.008-14.898 1.262z"/></symbol><symbol id="cross" viewBox="0 0 220.176 220.176"><path d="M131.577 110.084l84.176-84.146c5.897-5.928 5.897-15.565 0-21.492-5.928-5.928-15.595-5.928-21.492 0l-84.176 84.146L25.938 4.446c-5.928-5.928-15.565-5.928-21.492 0s-5.928 15.565 0 21.492l84.146 84.146L4.446 194.26c-5.928 5.897-5.928 15.565 0 21.492 5.928 5.897 15.565 5.897 21.492 0l84.146-84.176 84.176 84.176c5.897 5.897 15.565 5.897 21.492 0 5.897-5.928 5.897-15.595 0-21.492l-84.175-84.176z"/></symbol><symbol id="facebook" viewBox="0 0 486.392 486.392"><path d="M273.443 159.354l.122-41.951c0-21.857 1.52-33.561 32.831-33.561h57.941V0h-83.021c-80.559 0-99.102 41.617-99.102 109.985l.091 49.369-61.133.03v83.811h61.133v243.196h91.168l.061-243.196 82.778-.03 8.907-83.811h-91.776z"/></symbol><symbol id="heart" viewBox="0 0 508.52 508.52"><path d="M508.52 183.671h-.254c-1.335-77.994-64.614-147.502-142.767-147.502-45.195 0-85.018 23.646-111.239 58.353-26.221-34.706-66.044-58.353-111.239-58.353-78.153 0-141.432 69.508-142.767 147.502H0l.095 1.398L0 186.15l.636 5.943c6.992 198.768 251.622 280.258 251.622 280.258s248.221-81.395 255.595-279.94l.667-6.261-.095-1.081.095-1.398zm-32.45 7.564c-5.626 152.556-179.825 230.105-223.749 247.236-43.542-17.131-214.564-94.362-219.935-247.84l-.445-4.64.095-1.78c1.081-63.025 51.901-116.26 110.984-116.26 32.609 0 63.915 16.654 85.876 45.735a31.776 31.776 0 0 0 25.362 12.618c9.98 0 19.356-4.672 25.362-12.618 21.93-29.081 53.299-45.735 85.876-45.735 59.084 0 109.904 53.236 110.984 116.26l.095 1.812-.505 5.212z"/></symbol><symbol id="instagram" viewBox="0 0 438.536 438.536"><path d="M421.981 16.562C410.941 5.519 397.711 0 382.298 0H56.248C40.83 0 27.604 5.521 16.561 16.562 5.52 27.6.001 40.828.001 56.243V382.29c0 15.413 5.518 28.644 16.56 39.683 11.043 11.04 24.272 16.563 39.687 16.563h326.046c15.41 0 28.644-5.523 39.684-16.563 11.043-11.039 16.557-24.27 16.557-39.683V56.243c-.001-15.418-5.514-28.639-16.554-39.681zM157.462 158.025c17.224-16.652 37.924-24.982 62.097-24.982 24.36 0 45.153 8.33 62.381 24.982 17.228 16.655 25.837 36.785 25.837 60.386 0 23.598-8.609 43.729-25.837 60.379-17.228 16.659-38.014 24.988-62.381 24.988-24.172 0-44.87-8.336-62.097-24.988-17.228-16.652-25.841-36.781-25.841-60.379 0-23.601 8.613-43.73 25.841-60.386zm231.403 212.564c0 4.945-1.718 9.083-5.141 12.416-3.433 3.33-7.519 4.996-12.282 4.996h-305.2c-4.948 0-9.091-1.666-12.419-4.996-3.333-3.326-4.998-7.471-4.998-12.416V185.575H89.08c-3.805 11.993-5.708 24.462-5.708 37.402 0 36.553 13.322 67.715 39.969 93.511 26.65 25.786 58.721 38.685 96.217 38.685 24.744 0 47.583-5.903 68.527-17.703 20.937-11.807 37.486-27.839 49.676-48.112 12.183-20.272 18.274-42.4 18.274-66.38 0-12.94-1.91-25.406-5.715-37.402h38.547V370.59h-.002zm0-254.963c0 5.52-1.903 10.184-5.716 13.99-3.805 3.809-8.466 5.711-13.989 5.711h-49.676c-5.517 0-10.185-1.903-13.99-5.711-3.806-3.806-5.708-8.47-5.708-13.99V68.522c0-5.33 1.902-9.945 5.708-13.848 3.806-3.901 8.474-5.854 13.99-5.854h49.676c5.523 0 10.185 1.952 13.989 5.854 3.812 3.903 5.716 8.518 5.716 13.848v47.104z"/></symbol><symbol id="logout" viewBox="0 0 100 100"><path d="M12.812 6a2 2 0 0 0-1.813 2v84c0 1.105.895 2 2 2h24c.536.008 1.051-.2 1.434-.574.379-.38.594-.89.594-1.426s-.215-1.047-.594-1.426A2.007 2.007 0 0 0 37 90H15V10h22c.536.008 1.051-.2 1.434-.574.379-.38.594-.89.594-1.426s-.215-1.047-.594-1.426A2.007 2.007 0 0 0 37 6H13a1.502 1.502 0 0 0-.187 0zm50.094 19.969a2.005 2.005 0 0 0-1.813 1.324 2.01 2.01 0 0 0 .563 2.176L81.844 48H32.813c-1.047.05-1.957 1.047-1.906 2.094S31.954 52.05 33 52h48.844L61.657 70.5a2.028 2.028 0 0 0-.664 1.387c-.028.531.16 1.05.515 1.445.36.398.86.633 1.39.656.532.028 1.052-.16 1.446-.52l24-22c.418-.378.66-.917.66-1.484s-.242-1.105-.66-1.484l-24-22c-.39-.36-.906-.55-1.437-.531z"/></symbol><symbol id="piggy" viewBox="0 0 100 100"><path d="M92.801 45.102h-2c-1.5-5.3-4.402-10.102-8.5-14.102l6.898-10.398c.7-1 .102-2.398-1.199-2.602-3.8-.601-11.602-.8-20.5 4-.101.102-.3.102-.398.2-1.899-.602-3.899-1-5.899-1.399-3.402-6.402-10.102-10.8-17.902-10.8C32.2 10 23.2 19 23.2 30.101c0 1.5.2 2.899.5 4.301-2.199 2.8-3.898 6-5 9.3-1 0-2.101 0-3.199-.1.3-.802.602-1.7.899-2.802.601-2.3 0-4.199-1.399-5.398-1.3-1.102-3.3-1.2-4.898-.398-1.602.8-2.5 2.5-2.399 4.5s.899 3.601 2.399 4.8c.5.399 1.101.7 1.699 1-.602.7-1.102 1.102-1.8 1.102l-.102-.008c-1.7 0-3.602-2.398-4.301-4.5-.2-.699-.899-1.101-1.602-.8-.699.199-1.101.898-.8 1.601 1 3.102 3.699 6.3 6.8 6.3 1.301 0 2.899-.698 4.301-2.898 1.3.2 2.602.301 3.7.301-.4 2-.7 4-.7 6 0 10.398 5.8 19.7 14.699 25.5l-1 8.899c-.2 1.699 1.102 3.101 2.8 3.101h8.102c1.399 0 2.602-1 2.801-2.398l.5-4.102c3 .7 6.2 1.102 9.5 1.102s6.5-.399 9.5-1.102l.5 4.102c.2 1.398 1.399 2.398 2.801 2.398h8.102c1.699 0 3-1.5 2.8-3.101L77.301 78C83.1 74.2 87.6 68.899 90 62.899h3c2.3 0 4.199-1.899 4.199-4.2v-9.3c-.2-2.399-2.098-4.297-4.398-4.297zm-79-4.8c-.3 1.1-.602 2-.898 2.8-.5-.2-1-.398-1.301-.8-.899-.7-1.301-1.602-1.399-2.802-.101-1.199.5-1.8 1-2.101.301-.102.602-.2.899-.2.398 0 .8.102 1.199.399.598.504.8 1.402.5 2.703zm29.598 5.8c-8.7 0-15.699-7-15.801-15.699v-.2c0-8.698 7.102-15.8 15.801-15.8 5 0 9.5 2.398 12.398 6 2.102 2.699 3.398 6.101 3.398 9.8C59.2 39 52.102 46.103 43.398 46.103zM78.602 43c-1.602 0-2.8-1.3-2.8-2.8 0-1.602 1.3-2.801 2.8-2.801 1.602 0 2.8 1.3 2.8 2.8C81.5 41.7 80.2 43 78.603 43z"/><path d="M50.199 22.199c-.602-.5-1.3-.898-2.102-1.2-.8-.3-1.699-.398-2.8-.398h-6.899v9.102h-2v2.8h2v1.802h-2V37h2v3.7h3V37h5.899v-2.8h-5.899v-1.802H45c1 0 1.898-.101 2.699-.398.898-.301 1.602-.602 2.2-1.102a5.74 5.74 0 0 0 1.5-1.898c.398-.7.6-1.602.6-2.602 0-.898-.198-1.699-.5-2.398-.198-.7-.698-1.301-1.3-1.801zm-2.3 6.602c-.7.601-1.602.898-2.802.898h-3.601v-6.3h3.601c1.2 0 2.102.3 2.801.8.7.5 1 1.3 1 2.398 0 .903-.297 1.602-1 2.204z"/></symbol><symbol id="pinterest" viewBox="0 0 486.392 486.392"><path d="M430.149 135.248C416.865 39.125 321.076-9.818 218.873 1.642 138.071 10.701 57.512 76.03 54.168 169.447c-2.037 57.029 14.136 99.801 68.399 111.84 23.499-41.586-7.569-50.676-12.433-80.802C90.222 77.367 252.16-6.718 336.975 79.313c58.732 59.583 20.033 242.77-74.57 223.71-90.621-18.179 44.383-164.005-27.937-192.611-58.793-23.286-90.013 71.135-62.137 118.072-16.355 80.711-51.557 156.709-37.3 257.909 46.207-33.561 61.802-97.734 74.57-164.704 23.225 14.136 35.659 28.758 65.268 31.038 109.195 8.48 170.267-109.014 155.28-217.479z"/></symbol><symbol id="search" viewBox="0 0 488.139 488.139"><path d="M290.513.004C181.378.004 92.916 88.466 92.916 197.6c0 46.967 16.477 90.043 43.836 124.03L6.156 452.196c-8.208 8.238-8.208 21.553 0 29.761 8.208 8.238 21.553 8.238 29.761 0l130.596-130.566c33.926 27.329 77.032 43.806 124.03 43.806 109.134 0 197.597-88.462 197.597-197.597S399.616.004 290.513.004zm0 364.793c-92.232 0-167.197-74.996-167.197-167.197S198.341 30.403 290.513 30.403 457.71 105.399 457.71 197.6s-74.996 167.197-167.197 167.197z"/></symbol><symbol id="social-group" viewBox="0 0 508.52 508.52"><path d="M143.021 158.99c42.525 0 79.456-36.931 79.456-79.456S185.546.078 143.021.078 63.565 37.009 63.565 79.534s36.931 79.456 79.456 79.456zM278.097 381.467c0-127.13-65.98-190.695-139.048-190.695S0 254.338 0 381.467c0 87.116 278.097 87.116 278.097 0zM373.444 220.807c42.525 0 79.456-36.931 79.456-79.456s-36.931-79.456-79.456-79.456-79.456 36.931-79.456 79.456 36.931 79.456 79.456 79.456z"/><path d="M369.471 252.59c-21.962 0-43.033 6.452-62.071 17.957 11.537 31.051 18.37 67.792 18.37 110.921 0 42.843-28.541 76.151-77.517 95.22 60.768 51.424 260.267 40.459 260.267-33.403 0-127.13-65.981-190.695-139.049-190.695z"/></symbol><symbol id="twitter" viewBox="0 0 612 612"><path d="M612 116.258a250.714 250.714 0 0 1-72.088 19.772c25.929-15.527 45.777-40.155 55.184-69.411-24.322 14.379-51.169 24.82-79.775 30.48-22.907-24.437-55.49-39.658-91.63-39.658-69.334 0-125.551 56.217-125.551 125.513 0 9.828 1.109 19.427 3.251 28.606-104.326-5.24-196.835-55.223-258.75-131.174-10.823 18.51-16.98 40.078-16.98 63.101 0 43.559 22.181 81.993 55.835 104.479a125.556 125.556 0 0 1-56.867-15.756v1.568c0 60.806 43.291 111.554 100.693 123.104-10.517 2.83-21.607 4.398-33.08 4.398-8.107 0-15.947-.803-23.634-2.333 15.985 49.907 62.336 86.199 117.253 87.194-42.947 33.654-97.099 53.655-155.916 53.655-10.134 0-20.116-.612-29.944-1.721 55.567 35.681 121.536 56.485 192.438 56.485 230.948 0 357.188-191.291 357.188-357.188l-.421-16.253c24.666-17.593 46.005-39.697 62.794-64.861z"/></symbol><symbol id="vk" viewBox="0 0 548.358 548.358"><path d="M545.451 400.298c-.664-1.431-1.283-2.618-1.858-3.569-9.514-17.135-27.695-38.167-54.532-63.102l-.567-.571-.284-.28-.287-.287h-.288c-12.18-11.611-19.893-19.418-23.123-23.415-5.91-7.614-7.234-15.321-4.004-23.13 2.282-5.9 10.854-18.36 25.696-37.397 7.807-10.089 13.99-18.175 18.556-24.267 32.931-43.78 47.208-71.756 42.828-83.939l-1.701-2.847c-1.143-1.714-4.093-3.282-8.846-4.712-4.764-1.427-10.853-1.663-18.278-.712l-82.224.568c-1.332-.472-3.234-.428-5.712.144l-3.713.859-1.431.715-1.136.859c-.952.568-1.999 1.567-3.142 2.995-1.137 1.423-2.088 3.093-2.848 4.996-8.952 23.031-19.13 44.444-30.553 64.238-7.043 11.803-13.511 22.032-19.418 30.693-5.899 8.658-10.848 15.037-14.842 19.126-4 4.093-7.61 7.372-10.852 9.849-3.237 2.478-5.708 3.525-7.419 3.142-1.715-.383-3.33-.763-4.859-1.143-2.663-1.714-4.805-4.045-6.42-6.995-1.622-2.95-2.714-6.663-3.285-11.136-.568-4.476-.904-8.326-1-11.563-.089-3.233-.048-7.806.145-13.706.198-5.903.287-9.897.287-11.991 0-7.234.141-15.085.424-23.555.288-8.47.521-15.181.716-20.125.194-4.949.284-10.185.284-15.705s-.336-9.849-1-12.991a44.442 44.442 0 0 0-2.99-9.137c-1.335-2.95-3.289-5.232-5.853-6.852-2.569-1.618-5.763-2.902-9.564-3.856-10.089-2.283-22.936-3.518-38.547-3.71-35.401-.38-58.148 1.906-68.236 6.855-3.997 2.091-7.614 4.948-10.848 8.562-3.427 4.189-3.905 6.475-1.431 6.851 11.422 1.711 19.508 5.804 24.267 12.275l1.715 3.429c1.334 2.474 2.666 6.854 3.999 13.134 1.331 6.28 2.19 13.227 2.568 20.837.95 13.897.95 25.793 0 35.689-.953 9.9-1.853 17.607-2.712 23.127-.859 5.52-2.143 9.993-3.855 13.418-1.715 3.426-2.856 5.52-3.428 6.28-.571.76-1.047 1.239-1.425 1.427a21.387 21.387 0 0 1-7.71 1.431c-2.667 0-5.901-1.334-9.707-4-3.805-2.666-7.754-6.328-11.847-10.992-4.093-4.665-8.709-11.184-13.85-19.558-5.137-8.374-10.467-18.271-15.987-29.691l-4.567-8.282c-2.855-5.328-6.755-13.086-11.704-23.267-4.952-10.185-9.329-20.037-13.134-29.554-1.521-3.997-3.806-7.04-6.851-9.134l-1.429-.859c-.95-.76-2.475-1.567-4.567-2.427a30.301 30.301 0 0 0-6.567-1.854l-78.229.568c-7.994 0-13.418 1.811-16.274 5.428l-1.143 1.711c-.571.953-.859 2.475-.859 4.57 0 2.094.571 4.664 1.714 7.707 11.42 26.84 23.839 52.725 37.257 77.659 13.418 24.934 25.078 45.019 34.973 60.237 9.897 15.229 19.985 29.602 30.264 43.112 10.279 13.515 17.083 22.176 20.412 25.981 3.333 3.812 5.951 6.662 7.854 8.565l7.139 6.851c4.568 4.569 11.276 10.041 20.127 16.416 8.853 6.379 18.654 12.659 29.408 18.85 10.756 6.181 23.269 11.225 37.546 15.126 14.275 3.905 28.169 5.472 41.684 4.716h32.834c6.659-.575 11.704-2.669 15.133-6.283l1.136-1.431c.764-1.136 1.479-2.901 2.139-5.276.668-2.379 1-5 1-7.851-.195-8.183.428-15.558 1.852-22.124 1.423-6.564 3.045-11.513 4.859-14.846 1.813-3.33 3.859-6.14 6.136-8.418 2.282-2.283 3.908-3.666 4.862-4.142.948-.479 1.705-.804 2.276-.999 4.568-1.522 9.944-.048 16.136 4.429 6.187 4.473 11.99 9.996 17.418 16.56 5.425 6.57 11.943 13.941 19.555 22.124 7.617 8.186 14.277 14.271 19.985 18.274l5.708 3.426c3.812 2.286 8.761 4.38 14.853 6.283 6.081 1.902 11.409 2.378 15.984 1.427l73.087-1.14c7.229 0 12.854-1.197 16.844-3.572 3.998-2.379 6.373-5 7.139-7.851.764-2.854.805-6.092.145-9.712-.677-3.611-1.344-6.136-2.008-7.563z"/></symbol><symbol id="webinar" viewBox="0 0 100 100"><path d="M50 47.223a13.886 13.886 0 0 0 12.832-8.574A13.892 13.892 0 0 0 44.683 20.5a13.896 13.896 0 0 0-8.574 12.832 13.88 13.88 0 0 0 4.07 9.82 13.888 13.888 0 0 0 9.82 4.07zM50 25a8.333 8.333 0 1 1 0 16.667A8.333 8.333 0 0 1 50 25z"/><path d="M97.223 8.332H2.778a2.778 2.778 0 0 0-2.777 2.777v66.668c0 .739.293 1.446.812 1.965.524.52 1.23.813 1.965.813h94.445A2.779 2.779 0 0 0 100 77.778V11.108a2.777 2.777 0 0 0-2.777-2.777zM25.196 75a25.953 25.953 0 0 1 9.766-12.258A25.965 25.965 0 0 1 50 58.332a26.992 26.992 0 0 1 18.609 7.25A24.4 24.4 0 0 1 74.778 75zm69.25 0H80.555c.04-.266.04-.54 0-.805a29.923 29.923 0 0 0-8-12.613A32.53 32.53 0 0 0 50 52.778a31.476 31.476 0 0 0-18.793 5.675 31.452 31.452 0 0 0-11.762 15.715 2.701 2.701 0 0 0 0 .832H5.554V13.891h88.891zM77.777 86.109H22.222a2.779 2.779 0 0 0 0 5.558h55.555a2.779 2.779 0 1 0 0-5.558z"/></symbol></svg>