<svg xmlns="http://www.w3.org/2000/svg" viewBox="0 0 155.1 99.39">
  <defs>
    <style>.cls-1{fill:#fff;}.cls-2{mask:url(#mask);}.cls-3{fill:#fff362;}</style>
    <mask id="mask" x="0" y="0" width="135.1" height="67.4" maskUnits="userSpaceOnUse">
      <g id="a">
        <path class="cls-1" d="M135.1,0H0V67.4H135.1Z"/>
      </g>
    </mask>
  </defs>
  <title>icon-logo-ylw</title>
  <g id="Слой_2" data-name="Слой 2">
    <g id="Слой_1-2" data-name="Слой 1">
      <g class="cls-2">
        <path class="cls-3"
              d="M117.6,17.9l2.3,8.5-4.7.9ZM74,24.3a9.71,9.71,0,0,1,1,4.9v4.4a10.56,10.56,0,0,1-1,4.9,4,4,0,0,1-3,2,2.56,2.56,0,0,1-3-1c-.7-1-1-2.5-1-4.7V30.3a11.33,11.33,0,0,1,1-5,4,4,0,0,1,3-2.1A2.55,2.55,0,0,1,74,24.3Zm59.7,5v0Zm-11.4,6-1.4-4.8L114,31.7l-1.3,5.4-5.4,1,7.9-26.6,4.6-.8,8,23.7-5.5,1Zm-19.5,3.5-5.1,1V18.7l-4.7.8-.3,9a32,32,0,0,1-1,7.2,9.4,9.4,0,0,1-2.3,4.2,7.5,7.5,0,0,1-4,1.9l-1.3.2V37.8l.6-.2A3.46,3.46,0,0,0,87,35.2a30.79,30.79,0,0,0,.8-6.9l.4-12.1,14.6-2.6V38.8ZM80.1,32.5a13.4,13.4,0,0,1-2.4,8.3,10.1,10.1,0,0,1-6.7,4c-2.8.5-5,0-6.6-1.6s-2.4-4-2.5-7.4V31.5A14.24,14.24,0,0,1,64.3,23,10,10,0,0,1,71,19c2.8-.6,5,0,6.6,1.6s2.4,4.2,2.5,7.6ZM77.5,54.1l-.1.2h-.6Zm-24-6.6-4.8-9.4-2.2.4V48.7l-5,1V24.4l5-.9v10l1.7-.3,4.4-10.8,6.2-1L52.6,34.1l6.9,12.3-6,1Zm-18,3.2L10.1,55.2V30l5-.9v21l5.2-1V28.3l5-.9v21l5.1-1V26.5l5.1-.9ZM135,3.9V2.5c-.2-.2-.3-.5-.3-1.2l.4-.1V0a19.53,19.53,0,0,1-4.8,1c0,.2.5.5.6.7V2l-.9.2c0-.2.1-.3.3-.4-.1,0-.5.3-.8.2l.6-.5c-.7,0-.3.4-.9.5,0-.4-.4-.2-.4-.5h.7a4.5,4.5,0,0,1-1.8-.3c.1.2,0,.4-.4.6-1.2.2-.5-.4-1.2-.4-.3.3-1.1.2-1,.7-.4,0-.5-.2-.7-.3-.6.4-3,.6-2.2,1h.1c-2,1-4.4.6-6.5,1.1V3.8a22.16,22.16,0,0,0-3.6,1.1c-.4,0-1-.2-.8-.4A5.36,5.36,0,0,1,109,5c.9-.5-.4-.2.9-.4-1.3,0-1.6-.2-2.9.5.4-.5-1-.4-1.5-.1l.9.1-1.9.4.3-.7c-2.7-.2-4.4,2-6.6,1.2-.6.5,1.5,0,1,.6-1.2.1-2.6-.5-3-.4-1.6,0-1.3,1-3,1.2.2.1.5.7-.7,1s-1.6-.5-.9-.8h.5c.3-.1.8-.3.3-.5l-.1.3c-.6-.1-2.2.2-2-.2-.8.3-.2.4.4.4-1.5,0-2.3.4-3.9.4.3.1.6.3.3.4-2.3.1-1,.5-2.4.9-1-.2.1-.8-1.4-.3-1,0-.3-.5,0-.7-1.2.6-2.6.2-3.4.2l.7-.3-1.1.3.4.4-.8-.1c-.4.3.5.6-.4,1.1-.6,0-1.7.6-2,0,1.9,0-.3-.5,1.3-.8a3,3,0,0,1-1.1.2l.1-.2c-1.8-.2-.7.7-2.5,1,.2-.3-.5-.5-.8-.3.7-.2.4.4-.2.8-1.2,0-1.2.4-1.8.5h.7c-.2.3-.8.4-1.6.6,0-.2.7-.3.4-.4-.8.7-2.1-.2-3.3.4-.6,0-.2-.5-.7-.6-1.3.6-1.6-.2-3,.4.5.4.6.3-.4.9l2.4-.8-1.5,1a10.78,10.78,0,0,1,2-.6c-.7.4-.7.3-.3.6-1-.4-1.9.7-3.1.5l-.2-1c-1.8-.2-3,1-5.3,1.2h.8c-.2.5-1.4.3-2,.6,0-.3-.6-.4-1-.5.2.2-1.6.2-1.6,1l-1.1-.3c-1.9.1-2,1.3-3.7,1.5.4-.4-.4-.5.7-1-.6,0-1.1.1-1,.4-.4-.2-1.6.7-2.2.5-.2.2-.2.5-.9.6V16c0,.1-1,.4-.4.6-2-.7-5,1-6.7.4l-4,1c0-.2,0-.3.2-.3-1.6,0-.8,1.2-2.7,1.2-1-.4,1-.5.3-.6-.4-1.1-2.1.5-3.5,0h.3c-1-.2-2.2.8-3.8,1a.14.14,0,0,0,0-.2,13.81,13.81,0,0,1-4.3,1.7c.4-.5.6-.3.3-.7-.7.2.3.7-1,1-.5-.1-1.5-.2-1.7-.6l1.2-.3c-.7-.5-1.6.3-2.2.3v-.3c-1.8.5-1.8,1.2-3.8,1.5l.2.1c-1,1-1-.2-2,.5l-.5-.6c-.7.3-2.5,1.1-3.8,1.5A15.39,15.39,0,0,1,11,21.5c-.7.2-2.5.5-2.8,1a1.78,1.78,0,0,1,1-.4,7,7,0,0,1-3.5,1.4c0-.2,0-.3-.2-.4H4.6l-3.2.3a5.4,5.4,0,0,1-.5,2.8L1,27.5a13,13,0,0,1,0,3,27.5,27.5,0,0,0-.2,4.2c1-1.1,0,.9,1,.7.2.7.1,1,0,1l.1-.1v.1l-.7,2.3c-.3.5-.2-.7-.5-.6,0,1.5-.4.6-.7,1.6.4-.2.6.6.4,1.5l.5-1.3c.6,2.2-.9,2-.3,4.1l-.4-.7c.2,1.1,0,4.2.9,5.3-.1.2-.4.4-.5,0-.1,2.6,1,6,.4,8l-.3-.2c0,.5.5.9.2,1.5,0,0-.2-.2-.2,0a9.43,9.43,0,0,1,.3,2l-.3-.5a7.4,7.4,0,0,0,0,2.4l.2,1.1.7,4,.4-.2c-.4.4.2.6,1.2.6L6.6,67l-.1.1c3.2-.4,5-1.5,7.8-2.3,1.9.5,6-.7,8.8-.7-.5,0,0-.6.4-.8.7,0,1.7-.8,1.8-.1H25c.6.6,2,.2,3,0v-1c3,1,7-1.7,8.8-.7.6-.4,1.4-.5,2-.9v.5a33.48,33.48,0,0,0,5.1-.8l-.4.5c1.3-.2,1.4-1.8,2.5-2l.5.7c2.2-.4,4.6-.2,6.7-1.2,0,0,0,.3-.4.4,1-.2,4.1-.2,3.6-1.2.1.7,2.3-.3,3.4-.8v.5A3.54,3.54,0,0,1,62,55.8c.4,0,.4.4,0,.3,1,0,.7-.6,2.1-.6l-.4.4c1.1-.1,1-.3,1.6-.8.7-.3,2.2-.2,2.4.2a1.62,1.62,0,0,1,1.4-.8c.1.2-.1.3-.2.4,2,0,2.7-1,4.1-.8l.3.2q-1.29.26-2.6.4c0,.5,1.3.3.4,1.1,1-.5,2.5-1.5,3.8-1.5H75v.2l.7-.2h1c.2.3,1.4-.1,2-.2,0-.5.7-.6,0-.8l-.6.1-.2.1-1.5.3a1.54,1.54,0,0,1,1.6-.5l.7-1c1,.6,2.7.7,3,1,1.8-.5,4.4-1,5.4-2,.5-.2.7.1.9.2-.3.2-.7.2-.8.4,1-.4,3.1-.7,3.3-1.3,1.4,0-.7.7,1.2.2l-.3.3c3.9.4,5.7-2.7,10-2l-.6-.2c4.7-.3,9.4-2.3,14.1-2.1,1.3,0,1.4-.5,2.1-1l.4.5,1.3-.8c1.8-.8,3.5.7,5.8-.6l-.4-.3c.9,0,2.7-.7,2.6-.2.1-.1.2-.5.6-.3v.2l2.1-.8c1.7-.1,0,1.1,2.4.7.9-.2,2.4-1.2,2-1.3s-1,0-1-.3l.8-.3v-.2h.1V32.3h.2l-.2-.2V30.8c.2,0,.2.2.3.4.3-1-.3-.8.1-1.6h.2l-.3-.9c.2.2.6-.1.5.4.4-1.6-.6-2.6,0-3.2V26c-.2-1.6-.4-1-.8-1.2v-1l1-.8-.6-.2c0-.3,0-.7.3-.6-.4-.9-.2.1-.6-.4.5-1.1-.2-3,.6-3.3-.4-.4-.3,1-.6-.1,1-.4-.1-1.4.3-2.4.5.3.2,1.2.7.2-.9-.6.1-2,0-2.8-.7,0-.3-1.9-.5-3.3.2,0,.4-2.8.6-4.1a1.18,1.18,0,0,1-.4-1l-.2-2c.4,0,.6,0,.7.8Z"/>
      </g>
      <path class="cls-1"
            d="M45.5,89a10.58,10.58,0,0,1-2.4,7,10.3,10.3,0,0,1-6.3,3.2c-2.8.5-5,0-6.5-1.6S28,93.4,28,90V85.7a13.92,13.92,0,0,1,2.4-8.4,9.9,9.9,0,0,1,6.5-4c2.7-.4,4.8,0,6.3,1.3s2.2,3.3,2.4,6.2l-5.1.8a5.78,5.78,0,0,0-.8-3.5c-.5-.6-1.5-.7-2.8-.5a3.68,3.68,0,0,0-2.9,2,11,11,0,0,0-.9,4.8v4.7c0,2.5.3,4.2.9,5s1.5,1.2,2.8,1a4.39,4.39,0,0,0,2.8-1.5,8,8,0,0,0,.9-3.7l5-1ZM66.9,72.7l-6.3,1.1V94.7l-5.1.9V74.7l-6.1,1.1V71.5l17.5-3.1Zm8.6,10,4.7-.8-2.4-8.6Zm5.8,3.2-7,1.2L73,92.5l-5.4,1,7.9-26.6,4.6-.8,8,23.8-5.5,1Zm16.3-8.6V84l3.2-.6a2.88,2.88,0,0,0,2-1.2,3.59,3.59,0,0,0,.8-2.5c0-2.3-.8-3.3-2.5-3Zm0-3.7,2.6-.5a3.34,3.34,0,0,0,3-3.6,3,3,0,0,0-.7-2.4,2.56,2.56,0,0,0-2.2-.3l-2.7.5ZM92.5,89.1V63.9l7.8-1.3c2.6-.5,4.6-.3,6,.7s2,2.5,2,4.7a7,7,0,0,1-.9,3.5,5.89,5.89,0,0,1-2.3,2.4,3.21,3.21,0,0,1,2.6,1.5,6,6,0,0,1,1,3.4,9,9,0,0,1-2,6,9.9,9.9,0,0,1-5.9,2.8Zm34-20.6c0-2.2-.3-3.9-1-4.8a2.72,2.72,0,0,0-3-1.2,4,4,0,0,0-3,2.2,11,11,0,0,0-1,5v4.5a9.12,9.12,0,0,0,1,4.7,3,3,0,0,0,3.1,1,4,4,0,0,0,3-2,11,11,0,0,0,1-5V68.5Zm5.1,3.4a13.3,13.3,0,0,1-2.4,8.2,10.1,10.1,0,0,1-6.6,4c-2.8.5-5,0-6.6-1.6s-2.5-4-2.5-7.3V70.9a14,14,0,0,1,2.4-8.5,10,10,0,0,1,6.7-4.1c2.8-.5,5,0,6.6,1.7s2.4,4.1,2.4,7.6Zm12.8-2.2-2.2.4V80.3l-5.1.9V56.1l5.1-.9v10l1.7-.3,4.3-10.8,6.2-1.1-6.1,12.8L155.1,78l-6,1.1Z"/>
    </g>
  </g>
</svg>
