<svg xmlns="http://www.w3.org/2000/svg" viewBox="0 0 23.6 14">
  <path
    d="M23 1c.2-.6 0-1-.7-1h-2.6c-.7 0-1 .3-1.1.7A25 25 0 0 1 15.4 6c-.6.6-.9.8-1.2.8s-.4-.2-.4-.7V.9c0-.6-.2-.9-.8-.9H9a.7.7 0 0 0-.7.6c0 .6 1 .8 1 2.5V7c0 .8 0 1-.4 1-.9 0-3-3.2-4.3-6.9-.2-.7-.5-1-1.1-1H.9C0 0 0 .3 0 .7c0 .7.9 4.1 4 8.6 2.2 3 5.2 4.7 8 4.7 1.6 0 1.8-.4 1.8-1v-2.3c0-.8.1-.9.7-.9.3 0 1 .2 2.5 1.7 1.8 1.7 2 2.5 3 2.5h2.6c.8 0 1.1-.4 1-1.1a11 11 0 0 0-2.3-3A21.7 21.7 0 0 1 19.6 8c-.4-.5-.3-.7 0-1.1 0 0 3.1-4.4 3.4-6"
    data-name="Слой 1"/>
</svg>
