<svg xmlns="http://www.w3.org/2000/svg">
  <path
    d="M1.09 13.155c-.602 0-1.09-.503-1.09-1.122v-4.8c0-.62.488-1.123 1.09-1.123.602 0 1.09.502 1.09 1.122v4.8c0 .62-.488 1.123-1.09 1.123m4.725-9.29a.554.554 0 0 0 .546-.56.554.554 0 0 0-.546-.561.553.553 0 0 0-.545.56c0 .31.244.561.545.561m4.362 0a.553.553 0 0 0 .544-.56.552.552 0 0 0-.544-.561.553.553 0 0 0-.545.56c0 .31.244.561.545.561M5.494 1.62l-.205-.317-.202-.311-.453-.7a.191.191 0 0 1 .05-.26.18.18 0 0 1 .253.053l.486.75.204.315.207.32a5.836 5.836 0 0 1 2.162-.409c.773 0 1.505.147 2.162.409l.207-.32.204-.315.486-.75a.178.178 0 0 1 .252-.053.191.191 0 0 1 .05.26l-.453.7-.202.311-.204.317c1.542.739 2.586 2.14 2.586 3.743H2.908c0-1.603 1.043-3.004 2.586-3.743m6.44 13.906h-.832c.028.098.044.202.044.31v2.37c0 .62-.489 1.122-1.09 1.122-.603 0-1.091-.503-1.091-1.122v-2.37c0-.109.016-.213.044-.311H6.983c.028.098.044.202.044.31v2.37c0 .62-.489 1.122-1.09 1.122-.603 0-1.091-.503-1.091-1.122v-2.369c0-.109.015-.213.043-.311h-.83c-.635 0-1.151-.532-1.151-1.186V6.11h10.176v8.229c0 .654-.516 1.186-1.15 1.186m2.967-2.37c-.602 0-1.09-.503-1.09-1.122v-4.8c0-.62.488-1.123 1.09-1.123.603 0 1.09.502 1.09 1.122v4.8c0 .62-.487 1.123-1.09 1.123"
    mask="url(#a)"/>
</svg>
