<svg xmlns="http://www.w3.org/2000/svg" viewBox="0 0 112.2 112.2">
  <path fill="#dc4e41" d="M0 0h112.2v112.2H0z"/>
  <path fill="#fff"
        d="M19.53 56.61a23.12 23.12 0 0 0 15.6 21.86c8.61 2.89 19.21.73 24.94-6.65 4.19-5.17 5.14-12.06 4.68-18.5-7.38-.07-14.75 0-22.12 0v7.87c4.42.12 8.83.07 13.25.15-1.12 3.82-3.65 7.38-7.51 8.76-7.44 3.28-16.94-1-19.28-8.81-2.83-7.48 1.8-16.5 9.44-18.67 4.74-1.67 9.62.21 13.67 2.67 2.05-1.92 4-4 5.86-6.05a23.13 23.13 0 0 0-16.61-5.7c-11.92.12-22.37 11.14-21.92 23.07z"/>
  <path fill="#fff" d="M79.1 46.67c0 2.2 0 4.41-.06 6.6h-6.6v6.63h6.6v6.6h6.58v-6.61h6.6v-6.57h-6.6v-6.6z"/>
</svg>
