<svg xmlns="http://www.w3.org/2000/svg" viewBox="0 0 155.3 99.5">
  <defs>
    <mask id="a" width="135.4" height="70.2" x="-.1" y="0" maskUnits="userSpaceOnUse">
      <path d="M135.3.1H-.1v70.1h135.4z" class="cls-1"/>
    </mask>
  </defs>
  <g mask="url(#a)">
    <path
      d="M117.7 18.8l2.4 8.8-4.8.9 2.4-9.8zm-43.6 6.6c.7 1 1 2.7 1 5V35a9.8 9.8 0 0 1-1 5.1 4 4 0 0 1-3 2.2 2.8 2.8 0 0 1-3-1.1 9.7 9.7 0 0 1-1-4.9v-4.5a12.5 12.5 0 0 1 1-5.3 4 4 0 0 1 3-2.2 2.7 2.7 0 0 1 3 1.2zm59.9 5.2zm-11.5 6.3l-1.3-5.1-7 1.3-1.3 5.6-5.4 1 7.9-27.6 4.6-.9 8 24.7zM103 40.5l-5.1 1V19.6l-4.7.8-.3 9.4a41.4 41.4 0 0 1-1 7.4 9.9 9.9 0 0 1-2.3 4.4 7.6 7.6 0 0 1-4.1 2l-1.2.2v-4.4l.5-.1a3.6 3.6 0 0 0 2.3-2.6 29.5 29.5 0 0 0 1-7.1l.2-12.7 14.7-2.7v26.3zm-22.8-6.7a14.3 14.3 0 0 1-2.4 8.6 10 10 0 0 1-6.6 4.2c-2.9.5-5 0-6.7-1.7s-2.4-4.2-2.5-7.6v-4.5a14.3 14.3 0 0 1 2.5-8.8 10 10 0 0 1 6.6-4.3c2.8-.5 5 0 6.7 1.8 1.6 1.6 2.4 4.3 2.4 7.9zm-2.6 22.5v.2h-.7zm-24-6.9l-4.9-9.6-2.2.4v10.6l-5 1V25.5l5-1V35l1.7-.3 4.4-11.3 6.2-1.1-6.2 13.3 6.9 12.7-6 1.1zm-18 3.3l-25.5 4.7V31.3l5.1-.9v21.8l5.1-1V29.5l5.1-1v21.8l5-1V27.7l5.2-1v26zm99.6-48.6V2.8a3 3 0 0 1-.4-1.4h.5V0a20.5 20.5 0 0 1-4.8 1c0 .3.4.5.5.8v.3l-.8.2c0-.2 0-.3.3-.4-.2 0-.5.3-.8.2l.6-.5c-.8 0-.3.4-1 .5 0-.4-.4-.2-.4-.5l.8-.1c-.7 0-1.5 0-1.8-.3a.7.7 0 0 1-.4.7c-1.3.2-.5-.4-1.3-.4-.2.3-1 .1-1 .7-.4 0-.5-.2-.7-.3-.6.3-3 .6-2.1 1h.1V3c-2 1-4.5.5-6.6 1.1v-.2a37.8 37.8 0 0 0-3.6 1.2c-.4 0-1-.2-.8-.4a5.4 5.4 0 0 1-2.4.5c.9-.5-.4-.2 1-.4-1.4 0-1.7-.2-3 .6.4-.6-1-.5-1.5-.2l.9.2-1.9.3.3-.7c-2.7-.2-4.4 2.1-6.6 1.2-.6.6 1.5 0 1 .7a13 13 0 0 1-3-.5c-1.6 0-1.3 1.2-3 1.3.2.1.5.7-.7 1.1-1.2.2-1.6-.6-.9-1l.4.1c.4-.1.9-.3.4-.5l-.1.3c-.7-.1-2.3.2-2-.2-.8.3-.3.4.4.4-1.5 0-2.3.4-4 .5.4 0 .6.3.4.3-2.3.2-1 .6-2.5 1-.9-.2.2-.9-1.3-.3-1 0-.3-.5 0-.8-1.3.7-2.6.2-3.4.3l.7-.3-1.2.3.5.3c-.4 0-.8.1-.8 0-.4.3.4.6-.4 1.1-.6 0-1.7.6-2 0 1.8 0-.3-.5 1.2-.8a3 3 0 0 1-1.1.1l.2-.1c-1.9-.2-.7.8-2.6 1 .2-.3-.5-.5-.8-.3.8-.2.5.4-.1.8-1.3 0-1.3.4-1.9.5h.7c-.2.4-.7.4-1.5.7-.2-.3.7-.3.4-.4-.8.7-2.2-.2-3.4.4-.6-.1-.1-.6-.7-.6-1.3.6-1.6-.2-3 .4.5.4.6.2-.4.9l2.4-.8-1.5 1a13.6 13.6 0 0 1 2-.6c-.7.4-.6.3-.2.6-1.1-.4-2 .8-3.2.5l-.1-1c-1.9-.2-3 1-5.3 1.2h.7c-.2.6-1.4.4-2 .7 0-.4-.5-.4-.9-.6 0 .3-1.7.3-1.7 1l-1.1-.1c-1.9.1-2 1.4-3.7 1.6.4-.5-.4-.6.7-1.1-.6 0-1.1.1-1 .4-.5-.2-1.6.7-2.2.5-.2.2-.3.6-1 .7v-.2c0 .2-1 .4-.3.7-2-.8-5 1-6.8.4l-4 1c.1-.2 0-.2.3-.2-1.7 0-.8 1.2-2.7 1.1-1-.4 1-.5.3-.6-.5-1.1-2.2.6-3.5.1h.3c-1-.3-2.3.8-3.8 1V20a14.5 14.5 0 0 1-4.4 1.8c.4-.6.7-.4.3-.8-.7.2.3.7-1 1-.5 0-1.4-.1-1.7-.6l1.3-.3c-.8-.5-1.6.4-2.3.4v-.3c-1.9.4-1.8 1.1-3.8 1.5l.2.1c-1 1-1-.2-2 .5l-.5-.6a39.5 39.5 0 0 1-3.7 1.5 16.9 16.9 0 0 1 3-1.7c-.7.1-2.5.5-2.8 1a2.1 2.1 0 0 1 1-.4 6.7 6.7 0 0 1-3.4 1.5.6.6 0 0 0-.3-.5h-.9l-3.2.4a5.2 5.2 0 0 1-.5 2.8l.2 1.4a14.1 14.1 0 0 1-.1 3.1 22.2 22.2 0 0 0-.3 4.5c1-1.1 0 .9 1 .7.2.7.1 1 0 1h.3v.1l-.7 2.2c-.3.6-.2-.7-.5-.6 0 1.6-.4.7-.7 1.7.4-.2.6.6.4 1.5l.5-1.3c.6 2.3-.9 2-.3 4.3l-.4-.8c.2 1.2 0 4.4.9 5.5-.1.2-.4.5-.5 0-.1 2.8 1 6.2.4 8.4l-.4-.2c0 .5.5.9.2 1.5 0 0-.2-.2-.2 0a9.5 9.5 0 0 1 .3 2.1l-.3-.6a8 8 0 0 0 0 2.6l.2 1.1.7 4.1h.4c-.4.4.2.6 1.2.6l3.4-.3v.1c3-.4 5-1.6 7.7-2.4 2 .6 6-.7 8.8-.7-.4 0 0-.7.5-.8.7 0 1.7-1 1.7-.2H25c.6.7 1.9.3 3 0V65c3 .9 7-1.8 8.8-.9l2-.8v.5a32.3 32.3 0 0 0 5-.8l-.3.4c1.3-.2 1.4-1.8 2.5-2l.5.7c2.2-.4 4.6-.2 6.7-1.3a.5.5 0 0 1-.4.5c1-.2 4.1-.2 3.6-1.2.1.6 2.3-.4 3.5-1l-.2.6a5 5 0 0 1 2.3-1.4c.4 0 .4.3 0 .3 1.1 0 .7-.7 2.1-.6l-.4.4a2.2 2.2 0 0 0 1.6-.8 2.7 2.7 0 0 1 2.5.1c0-.3.6-.8 1.3-.8.2.2 0 .3-.2.4 2 0 2.8-1.1 4.2-.9a.3.3 0 0 0 .3.3 26 26 0 0 1-2.7.4c0 .5 1.3.3.5 1.2a8.2 8.2 0 0 1 3.7-1.6h.2l-.1.2a1 1 0 0 0 .7-.3h1c.3.4 1.5 0 2.1-.1-.1-.5.7-.6-.1-.9l-.5.2h-.3l-1.5.3a2.5 2.5 0 0 1 1.7-.5l.7-1c1 .6 2.6.7 3 1.1 1.8-.6 4.3-1 5.4-2.2.5-.2.6.2.9.3-.3.2-.7.2-.9.4 1-.5 3.2-.7 3.3-1.4 1.4 0-.6.7 1.2.3l-.2.2c3.8.4 5.7-2.7 10-2.1-.4 0-.5 0-.6-.2 4.7-.2 9.4-2.3 14.1-2.1 1.4 0 1.4-.5 2.2-1l.3.5 1.3-.9c1.8-.8 3.5.7 5.8-.6l-.4-.3c1 0 2.7-.7 2.7-.3a.6.6 0 0 1 .6-.3v.3l2.1-.9c1.7 0 0 1.2 2.4.8.8-.2 2.4-1.3 2-1.4s-1 0-1-.3l.8-.3V44h.1V33.8h.1v-1.5l.1.4c.4-1-.2-.9.2-1.7h.1l-.2-.9c.2.2.5-.2.4.4.4-1.7-.5-2.7 0-3.3v.1c-.1-1.7-.3-1-.7-1.3v-1l1-.9-.6-.2c0-.2 0-.7.3-.6-.4-1-.3.1-.6-.4.5-1.2-.3-3.2.6-3.5-.4-.4-.3 1.2-.6 0 1-.4-.2-1.5.3-2.6.4.3.2 1.3.6.3-.8-.7.2-2 0-3-.6 0-.2-2-.4-3.4.2 0 .3-2.9.5-4.2h.2c-.4-.1-.5-.6-.6-1.1l-.1-2c.4-.1.5 0 .7.8z"
      class="cls-1"/>
  </g>
  <path
    d="M45.5 89.1a11 11 0 0 1-2.4 7 10.3 10.3 0 0 1-6.3 3.2c-2.8.5-5 0-6.5-1.6S28 93.5 28 90.1v-4.3a14.6 14.6 0 0 1 2.3-8.4 9.9 9.9 0 0 1 6.6-4c2.7-.4 4.8 0 6.2 1.3s2.3 3.3 2.5 6.2l-5.1.8a5.7 5.7 0 0 0-.9-3.5c-.5-.6-1.4-.7-2.7-.5a4 4 0 0 0-3 2 11 11 0 0 0-.8 4.8v4.7c0 2.5.3 4.2.8 5s1.5 1.2 3 1a4.7 4.7 0 0 0 2.7-1.5 7 7 0 0 0 .8-3.7l5.1-1zm21.4-16.3l-6.2 1.1v20.9l-5.1.9V74.8l-6.2 1.1v-4.3l17.5-3.1zm8.6 10l4.7-.8-2.3-8.6zm5.8 3.2l-7 1.2-1.3 5.4-5.3 1L75.5 67l4.7-.8 8 23.8-5.5 1zm16.4-8.6v6.7l3.2-.6a2.9 2.9 0 0 0 2-1.2 3.6 3.6 0 0 0 .8-2.5c0-2.3-.8-3.3-2.5-3zm0-3.7l2.6-.5a3.3 3.3 0 0 0 3-3.6 3 3 0 0 0-.7-2.4 2.7 2.7 0 0 0-2.3-.3l-2.6.5zm-5.1 15.5V64l7.7-1.3c2.7-.5 4.7-.3 6 .7s2.1 2.5 2.1 4.7a7 7 0 0 1-.9 3.5 5.9 5.9 0 0 1-2.3 2.4 3.2 3.2 0 0 1 2.6 1.5 5.3 5.3 0 0 1 1 3.4 9 9 0 0 1-2 6 10 10 0 0 1-5.9 2.8l-8.3 1.5zm34.1-20.6c0-2.2-.3-3.9-1-4.8a2.7 2.7 0 0 0-3-1.2 4 4 0 0 0-3 2.2 11 11 0 0 0-1 5v4.5c0 2.2.3 3.7 1 4.7a3 3 0 0 0 3 1 4 4 0 0 0 3-2 11 11 0 0 0 1-5zm5 3.4a13.3 13.3 0 0 1-2.3 8.2 10.1 10.1 0 0 1-6.7 4c-2.8.5-5 0-6.6-1.6s-2.5-4-2.5-7.3V71a14 14 0 0 1 2.4-8.5 10 10 0 0 1 6.7-4.1c2.8-.5 5 0 6.6 1.7s2.5 4.1 2.5 7.6V72zm12.8-2.2l-2.2.4v10.2l-5.1.9V56.2l5.1-.9v10l1.7-.3 4.4-10.8 6.2-1.1-6.1 12.8 6.8 12.2-6 1.1z"
    class="cls-1"/>
</svg>
