<svg width="17" height="15" viewBox="0 0 17 15" xmlns="http://www.w3.org/2000/svg"><title>EB42E50B-F7A8-4CF0-888B-F8F1B2CA7214</title><path d="M4.475 1.795c1.474.316 2.021.68 3.729 1.437 1.688.751 2.844 1.04 4.25 1.021 1.736-.022 3.896-1.479 3.854-3.937-.687 1.73-2.041 2.166-3.166 2.271-1.058.098-2.292-.105-4.028-.844C7.751 1.163 6.229.373 4.475.066 2.454-.288.121.774 0 3.4c1.558-1.833 3.017-1.916 4.475-1.604m8.667 5.791c-1.058.098-2.292-.104-4.028-.844-1.363-.58-2.884-1.369-4.639-1.677C2.454 4.712.121 5.776 0 8.4c1.559-1.833 3.017-1.916 4.475-1.604 1.474.316 2.022.68 3.73 1.438 1.687.75 2.843 1.038 4.25 1.021 1.735-.022 3.895-1.48 3.854-3.938-.688 1.73-2.042 2.167-3.167 2.271m0 4.999c-1.058.098-2.292-.104-4.028-.844-1.363-.58-2.884-1.369-4.639-1.677C2.454 9.712.121 10.776 0 13.4c1.559-1.833 3.017-1.916 4.475-1.604 1.474.316 2.022.68 3.73 1.438 1.687.75 2.843 1.038 4.25 1.021 1.735-.022 3.895-1.48 3.854-3.938-.688 1.73-2.042 2.167-3.167 2.271" fill="#FFF" fill-rule="evenodd"/></svg>