<svg width="19" height="17" viewBox="0 0 19 17" xmlns="http://www.w3.org/2000/svg"><title>13154D6F-7ED3-4B08-BA17-406A2C3DFDA2</title><g fill="#FFF"><path d="M17.736 4.529a1.84 1.84 0 0 0 .87-2.488c-.462-.922-1.6-1.303-2.542-.85a1.84 1.84 0 0 0-.87 2.486c.462.922 1.6 1.303 2.542.852zm-5.275 2.095c-.145.692-.081 1.311.623 1.5l3.3.739c.528.141.856-.066 1.005-.466.15-.4-.16-.792-.621-.942l-1.572-.758-.653-.427.303-1.445c.093-.44-.253-1.004-.455-1.409a1.58 1.58 0 0 0-2.094-.701l-1.085.52 1.73 1.132c-.04.134-.133.6-.164.75L5.133.12a.737.737 0 0 0-1.01.196.703.703 0 0 0 .2.989l8.138 5.318z"/><path d="M18.896 14.369a.742.742 0 0 0-1.006-.247l-1.01.591L9.5 12.24l3.852-2.376a1.17 1.17 0 0 0-.067-1.863l-1.761-1.258.632-.303.073-.035L8.552 4a1.988 1.988 0 0 0-1.108 1.468c-.127.758.197 1.418.929 1.958l2.24 1.6-3.05 2.546L.971 9.35a.735.735 0 0 0-.932.445.715.715 0 0 0 .454.913l16.232 5.471a.746.746 0 0 0 .615-.062l1.302-.764a.71.71 0 0 0 .253-.984z"/></g></svg>