<svg width="22" height="21" viewBox="0 0 22 21" xmlns="http://www.w3.org/2000/svg"><title>159E53C7-4FD6-4239-9930-272652A0711F</title><g fill="#757575" fill-rule="evenodd"><path d="M10.608 10.216a1.608 1.608 0 1 0 0-3.216 1.608 1.608 0 0 0 0 3.216m-2.172 7.058c-.237-.18-.781-.71-1.375-1.19-.594-.482-1.118-.79-1.775-.983-.328-.097-.983-.155-1.542-.03-.558.125-1.542.61-1.744 1.99.48-.47 1.002-.716 1.489-.757.489-.038.953.104 1.411.34.458.236 1.999 1.416 2.833 2.052a15.45 15.45 0 0 0 3.187 1.875c.641.281 1.541.437 2.141.437.734 0 1.297-.109 1.859-.5-1.453.016-2.812-.656-3.937-1.343-1.019-.623-1.672-1.125-2.547-1.89"/><path d="M21.762 8.568L19.22 7.411l-1.421.232-.016.055L5.107 2.646l.017-.058-.973-1.359L1.629 0C.863 1.361.915 2.455.915 2.455l2.522 1.229 1.424-.192.009-.032 1.433.571a.99.99 0 0 0 .06.638l.002.005 1.119 5.594-.373 2.481c-.813-.427-1.688-.73-2.594-.766a4.12 4.12 0 0 0-2.743.862A5.067 5.067 0 0 0 .709 13.99c-.3.443-.551.939-.709 1.474.594-.838 1.32-1.44 2.081-1.774.763-.336 1.559-.384 2.332-.22.775.164 1.53.523 2.256.989.362.235.721.488 1.069.771.352.276.697.571 1.034.888.162.149.357.329.544.49a11.954 11.954 0 0 0 1.779 1.316c.835.496 1.739.883 2.693.981.476.051.962.026 1.436-.095a3.746 3.746 0 0 0 1.341-.655c.409-.313.77-.713 1.061-1.173.29-.458.521-.97.653-1.516-.554.882-1.266 1.519-2.02 1.84-.755.326-1.547.326-2.312.114-.767-.212-1.514-.615-2.229-1.114a16.14 16.14 0 0 1-.348-.253l1.009-4.097 3.45-3.521c.002 0 .003 0 .005-.004a.806.806 0 0 0 .278-.488l1.447.576-.011.039.996 1.331 2.542 1.157c.746-1.386.676-2.478.676-2.478zM12.41 9.905l-.013.011C9.756 12.308 8.618 8.54 8.618 8.54L7.599 4.547l7.237 2.885-2.426 2.473z"/></g></svg>