<svg width="17" height="18" viewBox="0 0 17 18" xmlns="http://www.w3.org/2000/svg"><title>8FB723EE-DC8F-4213-898F-3D5788BBEEF4</title><g fill="#FFF" fill-rule="evenodd"><path d="M4.476 8.535c.734 0 1.328-.611 1.328-1.364 0-.753-.594-1.363-1.328-1.363-.734 0-1.328.61-1.328 1.363s.594 1.364 1.328 1.364m8.772-5.222c.92-.156 1.55-1 1.392-1.911A1.676 1.676 0 0 0 12.71.024c-.92.156-1.55 1-1.393 1.91a1.677 1.677 0 0 0 1.931 1.379"/><path d="M15.827 8.543l-.78-.636-1.54-1.137s.262-1.685.29-1.985c.03-.3-.01-.418-.24-.516-.23-.098-1.856-.584-1.856-.584-.102-.028-.213.01-.312.084l-.025-.023c-.894.928-2 2.496-2 2.496s-1.317 2.615-1.49 3.166c-.345.153-1.653.597-1.653.597s-.606-.447-1.114-.834a.913.913 0 0 0-.488-.173l-1.083-.084a.512.512 0 0 0-.512.486s-.121 2.076-.148 2.847c-.006.167.129.309.259.444a272.33 272.33 0 0 1 1.854 2.034l-.153 2.22c0 .345.157.51.424.542.253.029.462-.12.509-.455l.47-2.315-.023-.161-1.161-1.771.037-2.18.844.553c.093.04.195.054.296.04 0 0 1.94-.853 2.378-1.043a.036.036 0 0 1 .009-.004l.002-.001.002-.002A.871.871 0 0 0 9 9.818c.216-.327 1.442-2.951 1.442-2.951l.165-.158-.38 1.808c-.122.87-.093 1.517.737 2.232a.408.408 0 0 0 .045.049l3.11 2.463-.107 3.155c.03.779.107 1.23.608 1.282.467.048.605-.913.637-1.156 0 0 .386-3.022.428-3.448.043-.427.052-.93-.288-1.251l-2.423-2.241.212-1.126s.023-.165.07-.283c0 0 .047.062.588.398l.917.558c.453.26.989.486 1.196.169.209-.316.089-.56-.13-.775"/><path d="M10.091 10.988l-.153 2.065s-.64 1.804-1.093 2.863c-.34.803-.488 1.382-.205 1.527.434.22.962-.275 1.49-1.19.881-1.533 1.337-2.3 1.502-2.672l.232-.973s-1.535-.966-1.773-1.62M2.317 12.32c.036-.404.302-2.957.302-2.957.083-1.09-1.243-.581-1.712.17-.468.754-.955 1.873-.903 2.627.049.692.698.807 1.31.86.615.054.967-.296 1.003-.7m.515.794v.093l-.123 1.313-1.329 1.71c-.231.248-.26.524-.072.706a.466.466 0 0 0 .684-.032l1.764-1.7a.61.61 0 0 0 .16-.361l.127-.426-.013-.03s-.882-.846-1.2-1.271"/></g></svg>