<svg width="14" height="18" viewBox="0 0 14 18" xmlns="http://www.w3.org/2000/svg"><title>72E0D730-995A-4E00-8E3D-2A3A08973C28</title><g fill="#FFF" fill-rule="evenodd"><path d="M8.621 9.53c-.03.406.054 1.007.143 1.229l2.627 5.622c.135.289.292.622.067.956a.746.746 0 0 1-.628.333c-.449 0-.629-.333-.808-.6l-3.21-5.356-.876 1.756c-.202.422-.606 1-.92 1.333L3.242 16.67c-.224.244-.404.444-.74.444a.723.723 0 0 1-.652-.4c-.202-.422.045-.733.27-1l1.751-2.133c.18-.222.426-.69.516-.978l.687-2.104c.168-.505.24-.858.225-1.245L5.173 5.93a150.94 150.94 0 0 1-4.588-.607c-.366-.057-.683-.312-.557-.76.125-.447.512-.476.833-.44.254.03 3.616.14 5.593.115 1.812-.023 2.716-.636 3.09-.85.4-.23 2.442-1.382 2.838-1.612.365-.212.677-.066.824.194.147.26.041.562-.274.794-1.042.77-4.139 3.12-4.139 3.12L8.621 9.53z"/><path d="M8.848 1.402c.157.91-.47 1.756-1.392 1.91a1.675 1.675 0 0 1-1.93-1.377C5.368 1.024 5.997.18 6.917.024a1.676 1.676 0 0 1 1.931 1.378"/></g></svg>