<svg width="20" height="20" viewBox="0 0 20 20" xmlns="http://www.w3.org/2000/svg" xmlns:xlink="http://www.w3.org/1999/xlink"><title>DA4DBAB1-5D54-4520-91DB-1525F0C546C7</title><defs><path id="a" d="M0 19.997V.002h19.998v19.995z"/></defs><g fill="none" fill-rule="evenodd"><mask id="b" fill="#fff"><use xlink:href="#a"/></mask><path d="M16.916.002a3.082 3.082 0 0 1 3.082 3.082v13.834A3.082 3.082 0 0 1 16.916 20H3.082A3.082 3.082 0 0 1 0 16.918V3.084A3.082 3.082 0 0 1 3.082.002h13.834z" fill="#4D6D8F" mask="url(#b)"/><path d="M14.314 9.924s1.718-2.484 1.89-3.3c.056-.292-.07-.455-.365-.455h-1.491c-.342 0-.467.151-.57.373 0 0-.805 1.76-1.786 2.87-.315.358-.475.466-.649.466-.14 0-.205-.12-.205-.444V6.6c0-.396-.045-.513-.364-.513h-2.39c-.182 0-.296.108-.296.256 0 .374.558.458.558 1.47v2.088c0 .42-.023.583-.217.583-.512 0-1.73-1.808-2.413-3.86-.136-.42-.284-.537-.671-.537H3.854a.36.36 0 0 0-.376.373c0 .408.467 2.298 2.3 4.829 1.229 1.703 2.845 2.624 4.302 2.624.887 0 1.104-.152 1.104-.536V12.07c0-.326.125-.466.307-.466.205 0 .566.067 1.411.921 1.002.98 1.07 1.388 1.617 1.388h1.673c.17 0 .33-.082.33-.373 0-.385-.49-1.073-1.24-1.89-.308-.42-.809-.874-.968-1.084-.228-.245-.16-.385 0-.642" fill="#FFFFFE"/></g></svg>