<svg width="28" height="28" viewBox="0 0 28 28" xmlns="http://www.w3.org/2000/svg"><title>8938BC91-C935-4D45-8B7E-3F5689E5F6B9</title><g fill="none" fill-rule="evenodd"><circle fill="#000" opacity=".5" cx="14" cy="14" r="13"/><path d="M14 28C6.268 28 0 21.732 0 14S6.268 0 14 0s14 6.268 14 14-6.268 14-14 14zm1.621-13.144l.172-3.645s3.097-2.351 4.14-3.121c.314-.232.42-.534.273-.794-.147-.26-.459-.406-.824-.194-.396.23-2.438 1.383-2.838 1.612-.374.214-1.278.827-3.09.85-1.977.026-5.339-.084-5.593-.114-.32-.037-.708-.008-.833.44-.126.447.191.702.557.759 1.165.183 3.834.526 4.588.608l.126 3.323c.014.387-.057.74-.225 1.245l-.687 2.104c-.09.289-.337.756-.516.978l-1.75 2.133c-.226.267-.473.578-.27 1a.72.72 0 0 0 .65.4c.337 0 .517-.2.741-.444l1.774-1.867c.314-.333.718-.911.92-1.333l.875-1.756 3.211 5.356c.18.267.36.6.808.6a.746.746 0 0 0 .628-.333c.225-.334.068-.667-.067-.956l-2.627-5.622c-.089-.222-.174-.823-.143-1.23zm-.275-8.454a1.676 1.676 0 0 0-1.93-1.378c-.92.156-1.55 1-1.392 1.91a1.675 1.675 0 0 0 1.93 1.379c.921-.155 1.55-1 1.392-1.911z" fill="#FFF"/></g></svg>