<svg width="28" height="28" viewBox="0 0 28 28" xmlns="http://www.w3.org/2000/svg"><title>D8B59B2E-D192-4D67-9CD6-8FFA271C6779</title><g fill="none" fill-rule="evenodd"><circle fill="#000" opacity=".5" cx="14" cy="14" r="13"/><path d="M14 28C6.268 28 0 21.732 0 14S6.268 0 14 0s14 6.268 14 14-6.268 14-14 14zm2.513-19.471a1.77 1.77 0 0 0 1.765-1.765A1.77 1.77 0 0 0 16.513 5a1.77 1.77 0 0 0-1.765 1.764 1.77 1.77 0 0 0 1.765 1.765zM7.866 14a4.13 4.13 0 0 0-4.118 4.118 4.13 4.13 0 0 0 4.118 4.117 4.13 4.13 0 0 0 4.118-4.117A4.13 4.13 0 0 0 7.866 14zm0 7a2.864 2.864 0 0 1-2.882-2.882 2.865 2.865 0 0 1 2.882-2.883 2.865 2.865 0 0 1 2.882 2.883A2.864 2.864 0 0 1 7.866 21zm11.895-8.818c0-.413-.326-.55-.735-.61-.969-.138-1.59-.798-2.285-1.35 0 0-1.41-1.31-1.856-1.759-.275-.277-.563-.489-.95-.46-.364.024-.62.15-.919.485l-2.755 3.016a1.671 1.671 0 0 0-.513 1.176c0 .462.307.66.606.995l2.594 2.141.188 3.375c0 .472.117.803.59.803.471 0 .672-.35.672-.823l.181-3.719c0-.454-.182-.89-.506-1.208L12.578 12.8l2.318-2.217.791.666c.868.887 1.821 1.28 3.16 1.466.506.071.914-.022.914-.533zM18.866 14a4.13 4.13 0 0 0-4.118 4.118 4.13 4.13 0 0 0 4.118 4.117 4.13 4.13 0 0 0 4.118-4.117A4.13 4.13 0 0 0 18.866 14zm0 7a2.864 2.864 0 0 1-2.882-2.882 2.865 2.865 0 0 1 2.882-2.883 2.865 2.865 0 0 1 2.882 2.883A2.864 2.864 0 0 1 18.866 21z" fill="#FFF"/></g></svg>