<svg width="18" height="18" viewBox="0 0 18 18" xmlns="http://www.w3.org/2000/svg"><title>1041225E-C926-4E41-89F0-3E4B8671C72B</title><path d="M17.32.044L15.417.91a1.143 1.143 0 0 0-.33.229l-3.1 3.103-10.68-1.28a.634.634 0 0 0-.526.18l-.595.596a.635.635 0 0 0 .19 1.029l8.247 2.869-2.79 2.76h-3.84a.642.642 0 0 0-.45.185l-.32.323a.634.634 0 0 0 .198 1.033l3.583 1.11 1.042 3.516a.637.637 0 0 0 1.034.199l.322-.323a.634.634 0 0 0 .186-.45V12.15l2.791-2.76 2.837 8.218a.636.636 0 0 0 1.03.189l.594-.594a.635.635 0 0 0 .182-.525L13.74 5.998l3.103-3.103c.095-.096.172-.206.228-.33L17.94.663a.467.467 0 0 0-.619-.62" fill="#757575" fill-rule="evenodd"/></svg>