<svg width="28" height="28" viewBox="0 0 28 28" xmlns="http://www.w3.org/2000/svg"><title>B11D6599-A097-4C76-BF1F-953FB8281394</title><g fill="none" fill-rule="evenodd"><circle fill="#000" opacity=".5" cx="14" cy="14" r="13"/><path d="M14 28C6.268 28 0 21.732 0 14S6.268 0 14 0s14 6.268 14 14-6.268 14-14 14zm1.344-22.103l-3.115 5.701a582.59 582.59 0 0 1-.963-1.757c-.653-1.196-1.722-1.196-2.377 0l-3.701 6.773L4 18.792h20.765L17.721 5.897C17.394 5.299 16.964 5 16.534 5c-.431 0-.863.299-1.19.897z" fill="#FFF"/></g></svg>