<svg width="12" height="20" viewBox="0 0 12 20" xmlns="http://www.w3.org/2000/svg"><title>78C46A77-E4A7-4A92-9A00-AF02B43224B0</title><path d="M6 3.025c1.22 0 2.214.959 2.214 2.137S7.22 7.298 6 7.298 3.787 6.34 3.787 5.162c0-1.179.993-2.137 2.213-2.137zm0 7.297c2.949 0 5.347-2.314 5.347-5.16C11.347 2.315 8.949 0 6 0 3.05 0 .653 2.316.653 5.162s2.398 5.16 5.347 5.16zm2.163 4.21a10.21 10.21 0 0 0 3.105-1.24 1.482 1.482 0 0 0 .491-2.086 1.565 1.565 0 0 0-.978-.67 1.613 1.613 0 0 0-1.182.195 6.997 6.997 0 0 1-7.198 0 1.612 1.612 0 0 0-1.182-.195c-.405.09-.757.33-.978.67-.46.707-.241 1.64.49 2.085.956.58 2.005 1 3.105 1.241L.847 17.418c-.396.382-.55.94-.405 1.461.145.522.567.93 1.108 1.07.54.14 1.117-.01 1.513-.392l2.936-2.836 2.939 2.836a1.59 1.59 0 0 0 1.107.443c.415 0 .813-.16 1.106-.443.295-.283.46-.668.46-1.07 0-.4-.165-.785-.46-1.068l-2.988-2.887z" fill="#F48120"/></svg>