<svg width="28" height="28" viewBox="0 0 28 28" xmlns="http://www.w3.org/2000/svg"><title>8508CE88-FC05-413F-B2A5-FBA4B9FD2EA0</title><g fill="none" fill-rule="evenodd"><circle fill="#000" opacity=".5" cx="14" cy="14" r="13"/><path d="M14 28C6.268 28 0 21.732 0 14S6.268 0 14 0s14 6.268 14 14-6.268 14-14 14zm7.32-21.956l-1.903.866a1.143 1.143 0 0 0-.33.229l-3.1 3.103-10.68-1.28a.634.634 0 0 0-.526.18l-.595.596a.635.635 0 0 0 .19 1.029l8.247 2.869-2.79 2.76h-3.84a.642.642 0 0 0-.45.185l-.32.323a.634.634 0 0 0 .198 1.033l3.583 1.11 1.042 3.516a.637.637 0 0 0 1.034.199l.322-.323a.634.634 0 0 0 .186-.45V18.15l2.791-2.76 2.837 8.218a.636.636 0 0 0 1.03.189l.594-.594a.635.635 0 0 0 .182-.525l-1.282-10.68 3.103-3.103c.095-.096.172-.206.228-.33l.867-1.903a.467.467 0 0 0-.619-.62z" fill="#FFF"/></g></svg>