<svg width="28" height="28" viewBox="0 0 28 28" xmlns="http://www.w3.org/2000/svg"><title>B8BE086B-151A-4EC9-816D-F59B6695CD85</title><g fill="none" fill-rule="evenodd"><circle fill="#000" opacity=".5" cx="14" cy="14" r="13"/><path d="M14 28C6.268 28 0 21.732 0 14S6.268 0 14 0s14 6.268 14 14-6.268 14-14 14zm5.605-18.568a1.409 1.409 0 0 0 1.913-.355 1.303 1.303 0 0 0-.368-1.848 1.408 1.408 0 0 0-1.913.355 1.304 1.304 0 0 0 .368 1.848zm-1.116 7.618c-.419.011-1.21.008-1.79-.013l-.537.749a.842.842 0 0 0-.148.65l1.109 3.166c.141.384.367.495.643.447.314-.055.384-.361.345-.761l-.518-3.012L18.784 17c-.092.022-.179.047-.295.05zm4.234-4.325l-1.716-1.727c-.171-.181-.557-.416-.971-.596-1.399-.61-2.43-1.588-2.43-1.588s-.277-1.397-.366-1.863c-.073-.385-.294-.951-.77-.951H6.946C6.423 6 6 6.409 6 6.914v15.759c0 .132.091.246.223.279a.303.303 0 0 0 .336-.139l2.589-4.494c.083-.143.145-.297.183-.457l.895-3.744c.079-.333.258-.636.513-.872l1.591-1.472c.274-.253.458-.583.529-.943l.239-1.234a1.74 1.74 0 0 1 .712-1.092l2.405-1.7.228 2.351a.575.575 0 0 0 .188.36l2.037 1.822-.835 3.337-2.205-.051a.907.907 0 0 0-.687.285l-1.959 2.459c-.332.356-.352.786-.136.948.242.18.616.136.948-.218l1.86-1.9 1.973.074c.547.015 1.274.028 1.587-.004.3-.03.723-.308.84-.772.248-.983.845-2.981.845-2.981l.813.881-.241 2.106c-.041.347.042.553.371.582.224.02.369-.188.417-.47l.614-2.403a.565.565 0 0 0-.15-.486z" fill="#FFF"/></g></svg>