<svg width="13" height="19" viewBox="0 0 13 19" xmlns="http://www.w3.org/2000/svg"><title>D20C2E2A-64F8-4FB8-B2EB-9DA72F402E42</title><path d="M10.991 5.568V4.455a.47.47 0 1 1 .94 0v.685c.297-.104.568-.107.74.22.174.325-.288.712-.74 1.01v11.366a.47.47 0 1 1-.94 0V6.956c-.56.344-1.14.696-1.14.696-.251.108-.594.024-.816-.136L7.33 6.284l-.874 3.584 2.269 2.25c.317.323.273.827.201 1.256-.072.428-.666 3.462-.666 3.462-.049.244-.253 1.208-.717 1.16-.497-.052-.543-.505-.52-1.286l.326-3.168-2.94-2.473a.452.452 0 0 1-.043-.049c-.78-.718-.764-1.366-.583-2.24l1.182-4.244c.061-.421.388-.674.627-.608l1.733.483a.19.19 0 0 1 .041.017.782.782 0 0 1 .215.11l2.196 1.6 1.214-.57zm-3.73-2.252a1.66 1.66 0 1 1 1.661-1.658 1.66 1.66 0 0 1-1.66 1.658zM3.48 11.26c.193.656 1.66 1.627 1.66 1.626l-.298.977c-.19.374-.7 1.144-1.688 2.683-.59.918-1.152 1.416-1.57 1.194-.274-.146-.087-.726.31-1.532.525-1.064 1.289-2.875 1.289-2.875l.297-2.073zm.67-6.793S3.109 7.687 2.952 8.2c-.157.511-.707.866-1.483.63C.693 8.592-.113 8.267.013 7.361c.138-.987 1.072-2.297 1.882-3.14.81-.843 2.659-1.136 2.254.246z" fill="#FFF"/></svg>