<svg width="28" height="28" viewBox="0 0 28 28" xmlns="http://www.w3.org/2000/svg"><title>B41D63AE-407B-497A-9FC0-08164BA6A868</title><g fill="none" fill-rule="evenodd"><circle fill="#000" opacity=".5" cx="14" cy="14" r="13"/><path d="M15.17 13.433l.291.19a2.23 2.23 0 0 0-.049.755l-.888-.635.632-.303.014-.007zm-3.678-2.403c-.58.302-.949.844-1.048 1.438-.127.758.197 1.418.929 1.958l2.24 1.6-3.05 2.546-6.591-2.222a.735.735 0 0 0-.932.445.715.715 0 0 0 .454.913l16.232 5.471a.746.746 0 0 0 .615-.062l1.302-.764a.71.71 0 0 0 .253-.984.742.742 0 0 0-1.006-.247l-1.01.591-7.38-2.473 3.852-2.376a1.17 1.17 0 0 0 .17-1.641l2.862.64c.528.141.856-.066 1.005-.466.15-.4-.16-.792-.621-.942l-1.572-.758-.653-.427.303-1.445c.093-.44-.253-1.004-.455-1.409a1.58 1.58 0 0 0-2.094-.701l-1.085.52 1.73 1.132c-.04.134-.133.6-.164.75L8.133 7.12a.737.737 0 0 0-1.01.196.703.703 0 0 0 .2.989l4.17 2.724zM14 28C6.268 28 0 21.732 0 14S6.268 0 14 0s14 6.268 14 14-6.268 14-14 14zm6.736-16.471a1.84 1.84 0 0 0 .87-2.488c-.462-.922-1.6-1.303-2.542-.85a1.84 1.84 0 0 0-.87 2.486c.462.922 1.6 1.303 2.542.852z" fill="#FFF"/></g></svg>