<svg width="28" height="28" viewBox="0 0 28 28" xmlns="http://www.w3.org/2000/svg"><title>8810CC23-3A3E-4A08-B77C-16247C4FAEC3</title><g fill="none" fill-rule="evenodd"><circle fill="#000" opacity=".5" cx="14" cy="14" r="13"/><path d="M9.754 19.652l.36.397-.154 2.22c0 .345.157.51.424.542.253.03.462-.119.51-.455l.47-2.315-.024-.16-1.16-1.772.036-2.18.844.553c.093.04.195.054.296.041 0 0 1.941-.854 2.378-1.044l.01-.004h.001l.002-.003a.871.871 0 0 0 .377-.33c.216-.327 1.442-2.95 1.442-2.95l.165-.159-.38 1.808c-.122.871-.093 1.517.737 2.232a.408.408 0 0 0 .045.05l3.111 2.462-.108 3.155c.03.78.107 1.23.608 1.282.467.048.605-.913.637-1.156 0 0 .386-3.022.428-3.448.043-.427.052-.929-.288-1.25l-2.423-2.242.212-1.126s.023-.165.07-.283c0 0 .047.062.588.398l.917.558c.453.26.99.486 1.196.17.21-.317.09-.56-.129-.776l-.779-.636-1.54-1.137s.261-1.685.29-1.985c.03-.3-.01-.418-.24-.516-.23-.098-1.857-.584-1.857-.584-.102-.028-.213.011-.312.084l-.025-.023c-.894.928-1.999 2.496-1.999 2.496s-1.319 2.615-1.492 3.166c-.345.153-1.653.597-1.653.597s-.606-.447-1.114-.834a.913.913 0 0 0-.488-.173l-1.083-.084a.512.512 0 0 0-.512.486S8.028 16.8 8 17.571c-.006.167.13.31.26.444.062.066.193.207.357.387l-.094 1.004-1.328 1.708c-.231.249-.259.525-.072.706a.466.466 0 0 0 .684-.032l1.764-1.7a.61.61 0 0 0 .161-.361l.022-.075zM14 28C6.268 28 0 21.732 0 14S6.268 0 14 0s14 6.268 14 14-6.268 14-14 14zm-3.672-14.273c.734 0 1.328-.611 1.328-1.364 0-.753-.594-1.363-1.328-1.363C9.594 11 9 11.61 9 12.363s.594 1.364 1.328 1.364zm8.627-5.414c.92-.156 1.549-1 1.392-1.911a1.676 1.676 0 0 0-1.931-1.378c-.92.156-1.549 1-1.392 1.91a1.677 1.677 0 0 0 1.931 1.379zM15.601 16l-.154 2.065s-.64 1.804-1.092 2.863c-.341.803-.488 1.382-.205 1.527.434.221.962-.275 1.489-1.19.882-1.533 1.338-2.299 1.503-2.672l.232-.973S15.839 16.654 15.6 16zm-8.284 1.584c.036-.404.302-2.957.302-2.957.083-1.089-1.243-.58-1.712.171-.468.753-.955 1.872-.903 2.626.049.692.698.807 1.31.861.615.053.967-.297 1.003-.7z" fill="#FFF"/></g></svg>