<svg width="22" height="19" viewBox="0 0 22 19" xmlns="http://www.w3.org/2000/svg"><title>F1BF769B-8C6F-46A6-9E78-31AA2B0DA1C9</title><g stroke-width=".5" fill="none"><path d="M14.363 1.004V1h.938l.343.071c.228.046.436.107.622.181.186.075.367.162.541.262.174.1.332.201.474.305.141.102.267.21.38.325.11.116.282.146.517.09A6.74 6.74 0 0 0 18.935 2c.27-.1.538-.212.803-.336.264-.125.425-.204.483-.238l.09-.056.004-.005.018-.01.018-.01.018-.009.018-.009.003-.005.006-.004.005-.004.004-.006.018-.005.018-.004-.004.028-.005.028-.01.028-.008.028-.01.019-.008.019-.01.028a.67.67 0 0 0-.017.074 3.19 3.19 0 0 1-.172.374c-.108.218-.243.44-.405.664a3.226 3.226 0 0 1-.437.508 4.21 4.21 0 0 0-.258.243.78.78 0 0 1-.153.131l-.09.062-.018.01-.018.009-.004.005-.005.004-.006.004-.003.005-.018.01-.018.009-.004.006-.005.003-.006.004-.003.006-.004.005-.005.004-.006.004-.003.005h.09l.505-.112c.336-.075.658-.165.965-.27l.487-.17.054-.018.027-.01.018-.008.018-.01.018-.01.018-.009.036-.005L21 3v.038l-.009.003-.009.006-.004.005-.005.004-.005.004-.004.006-.004.005-.005.004-.005.004-.004.005-.004.006-.005.004-.01.018-.008.019-.006.004c-.002.003-.078.11-.229.317-.15.21-.231.316-.243.318-.012.004-.029.023-.05.056a5.34 5.34 0 0 1-.383.417c-.234.243-.464.46-.689.649a.896.896 0 0 0-.342.703c-.004.276-.018.59-.042.938a12.26 12.26 0 0 1-.135 1.13c-.066.406-.168.864-.307 1.375a12.8 12.8 0 0 1-2.272 4.542c-.186.237-.422.504-.707.8a73.02 73.02 0 0 0-.469.486c-.028.028-.145.13-.353.307-.207.178-.43.356-.668.534a7.696 7.696 0 0 1-.652.443c-.199.119-.438.254-.718.406-.28.153-.581.295-.906.426-.324.131-.667.253-1.028.365-.36.112-.709.2-1.046.261-.336.063-.718.116-1.145.16l-.64.065v.01H6.717v-.01l-.153-.01a7.936 7.936 0 0 1-.253-.018c-.066-.007-.316-.04-.748-.103a10.458 10.458 0 0 1-1.02-.187 13.17 13.17 0 0 1-1.1-.355 10.564 10.564 0 0 1-1.25-.53c-.344-.176-.56-.288-.648-.336a4.568 4.568 0 0 1-.293-.172l-.162-.102-.003-.006-.006-.004-.005-.004-.004-.005-.018-.01-.018-.009-.004-.005-.005-.004-.005-.004-.004-.006-.004-.005-.005-.004H1v-.037l.018.003.018.006.081.01c.054.006.202.015.442.027a7.85 7.85 0 0 0 2.597-.308 7.22 7.22 0 0 0 1.06-.378c.321-.147.55-.256.686-.329.134-.07.34-.203.616-.396l.415-.29.004-.005.005-.004.006-.004.003-.005.004-.006.005-.004.006-.003.003-.006.018-.006.018-.003.004-.019.005-.019.006-.003.003-.006-.144-.01-.28-.018a2.626 2.626 0 0 1-.423-.084c-.193-.05-.4-.125-.622-.224a4.74 4.74 0 0 1-.65-.356 3.203 3.203 0 0 1-.456-.342 8.07 8.07 0 0 1-.36-.381 3.768 3.768 0 0 1-.383-.51 4.643 4.643 0 0 1-.31-.604l-.15-.34-.009-.028-.009-.028-.005-.02-.004-.018.027.004.027.006.199.028c.132.018.34.025.622.018a4.65 4.65 0 0 0 .586-.037c.108-.019.174-.031.198-.037l.036-.01.046-.01.045-.009.003-.005.006-.004.005-.004.004-.005-.036-.01-.036-.009-.037-.01-.036-.009-.036-.009a3.224 3.224 0 0 1-.126-.037 6.777 6.777 0 0 1-.487-.206 3.682 3.682 0 0 1-.631-.346 4.388 4.388 0 0 1-.447-.368 5.222 5.222 0 0 1-.464-.52 3.76 3.76 0 0 1-.45-.738 4.592 4.592 0 0 1-.298-.804 4.484 4.484 0 0 1-.13-.776l-.033-.392.019.004.018.005.018.01.018.009.018.01.018.009.28.13c.186.088.417.162.694.225.276.062.441.096.495.103l.082.009h.162l-.004-.006-.005-.003-.005-.004-.004-.006-.004-.005-.005-.004-.006-.004-.003-.005-.018-.01-.018-.01-.004-.005-.005-.003-.006-.004-.003-.006-.018-.01-.018-.009-.004-.005a2.403 2.403 0 0 1-.465-.424 10.9 10.9 0 0 1-.325-.393 3.039 3.039 0 0 1-.288-.44 5.417 5.417 0 0 1-.267-.594 4.335 4.335 0 0 1-.292-1.443c-.006-.237 0-.44.018-.607a4.1 4.1 0 0 1 .108-.57 4.55 4.55 0 0 1 .234-.673l.154-.356.009-.028.009-.028.005-.003.004-.006.003-.006.006-.003.005.003.004.006.003.006.006.003.005.004.004.006.003.005.006.004.009.019.009.018.005.004.004.006.243.28c.163.187.355.396.577.626.223.231.346.35.37.36.024.01.054.038.09.085.036.046.156.157.36.331.205.175.473.377.803.608.331.23.698.458 1.1.682.403.224.836.427 1.299.607.463.181.787.3.974.356.186.056.505.127.956.215.45.087.79.143 1.019.168.228.025.384.04.468.043l.127.004-.004-.028-.005-.029-.036-.233a4.55 4.55 0 0 1-.036-.654A4.355 4.355 0 0 1 11 3.757c.084-.243.167-.438.247-.585.082-.146.189-.312.321-.499a3.981 3.981 0 0 1 1.235-1.112c.27-.156.52-.274.749-.355a3.39 3.39 0 0 1 .577-.16c.156-.024.234-.039.234-.042z" stroke="#5DA8DC" fill="#5DA8DC"/><path d="M1 8.458V1h13.363v.004c0 .003-.078.018-.234.043a3.39 3.39 0 0 0-.577.159 4.51 4.51 0 0 0-.749.355 3.981 3.981 0 0 0-1.235 1.112c-.132.187-.24.353-.32.5a3.78 3.78 0 0 0-.248.584 4.729 4.729 0 0 0-.19.72 4.443 4.443 0 0 0-.062.776c0 .28.012.498.036.654l.036.233.005.029.004.028-.127-.004a8.815 8.815 0 0 1-.468-.043 13.691 13.691 0 0 1-1.02-.168c-.45-.088-.769-.16-.955-.215a15.274 15.274 0 0 1-.974-.356c-.463-.18-.896-.383-1.299-.607a13.128 13.128 0 0 1-1.1-.682c-.33-.23-.598-.433-.802-.608a3.73 3.73 0 0 1-.36-.33.268.268 0 0 0-.091-.087c-.024-.008-.147-.128-.37-.359-.222-.23-.414-.439-.577-.626l-.243-.28-.004-.006-.005-.004-.01-.018-.008-.019-.006-.004-.003-.005-.004-.006-.005-.004-.006-.003-.003-.006-.004-.006-.005-.003-.006.003-.003.006-.004.006-.005.003-.01.028-.008.028-.154.356a4.55 4.55 0 0 0-.234.673 4.1 4.1 0 0 0-.108.57c-.018.168-.024.37-.018.607a4.262 4.262 0 0 0 .292 1.443c.094.24.182.439.267.595.084.155.18.302.288.439.108.137.217.268.325.393a2.403 2.403 0 0 0 .465.424l.004.005.018.01.018.01.003.005.006.004.005.003.004.006.018.01.018.009.003.005.006.004.005.004.004.005.004.006.005.004.005.003.004.006h-.162l-.082-.01a7.755 7.755 0 0 1-.495-.102 3.437 3.437 0 0 1-.695-.225l-.28-.13-.017-.01-.018-.01-.018-.008-.018-.01-.018-.005-.019-.004.033.392c.02.262.064.52.13.776s.165.524.297.804c.133.28.283.526.451.738a5.3 5.3 0 0 0 .464.52c.14.133.29.256.447.368.156.112.367.228.631.346.265.118.427.187.487.206l.126.037.036.01.036.009.037.01.036.008.036.01-.004.005-.005.004-.006.004-.003.005-.045.01-.046.01-.036.009c-.024.006-.09.018-.198.037a4.65 4.65 0 0 1-.586.037c-.283.007-.49 0-.622-.018l-.199-.028-.027-.006-.027-.004.004.019.005.019.01.028.008.028.15.34a3.849 3.849 0 0 0 .692 1.114c.148.164.269.292.361.381.094.091.246.205.456.342.21.137.427.256.65.356.222.1.43.174.622.224.192.05.333.078.424.084l.28.019.143.009-.003.006-.006.003-.005.019-.004.019-.018.003-.018.006-.003.006-.006.003-.005.004-.004.006-.003.005-.006.004-.005.004-.004.005-.415.29a6.636 6.636 0 0 1-.616.396 14.73 14.73 0 0 1-.686.33 7.22 7.22 0 0 1-1.06.377c-.385.106-.718.18-1 .224a7.789 7.789 0 0 1-1.597.084 10.56 10.56 0 0 1-.442-.028l-.08-.009-.019-.006L1 15.917V8.458zm19.978-5.406l.004-.005.009-.006.009-.003v14.804H7.89v-.01l.64-.065c.426-.043.808-.096 1.144-.159.337-.062.686-.15 1.046-.261.361-.112.704-.234 1.028-.365.325-.13.627-.273.906-.426.28-.152.52-.287.718-.406.198-.118.416-.266.652-.443.238-.178.46-.356.668-.534.208-.177.325-.28.353-.307l.469-.486c.285-.296.52-.563.707-.8a12.594 12.594 0 0 0 1.767-3.047 12.8 12.8 0 0 0 .505-1.495c.139-.511.24-.969.307-1.374.066-.405.111-.782.135-1.131.024-.349.038-.662.042-.938a.896.896 0 0 1 .342-.703c.225-.19.455-.406.69-.649.234-.243.361-.382.381-.417.022-.033.039-.052.05-.056.013-.002.094-.108.244-.318l.23-.317.005-.004.009-.019.009-.018.005-.004.004-.006.004-.005.005-.004.005-.004.004-.005.004-.006.005-.004.005-.004zm-5.334-1.981L15.3 1H21v2l-.036.004-.036.005-.018.01-.018.01-.018.009-.018.009-.027.01-.054.018-.487.168a8.785 8.785 0 0 1-.965.271l-.505.112h-.09l.003-.005.006-.004.005-.004.004-.005.003-.006.006-.004.005-.003.004-.006.018-.01.018-.009.003-.005.006-.004.005-.004.004-.005.018-.01.018-.01.09-.06a.78.78 0 0 0 .153-.132 4.21 4.21 0 0 1 .258-.243 3.22 3.22 0 0 0 .437-.508c.162-.224.297-.446.405-.664a3.19 3.19 0 0 0 .172-.374.67.67 0 0 1 .018-.074l.009-.028.009-.02.009-.018.009-.028.009-.028.005-.028.004-.028-.018.004-.018.005-.004.006-.005.004-.006.004-.003.005-.018.01-.018.009-.018.01-.018.009-.004.005a6.883 6.883 0 0 1-.09.056 9.146 9.146 0 0 1-.483.238 9.972 9.972 0 0 1-.803.336c-.27.1-.523.178-.757.234-.235.056-.407.026-.518-.09a2.942 2.942 0 0 0-.379-.325 5.122 5.122 0 0 0-.474-.305 4.355 4.355 0 0 0-.541-.262 3.566 3.566 0 0 0-.622-.181zM1 16.898v-.944h.009l.005.004.004.005.004.006.005.004.005.004.004.005.018.01.018.009.004.005.005.004.006.004.003.006.162.102c.109.069.206.126.293.172.087.048.304.16.649.337.346.178.763.354 1.25.529.487.174.853.293 1.1.355.246.062.586.125 1.019.187.432.062.682.096.748.103.066.006.15.012.253.018l.153.01v.01H1v-.945z" stroke="#FFF" fill="#FFF"/></g></svg>