<svg width="20" height="18" viewBox="0 0 20 18" xmlns="http://www.w3.org/2000/svg"><title>C62D38A7-C62C-47C2-8D76-6C14D4D3063C</title><g fill="#FFF" fill-rule="evenodd"><path d="M13.175 3.53a1.77 1.77 0 0 0 1.765-1.766A1.77 1.77 0 0 0 13.175 0a1.77 1.77 0 0 0-1.765 1.764 1.77 1.77 0 0 0 1.765 1.765M4.118 9.02A4.13 4.13 0 0 0 0 13.138a4.13 4.13 0 0 0 4.118 4.117 4.13 4.13 0 0 0 4.118-4.117A4.13 4.13 0 0 0 4.118 9.02m0 7a2.864 2.864 0 0 1-2.882-2.882 2.865 2.865 0 0 1 2.882-2.883A2.865 2.865 0 0 1 7 13.138a2.864 2.864 0 0 1-2.882 2.882"/><path d="M15.978 7.09c0-.412-.326-.55-.735-.61-.969-.137-1.59-.797-2.285-1.35 0 0-1.41-1.31-1.856-1.758-.275-.277-.563-.49-.95-.461-.364.025-.62.15-.919.486L6.478 6.413a1.671 1.671 0 0 0-.513 1.176c0 .462.307.659.606.995l2.594 2.14.188 3.376c0 .472.117.803.59.803.471 0 .672-.351.672-.823l.181-3.72c0-.453-.182-.89-.506-1.207L8.795 7.709l2.318-2.217.791.666c.868.887 1.821 1.279 3.16 1.466.506.07.914-.022.914-.533"/><path d="M15.882 9.02a4.13 4.13 0 0 0-4.118 4.118 4.13 4.13 0 0 0 4.118 4.117A4.13 4.13 0 0 0 20 13.138a4.13 4.13 0 0 0-4.118-4.118m0 7A2.864 2.864 0 0 1 13 13.138a2.865 2.865 0 0 1 2.882-2.883 2.865 2.865 0 0 1 2.882 2.883 2.864 2.864 0 0 1-2.882 2.882"/></g></svg>