<svg width="28" height="28" viewBox="0 0 28 28" xmlns="http://www.w3.org/2000/svg"><title>9C5D7874-5014-47B3-8052-75070B3BEF36</title><g fill="none" fill-rule="evenodd"><circle fill="#000" opacity=".5" cx="14" cy="14" r="13"/><path d="M14 28C6.268 28 0 21.732 0 14S6.268 0 14 0s14 6.268 14 14-6.268 14-14 14zM10.475 8.795c1.474.316 2.021.68 3.729 1.437 1.688.751 2.844 1.04 4.25 1.021 1.736-.022 3.896-1.479 3.854-3.937-.687 1.73-2.041 2.166-3.166 2.271-1.058.098-2.292-.105-4.028-.844-1.363-.58-2.885-1.37-4.639-1.677C8.454 6.712 6.121 7.774 6 10.4c1.558-1.833 3.017-1.916 4.475-1.604zm8.667 5.792c-1.058.098-2.292-.104-4.028-.844-1.363-.58-2.884-1.369-4.639-1.677-2.021-.354-4.354.71-4.475 3.333 1.559-1.833 3.017-1.916 4.475-1.604 1.474.316 2.022.68 3.73 1.438 1.687.75 2.843 1.038 4.25 1.021 1.735-.022 3.895-1.48 3.854-3.938-.688 1.73-2.042 2.167-3.167 2.271zm0 5c-1.058.098-2.292-.104-4.028-.844-1.363-.58-2.884-1.369-4.639-1.677-2.021-.354-4.354.71-4.475 3.333 1.559-1.833 3.017-1.916 4.475-1.604 1.474.316 2.022.68 3.73 1.438 1.687.75 2.843 1.038 4.25 1.021 1.735-.022 3.895-1.48 3.854-3.938-.688 1.73-2.042 2.167-3.167 2.271z" fill="#FFF"/></g></svg>