<svg width="20" height="20" viewBox="0 0 20 20" xmlns="http://www.w3.org/2000/svg"><title>7599DE97-7300-4F83-9EAA-9C2D3EB02779</title><g fill="none"><path d="M18.896 20c.61 0 1.104-.494 1.104-1.104V1.104C20 .494 19.506 0 18.896 0H1.104C.494 0 0 .494 0 1.104v17.792C0 19.506.494 20 1.104 20h17.792z" fill="#485A96"/><path d="M13.183 20v-7.82h2.527l.378-3.047h-2.905V7.187c0-.882.236-1.483 1.454-1.483l1.553-.001V2.977a20.028 20.028 0 0 0-2.264-.12c-2.24 0-3.773 1.42-3.773 4.028v2.248H7.619v3.047h2.534V20h3.03z" fill="#FFF"/></g></svg>