<svg width="28" height="28" viewBox="0 0 28 28" xmlns="http://www.w3.org/2000/svg"><title>1C174C09-9767-47FC-8AB8-7718248101A8</title><g fill="none" fill-rule="evenodd"><circle fill="#000" opacity=".5" cx="14" cy="14" r="13"/><path d="M18.617 10.568l-1.214.57-2.195-1.6a.777.777 0 0 0-.216-.11.19.19 0 0 0-.041-.017l-1.733-.483c-.239-.066-.566.187-.627.608l-1.182 4.243c-.181.875-.197 1.523.583 2.241a.452.452 0 0 0 .042.05l2.941 2.472-.325 3.168c-.024.781.022 1.234.519 1.286.464.048.668-.916.717-1.16 0 0 .594-3.034.666-3.462.072-.429.116-.933-.201-1.256l-2.27-2.25.875-3.584 1.705 1.232c.222.16.565.244.815.136 0 0 .581-.352 1.141-.696v10.78a.47.47 0 1 0 .94 0V11.369c.452-.297.914-.684.74-1.01-.172-.326-.443-.323-.74-.22v-.684a.47.47 0 1 0-.94 0v1.113zM14 28C6.268 28 0 21.732 0 14S6.268 0 14 0s14 6.268 14 14-6.268 14-14 14zm.888-19.684a1.66 1.66 0 1 0-1.66-1.658 1.66 1.66 0 0 0 1.66 1.658zm-3.783 7.944l-.297 2.073s-.764 1.81-1.289 2.875c-.397.806-.584 1.386-.31 1.532.418.222.98-.276 1.57-1.194.989-1.54 1.498-2.309 1.688-2.683l.299-.977s-1.468-.97-1.661-1.626zm.67-6.793c.405-1.382-1.444-1.089-2.254-.246s-1.744 2.153-1.882 3.14c-.126.906.68 1.231 1.456 1.468.776.236 1.326-.119 1.483-.63a855.59 855.59 0 0 1 1.197-3.732z" fill="#FFF"/></g></svg>