<svg width="17" height="17" viewBox="0 0 17 17" xmlns="http://www.w3.org/2000/svg"><title>1D2AB2AA-6D79-4A6E-B844-8920E98556A1</title><g fill="#757575" fill-rule="evenodd"><path d="M13.604 3.577a1.409 1.409 0 0 0 1.913-.355 1.303 1.303 0 0 0-.368-1.848 1.408 1.408 0 0 0-1.913.355 1.304 1.304 0 0 0 .368 1.848m-.654 7.316c-.42.011-1.21.008-1.79-.013l-.537.75a.842.842 0 0 0-.148.65l1.109 3.165c.14.384.367.495.643.447.314-.055.384-.36.345-.76l-.518-3.013 1.19-1.276c-.091.022-.178.047-.294.05"/><path d="M16.723 6.725l-1.716-1.727c-.17-.18-.557-.416-.97-.596-1.4-.61-2.43-1.588-2.43-1.588s-.278-1.397-.367-1.863c-.073-.385-.294-.95-.77-.95H.946C.423 0 0 .408 0 .913v15.76c0 .131.091.245.223.278a.303.303 0 0 0 .336-.139l2.59-4.494c.082-.143.144-.297.182-.457l.895-3.744c.08-.333.258-.636.513-.872L6.33 5.774a1.75 1.75 0 0 0 .53-.943l.238-1.234a1.74 1.74 0 0 1 .712-1.092l2.405-1.7.228 2.351a.575.575 0 0 0 .188.36l2.037 1.822-.835 3.337-2.205-.05a.907.907 0 0 0-.687.284l-1.959 2.46c-.332.355-.352.785-.136.947.242.18.616.136.948-.218l1.86-1.9 1.973.074c.547.015 1.274.028 1.587-.004.3-.03.723-.308.84-.772.248-.983.845-2.98.845-2.98l.813.88-.24 2.106c-.042.347.041.553.37.582.224.02.37-.188.417-.47l.614-2.403a.565.565 0 0 0-.15-.486"/></g></svg>