<svg width="17" height="18" viewBox="0 0 17 18" xmlns="http://www.w3.org/2000/svg"><title>AD74E090-A4DF-44A2-B385-697637CE51EE</title><g fill="#FD5930" fill-rule="evenodd"><path d="M4.836 1.003a3.796 3.796 0 0 0-2.721 1.149A3.907 3.907 0 0 0 .983 4.91v7.78c0 1.038.402 2.017 1.132 2.758a3.793 3.793 0 0 0 2.72 1.15h7.196a3.796 3.796 0 0 0 2.722-1.15 3.906 3.906 0 0 0 1.132-2.757V4.91a3.911 3.911 0 0 0-1.132-2.758 3.799 3.799 0 0 0-2.722-1.15H4.836zm0 16.598C2.169 17.6 0 15.398 0 12.69V4.91C0 2.203 2.169 0 4.836 0h7.195c2.667 0 4.836 2.203 4.836 4.91v7.78c0 2.708-2.17 4.91-4.836 4.91H4.836z"/><path d="M8.546 4.996c-1.982 0-3.595 1.635-3.595 3.645s1.613 3.646 3.595 3.646c1.982 0 3.595-1.636 3.595-3.646s-1.613-3.645-3.595-3.645m.022 8.28C6.048 13.276 4 11.196 4 8.637 4 6.08 6.049 4 8.568 4c2.52 0 4.57 2.08 4.57 4.637 0 2.558-2.05 4.64-4.57 4.64m5.387-9.705c0 .458-.366.83-.818.83a.824.824 0 0 1-.817-.83c0-.458.366-.83.817-.83.452 0 .818.372.818.83"/></g></svg>