<svg width="153" height="54" viewBox="0 0 153 54" xmlns="http://www.w3.org/2000/svg" xmlns:xlink="http://www.w3.org/1999/xlink"><title>71C51653-03BD-4429-A90E-7A8221551B04</title><defs><path id="a" d="M0 17.543V.873h14.783v16.67H0z"/><path id="c" d="M15.114 12.856V.79H.118v12.067h14.996z"/></defs><g fill="none" fill-rule="evenodd"><path d="M131.29 53.369h-1.692a.808.808 0 0 1-.815-.8V1.8c0-.442.365-.8.815-.8h1.691c.45 0 .815.358.815.8v50.769c0 .442-.365.8-.815.8" fill="#CDCDCD"/><g transform="translate(126 1.631)"><mask id="b" fill="#fff"><use xlink:href="#a"/></mask><path d="M.887.887l13.816 3.096.08 10.529-13.817 3.01a.736.736 0 0 1-.918-.702L0 1.6A.736.736 0 0 1 .887.887" fill="#FD5930" mask="url(#b)"/></g><path fill="#D8300F" d="M140.703 5.614l-3.014 1.854.242 11.908 3.093-1.893z"/><g transform="translate(137.571 6.679)"><mask id="d" fill="#fff"><use xlink:href="#c"/></mask><path d="M.118.789L14.486 5.3c.712.16.86 1.092.23 1.455l-14.519 6.1L.117.79z" fill="#FF7D4C" mask="url(#d)"/></g><path d="M22.539 19.5H0v33.847h10.525V29.7h12.014v23.648h10.525V19.5zm27.873 14.535V19.59H39.887v33.847l3.628-2.416 18.073-12.204v14.62h10.525V19.502zM111.416 18l-21.7 15.597V19.594H79.19v33.75l13.77-9.123 7.324 9.123 14.592-.094-12.749-15.393 9.288-6.919z" fill="#FD5930"/><text font-family="MuseoSansCyrl-500, Museo Sans Cyrl" font-size="14" letter-spacing="8.95" fill="#FD5930" transform="translate(0 -3)"><tspan x="0" y="13">Турклу</tspan> <tspan x="99.662" y="13">б</tspan></text></g></svg>