<svg width="14" height="14" viewBox="0 0 14 14" xmlns="http://www.w3.org/2000/svg"><title>17601420-A77D-4119-8157-B699E134163A</title><path d="M13.54 12.744l-3.389-3.463A5.572 5.572 0 0 0 11.5 5.649C11.5 2.534 8.92 0 5.75 0S0 2.534 0 5.65c0 3.114 2.58 5.648 5.75 5.648 1.19 0 2.325-.352 3.294-1.022l3.415 3.49a.75.75 0 0 0 .541.226c.195 0 .38-.073.52-.206a.729.729 0 0 0 .02-1.042zM5.75 1.474c2.344 0 4.25 1.873 4.25 4.175 0 2.303-1.906 4.176-4.25 4.176-2.344 0-4.25-1.873-4.25-4.176 0-2.302 1.906-4.175 4.25-4.175z" opacity=".5"/></svg>