<svg width="13" height="14" viewBox="0 0 13 14" xmlns="http://www.w3.org/2000/svg"><title>F58F7E8C-3CE8-4AE1-9E2B-2C400876E21F</title><path d="M12.802 12.752L9.598 9.286a5.77 5.77 0 0 0 1.275-3.634C10.873 2.536 8.434 0 5.437 0 2.439 0 0 2.536 0 5.652c0 3.117 2.439 5.653 5.437 5.653a5.238 5.238 0 0 0 3.114-1.023l3.23 3.492a.69.69 0 0 0 1.002.02.76.76 0 0 0 .02-1.042zM5.437 1.475c2.215 0 4.018 1.874 4.018 4.177 0 2.304-1.803 4.178-4.018 4.178-2.216 0-4.019-1.874-4.019-4.178 0-2.303 1.803-4.177 4.019-4.177z" fill="#FFF"/></svg>