<svg width="18" height="14" viewBox="0 0 18 14" xmlns="http://www.w3.org/2000/svg"><title>D6506ABC-94E1-4E1A-82B7-64EC039404E3</title><g fill="#FD5930"><path d="M14.961.027H2.084C.934.027 0 .977 0 2.147v8.951c0 1.17.934 2.12 2.084 2.12h12.874c1.15 0 2.083-.95 2.083-2.12V2.15c.004-1.17-.93-2.123-2.08-2.123zm1.132 11.071c0 .635-.508 1.152-1.132 1.152H2.084a1.143 1.143 0 0 1-1.132-1.152V2.15C.952 1.515 1.46 1 2.084 1h12.874c.624 0 1.131.516 1.131 1.151v8.948h.004z"/><path d="M10.747 6.511l4.168-3.801a.492.492 0 0 0 .036-.685.473.473 0 0 0-.674-.036L8.53 7.236 7.408 6.217c-.003-.003-.007-.007-.007-.01a.709.709 0 0 0-.077-.069L2.76 1.985a.47.47 0 0 0-.674.04.49.49 0 0 0 .04.685l4.216 3.834-4.2 3.999a.492.492 0 0 0-.02.685.473.473 0 0 0 .673.025L7.06 7.196l1.157 1.051a.471.471 0 0 0 .634-.003L10.04 7.16l4.238 4.096a.469.469 0 0 0 .674-.018.492.492 0 0 0-.018-.685l-4.186-4.042z"/></g></svg>