<svg width="17" height="17" viewBox="0 0 17 17" xmlns="http://www.w3.org/2000/svg"><title>7D452FAA-C107-44DA-A9DC-74F98D122FD8</title><path d="M13.191 10.544c-.342-.363-.754-.556-1.191-.556-.434 0-.85.19-1.206.552l-1.115 1.13c-.091-.05-.183-.097-.271-.144a4.284 4.284 0 0 1-.35-.19c-1.043-.674-1.991-1.553-2.901-2.69-.44-.566-.737-1.043-.952-1.527.289-.27.557-.55.818-.818.099-.1.197-.205.296-.305.74-.753.74-1.729 0-2.482l-.963-.979c-.109-.111-.222-.226-.327-.34a16.79 16.79 0 0 0-.663-.668C4.024 1.183 3.615 1 3.184 1c-.43 0-.846.183-1.198.527l-.007.007-1.2 1.23a2.643 2.643 0 0 0-.764 1.668C-.07 5.48.233 6.455.465 7.093c.572 1.568 1.425 3.02 2.698 4.577 1.545 1.876 3.403 3.357 5.526 4.4.81.391 1.893.854 3.103.933.074.004.151.007.222.007.814 0 1.498-.298 2.034-.89.004-.006.01-.01.014-.017.184-.226.395-.43.617-.65.152-.146.307-.3.459-.462.349-.37.532-.8.532-1.241 0-.445-.187-.872-.543-1.23l-1.936-1.976zm1.263 3.776c-.004 0-.004.004 0 0-.138.15-.279.287-.43.438a9.18 9.18 0 0 0-.681.717c-.356.387-.776.57-1.326.57-.053 0-.11 0-.162-.003-1.047-.068-2.02-.484-2.75-.84A15.705 15.705 0 0 1 3.9 11.058c-1.202-1.475-2.006-2.837-2.539-4.3-.327-.894-.447-1.59-.394-2.246.035-.42.193-.767.486-1.065l1.203-1.223c.172-.165.356-.255.535-.255.223 0 .402.137.515.251l.01.011c.216.205.42.416.636.642.109.115.222.23.335.348l.962.98c.374.38.374.73 0 1.111-.102.104-.2.208-.303.308-.296.309-.578.596-.885.876-.007.007-.014.01-.018.017-.303.309-.247.61-.183.815l.01.032c.25.617.603 1.198 1.14 1.89l.003.004c.973 1.219 2 2.17 3.131 2.897.145.094.293.169.434.24.127.065.247.126.349.19.014.008.028.019.042.026.12.06.233.09.35.09.292 0 .475-.187.535-.248l1.206-1.226c.12-.122.31-.27.533-.27.218 0 .398.14.507.262l.007.008 1.943 1.976c.363.366.363.742.004 1.122zM9.392 3.96a4.446 4.446 0 0 1 2.433 1.284 4.599 4.599 0 0 1 1.262 2.475c.039.237.24.402.47.402.027 0 .052-.004.08-.007a.484.484 0 0 0 .392-.56 5.564 5.564 0 0 0-1.527-2.995 5.408 5.408 0 0 0-2.944-1.553.48.48 0 0 0-.55.395.478.478 0 0 0 .384.56zm7.523 3.536a9.154 9.154 0 0 0-2.514-4.931A8.897 8.897 0 0 0 9.553.007a.475.475 0 0 0-.547.395.486.486 0 0 0 .392.56 7.967 7.967 0 0 1 4.333 2.284 8.173 8.173 0 0 1 2.246 4.408c.04.237.24.401.47.401a.474.474 0 0 0 .469-.56z" fill="#fff"/></svg>