<svg width="118" height="138" viewBox="0 0 118 138" xmlns="http://www.w3.org/2000/svg"><title>5CAB8552-F8F5-4E8D-BF0D-3CF4C20794C1</title><defs><linearGradient x1="0%" y1="49.996%" x2="99.99%" y2="49.996%" id="a"><stop stop-color="#9CD6E6" offset="0%"/><stop stop-color="#C3F0FF" offset="100%"/></linearGradient><linearGradient x1="0%" y1="49.995%" y2="49.995%" id="b"><stop stop-color="#C3F0FF" offset="0%"/><stop stop-color="#9CD6E6" offset="100%"/></linearGradient><linearGradient x1="2.829%" y1="52.133%" x2="133.406%" y2="52.133%" id="c"><stop stop-color="#99CAE4" offset="0%"/><stop stop-color="#C0E3FD" offset="100%"/></linearGradient><linearGradient x1="-42.899%" y1="48.885%" x2="85.216%" y2="48.885%" id="d"><stop stop-color="#C0E3FD" offset="0%"/><stop stop-color="#99CAE4" offset="100%"/></linearGradient></defs><g fill="none" fill-rule="evenodd"><path d="M82.79 121.78l-46.88-13.2a7 7 0 0 0-4.8-8.58L57.64 5.75A7 7 0 0 0 66.22.94l46.88 13.2a7 7 0 0 0 4.81 8.58L91.37 117a7 7 0 0 0-8.58 4.81" fill="#00D7EE" fill-rule="nonzero"/><path d="M89.65 7.54l-30.3 107.64 23.44 6.6a7 7 0 0 1 6.66-5 7 7 0 0 1 1.89.26l26.56-94.33a7 7 0 0 1-4.76-8.56L89.7 7.55" fill="#00CBEC" fill-rule="nonzero"/><path d="M53.94 18.89l.96.27" stroke="#FFF" stroke-width="2" stroke-linecap="round" stroke-linejoin="round"/><path d="M60.55 20.75l49.86 14.04" stroke="#FFF" stroke-width="2" stroke-linecap="round" stroke-linejoin="round" stroke-dasharray="1.95"/><path d="M113.24 35.58l.96.27" stroke="#FFF" stroke-width="2" stroke-linecap="round" stroke-linejoin="round"/><path d="M99.63 114.31L57.08 138a7 7 0 0 0-9.46-2.69L0 49.75a7 7 0 0 0 2.69-9.46l42.55-23.68a7 7 0 0 0 9.46 2.69l47.63 85.56a7 7 0 0 0-2.7 9.45z" fill="url(#a)" fill-rule="nonzero"/><path d="M58.15 129.4a14.05 14.05 0 0 0-6.89-2L8.6 50.81a14.05 14.05 0 0 0 2-6.89l33.58-18.71a14 14 0 0 0 6.89 2l42.65 76.62a14 14 0 0 0-2 6.89L58.15 129.4z" fill="url(#b)" fill-rule="nonzero"/><path d="M45.24 16.61L29.5 25.37 24 28.45l3.4 6.12 16.81-9.36a14 14 0 0 0 6.89 2l42.65 76.62a14 14 0 0 0-2 6.89L75 120l3.4 6.12 21.27-11.84a7 7 0 0 1 2.69-9.45L54.7 19.3a6.95 6.95 0 0 1-9.45-2.69" fill="url(#c)" fill-rule="nonzero"/><path d="M44.18 25.21l-16.81 9.36 14 25.21c9.605-4.88 21.35-1.298 26.596 8.113 5.245 9.41 2.116 21.284-7.086 26.887L75 120l16.81-9.36a14 14 0 0 1 2-6.89L51.07 27.17a14 14 0 0 1-6.89-2" fill="url(#d)" fill-rule="nonzero"/><path d="M51.14 57.25a20 20 0 0 0-9.74 2.54l19.51 35a20.06 20.06 0 0 0-9.77-37.58" fill="#00CBEC" fill-rule="nonzero"/><path d="M6.64 61.68l.87-.49" stroke="#FFF" stroke-width="2" stroke-linecap="round" stroke-linejoin="round"/><path d="M12.64 58.34l45.26-25.2" stroke="#FFF" stroke-width="2" stroke-linecap="round" stroke-linejoin="round" stroke-dasharray="1.95"/><path d="M60.46 31.71l.88-.48" stroke="#FFF" stroke-width="2" stroke-linecap="round" stroke-linejoin="round"/><path d="M60.92 94.83c-9.605 4.88-21.35 1.298-26.596-8.113-5.245-9.41-2.116-21.284 7.086-26.887" fill="#00D7EE" fill-rule="nonzero"/><circle fill="#FFF" fill-rule="nonzero" cx="51.16" cy="77.3" r="14.18"/><path d="M62.45 102.48l-.71.39a.39.39 0 0 1-.53-.15l-14.84-27.1a.39.39 0 0 1 .16-.53l.71-.39a.39.39 0 0 1 .53.15L62.6 102a.39.39 0 0 1-.16.53" fill="#CDCDCD"/><path d="M45.21 76.3l6.53-1.87 2.47 4.44-5.11 4.45a.35.35 0 0 1-.55-.09L45 76.8a.35.35 0 0 1 .21-.51" fill="#FD5930"/><path fill="#D8300F" d="M51.74 74.42l-.84 1.48 2.86 4.99.87-1.51z"/><path d="M50.9 75.9l7.1-1.4a.38.38 0 0 1 .43.56L53.73 81l-2.83-5.1z" fill="#FF7D4C"/><path fill="#FFF" d="M58.26 110.71l-3.15 1.77-2.77 1.55 1.55 2.77 3.6 6.42 2.77-1.54-3.6-6.43 3.15-1.77 3.6 6.43 2.77-1.55-3.6-6.42-1.55-2.77zm9.59-.18l-2.19-3.92-2.77 1.54 3.13 5.6 2.01 3.58.01.02.59-1.19 2.89-5.97 2.22 3.97 2.76-1.55-3.15-5.64-2.01-3.58zm13.82-13.4l-3.32 7.43-2.13-3.81-2.77 1.55 5.14 9.17 2.23-4.5 3.31 1.4 3.82-2.17-5.69-2.31 1.38-3.25z"/></g></svg>