<svg width="768" height="364" viewBox="0 0 768 364" xmlns="http://www.w3.org/2000/svg"><title>BD5F5951-5737-4FCC-8B08-D15DE33A90DB</title><defs><linearGradient x1="32112%" y1="20853%" x2="32112%" y2="34561%" id="a"><stop stop-color="#93D65C" offset="0%"/><stop stop-color="#AEE863" offset="100%"/></linearGradient><linearGradient x1="70068%" y1="21846%" x2="70068%" y2="35956%" id="b"><stop stop-color="#93D65C" offset="0%"/><stop stop-color="#AEE863" offset="100%"/></linearGradient><linearGradient x1="98288%" y1="24736%" x2="98288%" y2="28738%" id="c"><stop stop-color="#93D65C" offset="0%"/><stop stop-color="#AEE863" offset="100%"/></linearGradient><linearGradient x1="80427%" y1="29769%" x2="80427%" y2="32848%" id="d"><stop stop-color="#93D65C" offset="0%"/><stop stop-color="#AEE863" offset="100%"/></linearGradient><linearGradient x1="50%" y1=".496%" x2="50%" y2="152.978%" id="e"><stop stop-color="#76B03A" offset="0%"/><stop stop-color="#79B23E" offset="28%"/><stop stop-color="#84B94B" offset="57%"/><stop stop-color="#94C560" offset="87%"/><stop stop-color="#9ECC6C" offset="100%"/></linearGradient><linearGradient x1="46783%" y1="26420%" x2="46783%" y2="28878%" id="f"><stop stop-color="#76B03A" offset="0%"/><stop stop-color="#79B23E" offset="28%"/><stop stop-color="#84B94B" offset="57%"/><stop stop-color="#94C560" offset="87%"/><stop stop-color="#9ECC6C" offset="100%"/></linearGradient><linearGradient x1="60725%" y1="26420%" x2="60725%" y2="28878%" id="g"><stop stop-color="#76B03A" offset="0%"/><stop stop-color="#79B23E" offset="28%"/><stop stop-color="#84B94B" offset="57%"/><stop stop-color="#94C560" offset="87%"/><stop stop-color="#9ECC6C" offset="100%"/></linearGradient><linearGradient x1="54249%" y1="26420%" x2="54249%" y2="28878%" id="h"><stop stop-color="#76B03A" offset="0%"/><stop stop-color="#79B23E" offset="28%"/><stop stop-color="#84B94B" offset="57%"/><stop stop-color="#94C560" offset="87%"/><stop stop-color="#9ECC6C" offset="100%"/></linearGradient><linearGradient x1="72295%" y1="26420%" x2="72295%" y2="28878%" id="i"><stop stop-color="#76B03A" offset="0%"/><stop stop-color="#79B23E" offset="28%"/><stop stop-color="#84B94B" offset="57%"/><stop stop-color="#94C560" offset="87%"/><stop stop-color="#9ECC6C" offset="100%"/></linearGradient><linearGradient x1="70671%" y1="31603%" x2="70671%" y2="35408%" id="j"><stop stop-color="#76B03A" offset="0%"/><stop stop-color="#79B23E" offset="28%"/><stop stop-color="#84B94B" offset="57%"/><stop stop-color="#94C560" offset="87%"/><stop stop-color="#9ECC6C" offset="100%"/></linearGradient><linearGradient x1="31404%" y1="31603%" x2="31404%" y2="35408%" id="k"><stop stop-color="#76B03A" offset="0%"/><stop stop-color="#79B23E" offset="28%"/><stop stop-color="#84B94B" offset="57%"/><stop stop-color="#94C560" offset="87%"/><stop stop-color="#9ECC6C" offset="100%"/></linearGradient><linearGradient x1="73127%" y1="31603%" x2="73127%" y2="35408%" id="l"><stop stop-color="#76B03A" offset="0%"/><stop stop-color="#79B23E" offset="28%"/><stop stop-color="#84B94B" offset="57%"/><stop stop-color="#94C560" offset="87%"/><stop stop-color="#9ECC6C" offset="100%"/></linearGradient><linearGradient x1="83047%" y1="31603%" x2="83047%" y2="35408%" id="m"><stop stop-color="#76B03A" offset="0%"/><stop stop-color="#79B23E" offset="28%"/><stop stop-color="#84B94B" offset="57%"/><stop stop-color="#94C560" offset="87%"/><stop stop-color="#9ECC6C" offset="100%"/></linearGradient><linearGradient x1="53906%" y1="31603%" x2="53906%" y2="35408%" id="n"><stop stop-color="#76B03A" offset="0%"/><stop stop-color="#79B23E" offset="28%"/><stop stop-color="#84B94B" offset="57%"/><stop stop-color="#94C560" offset="87%"/><stop stop-color="#9ECC6C" offset="100%"/></linearGradient><linearGradient x1="67820%" y1="31603%" x2="67820%" y2="35408%" id="o"><stop stop-color="#76B03A" offset="0%"/><stop stop-color="#79B23E" offset="28%"/><stop stop-color="#84B94B" offset="57%"/><stop stop-color="#94C560" offset="87%"/><stop stop-color="#9ECC6C" offset="100%"/></linearGradient><linearGradient x1="90561%" y1="31603%" x2="90561%" y2="35408%" id="p"><stop stop-color="#76B03A" offset="0%"/><stop stop-color="#79B23E" offset="28%"/><stop stop-color="#84B94B" offset="57%"/><stop stop-color="#94C560" offset="87%"/><stop stop-color="#9ECC6C" offset="100%"/></linearGradient><linearGradient x1="85255%" y1="31603%" x2="85255%" y2="35408%" id="q"><stop stop-color="#76B03A" offset="0%"/><stop stop-color="#79B23E" offset="28%"/><stop stop-color="#84B94B" offset="57%"/><stop stop-color="#94C560" offset="87%"/><stop stop-color="#9ECC6C" offset="100%"/></linearGradient><linearGradient x1="50883%" y1="31603%" x2="50883%" y2="35408%" id="r"><stop stop-color="#76B03A" offset="0%"/><stop stop-color="#79B23E" offset="28%"/><stop stop-color="#84B94B" offset="57%"/><stop stop-color="#94C560" offset="87%"/><stop stop-color="#9ECC6C" offset="100%"/></linearGradient><linearGradient x1="96614%" y1="23020%" x2="96614%" y2="25270%" id="s"><stop stop-color="#76B03A" offset="0%"/><stop stop-color="#79B23E" offset="28%"/><stop stop-color="#84B94B" offset="57%"/><stop stop-color="#94C560" offset="87%"/><stop stop-color="#9ECC6C" offset="100%"/></linearGradient><linearGradient x1="67262%" y1="23020%" x2="67262%" y2="25270%" id="t"><stop stop-color="#76B03A" offset="0%"/><stop stop-color="#79B23E" offset="28%"/><stop stop-color="#84B94B" offset="57%"/><stop stop-color="#94C560" offset="87%"/><stop stop-color="#9ECC6C" offset="100%"/></linearGradient><linearGradient x1="83667%" y1="23020%" x2="83667%" y2="25270%" id="u"><stop stop-color="#76B03A" offset="0%"/><stop stop-color="#79B23E" offset="28%"/><stop stop-color="#84B94B" offset="57%"/><stop stop-color="#94C560" offset="87%"/><stop stop-color="#9ECC6C" offset="100%"/></linearGradient><linearGradient x1="78221%" y1="23020%" x2="78221%" y2="25270%" id="v"><stop stop-color="#76B03A" offset="0%"/><stop stop-color="#79B23E" offset="28%"/><stop stop-color="#84B94B" offset="57%"/><stop stop-color="#94C560" offset="87%"/><stop stop-color="#9ECC6C" offset="100%"/></linearGradient><linearGradient x1="26231%" y1="22920%" x2="26231%" y2="25183%" id="w"><stop stop-color="#76B03A" offset="0%"/><stop stop-color="#79B23E" offset="28%"/><stop stop-color="#84B94B" offset="57%"/><stop stop-color="#94C560" offset="87%"/><stop stop-color="#9ECC6C" offset="100%"/></linearGradient><linearGradient x1="35929%" y1="22920%" x2="35929%" y2="25183%" id="x"><stop stop-color="#76B03A" offset="0%"/><stop stop-color="#79B23E" offset="28%"/><stop stop-color="#84B94B" offset="57%"/><stop stop-color="#94C560" offset="87%"/><stop stop-color="#9ECC6C" offset="100%"/></linearGradient><linearGradient x1="0%" y1="49.913%" y2="49.913%" id="y"><stop stop-color="#7CA435" offset="0%"/><stop stop-color="#88CB4D" offset="100%"/></linearGradient><linearGradient x1="32451%" y1="20970%" x2="32451%" y2="34810%" id="z"><stop stop-color="#93D65C" offset="0%"/><stop stop-color="#AEE863" offset="100%"/></linearGradient></defs><g transform="translate(-197)" fill="none" fill-rule="evenodd"><path d="M929.66 195.46C852.5 77.81 719.45.11 568.25.11 417.05.11 284 77.81 206.84 195.46h722.82z" fill="#FFE798" fill-rule="nonzero"/><path d="M880.74 195.46a395.49 395.49 0 0 0-35.37-40.56 391.53 391.53 0 0 0-554.23 0 395.48 395.48 0 0 0-35.37 40.56h625-.03z" fill="#FFF5AA" fill-rule="nonzero"/><path d="M828.79 195.46a349.742 349.742 0 0 0-11.71-12.27 351.53 351.53 0 0 0-497.66 0c-4 4-7.903 8.09-11.71 12.27h521.08z" fill="#FFFFC6" fill-rule="nonzero"/><path d="M771.55 195.46c-116.835-100.671-289.755-100.671-406.59 0h406.59z" fill="#FFD" fill-rule="nonzero"/><path d="M250.86 166.53h28.85a8.19 8.19 0 0 0 8.19-8.19v-.51a8.19 8.19 0 0 1 8.19-8.19h26.73a8.19 8.19 0 0 1 8.19 8.19v5.7a8.19 8.19 0 0 0 8.19 8.19h24.33a8.19 8.19 0 0 0 8.19-8.19v-5.7a8.19 8.19 0 0 1 8.19-8.19h21.4a8.19 8.19 0 0 1 8.19 8.19V162a8.19 8.19 0 0 0 8.19 8.19h29.65a8.19 8.19 0 0 0 8.19-8.19v-4.16a8.19 8.19 0 0 1 8.19-8.19h62.76a8.19 8.19 0 0 0 8.19-8.19v-8.89a8.19 8.19 0 0 1 8.19-8.19h13.57a8.19 8.19 0 0 1 8.19 8.19v3.81a8.19 8.19 0 0 0 8.19 8.19h44a8.19 8.19 0 0 0 8.19-8.19v-3.81a8.19 8.19 0 0 1 8.19-8.19h105.56a8.19 8.19 0 0 1 8.19 8.19v15a8.19 8.19 0 0 0 8.19 8.19h104.16a8.19 8.19 0 0 1 8.19 8.19v4.34a8.19 8.19 0 0 0 8.19 8.19H880a8.19 8.19 0 0 0 8.19-8.19v-4.34a8.19 8.19 0 0 1 8.19-8.19h35.77a8.19 8.19 0 0 1 8.19 8.19v4.34a8.19 8.19 0 0 0 8.19 8.19h31a8.19 8.19 0 0 0 8.19-8.19v-4.07A8.19 8.19 0 0 1 996 156h21.4a8.19 8.19 0 0 1 8.19 8.19v11a8.19 8.19 0 0 0 8.19 8.19h45.88a8.19 8.19 0 0 0 8.19-8.19v-4.59a8.19 8.19 0 0 1 8.19-8.19h9.43a8.19 8.19 0 0 1 8.19 8.19v38.11h-871v-34a8.19 8.19 0 0 1 8.2-8.18z" fill="#FFF" fill-rule="nonzero"/><path fill="#C7E3F3" fill-rule="nonzero" d="M760.49 131.81l-51.52 70.09h103.04zm-138.1 6.94l-51.52 70.09H673.9zm-410.87-17.1l-42.58 57.92h85.16z"/><path fill="#9CD6E6" fill-rule="nonzero" d="M136.7 100.37l-73.31 99.72H210z"/><path d="M175.82 229.2h6.24a5.66 5.66 0 0 1 5.63 5.66v13.72H182a5.66 5.66 0 0 0-5.66 5.66v30.16h56.28v-55.2h-56.8z" fill="#BAE3F1" fill-rule="nonzero"/><path d="M194.73 225.85h16.79v2.93a8.06 8.06 0 0 1-8.06 8.06h-.68a8.06 8.06 0 0 1-8.06-8.06v-2.93h.01z" fill="url(#a)" fill-rule="nonzero"/><path d="M142.81 318.27h76.92v5.29a8.06 8.06 0 0 1-8.06 8.06h-60.8a8.06 8.06 0 0 1-8.06-8.06v-5.29zM292 307.28h35.2v8.43a8.06 8.06 0 0 1-8.06 8.06h-19.06a8.06 8.06 0 0 1-8.06-8.06v-8.43H292zm66.16 10.99h56.65v2.93a8.06 8.06 0 0 1-8.06 8.06h-40.53a8.06 8.06 0 0 1-8.06-8.06v-2.93zm465.42 6.79h36.83V333a8.06 8.06 0 0 1-8.06 8.06h-20.71a8.06 8.06 0 0 1-8.06-8.06v-7.94zm-376.05-17.78h16.79v2.93a8.06 8.06 0 0 1-8.06 8.06h-.68a8.06 8.06 0 0 1-8.06-8.06v-2.93h.01z" fill="#BAE3F1" fill-rule="nonzero"/><path d="M384.55 326.13h16.79v2.93a8.06 8.06 0 0 1-8.06 8.06h-.68a8.06 8.06 0 0 1-8.06-8.06v-2.93h.01zm-196.9 2.36h16.79v2.93a8.06 8.06 0 0 1-8.06 8.06h-.68a8.06 8.06 0 0 1-8.06-8.06v-2.93h.01zm346.14 8.63h238.57V345a8.06 8.06 0 0 1-8.06 8.06H541.85a8.06 8.06 0 0 1-8.06-8.06v-7.88zm364.15-12.06h75.43V328a8.06 8.06 0 0 1-8.06 8.06H906a8.06 8.06 0 0 1-8.06-8.06v-2.94z" fill="#BAE3F1" fill-rule="nonzero"/><path d="M924.76 332.91h27v2.93a8.06 8.06 0 0 1-8.06 8.06h-10.85a8.06 8.06 0 0 1-8.06-8.06v-2.93h-.03zM456.26 307h29.56v10.79a8.06 8.06 0 0 1-8.06 8.06h-13.44a8.06 8.06 0 0 1-8.06-8.06V307zm125.87 40.33h34.57v7.88a8.06 8.06 0 0 1-8.06 8.06h-18.45a8.06 8.06 0 0 1-8.06-8.06v-7.88z" fill="#BAE3F1" fill-rule="nonzero"/><path d="M1151.66 223.65v-12.14H852.77l.18-23.89a8.06 8.06 0 0 0-8.06-8.06H702.23a8.93 8.93 0 0 0-8.93 8.93v11.19l-53.94.69v-20.8H515.79a8.17 8.17 0 0 0-8.06 8.22 8.06 8.06 0 0 1-8.06 7.89h-96.79a8.06 8.06 0 0 1-8.06-8.06 8.06 8.06 0 0 0-8.06-8.06H128.67a8.06 8.06 0 0 0-8.06 8.06v20.53H13.7V220a9.22 9.22 0 0 0 9.22 9.22h192a6.41 6.41 0 0 1 6.41 6.41v12.94h-14.28a8.2 8.2 0 0 0-8.2 8.2v35.62H85.59V301a8.88 8.88 0 0 0 8.88 8.88h28.36v2.2a8.2 8.2 0 0 0 8.2 8.2h129.61c4.7 0 8.51-3.81 8.51-8.51v-2.15h65.51v2.15c0 4.7 3.81 8.51 8.51 8.51h82.35c4.7 0 8.51-3.81 8.51-8.51v-1.88h56a8.19 8.19 0 0 1 8.19 8.19v12a8.26 8.26 0 0 0 8.26 8.26h285.3a8.26 8.26 0 0 0 8.26-8.26v-3.48h194.17v3.6a8.14 8.14 0 0 0 8.14 8.14H1022a8.14 8.14 0 0 0 8.14-8.14v-3.87h51.52a8.81 8.81 0 0 0 8.81-8.81v-25.21a8 8 0 0 0-8-8h-157.7a6.12 6.12 0 0 1-6.12-6.12v-6.12h48.78a5.94 5.94 0 0 0 5.94-5.94V254.7H932.8v-13.65a8.25 8.25 0 0 1 8.25-8.25h201.46a9.15 9.15 0 0 0 9.15-9.15z" fill="url(#b)" fill-rule="nonzero"/><path d="M505.24 284.43v-7.27a8.38 8.38 0 0 1 8.38-8.38h36.06a8.38 8.38 0 0 1 8.38 8.38v4.17a8.38 8.38 0 0 0 8.38 8.38h.34a8.38 8.38 0 0 0 8.38-8.38v-4.17a8.38 8.38 0 0 1 8.38-8.38h10.1a8.38 8.38 0 0 1 8.38 8.38v23.2h-63.29v-15.93h-33.49z" fill="#88CB4D" fill-rule="nonzero"/><path d="M941 232.8h201.78a8.83 8.83 0 0 0 8.83-8.83v-12.46H835.36v-3.36H542.18v37h108.16v59.11h440.18v-12a8 8 0 0 0-8-8h-157.7a6.12 6.12 0 0 1-6.12-6.12v-6.12h48.73a5.94 5.94 0 0 0 5.94-5.94V254.7H932.8v-13.65a8.25 8.25 0 0 1 8.2-8.25z" fill="#88CB4D" fill-rule="nonzero"/><path d="M578.1 210.1v9.79a8.08 8.08 0 0 0 8.08 8.08h97.58a8.31 8.31 0 0 1 8.31 8.31v15.42a8.31 8.31 0 0 0 8.31 8.31h16.24a8.31 8.31 0 0 0 8.31-8.31v-2.91a8.31 8.31 0 0 1 8.31-8.31h91.4a8.29 8.29 0 0 1 8.29 8.29v15a8.29 8.29 0 0 0 8.29 8.29h126.22a5.94 5.94 0 0 0 5.94-5.94V254.7H932.8v-13.65a8.25 8.25 0 0 1 8.25-8.25h201.78a8.83 8.83 0 0 0 8.83-8.83v-12.46h-316.3v-1.41H578.1z" fill="url(#c)" fill-rule="nonzero"/><path d="M664.24 299.42V278.7a8 8 0 0 1 8-8h.54a8 8 0 0 1 8 8 8 8 0 0 0 8 8h11.35a8 8 0 0 1 8 8v5.67l-43.89-.95z" fill="url(#d)" fill-rule="nonzero"/><path d="M244.72 237.12h397.56a8.06 8.06 0 0 1 0 16.12h-389.5a8.06 8.06 0 0 1-8.06-8.06v-8.06z" fill="url(#e)" fill-rule="nonzero"/><path d="M346.4 249h6.86v5.05a3.43 3.43 0 1 1-6.86 0V249z" fill="url(#f)" fill-rule="nonzero"/><path d="M485.82 251.52h6.86v5.05a3.43 3.43 0 1 1-6.86 0v-5.05z" fill="url(#g)" fill-rule="nonzero"/><path d="M421.06 249.15h6.86v9.69a3.43 3.43 0 1 1-6.86 0v-9.69z" fill="url(#h)" fill-rule="nonzero"/><path d="M601.52 250.25h6.86v9.69a3.43 3.43 0 1 1-6.86 0v-9.69z" fill="url(#i)" fill-rule="nonzero"/><path d="M1108.43 300.36h-569.7v-15.93H69v8.06a8.06 8.06 0 0 0 8.06 8.06H506a7.87 7.87 0 0 1 7.87 7.87 8.06 8.06 0 0 0 8.06 8.06h578.44a8.06 8.06 0 0 0 8.06-8.06v-8.06z" fill="url(#j)" fill-rule="nonzero"/><path d="M192.62 297.06h6.86v5.05a3.43 3.43 0 1 1-6.86 0v-5.05z" fill="url(#k)" fill-rule="nonzero"/><path d="M609.84 315.35h6.86v5.05a3.43 3.43 0 1 1-6.86 0v-5.05z" fill="url(#l)" fill-rule="nonzero"/><path d="M709 315.35h6.86v5.05a3.43 3.43 0 1 1-6.86 0v-5.05z" fill="url(#m)" fill-rule="nonzero"/><path d="M417.63 298.49h6.86v5.05a3.43 3.43 0 1 1-6.86 0v-5.05z" fill="url(#n)" fill-rule="nonzero"/><path d="M556.78 315.35h6.86V325a3.43 3.43 0 1 1-6.86 0v-9.69.04z" fill="url(#o)" fill-rule="nonzero"/><path d="M784.18 315.35H791v5.05a3.43 3.43 0 1 1-6.86 0v-5.05h.04z" fill="url(#p)" fill-rule="nonzero"/><path d="M731.12 315.35H738V325a3.43 3.43 0 1 1-6.86 0v-9.69l-.02.04z" fill="url(#q)" fill-rule="nonzero"/><path d="M387.4 297.06h6.86v9.69a3.43 3.43 0 1 1-6.86 0v-9.69z" fill="url(#r)" fill-rule="nonzero"/><path d="M534.7 200.09h626.87v8.06a8.06 8.06 0 0 1-8.06 8.06H542.76a8.06 8.06 0 0 1-8.06-8.06v-8.06z" fill="url(#s)" fill-rule="nonzero"/><path d="M551.19 212.72h6.86v5.05a3.43 3.43 0 1 1-6.86 0v-5.05z" fill="url(#t)" fill-rule="nonzero"/><path d="M715.24 212.72h6.86v5.05a3.43 3.43 0 1 1-6.86 0v-5.05z" fill="url(#u)" fill-rule="nonzero"/><path d="M660.78 212.72h6.86v9.69a3.43 3.43 0 1 1-6.86 0v-9.69z" fill="url(#v)" fill-rule="nonzero"/><path d="M.72 200.09h279.12a8.06 8.06 0 0 1 0 16.12H8.78a8.06 8.06 0 0 1-8.06-8.06v-8.06z" fill="url(#w)" fill-rule="nonzero"/><path d="M237.86 212.72h6.86v5.05a3.43 3.43 0 1 1-6.86 0v-5.05z" fill="url(#x)" fill-rule="nonzero"/><path d="M200.2 166.86a4.35 4.35 0 0 1 4.35 4.35v8.35h-8.71v-8.35a4.35 4.35 0 0 1 4.36-4.35z" fill="#85B749" fill-rule="nonzero"/><path d="M206.94 171.62a4.57 4.57 0 0 1 4.57 4.57v3.38h-9.15v-3.38a4.57 4.57 0 0 1 4.58-4.57z" fill="#C3F47E" fill-rule="nonzero"/><path d="M221.31 171.62a4.57 4.57 0 0 1 4.57 4.57v3.38h-9.15v-3.38a4.57 4.57 0 0 1 4.58-4.57z" fill="#8AC134" fill-rule="nonzero"/><rect fill="#BEE6F2" fill-rule="nonzero" x="182.2" y="38.24" width="111.32" height="8.97" rx="4.485"/><path d="M205.74 30.44a8.39 8.39 0 0 0-8.39 8.39v8.39h16.77v-8.4a8.39 8.39 0 0 0-8.38-8.38zm53.83-5.77a8.39 8.39 0 0 0-8.39 8.39v14.15H268V33.06a8.39 8.39 0 0 0-8.43-8.39z" fill="#BEE6F2" fill-rule="nonzero"/><path d="M251.18 47.21h-37.05V28.68c0-10.234 8.296-18.53 18.53-18.53 10.234 0 18.53 8.296 18.53 18.53v18.53h-.01z" fill="#BEE6F2" fill-rule="nonzero"/><path fill="#C2D0D5" fill-rule="nonzero" d="M217.17 88.82l-8.39-4.53 8.39 8.38 8.38-8.38zm602.55-43.03l-8.38-4.53 8.38 8.38 8.38-8.38z"/><path d="M219.11 185.21a6.11 6.11 0 0 1 6.11 6.11v8.77H213v-8.77a6.11 6.11 0 0 1 6.11-6.11z" fill="#8AC134" fill-rule="nonzero"/><path d="M211.52 192.14a6.5 6.5 0 0 1 6.5 6.5v1.45H205v-1.45a6.5 6.5 0 0 1 6.52-6.5z" fill="#C3F47E" fill-rule="nonzero"/><rect fill="#BEE6F2" fill-rule="nonzero" x="833.76" y="110.12" width="111.32" height="8.97" rx="4.485"/><path d="M857.3 102.32a8.39 8.39 0 0 0-8.39 8.39v8.39h16.77v-8.4a8.39 8.39 0 0 0-8.38-8.38zm53.83-5.77a8.39 8.39 0 0 0-8.39 8.39v14.15h16.77v-14.15a8.39 8.39 0 0 0-8.38-8.39z" fill="#BEE6F2" fill-rule="nonzero"/><path d="M902.74 119.09h-37.05v-18.53A18.53 18.53 0 0 1 884.22 82c10.234 0 18.53 8.296 18.53 18.53v18.53l-.01.03z" fill="#BEE6F2" fill-rule="nonzero"/><path d="M916.72 243.51V255h-6.54v-11.49a5.78 5.78 0 0 0-1.7-4.09 5.33 5.33 0 0 0-.82-.67 5.74 5.74 0 0 1 3.27-1 5.77 5.77 0 0 1 5.79 5.76z" fill="url(#y)" fill-rule="nonzero"/><path d="M910.18 243.51V255h-5v-11.49a5.75 5.75 0 0 1 2.51-4.76c.295.196.57.42.82.67a5.78 5.78 0 0 1 1.67 4.09z" fill="#1D423D" fill-rule="nonzero"/><path d="M198.85 256.81a7.65 7.65 0 0 1 7.65 7.65v20h-15.3v-20a7.65 7.65 0 0 1 7.65-7.65z" fill="#BAE3F1" fill-rule="nonzero"/><path d="M206.51 276.48A6.5 6.5 0 0 1 213 283v1.45h-13V283a6.5 6.5 0 0 1 6.51-6.52z" fill="url(#z)" fill-rule="nonzero"/><path d="M293.57 261.4a8.68 8.68 0 0 1 8.68 8.68v14.35h-17.36v-14.35a8.68 8.68 0 0 1 8.68-8.68z" fill="#8AC134" fill-rule="nonzero"/><path d="M509.23 216.39a8.68 8.68 0 0 1 8.68 8.68v11.3h-17.36v-11.3a8.68 8.68 0 0 1 8.68-8.68z" fill="#C3F47E" fill-rule="nonzero"/><path d="M468.08 267.07a8.68 8.68 0 0 1 8.68 8.68v8.68H459.4v-8.68a8.68 8.68 0 0 1 8.68-8.68z" fill="#8AC134" fill-rule="nonzero"/><path d="M302.25 271.72a7.65 7.65 0 0 1 7.65 7.65v5.05h-15.3v-5.05a7.65 7.65 0 0 1 7.65-7.65zm152.93 0a7.65 7.65 0 0 1 7.65 7.65v5.05h-15.3v-5.05a7.65 7.65 0 0 1 7.65-7.65z" fill="#C3F47E" fill-rule="nonzero"/><path d="M275.64 271.72a7.65 7.65 0 0 1 7.65 7.65v5.05H268v-5.05a7.65 7.65 0 0 1 7.64-7.65z" fill="#8AC134" fill-rule="nonzero"/><path d="M284.53 276.48A6.5 6.5 0 0 1 291 283v1.45h-13V283a6.5 6.5 0 0 1 6.53-6.52zm501.47.75a8.68 8.68 0 0 1 8.68 8.68v14.35h-17.36v-14.35a8.68 8.68 0 0 1 8.68-8.68z" fill="#C3F47E" fill-rule="nonzero"/><path d="M624 177.4a8.68 8.68 0 0 1 8.68 8.68v14.35h-17.33v-14.35a8.68 8.68 0 0 1 8.65-8.68zm146.75 0a8.68 8.68 0 0 1 8.68 8.68v14.35h-17.36v-14.35a8.68 8.68 0 0 1 8.68-8.68z" fill="#85B749" fill-rule="nonzero"/><path d="M939.51 177.4a8.68 8.68 0 0 1 8.68 8.68v14.35h-17.36v-14.35a8.68 8.68 0 0 1 8.68-8.68zm-380.36 9.93a7.62 7.62 0 0 1 7.62 7.62v5.48h-15.25V195a7.62 7.62 0 0 1 7.63-7.67z" fill="#8AC134" fill-rule="nonzero"/><path d="M610.22 187.33a7.65 7.65 0 0 1 7.65 7.65V200h-15.31v-5a7.65 7.65 0 0 1 7.66-7.67z" fill="#C3F47E" fill-rule="nonzero"/><path d="M678 287.55a7.65 7.65 0 0 1 7.65 7.65v5.05H670.3v-5.05a7.65 7.65 0 0 1 7.65-7.65h.05zm-73.05 0a7.65 7.65 0 0 1 7.65 7.65v5.05h-15.31v-5.05a7.65 7.65 0 0 1 7.66-7.65zm189.73 4.76a6.5 6.5 0 0 1 6.5 6.5v1.45h-13v-1.46a6.5 6.5 0 0 1 6.5-6.5v.01z" fill="#85B749" fill-rule="nonzero"/><path d="M685.61 292.31a6.5 6.5 0 0 1 6.5 6.5v1.45h-13v-1.46a6.5 6.5 0 0 1 6.5-6.5v.01zm-417.98-15.83a6.5 6.5 0 0 1 6.5 6.5v1.45h-13V283a6.5 6.5 0 0 1 6.5-6.52z" fill="#C3F47E" fill-rule="nonzero"/><rect fill="#FFF" fill-rule="nonzero" x="488.52" y="64.93" width="62.02" height="6.53" rx="3.26"/><path d="M509.11 58.53a6.1 6.1 0 0 1 6.1 6.1v4.57H503v-4.57a6.1 6.1 0 0 1 6.11-6.1z" fill="#FFF" fill-rule="nonzero"/><path d="M522.59 51.24c7.445 0 13.48 6.035 13.48 13.48v3.48h-27v-3.48c0-7.445 6.035-13.48 13.48-13.48h.04z" fill="#FFF" fill-rule="nonzero"/><path d="M307 237.12v-28.23a8.8 8.8 0 0 1 8.8-8.8h38.38a8.8 8.8 0 0 1 8.8 8.8v28.23H307z" fill="#88CB4D" fill-rule="nonzero"/><path fill="#4380B0" fill-rule="nonzero" d="M786.17 283.36l-10.12-11.18h-29.51l10.12 11.18z"/><path fill="#FFFFB9" fill-rule="nonzero" d="M746.54 272.18l-10.13 11.18h2.02v16.36h16.21v-16.36h2.02z"/><path fill="#8DAEBD" fill-rule="nonzero" d="M754.64 283.36h29.51v16.36h-29.51z"/><path d="M746.54 291.49a2.66 2.66 0 0 1 2.66 2.66v5.57h-5.33v-5.57a2.66 2.66 0 0 1 2.67-2.66z" fill="#035B69" fill-rule="nonzero"/><rect fill="#035B69" fill-rule="nonzero" x="744.53" y="279.34" width="4.01" height="4.01" rx="2.005"/><path fill="#8DAEBD" fill-rule="nonzero" d="M758.03 254.27h6.23v17.91h-6.23z"/><path fill="#FFFFB9" fill-rule="nonzero" d="M751.8 254.27h6.23v17.91h-6.23zm6.23-12.67l-6.23 12.67h6.23z"/><path fill="#8DAEBD" fill-rule="nonzero" d="M758.03 241.6v12.67h6.23z"/><path fill="#F0F0F0" fill-rule="nonzero" d="M751.79 250v4.35h2.11zm6.24 0v4.35h-2.11z"/><path fill="#D4D4D4" fill-rule="nonzero" d="M758.03 250v4.35h2.11zm6.23 0v4.35h-2.11z"/><path fill="#F0F0F0" fill-rule="nonzero" d="M751.79 254.35h6.24v1.47h-6.24z"/><path fill="#D4D4D4" fill-rule="nonzero" d="M758.02 254.35h6.24v1.47h-6.24z"/><path d="M754.91 257.7a1 1 0 0 1 1 1v3h-2v-3a1 1 0 0 1 1-1zm11.51 32.23a1 1 0 0 1 1 1v3h-2v-3a1 1 0 0 1 1-1zm5.94 0a1 1 0 0 1 1 1v3h-2v-3a1 1 0 0 1 1-1zm5.94 0a1 1 0 0 1 1 1v3h-2v-3a1 1 0 0 1 1-1zm-17.81 0a1 1 0 0 1 1 1v3h-2v-3a1 1 0 0 1 1-1zm.66-32.23a1 1 0 0 1 1 1v3h-2v-3a1 1 0 0 1 1-1z" fill="#035B69" fill-rule="nonzero"/><path d="M387.33 224.36A7.65 7.65 0 0 1 395 232v5.05h-15.33V232a7.65 7.65 0 0 1 7.65-7.65l.01.01z" fill="#85B749" fill-rule="nonzero"/><path d="M395 229.11a6.5 6.5 0 0 1 6.5 6.5v1.45h-13v-1.45a6.5 6.5 0 0 1 6.5-6.5z" fill="#C3F47E" fill-rule="nonzero"/><path fill="#4380B0" fill-rule="nonzero" d="M375.46 211.06l-10.12-11.18h-21.22l10.13 11.18z"/><path fill="#FFFFB9" fill-rule="nonzero" d="M344.12 199.88l-10.13 11.18v25.46h20.26v-25.46z"/><path fill="#8DAEBD" fill-rule="nonzero" d="M354.25 211.06h21.22v25.46h-21.22z"/><rect fill="#035B69" fill-rule="nonzero" x="342.11" y="207.05" width="4.01" height="4.01" rx="2.005"/><path fill="#4380B0" fill-rule="nonzero" d="M361.24 230.09l4.78-7.47h11.22l-4.78 7.47z"/><path fill="#FFFFB9" fill-rule="nonzero" d="M361.24 230.09h11.22v6.43h-11.22z"/><path fill="#8DAEBD" fill-rule="nonzero" d="M377.24 222.62l-4.78 7.47v6.43h9.56v-6.43z"/><path fill="#4380B0" fill-rule="nonzero" d="M336.89 222.62l3.89 5.17h10.12l-3.9-5.17z"/><path fill="#8DAEBD" fill-rule="nonzero" d="M340.78 227.79h10.13v8.73h-10.13z"/><path fill="#FFFFB9" fill-rule="nonzero" d="M336.89 222.62h-5.8l-3.89 5.17v8.73h13.57v-8.73z"/><path d="M334 228.32a2.66 2.66 0 0 0-2.66 2.66v5.54h5.33V231a2.66 2.66 0 0 0-2.67-2.68zm34.31-12.78h2.01v4.01h-2.01zm-8.91 0h2.01v4.01h-2.01z" fill="#035B69" fill-rule="nonzero"/><path d="M749.7 187.92a7.65 7.65 0 0 1 7.65 7.65v5.05H742v-5.05a7.65 7.65 0 0 1 7.65-7.65h.05z" fill="#8AC134" fill-rule="nonzero"/><path d="M757.36 192.68a6.5 6.5 0 0 1 6.5 6.5v1.45h-13v-1.45a6.5 6.5 0 0 1 6.5-6.5zm191.53 0a6.5 6.5 0 0 1 6.5 6.5v1.45h-13v-1.45a6.5 6.5 0 0 1 6.5-6.5zm-151.35 0a6.5 6.5 0 0 1 6.5 6.5v1.45H791v-1.45a6.5 6.5 0 0 1 6.54-6.5z" fill="#C3F47E" fill-rule="nonzero"/><path d="M940.81 277.07a8.68 8.68 0 0 1 8.68 8.68v14.35h-17.36v-14.35a8.68 8.68 0 0 1 8.68-8.68zm-80.11 7.28a8.68 8.68 0 0 1 8.68 8.68v7.07H852V293a8.68 8.68 0 0 1 8.7-8.65z" fill="#85B749" fill-rule="nonzero"/><path d="M919.77 287.59a7.65 7.65 0 0 1 7.65 7.65v5.05h-15.31v-5.05a7.65 7.65 0 0 1 7.65-7.65h.01z" fill="#8AC134" fill-rule="nonzero"/><path d="M932.13 292.35a6.5 6.5 0 0 1 6.5 6.5v1.45h-13v-1.45a6.5 6.5 0 0 1 6.5-6.5z" fill="#C3F47E" fill-rule="nonzero"/><path fill="#4380B0" fill-rule="nonzero" d="M940.24 187.64l-10.13-11.18H900.6l10.13 11.18z"/><path fill="#FFFFB9" fill-rule="nonzero" d="M900.6 176.46l-10.12 11.18h2.02v12.35h16.2v-12.35h2.03z"/><path fill="#8DAEBD" fill-rule="nonzero" d="M908.7 187.64h29.51v12.35H908.7z"/><path d="M900.6 191.75a2.66 2.66 0 0 1 2.66 2.66V200h-5.33v-5.57a2.66 2.66 0 0 1 2.67-2.68z" fill="#035B69" fill-rule="nonzero"/><rect fill="#035B69" fill-rule="nonzero" x="898.59" y="183.62" width="4.01" height="4.01" rx="2.005"/><path fill="#8DAEBD" fill-rule="nonzero" d="M914.5 169.95h2.72v12.1h-2.72z"/><path fill="#FFFFB9" fill-rule="nonzero" d="M912.76 169.95v10.17l1.74 1.93v-12.1zm4.28 22.57l-4.78 7.47h9.56z"/><path fill="#8DAEBD" fill-rule="nonzero" d="M947.19 199.99l-4.78-7.47h-25.37l4.78 7.47z"/><path d="M650.3 245.1v11.5c-2.33 0-2.33 2-4.66 2s-2.33-2-4.65-2c-2.32 0-2.33 2-4.66 2s-2.32-2-4.64-2-2.33 2-4.65 2c-2.32 0-2.33-2-4.65-2v-11.5a8 8 0 0 0-8-8h27.9a8 8 0 0 1 8.01 8z" fill="#00D7EE" fill-rule="nonzero"/><path d="M650.3 256.6v13.07c-1.75 0-1.75 2-3.5 2s-1.75-2-3.49-2c-1.74 0-1.75 2-3.49 2-1.74 0-1.74-2-3.49-2-1.75 0-1.74 2-3.48 2s-1.75-2-3.49-2c-1.74 0-1.74 2-3.48 2s-1.75-2-3.49-2V256.6c2.32 0 2.32 2 4.65 2 2.33 0 2.32-2 4.65-2 2.33 0 2.32 2 4.64 2s2.33-2 4.66-2 2.32 2 4.65 2c2.33 0 2.36-2 4.66-2z" fill="#00C8DD" fill-rule="nonzero"/><path d="M650.3 269.67v30.79h-27.91v-30.79c1.74 0 1.74 2 3.49 2 1.75 0 1.74-2 3.48-2s1.74 2 3.49 2c1.75 0 1.74-2 3.48-2s1.75 2 3.49 2c1.74 0 1.74-2 3.49-2 1.75 0 1.74 2 3.49 2 1.75 0 1.75-2 3.5-2z" fill="#00BAD4" fill-rule="nonzero"/><path d="M626.21 292.81a3.82 3.82 0 0 1 3.82 3.82v3.82h-7.64v-3.82a3.82 3.82 0 0 1 3.82-3.82zm20.3 2.27a3.82 3.82 0 0 1 3.82 3.82v1.55h-7.64v-1.55a3.82 3.82 0 0 1 3.82-3.82z" fill="#FFF" fill-rule="nonzero"/><path d="M636.36 289.71a6.33 6.33 0 0 1 6.33 6.33v4.41H630V296a6.33 6.33 0 0 1 6.36-6.29z" fill="#FFF" fill-rule="nonzero"/><path d="M622.38 299.72v-54.56a8 8 0 0 0-8-8h28a8 8 0 0 1 8 8v55.35" stroke="#FFF" stroke-width="2" stroke-linecap="round" stroke-linejoin="round"/><path d="M288.79 208.06v3.62c-2.33 0-2.33 2-4.66 2s-2.33-2-4.65-2c-2.32 0-2.33 2-4.66 2s-2.32-2-4.64-2-2.33 2-4.65 2c-2.32 0-2.33-2-4.65-2v-3.62a8 8 0 0 0-8-8h27.9a8 8 0 0 1 8.01 8z" fill="#00D7EE" fill-rule="nonzero"/><path d="M288.79 211.67v7.07c-1.75 0-1.75 2-3.5 2s-1.75-2-3.49-2c-1.74 0-1.75 2-3.49 2-1.74 0-1.74-2-3.49-2-1.75 0-1.74 2-3.48 2s-1.75-2-3.49-2c-1.74 0-1.74 2-3.48 2s-1.75-2-3.49-2v-7.07c2.32 0 2.32 2 4.65 2 2.33 0 2.32-2 4.65-2 2.33 0 2.32 2 4.64 2s2.33-2 4.66-2 2.32 2 4.65 2c2.33 0 2.33-2 4.66-2z" fill="#00C8DD" fill-rule="nonzero"/><path d="M288.79 218.74v18.11h-27.91v-18.11c1.74 0 1.74 2 3.49 2 1.75 0 1.74-2 3.48-2s1.74 2 3.49 2c1.75 0 1.74-2 3.48-2s1.75 2 3.49 2c1.74 0 1.74-2 3.49-2 1.75 0 1.74 2 3.49 2 1.75 0 1.71-2 3.5-2z" fill="#00BAD4" fill-rule="nonzero"/><path d="M264.7 229.21a3.82 3.82 0 0 1 3.82 3.82v3.82h-7.64V233a3.82 3.82 0 0 1 3.82-3.79zm20.3 2.27a3.82 3.82 0 0 1 3.82 3.82v1.55h-7.64v-1.55a3.82 3.82 0 0 1 3.82-3.82z" fill="#FFF" fill-rule="nonzero"/><path d="M274.86 226.11a6.33 6.33 0 0 1 6.33 6.33v4.41h-12.67v-4.41a6.33 6.33 0 0 1 6.33-6.33h.01z" fill="#FFF" fill-rule="nonzero"/><path d="M260.88 237.07v-28.95a8 8 0 0 0-8-8h28a8 8 0 0 1 8 8v28.79" stroke="#FFF" stroke-width="2" stroke-linecap="round" stroke-linejoin="round"/><rect fill="#88CB4D" fill-rule="nonzero" x="587.25" y="219.49" width="13.34" height="3.44" rx="1.72"/><rect fill="#88CB4D" fill-rule="nonzero" x="609.12" y="270.67" width="8.28" height="3.44" rx="1.72"/><rect fill="#88CB4D" fill-rule="nonzero" x="479.15" y="225.34" width="13.34" height="3.44" rx="1.72"/><rect fill="#88CB4D" fill-rule="nonzero" x="437.51" y="211.71" width="13.34" height="3.44" rx="1.72"/><rect fill="#88CB4D" fill-rule="nonzero" x="484.33" y="272.91" width="13.34" height="3.44" rx="1.72"/><rect fill="#88CB4D" fill-rule="nonzero" x="452.37" y="257.96" width="13.34" height="3.44" rx="1.72"/><rect fill="#88CB4D" fill-rule="nonzero" x="394.98" y="260.56" width="13.34" height="3.44" rx="1.72"/><rect fill="#88CB4D" fill-rule="nonzero" x="298.26" y="192.02" width="13.34" height="3.44" rx="1.72"/><rect fill="#88CB4D" fill-rule="nonzero" x="323.86" y="272.91" width="13.34" height="3.44" rx="1.72"/><rect fill="#88CB4D" fill-rule="nonzero" x="244.73" y="274.99" width="13.34" height="3.44" rx="1.72"/><rect fill="#88CB4D" fill-rule="nonzero" x="212.44" y="255.1" width="13.34" height="3.44" rx="1.72"/><rect fill="#88CB4D" fill-rule="nonzero" x="230.73" y="239.54" width="8.85" height="3.44" rx="1.72"/><rect fill="#88CB4D" fill-rule="nonzero" x="268.17" y="185.38" width="13.34" height="3.44" rx="1.72"/><rect fill="#88CB4D" fill-rule="nonzero" x="216.49" y="222.07" width="13.34" height="3.44" rx="1.72"/><rect fill="#88CB4D" fill-rule="nonzero" x="383.63" y="216.49" width="13.34" height="3.44" rx="1.72"/><rect fill="#88CB4D" fill-rule="nonzero" x="362.57" y="259.68" width="13.34" height="3.44" rx="1.72"/><rect fill="#88CB4D" fill-rule="nonzero" x="300.28" y="222.07" width="13.34" height="3.44" rx="1.72"/><rect fill="#88CB4D" fill-rule="nonzero" x="525.39" y="188.92" width="13.34" height="3.44" rx="1.72"/><rect fill="#88CB4D" fill-rule="nonzero" x="696.05" y="227.3" width="13.34" height="3.44" rx="1.72"/><rect fill="#88CB4D" fill-rule="nonzero" x="502.56" y="206.01" width="13.34" height="3.44" rx="1.72"/><rect fill="#88CB4D" fill-rule="nonzero" x="551.71" y="261.89" width="13.34" height="3.44" rx="1.72"/><rect fill="#88CB4D" fill-rule="nonzero" x="460" y="204.29" width="20.6" height="3.44" rx="1.72"/><rect fill="#88CB4D" fill-rule="nonzero" x="504.8" y="258.68" width="20.6" height="3.44" rx="1.72"/><rect fill="#88CB4D" fill-rule="nonzero" x="575.07" y="258.43" width="20.6" height="3.44" rx="1.72"/><rect fill="#88CB4D" fill-rule="nonzero" x="401.16" y="204.29" width="20.6" height="3.44" rx="1.72"/><rect fill="#88CB4D" fill-rule="nonzero" x="401.16" y="274.03" width="20.6" height="3.44" rx="1.72"/><rect fill="#88CB4D" fill-rule="nonzero" x="418.57" y="225.34" width="20.6" height="3.44" rx="1.72"/><rect fill="#88CB4D" fill-rule="nonzero" x="328.42" y="188" width="20.6" height="3.44" rx="1.72"/><rect fill="#88CB4D" fill-rule="nonzero" x="309.93" y="259.68" width="20.6" height="3.44" rx="1.72"/><rect fill="#88CB4D" fill-rule="nonzero" x="237.34" y="190.93" width="20.6" height="3.44" rx="1.72"/><rect fill="#88CB4D" fill-rule="nonzero" x="255.05" y="257.96" width="20.6" height="3.44" rx="1.72"/><rect fill="#88CB4D" fill-rule="nonzero" x="707.63" y="236.33" width="13.34" height="3.44" rx="1.72"/><rect fill="#88CB4D" fill-rule="nonzero" x="743.03" y="225.85" width="13.34" height="3.44" rx="1.72"/><rect fill="#88CB4D" fill-rule="nonzero" x="787.61" y="232.21" width="13.34" height="3.44" rx="1.72"/><rect fill="#88CB4D" fill-rule="nonzero" x="841.47" y="259.99" width="3.44" height="3.44" rx="1.72"/><rect fill="#88CB4D" fill-rule="nonzero" x="848.14" y="242.92" width="13.34" height="3.44" rx="1.72"/><rect fill="#88CB4D" fill-rule="nonzero" x="874.42" y="251.26" width="8" height="3.44" rx="1.72"/><rect fill="#88CB4D" fill-rule="nonzero" x="935.63" y="258.28" width="8" height="3.44" rx="1.72"/><rect fill="#88CB4D" fill-rule="nonzero" x="905.15" y="261.29" width="8" height="3.44" rx="1.72"/><rect fill="#88CB4D" fill-rule="nonzero" x="949.33" y="265.15" width="17.57" height="3.44" rx="1.72"/><rect fill="#88CB4D" fill-rule="nonzero" x="945.64" y="222.15" width="17.57" height="3.44" rx="1.72"/><rect fill="#88CB4D" fill-rule="nonzero" x="861.08" y="263.68" width="13.34" height="3.44" rx="1.72"/><rect fill="#88CB4D" fill-rule="nonzero" x="834.8" y="227.3" width="13.34" height="3.44" rx="1.72"/><rect fill="#88CB4D" fill-rule="nonzero" x="868.89" y="221.97" width="13.34" height="3.44" rx="1.72"/><rect fill="#88CB4D" fill-rule="nonzero" x="908.72" y="225.58" width="13.34" height="3.44" rx="1.72"/><rect fill="#88CB4D" fill-rule="nonzero" x="702.72" y="248.28" width="5.57" height="3.44" rx="1.72"/><rect fill="#88CB4D" fill-rule="nonzero" x="803.81" y="224.13" width="5.57" height="3.44" rx="1.72"/><rect fill="#88CB4D" fill-rule="nonzero" x="886.4" y="235.77" width="5.57" height="3.44" rx="1.72"/><rect fill="#88CB4D" fill-rule="nonzero" x="620.6" y="220.27" width="3.44" height="3.44" rx="1.72"/><rect fill="#88CB4D" fill-rule="nonzero" x="613.27" y="283.84" width="3.44" height="3.44" rx="1.72"/><rect fill="#88CB4D" fill-rule="nonzero" x="528.33" y="222.64" width="3.44" height="3.44" rx="1.72"/><rect fill="#88CB4D" fill-rule="nonzero" x="565.05" y="279.26" width="3.44" height="3.44" rx="1.72"/><rect fill="#88CB4D" fill-rule="nonzero" x="464.36" y="216.67" width="3.44" height="3.44" rx="1.72"/><rect fill="#88CB4D" fill-rule="nonzero" x="439.17" y="265.35" width="3.44" height="3.44" rx="1.72"/><rect fill="#88CB4D" fill-rule="nonzero" x="378.51" y="189.72" width="3.44" height="3.44" rx="1.72"/><rect fill="#88CB4D" fill-rule="nonzero" x="296.17" y="207.34" width="3.44" height="3.44" rx="1.72"/><rect fill="#88CB4D" fill-rule="nonzero" x="347.3" y="265.35" width="3.44" height="3.44" rx="1.72"/><rect fill="#88CB4D" fill-rule="nonzero" x="202.52" y="185.38" width="3.44" height="3.44" rx="1.72"/><rect fill="#88CB4D" fill-rule="nonzero" x="218.02" y="272.91" width="3.44" height="3.44" rx="1.72"/><rect fill="#88CB4D" fill-rule="nonzero" x="247.97" y="226.6" width="3.44" height="3.44" rx="1.72"/><rect fill="#88CB4D" fill-rule="nonzero" x="233.32" y="265.2" width="8.03" height="3.44" rx="1.72"/><path fill="#2DA1A3" fill-rule="nonzero" d="M969.84 178.32l-5.09 21.36h10.18zm-118.65-4.02l-6.05 25.38h12.1zm-41.82 100.28l-6.05 25.38h12.09zm151.59 9.46l-3.79 15.92h7.58zm-373.71-9.46l-6.04 25.38h12.09zm-154.33-62.92l-6.05 25.39h12.09zm-95.72 47.37l-6.05 25.38h12.1zm160.47 0l-6.04 25.38h12.09zm-37.48-42.54l-4.89 20.56h9.79zm-46.4 6.13l-3.43 14.43h6.87zm-176.45-37.24l-3.44 14.42h6.87zm-6.61 85.06l-3.43 14.43h6.87zm344.62-84.5l-3.44 14.43h6.87zm264.1-2l-3.75 15.74h7.5zm-106.03 0l-3.75 15.74h7.5zm135.47 0l-3.75 15.74h7.5zm-39.87 100.5l-3.75 15.74h7.49zm64.58-5.14l-4.97 20.88h9.94zm-322 5.14l-3.75 15.74h7.5zm-41.56-15.61l-3.74 15.74h7.49zm179.51 7.52l-5.67 23.83h11.35zm14.62 6.34l-4.16 17.49h8.33z"/><path fill="#4380B0" fill-rule="nonzero" d="M406.23 270.7l-10.13-11.18h-26.15l10.13 11.18z"/><path fill="#FFFFB9" fill-rule="nonzero" d="M369.95 259.52l-10.13 11.18h2.03v14.09h16.2V270.7h2.03z"/><path fill="#8DAEBD" fill-rule="nonzero" d="M378.05 270.7h26.15v14.08h-26.15z"/><path d="M370 276.55a2.66 2.66 0 0 1 2.66 2.66v5.57h-5.33v-5.57a2.66 2.66 0 0 1 2.66-2.66h.01z" fill="#035B69" fill-rule="nonzero"/><rect fill="#035B69" fill-rule="nonzero" x="367.94" y="266.69" width="4.01" height="4.01" rx="2.005"/><path fill="#8DAEBD" fill-rule="nonzero" d="M382.49 253.02h2.72v12.1h-2.72z"/><path fill="#FFFFB9" fill-rule="nonzero" d="M380.75 253.02v10.16l1.74 1.93v-12.09z"/><path fill="#035B69" fill-rule="nonzero" d="M384.2 275.46h2.01v4.01h-2.01zm11.85 0h2.01v4.01h-2.01zm-5.93 0h2.01v4.01h-2.01z"/><path d="M693.93 104.93L624 200h69.28v-11.42a9 9 0 0 1 9-9h46.92l-55.27-74.65z" fill="#9CD6E6" fill-rule="nonzero"/><path d="M678 177.4a8.68 8.68 0 0 1 8.68 8.68v14.35h-17.4v-14.35a8.68 8.68 0 0 1 8.72-8.68z" fill="#85B749" fill-rule="nonzero"/><path d="M669.28 187.92a7.65 7.65 0 0 1 7.65 7.65v5.05h-15.31v-5.05a7.65 7.65 0 0 1 7.66-7.65z" fill="#8AC134" fill-rule="nonzero"/><path fill="#2DA1A3" fill-rule="nonzero" d="M712.47 174.3l-6.04 25.38h12.09z"/><path d="M973.41 254.7h-80.5M.72 200.09h244.85M69 284.43h469.73m0 15.93h569.7m-863.71-63.24h361.66m-71.68-37.03h626.88" stroke="#548834" stroke-width="2" stroke-linecap="round"/><path fill="#F5F1FF" fill-rule="nonzero" d="M235.23 153.9l-4.95 4.17-4.89-4.11-4.87 4.11-4.89-4.11-4.89 4.11-4.88-4.11-4.89 4.11-4.88-4.11-4.89 4.11-4.02-3.25 24.35-33.17z"/><path fill="#BFE5FF" fill-rule="nonzero" d="M717.71 137.04l-5.11 4.31-4.89-4.1-4.88 4.1-4.88-4.1-4.89 4.1-4.88-4.1-4.89 4.1-4.88-4.1-4.89 4.1-4.02-3.25 24.44-33.17z"/><path fill="#F5F1FF" fill-rule="nonzero" d="M705.56 120.64l-2.48 2.09-2.39-2.01-2.38 2.01-2.39-2.01-2.39 2.01-2.38-2.01-2.39 2.01-2.39-2.01-2.38 2.01-1.97-1.59 11.94-16.21zm-68.07 38.62l-3.27 2.76-3.12-2.63-3.12 2.63-3.12-2.63-3.12 2.63-3.12-2.63-3.13 2.63-3.12-2.63-3.12 2.63-2.57-2.08 15.62-21.19zm140.87-3.36l-3.83 3.23-3.66-3.08-3.66 3.08-3.67-3.08-3.66 3.08-3.66-3.08-3.67 3.08-3.66-3.08-3.66 3.08-3.02-2.44 18.32-24.88z"/></g></svg>