<svg width="274" height="104" viewBox="0 0 274 104" xmlns="http://www.w3.org/2000/svg"><title>06EE108F-49F6-408F-A5A8-4C2ED6A522B6</title><defs><linearGradient x1="8.427%" y1="7.727%" x2="116.146%" y2="116.47%" id="a"><stop stop-color="#D39C56" offset="0%"/><stop stop-color="#D19956" offset="4%"/><stop stop-color="#C48456" offset="37%"/><stop stop-color="#BD7756" offset="69%"/><stop stop-color="#BA7356" offset="100%"/></linearGradient><linearGradient x1="84.671%" y1="36.39%" x2="21.111%" y2="125.811%" id="b"><stop stop-color="#BA7356" offset="0%"/><stop stop-color="#BD7756" offset="31%"/><stop stop-color="#C48456" offset="63%"/><stop stop-color="#D19956" offset="96%"/><stop stop-color="#D39C56" offset="100%"/></linearGradient><linearGradient x1="8918.016%" y1="12035%" x2="13976.232%" y2="7757%" id="c"><stop stop-color="#BA7356" offset="0%"/><stop stop-color="#BD7756" offset="31%"/><stop stop-color="#C48456" offset="63%"/><stop stop-color="#D19956" offset="96%"/><stop stop-color="#D39C56" offset="100%"/></linearGradient><linearGradient x1="50.012%" y1="99.417%" x2="50.012%" y2="-5.111%" id="d"><stop stop-color="#B3B3B3" offset="0%"/><stop stop-color="#C3C3C3" stop-opacity=".81" offset="21%"/><stop stop-color="#FFF" stop-opacity=".1" offset="100%"/></linearGradient><linearGradient x1="-875699%" y1="11947%" x2="-875699%" y2="9869%" id="e"><stop stop-color="#B3B3B3" offset="0%"/><stop stop-color="#C3C3C3" stop-opacity=".81" offset="21%"/><stop stop-color="#FFF" stop-opacity=".1" offset="100%"/></linearGradient><linearGradient x1="98.636%" y1="50%" x2="-54.977%" y2="50%" id="f"><stop stop-color="#B3B3B3" offset="0%"/><stop stop-color="#B5B5B5" stop-opacity=".98" offset="16%"/><stop stop-color="#BBB" stop-opacity=".91" offset="32%"/><stop stop-color="#C5C5C5" stop-opacity=".79" offset="49%"/><stop stop-color="#D3D3D3" stop-opacity=".62" offset="65%"/><stop stop-color="#E5E5E5" stop-opacity=".41" offset="81%"/><stop stop-color="#FAFAFA" stop-opacity=".16" offset="97%"/><stop stop-color="#FFF" stop-opacity=".1" offset="100%"/></linearGradient><linearGradient x1="7655%" y1="11566%" x2="8975%" y2="11566%" id="g"><stop stop-color="#B3B3B3" offset="0%"/><stop stop-color="#B5B5B5" stop-opacity=".98" offset="16%"/><stop stop-color="#BBB" stop-opacity=".91" offset="32%"/><stop stop-color="#C5C5C5" stop-opacity=".79" offset="49%"/><stop stop-color="#D3D3D3" stop-opacity=".62" offset="65%"/><stop stop-color="#E5E5E5" stop-opacity=".41" offset="81%"/><stop stop-color="#FAFAFA" stop-opacity=".16" offset="97%"/><stop stop-color="#FFF" stop-opacity=".1" offset="100%"/></linearGradient></defs><g fill="none" fill-rule="evenodd"><path d="M214.46 35.53c18.525.017 33.534 15.035 33.54 33.56v33.57h-67.1V69.09c.006-18.532 15.028-33.554 33.56-33.56z" fill="#8AC134" fill-rule="nonzero"/><path d="M249.88 60a12.37 12.37 0 0 1 12.37 12.37v30.32h-24.74V72.34c.017-6.82 5.55-12.34 12.37-12.34z" fill="#C3F47E" fill-rule="nonzero"/><path d="M77.81 35.53h4c37.075 0 67.13 30.055 67.13 67.13H10.68c0-37.075 30.055-67.13 67.13-67.13z" fill="#8AC134" fill-rule="nonzero"/><path d="M27.14 102.11H26a1.15 1.15 0 0 1-.53-1.24V1.24A1.15 1.15 0 0 1 26 0h1.11c.426.256.64.756.53 1.24v99.62a1.15 1.15 0 0 1-.53 1.24m72.35.01h-1.11a1.15 1.15 0 0 1-.53-1.24V1.24A1.15 1.15 0 0 1 98.35 0h1.11c.426.256.64.756.53 1.24v99.62a1.15 1.15 0 0 1-.53 1.24" fill="#CDCDCD"/><path d="M101.12 31.58c-27.53 9.31-50.44 9.51-78.12.68a2.19 2.19 0 0 1-1.32-1.9c.11-9.63.16-14.45.27-24.08a.88.88 0 0 1 1.34-.83c27.47 9.35 50.36 9.6 78 .83a.86.86 0 0 1 1.32.77c-.07 9.07-.1 13.61-.17 22.68a2.23 2.23 0 0 1-1.32 1.85z" fill="#FD5930"/><path d="M101.12 30c-27.53 9.31-50.44 9.51-78.12.68a2.19 2.19 0 0 1-1.32-1.9c.11-9.63.16-14.45.27-24.08a.88.88 0 0 1 1.34-.83c27.47 9.35 50.36 9.6 78 .83a.86.86 0 0 1 1.32.77c-.07 9.07-.1 13.61-.17 22.68a2.23 2.23 0 0 1-1.32 1.85z" fill="#FF7D4C"/><path d="M47.05 16.55c-1.81-.28-2.71-.43-4.52-.79-1.58-.31-2.37-.48-3.95-.85l.07 4.13.17 9.58c1.58.35 2.37.52 4 .81l-.17-9.55c1.81.35 2.71.5 4.52.77l.18 9.52c1.59.23 2.38.33 4 .49l-.18-9.5-.17-4.07c-1.57-.19-2.36-.29-3.95-.54zm10.72 6.9c0-2.31-.07-3.47-.11-5.78-1.59-.08-2.38-.14-4-.28l.16 8.25.1 5.28 1.35-.87c2.69-1.77 4-2.69 6.73-4.61l.12 5.83c1.59 0 2.38 0 4-.06L65.94 23l-.1-5.24c-3.23 2.39-4.84 3.53-8.07 5.69zm23.09-7.65c-3.19 3-4.78 4.44-8 7.21l-.11-5.54c-1.58.14-2.37.2-4 .28l.27 13.39c2-1.57 3.06-2.38 5.1-4.05 1.13 1.32 1.69 2 2.81 3.27 2.18-.31 3.27-.5 5.44-.93-1.94-2.06-2.91-3.12-4.87-5.28 1.37-1.29 2-1.94 3.41-3.26l-.05-5.09zm4.41 13.08l-.61.09c-.16 0-.3 0-.3-.12l-.3-13a.3.3 0 0 1 .29-.21l.61-.09c.16 0 .3 0 .3.12l.3 13a.3.3 0 0 1-.29.21" fill="#FFF"/><path d="M84.3 15.42l3.79-.17.09 3-3.73 2.53a.16.16 0 0 1-.26-.14l-.13-4.92a.31.31 0 0 1 .24-.31" fill="#FFF"/><path d="M87.49 16.11l3.64.11c.18 0 .22.25.07.41l-3.62 2.8-.09-3.32z" fill="#FFF"/><path d="M179.73 36.61h-42.5c10 22.307 23.333 44.307 40 66h42l-39.5-66z" fill="url(#a)" fill-rule="nonzero"/><path fill="url(#b)" fill-rule="nonzero" d="M137.37 36.63l-39.86 65.98h79.72z"/><path d="M128.29 51.66A59.48 59.48 0 0 1 157 102.61H97.51l30.78-50.95z" fill="url(#c)" fill-rule="nonzero"/><g opacity=".1" fill-rule="nonzero"><path d="M119.28 66.57a42.07 42.07 0 0 1 20.32 36H97.51l21.77-36z" fill="#FFE700"/><path d="M22.28.57a42.07 42.07 0 0 1 20.32 36H.51l21.77-36z" fill="url(#d)" style="mix-blend-mode:multiply" transform="translate(97 66)"/></g><g opacity=".1" fill-rule="nonzero"><path d="M109.53 82.71a23.23 23.23 0 0 1 11.22 19.9H97.51l12.02-19.9z" fill="#FFE700"/><path d="M12.53.71a23.23 23.23 0 0 1 11.22 19.9H.51L12.53.71z" fill="url(#e)" style="mix-blend-mode:multiply" transform="translate(97 82)"/></g><path stroke="#00685F" stroke-width="2" d="M0 102.61h274"/><path fill="#91485B" fill-rule="nonzero" d="M138.23 102.61V56.17l-13.98 46.18 13.98.26"/><path stroke="#246F7C" stroke-linecap="round" d="M137.37 28.74v7.87l57.37 65.74v-7.46m-14.95-66.15v7.87l57.37 65.74v-7.46"/><path stroke="#246F7C" stroke-linecap="round" stroke-linejoin="round" d="M137.37 36.61l-47.37 66v-7.72"/><path d="M43.19 68.6V57.83" stroke="#FFE700" stroke-width="2" opacity=".4" stroke-linecap="round"/><path d="M49.24 85.64v-9.91m12.91 9.91v-4.96" stroke="#FFE700" stroke-width="2" stroke-linecap="round"/><path d="M39.92 90.79V76.53c0-1.85 1.5-3.35 3.35-3.35s3.35-1.5 3.35-3.35v-2.7A3.35 3.35 0 0 1 50 63.79h5c1.85 0 3.35 1.5 3.35 3.35v2.7c0 1.85 1.5 3.35 3.35 3.35h6.16c1.85 0 3.35 1.5 3.35 3.35V90.8H39.92v-.01z" fill="#FFE700" fill-rule="nonzero" opacity=".4"/><path d="M65 83.29v3.07a3.12 3.12 0 0 1-3.12 3.12 3.12 3.12 0 0 1-3.12-3.12v-8a3.12 3.12 0 0 0-3.12-3.12 3.12 3.12 0 0 0-3.12 3.12v8a3.12 3.12 0 0 1-3.12 3.12 3.12 3.12 0 0 1-3.12-3.12v-1.27A3.12 3.12 0 0 0 43.07 82a3.12 3.12 0 0 0-3.12 3.12v5.7a4.1 4.1 0 0 0 4.1 4.1h23.09a4.1 4.1 0 0 0 4.1-4.1v-7.5a3.12 3.12 0 1 0-6.24-.03z" fill="#FFD400" fill-rule="nonzero"/><path d="M74.4 102.43H38.59v-7.54H74.4a3.77 3.77 0 1 1 0 7.54z" fill="#6A4E48" fill-rule="nonzero"/><path d="M74.4 102.43H38.59v-7.54H74.4a3.77 3.77 0 1 1 0 7.54z" fill="url(#f)" fill-rule="nonzero" style="mix-blend-mode:multiply"/><circle fill="#8C7446" fill-rule="nonzero" cx="38.59" cy="98.66" r="3.77"/><path fill="#8C7446" fill-rule="nonzero" d="M55.55 94.89h13.2v7.54h-13.2z"/><path fill="url(#g)" fill-rule="nonzero" style="mix-blend-mode:multiply" d="M55.55 94.89h13.2v7.54h-13.2z"/><circle fill="#6A4E48" fill-rule="nonzero" cx="68.75" cy="98.66" r="3.77"/><path d="M61.63 58.22v-6.56" stroke="#FFE700" stroke-width="2" opacity=".4" stroke-linecap="round"/></g></svg>