<svg width="211" height="100" viewBox="0 0 211 100" xmlns="http://www.w3.org/2000/svg"><title>A89CA4A5-E788-4718-A419-F8EE1BE51EA2</title><defs><linearGradient x1="49.965%" y1="98.809%" x2="49.965%" y2="3.73%" id="a"><stop stop-color="#D44A3D" offset="0%"/><stop stop-color="#D84D40" offset="33%"/><stop stop-color="#E5564B" offset="67%"/><stop stop-color="#F8635A" offset="100%"/></linearGradient><linearGradient x1="13990%" y1="11608%" x2="16089%" y2="11608%" id="b"><stop stop-color="#D44A3D" offset="0%"/><stop stop-color="#D84D40" offset="33%"/><stop stop-color="#E5564B" offset="67%"/><stop stop-color="#F8635A" offset="100%"/></linearGradient><linearGradient x1="0%" y1="49.977%" y2="49.977%" id="c"><stop stop-color="#F8635A" offset="0%"/><stop stop-color="#E5564B" offset="33%"/><stop stop-color="#D84D40" offset="67%"/><stop stop-color="#D44A3D" offset="100%"/></linearGradient></defs><g transform="translate(1 -1)" fill="none" fill-rule="evenodd"><path d="M61.14 32.1a33.57 33.57 0 0 1 33.57 33.57v33.57H27.57V65.67c0-18.54 15.03-33.57 33.57-33.57zm71.58 13.08h32c18.54 0 33.57 15.03 33.57 33.57v20.49H99.15v-20.5c.006-18.536 15.034-33.56 33.57-33.56z" fill="#8AC134" fill-rule="nonzero"/><path d="M135.28 97.07S146 78.76 146 51.43c0-27.33-6.31-33-6.31-33h-5.89s6.31 5.63 6.31 33-10.74 45.64-10.74 45.64h5.91z" fill="#F8635A" fill-rule="nonzero"/><path d="M135.28 97.07s10.74-14 10.74-45.64c0-27.33-6.31-33-6.31-33" stroke="#C54A3D" stroke-width="2"/><path d="M129.39 97.07s10.74-13.48 10.74-45.64c0-27.33-6.31-33-6.31-33" stroke="#C54A3D" stroke-width="2"/><path d="M71.63 16.93h61v82.3H63.3a2.16 2.16 0 0 1-2.16-2.16V27.43a10.49 10.49 0 0 1 10.49-10.5z" fill="url(#a)" fill-rule="nonzero"/><path d="M126.39 16.93h8.33a2.16 2.16 0 0 1 2.16 2.16v78a2.16 2.16 0 0 1-2.16 2.16h-16.66a2.16 2.16 0 0 1-2.16-2.16V27.43c0-5.793 4.697-10.49 10.49-10.49v-.01z" fill="url(#b)" fill-rule="nonzero"/><path fill="#C54A3D" fill-rule="nonzero" d="M68.23 71.13h40.57V92.8H68.23z"/><path d="M106.6 74.36v1" stroke="#E47365" stroke-linecap="round"/><path d="M106.6 78.68v9.41" stroke="#E47365" stroke-linecap="round" stroke-dasharray="2.21"/><path stroke="#E47365" stroke-linecap="round" d="M106.6 89.75v1h-1"/><path d="M102.49 90.75h-29.5" stroke="#E47365" stroke-linecap="round" stroke-dasharray="2.07"/><path stroke="#E47365" stroke-linecap="round" d="M71.44 90.75h-1v-1"/><path d="M70.44 86.43v-9.41" stroke="#E47365" stroke-linecap="round" stroke-dasharray="2.21"/><path d="M70.44 75.36v-1" stroke="#E47365" stroke-linecap="round"/><path d="M68.23 71.13h40.57m-40.57 3.23h40.57" stroke="#874A3D" stroke-linecap="round"/><path d="M83.63 16.93a10.49 10.49 0 0 0-10.49 10.5V49m42.04-32.07c-5.793 0-10.49 4.697-10.49 10.49V49" stroke="#D44A3D" stroke-linecap="round" stroke-dasharray="2"/><path d="M81.56 16.93a10.49 10.49 0 0 0-10.49 10.5V49h-2.84V27.43c0-5.793 4.697-10.49 10.49-10.49h2.83m38.37-.01c-5.793 0-10.49 4.697-10.49 10.49V49h-2.83V27.43c0-5.793 4.697-10.49 10.49-10.49h2.83M83.63 49h9.77v4.88a4.88 4.88 0 1 1-9.76 0V49h-.01z" fill="#D44A3D" fill-rule="nonzero"/><path d="M61.14 48.99h54.76" stroke="#874A3D" stroke-width="2" stroke-linecap="round"/><circle fill="#874A3D" fill-rule="nonzero" cx="88.52" cy="48.99" r="2.49"/><path d="M88.52 48.99v4.88" stroke="#874A3D" stroke-width="2" stroke-linecap="round"/><path d="M120.72 71.13h11.86v15.74a5.93 5.93 0 1 1-11.86 0V71.13z" fill="url(#c)" fill-rule="nonzero"/><path d="M120.72 71.13h11.86m-11.86 3.23h11.86m-7.07-13.13h2.28a3.27 3.27 0 0 1 3.27 3.27v6.63h-8.82V64.5a3.27 3.27 0 0 1 3.27-3.27z" stroke="#874A3D" stroke-linecap="round"/><path stroke="#874A3D" stroke-linecap="round" d="M124.96 57.21h3.39v4.02h-3.39zm-1.05 0h5.48m-5.48 1.98h5.48m-7.15 7.56s.89-.28 2.71-1c1.82-.72 1.32 1.88 3.39 1a24.47 24.47 0 0 1 2.71-1.08"/><path d="M136.62 1a67.75 67.75 0 0 0-19.09 2.53 193.85 193.85 0 0 0-40.29 0A45.69 45.69 0 0 0 63.75 1c-9.43 0-9.43 18.15 0 18.15h72.88V1h-.01z" fill="#009582" fill-rule="nonzero"/><path d="M58.92 16.93a6.16 6.16 0 0 0 4.82 2.21h72.88v-2.21h-77.7z" fill="#00785F" fill-rule="nonzero" opacity=".5"/><path d="M72.29 19.15S68.53 8.56 77.24 3.54l2.16-.21s-8.52 6-4.28 15.82h-2.83zm38.36 0s-3.77-10.79 4.94-15.81l1.95.2s-8.29 5.75-4.05 15.61h-2.84z" fill="#00685F" fill-rule="nonzero"/><ellipse fill="#007876" fill-rule="nonzero" cx="137.05" cy="10.12" rx="6.63" ry="9.12"/><path d="M137.83 5.11h-6.32a11.64 11.64 0 0 0-1.09 5c0 5 2.89 9 6.48 9.11.18-.07 3.8-1.63 3.8-7.3s-2.87-6.81-2.87-6.81z" fill="#006364" fill-rule="nonzero"/><path d="M137.83 5.11a34.58 34.58 0 0 0-6.32 0 11.64 11.64 0 0 0-1.09 5 11.82 11.82 0 0 0 .85 4.46h5.35c-2.33-5.92-.76-9.23 1.21-9.46z" fill="#007876" fill-rule="nonzero"/><path d="M29.75 80.09c-10.57 0-19.14 8.57-19.14 19.14H48.9a19.14 19.14 0 0 0-19.15-19.14z" fill="#C3F47E" fill-rule="nonzero"/><path d="M155.63 74.36h23v18.48a6.39 6.39 0 0 1-6.39 6.39H162a6.39 6.39 0 0 1-6.39-6.39V74.36h.02z" fill="#E5ECEF" fill-rule="nonzero"/><path d="M153.73 74.36h26.85m-4.71 5.25a7.19 7.19 0 0 1 0 14.38" stroke="#707EA1" stroke-width="2" stroke-linecap="round"/><path d="M161.31 99.23H173" stroke="#79BACE" stroke-width="2" stroke-linecap="round"/><path d="M62.96 19.1h73.93" stroke="#874A3D" stroke-linecap="round"/><path d="M145.89 45.2a2.945 2.945 0 1 1-5.89 0M.63 99.23h208.16" stroke="#C54A3D" stroke-width="2" stroke-linecap="round"/><path fill="#FFF" d="M81.99 29.96h-4.82v8.84h2.25v-6.18h2.57v6.18h2.26v-8.84zm6.02 3.8v-3.78h-2.25v8.85l.77-.63 3.88-3.19v3.82h2.25v-8.87zm13.24-4.15l-4.65 4.08v-3.66h-2.25v8.82l2.95-2.39 1.57 2.39 3.12-.03-2.73-4.02 1.99-1.81z"/></g></svg>