<svg width="246" height="111" viewBox="0 0 246 111" xmlns="http://www.w3.org/2000/svg"><title>1180D5C2-B7EF-4B14-BEFB-427AF13B4DAB</title><g transform="translate(1)" fill="none" fill-rule="evenodd"><rect fill="#CDCDCD" fill-rule="nonzero" x="142.02" y="105.87" width="12.25" height="2.58" rx="1.29"/><rect fill="#CDCDCD" fill-rule="nonzero" x="99.99" y="105.87" width="20.35" height="2.58" rx="1.29"/><rect fill="#CDCDCD" fill-rule="nonzero" x="143.67" y="101.93" width="20.35" height="2.58" rx="1.29"/><path fill="#035B69" fill-rule="nonzero" d="M141.398 24.186l6.004 6.325-14.368 13.638-6.003-6.324z"/><ellipse fill="#035B69" fill-rule="nonzero" transform="rotate(-43.51 130.053 40.99)" cx="130.053" cy="40.99" rx="4.4" ry="4.36"/><path fill="#DFC0A3" fill-rule="nonzero" d="M144.45 51.36l-4.79 4.54-12.8-11.89 6.38-6.06z"/><ellipse fill="#DFC0A3" fill-rule="nonzero" transform="rotate(-43.51 142.062 53.636)" cx="142.062" cy="53.636" rx="3.3" ry="3.27"/><path d="M142.25 22.83h.31a8.38 8.38 0 0 1 8.38 8.38v5.5a4.58 4.58 0 0 1-4.58 4.58h-4.11V22.83zm-16.31-.25h5.45v28.73h-5.45a8.67 8.67 0 0 1-8.67-8.67V31.25a8.67 8.67 0 0 1 8.67-8.67z" fill="#FD5930" fill-rule="nonzero"/><rect fill="#2C596E" fill-rule="nonzero" transform="rotate(-90 145.43 9.38)" x="139.35" y="6.67" width="12.16" height="5.42" rx="2.71"/><path fill="#DFC0A3" fill-rule="nonzero" d="M134.93 17.67h8.76v6.63h-8.76z"/><path d="M139.3 1.09a7.66 7.66 0 0 1 7.7 7.67V15a5.95 5.95 0 0 1-6 6h-1.7a7.66 7.66 0 0 1-7.66-7.66V8.76a7.66 7.66 0 0 1 7.66-7.66v-.01z" fill="#FBD7B7" fill-rule="nonzero"/><path d="M140.71 13.25a1.25 1.25 0 1 0-2.5 0h2.5zm5.16 0a1.25 1.25 0 1 0-2.5 0h2.5z" fill="#035B69" fill-rule="nonzero"/><path d="M139.46 15.46a2.5 2.5 0 1 0 5 0h-5z" fill="#FFF" fill-rule="nonzero"/><path d="M137.16 0h6.49a4.42 4.42 0 1 1 0 8.84h-10.91V4.41A4.42 4.42 0 0 1 137.16 0z" fill="#2C596E" fill-rule="nonzero"/><rect fill="#2C596E" fill-rule="nonzero" transform="rotate(-90 132.795 9.38)" x="126.715" y="6.155" width="12.16" height="6.45" rx="3.22"/><path d="M132.74 13.81a1.65 1.65 0 0 0 1.64 1.66v-3.32a1.65 1.65 0 0 0-1.64 1.66z" fill="#FBD7B7" fill-rule="nonzero"/><path d="M145.36 51.82a6.64 6.64 0 0 1-.7 9.31 6.5 6.5 0 0 1-9.22-.73 6.64 6.64 0 0 1 .7-9.31 6.5 6.5 0 0 1 9.22.73zm16.7 22.41a5.45 5.45 0 1 1-6.44-4.23 5.5 5.5 0 0 1 6.44 4.23zm3.19 26.3a3.27 3.27 0 1 1-3.87-2.56 3.3 3.3 0 0 1 3.87 2.56z" fill="#4C4C4C" fill-rule="nonzero"/><path fill="#4C4C4C" fill-rule="nonzero" d="M160.86 71.77l-8.27 7.15-17.16-18.52 9.93-8.58z"/><path fill="#4C4C4C" fill-rule="nonzero" d="M165.25 100.53l-6.4 1.35-7.46-25.41 10.67-2.24zM140 57.23a6.54 6.54 0 1 1-5.4-7.58 6.55 6.55 0 0 1 5.4 7.58zm-5.5 26.21a5.42 5.42 0 0 1-7.22 2.71 5.54 5.54 0 0 1-2.71-7.29 5.42 5.42 0 0 1 7.22-2.71 5.54 5.54 0 0 1 2.71 7.29zm-12.81 23.08a3.25 3.25 0 0 1-4.33 1.63 3.32 3.32 0 0 1-1.63-4.38 3.25 3.25 0 0 1 4.33-1.63 3.32 3.32 0 0 1 1.63 4.38z"/><path fill="#4C4C4C" fill-rule="nonzero" d="M134.91 82.03l-10.76-1.77 2.97-25.16 12.91 2.13z"/><path fill="#4C4C4C" fill-rule="nonzero" d="M121.69 106.52l-5.96-2.75 8.84-24.92 9.93 4.59z"/><path d="M135 23.1h5.67a8.07 8.07 0 0 1 8.07 8.07v24.94H126.9V31.17a8.07 8.07 0 0 1 8.1-8.07z" fill="#FFAA49" fill-rule="nonzero"/><path d="M136 22.83a4.35 4.35 0 0 0-5.61 2.58l-3.72 10a4.3 4.3 0 0 0 2.51 5.52 4.44 4.44 0 0 0 5.72-2.6l3.66-9.84a4.41 4.41 0 0 0-2.56-5.66z" fill="#FD5930" fill-rule="nonzero"/><path d="M117.42 34.23a2.84 2.84 0 0 0 2.84-2.84v-4a1.86 1.86 0 0 1 1.86-1.86H133l1.63-3h-13a4.36 4.36 0 0 0-4.36 4.36v7.29h.15v.05z" fill="#FD935D" fill-rule="nonzero"/><path d="M153.22 46.19v61.17" stroke="#4C4C4C" stroke-width="2" stroke-linecap="round"/><path fill="#FFC952" fill-rule="nonzero" d="M142.24 44.66l-8.21 2.98-6.87-18.56 8.21-2.98z"/><path d="M135.37 26.1a4.35 4.35 0 0 1-2.58 5.61 4.41 4.41 0 0 1-5.63-2.63 4.35 4.35 0 0 1 2.58-5.61 4.41 4.41 0 0 1 5.63 2.63zm4.95 16.27a4.41 4.41 0 0 1 1.6 6 4.35 4.35 0 0 1-6 1.54 4.41 4.41 0 0 1-1.6-6 4.35 4.35 0 0 1 6-1.54z" fill="#FFC952" fill-rule="nonzero"/><path d="M154.94 52.24l-3.29 5.66-15.71-8 3.53-6.08a1.59 1.59 0 0 1 2.27-.51l13.2 8.93z" fill="#FBD7B7" fill-rule="nonzero"/><ellipse fill="#FBD7B7" fill-rule="nonzero" transform="rotate(-59.36 153.284 55.08)" cx="153.284" cy="55.08" rx="3.3" ry="3.27"/><rect fill="#CDCDCD" fill-rule="nonzero" x="212.52" y="106.29" width="20.35" height="2.58" rx="1.29"/><rect fill="#CDCDCD" fill-rule="nonzero" x="181.03" y="102.35" width="20.35" height="2.58" rx="1.29"/><path fill="#C293B3" fill-rule="nonzero" d="M219.529 29.381l8.67-.934 2.122 19.696-8.67.934z"/><ellipse fill="#E5ECEF" fill-rule="nonzero" transform="rotate(-6.15 223.846 28.919)" cx="223.846" cy="28.919" rx="4.36" ry="4.4"/><ellipse fill="#C293B3" fill-rule="nonzero" transform="rotate(-64.53 225.988 48.62)" cx="225.988" cy="48.62" rx="4.4" ry="4.36"/><path d="M243.14 53.13l-2.84 6-16.22-6.51 2.71-5.69a2.35 2.35 0 0 1 3.27-1l13.08 7.2z" fill="#C293B3" fill-rule="nonzero"/><ellipse fill="#DFC0A3" fill-rule="nonzero" transform="rotate(-64.53 241.728 56.125)" cx="241.728" cy="56.125" rx="3.3" ry="3.27"/><path d="M221.8 24.11h.31a8.38 8.38 0 0 1 8.38 8.38V38a4.58 4.58 0 0 1-4.58 4.58h-4.11V24.11zm-16.31-.24h5.45v28.72h-5.45a8.67 8.67 0 0 1-8.67-8.67V32.54a8.67 8.67 0 0 1 8.67-8.67z" fill="#FD5930" fill-rule="nonzero"/><path d="M222.26 24.38V4.59a5.42 5.42 0 0 1 5.42 5.42v11.66a2.71 2.71 0 0 1-2.71 2.71h-2.71z" fill="#EA8021" fill-rule="nonzero"/><path fill="#DFC0A3" fill-rule="nonzero" d="M214.47 18.96h8.76v6.63h-8.76z"/><path d="M218.85 2.38a7.66 7.66 0 0 1 7.67 7.62v6.29a5.95 5.95 0 0 1-5.95 5.95h-1.72a7.66 7.66 0 0 1-7.66-7.66V10a7.66 7.66 0 0 1 7.66-7.66v.04z" fill="#FBD7B7" fill-rule="nonzero"/><path d="M220.26 14.54a1.25 1.25 0 1 0-2.5 0h2.5zm5.16 0a1.25 1.25 0 1 0-2.5 0h2.5z" fill="#035B69" fill-rule="nonzero"/><path d="M219 16.75a2.5 2.5 0 1 0 5 0h-5z" fill="#FFF" fill-rule="nonzero"/><path d="M216.7 1.27h2.06a8.84 8.84 0 0 1 8.84 8.84h-15.32V5.69a4.42 4.42 0 0 1 4.42-4.42z" fill="#EA8021" fill-rule="nonzero"/><path d="M209.12 20.64V7.81a3.22 3.22 0 0 1 3.23-3.24 3.22 3.22 0 0 1 3.22 3.22v16.08h-3.22a3.22 3.22 0 0 1-3.23-3.23z" fill="#EA8021" fill-rule="nonzero"/><path d="M218.6 54.36a6.64 6.64 0 0 1-2.82 8.9 6.5 6.5 0 0 1-8.78-2.83 6.64 6.64 0 0 1 2.82-8.9 6.5 6.5 0 0 1 8.78 2.83zm10.59 24.31a5.45 5.45 0 1 1-6.64-4 5.5 5.5 0 0 1 6.64 4zm4.4 26.13a3.27 3.27 0 1 1-4-2.38 3.3 3.3 0 0 1 4 2.38z" fill="#4C4C4C" fill-rule="nonzero"/><path fill="#4C4C4C" fill-rule="nonzero" d="M228.8 77.58l-9.77 4.92-12.11-22.16 11.72-5.89z"/><path fill="#4C4C4C" fill-rule="nonzero" d="M233.59 104.8l-6.33 1.64-8.63-25.03 10.56-2.74zm-5.43-46.32a6.54 6.54 0 1 1-5.16-7.74 6.55 6.55 0 0 1 5.16 7.74z"/><path d="M221 85.77a5.42 5.42 0 0 1-7.7.39 5.54 5.54 0 0 1-.37-7.77 5.42 5.42 0 0 1 7.7-.39 5.54 5.54 0 0 1 .37 7.77zm-19.19 18.11a3.25 3.25 0 0 1-4.62.23 3.32 3.32 0 0 1-.22-4.66 3.25 3.25 0 0 1 4.62-.23 3.32 3.32 0 0 1 .22 4.66z" fill="#4C4C4C" fill-rule="nonzero"/><path fill="#4C4C4C" fill-rule="nonzero" d="M222.33 83.12l-10.7-2.08 3.68-25.06 12.85 2.49z"/><path fill="#4C4C4C" fill-rule="nonzero" d="M201.81 103.88l-4.84-4.43 15.97-21.06 8.07 7.38z"/><path d="M214.52 24.38h5.67a8.07 8.07 0 0 1 8.07 8.07V57.4h-21.8V32.45a8.07 8.07 0 0 1 8.06-8.07z" fill="#FFA1B3" fill-rule="nonzero"/><path d="M215.6 24.12a4.35 4.35 0 0 0-5.6 2.58l-5.22 14 4 1.51a4.44 4.44 0 0 0 5.72-2.6l3.66-9.84a4.41 4.41 0 0 0-2.56-5.65z" fill="#FD5930" fill-rule="nonzero"/><path d="M197 35.51a2.84 2.84 0 0 0 2.84-2.84v-4a1.86 1.86 0 0 1 1.86-1.86h10.9l1.63-3h-13a4.36 4.36 0 0 0-4.36 4.36v7.29h.13v.05z" fill="#FD935D" fill-rule="nonzero"/><path fill="#C293B3" fill-rule="nonzero" d="M206.57 48.57l-7.92-3.67 8.21-18 7.92 3.67z"/><path d="M214.78 30.57a4.35 4.35 0 0 1-5.78 2.16 4.41 4.41 0 0 1-2.14-5.84 4.35 4.35 0 0 1 5.78-2.16 4.41 4.41 0 0 1 2.14 5.84zm-7.94 15.08a4.41 4.41 0 0 1-3.16 5.35 4.35 4.35 0 0 1-5.3-3.18 4.41 4.41 0 0 1 3.15-5.35 4.35 4.35 0 0 1 5.31 3.18z" fill="#C293B3" fill-rule="nonzero"/><path d="M210.07 63l-6.34 1.63-5.34-16.79 6-1.56a2.32 2.32 0 0 1 2.86 1.82l2.82 14.9z" fill="#C293B3" fill-rule="nonzero"/><ellipse fill="#FBD7B7" fill-rule="nonzero" transform="rotate(-15.36 206.983 63.803)" cx="206.983" cy="63.803" rx="3.27" ry="3.3"/><path d="M80.42 89.72v19.56" stroke="#707EA1" stroke-width="2" stroke-linecap="round"/><path fill="#2DA1A3" fill-rule="nonzero" d="M80.42 71.06L73.83 98.7H87z"/><path d="M73.84 109.28H87" stroke="#548834" stroke-width="2" stroke-linecap="round"/><path d="M59.24 109.36H15.92v-1.84c0-11.488 9.312-20.8 20.8-20.8h1.76c11.476.022 20.766 9.334 20.76 20.81v1.84-.01z" fill="#8AC134" fill-rule="nonzero"/><path d="M14 100.57a8.79 8.79 0 0 1 8.79 8.79H5.24a8.79 8.79 0 0 1 8.76-8.79z" fill="#C3F47E" fill-rule="nonzero"/><path d="M73.84 109.36H.37" stroke="#548834" stroke-width="2" stroke-linecap="round"/></g></svg>