<svg width="102" height="87" viewBox="0 0 102 87" xmlns="http://www.w3.org/2000/svg"><title>A38FB2BE-9B09-42FD-BFF3-18B1EFBC43CE</title><g fill="none" fill-rule="evenodd"><path d="M13.54 85c.285-14.948 12.484-26.916 27.435-26.916 14.95 0 27.15 11.968 27.435 26.916" fill="#C3F47E" fill-rule="nonzero"/><path d="M33.65 76.59H48.3a4.93 4.93 0 0 1 4.93 4.93V85H28.71v-3.49a4.93 4.93 0 0 1 4.94-4.92z" fill="#FFF" fill-rule="nonzero"/><path d="M80.35 85.01H1.6m35.36-8.42h8.03" stroke="#548834" stroke-width="2" stroke-linecap="round"/><path d="M41 25.64V6.35s6.55-2.92 20.32-2.92.92 14.12 18.86 14.12c17.94 0 21.47 17 21.47 17s-1.86-7.51-21.47-5.41c-18.33 2-5.46-8.1-18.86-8.1-13.4 0-20.32 4.6-20.32 4.6z" fill="#FD5930" fill-rule="nonzero"/><path d="M40.97 76.59V1.5" stroke="#548834" stroke-width="2" stroke-linecap="round"/></g></svg>