<svg width="19" height="11" viewBox="0 0 19 11" xmlns="http://www.w3.org/2000/svg"><title>B532DC77-CD1A-4174-978D-529BD9EB75F6</title><path d="M9.296 10.794h1.136s.343-.038.518-.226c.161-.174.156-.5.156-.5s-.022-1.523.685-1.747c.697-.222 1.593 1.472 2.542 2.123.717.493 1.263.385 1.263.385l2.537-.035s1.327-.082.698-1.126c-.052-.085-.367-.771-1.887-2.182-1.591-1.477-1.378-1.238.539-3.792C18.65 2.138 19.117 1.188 18.97.782c-.14-.388-.998-.286-.998-.286l-2.857.018s-.212-.029-.369.065c-.153.092-.252.307-.252.307s-.452 1.203-1.055 2.227c-1.272 2.16-1.78 2.275-1.989 2.14-.483-.312-.363-1.255-.363-1.926 0-2.093.318-2.966-.618-3.192C10.16.06 9.93.01 9.137.002c-1.02-.01-1.883.004-2.371.243-.325.16-.576.514-.423.534.189.025.616.115.843.424.293.398.283 1.293.283 1.293s.168 2.464-.393 2.77c-.385.21-.914-.219-2.048-2.178-.58-1.004-1.02-2.114-1.02-2.114S3.924.767 3.773.656a1.178 1.178 0 0 0-.44-.177L.62.496S.212.508.062.685c-.133.158-.01.484-.01.484S2.177 6.14 4.583 8.647c2.208 2.298 4.713 2.147 4.713 2.147z" fill="#A1A1A1" fill-rule="evenodd"/></svg>