<svg width="26" height="15" viewBox="0 0 26 15" xmlns="http://www.w3.org/2000/svg"><title>C4994693-85F7-481A-98BA-9C6BF2912375</title><path d="M24.845 11.503c-.566-.67-1.205-1.27-1.823-1.848-.217-.204-.441-.414-.658-.623-.29-.28-.433-.48-.448-.627-.015-.145.085-.36.315-.677.344-.477.71-.955 1.065-1.418.315-.41.64-.836.952-1.263l.07-.096c.61-.834 1.24-1.696 1.577-2.747.096-.302.196-.748-.045-1.139-.241-.392-.69-.508-1.005-.56a2.562 2.562 0 0 0-.436-.029L20.458.472c-.683-.01-1.157.31-1.416.953a22.6 22.6 0 0 1-.733 1.674c-.541 1.09-1.229 2.346-2.225 3.392l-.045.047c-.067.071-.178.188-.235.215-.108-.067-.233-.45-.227-.652v-.015l-.003-4.516a.51.51 0 0 0-.005-.069C15.48.857 15.307.211 14.277.01a.522.522 0 0 0-.1-.01h-4.11c-.774 0-1.183.35-1.51.73-.096.11-.348.405-.22.764.13.364.518.436.645.46.448.084.68.335.751.814.142.93.16 1.925.055 3.13-.03.323-.083.57-.17.774a.592.592 0 0 1-.06.112.603.603 0 0 1-.112-.062c-.315-.213-.552-.544-.782-.865-.916-1.28-1.686-2.693-2.356-4.321C6.032.869 5.514.496 4.85.486a99.51 99.51 0 0 0-3.578.002C.733.498.356.665.15.986c-.207.322-.2.733.022 1.22 1.584 3.486 3.023 6.021 4.664 8.221 1.156 1.55 2.319 2.624 3.66 3.384 1.41.798 3.001 1.19 4.846 1.189.21 0 .423-.005.64-.015 1.137-.052 1.6-.5 1.651-1.596.028-.58.094-1.05.32-1.457.063-.114.135-.19.19-.205.06-.015.167.022.285.097.215.139.401.327.554.492.155.167.31.34.462.508.322.357.656.725 1.004 1.077.79.796 1.7 1.16 2.706 1.084l3.616.002.035-.001c.417-.027.777-.256.989-.627.255-.447.251-1.012-.01-1.514-.274-.522-.628-.97-.94-1.342zm.083 2.377c-.05.087-.111.103-.143.107l-3.627-.002-.043.002c-.714.06-1.322-.19-1.909-.782a30.879 30.879 0 0 1-.974-1.046c-.154-.17-.312-.346-.472-.519a3.938 3.938 0 0 0-.757-.662c-.47-.302-.86-.293-1.104-.232-.242.06-.585.232-.849.708-.341.617-.417 1.281-.447 1.91-.018.384-.084.485-.111.51-.036.035-.156.094-.556.112-1.925.09-3.54-.252-4.938-1.044-1.217-.689-2.282-1.679-3.352-3.114-1.601-2.148-3.01-4.634-4.567-8.063A.866.866 0 0 1 1 1.522a.896.896 0 0 1 .253-.033 98.838 98.838 0 0 1 3.554-.001c.173.002.369.054.517.413.702 1.708 1.512 3.195 2.478 4.545.257.358.576.804 1.045 1.122.43.291.778.277.995.214.217-.063.518-.238.721-.713.131-.307.21-.652.25-1.088.111-1.293.091-2.369-.063-3.383-.109-.727-.488-1.252-1.085-1.52A.82.82 0 0 1 10.056 1h4.07c.228.05.274.11.29.131.065.087.103.292.126.452l.003 4.492c-.009.431.202 1.386.922 1.648a.464.464 0 0 0 .018.006c.655.212 1.089-.246 1.322-.492l.041-.044c1.095-1.15 1.832-2.494 2.408-3.656.3-.6.555-1.22.77-1.755.108-.269.205-.313.44-.308h.009l3.968.004c.092 0 .189 0 .264.013.189.032.267.071.292.087a.814.814 0 0 1-.055.295c-.288.897-.844 1.659-1.433 2.466l-.07.096c-.306.42-.63.841-.942 1.25-.36.47-.732.955-1.085 1.446-.755 1.042-.689 1.734.253 2.643.223.215.45.43.671.636.626.587 1.217 1.14 1.744 1.766.277.33.59.726.818 1.162.119.228.09.434.028.542z" fill="#FD5930"/></svg>