<svg width="29" height="29" viewBox="0 0 29 29" xmlns="http://www.w3.org/2000/svg"><title>1F0782FF-61CE-4648-BDB7-2A34241C691E</title><path d="M4.468.003h20.06c2.469 0 4.47 2 4.47 4.468v20.06A4.47 4.47 0 0 1 24.527 29H4.469C2.001 29 0 27 0 24.532V4.472C0 2.002 2 .001 4.468.001zm16.316 14.39s2.503-3.491 2.752-4.639c.083-.41-.1-.64-.53-.64h-2.173c-.497 0-.68.214-.829.525 0 0-1.174 2.474-2.603 4.033-.458.504-.691.656-.945.656-.204 0-.298-.168-.298-.623V9.72c0-.557-.066-.721-.53-.721h-3.482c-.266 0-.431.153-.431.36 0 .525.812.644.812 2.066v2.935c0 .59-.033.82-.315.82-.746 0-2.52-2.542-3.515-5.427C8.498 9.164 8.283 9 7.72 9H5.547C5.232 9 5 9.213 5 9.524c0 .574.68 3.23 3.35 6.788C10.14 18.705 12.493 20 14.615 20c1.293 0 1.608-.213 1.608-.754V17.41c0-.46.183-.656.448-.656.298 0 .825.095 2.056 1.295C20.187 19.426 20.286 20 21.082 20h2.437c.249 0 .481-.115.481-.525 0-.54-.713-1.508-1.807-2.655-.448-.59-1.177-1.23-1.41-1.525-.33-.344-.232-.541 0-.902z" fill="#FFF" fill-rule="evenodd"/></svg>