<svg width="21" height="15" viewBox="0 0 21 15" xmlns="http://www.w3.org/2000/svg"><title>7C3D33AF-66A8-4CA7-9DA4-E026EE90E6DA</title><g fill="#FD5930" fill-rule="evenodd"><path d="M10.332 1.022c-1.184 0-2.364.007-3.262.02l-2.98.042c-1.551.023-2.875 1.263-2.95 2.765l-.008.17a76.618 76.618 0 0 0 0 6.358l.009.172c.074 1.503 1.399 2.75 2.95 2.778l2.988.055c.908.018 2.106.026 3.303.026 1.198 0 2.394-.008 3.303-.026l2.913-.055c1.528-.028 2.896-1.3 2.987-2.782l.01-.175c.107-1.749.107-4.595 0-6.344l-.01-.173c-.092-1.505-1.431-2.747-2.985-2.769l-2.918-.04c-.921-.015-2.137-.022-3.35-.022m.033 13.41c-1.2 0-2.397-.01-3.307-.026l-2.987-.055C1.97 14.311.178 12.626.076 10.597l-.01-.172a78.062 78.062 0 0 1 0-6.455l.01-.17C.178 1.77 1.97.092 4.074.062L7.054.02C7.95.005 9.126 0 10.308 0c1.226 0 2.458.006 3.389.02l2.919.041c2.1.03 3.909 1.705 4.032 3.732l.01.173c.11 1.783.11 4.681 0 6.463l-.01.176c-.123 2.025-1.931 3.706-4.03 3.746l-2.913.055c-.918.016-2.13.025-3.34.025"/><path d="M9.066 9.013l3.577-1.825-3.577-1.825v3.65zm-.533 1.363a.55.55 0 0 1-.277-.074A.507.507 0 0 1 8 9.865V4.512c0-.177.098-.344.256-.436a.542.542 0 0 1 .527-.016l5.244 2.677a.507.507 0 0 1 .284.452c0 .19-.109.363-.283.45l-5.245 2.678a.55.55 0 0 1-.25.059z"/></g></svg>