<svg xmlns="http://www.w3.org/2000/svg" preserveAspectRatio="none">
  <path fill="#F0F0F0"
        d="M2 95a2 2 0 1 1 0-4 2 2 0 0 1 0 4zm0 56a2 2 0 1 1 0-4 2 2 0 0 1 0 4zM2 39a2 2 0 1 1 0-4 2 2 0 0 1 0 4zm0 140a2 2 0 1 1 0-4 2 2 0 0 1 0 4zM2 67a2 2 0 1 1 0-4 2 2 0 0 1 0 4zm0 56a2 2 0 1 1 0-4 2 2 0 0 1 0 4zM2 11a2 2 0 1 1 0-4 2 2 0 0 1 0 4zm0 182a2 2 0 1 1 0-4 2 2 0 0 1 0 4zM2 81a2 2 0 1 1 0-4 2 2 0 0 1 0 4zm0 56a2 2 0 1 1 0-4 2 2 0 0 1 0 4zM2 25a2 2 0 1 1 0-4 2 2 0 0 1 0 4zm0 140a2 2 0 1 1 0-4 2 2 0 0 1 0 4zM2 53a2 2 0 1 1 0-4 2 2 0 0 1 0 4zm0 56a2 2 0 1 1 0-4 2 2 0 0 1 0 4zm0-7a2 2 0 1 1 0-4 2 2 0 0 1 0 4zm0 56a2 2 0 1 1 0-4 2 2 0 0 1 0 4zM2 46a2 2 0 1 1 0-4 2 2 0 0 1 0 4zm0 140a2 2 0 1 1 0-4 2 2 0 0 1 0 4zM2 74a2 2 0 1 1 0-4 2 2 0 0 1 0 4zm0 56a2 2 0 1 1 0-4 2 2 0 0 1 0 4zM2 18a2 2 0 1 1 0-4 2 2 0 0 1 0 4zm0 70a2 2 0 1 1 0-4 2 2 0 0 1 0 4zm0 56a2 2 0 1 1 0-4 2 2 0 0 1 0 4zM2 32a2 2 0 1 1 0-4 2 2 0 0 1 0 4zm0 140a2 2 0 1 1 0-4 2 2 0 0 1 0 4zM2 60a2 2 0 1 1 0-4 2 2 0 0 1 0 4zm0 56a2 2 0 1 1 0-4 2 2 0 0 1 0 4zM2 4a2 2 0 1 1 0-4 2 2 0 0 1 0 4z"/>
</svg>
