<?xml version="1.0" encoding="UTF-8" standalone="no"?>
<svg
   xmlns:dc="http://purl.org/dc/elements/1.1/"
   xmlns:cc="http://creativecommons.org/ns#"
   xmlns:rdf="http://www.w3.org/1999/02/22-rdf-syntax-ns#"
   xmlns:svg="http://www.w3.org/2000/svg"
   xmlns="http://www.w3.org/2000/svg"
   xmlns:xlink="http://www.w3.org/1999/xlink"
   height="22.328001"
   width="36.815434"
   xml:space="preserve"
   viewBox="0 0 36.815434 22.328001"
   y="0px"
   x="0px"
   id="Слой_1"
   version="1.1"><metadata
     id="metadata4173"><rdf:RDF><cc:Work
         rdf:about=""><dc:format>image/svg+xml</dc:format><dc:type
           rdf:resource="http://purl.org/dc/dcmitype/StillImage" /><dc:title></dc:title></cc:Work></rdf:RDF></metadata><defs
     id="defs4171" /><g
     transform="translate(-287.084,-385.10001)"
     id="g4157"><g
       id="g4159"><defs
         id="defs4161"><rect
           height="22.799999"
           width="37"
           y="385.10001"
           x="286.89999"
           id="SVGID_1_" /></defs><clipPath
         id="SVGID_2_"><use
           height="100%"
           width="100%"
           y="0"
           x="0"
           id="use4165"
           style="overflow:visible"
           xlink:href="#SVGID_1_" /></clipPath><path
         clip-path="url(#SVGID_2_)"
         id="path4167"
         fill="#939393" d="m 287.084,389.662 c 0,-1.128 0.418,-2.261 1.254,-3.144 1.738,-1.824 4.625,-1.898 6.453,-0.164 l 10.734,10.207 10.66,-10.195 c 1.821,-1.743 4.707,-1.68 6.45,0.144 1.742,1.82 1.675,4.707 -0.145,6.449 l -13.801,13.203 c -1.762,1.684 -4.531,1.688 -6.297,0.012 l -13.89,-13.203 c -0.942,-0.898 -1.418,-2.101 -1.418,-3.309 l 0,0 z m 0,0"
          /></g></g></svg>