<svg xmlns="http://www.w3.org/2000/svg" xmlns:xlink="http://www.w3.org/1999/xlink" viewBox="0 0 222.76527 213.42934"><g transform="translate(-194 -290)"><defs><path d="M194 290h222.96001v214H194z"/></defs><clipPath id="b"><use width="100%" height="100%" xlink:href="#a" overflow="visible"/></clipPath><path fill="#fecc00" d="M415.984 370.356c-1.882-5.793-6.89-10.016-12.918-10.891l-57.582-8.367-25.754-52.18c-2.695-5.461-8.257-8.918-14.347-8.918s-11.653 3.457-14.348 8.918l-25.754 52.18-57.582 8.367c-6.027.875-11.031 5.098-12.914 10.891-1.883 5.793-.312 12.148 4.047 16.402l41.668 40.613-9.836 57.352c-1.027 6.004 1.438 12.07 6.367 15.648 4.926 3.583 11.457 4.055 16.848 1.219l51.504-27.078 51.504 27.078c2.343 1.231 4.898 1.836 7.445 1.836 3.316 0 6.617-1.027 9.406-3.055 4.926-3.578 7.395-9.644 6.364-15.648l-9.836-57.352 41.668-40.613c4.363-4.254 5.929-10.613 4.05-16.402zm-74.078 39.973c-3.769 3.675-5.492 8.972-4.601 14.16l5.777 33.687-30.254-15.902c-2.328-1.227-4.887-1.84-7.445-1.84-2.559 0-5.113.613-7.445 1.84l-30.254 15.906 5.777-33.687c.891-5.192-.828-10.489-4.602-14.164l-24.476-23.856 33.824-4.918c5.215-.758 9.719-4.031 12.047-8.75l15.129-30.652 15.129 30.652c2.328 4.719 6.832 7.992 12.047 8.75l33.824 4.918-24.477 23.856zm0 0" /></g></svg>