<?xml version="1.0" standalone="no"?>
<!DOCTYPE svg PUBLIC "-//W3C//DTD SVG 20010904//EN"
 "http://www.w3.org/TR/2001/REC-SVG-20010904/DTD/svg10.dtd">
<svg version="1.0" xmlns="http://www.w3.org/2000/svg"
 width="384.000000pt" height="384.000000pt" viewBox="0 0 384.000000 384.000000"
 preserveAspectRatio="xMidYMid meet">
<metadata>
Created by potrace 1.11, written by Peter Selinger 2001-2013
</metadata>
<g transform="translate(0.000000,384.000000) scale(0.100000,-0.100000)"
fill="#000000" stroke="none">
<path d="M1097 2784 c-4 -4 -7 -389 -7 -856 l0 -848 865 0 865 0 0 855 0 855
-172 -2 -173 -3 -3 -707 -2 -708 -165 0 -165 0 -2 708 -3 707 -172 3 -173 2 0
-710 0 -710 -170 0 -170 0 -2 708 -3 707 -171 3 c-93 1 -173 -1 -177 -4z"/>
</g>
</svg>
