<svg xmlns="http://www.w3.org/2000/svg" xmlns:xlink="http://www.w3.org/1999/xlink" width="159" height="235" viewBox="0 0 159 235"><defs><path id="aafna" d="M334.5 2656c43.9 0 79.5 35.56 79.5 79.44 0 43.87-35.6 79.43-79.5 79.43s-79.5-35.56-79.5-79.43c0-43.88 35.6-79.44 79.5-79.44z"/><path id="aafnb" d="M334.5 2670.9c35.67 0 64.6 28.89 64.6 64.54a64.57 64.57 0 0 1-64.6 64.54 64.57 64.57 0 0 1-64.6-64.54 64.57 64.57 0 0 1 64.6-64.55z"/><path id="aafnc" d="M334.5 2685.79a49.67 49.67 0 0 1 49.69 49.65 49.67 49.67 0 0 1-49.69 49.64 49.67 49.67 0 0 1-49.69-49.64 49.67 49.67 0 0 1 49.69-49.65z"/><path id="aafnd" d="M234 2836v-201h201v201zm21-100.56c0 43.87 35.6 79.43 79.5 79.43s79.5-35.56 79.5-79.43c0-43.88-35.6-79.44-79.5-79.44s-79.5 35.56-79.5 79.44z"/><path id="aafng" d="M248 2821v-172h173v172zm21.9-85.56a64.57 64.57 0 0 0 64.6 64.54c35.67 0 64.6-28.9 64.6-64.54a64.57 64.57 0 0 0-64.6-64.55 64.57 64.57 0 0 0-64.6 64.55z"/><path id="aafnj" d="M263 2807v-143h143v143zm21.81-71.56a49.67 49.67 0 0 0 49.69 49.64 49.67 49.67 0 0 0 49.69-49.64 49.67 49.67 0 0 0-49.69-49.65 49.67 49.67 0 0 0-49.69 49.65z"/><path id="aafnm" d="M334.5 2731.94a3.5 3.5 0 1 1 0 7 3.5 3.5 0 0 1 0-7z"/><path id="aafnn" d="M334.5 2883.82a3.5 3.5 0 1 1 0 7 3.5 3.5 0 0 1 0-7z"/><path id="aafno" d="M334 2738.93h1v151.88h-1z"/><filter id="aafne" width="200%" height="200%" x="-50%" y="-50%"><feGaussianBlur in="SourceGraphic" result="FeGaussianBlur1018Out" stdDeviation="10.5 10.5"/></filter><mask id="aafnf"><use fill="#fff" xlink:href="#aafna"/></mask><filter id="aafnh" width="200%" height="200%" x="-50%" y="-50%"><feGaussianBlur in="SourceGraphic" result="FeGaussianBlur1028Out" stdDeviation="10.5 10.5"/></filter><mask id="aafni"><use fill="#fff" xlink:href="#aafnb"/></mask><filter id="aafnk" width="200%" height="200%" x="-50%" y="-50%"><feGaussianBlur in="SourceGraphic" result="FeGaussianBlur1038Out" stdDeviation="10.5 10.5"/></filter><mask id="aafnl"><use fill="#fff" xlink:href="#aafnc"/></mask></defs><g><g transform="translate(-255 -2656)"><use fill="#192a31" xlink:href="#aafna"/><use fill="#66828d" fill-opacity=".75" stroke="#66828d" stroke-opacity=".75" stroke-width="0" filter="url(#aafne)" mask="url(&quot;#aafnf&quot;)" xlink:href="#aafnd"/></g><g transform="translate(-255 -2656)"><use fill="#192a31" xlink:href="#aafnb"/><use fill="#66828d" fill-opacity=".75" stroke="#66828d" stroke-opacity=".75" stroke-width="0" filter="url(#aafnh)" mask="url(&quot;#aafni&quot;)" xlink:href="#aafng"/></g><g transform="translate(-255 -2656)"><use fill="#192a31" xlink:href="#aafnc"/><use fill="#66828d" fill-opacity=".75" stroke="#66828d" stroke-opacity=".75" stroke-width="0" filter="url(#aafnk)" mask="url(&quot;#aafnl&quot;)" xlink:href="#aafnj"/></g><g transform="translate(-255 -2656)"><use fill="#fff" xlink:href="#aafnm"/></g><g transform="translate(-255 -2656)"><use fill="#fff" xlink:href="#aafnn"/></g><g transform="translate(-255 -2656)"><use fill="#fff" xlink:href="#aafno"/></g></g></svg>