<svg xmlns="http://www.w3.org/2000/svg" xmlns:xlink="http://www.w3.org/1999/xlink" width="100" height="100" viewBox="0 0 100 100"><defs><path id="m38sa" d="M1103.64 9302.37h44.26v40.99h-44.26z"/><path id="m38sb" d="M1202 9246.67V9290c0 .92-.72 2.54-1.64 2.54h-80.33c-.92 0-1.64-.72-1.64-1.64v-44.26c0-.92 1.02-1.64 1.94-1.64h80c.92 0 1.67.75 1.67 1.67zm-3.28 1.6h-77.05v41h77.05zm-3.28 27.88c0 .44-.28 1.38-.6 1.7-.3.3-.73.48-1.17.48a5 5 0 0 0-5 5c0 .92-.5 2.65-1.42 2.65h-54.1c-.44 0-.35-1.16-.66-1.47a1.66 1.66 0 0 1-.49-1.18 5 5 0 0 0-5-5c-.92 0-2.05-1.26-2.05-2.18v-16.4c0-.44.56-.62.87-.93.31-.31.74-.49 1.18-.49a5 5 0 0 0 5-5c0-.92.23-1.77 1.15-1.77h54.1c.92 0 1.42.85 1.42 1.77a5 5 0 0 0 5 5c.91 0 1.77.5 1.77 1.42zm-3.28-14.76a8.43 8.43 0 0 1-6.66-6.4h-50.34a8.36 8.36 0 0 1-6.5 6.5l-.43-.1v14.76a8.5 8.5 0 0 1 6.56 6.55h50.82a8.5 8.5 0 0 1 6.55-6.55zm-21.83 6.94a10.01 10.01 0 0 1-20 0 10.01 10.01 0 0 1 20 0zm-3.33 0a6.67 6.67 0 1 0-13.35.02 6.67 6.67 0 0 0 13.35-.02zm-55.15-3.64h3.28v3.28h-3.28zm-6.57 0h3.28v3.28h-3.28zm0 6.51h3.28v3.29h-3.28zm0 6.57h3.28v3.28h-3.28zm0 6.56h3.28v3.28h-3.28zm0 6.57h3.28v3.28h-3.28zm86.87 11.48h3.29v3.28h-3.29zm0-6.56h3.29v3.28h-3.29zm0 13.13h3.29v3.28h-3.29zm0 6.56h3.29v3.28h-3.29zm0 6.51h3.29v3.29h-3.29zm0 6.57h3.29v3.28h-3.29zm-6.56 0h3.28v3.28h-3.28zm-6.56 0h3.28v3.28h-3.28zm-6.52 0h3.28v3.28h-3.28zm-6.56 0h3.28v3.28h-3.28zm-29.51-62.28h3.28v3.28h-3.28zm44.25 0h3.28v3.28h-3.28zm-21.31 62.3h3.28v3.27h-3.28zm-8.2-27.76V9345H1102v-44.2h12.8c.4-1.9 2.11-3.34 4.16-3.34a4.21 4.21 0 0 1 4.24 4.17c0 2.3-1.9 4.17-4.24 4.17a.84.84 0 0 1-.85-.84c0-.46.38-.83.85-.83 1.4 0 2.54-1.12 2.54-2.5s-1.14-2.5-2.54-2.5c-1.1 0-2.04.7-2.39 1.66h1.54c.47 0 .85.38.85.84 0 .46-.38.83-.85.83h-2.54l-10.18 1.79-.11 4.68h42.62l-.11-4.68-10.18-1.7c-.4 1.9-1.34 3.25-3.39 3.25a.84.84 0 0 1-.85-.84c0-.46.38-.83.85-.83 1.4 0 2.55-1.12 2.55-2.5s-1.15-2.5-2.55-2.5a.84.84 0 0 1-.85-.84c0-.46.38-.83.85-.83a4.23 4.23 0 0 1 4.16 3.33zm-3.28 11.36h-42.62v29.51h42.62zm-24.7-13.92c0-.46.38-.83.85-.83a4.21 4.21 0 0 1 4.24 4.17c0 2.3-1.9 4.17-4.24 4.17a.84.84 0 0 1-.85-.84c0-.46.38-.83.85-.83 1.4 0 2.54-1.12 2.54-2.5s-1.14-2.5-2.54-2.5a.84.84 0 0 1-.85-.84zm5.09 0c0-.46.37-.83.84-.83a4.21 4.21 0 0 1 4.24 4.17c0 2.3-1.9 4.17-4.24 4.17a.84.84 0 0 1-.84-.84c0-.46.37-.83.84-.83 1.4 0 2.55-1.12 2.55-2.5s-1.14-2.5-2.55-2.5a.84.84 0 0 1-.84-.84zm-19.73 20.48h3.28v3.28h-3.28zm6.55 0h3.28v3.28h-3.28zm6.56 0h3.28v3.28h-3.28zm6.56 0h3.28v3.28h-3.28zm6.56 0h3.28v3.28h-3.28zm6.55 0h3.28v3.28h-3.28zm-32.78 6.56h3.28v3.28h-3.28zm6.55 0h3.28v3.28h-3.28zm6.56 0h3.28v3.28h-3.28zm6.56 0h3.28v3.28h-3.28zm6.56 0h3.28v3.28h-3.28zm6.55 0h3.28v3.28h-3.28zm-32.78 6.55h3.28v3.28h-3.28zm6.55 0h3.28v3.28h-3.28zm6.56 0h3.28v3.28h-3.28zm6.56 0h3.28v3.28h-3.28zm57.38-9.83h3.28v3.28h-3.28zm-6.56 0h3.28v3.28h-3.28zm6.56-6.56h3.28v3.28h-3.28zm-13.12 6.56h3.28v3.28h-3.28zm13.12-13.12h3.28v3.28h-3.28zm-6.56 6.56h3.28v3.28h-3.28z"/></defs><g><g transform="translate(-1102 -9245)"><use fill="#eeb900" xlink:href="#m38sa"/></g><g transform="translate(-1102 -9245)"><use fill="#5e91a6" xlink:href="#m38sb"/></g></g></svg>