<svg xmlns="http://www.w3.org/2000/svg" xmlns:xlink="http://www.w3.org/1999/xlink" width="97" height="100" viewBox="0 0 97 100"><defs><path id="bzy4a" d="M937.08 9249.76h68.84v36.5h-68.84z"/><path id="bzy4b" d="M1020 9290.87l-1.62 19.82c-.03.39-.2.75-.47 1.02l-19.81 19v4.76h3.13c.89 0 1.56.69 1.56 1.6v6.34c0 .9-.67 1.59-1.56 1.59h-26.6c-.9 0-1.52-.74-1.52-1.64l-.05-6.3v-19.05c0-.43.22-1.75.53-2.05l16.6-16.84a5.68 5.68 0 0 1 9.38 1.95 5.88 5.88 0 0 1-.92 5.89l-4.3 5.23h5.58l8.83-8.96 1.54-12.47a4.89 4.89 0 0 1 4.85-4.8 4.9 4.9 0 0 1 4.85 4.91zm-20.34 47.78H976.2v3.17h23.47zm17.11-47.91c0-.77-.73-1.5-1.62-1.5-.9 0-1.62.73-1.62 1.63l-.01.2-1.62 13.13c-.04.36-.2.7-.46.95l-9.7 9.84c-.3.31-.71.48-1.14.48h-9.7c-.63 0-1.2-.36-1.47-.94a1.66 1.66 0 0 1 .23-1.75l6.5-7.92c.6-.72.75-1.7.4-2.57a2.47 2.47 0 0 0-1.81-1.55 2.44 2.44 0 0 0-2.28.7L976.2 9318v17.46h18.78v-4.76c0-.43.95-1.33 1.25-1.63l18.98-19.26zm-46.83 25.69v20.63l-.06 6.3c0 .9-.72 1.64-1.62 1.64H942.4c-.89 0-2.18-.68-2.18-1.59v-6.35c0-.9 1.3-1.9 2.18-1.9l2.51.31v-4.76l-19.82-19a1.65 1.65 0 0 1-.46-1.02l-1.62-19.68a4.92 4.92 0 0 1 4.84-5.06 4.89 4.89 0 0 1 4.85 4.81l1.54 12.47 8.83 8.96h5.58l-4.3-5.23a5.88 5.88 0 0 1-.92-5.89 5.75 5.75 0 0 1 4.18-3.54c1.9-.4 3.84.2 5.2 1.58l16.6 16.85c.31.3.54.03.54.47zm-3.13 22.22h-23.47v3.17h23.47zm-.16-20.86l-16.13-16.36a2.48 2.48 0 0 0-4.1.85c-.34.87-.18 1.86.4 2.58l6.52 7.92c.4.5.49 1.17.22 1.75-.27.58-.84.94-1.46.94h-9.7a1.6 1.6 0 0 1-1.15-.48l-9.7-9.84c-.25-.25-.42-.6-.46-.95l-1.62-13.13a1.42 1.42 0 0 1 0-.2c0-.9-.74-1.64-1.63-1.64-.89 0-1.61.74-1.61 1.64l1.56 18.95 18.98 19.26c.3.3 1.26 1.2 1.26 1.63v4.76h18.78zm47.08-41.04h3.13v3.19h-3.13zm-87.6 0h3.13v3.19h-3.13zm0-6.35h3.13v3.17h-3.13zm0-6.35h3.13v3.17h-3.13zm0-6.35h3.13v3.17h-3.13zm0-6.35h3.13v3.17h-3.13zm0-6.35h3.13v3.17h-3.13zm87.61 25.4h3.13v3.17h-3.13zm0-6.35h3.13v3.17h-3.13zm0-6.35h3.13v3.17h-3.13zm0-6.35h3.13v3.17h-3.13zm0-6.35h3.13v3.17h-3.13zm-51.63 85.71h3.13v3.18h-3.13zm0-6.35h3.13v3.18h-3.13zm-6.26 6.35h3.13v3.18h-3.13zm21.9 0h3.14v3.18h-3.13zm0-6.35h3.14v3.18h-3.13zm6.27 6.35h3.13v3.18h-3.13zm21.9-81.18v35.38c0 .75-.62 1.36-1.38 1.36h-66.08c-.76 0-1.38-.61-1.38-1.36v-35.38c0-.75.62-1.36 1.38-1.36h66.08c.76 0 1.38.61 1.38 1.36zm-3.13 1.82h-62.58v31.74h62.58zm-1.56 22.22c0 .36-.96 1.16-1.22 1.42-.26.25-.61.4-.97.4a4.11 4.11 0 0 0-4.13 4.08c0 .75-.75 2.04-1.5 2.04H949.6c-.37 0-.84-.83-1.1-1.08-.26-.26-.4-.6-.4-.96a4.11 4.11 0 0 0-4.14-4.09c-.76 0-2.19-1.06-2.19-1.81v-12.7c0-.36.96-1.16 1.22-1.41.26-.26.61-.4.97-.4a4.11 4.11 0 0 0 4.13-4.08c0-.76.75-2.05 1.5-2.05h43.81c.76 0 1.5 1.3 1.5 2.05a4.11 4.11 0 0 0 4.13 4.08c.76 0 2.2 1.06 2.2 1.81zm-3.13-12.7c-2.7-.54-5.71-2.1-6.26-4.76h-40.68c-.55 2.66-3.56 4.22-6.26 4.76v12.7c2.7.54 5.71 2.1 6.26 4.76h42.24c.55-2.66 2-4.22 4.7-4.76zm-18.34 6.35c0 4.5-3.7 8.16-8.26 8.16a8.22 8.22 0 0 1-8.26-8.16c0-4.5 3.7-8.16 8.26-8.16a8.22 8.22 0 0 1 8.26 8.16zm-2.75 0c0-3-2.47-5.44-5.51-5.44a5.48 5.48 0 0 0-5.5 5.44c0 3 2.46 5.44 5.5 5.44s5.5-2.44 5.5-5.44zm-24.3-3.2h3.15v3.23h-3.15zm34.43 0h3.15v3.23h-3.15z"/></defs><g><g transform="translate(-923 -9245)"><use fill="#eeb900" xlink:href="#bzy4a"/></g><g transform="translate(-923 -9245)"><use fill="#5e91a6" xlink:href="#bzy4b"/></g></g></svg>