<svg xmlns="http://www.w3.org/2000/svg" xmlns:xlink="http://www.w3.org/1999/xlink" width="100" height="100" viewBox="0 0 100 100"><defs><path id="260xa" d="M942.31 9454.95s24.38.67 40.99-3.28c11.49-2.74 18.53-8.5 22.95-11.48 2.41-1.62 4.91-1.63 4.91-1.63v57.37s-3.73 1.04-5.74-.76c-4.82-4.34-13.84-10-22.12-12.35-19.94-5.67-40.99-4.92-40.99-4.92z"/><path id="260xb" d="M947.23 9479.54h13.11v29.5h-13.11z"/><path id="260xc" d="M957.07 9500.85h6.55v6.56h-6.55z"/><path id="260xd" d="M1012.8 9458.23l6.56 4.92-1.64 13.11h-4.92z"/><path id="260xe" d="M943.94 9522.17h16.38v3.27h-16.38zm77.06-54.69c0 4.6-2.62 9.77-6.56 12.06v13.11c0 3.56-2.79 5.48-6.34 5.48a6.44 6.44 0 0 1-6.37-5.58c-1.65-1.18-8.33-5.84-20.07-8.1v39.35c0 4.45-2.99 8.2-7.43 8.2h-45.17a8.07 8.07 0 0 1-8.06-8.07v-83.87a8.07 8.07 0 0 1 8.06-8.06h45.17c4.44 0 7.43 3.75 7.43 8.2v9.83c11.74-2.25 18.42-6.44 20.07-7.61a6.44 6.44 0 0 1 6.37-5.58c3.55 0 6.34 3.08 6.34 6.63v13.12c3.94 2.3 6.56 6.3 6.56 10.9zm-96.72-25.64h54.1v-1.65c0-2.66-1.49-4.97-4.15-4.97h-45.17a4.85 4.85 0 0 0-4.83 4.84zm54.1 77.04h-54.1l-.05 5.05a4.84 4.84 0 0 0 4.83 4.84h45.17c2.66 0 4.15-2.3 4.15-4.97zm0-36.06c-4.81-2.14-8.58-1.64-14.76-1.64h-1.64v18.03c0 .83-.13 1.16.66 1.42 2.1.7 3.52 2.66 3.52 4.89v.36c0 2.84-2.98 4.8-5.82 4.8h-9.83a4.77 4.77 0 0 1-4.92-4.91v-24.6c-3.68-.74-6.56-2.66-6.56-6.55v-14.75a8.3 8.3 0 0 1 8.2-8.2h13.11l2.6-.32c6.17 0 10.84-.62 15.44-1.32v-4.92h-54.1v70.5h54.1zm-19.68 16.4v-18.04h-9.83v24.59c0 1.06.58 1.64 1.64 1.64h9.83c1.07 0 2.6-.47 2.6-1.53v-.36c0-.83-.53-1.57-1.32-1.83-2.1-.7-2.92-2.26-2.92-4.48zm1.64-21.32v-22.95h-13.11a4.98 4.98 0 0 0-4.92 4.92v14.75c0 2.67 2.25 3.28 4.92 3.28zm40.99-31.15c-4.79 2.83-16.92 7.94-37.7 8.2v22.95c20.78.25 32.91 8.64 37.7 11.47zm9.83-3.28c0-1.77-1.28-3.4-3.06-3.4s-3.5 1.63-3.5 3.4v49.18c0 1.78 1.72 2.25 3.5 2.25s3.06-2.1 3.06-3.89zm6.61 24.01a9.71 9.71 0 0 0-3.22-7.19l-.1 14.33a9.7 9.7 0 0 0 3.32-7.14zm-72.17-9.24h13.11v3.28h-13.1zm0 6.55h13.11v3.28h-13.1zm0 6.56h13.11v3.28h-13.1zm4.9-34.43h3.29v3.27h-3.28zm32.8 91.8h3.27v3.28h-3.27zm6.55 0h3.28v3.28h-3.28zm6.56 0h3.28v3.28h-3.28zm6.56 0h3.28v3.28h-3.28zm6.55 0h3.28v3.28h-3.28zm3.28-26.23v3.28h-3.28v-3.28zm0 6.56v3.28h-3.28v-3.28zm0 6.56v3.27h-3.28v-3.27zm0 6.55v3.28h-3.28v-3.28zm-22.95 0h3.28v3.28h-3.28zm6.56 0h3.28v3.28h-3.28zm6.56 0h3.28v3.28h-3.28zm-6.56-6.55h3.28v3.27h-3.28zm6.56 0h3.28v3.27h-3.28zm0-6.56h3.28v3.28h-3.28z"/></defs><g><g transform="translate(-921 -9432)"><use fill="#eeb900" xlink:href="#260xa"/></g><g transform="translate(-921 -9432)"><use fill="#eeb900" xlink:href="#260xb"/></g><g transform="translate(-921 -9432)"><use fill="#eeb900" xlink:href="#260xc"/></g><g transform="translate(-921 -9432)"><use fill="#eeb900" xlink:href="#260xd"/></g><g transform="translate(-921 -9432)"><use fill="#5e91a6" xlink:href="#260xe"/></g></g></svg>