<svg xmlns="http://www.w3.org/2000/svg" width="27" height="28.1" viewBox="0 0 27 28.1">
  <defs>
    <style>
      .cls-1 {
        fill: #5e91a6;
        fill-rule: evenodd;
      }
    </style>
  </defs>
  <path id="Прямоугольник_39" data-name="Прямоугольник 39" class="cls-1" d="M487.233,10176a2.586,2.586,0,0,0-1.237,0v-2c0-.3.244,0,0,0h-3a2.924,2.924,0,0,0,.27-1.2,1.764,1.764,0,1,0-3.527,0,2.938,2.938,0,0,0,.257,1.2h-3c-0.243,0,0,.7,0,1v2a4.568,4.568,0,0,0-1.224-1,1.869,1.869,0,0,0-1.764,1.9,1.779,1.779,0,0,0,1.764,1.8,3.415,3.415,0,0,0,1.224-.7v3c0,0.3-.145,0,0.1,0h8.817c0.243,0,.085-0.7.085-1v-2a3.474,3.474,0,0,0,1.237.7,1.779,1.779,0,0,0,1.764-1.8A1.869,1.869,0,0,0,487.233,10176Zm0,2.8a0.844,0.844,0,0,1-.652-0.3,0.476,0.476,0,0,0-.327-0.2h-0.343a1.217,1.217,0,0,0-.915.7v2h-7v-2a1.2,1.2,0,0,0-.9-0.7h-0.343a0.476,0.476,0,0,0-.327.2,0.844,0.844,0,0,1-.652.3,0.9,0.9,0,0,1,0-1.8,0.844,0.844,0,0,1,.652.3,0.381,0.381,0,0,0,.327.1h0.343a0.935,0.935,0,0,0,.9-0.4v-2h3c0.244,0,.066-0.5.066-0.8v-0.3a0.514,0.514,0,0,0-.146-0.4,0.939,0.939,0,0,1-.3-0.7,0.882,0.882,0,1,1,1.763,0,0.939,0.939,0,0,1-.3.7,0.514,0.514,0,0,0-.146.4v0.3c0,0.3-.19.8,0.053,0.8h3v2a0.957,0.957,0,0,0,.915.4h0.343a0.383,0.383,0,0,0,.327-0.1,0.844,0.844,0,0,1,.652-0.3A0.9,0.9,0,0,1,487.233,10178.8ZM488,10154H463a1.79,1.79,0,0,0-1,1v13a2.159,2.159,0,0,0,1,1h8c-0.018,0,0-.8,0-1v-2c0-.2.249-0.8,0-0.8h-0.35a0.49,0.49,0,0,0-.334.2,0.868,0.868,0,0,1-.666.3,0.9,0.9,0,0,1,0-1.8,0.868,0.868,0,0,1,.666.3,0.4,0.4,0,0,0,.334.1H471c0.249,0,0-.1,0-0.3v-2h4c0.249,0,.05-0.6.05-0.8v-0.4a0.455,0.455,0,0,0-.148-0.3,0.927,0.927,0,0,1-.3-0.7,0.9,0.9,0,0,1,1.8,0,0.93,0.93,0,0,1-.3.7,0.452,0.452,0,0,0-.149.3v0.4c0,0.2-.2.8,0.05,0.8h4v2c0,0.2-.248.3,0,0.3h0.35a0.4,0.4,0,0,0,.335-0.1,0.868,0.868,0,0,1,.665-0.3,0.9,0.9,0,1,1,0,1.8,0.868,0.868,0,0,1-.665-0.3,0.49,0.49,0,0,0-.335-0.2H480c-0.248,0,0,.6,0,0.8v3c0,0.2-.248,0,0,0h8a2.161,2.161,0,0,0,1-1v-13A1.791,1.791,0,0,0,488,10154Zm0,14h-7v-1c0.272,0.2.033-.4,0.35-0.4a1.8,1.8,0,0,0,0-3.6c-0.317,0-.078-0.2-0.35,0v-2a3.3,3.3,0,0,0-1,0h-3a2.887,2.887,0,0,0,.3-1.2,1.8,1.8,0,0,0-3.6,0,2.887,2.887,0,0,0,.3,1.2h-3a2.581,2.581,0,0,0-1.017.1c0.017-.1.017,1.9,0.017,1.9-0.272-.2-0.032,0-0.35,0a1.8,1.8,0,1,0,0,3.6c0.318,0,.078.6,0.35,0.4v1h-7v-13h25v13Zm-12-5a0.908,0.908,0,0,0-1,0l-1,1v1l1-1v4h1v-4l1,1v-1Zm-0.993,6H476v1H475v-1Zm0,2H476v1H475v-1Zm0,2H476v1H475v-1Zm-10.994-3h0.978v0.9h-0.978v-0.9Zm0,2h0.978v1h-0.978v-1Zm0,2h0.978v1h-0.978v-1Zm0,2h0.978v1h-0.978v-1Zm0,2h0.978v1h-0.978v-1Zm1.991,0h1.012v1H466v-1Zm1.99,0H469v1H467.99v-1Zm1.989,0h1.013v1h-1.013v-1Zm2.026,0h0.978v1h-0.978v-1ZM464,10156h1v1h-1v-1Zm2,0h1v1h-1v-1Zm2,0h1v1h-1v-1Zm18,6h1v1h-1v-1Zm0,2h1v1h-1v-1Zm0,2h1v1h-1v-1Z" transform="translate(-462 -10154)"/>
</svg>
