<svg xmlns="http://www.w3.org/2000/svg" xmlns:xlink="http://www.w3.org/1999/xlink" width="100" height="100" viewBox="0 0 100 100"><defs><path id="82o3a" d="M233.67 9309h56.66v33.33h-56.66z"/><path id="82o3b" d="M228.67 9292.33h65v18.33h-65z"/><path id="82o3c" d="M200.33 9340.67h23.34v3.33h-25c-1 0-1.67-.67-1.67-1.67v-80c0-.17.17-.33.17-.5v-.16c.16-.17.16-.34.33-.5l16.67-16.67c.16-.17.33-.17.5-.34h.16c.17-.16.34-.16.5-.16h58.34c1 0 1.66.67 1.66 1.67V9274H272v-26.67h-55v15c0 1-.67 1.67-1.67 1.67h-15zm13.34-80v-11l-5.5 5.5-5.5 5.5zM297 9294v16.66c0 1-.67 1.67-1.67 1.67H292v30c0 1-.67 1.67-1.67 1.67h-56.66c-1 0-1.67-.67-1.67-1.67v-30h-3.33c-1 0-1.67-.67-1.67-1.67V9294c0-2 1.33-3.33 3.33-3.33h18.34v-8.34c0-1 .66-1.67 1.66-1.67h23.34c1 0 1.66.67 1.66 1.67v8.34h18.34c2 0 3.33 1.33 3.33 3.33zm-45-3.33h20V9284h-20zm36.67 21.66h-53.34v28.34h53.34zm-20-6.67h-13.34v3.34h13.34zm25-11.66h-63.34v15H252v-5c0-1 .67-1.67 1.67-1.67h16.66c1 0 1.67.67 1.67 1.67v5h21.67zm-60-40H247v3.33h-13.33zm-8.34 6.66H247v3.34h-21.67zm-18.33 20h30v3.34h-30zm0 11.67h13.33v3.34H207zm0 11.67h13.33v3.33H207zm0 11.67h16.67v3.33H207zm0 11.66h16.67v3.33H207zm51.67-75c3.66 0 6.66 3 6.66 6.67 0 3.66-3 6.66-6.66 6.66-3.67 0-6.67-3-6.67-6.66 0-3.67 3-6.67 6.67-6.67zm0 3.33a3.34 3.34 0 0 0-3.34 3.34 3.34 3.34 0 0 0 6.67 0c0-1.84-1.5-3.34-3.33-3.34zM282 9334h3.33v3.33H282zm0-6.67h3.33v3.33H282zm0-6.67h3.33v3.34H282zm-6.67 13.34h3.34v3.33h-3.34zm-6.66 0H272v3.33h-3.33zm6.66-6.67h3.34v3.33h-3.34z"/><path id="82o3d" d="M243.67 9267.33H247v3.33h-3.33zm-6.67 0h3.33v3.33H237zm-6.67 0h3.34v3.33h-3.34z"/></defs><g><g transform="translate(-197 -9244)"><use fill="#ffc600" xlink:href="#82o3a"/></g><g transform="translate(-197 -9244)"><use fill="#ffc600" xlink:href="#82o3b"/></g><g transform="translate(-197 -9244)"><use fill="#ffc600" xlink:href="#82o3c"/><use fill="#5e91a6" xlink:href="#82o3c"/></g><g transform="translate(-197 -9244)"><use fill="#ffc600" xlink:href="#82o3d"/><use fill="#5e91a6" xlink:href="#82o3d"/></g></g></svg>