<svg id="Группа_26" data-name="Группа 26" xmlns="http://www.w3.org/2000/svg" width="100" height="100" viewBox="0 0 100 100">
  <defs>
    <style>
      .cls-1 {
        fill: #eeb900;
      }

      .cls-1, .cls-2 {
        fill-rule: evenodd;
      }

      .cls-2 {
        fill: #5e91a6;
      }
    </style>
  </defs>
  <path id="Эллипс_3" data-name="Эллипс 3" class="cls-1" d="M1152,9449.03a12.3,12.3,0,1,1-12.3,12.3A12.3,12.3,0,0,1,1152,9449.03Z" transform="translate(-1102 -9431)"/>
  <path id="Эллипс_3_копия" data-name="Эллипс 3 копия" class="cls-1" d="M1178.23,9439.2a12.287,12.287,0,0,1,12.29,12.29c0,6.79-5.51,11.89-12.29,12.3-10.26.61-5.37-4.15-7.38-8.2-0.81-1.65-3.28-6.24-3.28-8.2C1167.57,9440.6,1171.44,9439.2,1178.23,9439.2Z" transform="translate(-1102 -9431)"/>
  <path id="Эллипс_3_копия_2" data-name="Эллипс 3 копия 2" class="cls-1" d="M1125.77,9439.2a12.276,12.276,0,0,0-12.29,12.27c0,6.77,5.51,11.86,12.29,12.27,10.26,0.61,5.37-4.14,7.38-8.19,0.81-1.64,3.28-6.22,3.28-8.17C1136.43,9440.6,1132.56,9439.2,1125.77,9439.2Z" transform="translate(-1102 -9431)"/>
  <path id="Прямоугольник_45_копия_7" data-name="Прямоугольник 45 копия 7" class="cls-2" d="M1152,9476.16a14.515,14.515,0,1,0-14.52-14.52A14.538,14.538,0,0,0,1152,9476.16Zm4.84-4.33a11.2,11.2,0,0,1-9.68,0v-2.12a4.84,4.84,0,0,1,9.68,0v2.12Zm-8.07-13.41a3.23,3.23,0,1,1,3.23,3.22A3.235,3.235,0,0,1,1148.77,9458.42Zm3.23-8.07a11.286,11.286,0,0,1,8.05,19.2,8.086,8.086,0,0,0-3.54-6.53,6.45,6.45,0,1,0-9.02,0,8.06,8.06,0,0,0-3.54,6.53A11.286,11.286,0,0,1,1152,9450.35Zm39.65,19.36,4.39-7.7a20.728,20.728,0,0,0-18-31.01h-0.47a20.772,20.772,0,0,0-18.27,10.94,20.685,20.685,0,0,0-7.06-1.26h-0.48a20.742,20.742,0,0,0-7.07,1.26,20.756,20.756,0,0,0-18.26-10.94h-0.48a20.728,20.728,0,0,0-17.99,31.01l4.39,7.7H1102V9531h100v-61.29h-10.35Zm-14.08-35.49h0.47a17.5,17.5,0,0,1,15.2,26.19l-15.43,27.01-8.28-14.49,0.71-1.24a20.847,20.847,0,0,0,2.28-6.23,14.505,14.505,0,1,0-7.5-20.34,20.447,20.447,0,0,0-2.76-1.85A17.512,17.512,0,0,1,1177.57,9434.22Zm-13.11,65.19a11.29,11.29,0,1,1,0,14.8A14.321,14.321,0,0,0,1164.46,9499.41Zm-1.98-2.61a14.493,14.493,0,0,0-4.71-3.29l4.38-7.67h11.03l4.06,7.09A14.483,14.483,0,0,0,1162.48,9496.8Zm0.81,10a11.1,11.1,0,0,1-.81,4.17,11.3,11.3,0,0,1-.8-4.17,11.106,11.106,0,0,1,.79-4.12A11.208,11.208,0,0,1,1163.29,9506.8Zm-21.77-10a14.483,14.483,0,0,0-14.76-3.87l4.06-7.09h11.03l4.38,7.67A14.493,14.493,0,0,0,1141.52,9496.8Zm0.8,10a11.3,11.3,0,0,1-.8,4.17,10.947,10.947,0,0,1,.01-8.29A11.106,11.106,0,0,1,1142.32,9506.8Zm-2.78,7.41a11.3,11.3,0,1,1,0-14.8A14.321,14.321,0,0,0,1139.54,9514.21Zm-6.88-31.6,3.67-6.42,3.67,6.42h-7.34Zm10.85,16.82a11.29,11.29,0,0,1,4.35-3.08l4.14,7.25,4.14-7.25a11.29,11.29,0,0,1,4.35,3.08,14.375,14.375,0,0,0,.01,14.78,11.232,11.232,0,0,1-17,0A14.375,14.375,0,0,0,1143.51,9499.43Zm20.49-16.82,3.67-6.42,3.67,6.42H1164Zm13.81-27.42a4.842,4.842,0,0,1,4.83,4.84v2.12a11,11,0,0,1-9.67-.02v-2.1A4.844,4.844,0,0,1,1177.81,9455.19Zm-3.23-6.45a3.225,3.225,0,1,1,3.23,3.23A3.235,3.235,0,0,1,1174.58,9448.74Zm7.73,4.61a6.455,6.455,0,1,0-9.01,0,8.426,8.426,0,0,0-1.48,1.32,20.56,20.56,0,0,0-4.31-7.23,11.267,11.267,0,1,1,18.34,12.43A8.042,8.042,0,0,0,1182.31,9453.35Zm-30.55-9.45h0.48a17.514,17.514,0,0,1,15.2,26.19L1152,9497.1l-15.44-27.01A17.514,17.514,0,0,1,1151.76,9443.9Zm-25.57,11.29a4.844,4.844,0,0,1,4.84,4.84v2.1a11.018,11.018,0,0,1-9.68.02v-2.12A4.85,4.85,0,0,1,1126.19,9455.19Zm-3.22-6.45a3.225,3.225,0,1,1,3.22,3.23A3.226,3.226,0,0,1,1122.97,9448.74Zm7.73,4.61a6.455,6.455,0,1,0-9.01,0,8.051,8.051,0,0,0-3.55,6.52,11.271,11.271,0,1,1,18.35-12.43,20.56,20.56,0,0,0-4.31,7.23A8.426,8.426,0,0,0,1130.7,9453.35Zm-19.94,7.06a17.5,17.5,0,0,1,15.2-26.19h0.47a17.512,17.512,0,0,1,15.31,9.05,21.431,21.431,0,0,0-2.76,1.85,14.546,14.546,0,1,0-7.5,20.34,20.481,20.481,0,0,0,2.28,6.23l0.71,1.24-8.28,14.49Zm-5.53,12.52h8.97l1.84,3.23h-1.14v3.23h2.98l1.85,3.22h-14.5v-9.68Zm93.54,54.84h-93.54v-41.93h16.34l4.25,7.43a14.506,14.506,0,1,0,15.7,23.55,14.453,14.453,0,0,0,20.96,0,14.5,14.5,0,1,0,15.7-23.55l4.25-7.43h16.34v41.93Zm0-45.16h-14.5l5.53-9.68h8.97v9.68Zm-90.32-6.45h3.23v3.23h-3.23v-3.23Zm0.11,13.85h3.28v3.28h-3.28v-3.28Zm0,6.56h3.28v3.28h-3.28v-3.28Zm0,6.56h3.28v3.28h-3.28v-3.28Zm0,6.56h3.28v3.27h-3.28v-3.27Zm83.6-8.2h3.28v3.28h-3.28v-3.28Zm0,6.56h3.28v3.28h-3.28v-3.28Zm0,6.56h3.28v3.27h-3.28v-3.27Zm0,6.55h3.28v3.28h-3.28v-3.28Z" transform="translate(-1102 -9431)"/>
</svg>
