<svg xmlns="http://www.w3.org/2000/svg" width="27" height="27" viewBox="0 0 27 27">
  <defs>
    <style>
      .cls-1 {
        fill: #5e91a6;
        fill-rule: evenodd;
      }
    </style>
  </defs>
  <path id="Forma_1" data-name="Forma 1" class="cls-1" d="M474.7,10022.5a1.426,1.426,0,0,0-1.35,1.4h0.9a0.453,0.453,0,1,1,.9,0h0.9A1.426,1.426,0,0,0,474.7,10022.5Zm3.6,0a1.426,1.426,0,0,0-1.35,1.4h0.9a0.453,0.453,0,1,1,.9,0h0.9A1.425,1.425,0,0,0,478.3,10022.5Zm-1.8,12.2a1.8,1.8,0,1,0,1.8,1.8A1.8,1.8,0,0,0,476.5,10034.7Zm0,2.7a0.9,0.9,0,1,1,.9-0.9A0.9,0.9,0,0,1,476.5,10037.4Zm10.8,2.7v-5.9a6.73,6.73,0,0,0-6.751-6.7h-0.49a1.911,1.911,0,0,0,.454-0.5H481a2.236,2.236,0,0,0,2.25-2.2v-0.8a2.052,2.052,0,0,0,0-3.4,6.747,6.747,0,0,0-13.49,0,2.107,2.107,0,0,0-.9,1.7,2.017,2.017,0,0,0,2.025,2h0.306a5.357,5.357,0,0,0,1.76,3.2h-0.491a6.729,6.729,0,0,0-6.75,6.7v5.9H463v0.9h27v-0.9h-2.7Zm-4.951-15.3a1.311,1.311,0,0,1-1.169,1.3,4.73,4.73,0,0,0,.638-1.8h0.531v0.5Zm0.9-2.5a1.118,1.118,0,0,1-1.125,1.1H481.9v-2.2h0.225A1.118,1.118,0,0,1,483.246,10022.3Zm-12.15,1.1h-0.225a1.1,1.1,0,1,1,0-2.2H471.1v2.2Zm-0.225-3.1h-0.2a5.846,5.846,0,0,1,11.657,0h-0.51a5.394,5.394,0,0,0-10.638,0h-0.306Zm10.125,0.9c-3.248-.1-5.4-1.5-5.4-2.7a0.452,0.452,0,1,0-.9,0c0,1.1-1.163,2.1-2.674,2.2A4.5,4.5,0,0,1,481,10021.2Zm-9,2.2v-1.8a4.2,4.2,0,0,0,3.193-1.7c0.942,1.2,3.142,2.1,5.807,2.2v1.3a4.182,4.182,0,0,1-.908,2.7H476.5v0.9h2.689a3.012,3.012,0,0,1-.834.5,4.048,4.048,0,0,1-3.71,0A4.416,4.416,0,0,1,472,10023.4Zm3.109,5.3a9.724,9.724,0,0,0,2.782,0l-1.391,2.7Zm0.663,3.3h-0.794l-1.8-3.6h0.794Zm3.256-3.6h0.794l-1.8,3.6h-0.794Zm-11.078,5.8v5.9H466.6v-5.9a5.882,5.882,0,0,1,5.579-5.8l1.793,3.6H470.2A2.236,2.236,0,0,0,467.946,10034.2Zm16.2,5.9h-15.3v-5.9a1.339,1.339,0,0,1,1.35-1.3h12.6a1.338,1.338,0,0,1,1.35,1.3v5.9Zm2.25,0h-1.35v-5.9a2.236,2.236,0,0,0-2.25-2.2h-3.772l1.794-3.6a5.882,5.882,0,0,1,5.578,5.8v5.9Zm-4.05-4.1h0.9v3.2h-0.9v-3.2Zm0-1.8h0.9v0.9h-0.9v-0.9Zm4.644-17.2h0.993v1H486.99v-1Zm0,2h0.993v1H486.99v-1Zm0,2h0.993v1H486.99v-1Zm-21.98,2H466v1H465.01v-1Zm0,2H466v1H465.01v-1Zm0,2H466v1H465.01v-1Z" transform="translate(-463 -10014)"/>
</svg>
