<svg xmlns="http://www.w3.org/2000/svg" xmlns:xlink="http://www.w3.org/1999/xlink" width="107" height="100" viewBox="0 0 107 100"><defs><path id="4smda" d="M809.33 9472.55c7.71 0 13.96 6.88 13.96 15.38s-6.25 15.38-13.96 15.38c-7.7 0-13.95-6.89-13.95-15.38 0-8.5 6.25-15.38 13.95-15.38z"/><path id="4smdb" d="M816.47 9491.7a1.79 1.79 0 0 0 3.56 0v-7.14c0-5.92-4.8-10.72-10.7-10.72-5.9 0-10.7 4.8-10.7 10.72v5.35c0 5.91 4.8 10.72 10.7 10.72h8.92c.98 0 1.78-.8 1.78-1.78h3.57c0 2.95-2.4 5.35-5.35 5.35h-8.92a14.3 14.3 0 0 1-14.26-14.29v-5.35a14.3 14.3 0 0 1 14.26-14.3 14.3 14.3 0 0 1 14.27 14.3v7.14a5.34 5.34 0 1 1-10.18 2.27 7.07 7.07 0 0 1-4.09 1.3 7.15 7.15 0 0 1-7.13-7.14v-3.57c0-3.94 3.2-7.15 7.13-7.15 3.94 0 7.14 3.2 7.14 7.15zm-3.57-7.14a3.57 3.57 0 0 0-7.13 0v3.57a3.57 3.57 0 0 0 7.13 0zm-19.26 45.54c-1.2.24-2.44.43-3.66.57l-.4-3.54c1.12-.14 2.26-.31 3.38-.53zm-7.35.86a47.7 47.7 0 0 1-3.7 0l.13-3.56c1.13.04 2.29.03 3.43 0zm-13.71-5.12l-.94 3.45a46.8 46.8 0 0 1-3.53-1.12l1.2-3.36c1.07.39 2.17.73 3.27 1.03zm6.72 1.3l-.4 3.55a48.63 48.63 0 0 1-3.66-.56l.68-3.5c1.11.21 2.25.38 3.38.51zm-13.16-3.61l-1.47 3.26a47.87 47.87 0 0 1-3.31-1.65l1.7-3.14c1.01.55 2.04 1.07 3.08 1.53zm-11.46-7.46l-2.38 2.67c-.9-.82-1.8-1.68-2.66-2.58l2.57-2.48c.8.83 1.63 1.64 2.47 2.39zm5.44 4.17l-1.94 3a49.2 49.2 0 0 1-3.03-2.14l2.17-2.84c.9.7 1.84 1.36 2.8 1.98zm40.66 7.88c-1.16.42-2.34.8-3.53 1.13l-.95-3.44c1.1-.3 2.2-.66 3.26-1.05zm12.93-7.13c-.96.75-1.98 1.48-3.01 2.15l-1.96-2.98a45 45 0 0 0 2.8-2zm5.38-4.83a49.6 49.6 0 0 1-2.53 2.46l-2.39-2.66c.8-.72 1.6-1.49 2.35-2.28zm-11.57 8.9c-1.07.58-2.18 1.14-3.3 1.66l-1.48-3.26c1.04-.47 2.07-.99 3.06-1.54zm-28.36-90.22c-1.13.13-2.27.31-3.39.53l-.68-3.5a50 50 0 0 1 3.66-.58zm6.99-3.84l-.14 3.57c-1.13-.04-2.29-.04-3.42 0l-.15-3.57c1.23-.04 2.48-.05 3.7 0zm-13.71 5.16c-1.1.3-2.2.65-3.27 1.04l-1.22-3.35c1.16-.43 2.35-.8 3.53-1.13zm-6.44 2.34c-1.05.47-2.08 1-3.07 1.54l-1.72-3.13c1.07-.59 2.19-1.15 3.31-1.66zm34.63-4.7l-1.21 3.35a45.15 45.15 0 0 0-3.27-1.03l.95-3.44c1.18.32 2.37.7 3.53 1.11zm-7.14-1.97l-.67 3.51a43.8 43.8 0 0 0-3.39-.52l.4-3.55c1.23.14 2.46.33 3.66.56zm-33.5 9.98c-.96.63-1.9 1.3-2.8 1.99l-2.17-2.83a47.4 47.4 0 0 1 3.02-2.15zm53.6-.94l-2.18 2.83c-.9-.69-1.84-1.35-2.8-1.98l1.95-3c1.03.68 2.05 1.4 3.02 2.15zm5.5 4.94l-2.57 2.47c-.8-.83-1.62-1.63-2.46-2.38l2.37-2.67c.91.81 1.8 1.68 2.67 2.58zm-64.53.2c-.8.72-1.6 1.48-2.35 2.27l-2.57-2.48a49.2 49.2 0 0 1 2.54-2.45zm52.82-9.18l-1.71 3.13a46.2 46.2 0 0 0-3.07-1.53l1.46-3.25c1.11.5 2.23 1.05 3.32 1.65zm23.66 17.26v4.61h7.76v3.08h-7.76v4.61h3.1v3.08h-3.1v32.3c0 4.93-4.38 9.23-9.3 9.23H747.3c-4.91 0-9.3-3.66-9.3-8.58v-50.02c0-.98.56-1.4 1.55-1.4H845v3.19zm-85.29 0l38.62 19.52 40.47-19.52zm82.2 1.53l-42.76 21.59a1.79 1.79 0 0 1-1.65 0l-42.44-21.59v47.69c0 2.95 3.25 4.62 6.2 4.62h74.44c2.95 0 6.2-3.2 6.2-6.16zm-82.19 46.16h3.1v3.05h-3.1zm6.19 0h3.1v3.05h-3.1zm6.23 0h3.09v3.05h-3.1z"/></defs><g><g transform="translate(-738 -9431)"><use fill="#eeb900" xlink:href="#4smda"/></g><g transform="translate(-738 -9431)"><use fill="#5e91a6" xlink:href="#4smdb"/></g></g></svg>