<svg xmlns="http://www.w3.org/2000/svg" xmlns:xlink="http://www.w3.org/1999/xlink" width="94" height="100" viewBox="0 0 94 100"><defs><path id="smtfa" d="M418.9 9456.76H475v30.3h-56.1z"/><path id="smtfb" d="M381 9521.9h3.03v-28.78c0-.35.13-.7.35-.97l7.23-8.67v-44.9c0-4.18 3.4-7.58 7.58-7.58h42.46c4.18 0 7.58 3.4 7.58 7.57v15.16h24.25c.84 0 1.52.67 1.52 1.51v31.82c0 .84-.68 1.51-1.52 1.51h-24.25v15.16c0 4.17-3.4 7.57-7.58 7.57h-33.36v1.52c0 .4-.16.78-.44 1.07l-5.62 5.61v2.4h3.03v9.1H381zm3.03 3.04v3.03h18.2v-3.03zm15.16-6.06c0-.4.16-.79.45-1.07l5.62-5.62v-25.89a2.28 2.28 0 0 0-4.55 0v9.85c0 .4-.16.79-.44 1.07l-6.07 6.06a1.52 1.52 0 0 1-2.59-1.07v-14l-4.55 5.46v28.24h12.13zm-4.55-77.27h51.55v-3.04c0-2.5-2.04-4.54-4.54-4.54h-42.46a4.55 4.55 0 0 0-4.55 4.54zm51.55 59.09h-37.9v7.57h33.36c2.5 0 4.54-2.04 4.54-4.54zm0-12.13H428a6.07 6.07 0 0 1-12.13 0v-34.84a6.07 6.07 0 0 1 12.13 0h18.2v-9.1h-51.56v53.92l3.04-3.03v-9.22a5.31 5.31 0 0 1 10.61 0v11.37h37.9zm-24.25-37.88a3.03 3.03 0 0 0-3.04 3.04h6.07a3.03 3.03 0 0 0-3.03-3.04zm-3.04 28.8h30.52a6.09 6.09 0 0 1 4.35-4.36v-7.96a6.09 6.09 0 0 1-4.35-4.35H418.9zm3.04 12.12a3.03 3.03 0 0 0 3.03-3.04h-6.07a3.03 3.03 0 0 0 3.04 3.04zm37.9-34.85H418.9v3.03h31.84c.84 0 1.52.68 1.52 1.51a3.03 3.03 0 0 0 3.03 3.03c.84 0 1.52.68 1.52 1.52v10.6c0 .84-.68 1.52-1.52 1.52a3.03 3.03 0 0 0-3.03 3.03c0 .83-.68 1.51-1.52 1.51H418.9v3.03h40.94zm6.06 0h-3.03v28.78h3.03zm6.07 0h-3.03v28.78h3.03zm-39.42 14.39a5.31 5.31 0 1 1-10.62-.01 5.31 5.31 0 0 1 10.62.01zm-3.03 0a2.28 2.28 0 1 0-4.56 0 2.28 2.28 0 0 0 4.56 0zm-9.1 31.06h3.03v3.03h-3.03zm0-66.67h3.03v3.03h-3.03zm6.06 66.67h3.04v3.03h-3.04zm-12.13 0h3.04v3.03h-3.04zm45.49-10.6h3.03v3.02h-3.03zm0 6.06h3.03v3.03h-3.03zm0 6.06h3.03v3.03h-3.03zm0 6.06h3.03v3.03h-3.03zm0 6.06h3.03v3.03h-3.03zm0 6.06h3.03v3.03h-3.03zm-3.03 0v3.03h-3.04v-3.03zm-6.07 0v3.03h-3.03v-3.03zm-6.06 0v3.03h-3.03v-3.03zm-6.07 0v3.03h-3.03v-3.03zm-6.06 0v3.03h-3.03v-3.03zm-6.07 0v3.03h-3.03v-3.03zm-6.06 0v3.03h-3.03v-3.03zm-6.07 0v3.03h-3.03v-3.03zm33.36-6.06h3.03v3.03h-3.03zm6.06 0h3.04v3.03h-3.04zm0-6.06h3.04v3.03h-3.04zm-56.1-62.12h3.04v3.02h-3.03zm0 6.06h3.04v3.03h-3.03zm0 6.06h3.04v3.03h-3.03zm6.07-12.12h3.03v3.02h-3.03zm6.07 0h3.03v3.02h-3.03zm-6.07 6.06h3.03v3.03h-3.03z"/></defs><g><g transform="translate(-381 -9431)"><use fill="#eeb900" xlink:href="#smtfa"/></g><g transform="translate(-381 -9431)"><use fill="#5e91a6" xlink:href="#smtfb"/></g></g></svg>