<svg xmlns="http://www.w3.org/2000/svg" xmlns:xlink="http://www.w3.org/1999/xlink" width="100" height="100" viewBox="0 0 100 100"><defs><path id="s67ea" d="M252.74 9456.59h9.83v19.67h-9.83z"/><path id="s67eb" d="M269.13 9451.67h9.84v26.23h-9.84z"/><path id="s67ec" d="M285.52 9446.75h9.84v31.15h-9.84z"/><path id="s67ed" d="M297 9443.47v34.43h-13.11v-34.43zm-3.28 3.28h-6.56v26.23h6.56zm-26.23 1.64h13.12v27.87l-.99.9c.82 3.16 1.25 6.4 1.25 9.68l-.26 2.53h-39.35v-40.98l.9-.26c7.65 0 15.08 2.3 21.37 6.45h1.21v.82c1.12.8 2.2 1.67 3.23 2.6zm9.84 37.7c-.13-2.73.74-5.56 0-8.19h-9.84v-16.4c-1.01-1.07-2.15-.7-3.28-1.63v18.03H251.1v-22.95l5.79-.37a31.4 31.4 0 0 0-12.35-2.91v34.43zm-22.95-27.86v16.4h6.55v-16.4zm16.39 16.4h6.56v-22.96h-6.56zm-61.2 19.94l13.7-13.71 2.29 2.28-13.71 13.7zm1.95-7.73a4.84 4.84 0 1 1 0-9.7 4.84 4.84 0 0 1 0 9.7zm0-3.23a1.61 1.61 0 1 0 0-3.22 1.61 1.61 0 0 0 0 3.22zm17.74 11.3a4.85 4.85 0 1 1-9.7-.02 4.85 4.85 0 0 1 9.7.01zm-3.23 0a1.61 1.61 0 1 0-3.23 0 1.61 1.61 0 0 0 3.23 0zm47.11 25.46a5.04 5.04 0 0 1-7.12 7.12l-4.99-4.99a38.53 38.53 0 0 1-25.32 9.5 38.75 38.75 0 0 1-38.71-38.71c0-15.52 9.33-29.5 23.45-35.56l-3.78-2.78H197V9432h34.43v22.95c1.62-.2 2.69-.37 4.28-.37l2.27.37V9491h36.07l.37 2.28c0 7.8-2.33 15.26-6.68 21.68zm-45-60.5v-24.6l-27.91-.05.05 16.45h18.03zm30.6 60.35l-3.01-3.02a9.69 9.69 0 1 1-2.28-19.07 9.69 9.69 0 0 1 9.4 11.95l2.57 2.57c3.48-5.32 5.07-12 5.35-18.36H234.7v-36.06c-1.06.05-2.75-.22-3.83-.07v9.99l-7.94-7.94a35.53 35.53 0 0 0-22.7 33.08 35.52 35.52 0 0 0 35.48 35.48c8.5 0 16.6-3.04 23.03-8.55zm-5.29-18.87a6.46 6.46 0 1 0 .02 12.92 6.46 6.46 0 0 0-.02-12.92zm17.41 21.3l-9.41-9.4a9.76 9.76 0 0 1-2.56 2.55l9.41 9.41a1.8 1.8 0 0 0 2.56-2.55zm-67.3-84.1h21.32v3.28h-21.33zm0 6.56h21.32v3.27h-21.33zm48.28 61.08h3.22v3.23h-3.22zm-15.5-.4h3.29v3.27h-3.28zm-6.54 0h3.27v3.27h-3.27zm-6.56 0h3.28v3.27h-3.28zm-6.57-.02h3.28v3.28h-3.28zm-6.56 0h3.28v3.28h-3.28zm6.56 6.56h3.28v3.28h-3.28zm6.56 0h3.28v3.28h-3.28zm6.56 0h3.28v3.28h-3.28zm-6.56 6.55h3.28v3.28h-3.28z"/></defs><g><g transform="translate(-197 -9432)"><use fill="#eeb900" xlink:href="#s67ea"/></g><g transform="translate(-197 -9432)"><use fill="#eeb900" xlink:href="#s67eb"/></g><g transform="translate(-197 -9432)"><use fill="#eeb900" xlink:href="#s67ec"/></g><g transform="translate(-197 -9432)"><use fill="#5e91a6" xlink:href="#s67ed"/></g></g></svg>