<svg xmlns="http://www.w3.org/2000/svg" xmlns:xlink="http://www.w3.org/1999/xlink" width="100" height="100" viewBox="0 0 100 100"><defs><path id="objaa" d="M631.1 9488.81c8.2 0 14.84 6.3 14.84 14.06 0 7.77-6.65 14.07-14.85 14.07s-14.84-6.3-14.84-14.07c0-7.76 6.65-14.06 14.84-14.06z"/><path id="objab" d="M600.32 9471.32v37.1h-1.61A38.76 38.76 0 0 1 560 9469.7a38.75 38.75 0 0 1 38.71-38.71 38.75 38.75 0 0 1 38.7 38.7v1.62zm-27.07-26.3a32.5 32.5 0 0 0 9.2 4.54 51.7 51.7 0 0 1 11.3-14.98 35.4 35.4 0 0 0-20.5 10.45zm-9.98 23.08h14.51c.2-5.87 1.5-11.06 3.34-15.56a34.06 34.06 0 0 1-10.02-5.09 35.3 35.3 0 0 0-7.83 20.65zm17.85 18.78a44.93 44.93 0 0 1-3.34-15.56h-14.51a35.3 35.3 0 0 0 7.83 20.64 34.14 34.14 0 0 1 10.02-5.08zm12.63 17.96c-3.28-3.01-7.87-8.04-11.3-15a31.92 31.92 0 0 0-9.2 4.55 35.41 35.41 0 0 0 20.5 10.45zm3.35-17.35c-4.44.12-8.24.67-11.43 1.45a49.74 49.74 0 0 0 11.43 14.52zm0-16.17H581c.22 5.51 1.49 10.4 3.28 14.64a56.9 56.9 0 0 1 12.82-1.7zm0-16.17c-5-.12-9.26-.78-12.81-1.69a41.4 41.4 0 0 0-3.28 14.64h16.09zm0-19.2a49.98 49.98 0 0 0-11.41 14.51c3.2.79 6.99 1.35 11.4 1.46zm6.57-1.37c3.28 3 7.87 8.03 11.3 15a31.89 31.89 0 0 0 9.2-4.55 35.41 35.41 0 0 0-20.5-10.45zm-3.35 17.35a54 54 0 0 0 11.43-1.46 49.74 49.74 0 0 0-11.43-14.52zm16.1 16.17a41.48 41.48 0 0 0-3.28-14.64 56.9 56.9 0 0 1-12.82 1.7v12.94zm17.73 0a35.31 35.31 0 0 0-7.83-20.65 34.06 34.06 0 0 1-10.02 5.09c1.85 4.5 3.14 9.69 3.34 15.56zm12.95 33.87c0 8.89-7.24 16.13-16.13 16.13-8.9 0-16.13-7.24-16.13-16.13 0-8.9 7.23-16.13 16.13-16.13 8.9 0 16.13 7.23 16.13 16.13zm-11.3 8.06a4.85 4.85 0 0 0-9.67 0v3.89a12.83 12.83 0 0 0 9.68 0zm-4.83-8.06a3.23 3.23 0 1 0 0-6.46 3.23 3.23 0 0 0 0 6.46zm12.9 0c0-7.12-5.79-12.9-12.9-12.9a12.88 12.88 0 1 0-8.06 22.96v-2a8.06 8.06 0 0 1 3.55-6.68 6.43 6.43 0 0 1 4.5-11.06 6.46 6.46 0 0 1 4.51 11.06 8.06 8.06 0 0 1 3.56 6.68v2c2.95-2.37 4.84-6 4.84-10.06zm16.13-1.62v3.23h-3.3a25.8 25.8 0 0 1-24.12 24.11v3.3h-3.23v-3.3a25.8 25.8 0 0 1-24.1-24.11h-3.31v-3.23h3.3a25.8 25.8 0 0 1 24.11-24.1v-3.32h3.23v3.31a25.8 25.8 0 0 1 24.11 24.11zm-9.68 3.23v-3.23h3.15a22.58 22.58 0 0 0-20.89-20.88v3.14h-3.23v-3.14a22.58 22.58 0 0 0-20.88 20.88h3.14v3.23h-3.14a22.58 22.58 0 0 0 20.88 20.88v-3.14h3.23v3.14a22.58 22.58 0 0 0 20.89-20.88zm6.55-22.58H660v3.12h-3.13zm0-6.25H660v3.12h-3.13zm0-6.25H660v3.12h-3.13zm0-6.25H660v3.12h-3.13zm0-6.25H660v3.12h-3.13zm0-6.25H660v3.12h-3.13zm0-6.25H660v3.12h-3.13zm0-6.25H660v3.12h-3.13zm-21.87 0v3.12h-3.13v-3.12zm6.25 0v3.12h-3.13v-3.12zm6.25 0v3.12h-3.13v-3.12zm6.25 0v3.12h-3.13v-3.12zm-54.69 90.62v3.13h-3.12v-3.13zm6.25 0v3.13h-3.12v-3.13zm6.25 0v3.13h-3.12v-3.13zm6.25 0v3.13h-3.12v-3.13zm-43.75 0v3.13h-3.12v-3.13zm6.25 0v3.13h-3.12v-3.13zm6.25 0v3.13h-3.12v-3.13zm6.25 0v3.13h-3.12v-3.13zm-25 0v3.13h-3.12v-3.13zm-3.12-6.25h3.12v3.13h-3.12zm0-6.25h3.12v3.13h-3.12zm0-6.25h3.12v3.13h-3.12zm0-6.25h3.12v3.13h-3.12z"/></defs><g><g transform="translate(-560 -9431)"><use fill="#eeb900" xlink:href="#objaa"/></g><g transform="translate(-560 -9431)"><use fill="#5e91a6" xlink:href="#objab"/></g></g></svg>