<svg xmlns="http://www.w3.org/2000/svg" xmlns:xlink="http://www.w3.org/1999/xlink" width="100" height="100" viewBox="0 0 100 100"><defs><path id="7hrya" d="M827.67 9247.33V9264H806l-8.33 6.66v-23.33z"/><path id="7hryb" d="M754.33 9247.33V9264H776l8.33 6.66v-23.33z"/><path id="7hryc" d="M826 9287.33a5 5 0 1 1 0 10 5 5 0 0 1 0-10z"/><path id="7hryd" d="M841 9280.66V9304c0 1-.67 1.66-1.67 1.66H806v-3.33h5v-20h-66.67v20H776v3.33h-33.33c-1 0-1.67-.66-1.67-1.66v-23.34c0-1 .67-1.66 1.67-1.66h96.66c1 0 1.67.66 1.67 1.66zm-3.33 1.67h-23.34v20h23.34zm-26.67 45V9344h-3.33v-16.67a8.25 8.25 0 0 0-8.34-8.33h-1.83l-4.67 12.33c-.5.5-1.16 1-1.83 1-.67 0-1.33-.5-1.5-1l-4.67-12.33h-2.16a8.25 8.25 0 0 0-8.34 8.33V9344H771v-16.67a11.6 11.6 0 0 1 11.67-11.66h16.66a11.6 11.6 0 0 1 11.67 11.66zm-17.17-8.33h-5.33l2.67 7zm-4.5 15h3.34v3.33h-3.34zm0 6.67h3.34v3.33h-3.34zm-8.33-35v-5a8.25 8.25 0 0 1 8.33-8.34h3.34a8.25 8.25 0 0 1 8.33 8.33v5a8.25 8.25 0 0 1-8.33 8.34h-3.34a8.25 8.25 0 0 1-8.33-8.34zm3.33 0c0 2.83 2.17 5 5 5h3.34c2.83 0 5-2.17 5-5v-5c0-2.84-2.17-5-5-5h-3.34c-2.83 0-5 2.16-5 5zm-5 26.66h3.34V9344h-3.34zm20 0h3.34V9344h-3.34zm-50-45h5v3.34h-5zm8.34 0h5v3.34h-5zm8.33 0h5v3.34h-5zm8.33 0h5v3.34h-5zm-25 6.67h5v3.33h-5zm8.34 0h5v3.33h-5zm8.33 0h5v3.33h-5zm53.33-1.67c0-3.66 3-6.67 6.67-6.67s6.67 3 6.67 6.67-3 6.67-6.67 6.67-6.67-3-6.67-6.67zm3.34 0c0 1.83 1.5 3.34 3.33 3.34s3.33-1.5 3.33-3.34c0-1.83-1.5-3.33-3.33-3.33a3.34 3.34 0 0 0-3.33 3.33zM751 9265.66v-20c0-1 .67-1.66 1.67-1.66H786c1 0 1.67.67 1.67 1.67v26.66c0 .67-.34 1.17-.84 1.5-.33.17-.5.17-.83.17-.33 0-.67-.17-1-.33l-9.5-6.34h-22.83c-1 0-1.67-.67-1.67-1.67zm3.33-1.66H776c.33 0 .67.16 1 .33l7.33 5v-22h-30zm40 8.33v-26.66c0-1 .67-1.67 1.67-1.67h33.33c1 0 1.67.67 1.67 1.67v20c0 1-.67 1.66-1.67 1.66H806.5l-9.5 6.34c-.33.16-.67.33-1 .33-.33 0-.5 0-.83-.17-.5-.33-.84-.83-.84-1.5zm3.34-3.16l7.33-5c.33-.17.67-.34 1-.34h21.67v-16.5h-30zm-40-18.5h11.66v3.33h-11.66zm15 0h6.66v3.33h-6.66zm-15 6.66h11.66v3.33h-11.66zm15 0h6.66v3.33h-6.66zm28.33-6.67h11.67v3.34H801zm15 0h6.67v3.34H816zm-15 6.67h11.67v3.33H801zm15 0h6.67v3.33H816zm-75 83.34h3.33v3.33H741zm6.67 0H751v3.33h-3.33zm6.66 0h3.34v3.33h-3.34zm6.67 0h3.33v3.33H761zm-13.33-6.67H751v3.33h-3.33zm6.66 0h3.34v3.33h-3.34zm6.67 0h3.33v3.33H761zm-6.67-6.67h3.34v3.33h-3.34zm6.67 0h3.33v3.33H761zm0-6.67h3.33v3.34H761zm56.67 20H821v3.34h-3.33zm6.66 0h3.34v3.34h-3.34zm6.67 0h3.33v3.34H831zm6.67 0H841v3.34h-3.33zm-20-6.66H821v3.33h-3.33zm6.66 0h3.34v3.33h-3.34zm6.67 0h3.33v3.33H831zm-13.33-6.67H821v3.33h-3.33zm6.66 0h3.34v3.33h-3.34zm-6.66-6.67H821v3.34h-3.33z"/></defs><g><g transform="translate(-741 -9244)"><use fill="#ffc600" xlink:href="#7hrya"/></g><g transform="translate(-741 -9244)"><use fill="#ffc600" xlink:href="#7hryb"/></g><g transform="translate(-741 -9244)"><use fill="#ffc600" xlink:href="#7hryc"/></g><g transform="translate(-741 -9244)"><use xlink:href="#7hryd"/><use fill="#5e91a6" xlink:href="#7hryd"/></g></g></svg>