<svg xmlns="http://www.w3.org/2000/svg" width="29" height="27" viewBox="0 0 29 27">
  <defs>
    <style>
      .cls-1 {
        fill: #5e91a6;
        fill-rule: evenodd;
      }
    </style>
  </defs>
  <path class="cls-1" d="M483.263,10098.5a1.935,1.935,0,1,0-3.867,0v0.9a1.971,1.971,0,0,0,1.934,2,2.127,2.127,0,0,0,1.107-.4,1.459,1.459,0,0,0,2.759-.6v-1.9a3.867,3.867,0,1,0-7.733,0v1.4a3.921,3.921,0,0,0,3.867,3.9h2.416a1.5,1.5,0,0,0,1.45-1.5H484.23a0.478,0.478,0,0,1-.484.5H481.33a2.9,2.9,0,0,1-2.9-2.9v-1.4a2.9,2.9,0,0,1,5.8,0v1.9a0.484,0.484,0,1,1-.967,0v-1.9Zm-0.967.9a0.967,0.967,0,1,1-1.933,0v-0.9a0.967,0.967,0,1,1,1.933,0v0.9Zm-5.4,10.4c-0.3.1-.612,0.1-0.918,0.2l0.111,0.9c0.331,0,.664-0.1.992-0.1Zm-1.846.2h-0.93l-0.036,1h1Zm-4.564-.7-0.326.9a3.435,3.435,0,0,0,.957.3l0.254-.9C471.071,10109.5,470.773,10109.4,470.482,10109.3Zm1.791,0.5-0.183,1c0.326,0,.66.1,0.992,0.1l0.109-.9C472.884,10109.9,472.575,10109.9,472.273,10109.8Zm-3.484-1.2-0.462.8c0.294,0.2.6,0.3,0.9,0.5l0.4-.9C469.342,10108.9,469.062,10108.7,468.789,10108.6Zm-2.941-2.3-0.7.7c0.233,0.2.476,0.5,0.722,0.7l0.644-.7A3.984,3.984,0,0,1,465.848,10106.3Zm1.385,1.3-0.588.7c0.264,0.2.539,0.4,0.819,0.6l0.527-.8A3.657,3.657,0,0,0,467.233,10107.6Zm11.449,1.7c-0.29.1-.588,0.2-0.886,0.3l0.259,0.9c0.321-.1.643-0.2,0.956-0.3Zm3.244-1.8c-0.242.2-.5,0.4-0.756,0.6l0.529,0.8c0.281-.2.556-0.4,0.818-0.6Zm1.353-1.2c-0.206.2-.42,0.4-0.639,0.6l0.647,0.8a5.4,5.4,0,0,1,.688-0.7Zm-2.906,2.2c-0.269.2-.549,0.3-0.831,0.5l0.4,0.8a3.33,3.33,0,0,0,.9-0.4Zm-7.332-24.4c-0.331,0-.665.1-0.993,0.1l0.186,1c0.3-.1.612-0.1,0.918-0.2Zm1-.1,0.039,1h0.929l0.036-1h-1Zm-2.97.5c-0.321.1-.643,0.2-0.957,0.3l0.33,0.9c0.29-.1.588-0.2,0.885-0.3Zm-1.887.7a3.317,3.317,0,0,0-.9.4l0.466,0.8a3.383,3.383,0,0,0,.831-0.4Zm8.829-.7-0.255.9c0.3,0.1.594,0.2,0.885,0.3l0.326-.9A1.766,1.766,0,0,0,478.013,10084.5Zm-1.969-.4-0.108.9c0.306,0.1.615,0.1,0.917,0.2l0.183-1C476.709,10084.2,476.376,10084.1,476.044,10084.1Zm-8.618,2c-0.281.2-.556,0.4-0.818,0.6l0.591,0.8c0.243-.2.5-0.4,0.757-0.6Zm14.235,0-0.527.8c0.26,0.2.515,0.3,0.759,0.5l0.588-.7C482.217,10086.5,481.942,10086.3,481.661,10086.1Zm1.592,1.2-0.643.7a4.02,4.02,0,0,1,.668.7l0.7-.7C483.742,10087.8,483.5,10087.5,483.253,10087.3Zm-17.415,0a5.394,5.394,0,0,1-.687.7l0.7,0.7c0.206-.2.42-0.4,0.638-0.6Zm14.062-2.2-0.4.9c0.28,0.1.56,0.3,0.833,0.4l0.462-.8C480.505,10085.4,480.2,10085.3,479.9,10085.1Zm11.1,4.9v-1H463a1.436,1.436,0,0,0-1,.8v13.5c0,1.3.667,2.7,2,2.7h21a1.781,1.781,0,0,0,2-2v-10h1v-1h-1v-1h3v-1h-3v-1h4Zm-5,0-11.433,5.5L464,10090h22Zm0,14c0,0.8-.2,1-1,1H464c-0.8,0-1.033-.9-1.033-1.7v-12.7l11.377,5.9h0.446L486,10091v13Zm-21-1h1v1h-1v-1Zm2,0h1v1h-1v-1Zm2,0h1v1h-1v-1Z" transform="translate(-462 -10084)"/>
</svg>
