<svg xmlns="http://www.w3.org/2000/svg" xmlns:xlink="http://www.w3.org/1999/xlink" width="100" height="100" viewBox="0 0 100 100"><defs><path id="c320a" d="M449.74 9287.48h13.04v54.34h-13.04z"/><path id="c320b" d="M425.83 9304.87h13.04v36.95h-13.04z"/><path id="c320c" d="M404.22 9321.03h13.14v19.67h-13.14z"/><path id="c320d" d="M478 9262.33V9329c0 1-.64 1.88-1.64 1.88h-6.56v-3.28h4.92v-6.55h-4.92v-3.28h4.92v-54.1l-14.11-.1c-1 0-2.18-1.18-2.18-2.18l-.1-14.11h-77.05v70.49h4.92v3.28h-4.92v6.55h4.92v3.28l-6.03.07c-1 0-2.17-.95-2.17-1.95v-83.33c0-1 .67-1.67 1.67-1.67h80c.16 0 .33.16.5.16h.16c.17.17.34.17.5.34l16.67 16.67c.17.16.17.33.33.5v.16c.17.17.17.33.17.5zm-6.56-1.94l-9.83-9.83v9.83zm-6.55 24.6zm0 55.73h6.55l-.1 3.28H393c-1 0-1.89-.64-1.89-1.64v-60.66h3.28v59.02h8.2v-21.31c.16.24.64 0 1.64 0h13.11c1 0 1.64-.07 1.64 0v21.3h6.56v-37.7h13.12c1 0 3.27-.06 3.27 0v37.7h6.56v-55.73c-.05-.02.64 0 1.64 0h9.84c1.13.12 4.84-.02 4.91 0-.22 0 0 55.74 0 55.74zm-39.35-37.7c-1 0 .16-.07 0 0zm26.23-14.76v4.92h9.84v-4.92zm-22.95 18.03v4.92h9.84v-4.92zm-22.95 16.4v4.91h9.83v-4.91zm9.83 18.03v-9.84h-9.83v9.84zm22.96 0v-26.23h-9.84v26.23zm22.95 0v-44.26h-9.84v44.26zm-75.43-88.51h11.49v3.27h-11.49zm.03 6.56h24.56v3.25h-24.53zm0 6.53h3.27v3.28h-3.28zm6.53 0h3.28v3.28h-3.28zm6.58 0h3.28v3.28h-3.28zm2.51 34.2l37.17-37.17h-6V9259h10c1 0 1.67.67 1.67 1.66v10h-3.34v-5.83l-37 37zm.77 13.34h3.28v3.27h-3.28zm6.54 0h3.28v3.27h-3.28zm0-6.54h3.28v3.27h-3.28zm22.94-16.4h3.28v3.28h-3.28zm22.98-18.03h3.28v3.28h-3.28zm-39.34 40.97H419v3.27h-3.28zm9.82-16.4h3.28v3.28h-3.28zm6.54 0h3.28v3.28h-3.28zm6.58 0h3.28v3.28h-3.28zm9.82-18h3.28v3.28h-3.28zm6.58 0h3.28v3.28h-3.28zm6.54 0h3.28v3.28h-3.28z"/></defs><g><g transform="translate(-378 -9244)"><use fill="#375865" xlink:href="#c320a"/><use fill="#ffc600" xlink:href="#c320a"/></g><g transform="translate(-378 -9244)"><use fill="#375865" xlink:href="#c320b"/><use fill="#ffc600" xlink:href="#c320b"/></g><g transform="translate(-378 -9244)"><use fill="#375865" xlink:href="#c320c"/><use fill="#ffc600" xlink:href="#c320c"/></g><g transform="translate(-378 -9244)"><use xlink:href="#c320d"/><use fill="#5e91a6" xlink:href="#c320d"/></g></g></svg>