<svg xmlns="http://www.w3.org/2000/svg" viewBox="0 0 244 48.4"><path d="M29.7 32.4c0 10.2 7.3 16 16.9 16 9.9 0 16.8-5.1 16.8-14.3 0-9-8.4-11.9-15.7-14.5-3.8-1.3-6.4-2.9-6.4-5.9 0-3.1 2.5-4.6 5.4-4.6 3.6 0 5.6 2.5 5.6 6.5h10.4c0-7.6-5.3-14.3-15.9-14.3C38.5 1.3 31 5.7 31 13.9c0 9.1 6.9 11.7 15.2 14.7 3.9 1.5 7 2.7 7 6.3 0 3.1-2.6 5.3-5.9 5.3-4.2 0-7.2-2.9-7.2-7.7l-10.4-.1zm40.5 14.9h9.5V31.8c0-4.7 2-7.8 6-7.8 4.1 0 5.4 3.1 5.4 7.5v15.8h9.5V29c0-4.4-.6-7.5-2.5-9.8-1.7-2.2-4.4-3.5-8.4-3.5-4.7 0-8.3 2-10 5.2V2.5h-9.5v44.8zM107 6.2c0 3.4 2.7 6.2 6.3 6.2a6.2 6.2 0 1 0 0-12.4 6.2 6.2 0 0 0-6.3 6.2m1.4 41.1h9.8V16.4h-9.8v30.9zm34.3-18.2c-5.2-1.7-7.9-2.1-7.9-4.4 0-1.9 1.7-2.8 3.7-2.8 2.7 0 4 1.5 4 4h9.6c0-5.9-4.3-10.4-13.3-10.4-8.3 0-13.6 3-13.6 9.4 0 6 4.4 7.4 9.5 9 5.8 1.9 8.3 2.2 8.3 4.6 0 2-1.7 2.9-4 2.9-2.9 0-4.9-1.3-4.9-4.5h-9.6c0 7.1 5.4 11.1 14.2 11.1 7.7 0 13.9-2.6 13.9-9.9 0-5.9-4.5-7.4-9.9-9zm16.5 18.2h9.5V31.8c0-4.7 2-7.8 6-7.8 4.1 0 5.4 3.1 5.4 7.5v15.8h9.5V29c0-4.4-.6-7.5-2.5-9.8-1.7-2.2-4.4-3.5-8.4-3.5-4.7 0-8.3 2-10 5.2V2.5h-9.5v44.8zm69.1-30.9h-11.6l-9.5 13v-27h-9.8v44.8h9.8V34.4l9.5 12.9h11.6l-12-15.4 12-15.5zm3.1-10.2c0 3.4 2.8 6.2 6.3 6.2a6.2 6.2 0 1 0 0-12.4 6.1 6.1 0 0 0-6.3 6.2m1.4 41.1h9.8V16.4h-9.8v30.9z" class="st0" fill="#597491"/><path class="st1" fill="#0a0c0d" d="M232.8 16.4h9.8v30.8h-9.8zm-1.4-10.2c0 3.4 2.8 6.2 6.3 6.2a6.2 6.2 0 1 0 0-12.4 6.1 6.1 0 0 0-6.3 6.2m-34-3.7v44.8h9.7V34.4l9.5 12.9h11.7l-12-15.4 12-15.5h-11.6l-9.6 13.1v-27zm-38.2 44.8h9.5V31.8c0-4.7 2-7.8 6-7.8 4.1 0 5.4 3.1 5.4 7.5v15.8h9.5V29c0-4.4-.6-7.5-2.5-9.9-1.7-2.2-4.4-3.5-8.4-3.5-4.7 0-8.3 2-10 5.2V2.5h-9.5v44.8zm-16.5-18.2c-5.2-1.7-7.9-2.1-7.9-4.4 0-1.9 1.7-2.8 3.7-2.8 2.7 0 4 1.5 4 4h9.7c0-5.9-4.3-10.4-13.3-10.4-8.3 0-13.6 3-13.6 9.4 0 5.9 4.4 7.4 9.5 9 5.8 1.9 8.3 2.2 8.3 4.6 0 2-1.7 2.9-4 2.9-2.9 0-4.9-1.3-4.9-4.5h-9.6c0 7.1 5.4 11.1 14.2 11.1 7.7 0 13.9-2.6 13.9-9.9-.1-5.9-4.6-7.4-10-9zm-34.3-12.7h9.8v30.8h-9.8zM107 6.2c0 3.4 2.7 6.2 6.3 6.2a6.2 6.2 0 1 0 0-12.4 6.2 6.2 0 0 0-6.3 6.2M70.2 47.3h9.5V31.8c0-4.7 2-7.8 6-7.8 4.1 0 5.4 3.1 5.4 7.5v15.8h9.5V29c0-4.4-.6-7.5-2.5-9.9-1.7-2.2-4.4-3.5-8.4-3.5-4.7 0-8.3 2-10 5.2V2.5h-9.5v44.8zM29.7 32.4c0 10.2 7.3 16 16.9 16 9.9 0 16.8-5.1 16.8-14.3 0-9-8.4-11.9-15.7-14.5-3.8-1.3-6.4-2.9-6.4-5.9 0-3.1 2.5-4.6 5.4-4.6 3.6 0 5.6 2.5 5.6 6.5h10.4c0-7.6-5.3-14.3-15.9-14.3C38.5 1.3 31 5.7 31 13.9c0 9.1 6.9 11.7 15.2 14.7 3.9 1.5 7 2.7 7 6.3 0 3.1-2.6 5.3-5.9 5.3-4.2 0-7.2-2.9-7.2-7.7l-10.4-.1z"/><path class="st2" fill="#0082ff" d="M25.2 12.5l-1.9-5.6-8.3 3.4.7-8.9v-.2H9.5l.7 9.1L2 6.9h-.1L0 12.5l8.5 2.2-6 7.5-.1.1 5.1 3.6 5.1-8.4 5 8.2.1.2 5-3.6-6.1-7.6 8.4-2.1z"/></svg>
