<svg xmlns="http://www.w3.org/2000/svg" xmlns:xlink="http://www.w3.org/1999/xlink"><defs>
<path id="path0_fill" d="M 0 1.5C 0 0.671573 0.671573 0 1.5 0L 22.5 0C 23.3284 0 24 0.671573 24 1.5C 24 2.32843 23.3284 3 22.5 3L 1.5 3C 0.671573 3 0 2.32843 0 1.5Z"/>

<path id="path0_fill" d="M 0 1.5C 0 0.671573 0.671573 0 1.5 0L 22.5 0C 23.3284 0 24 0.671573 24 1.5C 24 2.32843 23.3284 3 22.5 3L 1.5 3C 0.671573 3 0 2.32843 0 1.5Z"/>
</defs><symbol id="icon-arrow" viewBox="0 0 12 12">
    <g id="Canvas" transform="translate(-15519 636)">
        <g id="Vector">
            <path d="M 6.4476 0.180472C 6.216 -0.0601572 5.83055 -0.0601572 5.59085 0.180472C 5.35926 0.412971 5.35926 0.799928 5.59085 1.03189L 9.93506 5.39301L 0.599778 5.39301C 0.265608 5.39355 0 5.66019 0 5.99566C 0 6.33114 0.265608 6.60645 0.599778 6.60645L 9.93506 6.60645L 5.59085 10.9594C 5.35926 11.2001 5.35926 11.5876 5.59085 11.8195C 5.83055 12.0602 6.21654 12.0602 6.4476 11.8195L 11.8202 6.42598C 12.0599 6.19348 12.0599 5.80652 11.8202 5.57456L 6.4476 0.180472Z" transform="matrix(-1 -1.22465e-16 1.22465e-16 -1 15531 -624)" fill="#A7ACBA"/>
        </g>
    </g>
</symbol><symbol id="icon-close" viewBox="0 0 18 19">
<title>Group</title>
<desc>Created using Figma</desc>
<g id="Canvas" transform="translate(-20378 -9322)">
<g id="Group">
<g id="Rectangle">
<use xlink:href="#path0_fill" transform="matrix(0.707107 -0.707107 0.707107 0.707107 20377.5 9338.92)" fill="#47437A"/>
</g>
<g id="Rectangle">
<use xlink:href="#path0_fill" transform="matrix(0.707107 0.707107 -0.707107 0.707107 20379.6 9321.95)" fill="#47437A"/>
</g>
</g>
</g>

</symbol><symbol id="icon-fb-single-news" viewBox="0 0 16 16">
    <title>Group</title>
    <desc>Created using Figma</desc>
    <g id="Canvas" transform="translate(-28645 326)">
        <g id="Group">
            <g id="Vector">
                <path d="M 8 16C 12.4183 16 16 12.4183 16 8C 16 3.58172 12.4183 0 8 0C 3.58172 0 0 3.58172 0 8C 0 12.4183 3.58172 16 8 16Z" transform="translate(28645 -326)" fill="#3B5998"/>
            </g>
            <g id="Vector">
                <path d="M 4.61892 5.2096L 3.19142 5.2096L 3.19142 10.4393L 1.02863 10.4393L 1.02863 5.2096L 3.91683e-08 5.2096L 3.91683e-08 3.37167L 1.02863 3.37167L 1.02863 2.18232C 1.02863 1.33181 1.43264 6.96326e-08 3.21067 6.96326e-08L 4.81272 0.00670248L 4.81272 1.79072L 3.65033 1.79072C 3.45966 1.79072 3.19156 1.88599 3.19156 2.2917L 3.19156 3.37338L 4.80787 3.37338L 4.61892 5.2096Z" transform="translate(28650.4 -322.896)" fill="#FFFFFF"/>
            </g>
        </g>
    </g>
</symbol><symbol id="icon-google-single-news" viewBox="0 0 16 16">
    <title>Group</title>
    <desc>Created using Figma</desc>
    <g id="Canvas" transform="translate(-28671 326)">
        <g id="Group">
            <g id="Group">
                <g id="XMLID 30">
                    <path d="M 8 16C 12.4183 16 16 12.4183 16 8C 16 3.58172 12.4183 0 8 0C 3.58172 0 0 3.58172 0 8C 0 12.4183 3.58172 16 8 16Z" transform="translate(28671 -326)" fill="#DC4E41"/>
                </g>
            </g>
            <g id="Group">
                <g id="Vector">
                    <path d="M 0.00202564 3.3031C -0.0263533 4.67955 0.921702 5.9931 2.22585 6.4215C 3.45427 6.8342 4.96463 6.52546 5.78205 5.47344C 6.37887 4.7363 6.51449 3.75359 6.44988 2.83549C 5.39787 2.82608 4.34585 2.82921 3.2954 2.83078C 3.29369 3.20555 3.29541 3.5789 3.29697 3.95367C 3.92687 3.97107 4.55691 3.96309 5.18681 3.97578C 5.0278 4.52068 4.66558 5.02779 4.11583 5.22459C 3.0544 5.69234 1.70005 5.08127 1.36607 3.96779C 0.962916 2.90151 1.6229 1.61477 2.71257 1.3046C 3.38824 1.06687 4.08431 1.33454 4.66244 1.68578C 4.95536 1.41169 5.22945 1.11878 5.49869 0.822724C 4.84184 0.273115 3.99775 -0.0638674 3.12998 0.0101459C 1.42739 0.0303962 -0.0625756 1.60222 0.00202564 3.3031Z" transform="translate(28673.8 -320.945)" fill="#DC4E41"/>
                </g>
                <g id="Vector">
                    <path d="M 0.949766 -1.04449e-07C 0.946629 0.313451 0.943349 0.628471 0.94178 0.94178C 0.62676 0.944918 0.313452 0.946487 1.9149e-07 0.948055C 1.9149e-07 1.26151 1.9149e-07 1.57325 1.9149e-07 1.8867C 0.313452 1.88827 0.628471 1.88984 0.94178 1.89312C 0.944918 2.20657 0.944917 2.51988 0.948055 2.8349C 1.25994 2.8349 1.57339 2.83333 1.8867 2.8349C 1.88841 2.51988 1.88984 2.20657 1.89312 1.89155C 2.20642 1.88998 2.52144 1.88841 2.8349 1.88684C 2.8349 1.57339 2.8349 1.26165 2.8349 0.948198C 2.52159 0.946629 2.20657 0.94506 1.89312 0.941923C 1.8914 0.628471 1.88841 0.313451 1.8867 0.000142425C 1.57339 -1.82785e-07 1.26151 -1.04449e-07 0.949766 -1.04449e-07Z" transform="translate(28681.3 -319.059)" fill="#DC4E41"/>
                </g>
                <g id="Group">
                    <g id="Vector">
                        <path d="M 0.00202583 3.30324C -0.0625754 1.60236 1.42725 0.0305389 3.12984 0.010146C 3.99761 -0.0638673 4.84184 0.273115 5.49855 0.822724C 5.22916 1.11892 4.95507 1.41169 4.6623 1.68578C 4.08417 1.33454 3.3881 1.06687 2.71243 1.30459C 1.62262 1.61491 0.96263 2.90166 1.36592 3.96779C 1.69991 5.08127 3.05426 5.69235 4.11568 5.22459C 4.66529 5.02779 5.02766 4.52068 5.18667 3.97578C 4.55677 3.96323 3.92673 3.97107 3.29683 3.95367C 3.29526 3.5789 3.29369 3.20555 3.29526 2.83078C 4.34571 2.82921 5.39773 2.82608 6.44974 2.83549C 6.51434 3.75374 6.37887 4.73645 5.78191 5.47344C 4.96448 6.52546 3.45427 6.8342 2.22571 6.4215C 0.921845 5.99325 -0.0263531 4.67969 0.00202583 3.30324Z" transform="translate(28673.8 -320.945)" fill="#FFFFFF"/>
                    </g>
                    <g id="Vector">
                        <path d="M 0.949766 -1.04449e-07C 1.26165 -1.04449e-07 1.57339 -1.04449e-07 1.8867 -1.04449e-07C 1.88841 0.313451 1.8914 0.628471 1.89312 0.94178C 2.20642 0.944918 2.52144 0.946487 2.8349 0.948055C 2.8349 1.26151 2.8349 1.57325 2.8349 1.8867C 2.52159 1.88827 2.20657 1.88984 1.89312 1.8914C 1.88998 2.20642 1.88841 2.51973 1.8867 2.83475C 1.57339 2.83318 1.25979 2.83475 0.948055 2.83475C 0.94506 2.51973 0.94506 2.20642 0.94178 1.89297C 0.628471 1.88969 0.313452 1.88827 1.9149e-07 1.88656C 1.9149e-07 1.5731 1.9149e-07 1.26136 1.9149e-07 0.947912C 0.313452 0.946344 0.626903 0.944775 0.94178 0.941638C 0.943349 0.628472 0.946486 0.313451 0.949766 -1.04449e-07Z" transform="translate(28681.3 -319.059)" fill="#FFFFFF"/>
                    </g>
                </g>
            </g>
        </g>
    </g>
</symbol><symbol id="icon-open" viewBox="0 0 24 19">
<title>menu</title>
<desc>Created using Figma</desc>
<g id="Canvas" transform="translate(-12928 -3653)">
<rect x="12928" y="3653" width="24" height="19" fill="#191919"/>
<clipPath id="clip-0" clip-rule="evenodd">
<path d="M 12729 2969L 13774 2969L 13774 3985L 12729 3985L 12729 2969Z" fill="#FFFFFF"/>
</clipPath>
<g id="icoKit" clip-path="url(#clip-0)">
<path d="M 12729 2969L 13774 2969L 13774 3985L 12729 3985L 12729 2969Z" fill="#F5F5F5"/>
<g id="menu">
<g id="Rectangle">
<use xlink:href="#path0_fill" transform="translate(12928 3669)" fill="#47437A"/>
</g>
<g id="Rectangle">
<use xlink:href="#path0_fill" transform="translate(12928 3653)" fill="#47437A"/>
</g>
<g id="Rectangle">
<use xlink:href="#path0_fill" transform="translate(12928 3661)" fill="#47437A"/>
</g>
</g>
</g>
</g>

</symbol><symbol id="icon-twitter-single-news" viewBox="0 0 16 16">
    <title>Group</title>
    <desc>Created using Figma</desc>
    <g id="Canvas" transform="translate(-28619 326)">
        <g id="Group">
            <g id="Vector">
                <path d="M 8 16C 12.4183 16 16 12.4183 16 8C 16 3.58172 12.4183 0 8 0C 3.58172 0 0 3.58172 0 8C 0 12.4183 3.58172 16 8 16Z" transform="translate(28619 -326)" fill="#55ACEE"/>
            </g>
            <g id="Group">
                <g id="Vector">
                    <path d="M 9.32055 0.896717C 8.97772 1.04874 8.60893 1.15156 8.22218 1.19748C 8.61706 0.96089 8.9201 0.586545 9.06314 0.139755C 8.69364 0.358943 8.28422 0.517951 7.84884 0.603658C 7.50002 0.232165 7.00303 -1.74082e-08 6.45271 -1.74082e-08C 5.39684 -1.74082e-08 4.54048 0.856359 4.54048 1.91223C 4.54048 2.06211 4.55745 2.20799 4.59025 2.34803C 3.00103 2.26832 1.59193 1.50708 0.648722 0.349816C 0.484153 0.632179 0.389747 0.96089 0.389747 1.31128C 0.389747 1.97454 0.727584 2.56009 1.2404 2.90292C 0.927092 2.89308 0.632037 2.80709 0.374345 2.66348C 0.374202 2.67161 0.374202 2.67974 0.374202 2.68773C 0.374202 3.61425 1.03362 4.38704 1.90823 4.56259C 1.74794 4.60651 1.57867 4.62975 1.40454 4.62975C 1.28104 4.62975 1.1614 4.61792 1.04474 4.59567C 1.28803 5.3552 1.99408 5.90809 2.83105 5.92363C 2.17648 6.43659 1.35206 6.7422 0.455916 6.7422C 0.3019 6.7422 0.14931 6.73322 9.13928e-08 6.71539C 0.845806 7.25815 1.85119 7.5746 2.93101 7.5746C 6.44829 7.5746 8.37178 4.66084 8.37178 2.13369C 8.37178 2.05084 8.36992 1.96827 8.36622 1.88641C 8.74013 1.61688 9.06428 1.28019 9.32055 0.896717Z" transform="translate(28622.6 -321.147)" fill="#F1F2F2"/>
                </g>
            </g>
        </g>
    </g>
</symbol><symbol id="icon-twitter" viewBox="0 0 25 20">
<path d="M25,2.37a10.36,10.36,0,0,1-2.94.8A5.09,5.09,0,0,0,24.31.37,10.44,10.44,0,0,1,21.05,1.6,5.15,5.15,0,0,0,17.31,0a5.09,5.09,0,0,0-5.13,5,5,5,0,0,0,.13,1.15A14.64,14.64,0,0,1,1.74.92,5,5,0,0,0,1,3.46a5,5,0,0,0,2.28,4.2A5.19,5.19,0,0,1,1,7v.06a5.08,5.08,0,0,0,4.11,5,5.27,5.27,0,0,1-1.35.18,5,5,0,0,1-1-.09,5.12,5.12,0,0,0,4.79,3.51A10.39,10.39,0,0,1,1.22,17.8,11.07,11.07,0,0,1,0,17.73,14.66,14.66,0,0,0,7.86,20,14.37,14.37,0,0,0,22.45,5.63l0-.65A10.16,10.16,0,0,0,25,2.37Z"/>
</symbol><symbol id="icon-vk-single-news" viewBox="0 0 16 16">
    <title>Group</title>
    <desc>Created using Figma</desc>
    <g id="Canvas" transform="translate(-28593 326)">
        <g id="Group">
            <g id="Group">
                <g id="XMLID 11">
                    <path d="M 8 16C 12.4183 16 16 12.4183 16 8C 16 3.58172 12.4183 0 8 0C 3.58172 0 0 3.58172 0 8C 0 12.4183 3.58172 16 8 16Z" transform="translate(28593 -326)" fill="#4D76A1"/>
                </g>
            </g>
            <g id="Vector">
                <path fill-rule="evenodd" d="M 5.1395 5.96764L 5.7674 5.96764C 5.7674 5.96764 5.95707 5.94681 6.0539 5.84243C 6.14303 5.74659 6.14018 5.56662 6.14018 5.56662C 6.14018 5.56662 6.12791 4.7241 6.51894 4.60003C 6.90441 4.47781 7.3994 5.41432 7.92406 5.7744C 8.32079 6.04693 8.62226 5.98717 8.62226 5.98717L 10.0251 5.96764C 10.0251 5.96764 10.759 5.92243 10.411 5.34544C 10.3825 5.29823 10.2083 4.91861 9.36796 4.13855C 8.48835 3.32212 8.60615 3.45418 9.66572 2.04193C 10.311 1.18187 10.569 0.656786 10.4884 0.431894C 10.4116 0.217698 9.93696 0.274313 9.93696 0.274313L 8.35744 0.284153C 8.35744 0.284153 8.24036 0.268181 8.15351 0.32009C 8.06866 0.371001 8.01404 0.489651 8.01404 0.489651C 8.01404 0.489651 7.76405 1.1552 7.43063 1.72121C 6.72729 2.91555 6.44607 2.97858 6.33113 2.90442C 6.06374 2.73158 6.13048 2.21007 6.13048 1.83957C 6.13048 0.682171 6.30603 0.199587 5.78865 0.0746626C 5.61695 0.0331638 5.4906 0.00578315 5.05151 0.00136231C 4.48793 -0.0044846 4.01091 0.00307341 3.74081 0.135413C 3.56112 0.223402 3.42251 0.419487 3.50693 0.430753C 3.61132 0.444729 3.84776 0.494499 3.97311 0.6652C 4.13497 0.885387 4.12927 1.37995 4.12927 1.37995C 4.12927 1.37995 4.22225 2.74242 3.91208 2.9117C 3.69917 3.02778 3.4071 2.79077 2.78006 1.70723C 2.45876 1.15221 2.21619 0.538707 2.21619 0.538707C 2.21619 0.538707 2.16941 0.424051 2.08599 0.362729C 1.98474 0.288431 1.84327 0.264759 1.84327 0.264759L 0.342325 0.274598C 0.342325 0.274598 0.117005 0.280873 0.0342926 0.378844C -0.0392929 0.465978 0.0284456 0.646234 0.0284456 0.646234C 0.0284456 0.646234 1.20353 3.39542 2.53406 4.78085C 3.75407 6.05106 5.1395 5.96764 5.1395 5.96764Z" transform="translate(28595.6 -320.459)" fill="#FFFFFF"/>
            </g>
        </g>
    </g>
</symbol><symbol id="icon-vk" viewBox="0 0 32 18">
<path d="M27.54,11.45a43.43,43.43,0,0,1,3.13,3.13,9.1,9.1,0,0,1,1.12,1.61c.43.83,0,1.75-.71,1.8H26.43a3.61,3.61,0,0,1-3-1.2c-.65-.65-1.24-1.35-1.86-2a4.41,4.41,0,0,0-.84-.74,1,1,0,0,0-1.55.37,4.84,4.84,0,0,0-.49,2.16c0,1.09-.38,1.38-1.48,1.43a12,12,0,0,1-6.67-1.43,14.7,14.7,0,0,1-4.49-4.18A56.14,56.14,0,0,1,.16,1.91C-.21,1.09.06.64,1,.63c1.52,0,3,0,4.56,0a1.34,1.34,0,0,1,1.27.94A28.07,28.07,0,0,0,9.9,7.27a4.87,4.87,0,0,0,1.17,1.28.71.71,0,0,0,1.21-.35A3.93,3.93,0,0,0,12.54,7a17.69,17.69,0,0,0-.07-4.19A1.75,1.75,0,0,0,11,1.21c-.45-.08-.38-.25-.16-.5A1.68,1.68,0,0,1,12.24,0h5.27c.83.16,1,.53,1.13,1.36V7.18c0,.32.16,1.27.74,1.49s.77-.22,1.05-.51a18,18,0,0,0,3-4.53c.36-.72.66-1.46,1-2.2A1.13,1.13,0,0,1,25.55.61h5.07a2.69,2.69,0,0,1,.45,0c.85.14,1.09.51.82,1.34a12.57,12.57,0,0,1-2,3.47C29,6.62,28.13,7.74,27.29,8.91S26.58,10.52,27.54,11.45Z"/>
</symbol><symbol id="icon-youtube" viewBox="0 0 28 22">
<path fill-rule="evenodd" d="M 26.5996 1.6499C 27.4209 2.59985 27.71 4.75 27.71 4.75C 27.71 4.75 28 7.30005 28 9.84985L 28 12.2C 28 14.7 27.71 17.25 27.71 17.25C 27.71 17.25 27.4209 19.4001 26.5996 20.3501C 25.5898 21.4917 24.4482 21.5925 23.8818 21.6426L 23.7998 21.6499C 19.8896 22 14 22 14 22C 14 22 6.70996 21.95 4.48926 21.7002C 4.37109 21.6719 4.22559 21.6509 4.06055 21.6267C 3.34766 21.5229 2.26172 21.3647 1.40039 20.3501C 0.579102 19.4001 0.290039 17.25 0.290039 17.25C 0.290039 17.25 0 14.75 0 12.2L 0 9.8501C 0 7.30005 0.290039 4.75 0.290039 4.75C 0.290039 4.75 0.53125 2.6001 1.40039 1.6499C 2.41016 0.508301 3.55176 0.407471 4.11816 0.357422L 4.2002 0.350098C 8.11035 0.0500488 14 0 14 0C 14 0 19.8896 0.0500488 23.7998 0.350098L 23.9316 0.361084C 24.5127 0.406982 25.6182 0.494385 26.5996 1.6499ZM 10.6201 16.8003L 10.6201 5.9502L 19.793 11.5002L 10.6201 16.8003Z"/>
</symbol></svg>