<svg xmlns="http://www.w3.org/2000/svg" fill="#c1b1c4" viewBox="0 0 48 48">
<path d="M14.73,13h-3.3c-1.27,0-1.92.22-1.92,1.27v1.2c0,1.05.65,1.27,1.92,1.27h.76c.47,0,.69.25.69,1V33.46c0,1.27.22,1.93,1.27,1.93h1.23c1.05,0,1.27-.65,1.27-1.93V14.29C16.65,13.24,16,13,14.73,13Z"/>
<path id="path1_fill" data-name="path1 fill" class="cls-1" d="M44.84,21.31c0,.54-.25.84-.76.84H41.65V20.44c0-1.27-.18-1.93-1.27-1.93H39.29c-1.09,0-1.27.65-1.27,1.93v1.71H36.31c-1.27,0-1.92.18-1.92,1.27v1.16c0,1.09.65,1.27,1.92,1.27H38v1.71c0,1.27.18,1.93,1.27,1.93h1.09c1.09,0,1.27-.65,1.27-1.93V25.85h2.43a.7.7,0,0,1,.76.73v5.53a4.21,4.21,0,0,1-1.34,3.27l-8.1,8.11a4.41,4.41,0,0,1-3.3,1.38H15.9a4.41,4.41,0,0,1-3.3-1.38L4.5,35.38a4.14,4.14,0,0,1-1.34-3.27v-16a4.72,4.72,0,0,1,1.42-3.49l8.24-8.36A4.1,4.1,0,0,1,15.9,3.13H32.1a4.1,4.1,0,0,1,3.09,1.09l8.24,8.36a4.87,4.87,0,0,1,1.42,3.49ZM37.4,2.11A7.36,7.36,0,0,0,32.06,0H15.94A7.3,7.3,0,0,0,10.6,2.11L2.07,10.62A7.09,7.09,0,0,0,0,15.71v16.4A7.25,7.25,0,0,0,2.29,37.6l8.1,8.11A7.34,7.34,0,0,0,16,48H32a7.5,7.5,0,0,0,5.66-2.29l8.1-8.11A7.44,7.44,0,0,0,48,32.11V15.71a7.09,7.09,0,0,0-2.07-5.09Z"/>
<path id="path2_fill" data-name="path2 fill" class="cls-1" d="M26.3,32.22c-2.32,0-3.16-.91-3.16-3.2s.84-3.35,3.16-3.35,3.16,1.05,3.16,3.35S28.62,32.22,26.3,32.22ZM26.3,16c2,0,2.8.73,2.8,3.16s-.8,3.16-2.8,3.16-2.8-.8-2.8-3.16S24.3,16,26.3,16Zm4.28,7.82a4.55,4.55,0,0,0,2.07-4.25V18.29c-.22-4.11-1.6-5.67-6.35-5.67s-6.14,1.56-6.35,5.67v1.24A4.55,4.55,0,0,0,22,23.78c-2.43.95-2.61,3-2.61,5.74,0,4,1.42,6,6.9,6.15,5.48-.11,6.9-2.11,6.9-6.15C33.2,26.8,33,24.73,30.58,23.78Z"/>
</svg>