<svg width="7" height="5" viewBox="0 0 7 5" version="1.1" xmlns="http://www.w3.org/2000/svg" xmlns:xlink="http://www.w3.org/1999/xlink">
<title>Vector</title>
<desc>Created using Figma</desc>
<g id="Canvas" transform="translate(-15480 634)">
<g id="Vector">
<use xlink:href="#path0_fill" transform="matrix(-1.83697e-16 1 -1 -1.83697e-16 15486 -633)" fill="#60687F"/>
<use xlink:href="#path1_stroke" transform="matrix(-1.83697e-16 1 -1 -1.83697e-16 15486 -633)" fill="#60687F"/>
</g>
</g>
<defs>
<path id="path0_fill" d="M 0.469605 0.0751965C 0.364059 -0.0250655 0.188396 -0.0250655 0.0791594 0.0751965C -0.0263865 0.172071 -0.0263865 0.333303 0.0791594 0.429952L 2.05894 2.24709L 2.3164 2.5L 2.05894 2.75269L 0.0791594 4.56643C -0.0263865 4.6667 -0.0263865 4.82815 0.0791594 4.9248C 0.188396 5.02507 0.364305 5.02507 0.469605 4.9248L 2.91807 2.67749C 3.02731 2.58062 3.02731 2.41938 2.91807 2.32274L 0.469605 0.0751965Z"/>
<path id="path1_stroke" d="M 0.469605 0.0751965L 0.297399 0.256478L 0.300547 0.259368L 0.469605 0.0751965ZM 0.0791594 0.0751965L 0.248208 0.259377L 0.0791594 0.0751965ZM 0.0791594 0.429952L 0.248209 0.245772L 0.247994 0.245575L 0.0791594 0.429952ZM 2.05894 2.24709L 2.23424 2.06864L 2.22799 2.06291L 2.05894 2.24709ZM 2.05894 2.75269L 2.22792 2.93713L 2.23406 2.93111L 2.05894 2.75269ZM 0.0791594 4.56643L -0.0897459 4.38207L -0.093022 4.38518L 0.0791594 4.56643ZM 0.0791594 4.9248L 0.248209 4.74062L 0.247994 4.74043L 0.0791594 4.9248ZM 0.469605 4.9248L 0.300528 4.74059L 0.297213 4.74375L 0.469605 4.9248ZM 2.91807 2.67749L 2.75217 2.49042L 2.74902 2.49331L 2.91807 2.67749ZM 2.91807 2.32274L 2.74899 2.50694L 2.75241 2.50997L 2.91807 2.32274ZM 2.3164 2.5L 2.49151 2.67842L 2.67322 2.50008L 2.49159 2.32166L 2.3164 2.5ZM 0.641786 -0.106059C 0.438128 -0.299521 0.113282 -0.295464 -0.0898896 -0.108984L 0.248208 0.259377C 0.253313 0.254692 0.262843 0.25 0.275766 0.25C 0.288711 0.25 0.295464 0.25459 0.297424 0.256452L 0.641786 -0.106059ZM -0.0898896 -0.108984C -0.303244 0.0868422 -0.303568 0.418467 -0.0896754 0.614329L 0.247994 0.245575C 0.247392 0.245024 0.248131 0.245566 0.248908 0.247346C 0.249608 0.24895 0.25 0.250787 0.25 0.252659C 0.25 0.25453 0.249609 0.256323 0.248942 0.257852C 0.248199 0.259554 0.24752 0.260008 0.248208 0.259377L -0.0898896 -0.108984ZM -0.0898896 0.614133L 1.8899 2.43127L 2.22799 2.06291L 0.248208 0.245772L -0.0898896 0.614133ZM 1.89007 2.56835L -0.0897183 4.3821L 0.248037 4.75077L 2.22782 2.93702L 1.89007 2.56835ZM -0.093022 4.38518C -0.300382 4.58216 -0.305386 4.91165 -0.0896754 5.10918L 0.247994 4.74043C 0.247445 4.73992 0.248217 4.74052 0.248997 4.74231C 0.249701 4.74393 0.25 4.74558 0.25 4.74697C 0.25 4.74836 0.249711 4.7493 0.249532 4.74972C 0.24929 4.75028 0.249448 4.74949 0.251341 4.74769L -0.093022 4.38518ZM -0.0898896 5.10898C 0.113166 5.29536 0.438421 5.2997 0.641998 5.10586L 0.297213 4.74375C 0.29551 4.74537 0.288909 4.75 0.275858 4.75C 0.262834 4.75 0.253265 4.74526 0.248208 4.74062L -0.0898896 5.10898ZM 0.638654 5.10898L 3.08712 2.86167L 2.74902 2.49331L 0.300556 4.74062L 0.638654 5.10898ZM 3.08395 2.86453C 3.30522 2.6683 3.30555 2.33176 3.08373 2.1355L 2.75241 2.50997C 2.75363 2.51105 2.75277 2.51063 2.75169 2.50825C 2.75069 2.50603 2.75 2.50317 2.75 2.50003C 2.75 2.49689 2.75069 2.49407 2.75166 2.49192C 2.75269 2.48963 2.7535 2.48929 2.7522 2.49045L 3.08395 2.86453ZM 3.08713 2.13856L 0.638663 -0.108975L 0.300547 0.259368L 2.74901 2.50691L 3.08713 2.13856ZM 2.23406 2.93111L 2.49151 2.67842L 2.14128 2.32158L 1.88383 2.57427L 2.23406 2.93111ZM 2.49159 2.32166L 2.23414 2.06875L 1.88375 2.42543L 2.1412 2.67834L 2.49159 2.32166Z"/>
</defs>
</svg>
