<svg width="23" height="16" viewBox="0 0 23 16" version="1.1" xmlns="http://www.w3.org/2000/svg" xmlns:xlink="http://www.w3.org/1999/xlink">
<title>back</title>
<desc>Created using Figma</desc>
<g id="Canvas" transform="translate(-13045 -3144)">
<g id="back">
<use xlink:href="#path0_fill" transform="matrix(-1 -1.68234e-16 1.68234e-16 -1 13068 3160)" fill="#BDBDBD"/>
</g>
</g>
<defs>
<path id="path0_fill" d="M 15.4879 0.240629C 15.1746 -0.0802096 14.6531 -0.0802096 14.3288 0.240629C 14.0155 0.550628 14.0155 1.06657 14.3288 1.37585L 20.2063 7.19068L 0.811464 7.19068C 0.359352 7.1914 0 7.54692 0 7.99422C 0 8.44151 0.359352 8.8086 0.811464 8.8086L 20.2063 8.8086L 14.3288 14.6126C 14.0155 14.9334 14.0155 15.4501 14.3288 15.7594C 14.6531 16.0802 15.1753 16.0802 15.4879 15.7594L 22.7568 8.56797C 23.0811 8.25797 23.0811 7.74203 22.7568 7.43275L 15.4879 0.240629Z"/>
</defs>
</svg>
