<svg xmlns="http://www.w3.org/2000/svg" fill="#ffffff" viewBox="0 0 41.5 31.5">
<path d="M37.23,4H35.38V1.08a.83.83,0,0,0-1.67,0V4H7.78V1.08a.83.83,0,0,0-1.67,0V4H4.27a4,4,0,0,0-4,4V27.27a4,4,0,0,0,4,4h33a4,4,0,0,0,4-4V8A4,4,0,0,0,37.23,4Zm2.35,4v3.25h-18V5.65H37.23A2.34,2.34,0,0,1,39.58,8ZM4.27,5.65H19.92v5.58h-18V8A2.34,2.34,0,0,1,4.27,5.65ZM1.92,27.27V12.88h18V29.6H4.27A2.34,2.34,0,0,1,1.92,27.27ZM37.23,29.6H21.58V12.88h18V27.27A2.34,2.34,0,0,1,37.23,29.6Z"/>
<path d="M35.38,4h-.25v.25h.25ZM33.72,4v.25H34V4ZM7.78,4H7.53v.25h.25ZM6.12,4v.25h.25V4Zm33.47,7.23v.25h.25v-.25Zm-18,0h-.25v.25h.25Zm0-5.58V5.4h-.25v.25Zm-1.67,0h.25V5.4h-.25Zm0,5.58v.25h.25v-.25Zm-18,0H1.67v.25h.25Zm0,1.65v-.25H1.67v.25Zm18,0h.25v-.25h-.25Zm0,16.72v.25h.25V29.6Zm1.67,0h-.25v.25h.25Zm0-16.72v-.25h-.25v.25Zm18,0h.25v-.25h-.25ZM37.23,3.75H35.38v.5h1.85ZM35.63,4V1.08h-.5V4Zm0-2.93A1.08,1.08,0,0,0,34.55,0V.5a.58.58,0,0,1,.58.58ZM34.55,0a1.08,1.08,0,0,0-1.08,1.08H34A.58.58,0,0,1,34.55.5ZM33.47,1.08V4H34V1.08Zm.25,2.68H7.78v.5H33.72ZM8,4V1.08h-.5V4ZM8,1.08A1.08,1.08,0,0,0,6.95,0V.5a.58.58,0,0,1,.58.58ZM6.95,0A1.08,1.08,0,0,0,5.87,1.08h.5A.58.58,0,0,1,6.95.5ZM5.87,1.08V4h.5V1.08Zm.25,2.68H4.27v.5H6.12Zm-1.85,0A4.25,4.25,0,0,0,0,8H.5A3.75,3.75,0,0,1,4.27,4.25ZM0,8V27.27H.5V8ZM0,27.27A4.25,4.25,0,0,0,4.27,31.5V31A3.75,3.75,0,0,1,.5,27.27ZM4.27,31.5h33V31h-33Zm33,0a4.25,4.25,0,0,0,4.27-4.23H41A3.75,3.75,0,0,1,37.23,31Zm4.27-4.23V8H41V27.27ZM41.5,8a4.25,4.25,0,0,0-4.27-4.23v.5A3.75,3.75,0,0,1,41,8ZM39.33,8v3.25h.5V8Zm.25,3h-18v.5h18Zm-17.75.25V5.65h-.5v5.58ZM21.58,5.9H37.23V5.4H21.58Zm15.65,0A2.09,2.09,0,0,1,39.33,8h.5a2.59,2.59,0,0,0-2.6-2.58Zm-33,0H19.92V5.4H4.27Zm15.4-.25v5.58h.5V5.65ZM19.92,11h-18v.5h18Zm-17.75.25V8h-.5v3.25ZM2.17,8A2.09,2.09,0,0,1,4.27,5.9V5.4A2.59,2.59,0,0,0,1.67,8Zm0,19.29V12.88h-.5V27.27ZM1.92,13.13h18v-.5h-18Zm17.75-.25V29.6h.5V12.88Zm.25,16.47H4.27v.5H19.92Zm-15.65,0a2.09,2.09,0,0,1-2.1-2.08h-.5a2.59,2.59,0,0,0,2.6,2.58Zm33,0H21.58v.5H37.23Zm-15.4.25V12.88h-.5V29.6Zm-.25-16.47h18v-.5h-18Zm17.75-.25V27.27h.5V12.88Zm0,14.39a2.09,2.09,0,0,1-2.1,2.08v.5a2.59,2.59,0,0,0,2.6-2.58Z"/>
<path d="M10.85,16.25h-.19a3.23,3.23,0,0,0-3.4,3v4a3.23,3.23,0,0,0,3.4,3h.19a3.23,3.23,0,0,0,3.4-3v-4A3.23,3.23,0,0,0,10.85,16.25Zm1.84,7a1.74,1.74,0,0,1-1.84,1.63h-.19a1.74,1.74,0,0,1-1.84-1.63v-4a1.74,1.74,0,0,1,1.84-1.63h.19a1.74,1.74,0,0,1,1.84,1.63Z"/>
<path d="M10.85,16h-.19v.5h.19Zm-.19,0A3.48,3.48,0,0,0,7,19.27h.5a3,3,0,0,1,3.15-2.77ZM7,19.27v4h.5v-4Zm0,4a3.48,3.48,0,0,0,3.65,3.27V26A3,3,0,0,1,7.5,23.23Zm3.65,3.27h.19V26h-.19Zm.19,0a3.48,3.48,0,0,0,3.65-3.27H14A3,3,0,0,1,10.85,26Zm3.65-3.27v-4H14v4Zm0-4A3.48,3.48,0,0,0,10.85,16v.5A3,3,0,0,1,14,19.27Zm-2.07,4a1.49,1.49,0,0,1-1.59,1.38v.5a2,2,0,0,0,2.09-1.88Zm-1.59,1.38h-.19v.5h.19Zm-.19,0a1.49,1.49,0,0,1-1.59-1.38h-.5a2,2,0,0,0,2.09,1.88ZM9.07,23.23v-4h-.5v4Zm0-4a1.49,1.49,0,0,1,1.59-1.38v-.5a2,2,0,0,0-2.09,1.88Zm1.59-1.38h.19v-.5h-.19Zm.19,0a1.49,1.49,0,0,1,1.59,1.38h.5a2,2,0,0,0-2.09-1.88Zm1.59,1.38v4h.5v-4Z"/>
<path d="M29.25,17.75a1.5,1.5,0,0,1,3,0v7a1.5,1.5,0,0,1-3,0Z"/>
</svg>