<svg width="25" height="26" viewBox="0 0 25 26" version="1.1" xmlns="http://www.w3.org/2000/svg" xmlns:xlink="http://www.w3.org/1999/xlink">
<title>Group</title>
<desc>Created using Figma</desc>
<g id="Canvas" transform="translate(-50768 -268)">
<g id="Group">
<g id="Vector">
<use xlink:href="#path0_fill" transform="matrix(0.707107 -0.707107 0.707107 0.707107 50768 280.799)" fill="#E0E0E0"/>
</g>
</g>
</g>
<defs>
<path id="path0_fill" d="M 16.5839 7.54435L 9.99116 7.54435L 9.99116 0.951543C 9.99116 0.651213 9.58334 1.69345e-12 8.76774 1.69345e-12C 7.95214 1.69345e-12 7.54432 0.651249 7.54432 0.951543L 7.54432 7.54439L 0.951539 7.54439C 0.651246 7.54435 0 7.95217 0 8.76774C 0 9.58331 0.651246 9.99116 0.951539 9.99116L 7.54436 9.99116L 7.54436 16.584C 7.54436 16.8843 7.95214 17.5355 8.76777 17.5355C 9.58341 17.5355 9.99119 16.8843 9.99119 16.584L 9.99119 9.99116L 16.584 9.99116C 16.8843 9.99116 17.5355 9.58338 17.5355 8.76774C 17.5355 7.9521 16.8842 7.54435 16.5839 7.54435Z"/>
</defs>
</svg>
