<svg viewBox="0 0 120 134" version="1.1" xmlns="http://www.w3.org/2000/svg" xmlns:xlink="http://www.w3.org/1999/xlink">
<title>dislike</title>
<desc>Created using Figma</desc>
<g id="Canvas" transform="translate(-13177 -3079)">
<g id="dislike">
<g id="Vector">
<use xlink:href="#path0_fill" transform="matrix(-1 -1.22465e-16 1.22465e-16 -1 13239 3187)" fill="#F05454"/>
</g>
<g id="Vector">
<use xlink:href="#path0_fill" transform="matrix(1 2.44929e-16 -2.44929e-16 1 13235 3107)" fill="#F05454"/>
</g>
<g id="Vector">
<use xlink:href="#path1_fill" transform="translate(13195 3101)" fill="#F05454"/>
</g>
<g id="Vector">
<use xlink:href="#path2_fill" transform="translate(13237 3153.47)" fill="#F05454"/>
</g>
<g id="Vector">
<use xlink:href="#path3_fill" transform="matrix(-0.866101 -0.499869 0.500131 -0.86595 13260.5 3234)" fill="#F05454"/>
</g>
<g id="Vector">
<use xlink:href="#path4_fill" transform="matrix(-0.866101 -0.499869 0.500131 -0.86595 13246.5 3133.59)" fill="#F05454"/>
</g>
</g>
</g>
<defs>
<path id="path0_fill" fill-rule="evenodd" d="M 59.975 0.00430856L 48.4489 0.00430856C 47.3306 0.00430856 46.4239 0.901192 46.4239 2.00759L 46.4239 2.78469C 46.4239 2.78469 37.3363 0.969742 31.4359 0.432092C 25.9032 -0.0720574 17.2162 0.0040999 17.2162 0.0040999C 14.1645 0.0040999 11 2.5041 10.1484 5.25269L 0.0557262 27.9697C -0.438816 31.6031 2.42149 34.8351 6.12366 34.8351L 19.0574 34.8351L 21.8232 45.431C 22.6839 48.7281 25.6956 51.0042 29.0985 51.0041C 34.1192 51.0041 37.6371 46.5681 36.3464 41.6243L 35.1252 36.9466C 34.6929 35.2906 35.5785 33.5658 37.1853 32.9343L 39.4238 32.0549L 39.4238 32.832C 39.4238 33.9383 40.3304 34.8353 41.4488 34.8353L 51.975 34.8353C 53.0933 34.8353 54 33.9384 54 32.832L 62 2.00759C 62 0.901297 61.0933 0.00430856 59.975 0.00430856ZM 35.6906 29.2109L 39.4239 27.7442L 46.4238 7.0957C 46.4238 7.0957 36.4571 4.69566 29.9408 4.15568C 24.9882 3.74528 17.2162 4.01055 17.2162 4.01055C 16.1832 4.01055 14.5 5.0041 14.1622 5.78731L 4.06955 28.5044C 3.90206 29.7331 4.86278 30.8286 6.12366 30.8286L 20.626 30.8286C 21.5493 30.8286 22.3557 31.4466 22.5866 32.3309L 25.7447 44.4292C 26.1613 46.025 27.6696 47.101 29.3387 46.9896C 31.6818 46.8313 33.0143 44.8821 32.4254 42.6261L 31.2042 37.9485C 30.2627 34.3422 32.1916 30.5857 35.6906 29.2109ZM 43.4738 30.8289L 49.95 30.8289L 57.95 4.01065L 50.4738 4.01065C 50.4738 5.34617 43.4738 30.1759 43.4738 30.8289Z"/>
<path id="path1_fill" d="M 43.9999 0C 22.4016 0 3.89796 15.4859 -5.63914e-07 36.8198L 3.82599 37.5261C 7.38356 18.0509 24.2786 3.91304 43.9999 3.91304C 44.6223 3.91304 45.2447 3.92869 45.8594 3.95413L 46.0305 0.0449995C 45.3575 0.0156517 44.6806 0 43.9999 0Z"/>
<path id="path2_fill" d="M 42.2045 -5.97083e-07C 38.647 19.4752 21.7519 33.613 2.03067 33.613C 1.40824 33.613 0.785817 33.5974 0.171169 33.572L -1.21687e-06 37.4811C 0.673 37.5104 1.34989 37.5261 2.03067 37.5261C 23.627 37.5261 42.1326 22.0402 46.0305 0.706304L 42.2045 -5.97083e-07Z"/>
<path id="path3_fill" d="M 60.1302 0C 30.614 0 5.32695 21.0399 -7.70645e-07 50.0252L 5.2286 50.9848C 10.0904 24.5248 33.1791 5.31645 60.1302 5.31645C 60.9808 5.31645 61.8314 5.33772 62.6714 5.37228L 62.9053 0.0611386C 61.9856 0.0212652 61.0606 0 60.1302 0Z"/>
<path id="path4_fill" d="M 57.6767 -8.11227e-07C 52.815 26.46 29.7262 45.6683 2.77512 45.6683C 1.92451 45.6683 1.0739 45.6471 0.23392 45.6125L -1.66297e-06 50.9237C 0.919721 50.9635 1.84476 50.9848 2.77512 50.9848C 32.2887 50.9848 57.5784 29.9449 62.9053 0.959619L 57.6767 -8.11227e-07Z"/>
</defs>
</svg>
