<svg xmlns="http://www.w3.org/2000/svg" xmlns:xlink="http://www.w3.org/1999/xlink" viewBox="0 0 32 31">
<defs><style>.cls-1{fill:url(#Безымянный_градиент_6);}.cls-2{fill:url(#Безымянный_градиент_6-2);}
.cls-3{fill:url(#Безымянный_градиент_6-3);}.cls-4{fill:url(#Безымянный_градиент_6-4);}.cls-5{fill:url(#Безымянный_градиент_6-5);}.cls-6{fill:url(#Безымянный_градиент_6-6);}</style>
<linearGradient id="Безымянный_градиент_6" x1="-394.9" y1="325.39" x2="-393.9" y2="325.39" gradientTransform="matrix(0, 31, 32, 0, -10396.59, 12242)" gradientUnits="userSpaceOnUse">
<stop offset="0" stop-color="#7c3475"/>
<stop offset="1" stop-color="#454a5e"/>
</linearGradient>
<linearGradient id="Безымянный_градиент_6-2" x1="-370.3" y1="366.74" x2="-369.3" y2="366.74" gradientTransform="matrix(0, 8.37, 7.49, 0, -2735.84, 3104.8)" xlink:href="#Безымянный_градиент_6"/><linearGradient id="Безымянный_градиент_6-3" x1="-280.44" y1="336.76" x2="-279.44" y2="336.76" gradientTransform="matrix(0, 2.28, 16.84, 0, -5658.06, 662.83)" xlink:href="#Безымянный_градиент_6"/><linearGradient id="Безымянный_градиент_6-4" x1="-280.44" y1="337.3" x2="-279.44" y2="337.3" gradientTransform="matrix(0, 2.28, 16.47, 0, -5540.97, 657.32)" xlink:href="#Безымянный_градиент_6"/><linearGradient id="Безымянный_градиент_6-5" x1="-280.44" y1="374.45" x2="-279.44" y2="374.45" gradientTransform="matrix(0, 2.28, 6.55, 0, -2433.77, 646.28)" xlink:href="#Безымянный_градиент_6"/><linearGradient id="Безымянный_градиент_6-6" x1="-280.44" y1="374.45" x2="-279.44" y2="374.45" gradientTransform="matrix(0, 2.28, 6.55, 0, -2433.77, 651.8)" xlink:href="#Безымянный_градиент_6"/></defs><title>folded-newspaper</title><g id="Слой_2" data-name="Слой 2"><g id="Слой_1-2" data-name="Слой 1"><path id="path0_fill" data-name="path0 fill" class="cls-1" d="M5.52,31H27.94a1.08,1.08,0,0,0,.49-.11c.15-.08,3.57-1.81,3.57-5.29V7.8a1.14,1.14,0,0,0-1.12-1.14H26.95V1.14A1.14,1.14,0,0,0,25.82,0H1.12A1.14,1.14,0,0,0,0,1.14V25.35a1.1,1.1,0,0,0,0,.25C.07,25.83,1.25,31,5.52,31ZM2.25,2.28H24.7V23.77a1.12,1.12,0,1,0,2.25,0V8.94h2.81V25.6a4,4,0,0,1-2.11,3.12H5.52c-2.21,0-3.11-2.91-3.27-3.52Z"/><path id="path1_fill" data-name="path1 fill" class="cls-2" d="M13.08,7.23A1.14,1.14,0,0,0,12,6.09H6.72A1.14,1.14,0,0,0,5.6,7.23v6.09a1.14,1.14,0,0,0,1.12,1.14H12a1.14,1.14,0,0,0,1.12-1.14ZM7.85,8.37h3v3.8h-3Z"/><path id="path2_fill" data-name="path2 fill" class="cls-3" d="M6.32,25.1h14.6a1.14,1.14,0,0,0,0-2.28H6.32a1.14,1.14,0,0,0,0,2.28Z"/><path id="path3_fill" data-name="path3 fill" class="cls-4" d="M6.52,19.59H20.75a1.14,1.14,0,0,0,0-2.28H6.52a1.14,1.14,0,0,0,0,2.28Z"/><path id="path4_fill" data-name="path4 fill" class="cls-5" d="M16.62,8.56h4.3a1.14,1.14,0,0,0,0-2.28h-4.3a1.14,1.14,0,0,0,0,2.28Z"/>
<path id="path5_fill" data-name="path5 fill" class="cls-6" d="M16.62,14.07h4.3a1.14,1.14,0,0,0,0-2.28h-4.3a1.14,1.14,0,0,0,0,2.28Z"/>
</g></g></svg>