<svg xmlns="http://www.w3.org/2000/svg" fill="#ffffff" viewBox="0 0 38 34">
<path d="M23.87,31.5H15.2V27.75a1.26,1.26,0,0,0-1.27-1.25h-3.8c-2.33,0-2.53-1.08-2.53-1.25v-2.5H8.87v-2.5H2.53V15A12.58,12.58,0,0,1,15.2,2.5V0A15.1,15.1,0,0,0,0,15v5.25a2.52,2.52,0,0,0,2.53,2.5H5.07v2.5C5.07,26.5,6.13,29,10.13,29h2.53v3.75A1.26,1.26,0,0,0,13.93,34h11.2a1.26,1.26,0,0,0,1.27-1.25V25H23.87Z"/>
<path d="M26.6,0A11.33,11.33,0,0,0,15.2,11.25a11.4,11.4,0,0,0,22.8,0A11.33,11.33,0,0,0,26.6,0Zm0,20A8.74,8.74,0,0,1,25.33,2.6v8.65a1.24,1.24,0,0,0,.37.89l6.21,6.13A9,9,0,0,1,26.6,20Zm1.27-10V2.6a8.81,8.81,0,0,1,7.5,7.4Z"/>
</svg>