<svg width="15" height="15" viewBox="0 0 15 15" version="1.1" xmlns="http://www.w3.org/2000/svg" xmlns:xlink="http://www.w3.org/1999/xlink">
<title>Group</title>
<desc>Created using Figma</desc>
<g id="Canvas" transform="translate(-27594 -9481)">
<g id="Group">
<g id="Vector">
<use xlink:href="#path0_fill" transform="translate(27594 9481)" fill="#60687F"/>
</g>
<g id="Vector">
<use xlink:href="#path1_fill" transform="translate(27598.3 9485.26)" fill="#60687F"/>
</g>
</g>
</g>
<defs>
<path id="path0_fill" d="M 14.2322 5.92542L 13.1794 5.74681C 13.0697 5.39273 12.9287 5.05118 12.7563 4.7253L 13.3768 3.85732C 13.64 3.48757 13.5993 2.98308 13.2765 2.66346L 12.3427 1.72968C 12.1673 1.55421 11.9354 1.45707 11.6878 1.45707C 11.4936 1.45707 11.3087 1.51661 11.152 1.62941L 10.2809 2.24984C 9.94249 2.07123 9.58841 1.92396 9.2218 1.81429L 9.04632 0.773971C 8.97112 0.325883 8.5857 1.48829e-12 8.13135 1.48829e-12L 6.81216 1.48829e-12C 6.35781 1.48829e-12 5.97239 0.325883 5.89719 0.773971L 5.71545 1.83936C 5.3645 1.94903 5.02295 2.09317 4.69707 2.26864L 3.83536 1.64821C 3.67869 1.53541 3.49068 1.47587 3.29641 1.47587C 3.04886 1.47587 2.81385 1.57301 2.64151 1.74849L 1.70461 2.68226C 1.38499 3.00188 1.34112 3.50637 1.60434 3.87612L 2.23103 4.75663C 2.05869 5.08565 1.92082 5.4272 1.81428 5.78128L 0.773967 5.95676C 0.325881 6.03196 0 6.41738 0 6.87174L 0 8.19093C 0 8.64529 0.325881 9.03071 0.773967 9.10591L 1.83935 9.28765C 1.94902 9.6386 2.09316 9.98015 2.26863 10.306L 1.65134 11.1646C 1.38813 11.5344 1.42886 12.0389 1.75161 12.3585L 2.68538 13.2922C 2.86086 13.4677 3.09273 13.5649 3.34028 13.5649C 3.53455 13.5649 3.71943 13.5053 3.8761 13.3925L 4.7566 12.7658C 5.07308 12.9319 5.40523 13.0666 5.74678 13.1732L 5.92225 14.226C 5.99746 14.6741 6.38287 15 6.83723 15L 8.15955 15C 8.6139 15 8.99932 14.6741 9.07452 14.226L 9.25313 13.1732C 9.60721 13.0635 9.94876 12.9225 10.2746 12.7502L 11.1426 13.3706C 11.2993 13.4834 11.4873 13.5429 11.6816 13.5429C 11.9291 13.5429 12.161 13.4458 12.3365 13.2703L 13.2702 12.3365C 13.5899 12.0169 13.6337 11.5124 13.3705 11.1427L 12.7501 10.2716C 12.9224 9.94255 13.0666 9.601 13.1731 9.25005L 14.2259 9.07458C 14.674 8.99937 14.9999 8.61395 14.9999 8.1596L 14.9999 6.8404C 15.0062 6.38604 14.6803 6.00063 14.2322 5.92542ZM 14.1601 8.1596C 14.1601 8.20033 14.1319 8.2348 14.0912 8.24107L 12.7751 8.46041C 12.6091 8.48862 12.4775 8.61082 12.4367 8.77063C 12.3177 9.23125 12.1359 9.67307 11.8915 10.0836C 11.8069 10.2277 11.8132 10.4063 11.9103 10.5442L 12.6843 11.6346C 12.7062 11.666 12.7031 11.713 12.6749 11.7412L 11.7411 12.675C 11.7192 12.6969 11.6972 12.7 11.6816 12.7C 11.6628 12.7 11.6471 12.6938 11.6346 12.6844L 10.5473 11.9104C 10.4125 11.8132 10.2308 11.807 10.0866 11.8916C 9.67615 12.136 9.23433 12.3177 8.77371 12.4368C 8.61077 12.4775 8.48856 12.6123 8.4635 12.7752L 8.24102 14.0913C 8.23475 14.132 8.20028 14.1602 8.15955 14.1602L 6.84036 14.1602C 6.79963 14.1602 6.76516 14.132 6.75889 14.0913L 6.53955 12.7752C 6.51135 12.6091 6.38914 12.4775 6.22933 12.4368C 5.78125 12.3209 5.34883 12.1423 4.94461 11.9104C 4.87881 11.8728 4.80361 11.854 4.73154 11.854C 4.64693 11.854 4.5592 11.879 4.48713 11.9323L 3.39041 12.7126C 3.37474 12.722 3.35908 12.7282 3.34341 12.7282C 3.33088 12.7282 3.30581 12.7251 3.28387 12.7032L 2.3501 11.7694C 2.3219 11.7412 2.31877 11.6973 2.3407 11.6628L 3.11153 10.5818C 3.20867 10.4439 3.21494 10.2622 3.13033 10.118C 2.88592 9.71067 2.69792 9.26885 2.57884 8.80823C 2.53498 8.64842 2.40337 8.52622 2.24043 8.49801L 0.914973 8.2724C 0.874238 8.26614 0.846036 8.23167 0.846036 8.19093L 0.846036 6.87174C 0.846036 6.831 0.874238 6.79653 0.914973 6.79027L 2.22163 6.57092C 2.3877 6.54272 2.52244 6.42051 2.56318 6.25757C 2.67912 5.79695 2.85772 5.35199 3.099 4.94151C 3.1836 4.79737 3.1742 4.61876 3.07707 4.48402L 2.29683 3.3873C 2.2749 3.35596 2.27803 3.30896 2.30623 3.28076L 3.24001 2.34698C 3.26194 2.32505 3.28387 2.32191 3.29954 2.32191C 3.31834 2.32191 3.33401 2.32818 3.34654 2.33758L 4.42759 3.10842C 4.56546 3.20556 4.7472 3.21182 4.89134 3.12722C 5.29869 2.88281 5.74051 2.6948 6.20113 2.57573C 6.36094 2.53186 6.48315 2.40025 6.51135 2.23731L 6.73696 0.911845C 6.74322 0.871109 6.77769 0.842908 6.81843 0.842908L 8.13762 0.842908C 8.17835 0.842908 8.21282 0.871109 8.21909 0.911845L 8.43843 2.21851C 8.46663 2.38458 8.58883 2.51932 8.75178 2.56006C 9.22493 2.67913 9.67615 2.86401 10.096 3.11155C 10.2402 3.19616 10.4188 3.18989 10.5567 3.09275L 11.6377 2.31565C 11.6534 2.30625 11.669 2.29998 11.6847 2.29998C 11.6972 2.29998 11.7223 2.30311 11.7442 2.32505L 12.678 3.25883C 12.7062 3.28703 12.7093 3.3309 12.6874 3.36536L 11.9134 4.45268C 11.8163 4.58742 11.81 4.76917 11.8946 4.91331C 12.1391 5.32379 12.3208 5.76561 12.4399 6.22624C 12.4806 6.38918 12.6153 6.51138 12.7783 6.53645L 14.0943 6.75893C 14.1351 6.7652 14.1633 6.79966 14.1633 6.8404L 14.1633 8.1596L 14.1601 8.1596Z"/>
<path id="path1_fill" d="M 3.23687 2.21853e-07C 1.4508 2.21853e-07 1.91252e-07 1.4508 1.91252e-07 3.23689C 1.91252e-07 5.02298 1.4508 6.47378 3.23687 6.47378C 5.02295 6.47378 6.47374 5.02298 6.47374 3.23689C 6.47374 1.4508 5.02295 2.21853e-07 3.23687 2.21853e-07ZM 3.23687 5.62774C 1.91768 5.62774 0.846036 4.55609 0.846036 3.23689C 0.846036 1.91769 1.91768 0.846042 3.23687 0.846042C 4.55606 0.846042 5.62771 1.91769 5.62771 3.23689C 5.62771 4.55609 4.55606 5.62774 3.23687 5.62774Z"/>
</defs>
</svg>
