<svg viewBox="0 0 39 34" version="1.1" xmlns="http://www.w3.org/2000/svg" xmlns:xlink="http://www.w3.org/1999/xlink">
<title>Vector</title>
<desc>Created using Figma</desc>
<g id="Canvas" transform="translate(-33930 465)">
<g id="Vector">
<use xlink:href="#path0_fill" transform="translate(33930 -465)" fill="url(#paint0_linear)"/>
</g>
</g>
<defs>
<linearGradient id="paint0_linear" x1="0" y1="0" x2="1" y2="0" gradientUnits="userSpaceOnUse" gradientTransform="matrix(2.38806e-15 34 -39 2.0819e-15 39.4555 -2.98201e-08)">
<stop offset="0" stop-color="#7C3475"/>
<stop offset="1" stop-color="#454A5E"/>
</linearGradient>
<path id="path0_fill" d="M 39 31.5714C 39 32.912 37.908 34 36.5625 34C 35.2158 34 34.125 32.912 34.125 31.5714C 34.125 30.2309 35.2158 26.7143 36.5625 26.7143C 37.908 26.7143 39 30.2309 39 31.5714ZM 35.3438 13.3571L 35.3438 24.2857C 35.3438 24.9572 35.8885 25.5 36.5625 25.5C 37.2352 25.5 37.7812 24.9572 37.7812 24.2857L 37.7812 13.3571C 37.7812 12.6856 37.2352 12.1429 36.5625 12.1429C 35.8885 12.1429 35.3438 12.6856 35.3438 13.3571ZM 36.1652 10.8363L 32.9062 11.5855L 32.9062 21.8571C 32.9062 25.0799 29.2037 27.9286 19.5 27.9286C 9.79631 27.9286 6.09375 25.0799 6.09375 21.8571L 6.09375 11.5855L 2.83359 10.8363C 1.16634 10.4526 0 8.993 0 7.28571C 0 5.57843 1.16513 4.11886 2.83481 3.73514L 18.6773 0.0922857C 18.9601 0.0291428 19.2307 0 19.5 0C 19.7693 0 20.0399 0.0291428 20.3056 0.0886428L 36.1652 3.73514C 37.8337 4.11886 39 5.57843 39 7.28571C 39 8.993 37.8337 10.4526 36.1652 10.8363ZM 30.4688 12.1465L 20.3214 14.4791C 20.0411 14.5423 19.7693 14.5714 19.5 14.5714C 19.2307 14.5714 18.9589 14.5423 18.6932 14.4828L 8.53125 12.1465L 8.53125 21.8571C 8.53125 23.1989 12.1875 25.5 19.5 25.5C 26.8125 25.5 30.4688 23.1989 30.4688 21.8571L 30.4688 12.1465ZM 35.618 8.46964C 36.1701 8.34214 36.5625 7.85157 36.5625 7.28571C 36.5625 6.71986 36.1701 6.22929 35.618 6.10179L 19.7742 2.45893L 19.5 2.42857L 19.2258 2.45893L 3.38203 6.10179C 2.82872 6.22929 2.4375 6.71986 2.4375 7.28571C 2.4375 7.85157 2.82872 8.34214 3.38203 8.46964L 19.2258 12.1125L 19.5 12.1429L 19.7742 12.1125L 35.618 8.46964Z"/>
</defs>
</svg>
