<svg xmlns="http://www.w3.org/2000/svg" fill="#fff" viewBox="0 0 180.45 64.67">
<path fill="#f2f2f2" d="M1.61,43.48l1.47.31Zm7.92-38L11,5.79h0ZM159.27,45.65l-1.46-.35ZM167.1,7.52l-1.47-.31h0ZM14.42,3H162.2V0H14.42ZM3.08,43.79,11,5.79,8.06,5.17l-7.92,38ZM18.35,48H6.5v3H18.35Zm136,0h-45v3h45Zm5.93-13.35-2.53,10.65,2.92.69,2.53-10.65Zm5.3-27.44-.72,3.48,2.94.61.73-3.48ZM.14,43.17A6.5,6.5,0,0,0,6.5,51V48a3.5,3.5,0,0,1-3.43-4.21ZM154.4,51a6.5,6.5,0,0,0,6.32-5l-2.92-.69A3.5,3.5,0,0,1,154.4,48Zm7.8-48a3.5,3.5,0,0,1,3.43,4.21l2.94.61A6.5,6.5,0,0,0,162.2,0ZM14.42,0A6.5,6.5,0,0,0,8.06,5.17L11,5.79A3.5,3.5,0,0,1,14.42,3Z"/>
<path fill="#47437A" d="M23.4,14.86c-.7,0-.95.24-.95.95V29.62c0,.64.24.88.92.88H30a5.18,5.18,0,0,0,3.74-1.36,4.91,4.91,0,0,0,1.39-3.67A4.74,4.74,0,0,0,30,20.4H26.81v-2H33.1c.68,0,.92-.22.92-.92V15.8c0-.7-.24-.95-.92-.95Zm7.24,10.58c0,1-.53,1.47-1.61,1.47H26.81V24H29C30.11,24,30.64,24.47,30.64,25.44Zm18.8-10.56c-1,0-1.28.09-1.54.81l-2,4.88-2.13-4.88c-.29-.73-.57-.81-1.69-.81h-2.6q-1,0-.53.92l4.66,10.08-1.65,3.7q-.43.92.46.92H45.2c1,0,1.23-.13,1.52-.81L52.52,15.8q.4-.92-.46-.92Zm17.16,9a4.49,4.49,0,0,0-1.34-1.69l4-6.38c.35-.59.15-1-.53-1H66.2a3.17,3.17,0,0,0-1.12.13,1.93,1.93,0,0,0-.64.68l-3.17,5h-.48V15.8c0-.68-.22-.92-.92-.92H57.38c-.7,0-.95.24-.95.92V29.58c0,.68.24.92.95.92h2.49c.7,0,.92-.24.92-.92v-5h.4c.79,0,1.12.31,1.5,1.1l1.91,3.94c.35.77.75.92,2,.92h2.38c.7,0,.9-.48.57-1.08Zm20.14-9.06c-.73,0-.95.11-1.23.7l-3.63,7.11-3.63-7.13c-.33-.55-.53-.68-1.3-.68H74.88c-.7,0-.95.22-.95.92V29.6c0,.68.24.9.95.9h2.24c.7,0,.95-.22.95-.9V26.47a25.55,25.55,0,0,0-.9-5.79h.22a17.68,17.68,0,0,0,1.36,3.63L80,26.8a.94.94,0,0,0,1.06.64h1.47a1,1,0,0,0,1.06-.64l1.23-2.49c.22-.42.48-1,.81-1.85s.55-1.41.66-1.78h.24a21.94,21.94,0,0,0-1,5.76V29.6c0,.68.22.9.92.9h2.4c.7,0,.95-.22.95-.9V15.78c0-.7-.24-.92-.95-.92Zm9.38,0c-.7,0-.95.24-.95.92V29.58c0,.68.24.92.95.92h9.42c.68,0,.92-.24.92-.92v-2c0-.7-.24-.92-.92-.92h-6V24.54h4.64c.7,0,.95-.24.95-.95v-2c0-.68-.24-.92-.95-.92H99.52v-2h5.81c.7,0,.95-.24.95-.95v-2c0-.68-.24-.92-.95-.92Zm25.23,9A4.49,4.49,0,0,0,120,22.23l4-6.38c.35-.59.15-1-.53-1h-2.53a3.17,3.17,0,0,0-1.12.13,1.93,1.93,0,0,0-.64.68l-3.17,5h-.48V15.8c0-.68-.22-.92-.92-.92h-2.49c-.7,0-.95.24-.95.92V29.58c0,.68.24.92.95.92h2.49c.7,0,.92-.24.92-.92v-5h.4c.79,0,1.12.31,1.5,1.1l1.91,3.94c.35.77.75.92,2,.92h2.38c.7,0,.9-.48.57-1.08Zm8.28-9c-.7,0-.95.24-.95.92V29.58c0,.68.24.92.95.92H139c.68,0,.92-.24.92-.92v-2c0-.7-.24-.92-.92-.92h-6V24.54h4.64c.7,0,.95-.24.95-.95v-2c0-.68-.24-.92-.95-.92H133v-2h5.81c.7,0,.95-.24.95-.95v-2c0-.68-.24-.92-.95-.92Zm16,0c-.7,0-.95.24-.95.92V29.58c0,.68.24.92.95.92h2.49c.7,0,.92-.24.92-.92V25.81h2.71c3.45,0,5.63-2,5.63-5.43s-2.22-5.5-5.68-5.5ZM149,22V18.73h2.18a1.53,1.53,0,0,1,1.65,1.63A1.51,1.51,0,0,1,151.22,22Zm20,8.54c3.45,0,5.68-2,5.68-5.5s-2.18-5.43-5.63-5.43h-2.71V15.8c0-.68-.22-.92-.92-.92H163c-.7,0-.95.24-.95.92V29.58c0,.68.24.92.95.92Zm7.06-.88c0,.64.24.88.88.88h2.6c.64,0,.88-.24.88-.88V15.76c0-.64-.24-.88-.88-.88H177c-.64,0-.88.24-.88.88Zm-7.55-6.2A1.51,1.51,0,0,1,170.2,25a1.53,1.53,0,0,1-1.65,1.63h-2.18V23.42Z"/>
<path fill="#A7ACBA" d="M27.55,45a2.77,2.77,0,0,1-.07.62,2.15,2.15,0,0,1-.2.58,1.65,1.65,0,0,1-.38.47,1.55,1.55,0,0,1-.55.31v.07a2.12,2.12,0,0,1,.54.22,1.43,1.43,0,0,1,.46.4,1.76,1.76,0,0,1,.3.6,2.55,2.55,0,0,1,.12.83,2.6,2.6,0,0,1-.23,1.13,2,2,0,0,1-.6.77,2.45,2.45,0,0,1-.88.44,3.87,3.87,0,0,1-1.07.14h-.43l-.58,0-.62,0a4.23,4.23,0,0,1-.6-.11V43.16q.4-.07,1-.12A11.46,11.46,0,0,1,24.89,43a5.84,5.84,0,0,1,1,.08,2.3,2.3,0,0,1,.85.31,1.61,1.61,0,0,1,.59.64A2.15,2.15,0,0,1,27.55,45ZM25,50.31a1.12,1.12,0,0,0,.83-.32,1.28,1.28,0,0,0,.32-.95,1.48,1.48,0,0,0-.11-.62.82.82,0,0,0-.29-.36.93.93,0,0,0-.42-.17,3.08,3.08,0,0,0-.48,0h-.61v2.39a1.46,1.46,0,0,0,.32.06Zm-.41-3.65h.3l.29,0a1.36,1.36,0,0,0,.59-.43,1.17,1.17,0,0,0,.25-.78,1.46,1.46,0,0,0-.08-.53.81.81,0,0,0-.23-.34.76.76,0,0,0-.35-.18,1.4,1.4,0,0,0-.42-.06,3.45,3.45,0,0,0-.7,0v2.33Zm6.23.64A6,6,0,0,1,31.58,44a2.49,2.49,0,0,1,2.23-1.12,2.74,2.74,0,0,1,1.34.31,2.42,2.42,0,0,1,.92.88,4.07,4.07,0,0,1,.53,1.38,8.26,8.26,0,0,1,.18,1.8A5.8,5.8,0,0,1,36,50.55a2.49,2.49,0,0,1-2.22,1.12,2.85,2.85,0,0,1-1.36-.3,2.58,2.58,0,0,1-.91-.88A4.21,4.21,0,0,1,31,49.11,9,9,0,0,1,30.85,47.3Zm1.58,0a9.2,9.2,0,0,0,.07,1.19,3.63,3.63,0,0,0,.24.94,1.74,1.74,0,0,0,.42.62,1,1,0,0,0,.65.23,1.11,1.11,0,0,0,1-.71,5.46,5.46,0,0,0,.35-2.27,8.73,8.73,0,0,0-.07-1.15,3.64,3.64,0,0,0-.24-.95,1.55,1.55,0,0,0-.42-.64.94.94,0,0,0-.66-.24Q32.43,44.32,32.43,47.3Zm7.45,0A6,6,0,0,1,40.61,44a2.49,2.49,0,0,1,2.23-1.12,2.74,2.74,0,0,1,1.34.31,2.42,2.42,0,0,1,.92.88,4.07,4.07,0,0,1,.53,1.38,8.26,8.26,0,0,1,.18,1.8,5.8,5.8,0,0,1-.76,3.25,2.49,2.49,0,0,1-2.22,1.12,2.85,2.85,0,0,1-1.36-.3,2.58,2.58,0,0,1-.91-.88A4.21,4.21,0,0,1,40,49.11,9,9,0,0,1,39.88,47.3Zm1.58,0a9.2,9.2,0,0,0,.07,1.19,3.63,3.63,0,0,0,.24.94,1.74,1.74,0,0,0,.42.62,1,1,0,0,0,.65.23,1.11,1.11,0,0,0,1-.71,5.46,5.46,0,0,0,.35-2.27,8.73,8.73,0,0,0-.07-1.15,3.64,3.64,0,0,0-.24-.95,1.55,1.55,0,0,0-.42-.64.94.94,0,0,0-.66-.24Q41.46,44.32,41.46,47.3Zm9.48.6h-.32v3.6H49.1V43.1h1.51v3.73l.3-.14,1.76-3.59h1.7l-1.92,3.54-.56.44.58.46,2.22,4H52.85Zm12.16-.73.17-1.61h-.06L62.77,47,61.4,50h-.5l-1.45-3L59,45.54h-.07l.23,1.62V51.5H57.73V43.1h1.45l1.75,3.64.29,1h0l.28-1.07,1.64-3.61h1.43v8.4H63.1Zm8.39,2.44h-2L69,51.5h-1.5L70,43h1.19l2.45,8.46H72Zm-1.66-1.25h1.39l-.48-2-.19-1.32h0l-.2,1.33Zm8.51-.46H78v3.6H76.51V43.1H78v3.73l.3-.14,1.76-3.59h1.7l-1.92,3.54-.56.44.58.46,2.22,4H80.25Zm6.79-4.8h4.2v1.39H86.64v2.06h2.44v1.39H86.64v2.16h2.74V51.5H85.13Zm7.56.08A8.16,8.16,0,0,1,93.74,43q.56,0,1,0a4.69,4.69,0,0,1,1,.11,2.11,2.11,0,0,1,.86.37,1.85,1.85,0,0,1,.61.73,2.49,2.49,0,0,1,.24,1.16A3.24,3.24,0,0,1,97.05,47a1.94,1.94,0,0,1-1,.88l.48.38L98,51.5H96.31l-1.46-3.31L94.2,48V51.5H92.68ZM94.2,47h.52a1.06,1.06,0,0,0,.85-.34,1.65,1.65,0,0,0,.29-1.07,1.47,1.47,0,0,0-.24-.88.85.85,0,0,0-.76-.35h-.37a1.19,1.19,0,0,0-.29,0Zm9.86,2.34a1,1,0,0,0-.23-.65,2.81,2.81,0,0,0-.58-.52q-.34-.24-.74-.49a4.71,4.71,0,0,1-.74-.59,3,3,0,0,1-.56-.79,2.48,2.48,0,0,1-.23-1.12,2.62,2.62,0,0,1,.18-1,1.85,1.85,0,0,1,.52-.7,2,2,0,0,1,.77-.4,3.31,3.31,0,0,1,.95-.13,5.14,5.14,0,0,1,1.14.12,3.09,3.09,0,0,1,.88.32l-.47,1.33a2.13,2.13,0,0,0-.61-.26,3,3,0,0,0-.86-.12,1.17,1.17,0,0,0-.72.19.67.67,0,0,0-.25.56.89.89,0,0,0,.23.6,3.5,3.5,0,0,0,.56.49l.74.5a3.82,3.82,0,0,1,.74.6,2.82,2.82,0,0,1,.58.8,2.42,2.42,0,0,1,.23,1.09,2.9,2.9,0,0,1-.19,1.1,2,2,0,0,1-.53.78,2.25,2.25,0,0,1-.82.46,3.44,3.44,0,0,1-1.07.16,5.32,5.32,0,0,1-1.31-.14,3.34,3.34,0,0,1-.85-.32l.49-1.36a3.56,3.56,0,0,0,.66.29,2.76,2.76,0,0,0,.9.14Q104.06,50.28,104.06,49.34ZM17.76,63.72A.91.91,0,0,1,18,63a1,1,0,0,1,1.27,0,1.08,1.08,0,0,1,0,1.34.84.84,0,0,1-.64.24.82.82,0,0,1-.62-.24A.94.94,0,0,1,17.76,63.72Zm5.07-7.54A8.15,8.15,0,0,1,23.89,56q.56,0,1,0a4.69,4.69,0,0,1,1,.11,2.11,2.11,0,0,1,.86.37,1.85,1.85,0,0,1,.61.73,2.49,2.49,0,0,1,.24,1.16A3.24,3.24,0,0,1,27.2,60a1.94,1.94,0,0,1-1,.88l.48.38L28.2,64.5H26.46L25,61.19,24.35,61V64.5H22.84ZM24.35,60h.52a1.06,1.06,0,0,0,.85-.34A1.65,1.65,0,0,0,26,58.6a1.47,1.47,0,0,0-.24-.88.85.85,0,0,0-.76-.35h-.37a1.19,1.19,0,0,0-.29,0Zm6.92-3.9h4.2v1.39H32.78v2.06h2.44v1.39H32.78v2.16h2.74V64.5H31.27ZM41.2,61l.17,1.44h0L41.61,61l1.22-4.92h1.6l-2.54,8.46H40.74L38.17,56.1H40Zm6.19-4.93h1.51v8.4H47.39Zm5.13,0h4.2v1.39H54v2.06h2.44v1.39H54v2.16h2.74V64.5H52.52ZM62,60.72l.12,1.51h0l.13-1.54,1.13-4.6h1.06l1.09,4.62.13,1.51h0l.13-1.54.74-4.6h1.54l-1.88,8.46H65.21L64,59.93l-.16-1.31h-.06l-.14,1.32L62.5,64.56H61.39L59.51,56.1h1.67Zm12,1.62a1,1,0,0,0-.23-.65,2.81,2.81,0,0,0-.58-.52q-.34-.24-.74-.49a4.71,4.71,0,0,1-.74-.59,3,3,0,0,1-.56-.79,2.48,2.48,0,0,1-.23-1.12,2.62,2.62,0,0,1,.18-1,1.85,1.85,0,0,1,.52-.7,2,2,0,0,1,.77-.4,3.31,3.31,0,0,1,.95-.13,5.14,5.14,0,0,1,1.14.12,3.09,3.09,0,0,1,.88.32l-.47,1.33a2.13,2.13,0,0,0-.61-.26,3,3,0,0,0-.86-.12,1.17,1.17,0,0,0-.72.19.67.67,0,0,0-.25.56.89.89,0,0,0,.23.6,3.5,3.5,0,0,0,.56.49l.74.5a3.82,3.82,0,0,1,.74.6,2.82,2.82,0,0,1,.58.8,2.42,2.42,0,0,1,.23,1.09,2.9,2.9,0,0,1-.19,1.1,2,2,0,0,1-.53.78,2.25,2.25,0,0,1-.82.46,3.44,3.44,0,0,1-1.07.16,5.32,5.32,0,0,1-1.31-.14,3.34,3.34,0,0,1-.85-.32l.49-1.36a3.56,3.56,0,0,0,.66.29,2.76,2.76,0,0,0,.9.14Q74,63.28,74,62.34Z"/>
</svg>