<svg width="30" height="31" viewBox="0 0 30 31" version="1.1" xmlns="http://www.w3.org/2000/svg" xmlns:xlink="http://www.w3.org/1999/xlink">
<title>folded-newspaper</title>
<desc>Created using Figma</desc>
<g id="Canvas" transform="translate(-12876 -3396)">
<g id="folded-newspaper">
<g id="Vector">
<use xlink:href="#path0_fill" transform="translate(12876 3396)" fill="url(#paint0_linear)"/>
</g>
<g id="Rectangle">
<use xlink:href="#path1_fill" transform="matrix(0.862581 -0.505919 0.494104 0.869403 12883.6 3410.43)" fill="url(#paint1_linear)"/>
</g>
<g id="Rectangle">
<use xlink:href="#path1_fill" transform="matrix(0.862581 -0.505919 0.494104 0.869403 12887.5 3417.29)" fill="url(#paint2_linear)"/>
</g>
<g id="Rectangle">
<use xlink:href="#path2_fill" transform="matrix(0.862581 -0.505919 0.494104 0.869403 12883 3415.34)" fill="url(#paint3_linear)"/>
</g>
</g>
</g>
<defs>
<linearGradient id="paint0_linear" x1="0" y1="0" x2="1" y2="0" gradientUnits="userSpaceOnUse" gradientTransform="matrix(1.83697e-15 31 -30 1.8982e-15 30.3504 -2.71889e-08)">
<stop offset="0" stop-color="#7C3475"/>
<stop offset="1" stop-color="#454A5E"/>
</linearGradient>
<linearGradient id="paint1_linear" x1="0" y1="0" x2="1" y2="0" gradientUnits="userSpaceOnUse" gradientTransform="matrix(7.7839e-16 1.97117 -12.7121 1.20699e-16 12.8605 -1.72884e-09)">
<stop offset="0" stop-color="#7C3475"/>
<stop offset="1" stop-color="#454A5E"/>
</linearGradient>
<linearGradient id="paint2_linear" x1="0" y1="0" x2="1" y2="0" gradientUnits="userSpaceOnUse" gradientTransform="matrix(7.7839e-16 1.97117 -12.7121 1.20699e-16 12.8605 -1.72884e-09)">
<stop offset="0" stop-color="#7C3475"/>
<stop offset="1" stop-color="#454A5E"/>
</linearGradient>
<linearGradient id="paint3_linear" x1="0" y1="0" x2="1" y2="0" gradientUnits="userSpaceOnUse" gradientTransform="matrix(1.13765e-15 1.97117 -18.5792 1.20699e-16 18.7962 -1.72884e-09)">
<stop offset="0" stop-color="#7C3475"/>
<stop offset="1" stop-color="#454A5E"/>
</linearGradient>
<path id="path0_fill" d="M 28.3744 16.0146C 28.1694 15.7019 28.1694 15.2981 28.3744 14.9854L 29.515 13.2453C 30.554 11.6603 29.854 9.5309 28.0782 8.85623L 26.1249 8.11392C 25.7739 7.98048 25.5346 7.65371 25.5153 7.28117L 25.4077 5.20805C 25.3096 3.31997 23.4822 2.00502 21.6458 2.49545L 19.6261 3.03443C 19.2632 3.13119 18.876 3.0064 18.6398 2.71632L 17.3249 1.10185C 16.1274 -0.368463 13.8706 -0.366102 12.6751 1.10185L 11.3601 2.71638C 11.1239 3.00652 10.7369 3.13119 10.3739 3.03449L 8.35404 2.49551C 6.51401 2.00436 4.69003 3.32366 4.59218 5.20811L 4.48451 7.28123C 4.46511 7.65371 4.22592 7.98054 3.87497 8.11392L 1.92178 8.85623C 0.14227 9.53229 -0.552186 11.6635 0.484801 13.2454L 1.62549 14.9854C 1.8304 15.298 1.8304 15.702 1.62549 16.0146L 0.484984 17.7546C -0.554138 19.3398 0.146174 21.4693 1.92184 22.1438L 3.87515 22.8861C 4.2261 23.0195 4.46535 23.3463 4.48469 23.7188L 4.59236 25.7919C 4.69045 27.6804 6.5181 28.9948 8.35422 28.5045L 10.374 27.9656C 10.737 27.8689 11.124 27.9936 11.3603 28.2837L 12.6752 29.8981C 13.873 31.3688 16.1296 31.3658 17.325 29.8981L 18.6399 28.2837C 18.8761 27.9937 19.2634 27.869 19.6261 27.9656L 21.646 28.5045C 23.4855 28.9959 25.3099 27.6766 25.4079 25.7919L 25.5155 23.7188C 25.5349 23.3463 25.7741 23.0195 26.1251 22.8861L 28.0783 22.1438C 29.8576 21.4678 30.5522 19.3366 29.5153 17.7546L 28.3744 16.0146ZM 27.3492 20.2541L 25.3959 20.9964C 24.2924 21.4157 23.5401 22.4434 23.4793 23.6146L 23.3716 25.6877C 23.3405 26.2884 22.7594 26.7061 22.1753 26.5504L 20.1554 26.0114C 19.0143 25.7068 17.797 26.0995 17.0543 27.0115L 15.7395 28.6259C 15.3585 29.0937 14.6409 29.0927 14.2606 28.6259L 12.9458 27.0115C 12.3701 26.3046 11.5092 25.9097 10.6197 25.9097C 10.3617 25.9097 10.1012 25.9429 9.84458 26.0114L 7.82472 26.5504C 7.23933 26.7064 6.65956 26.2871 6.62833 25.6877L 6.52066 23.6146C 6.45984 22.4434 5.70749 21.4156 4.60407 20.9964L 2.65077 20.254C 2.08484 20.0389 1.86407 19.3613 2.19385 18.8582L 3.33448 17.1182C 3.97886 16.1351 3.97886 14.8647 3.33448 13.8818L 2.19385 12.1418C 1.86334 11.6377 2.086 10.9606 2.65083 10.7459L 4.60414 10.0036C 5.70761 9.5843 6.4599 8.55658 6.52072 7.38543L 6.62839 5.31231C 6.65956 4.71163 7.24061 4.29386 7.82478 4.44959L 9.84464 4.98857C 10.9857 5.29318 12.203 4.90048 12.9458 3.98847L 14.2607 2.37399C 14.6417 1.90633 15.3594 1.9073 15.7395 2.37399L 17.0544 3.98853C 17.7973 4.90054 19.0143 5.29324 20.1555 4.98857L 22.1754 4.44959C 22.7607 4.29356 23.3405 4.71284 23.3718 5.31231L 23.4793 7.38543C 23.5401 8.55658 24.2925 9.58436 25.3959 10.0036L 27.3493 10.746C 27.9151 10.9609 28.1359 11.6387 27.8062 12.1418L 26.6656 13.8818C 26.0211 14.8647 26.0211 16.1351 26.6655 17.1182L 27.8062 18.8582C 28.1366 19.3624 27.914 20.0394 27.3492 20.2541Z"/>
<path id="path1_fill" d="M 0 0.985584C 0 0.441261 0.441261 0 0.985584 0L 11.7265 0C 12.2708 0 12.7121 0.441261 12.7121 0.985584C 12.7121 1.52991 12.2708 1.97117 11.7265 1.97117L 0.985584 1.97117C 0.441261 1.97117 0 1.52991 0 0.985584Z"/>
<path id="path2_fill" d="M 0 0.985584C 0 0.441261 0.441261 0 0.985584 0L 17.5936 0C 18.1379 0 18.5792 0.441261 18.5792 0.985584C 18.5792 1.52991 18.1379 1.97117 17.5936 1.97117L 0.985585 1.97117C 0.441262 1.97117 0 1.52991 0 0.985584Z"/>
</defs>
</svg>
