<svg width="150" height="150" viewBox="0 0 150 150" version="1.1" xmlns="http://www.w3.org/2000/svg" xmlns:xlink="http://www.w3.org/1999/xlink">
    <title>play</title>
    <desc>Created using Figma</desc>
    <g id="Canvas" transform="translate(-8633 -3709)">
        <g id="play">
            <g id="Ellipse">
                <path d="M 150 75C 150 116.421 116.421 150 75 150C 33.5786 150 0 116.421 0 75C 0 33.5786 33.5786 0 75 0C 116.421 0 150 33.5786 150 75Z" transform="translate(8633 3709)" fill="#0161DA" fill-opacity="0.6"></path>
            </g>
            <g id="плей">
                <path d="M 60.7562 34.8849L 7.44854 0.759467C 5.95593 -0.19117 4.06592 -0.254551 2.51031 0.598586C 0.964383 1.4566 0 3.09462 0 4.87402L 0 73.1249C 0 74.9043 0.96438 76.5424 2.51515 77.4004C 3.24207 77.8001 4.04169 78 4.84615 78C 5.75238 78 6.65862 77.7416 7.44854 77.2395L 60.7562 43.114C 62.1519 42.217 63 40.6667 63 38.9995C 63 37.3322 62.1519 35.7819 60.7562 34.8849ZM 9.69231 64.2474L 9.69231 13.7515L 49.1255 38.9995L 9.69231 64.2474Z" transform="translate(8683 3745)" fill="#FFFFFF"></path>
            </g>
        </g>
    </g>
</svg>
