<svg width="168" height="164" viewBox="0 0 168 164" version="1.1" xmlns="http://www.w3.org/2000/svg" xmlns:xlink="http://www.w3.org/1999/xlink">
    <title>pluses red</title>
    <desc>Created using Figma</desc>
    <g id="Canvas" transform="translate(-8237 -3412)">
        <g id="pluses red">
            <g id="Combined Shape">
                <path fill-rule="evenodd" d="M 54.8865 21.7428L 59.1053 0L 33.1053 0L 28.8881 21.7347L 4.96103 21.7273L -6.76376e-09 45.2496L 24.324 45.2572L 20.1053 67L 46.1053 67L 50.3225 45.2652L 74.2495 45.2727L 79.2106 21.7504L 54.8865 21.7428Z" transform="translate(8237 3509)" fill="#FD213A"></path>
            </g>
            <g id="Combined Shape">
                <path fill-rule="evenodd" d="M 54.8865 21.7428L 59.1053 0L 33.1053 0L 28.8881 21.7347L 4.96103 21.7273L 4.55469e-07 45.2496L 24.324 45.2572L 20.1053 67L 46.1053 67L 50.3225 45.2653L 74.2495 45.2727L 79.2106 21.7504L 54.8865 21.7428Z" transform="translate(8257 3412)" fill="#FD213A"></path>
            </g>
            <g id="Combined Shape">
                <path fill-rule="evenodd" d="M 54.8865 21.7428L 59.1053 0L 33.1053 0L 28.8881 21.7347L 4.96104 21.7273L 4.55469e-07 45.2496L 24.324 45.2572L 20.1053 67L 46.1053 67L 50.3225 45.2653L 74.2495 45.2727L 79.2106 21.7504L 54.8865 21.7428Z" transform="translate(8325 3462)" fill="#FFFFFF" fill-opacity="0.1"></path>
            </g>
        </g>
    </g>
</svg>
