<svg width="18" height="18" viewBox="0 0 18 18" version="1.1" xmlns="http://www.w3.org/2000/svg" xmlns:xlink="http://www.w3.org/1999/xlink">
<title>Group</title>
<desc>Created using Figma</desc>
<g id="Canvas" transform="translate(-50770 269)">
<g id="Group">
<g id="Vector">
<use xlink:href="#path0_fill" transform="translate(50771 -268)" fill="#6C3A6F"/>
<use xlink:href="#path1_fill" transform="translate(50771 -268)" fill="#6C3A6F"/>
</g>
<g id="Rectangle 3">
<use xlink:href="#path2_fill" transform="matrix(0.707107 -0.707107 0.707107 0.707107 50770.7 -252.909)" fill="#6C3A6F"/>
</g>
</g>
</g>
<defs>
<path id="path0_fill" d="M 9.11966 0.726302C 8.90766 0.278302 8.47863 0 8 0C 7.52134 0 7.09231 0.278302 6.88031 0.726302L 5.08509 4.52007L 1.07034 5.12849C 0.596085 5.20036 0.209616 5.54067 0.0618034 6.01659C -0.0858531 6.49202 0.0354908 7.00398 0.378491 7.35269L 2.90969 9.92596L 3.81649 9.02554L 1.25396 6.42044L 5.58947 5.7634C 5.79293 5.73257 5.96887 5.59912 6.06 5.40656L 7.99997 1.30691L 9.13604 3.70767L 10.0869 2.7704L 9.11966 0.726302Z"/>
<path id="path1_fill" d="M 15.9382 6.01659C 15.7904 5.54067 15.4039 5.20036 14.9297 5.12849L 13.5858 4.92484L 12.4473 6.07205L 14.746 6.42041L 11.6096 9.60892C 11.462 9.75899 11.3946 9.97548 11.4295 10.1876L 12.1701 14.6914L 8.29037 12.5641C 8.10856 12.4645 7.89144 12.4645 7.70959 12.5641L 3.82984 14.6915L 2.92027 15.5907C 2.97244 15.648 3.03015 15.701 3.09306 15.7488C 3.48046 16.0432 3.98465 16.0816 4.40884 15.849L 8 13.88L 11.5912 15.849C 12.0204 16.0844 12.5242 16.0397 12.907 15.7488C 13.2938 15.4548 13.4837 14.9664 13.4027 14.4743L 12.7171 10.3053L 15.6215 7.35269C 15.9645 7.00398 16.0859 6.49205 15.9382 6.01659Z"/>
<path id="path2_fill" d="M 0 0.692323C 0 0.309964 0.309964 0 0.692323 0L 21.0338 0C 21.4162 0 21.7262 0.309964 21.7262 0.692323C 21.7262 1.07468 21.4162 1.38465 21.0338 1.38465L 0.692324 1.38465C 0.309965 1.38465 0 1.07468 0 0.692323Z"/>
</defs>
</svg>
