<svg width="10" height="10" viewBox="0 0 10 10" version="1.1" xmlns="http://www.w3.org/2000/svg" xmlns:xlink="http://www.w3.org/1999/xlink">
<title>Vector</title>
<desc>Created using Figma</desc>
<g id="Canvas" transform="translate(-19993 378)">
<g id="Vector">
<use xlink:href="#path0_fill" transform="translate(19993 -378)" fill="#6C3A6F"/>
</g>
</g>
<defs>
<path id="path0_fill" d="M 9.96137 3.76037C 9.86899 3.46292 9.62745 3.25022 9.33104 3.20531L 6.82182 2.82504L 5.69979 0.453939C 5.56729 0.173939 5.29914 0 5 0C 4.70084 0 4.43269 0.173939 4.30019 0.453939L 3.17818 2.82504L 0.66896 3.20531C 0.372553 3.25022 0.13101 3.46292 0.0386271 3.76037C -0.0536582 4.05751 0.0221818 4.37749 0.236557 4.59543L 2.05179 6.44084L 1.6233 9.04641C 1.57271 9.35406 1.69144 9.65929 1.93316 9.843C 2.17529 10.027 2.49041 10.051 2.75552 9.90565L 5 8.67498L 7.24447 9.90565C 7.51274 10.0527 7.82762 10.0248 8.06688 9.84298C 8.3086 9.65927 8.42731 9.35402 8.3767 9.04641L 7.94821 6.44084L 9.76344 4.59543C 9.97782 4.37749 10.0537 4.05753 9.96137 3.76037ZM 7.256 6.00557C 7.16373 6.09937 7.12162 6.23467 7.14342 6.36725L 7.60631 9.18214L 5.18148 7.85259C 5.06785 7.79029 4.93215 7.79029 4.8185 7.85259L 2.39365 9.18216L 2.85656 6.36727C 2.87838 6.23469 2.83625 6.09939 2.74398 6.00559L 0.783726 4.01278L 3.49342 3.60212C 3.62058 3.58286 3.73055 3.49945 3.7875 3.3791L 4.99998 0.816816L 6.21248 3.37908C 6.26943 3.49943 6.37938 3.58284 6.50654 3.6021L 9.21624 4.01276L 7.256 6.00557Z"/>
</defs>
</svg>
