<svg width="16" height="16" viewBox="0 0 16 16" version="1.1" xmlns="http://www.w3.org/2000/svg" xmlns:xlink="http://www.w3.org/1999/xlink">
<title>Vector</title>
<desc>Created using Figma</desc>
<g id="Canvas" transform="translate(-50901 268)">
<g id="Vector">
<use xlink:href="#path0_fill" transform="translate(50901 -268)" fill="#6C3A6F"/>
</g>
</g>
<defs>
<path id="path0_fill" d="M 15.9382 6.01659C 15.7904 5.54067 15.4039 5.20036 14.9297 5.12849L 10.9149 4.52007L 9.11966 0.726302C 8.90766 0.278302 8.47863 0 8 0C 7.52134 0 7.09231 0.278302 6.88031 0.726302L 5.08509 4.52007L 1.07034 5.12849C 0.596085 5.20036 0.209616 5.54067 0.0618034 6.01659C -0.085853 6.49202 0.0354909 7.00398 0.378491 7.35269L 3.28287 10.3053L 2.59727 14.4743C 2.51634 14.9665 2.70631 15.4549 3.09306 15.7488C 3.48046 16.0432 3.98465 16.0816 4.40884 15.849L 8 13.88L 11.5912 15.849C 12.0204 16.0844 12.5242 16.0397 12.907 15.7488C 13.2938 15.4548 13.4837 14.9664 13.4027 14.4743L 12.7171 10.3053L 15.6215 7.35269C 15.9645 7.00398 16.0859 6.49205 15.9382 6.01659ZM 11.6096 9.60892C 11.462 9.75899 11.3946 9.97548 11.4295 10.1876L 12.1701 14.6914L 8.29037 12.5641C 8.10856 12.4645 7.89144 12.4645 7.70959 12.5641L 3.82984 14.6915L 4.5705 10.1876C 4.6054 9.97551 4.538 9.75902 4.39037 9.60895L 1.25396 6.42044L 5.58947 5.7634C 5.79294 5.73257 5.96887 5.59912 6.06 5.40656L 7.99997 1.30691L 9.93997 5.40653C 10.0311 5.59909 10.207 5.73254 10.4105 5.76336L 14.746 6.42041L 11.6096 9.60892Z"/>
</defs>
</svg>
