<svg width="32" height="30" viewBox="0 0 32 30" version="1.1" xmlns="http://www.w3.org/2000/svg" xmlns:xlink="http://www.w3.org/1999/xlink">
<title>Vector</title>
<desc>Created using Figma</desc>
<g id="Canvas" transform="translate(-19836 465)">
<g id="Vector">
<use xlink:href="#path0_fill" transform="translate(19836 -465)" fill="url(#paint0_linear)"/>
</g>
</g>
<defs>
<linearGradient id="paint0_linear" x1="0" y1="0" x2="1" y2="0" gradientUnits="userSpaceOnUse" gradientTransform="matrix(1.95943e-15 30 -32 1.83697e-15 32.3737 -2.63119e-08)">
<stop offset="0" stop-color="#7C3475"/>
<stop offset="1" stop-color="#454A5E"/>
</linearGradient>
<path id="path0_fill" d="M 31.8764 11.2811C 31.5808 10.3888 30.8078 9.75067 29.8593 9.61592L 21.8298 8.47512L 18.2393 1.36182C 17.8153 0.521816 16.9573 0 16 0C 15.0427 0 14.1846 0.521816 13.7606 1.36182L 10.1702 8.47512L 2.14067 9.61592C 1.19217 9.75067 0.419232 10.3888 0.123607 11.2811C -0.171706 12.1725 0.0709817 13.1325 0.756982 13.7863L 6.56574 19.3225L 5.19455 27.1392C 5.03267 28.0622 5.41261 28.9779 6.18611 29.529C 6.96093 30.0811 7.9693 30.1531 8.81768 29.717L 16 26.0249L 23.1823 29.717C 24.0408 30.1582 25.0484 30.0745 25.814 29.5289C 26.5875 28.9778 26.9674 28.0621 26.8054 27.1392L 25.4343 19.3225L 31.243 13.7863C 31.929 13.1325 32.1717 12.1726 31.8764 11.2811ZM 23.2192 18.0167C 22.9239 18.2981 22.7892 18.704 22.8589 19.1017L 24.3402 27.5464L 16.5807 23.5578C 16.2171 23.3709 15.7829 23.3709 15.4192 23.5578L 7.65968 27.5465L 9.14099 19.1018C 9.2108 18.7041 9.07599 18.2982 8.78074 18.0168L 2.50792 12.0383L 11.1789 10.8064C 11.5859 10.7486 11.9377 10.4983 12.12 10.1373L 15.9999 2.45045L 19.8799 10.1372C 20.0622 10.4983 20.414 10.7485 20.8209 10.8063L 29.492 12.0383L 23.2192 18.0167Z"/>
</defs>
</svg>
