<svg width="16" height="16" viewBox="0 0 16 16" version="1.1" xmlns="http://www.w3.org/2000/svg" xmlns:xlink="http://www.w3.org/1999/xlink">
<title>Vector</title>
<desc>Created using Figma</desc>
<g id="Canvas" transform="translate(-50797 268)">
<g id="Vector">
<use xlink:href="#path0_fill" transform="translate(50797 -268)" fill="#6C3A6F"/>
</g>
</g>
<defs>
<path id="path0_fill" d="M 15.9382 6.01659C 15.7904 5.54067 15.4039 5.20036 14.9297 5.12849L 10.9149 4.52007L 9.11966 0.726302C 8.90766 0.278302 8.47863 0 8 0C 7.52134 0 7.09231 0.278302 6.88031 0.726302L 5.08509 4.52007L 1.07034 5.12849C 0.596085 5.20036 0.209616 5.54067 0.0618034 6.01659C -0.0858531 6.49202 0.0354908 7.00398 0.378491 7.35269L 3.28287 10.3053L 2.59727 14.4743C 2.51634 14.9665 2.70631 15.4549 3.09306 15.7488C 3.48046 16.0432 3.98465 16.0816 4.40884 15.849L 8 13.88L 11.5912 15.849C 12.0204 16.0844 12.5242 16.0397 12.907 15.7488C 13.2938 15.4548 13.4837 14.9664 13.4027 14.4743L 12.7171 10.3053L 15.6215 7.35269C 15.9645 7.00398 16.0859 6.49205 15.9382 6.01659Z"/>
</defs>
</svg>
