<svg xmlns="http://www.w3.org/2000/svg" xmlns:xlink="http://www.w3.org/1999/xlink" viewBox="0 0 35 35"><defs><style>.cls-1{fill:#fff;}.cls-2{mask:url(#mask);}.cls-3{fill:#47437a;}.cls-4{fill:#868fa9;stroke:#868fa9;stroke-miterlimit:10;stroke-width:0.75px;}</style><mask id="mask" x="0" y="0" width="35" height="35" maskUnits="userSpaceOnUse"><g id="mask0_outline_ins" data-name="mask0 outline ins"><path id="path2_fill" data-name="path2 fill" class="cls-1" d="M32,17.5A14.5,14.5,0,1,1,17.5,3,14.5,14.5,0,0,1,32,17.5Z"/></g></mask></defs><title>user</title><g id="Слой_2" data-name="Слой 2"><g id="Слой_1-2" data-name="Слой 1"><g id="Ellipse"><g class="cls-2"><path id="path3_stroke_2x" data-name="path3 stroke 2x" class="cls-3" d="M29,17.5A11.5,11.5,0,0,1,17.5,29v6A17.5,17.5,0,0,0,35,17.5ZM17.5,29A11.5,11.5,0,0,1,6,17.5H0A17.5,17.5,0,0,0,17.5,35ZM6,17.5A11.5,11.5,0,0,1,17.5,6V0A17.5,17.5,0,0,0,0,17.5ZM17.5,6A11.5,11.5,0,0,1,29,17.5h6A17.5,17.5,0,0,0,17.5,0Z"/></g></g><path id="path4_fill" data-name="path4 fill" class="cls-4" d="M25.5,23.44a30.13,30.13,0,0,0-4.61-2.9V19.36a5.77,5.77,0,0,0,.35-1c.51-.18.8-.94,1-1.61.25-.89.23-1.51-.07-1.85.31-1.71.17-3-.41-3.74a1.84,1.84,0,0,0-.91-.65,3.37,3.37,0,0,0-1.11-1A4,4,0,0,0,17.66,9l-.39,0a3.77,3.77,0,0,0-1,.19h0a4.46,4.46,0,0,0-1.06.54,5.57,5.57,0,0,0-1.06.87A4.39,4.39,0,0,0,13,12.67a3.89,3.89,0,0,0,0,1.86.93.93,0,0,0-.19.18c-.28.37-.29.94,0,1.81A2.83,2.83,0,0,0,13.45,18,5.45,5.45,0,0,0,14,19.58v1a29.8,29.8,0,0,0-4.61,2.9l.6.77a28.69,28.69,0,0,1,4.63-2.88.64.64,0,0,0,.37-.59v-1.3a.49.49,0,0,0-.07-.25,4.43,4.43,0,0,1-.54-1.6.5.5,0,0,0-.37-.4,2.66,2.66,0,0,1-.39-.95,2.23,2.23,0,0,1-.13-.9.51.51,0,0,0,.41-.19A.49.49,0,0,0,14,14.7a3,3,0,0,1-.07-1.79,3.45,3.45,0,0,1,.94-1.63,4.53,4.53,0,0,1,.88-.73h0a3.38,3.38,0,0,1,.83-.43h0a2.68,2.68,0,0,1,.74-.14,3.15,3.15,0,0,1,1.89.4,2.31,2.31,0,0,1,.86.78.45.45,0,0,0,.39.26.8.8,0,0,1,.5.36c.24.34.58,1.2.15,3.23a.49.49,0,0,0,.27.55,1.94,1.94,0,0,1-.12.93,3.32,3.32,0,0,1-.35.89.47.47,0,0,0-.28,0,.49.49,0,0,0-.29.37A5,5,0,0,1,20,19a.5.5,0,0,0,0,.21v1.51a.65.65,0,0,0,.37.59,28.86,28.86,0,0,1,4.62,2.88Z"/></g></g></svg>