<svg width="25" height="17" viewBox="0 0 29 19" version="1.1" xmlns="http://www.w3.org/2000/svg" xmlns:xlink="http://www.w3.org/1999/xlink">
    <title>video-camera</title>
    <desc>Created using Figma</desc>
    <g id="Canvas" transform="translate(-13605 -3216)">
        <g id="video-camera">
            <g id="Vector">
                <path d="M 0 10.8727L 4.94923 15.8369C 5.10757 15.996 5.30551 16.0756 5.52324 16.0756C 5.6222 16.0756 5.74096 16.0557 5.83993 16.0159C 6.13683 15.8966 6.33477 15.5981 6.33477 15.2599L 6.33477 0.81565C 6.33477 0.497347 6.13683 0.198939 5.83993 0.0596818C 5.54303 -0.0596816 5.18675 -2.83122e-07 4.96902 0.238727L 0.0197945 5.20292L 0.0197945 7.04773L 4.96902 2.04773L 4.96902 13.8494L 0 9.04773L 0 10.8727Z" transform="translate(13627.7 3217.45)" fill="#fff"></path>
            </g>
            <g id="Rectangle">
                <mask id="mask0_outline_ins">
                    <path d="M 0 2C 0 0.895431 0.895431 0 2 0L 21 0C 22.1046 0 23 0.895431 23 2L 23 17C 23 18.1046 22.1046 19 21 19L 2 19C 0.895431 19 0 18.1046 0 17L 0 2Z" fill="white" transform="translate(13605 3216)"></path>
                </mask>
                <g mask="url(#mask0_outline_ins)">
                    <path d="M 2 1.3L 21 1.3L 21 -1.3L 2 -1.3L 2 1.3ZM 21.7 2L 21.7 17L 24.3 17L 24.3 2L 21.7 2ZM 21 17.7L 2 17.7L 2 20.3L 21 20.3L 21 17.7ZM 1.3 17L 1.3 2L -1.3 2L -1.3 17L 1.3 17ZM 2 17.7C 1.6134 17.7 1.3 17.3866 1.3 17L -1.3 17C -1.3 18.8225 0.17746 20.3 2 20.3L 2 17.7ZM 21.7 17C 21.7 17.3866 21.3866 17.7 21 17.7L 21 20.3C 22.8225 20.3 24.3 18.8225 24.3 17L 21.7 17ZM 21 1.3C 21.3866 1.3 21.7 1.6134 21.7 2L 24.3 2C 24.3 0.17746 22.8225 -1.3 21 -1.3L 21 1.3ZM 2 -1.3C 0.17746 -1.3 -1.3 0.17746 -1.3 2L 1.3 2C 1.3 1.6134 1.6134 1.3 2 1.3L 2 -1.3Z" transform="translate(13605 3216)" fill="#fff"></path>
                </g>
            </g>
        </g>
    </g>
</svg>
