<svg viewBox="0 0 41 32" version="1.1" xmlns="http://www.w3.org/2000/svg" xmlns:xlink="http://www.w3.org/1999/xlink">
<title>youtube</title>
<desc>Created using Figma</desc>
<g id="Canvas" transform="translate(-12964 -3395)">
<g id="youtube">
<g id="Vector">
<use xlink:href="#path0_fill" transform="translate(12964 3395)" fill="#D8362A"/>
</g>
<g id="Vector">
<use xlink:href="#path1_fill" transform="translate(12979.6 3403.65)" fill="#FFFFFF"/>
</g>
</g>
</g>
<defs>
<path id="path0_fill" d="M 40.5758 6.90908C 40.5758 6.90908 40.1517 3.78178 38.95 2.4C 37.3948 0.581813 35.6276 0.581812 34.85 0.509065C 29.1242 0.0727471 20.5 -6.03415e-08 20.5 -6.03415e-08C 20.5 -6.03415e-08 11.8758 0.0727471 6.15 0.509065C 5.37244 0.581812 3.6052 0.65456 2.05 2.4C 0.777559 3.78186 0.424174 6.90908 0.424174 6.90908C 0.424174 6.90908 0 10.6182 0 14.3273L 0 17.7455C 0 21.4546 0.424174 25.091 0.424174 25.091C 0.424174 25.091 0.848348 28.2183 2.05 29.6001C 3.6052 31.4183 5.6552 31.3455 6.57417 31.5638C 9.82583 31.9273 20.5 32 20.5 32C 20.5 32 29.1242 32 34.85 31.4909C 35.6276 31.4182 37.3948 31.3454 38.95 29.6C 40.1517 28.2182 40.5758 25.0909 40.5758 25.0909C 40.5758 25.0909 41 21.3818 41 17.7454L 41 14.3272C 41 10.6182 40.5758 6.90908 40.5758 6.90908Z"/>
<path id="path1_fill" d="M 5.8651e-08 2.81594e-07L 5.8651e-08 15.7818L 13.431 8.07279L 5.8651e-08 2.81594e-07Z"/>
</defs>
</svg>
