<svg xmlns="http://www.w3.org/2000/svg" viewBox="0 0 24 24" width="50" height="50"><defs><style>.cls-1{fill:#55902a;}</style></defs><title>Asset 1</title><g id="Layer_2" data-name="Layer 2"><g id="icons"><path fill="#55902a" class="cls-1" d="M12,0A12,12,0,1,0,24,12,12,12,0,0,0,12,0Zm8.65,7H18.23c-.42-.52-2.63-3.9-3-4.45A10,10,0,0,1,20.65,7ZM6,12a6,6,0,1,1,6,6A6,6,0,0,1,6,12ZM12.48,2,14,4.26a7.72,7.72,0,0,0-3.94,0L11.52,2,12,2Zm-3.71.52C8.4,3.1,6.18,6.48,5.77,7H3.35A10,10,0,0,1,8.77,2.55ZM2.46,9H4.59a7.94,7.94,0,0,0,0,6H2.46a10,10,0,0,1,0-6Zm.89,8H5.77c.42.52,2.63,3.9,3,4.45A10,10,0,0,1,3.35,17Zm8.17,5L10,19.75a7.74,7.74,0,0,0,3.94,0L12.48,22,12,22Zm3.71-.52c.37-.55,2.59-3.94,3-4.45h2.41A10,10,0,0,1,15.23,21.45ZM21.54,15H19.41a7.94,7.94,0,0,0,0-6h2.13a10,10,0,0,1,0,6Z"/><path fill="#55902a" class="cls-1" d="M13,17V15.95a2.5,2.5,0,0,0,2-2.45,2.47,2.47,0,0,0-.51-1.5A2.47,2.47,0,0,0,15,10.5a2.5,2.5,0,0,0-2-2.45V7H11V8H9v8h2v1Zm-.5-3H11V13h1.5a.5.5,0,0,1,0,1Zm.5-3.5a.5.5,0,0,1-.5.5H11V10h1.5A.5.5,0,0,1,13,10.5Z"/></g></g></svg>