<svg xmlns="http://www.w3.org/2000/svg" viewBox="0 0 18.8 36" width="11" height="21"><defs><style>.cls-1{fill:#898c8a;fill-rule:evenodd;}</style></defs><title>Asset 1</title><g id="Layer_2" data-name="Layer 2"><g id="Layer_1-2" data-name="Layer 1"><path fill="#898c8a" class="cls-1" d="M15,6.08c1.12,0,2.23,0,3.35,0h.46V.26C18.2.2,17.58.12,17,.09,15.81,0,14.66,0,13.52,0A8.43,8.43,0,0,0,8.67,1.5,7.26,7.26,0,0,0,5.76,6.35a16.94,16.94,0,0,0-.2,2.49c0,1.3,0,2.6,0,3.91v.49H0v6.48H5.52V36h6.74V19.74h5.5l.85-6.51H12.22s0-3.21.05-4.61C12.33,6.71,13.46,6.13,15,6.08Z"/></g></g></svg>