<svg xmlns="http://www.w3.org/2000/svg" viewBox="0 0 24.06 24.06" width="18" height="18"><defs><style>.cls-1{fill:#898c8a;fill-rule:evenodd;}</style></defs><title>Asset 1</title><g id="Layer_2" data-name="Layer 2"><g id="Layer_1-2" data-name="Layer 1"><path fill="#898c8a" class="cls-1" d="M20.3,0H3.76A3.76,3.76,0,0,0,0,3.76V20.3a3.76,3.76,0,0,0,3.76,3.76H20.3a3.76,3.76,0,0,0,3.76-3.76V3.76A3.76,3.76,0,0,0,20.3,0ZM17.18,3.32a.67.67,0,0,1,.67-.67h2.9a.67.67,0,0,1,.67.67V6.22a.67.67,0,0,1-.67.67h-2.9a.67.67,0,0,1-.67-.67Zm-9.58,7a4.76,4.76,0,0,1,8.87,0A4.72,4.72,0,0,1,16.79,12a4.76,4.76,0,1,1-9.53,0A4.69,4.69,0,0,1,7.59,10.29Zm13.92,10a1.22,1.22,0,0,1-1.21,1.21H3.76A1.22,1.22,0,0,1,2.55,20.3v-10H4.92A7.31,7.31,0,1,0,19.34,12a7.25,7.25,0,0,0-.21-1.74h2.38Z"/></g></g></svg>