<svg xmlns="http://www.w3.org/2000/svg" viewBox="0 0 17 20" width="42" height="50" ><defs><style>.cls-1{fill:#55902a;}</style></defs><title>Asset 1</title><g id="Layer_2" data-name="Layer 2"><g id="icons"><path fill="#55902a" class="cls-1" d="M11,20H1a1,1,0,0,1-1-1V8A8,8,0,0,1,8,0c6.5,0,7.55,4.59,8.56,9,.13.57.26,1.15.41,1.74A1,1,0,0,1,16,12H15v3a2,2,0,0,1-2,2H12v2A1,1,0,0,1,11,20ZM2,18h8V16a1,1,0,0,1,1-1h2V11a1,1,0,0,1,1-1h.73l-.12-.53C13.49,4.56,12.69,2,8,2A6,6,0,0,0,2,8Z"/><path fill="#55902a" class="cls-1" d="M8.6,4H7.2v.74A1.75,1.75,0,0,0,7.55,8.2h.7a.35.35,0,0,1,0,.7H5.8v1.4H7.2V11H8.6v-.73A1.75,1.75,0,0,0,8.25,6.8h-.7a.35.35,0,0,1,0-.7H10V4.7H8.6Z"/></g></g></svg>