<svg xmlns="http://www.w3.org/2000/svg" viewBox="0 0 585 585" width="60" height="60"><defs><style>.cls-1{fill:#489136;}</style></defs><title>Asset 2</title><g id="Layer_2" data-name="Layer 2"><g id="icons"><path fill="#489136" class="cls-1" d="M292.5,0H292V56h.5C423.12,56,529,161.88,529,292.5S423.12,529,292.5,529,56,423.12,56,292.5c0-.17,0-.33,0-.5H0c0,.17,0,.33,0,.5C0,454,131,585,292.5,585S585,454,585,292.5,454,0,292.5,0Z"/><path fill="#489136" class="cls-1" d="M218.56,274.61v1.81a21.66,21.66,0,0,1-3.63,10.69A23.33,23.33,0,0,1,203.64,296a25.66,25.66,0,0,1-6.86,2.42q-4,1.41-8.77,3t-8.17,2.82l-2.42.81q-1.21.41-2.22.81-5.25,1.81-6.65,5.14a15.13,15.13,0,0,0-1.41,5.75v50.61H150V312.12h.2a22.36,22.36,0,0,1,5.14-12.81q4.74-5.95,15.63-9a1.57,1.57,0,0,1,.6-.2,1.55,1.55,0,0,0,.6-.2q3.63-1.21,7.66-2.72t7.26-2.52q1.41-.4,3.33-1.11t3.13-1.11q5-1.82,6.55-4.94a13.33,13.33,0,0,0,1.51-5.75v-36.3H150V221.17h68.56v53.44Z"/><path fill="#489136" class="cls-1" d="M272.6,260.29q12.1,0,19,2.92t10.28,7a18.1,18.1,0,0,1,4.24,8.17,36.1,36.1,0,0,1,.81,6.35v59.89a36,36,0,0,1-.81,6.35,18.07,18.07,0,0,1-4.24,8.17q-3.43,4-10.28,7t-19,2.92q-12.1,0-19-2.92t-10.28-7a18,18,0,0,1-4.24-8.07,34.66,34.66,0,0,1-.81-6.45v-5.24h16.94v2.22a14.39,14.39,0,0,0,.61,3.93,8.73,8.73,0,0,0,2.52,3.93,15.87,15.87,0,0,0,5.44,3.13,26.76,26.76,0,0,0,9.17,1.31,25,25,0,0,0,9-1.31,14,14,0,0,0,5.14-3.23,8.88,8.88,0,0,0,2.32-4,17.12,17.12,0,0,0,.5-3.93V287.92a17.13,17.13,0,0,0-.5-3.93,8.89,8.89,0,0,0-2.32-4,14.12,14.12,0,0,0-5.14-3.23,24.39,24.39,0,0,0-8.77-1.31,26.83,26.83,0,0,0-9.17,1.31,15.93,15.93,0,0,0-5.44,3.13,8.73,8.73,0,0,0-2.52,3.93,13.82,13.82,0,0,0-.6,3.73v2.22H238.32V221.17h68.56v14.12H255.26v27.22A59.77,59.77,0,0,1,272.6,260.29Z"/><path fill="#489136" class="cls-1" d="M337.43,231.76a12.28,12.28,0,0,1,2.92-4.94,17.39,17.39,0,0,1,6.65-4.13,42.15,42.15,0,0,1,23.8,0,17.45,17.45,0,0,1,6.65,4.13,12.34,12.34,0,0,1,2.92,4.94,16.52,16.52,0,0,1,.71,4.34v35.69a17.61,17.61,0,0,1-.71,4.44,12.21,12.21,0,0,1-2.92,5,17.41,17.41,0,0,1-6.65,4.13,42.15,42.15,0,0,1-23.8,0,17.35,17.35,0,0,1-6.65-4.13,12.15,12.15,0,0,1-2.92-5,17.48,17.48,0,0,1-.71-4.44V236.09A16.41,16.41,0,0,1,337.43,231.76Zm96.29-12.4q-4.23,8.47-10,20.37t-12.4,25.51q-6.65,13.61-13.61,28.13T384,321.59q-6.76,13.72-12.6,25.91t-10.28,21.27H346.2l72.39-149.42Zm-83.18,55.25q1.92,2.22,8,2.22a17.9,17.9,0,0,0,5.55-.71,9,9,0,0,0,3.23-1.71,5.28,5.28,0,0,0,1.51-2.22,6.66,6.66,0,0,0,.4-2V237.91a7.09,7.09,0,0,0-.4-2.22,5.3,5.3,0,0,0-1.51-2.22,9.08,9.08,0,0,0-3.23-1.71,18,18,0,0,0-5.55-.71q-6.05,0-8,2.32a7.4,7.4,0,0,0-1.92,4.74V270A7,7,0,0,0,350.54,274.61Zm49.81,37.2a12.28,12.28,0,0,1,2.92-4.94,17.39,17.39,0,0,1,6.65-4.13,42.15,42.15,0,0,1,23.79,0,17.44,17.44,0,0,1,6.65,4.13,12.34,12.34,0,0,1,2.92,4.94,16.52,16.52,0,0,1,.71,4.34v35.69a17.61,17.61,0,0,1-.71,4.44,12.22,12.22,0,0,1-2.92,5,17.41,17.41,0,0,1-6.65,4.13,42.15,42.15,0,0,1-23.79,0,17.36,17.36,0,0,1-6.65-4.13,12.15,12.15,0,0,1-2.92-5,17.48,17.48,0,0,1-.71-4.44V316.15A16.41,16.41,0,0,1,400.34,311.81Zm13,42.75q1.82,2.32,8.07,2.32a17.9,17.9,0,0,0,5.55-.71,9,9,0,0,0,3.23-1.71,5.28,5.28,0,0,0,1.51-2.22,6.66,6.66,0,0,0,.4-2V318a7.09,7.09,0,0,0-.4-2.22,5.3,5.3,0,0,0-1.51-2.22,9.08,9.08,0,0,0-3.23-1.71,18,18,0,0,0-5.55-.71q-6.25,0-8.07,2.32a7.63,7.63,0,0,0-1.81,4.74V350A7.4,7.4,0,0,0,413.35,354.56Z"/></g></g></svg>