<svg xmlns="http://www.w3.org/2000/svg" viewBox="0 0 21.46 22" width="50" height="50"><defs><style>.cls-1{fill:#55902a;}</style></defs><title>Asset 1</title><g id="Layer_2" data-name="Layer 2"><g id="icons"><circle fill="#55902a" class="cls-1" cx="18.73" cy="21" r="1"/><circle fill="#55902a" class="cls-1" cx="2.73" cy="21" r="1"/><path fill="#55902a" class="cls-1" d="M21.36,14.73l-1.63-4.9V1a1,1,0,0,0-1-1h-16a1,1,0,0,0-1,1V9.84L.1,14.73a1.72,1.72,0,0,0,.21,1.57A1.72,1.72,0,0,0,1.73,17h8v3h-5v2h12V20h-5V17h8a1.67,1.67,0,0,0,1.63-2.27ZM17.73,2V9h-14V2ZM2.12,15l1.33-4H18l1.33,4Z"/><rect fill="#55902a" class="cls-1" x="8.73" y="12" width="4" height="2"/></g></g></svg>