<svg xmlns="http://www.w3.org/2000/svg" viewBox="0 0 21.45 18.53" width="18" height="15"><defs><style>.cls-1{fill:#898c8a;}</style></defs><title>Asset 1</title><g id="Layer_2" data-name="Layer 2"><g id="Layer_1-2" data-name="Layer 1"><path fill="#898c8a" class="cls-1" d="M19.88.21.83,7.68S-.07,8,0,8.56s.81.83.81.83L5.6,11,17.11,3.69s.66-.4.64,0c0,0,.12.07-.24.4s-9,8.14-9,8.14l-.63,5.34a.54.54,0,0,0,.51-.07l3.1-2.82,4.83,3.7a1.26,1.26,0,0,0,1.78-.62L21.45.66C21.45-.48,19.88.21,19.88.21Z"/></g></g></svg>