<svg xmlns="http://www.w3.org/2000/svg" viewBox="0 0 32.54 19.05" width="25" height="14"><defs><style>.cls-1{fill:#898c8a;}</style></defs><title>Asset 2</title><g id="Layer_2" data-name="Layer 2"><g id="Layer_1-2" data-name="Layer 1"><path fill="#898c8a" class="cls-1" d="M32.3,1.46c-.4-.34-2-.33-3.51-.32a20.41,20.41,0,0,0-3.52.16c-.34.13-1.09,2-2.08,3.83-1.11,2.13-2.49,4.17-3.36,4.16-1.13,0-.87-3.51-.8-6.07,0-1.7-.23-2.23-.48-2.4A10.12,10.12,0,0,0,16.32,0s-4.89-.37-5.59,1.76c.93.12,2.54-.18,1.92,6.39,0,.32-.75,3-3-.64C9,6.63,6.85,1.16,6.1,1.14c-2.54-.07-5-.17-5.91.32s1.1,4.23,4.31,9.27c2.63,4.12,5.42,7.34,10.22,8.15a11.81,11.81,0,0,0,4-.16c.51-.25-.11-3.82,1.6-4.15.77-.15,3.68,3.71,4.79,4.15a11.42,11.42,0,0,0,3.67.32c1.64-.05,3.49.14,3.67-1,.4-2.46-5-5.67-5.11-7.19-.12-1.09,2-3.1,3-4.63C31.69,4.39,33.11,2.15,32.3,1.46Z"/></g></g></svg>