<svg xmlns="http://www.w3.org/2000/svg" viewBox="0 0 26.19 18.35" width="21" height="15"><defs><style>.cls-1{fill:#898c8a;fill-rule:evenodd;}</style></defs><title>Asset 1</title><g id="Layer_2" data-name="Layer 2"><g id="Layer_1-2" data-name="Layer 1"><path fill="#898c8a" class="cls-1" d="M2.69,17.82a3,3,0,0,1-2-2C-.19,13.47-.44,3.46,1.23,1.49A3.24,3.24,0,0,1,3.42.32C7.94-.16,21.89-.09,23.5.49a3.15,3.15,0,0,1,2,1.9c1,2.47,1,11.48-.12,13.86a3.06,3.06,0,0,1-1.42,1.43C22.25,18.56,4.91,18.54,2.69,17.82Zm7.17-4.69L18,8.91,9.87,4.66Z"/></g></g></svg>