<svg xmlns="http://www.w3.org/2000/svg" viewBox="0 0 20.31 7.7"><defs><style>.cls-1{fill:#ffb800;}</style></defs><title>icon-russian-support</title><g id="Слой_2" data-name="Слой 2"><g id="Layer_1" data-name="Layer 1"><path class="cls-1" d="M4.67,4.49,4,2.4c-.05-.14-.12-.36-.22-.66s-.16-.52-.19-.66a11.74,11.74,0,0,1-.41,1.41l-.69,2H4.67ZM5.77,7.7,5,5.57H2.07L1.32,7.7H0L2.87,0H4.23L7.1,7.7H5.77ZM9.44,6.64h.9a2.34,2.34,0,0,0,1.32-.3,1.09,1.09,0,0,0,.42-1,1,1,0,0,0-.42-.91,2.8,2.8,0,0,0-1.47-.28H9.44V6.64Zm3.93-1.25q0,2.31-3,2.31H8.19V0h4.68V1.1H9.44v2h.91q3,0,3,2.24Zm2.7-1.18V6.64H17.4a2,2,0,0,0,1.19-.3,1.11,1.11,0,0,0,.4-1,1,1,0,0,0-.41-.89,2.17,2.17,0,0,0-1.24-.29H16.07Zm0-1h1.21a2.06,2.06,0,0,0,1.15-.25,1,1,0,0,0,.36-.85.85.85,0,0,0-.39-.78,2.45,2.45,0,0,0-1.24-.24H16.07ZM14.82,0H17.1a4.32,4.32,0,0,1,2.29.46A1.62,1.62,0,0,1,20.09,2a1.77,1.77,0,0,1-.34,1.12,1.55,1.55,0,0,1-1,.56v.05a2,2,0,0,1,1.19.6,1.82,1.82,0,0,1,.38,1.22,2,2,0,0,1-.72,1.62,3.1,3.1,0,0,1-2,.58H14.82V0Z"/></g></g></svg>