<svg xmlns="http://www.w3.org/2000/svg" viewBox="0 0 24 24"><defs><style>.cls-1{fill:#4d76a1;}</style></defs><title>Asset 1</title><g id="Layer_2" data-name="Layer 2"><g id="Capa_1" data-name="Capa 1"><path class="cls-1" d="M12,0A12,12,0,1,0,24,12,12,12,0,0,0,12,0Zm6.88,17.26-2.11,0a1.5,1.5,0,0,1-1-.32c-.78-.54-1.53-1.94-2.1-1.76s-.57,1.45-.57,1.45a.75.75,0,0,1-.13.42.83.83,0,0,1-.43.18h-.94a5.39,5.39,0,0,1-3.91-1.78,25.54,25.54,0,0,1-3.76-6.2s-.1-.27,0-.4.46-.16.46-.16H6.6A.92.92,0,0,1,7,8.86a.71.71,0,0,1,.19.26A15.79,15.79,0,0,0,8,10.87c.94,1.63,1.38,2,1.7,1.81s.32-2.3.32-2.3A2.29,2.29,0,0,0,9.8,9.31,1.06,1.06,0,0,0,9.1,9c-.13,0,.08-.31.35-.45a5.22,5.22,0,0,1,2-.2,4.34,4.34,0,0,1,1.11.11c.78.19.51.91.51,2.65,0,.56-.1,1.34.3,1.6.18.11.6,0,1.65-1.78a14.32,14.32,0,0,0,.88-1.84.67.67,0,0,1,.21-.26.48.48,0,0,1,.3,0l2.37,0s.71-.08.83.24-.27,1.12-1.23,2.41c-1.59,2.12-1.77,1.92-.45,3.15a6.89,6.89,0,0,1,1.56,1.81C20,17.2,18.88,17.26,18.88,17.26Z"/></g></g>
</svg>
