<svg xmlns="http://www.w3.org/2000/svg" width="12px" height="16px" fill="#ffb800" viewBox="0 0 11.36 15.8">
<path d="M11,13.23,11.35,15a.34.34,0,0,1,0,.25.36.36,0,0,1-.19.16h-.06l-.12,0-.18,0-.24.06-.29.06-.34.06-.38,0-.41,0H8.68a7.47,7.47,0,0,1-4.59-1.46,7.23,7.23,0,0,1-2.67-3.94H.36a.35.35,0,0,1-.25-.11A.35.35,0,0,1,0,10V8.76a.34.34,0,0,1,.11-.25.34.34,0,0,1,.25-.11H1.1c0-.43,0-.82,0-1.18H.36a.35.35,0,0,1-.26-.1A.35.35,0,0,1,0,6.87V5.59a.34.34,0,0,1,.36-.36h1.1A7.32,7.32,0,0,1,4.19,1.44,7.46,7.46,0,0,1,8.69,0a8.89,8.89,0,0,1,2.18.26.42.42,0,0,1,.23.17.37.37,0,0,1,0,.27l-.48,1.78a.33.33,0,0,1-.43.25h0l-.13,0-.2,0-.25,0-.29,0L9,2.55H8.64a4.6,4.6,0,0,0-2.54.72,4.44,4.44,0,0,0-1.68,2H9.67a.33.33,0,0,1,.28.13.34.34,0,0,1,.08.29L9.76,6.93a.33.33,0,0,1-.36.29H3.93a9.88,9.88,0,0,0,0,1.18H9.08a.34.34,0,0,1,.28.13.36.36,0,0,1,.07.3L9.16,10.1a.35.35,0,0,1-.12.21.34.34,0,0,1-.23.09H4.47a4.52,4.52,0,0,0,1.68,2.08,4.47,4.47,0,0,0,2.56.77l.4,0,.38,0,.33,0,.27-.06.21,0,.14,0,.06,0a.34.34,0,0,1,.29,0,.34.34,0,0,1,.17.24"/>
</svg>