<svg version="1.1"
	 xmlns="http://www.w3.org/2000/svg" xmlns:xlink="http://www.w3.org/1999/xlink" xmlns:a="http://ns.adobe.com/AdobeSVGViewerExtensions/3.0/"
	 x="0px" y="0px" width="158.1px" height="58.8px" viewBox="0 0 158.1 58.8" style="enable-background:new 0 0 158.1 58.8;"
	 xml:space="preserve">
<style type="text/css">
	.st0{fill:#FFC200;}
	.st1{fill:#FFA300;}
	.st2{fill:#CC6315;}
	.st3{fill:#FFF0A4;}
	.st4{fill:#FFF2BB;}
	.st5{fill:#76C6ED;}
	.st6{clip-path:url(#SVGID_2_);}
	.st7{fill:#0097DF;}
	.st8{fill:#FFFFFF;}
	.st9{clip-path:url(#SVGID_4_);}
</style>
<defs>
</defs>
<g>
	<g>
		<g>
			<g>
				<path class="st0" d="M21.5,33.5c-4.4-0.6-7.9-4.4-7.9-9v-3.1h7.9v-2.7H10.9v5.8c0,6.1,4.6,11.1,10.6,11.7V33.5z"/>
				<path class="st1" d="M10.9,21.4v3.1c0,6.1,4.6,11.1,10.6,11.7v-2.7c-4.4-0.6-7.9-4.4-7.9-9v-3.1H10.9z"/>
				<path class="st0" d="M37.3,33.5c4.4-0.6,7.9-4.4,7.9-9v-3.1h-7.9v-2.7h10.6v5.8c0,6.1-4.6,11.1-10.6,11.7V33.5z"/>
				<path class="st1" d="M47.9,21.4v3.1c0,6.1-4.6,11.1-10.6,11.7v-2.7c4.4-0.6,7.9-4.4,7.9-9v-3.1H47.9z"/>
				<path class="st0" d="M32.3,43.8l-0.5-3.6h0.1c0.5,0,0.9-0.4,0.9-0.9c0-0.5-0.4-0.9-0.9-0.9h-5c-0.5,0-0.9,0.4-0.9,0.9
					c0,0.5,0.4,0.9,0.9,0.9H27l-0.5,3.6c-1.7,0.2-3.1,1.7-3.1,3.5v0h12.1v0C35.4,45.4,34,44,32.3,43.8z"/>
				<path class="st0" d="M29.5,39.5h-0.2c-5.9,0-10.9-4.5-11.6-10.4l-1.5-12.4l0.1,0c0.5-0.1,25.7-0.1,26.1,0l0.1,0l-1.5,12.4
					C40.4,35,35.4,39.5,29.5,39.5z"/>
				<path class="st1" d="M42.6,16.7l-0.1,0c-4.5,0-8.7-0.1-13.1-0.1v22.9h0.1c1,0,2-0.1,2.9-0.4c0.2-0.1,0.4-0.1,0.6-0.2
					c0.3-0.1,0.5-0.2,0.8-0.3c3.9-1.5,6.8-5.1,7.3-9.5L42.6,16.7z"/>
				<path class="st1" d="M32.3,43.8l-0.5-3.6h0.1c0.5,0,0.9-0.4,0.9-0.9c0-0.5-0.4-0.9-0.9-0.9h-2.5v8.8h6v0
					C35.4,45.4,34,44,32.3,43.8z"/>
				<polygon class="st2" points="32,42 31.8,40.2 26.9,40.2 26.7,42 				"/>
				<g>
					<path class="st3" d="M20.6,31.7c-0.7-1.7-0.9-3.4-1.2-5.2c-0.1-1.2-0.3-2.4-0.4-3.6c0-0.4-0.7-0.4-0.6,0
						c0.2,1.3,0.3,2.6,0.5,3.9c0.2,1.8,0.5,3.6,1.2,5.3C20.2,32.3,20.8,32,20.6,31.7L20.6,31.7z"/>
				</g>
				<g>
					<path class="st3" d="M23.2,35.3c-0.5-0.5-1-1-1.4-1.6c-0.2-0.3-0.8,0-0.5,0.3c0.5,0.6,1,1.2,1.5,1.8C23,36,23.5,35.5,23.2,35.3
						L23.2,35.3z"/>
				</g>
				<g>
					<path class="st0" d="M38.5,31.3c-1.2,2.5-3.2,4.5-5.7,5.7c-0.4,0.2,0,0.7,0.3,0.5c2.6-1.2,4.7-3.3,6-5.9
						C39.2,31.3,38.6,31,38.5,31.3L38.5,31.3z"/>
				</g>
				<g>
					<path class="st0" d="M39.4,27.9c0,0.4-0.1,0.8-0.2,1.3c-0.1,0.4,0.5,0.6,0.6,0.2c0.1-0.5,0.2-1,0.2-1.4
						C40.1,27.5,39.5,27.5,39.4,27.9L39.4,27.9z"/>
				</g>
				<g>
					<path class="st3" d="M25.8,44.4c-0.4,0.2-0.8,0.5-1.1,0.8c-0.3,0.3,0.2,0.7,0.4,0.4c0.3-0.3,0.6-0.5,1-0.7
						C26.5,44.8,26.2,44.3,25.8,44.4L25.8,44.4z"/>
				</g>
			</g>
			<path class="st2" d="M42.6,16.6l-0.1,1.3H16.3l-0.1-1.3l0.1,0c0.4-0.1,25.8-0.1,26.2,0L42.6,16.6z"/>
			<path class="st0" d="M42.8,16.7H16c-0.9,0-1.7-0.8-1.7-1.7l0,0c0-0.9,0.8-1.7,1.7-1.7h26.8c0.9,0,1.7,0.8,1.7,1.7l0,0
				C44.5,16,43.7,16.7,42.8,16.7z"/>
			<path class="st4" d="M17.4,15.4h-0.9c-0.3,0-0.6-0.3-0.6-0.6l0,0c0-0.3,0.3-0.6,0.6-0.6h0.9c0.3,0,0.6,0.3,0.6,0.6l0,0
				C18,15.2,17.7,15.4,17.4,15.4z"/>
			<path class="st4" d="M23.8,15.4h-4.4c-0.3,0-0.6-0.3-0.6-0.6l0,0c0-0.3,0.3-0.6,0.6-0.6h4.4c0.3,0,0.6,0.3,0.6,0.6l0,0
				C24.4,15.2,24.1,15.4,23.8,15.4z"/>
		</g>
		<g>
			<g>
				<g id="_x35_2CFjl_4_">
					<g>
						<path class="st2" d="M37.5,30.9c-0.1,0-0.3-0.1-0.4-0.1c-0.9-0.1-1.7,0-2.5,0.4c-0.3,0.2-0.6,0.4-0.7,0.8c0,0.1,0,0.2,0.1,0.3
							c0.3,0.2,0.6,0.2,0.9,0.2c0.7,0,1.3-0.3,1.9-0.7C36.9,31.6,37.2,31.3,37.5,30.9C37.5,31,37.5,31,37.5,30.9z"/>
						<path class="st2" d="M34,33.2c-0.2-0.1-0.4-0.3-0.6-0.4c-0.6-0.3-1.2-0.5-1.8-0.5c-0.4,0-0.7,0.1-0.9,0.3
							c-0.1,0.1-0.1,0.2,0,0.3c0.2,0.4,0.6,0.5,1,0.6C32.3,33.6,33.1,33.5,34,33.2C33.9,33.2,34,33.2,34,33.2z"/>
						<path class="st2" d="M38.6,28c-0.2,0.1-0.4,0.1-0.6,0.2c-0.7,0.2-1.3,0.6-1.8,1.1C36,29.5,35.9,29.7,36,30
							c0,0.1,0,0.2,0.2,0.2c0.4,0.1,0.7,0,1-0.2c0.7-0.4,1.1-1.1,1.5-1.8C38.6,28.1,38.6,28.1,38.6,28z"/>
						<path class="st2" d="M34.4,29.9C34.4,29.8,34.4,29.8,34.4,29.9c-0.9,0.1-1.6,0.4-2,1.1c-0.1,0.2-0.2,0.5-0.1,0.7
							c0,0.1,0.1,0.1,0.1,0.1c0.3,0.2,0.6,0.1,0.9-0.1c0.4-0.3,0.7-0.8,0.9-1.2C34.3,30.3,34.4,30.1,34.4,29.9z"/>
						<path class="st2" d="M36.2,23.4c-0.1,0.3-0.2,0.5-0.2,0.7c-0.1,0.5-0.2,1-0.1,1.5c0.1,0.3,0.2,0.5,0.4,0.7
							c0.1,0.1,0.2,0.1,0.3,0c0.2-0.2,0.3-0.5,0.3-0.8C37,24.8,36.7,24.1,36.2,23.4C36.3,23.5,36.3,23.4,36.2,23.4z"/>
						<path class="st2" d="M35.8,27c-0.3,0.3-0.5,0.6-0.7,1c-0.2,0.3-0.3,0.7-0.3,1.1c0,0.3,0,0.6,0.2,0.8c0.1,0.1,0.1,0.1,0.2,0.1
							c0.2-0.1,0.4-0.3,0.5-0.4c0.3-0.5,0.3-1,0.3-1.5C36,27.6,36,27.3,35.8,27C35.9,27,35.9,27,35.8,27z"/>
						<path class="st2" d="M38.1,25.5c-0.2,0.1-0.3,0.2-0.5,0.3c-0.4,0.3-0.7,0.7-0.9,1.1c-0.1,0.3-0.2,0.6-0.2,0.9
							c0.1,0.2,0.1,0.3,0.4,0.2c0.3-0.1,0.6-0.4,0.7-0.7c0.3-0.5,0.4-1.1,0.4-1.7C38.1,25.6,38.1,25.6,38.1,25.5z"/>
					</g>
				</g>
				<g id="_x35_2CFjl_3_">
					<g>
						<path class="st2" d="M21.2,30.9c0.1,0,0.3-0.1,0.4-0.1c0.9-0.1,1.7,0,2.5,0.4c0.3,0.2,0.6,0.4,0.7,0.8c0,0.1,0,0.2-0.1,0.3
							c-0.3,0.2-0.6,0.2-0.9,0.2c-0.7,0-1.3-0.3-1.9-0.7C21.8,31.6,21.5,31.3,21.2,30.9C21.2,31,21.2,31,21.2,30.9z"/>
						<path class="st2" d="M24.8,33.2c0.2-0.1,0.4-0.3,0.6-0.4c0.6-0.3,1.2-0.5,1.8-0.5c0.4,0,0.7,0.1,0.9,0.3
							c0.1,0.1,0.1,0.2,0,0.3c-0.2,0.4-0.6,0.5-1,0.6C26.4,33.6,25.6,33.5,24.8,33.2C24.8,33.2,24.8,33.2,24.8,33.2z"/>
						<path class="st2" d="M20.1,28c0.2,0.1,0.4,0.1,0.6,0.2c0.7,0.2,1.3,0.6,1.8,1.1c0.2,0.2,0.3,0.5,0.3,0.8c0,0.1,0,0.2-0.2,0.2
							c-0.4,0.1-0.7,0-1-0.2c-0.7-0.4-1.1-1.1-1.5-1.8C20.2,28.1,20.2,28.1,20.1,28z"/>
						<path class="st2" d="M24.3,29.9C24.4,29.8,24.4,29.8,24.3,29.9c0.9,0.1,1.6,0.4,2,1.1c0.1,0.2,0.2,0.5,0.1,0.7
							c0,0.1-0.1,0.1-0.1,0.1c-0.3,0.2-0.6,0.1-0.9-0.1c-0.4-0.3-0.7-0.8-0.9-1.2C24.4,30.3,24.4,30.1,24.3,29.9z"/>
						<path class="st2" d="M22.5,23.4c0.1,0.3,0.2,0.5,0.2,0.7c0.1,0.5,0.2,1,0.1,1.5c-0.1,0.3-0.2,0.5-0.4,0.7
							c-0.1,0.1-0.2,0.1-0.3,0c-0.2-0.2-0.3-0.5-0.3-0.8C21.8,24.8,22,24.1,22.5,23.4C22.5,23.5,22.5,23.4,22.5,23.4z"/>
						<path class="st2" d="M22.9,27c0.3,0.3,0.5,0.6,0.7,1c0.2,0.3,0.3,0.7,0.3,1.1c0,0.3,0,0.6-0.2,0.8c-0.1,0.1-0.1,0.1-0.2,0.1
							c-0.2-0.1-0.4-0.3-0.5-0.4c-0.3-0.5-0.3-1-0.3-1.5C22.7,27.6,22.8,27.3,22.9,27C22.9,27,22.9,27,22.9,27z"/>
						<path class="st2" d="M20.6,25.5c0.2,0.1,0.3,0.2,0.5,0.3c0.4,0.3,0.7,0.7,0.9,1.1c0.1,0.3,0.2,0.6,0.2,0.9
							c-0.1,0.2-0.1,0.3-0.4,0.2c-0.3-0.1-0.6-0.4-0.7-0.7c-0.3-0.5-0.4-1.1-0.4-1.7C20.6,25.6,20.6,25.6,20.6,25.5z"/>
					</g>
				</g>
			</g>
			<path class="st2" d="M29.2,27.2L27,28.3c-0.2,0.1-0.5-0.1-0.4-0.3l0.4-2.5c0-0.1,0-0.2-0.1-0.3l-1.8-1.7
				c-0.2-0.2-0.1-0.5,0.2-0.5l2.5-0.4c0.1,0,0.2-0.1,0.2-0.2l1.1-2.2c0.1-0.2,0.4-0.2,0.5,0l1.1,2.2c0,0.1,0.1,0.1,0.2,0.2l2.5,0.4
				c0.2,0,0.3,0.3,0.2,0.5l-1.8,1.7c-0.1,0.1-0.1,0.2-0.1,0.3l0.4,2.5c0,0.2-0.2,0.4-0.4,0.3l-2.2-1.2
				C29.4,27.1,29.3,27.1,29.2,27.2z"/>
		</g>
	</g>
	<g>
		<g>
			<path class="st5" d="M29.4,58.8C13.2,58.8,0,45.6,0,29.4S13.2,0,29.4,0s29.4,13.2,29.4,29.4S45.6,58.8,29.4,58.8z M29.4,4.2
				C15.5,4.2,4.2,15.5,4.2,29.4c0,13.9,11.3,25.1,25.1,25.1c13.9,0,25.1-11.3,25.1-25.1C54.5,15.5,43.2,4.2,29.4,4.2z"/>
		</g>
		<g>
			<defs>
				<rect id="SVGID_1_" x="29.4" width="29.4" height="58.8"/>
			</defs>
			<clipPath id="SVGID_2_">
				<use xlink:href="#SVGID_1_"  style="overflow:visible;"/>
			</clipPath>
			<g class="st6">
				<path class="st7" d="M29.4,58.8C13.2,58.8,0,45.6,0,29.4S13.2,0,29.4,0s29.4,13.2,29.4,29.4S45.6,58.8,29.4,58.8z M29.4,4.2
					C15.5,4.2,4.2,15.5,4.2,29.4c0,13.9,11.3,25.1,25.1,25.1c13.9,0,25.1-11.3,25.1-25.1C54.5,15.5,43.2,4.2,29.4,4.2z"/>
			</g>
		</g>
	</g>
</g>
<path class="st7" d="M105.7,9.4c-4.9,0-8.9,3.9-8.9,9s4,9,8.9,9c4.9,0,8.9-3.9,8.9-9S110.6,9.4,105.7,9.4z M111.3,16.9l-2.4,2.3
	c-0.1,0.1-0.1,0.2-0.1,0.3l0.6,3.3c0.1,0.3-0.3,0.6-0.6,0.4l-2.9-1.5c-0.1-0.1-0.2-0.1-0.4,0l-2.9,1.5c-0.3,0.2-0.6-0.1-0.6-0.4
	l0.6-3.3c0-0.1,0-0.3-0.1-0.3l-2.4-2.3c-0.2-0.2-0.1-0.6,0.2-0.7l3.3-0.5c0.1,0,0.2-0.1,0.3-0.2l1.5-3c0.1-0.3,0.6-0.3,0.7,0l1.5,3
	c0.1,0.1,0.2,0.2,0.3,0.2l3.3,0.5C111.4,16.3,111.5,16.7,111.3,16.9z"/>
<g>
	<path class="st8" d="M73.4,26.9c-0.6,0-1.3-0.1-1.9-0.2c-0.6-0.1-1.2-0.3-1.8-0.5c-0.6-0.2-1.1-0.5-1.6-0.8
		c-0.3-0.1-0.5-0.3-0.7-0.5c-0.4-0.3-0.4-0.8-0.1-1.1l2.2-2.4c0.3-0.3,0.7-0.3,1-0.1c0.3,0.2,0.6,0.4,1,0.6c0.6,0.3,1.3,0.5,1.9,0.5
		c0.3,0,0.6-0.1,0.8-0.2c0.2-0.1,0.4-0.3,0.4-0.6c0-0.2,0-0.3-0.1-0.4c-0.1-0.1-0.2-0.2-0.4-0.3c-0.2-0.1-0.5-0.2-0.9-0.4
		c-0.4-0.1-0.8-0.3-1.4-0.5c-0.5-0.2-1.1-0.4-1.6-0.6c-0.5-0.2-0.9-0.6-1.3-0.9c-0.4-0.4-0.7-0.8-0.9-1.3c-0.2-0.5-0.3-1.1-0.3-1.8
		c0-1,0.2-1.8,0.6-2.5s0.9-1.3,1.6-1.7c0.6-0.4,1.4-0.8,2.2-1c0.8-0.2,1.6-0.3,2.4-0.3c1.1,0,2.1,0.2,3.2,0.6
		c0.8,0.3,1.6,0.7,2.2,1.2c0.4,0.3,0.4,0.8,0.1,1.1l-2.2,2.3c-0.3,0.3-0.7,0.3-1,0c-0.3-0.2-0.5-0.4-0.8-0.5c-0.5-0.2-1-0.3-1.4-0.3
		c-0.4,0-0.7,0.1-0.9,0.2c-0.2,0.1-0.4,0.3-0.4,0.6c0,0.2,0.1,0.4,0.4,0.5c0.2,0.1,0.7,0.3,1.2,0.5c0.6,0.2,1.2,0.4,1.8,0.6
		c0.6,0.2,1.2,0.6,1.7,0.9c0.5,0.4,1,0.9,1.3,1.4c0.3,0.6,0.5,1.2,0.5,2.1c0,1-0.2,1.8-0.6,2.5c-0.4,0.7-0.9,1.3-1.5,1.8
		c-0.6,0.5-1.3,0.8-2.1,1.1C75,26.8,74.2,26.9,73.4,26.9z"/>
	<path class="st8" d="M87.5,22v3.7c0,0.4-0.3,0.7-0.7,0.7h-3.9c-0.4,0-0.7-0.3-0.7-0.7V11.2c0-0.4,0.3-0.7,0.7-0.7H89
		c0.8,0,1.6,0.1,2.4,0.3c0.8,0.2,1.5,0.5,2.1,0.9c0.6,0.4,1.1,1,1.5,1.6c0.4,0.7,0.6,1.5,0.6,2.6c0,1-0.2,1.8-0.6,2.5
		c-0.4,0.7-0.9,1.3-1.5,1.7s-1.3,0.8-2.1,0.9s-1.6,0.3-2.4,0.3h-0.8C87.8,21.3,87.5,21.6,87.5,22z M87.5,14.6v2.6h1.1
		c0.4,0,0.8-0.1,1.1-0.3s0.5-0.5,0.5-1c0-0.3,0-0.5-0.1-0.6c-0.1-0.2-0.2-0.3-0.4-0.4c-0.2-0.1-0.3-0.2-0.5-0.2
		c-0.2,0-0.4-0.1-0.6-0.1H87.5z"/>
	<path class="st8" d="M116.8,11.2c0-0.4,0.3-0.7,0.7-0.7h6.1c0.8,0,1.6,0.1,2.3,0.2c0.8,0.2,1.5,0.4,2.1,0.8
		c0.6,0.4,1.1,0.9,1.5,1.6c0.4,0.7,0.6,1.5,0.6,2.5c0,1-0.2,1.8-0.7,2.6c-0.4,0.6-0.8,1-1.4,1.4c-0.3,0.2-0.4,0.7-0.2,1l2.9,4.7
		c0.3,0.5,0,1.1-0.6,1.1h-4.4c-0.3,0-0.5-0.2-0.7-0.4l-2.9-5.3h-0.2v5c0,0.4-0.3,0.7-0.7,0.7h-3.7c-0.4,0-0.7-0.3-0.7-0.7V11.2z
		 M122,17.2h1.1c0.2,0,0.4,0,0.6,0c0.2,0,0.4-0.1,0.6-0.2s0.3-0.2,0.5-0.4s0.2-0.4,0.2-0.7c0-0.3-0.1-0.5-0.2-0.7
		c-0.1-0.2-0.2-0.3-0.4-0.4c-0.2-0.1-0.3-0.1-0.5-0.2c-0.2,0-0.4,0-0.5,0H122V17.2z"/>
	<path class="st8" d="M139.9,26.4H136c-0.4,0-0.7-0.3-0.7-0.7v-10c0-0.4-0.3-0.7-0.7-0.7h-2.4c-0.4,0-0.7-0.3-0.7-0.7v-3
		c0-0.4,0.3-0.7,0.7-0.7h11.7c0.4,0,0.7,0.3,0.7,0.7v3c0,0.4-0.3,0.7-0.7,0.7h-2.4c-0.4,0-0.7,0.3-0.7,0.7v10
		C140.7,26.1,140.3,26.4,139.9,26.4z"/>
	<path class="st8" d="M151.5,26.9c-0.6,0-1.3-0.1-1.9-0.2c-0.6-0.1-1.2-0.3-1.8-0.5c-0.6-0.2-1.1-0.5-1.6-0.8
		c-0.3-0.1-0.5-0.3-0.7-0.5c-0.4-0.3-0.4-0.8-0.1-1.1l2.2-2.4c0.3-0.3,0.7-0.3,1-0.1c0.3,0.2,0.6,0.4,1,0.6c0.6,0.3,1.3,0.5,1.9,0.5
		c0.3,0,0.6-0.1,0.8-0.2c0.2-0.1,0.4-0.3,0.4-0.6c0-0.2,0-0.3-0.1-0.4c-0.1-0.1-0.2-0.2-0.4-0.3c-0.2-0.1-0.5-0.2-0.9-0.4
		c-0.4-0.1-0.8-0.3-1.4-0.5c-0.5-0.2-1.1-0.4-1.6-0.6c-0.5-0.2-0.9-0.6-1.3-0.9c-0.4-0.4-0.7-0.8-0.9-1.3c-0.2-0.5-0.3-1.1-0.3-1.8
		c0-1,0.2-1.8,0.6-2.5s0.9-1.3,1.6-1.7c0.6-0.4,1.4-0.8,2.2-1c0.8-0.2,1.6-0.3,2.4-0.3c1.1,0,2.1,0.2,3.2,0.6
		c0.8,0.3,1.6,0.7,2.2,1.2c0.4,0.3,0.4,0.8,0.1,1.1l-2.2,2.3c-0.3,0.3-0.7,0.3-1,0c-0.3-0.2-0.5-0.4-0.8-0.5c-0.5-0.2-1-0.3-1.4-0.3
		c-0.4,0-0.7,0.1-0.9,0.2c-0.2,0.1-0.4,0.3-0.4,0.6c0,0.2,0.1,0.4,0.4,0.5c0.2,0.1,0.7,0.3,1.2,0.5c0.6,0.2,1.2,0.4,1.8,0.6
		c0.6,0.2,1.2,0.6,1.7,0.9c0.5,0.4,1,0.9,1.3,1.4c0.3,0.6,0.5,1.2,0.5,2.1c0,1-0.2,1.8-0.6,2.5c-0.4,0.7-0.9,1.3-1.5,1.8
		c-0.6,0.5-1.3,0.8-2.1,1.1C153.1,26.8,152.3,26.9,151.5,26.9z"/>
	<path class="st8" d="M78.6,38.1c0.4,0.1,0.7,0.2,1.1,0.4c0.4,0.2,0.7,0.5,1,0.8c0.3,0.3,0.5,0.7,0.7,1.1c0.2,0.4,0.2,0.9,0.2,1.4
		c0,0.9-0.2,1.6-0.5,2.2c-0.4,0.6-0.8,1.1-1.4,1.4c-0.6,0.4-1.2,0.6-2,0.8c-0.7,0.2-1.5,0.2-2.3,0.2h-6.5c-0.4,0-0.7-0.3-0.7-0.7
		V31.2c0-0.4,0.3-0.7,0.7-0.7h5.8c0.6,0,1.3,0,2.1,0.1c0.7,0.1,1.4,0.3,2,0.6c0.6,0.3,1.1,0.7,1.5,1.3c0.4,0.6,0.6,1.3,0.6,2.2
		c0,0.9-0.2,1.6-0.6,2.1S79.3,37.8,78.6,38.1L78.6,38.1z M73.2,34.6v1.2c0,0.4,0.3,0.7,0.7,0.7h0.7c0.4,0,0.7-0.1,0.9-0.3
		c0.2-0.2,0.4-0.4,0.4-0.8c0-0.3-0.1-0.5-0.4-0.7s-0.6-0.2-1-0.2H73.2z M73.2,40v1.4c0,0.4,0.3,0.7,0.7,0.7h0.9c0.4,0,0.8-0.1,1-0.3
		c0.3-0.2,0.4-0.5,0.4-0.8c0-0.2-0.1-0.4-0.2-0.5c-0.1-0.1-0.3-0.2-0.4-0.3c-0.2-0.1-0.3-0.1-0.5-0.2c-0.2,0-0.4,0-0.5,0H73.2z"/>
	<path class="st8" d="M84.6,30.4h9.5c0.4,0,0.7,0.3,0.7,0.7v3c0,0.4-0.3,0.7-0.7,0.7h-5.2v1.4h4.8c0.4,0,0.7,0.3,0.7,0.7v2.7
		c0,0.4-0.3,0.7-0.7,0.7h-4.1c-0.4,0-0.7,0.3-0.7,0.7l0,0c0,0.4,0.3,0.7,0.7,0.7h4.8c0.4,0,0.7,0.3,0.7,0.7v3c0,0.4-0.3,0.7-0.7,0.7
		h-9.9c-0.4,0-0.7-0.3-0.7-0.7V31.2C83.8,30.8,84.2,30.4,84.6,30.4z"/>
	<path class="st8" d="M104.7,46.4h-3.9c-0.4,0-0.7-0.3-0.7-0.7v-10c0-0.4-0.3-0.7-0.7-0.7h-2.4c-0.4,0-0.7-0.3-0.7-0.7v-3
		c0-0.4,0.3-0.7,0.7-0.7h11.7c0.4,0,0.7,0.3,0.7,0.7v3c0,0.4-0.3,0.7-0.7,0.7h-2.4c-0.4,0-0.7,0.3-0.7,0.7v10
		C105.4,46.1,105.1,46.4,104.7,46.4z"/>
	<path class="st8" d="M116.2,46.9c-0.6,0-1.3-0.1-1.9-0.2c-0.6-0.1-1.2-0.3-1.8-0.5c-0.6-0.2-1.1-0.5-1.6-0.8
		c-0.3-0.1-0.5-0.3-0.7-0.5c-0.4-0.3-0.4-0.8-0.1-1.1l2.2-2.4c0.3-0.3,0.7-0.3,1-0.1c0.3,0.2,0.6,0.4,1,0.6c0.6,0.3,1.3,0.5,1.9,0.5
		c0.3,0,0.6-0.1,0.8-0.2c0.2-0.1,0.4-0.3,0.4-0.6c0-0.2,0-0.3-0.1-0.4c-0.1-0.1-0.2-0.2-0.4-0.3c-0.2-0.1-0.5-0.2-0.9-0.4
		c-0.4-0.1-0.8-0.3-1.4-0.5c-0.5-0.2-1.1-0.4-1.6-0.6c-0.5-0.2-0.9-0.6-1.3-0.9c-0.4-0.4-0.7-0.8-0.9-1.3c-0.2-0.5-0.3-1.1-0.3-1.8
		c0-1,0.2-1.8,0.6-2.5s0.9-1.3,1.6-1.7c0.6-0.4,1.4-0.8,2.2-1c0.8-0.2,1.6-0.3,2.4-0.3c1.1,0,2.1,0.2,3.2,0.6
		c0.8,0.3,1.6,0.7,2.2,1.2c0.4,0.3,0.4,0.8,0.1,1.1l-2.2,2.3c-0.3,0.3-0.7,0.3-1,0c-0.3-0.2-0.5-0.4-0.8-0.5c-0.5-0.2-1-0.3-1.4-0.3
		c-0.4,0-0.7,0.1-0.9,0.2c-0.2,0.1-0.4,0.3-0.4,0.6c0,0.2,0.1,0.4,0.4,0.5c0.2,0.1,0.7,0.3,1.2,0.5c0.6,0.2,1.2,0.4,1.8,0.6
		c0.6,0.2,1.2,0.6,1.7,0.9c0.5,0.4,1,0.9,1.3,1.4c0.3,0.6,0.5,1.2,0.5,2.1c0,1-0.2,1.8-0.6,2.5c-0.4,0.7-0.9,1.3-1.5,1.8
		c-0.6,0.5-1.3,0.8-2.1,1.1C117.8,46.8,117,46.9,116.2,46.9z"/>
</g>
<g>
	<path class="st7" d="M127.3,44c0-0.4,0.1-0.8,0.2-1.1s0.4-0.7,0.7-0.9c0.3-0.3,0.6-0.5,1-0.6c0.4-0.2,0.8-0.2,1.2-0.2
		c0.4,0,0.8,0.1,1.1,0.2s0.7,0.4,0.9,0.6c0.3,0.3,0.5,0.6,0.6,0.9s0.2,0.7,0.2,1.1s-0.1,0.8-0.2,1.2s-0.4,0.7-0.6,0.9
		s-0.6,0.5-0.9,0.6s-0.7,0.2-1.1,0.2c-0.4,0-0.8-0.1-1.2-0.2c-0.4-0.2-0.7-0.4-1-0.6c-0.3-0.3-0.5-0.6-0.7-0.9S127.3,44.4,127.3,44z
		"/>
	<path class="st7" d="M135.5,37.2c0-1.4,1.2-2.6,2.6-2.6h2.4V36h0c0.3-0.5,0.6-0.9,1.1-1.2c0.5-0.3,1.1-0.5,1.8-0.5
		c0.4,0,0.7,0,1,0.1l-0.4,4.4c-0.2,0-0.3-0.1-0.6-0.1c-0.2,0-0.4,0-0.6,0c-0.7,0-1.2,0.2-1.6,0.6s-0.6,0.9-0.6,1.4v3.1
		c0,1.4-1.2,2.6-2.6,2.6l0,0c-1.4,0-2.6-1.2-2.6-2.6V37.2z"/>
	<path class="st7" d="M158.1,43.9c0,1.4-1.2,2.6-2.6,2.6h-2.5v-1.3h0c-0.3,0.4-0.7,0.8-1.3,1.1c-0.6,0.3-1.3,0.5-2,0.5
		c-0.8,0-1.5-0.1-2.1-0.4c-0.5-0.3-1-0.7-1.3-1.2c-0.3-0.5-0.5-1-0.7-1.6c-0.1-0.6-0.2-1.2-0.2-1.8v-4.6c0-1.4,1.2-2.6,2.6-2.6l0,0
		c1.4,0,2.6,1.2,2.6,2.6v3.7c0,0.6,0.1,1,0.3,1.3c0.2,0.2,0.5,0.4,0.9,0.4c0.3,0,0.6-0.1,0.9-0.4c0.2-0.3,0.3-0.7,0.3-1.2v-3.7
		c0-1.4,1.2-2.6,2.6-2.6l0,0c1.4,0,2.6,1.2,2.6,2.6V43.9z"/>
</g>
</svg>
