<svg version="1.1"
	 xmlns="http://www.w3.org/2000/svg" xmlns:xlink="http://www.w3.org/1999/xlink" xmlns:a="http://ns.adobe.com/AdobeSVGViewerExtensions/3.0/"
	 x="0px" y="0px" width="30px" height="30px" viewBox="0 0 30 30" style="enable-background:new 0 0 30 30;" xml:space="preserve">
<defs>
</defs>
<g>
	<polygon points="8.6,16.3 9.7,16.3 9.7,21.7 10.7,21.7 10.7,16.3 11.8,16.3 11.8,15.3 8.6,15.3 	"/>
	<path d="M15,11.8c0.1,0,0.3,0,0.3-0.1c0.1-0.1,0.1-0.2,0.1-0.3V8.5c0-0.1,0-0.2-0.1-0.3c-0.1-0.1-0.2-0.1-0.3-0.1
		c-0.1,0-0.2,0-0.3,0.1c-0.1,0.1-0.1,0.2-0.1,0.3v2.8c0,0.1,0,0.2,0.1,0.3C14.8,11.7,14.9,11.8,15,11.8z"/>
	<path d="M17.4,16.9c-0.1,0-0.3,0-0.4,0.1c-0.1,0.1-0.3,0.2-0.4,0.3v-2h-0.9v6.3h0.9v-0.4c0.1,0.1,0.3,0.2,0.4,0.3
		c0.1,0.1,0.3,0.1,0.5,0.1c0.3,0,0.5-0.1,0.6-0.3c0.1-0.2,0.2-0.4,0.2-0.8v-2.6c0-0.4-0.1-0.7-0.2-0.9C17.9,17,17.6,16.9,17.4,16.9z
		 M17.3,20.6c0,0.1,0,0.3-0.1,0.3C17.2,21,17.1,21,17,21c-0.1,0-0.2,0-0.2,0c-0.1,0-0.1-0.1-0.2-0.2v-2.9c0.1-0.1,0.1-0.1,0.2-0.1
		c0.1,0,0.1,0,0.2,0c0.1,0,0.2,0,0.3,0.1c0.1,0.1,0.1,0.2,0.1,0.4V20.6z"/>
	<path d="M14,20.5c-0.1,0.1-0.2,0.2-0.3,0.2c-0.1,0.1-0.2,0.1-0.3,0.1c-0.1,0-0.2,0-0.2-0.1c0,0-0.1-0.1-0.1-0.2V17h-0.9v3.9
		c0,0.3,0.1,0.5,0.2,0.6c0.1,0.1,0.3,0.2,0.5,0.2c0.2,0,0.4,0,0.5-0.1c0.2-0.1,0.4-0.2,0.5-0.4v0.5h0.9V17H14L14,20.5L14,20.5z"/>
	<path d="M15,0C6.7,0,0,6.7,0,15c0,8.3,6.7,15,15,15s15-6.7,15-15C30,6.7,23.3,0,15,0z M17.4,7.4h1v3.9c0,0.1,0,0.2,0.1,0.3
		c0,0.1,0.1,0.1,0.2,0.1c0.1,0,0.2,0,0.3-0.1c0.1-0.1,0.2-0.2,0.3-0.3V7.4h1v5.1h-1V12c-0.2,0.2-0.4,0.4-0.6,0.5
		c-0.2,0.1-0.4,0.2-0.6,0.2c-0.2,0-0.4-0.1-0.5-0.2c-0.1-0.2-0.2-0.4-0.2-0.7L17.4,7.4z M13.5,8.6c0-0.4,0.1-0.7,0.4-1
		c0.3-0.2,0.7-0.4,1.1-0.4c0.4,0,0.8,0.1,1.1,0.4c0.3,0.2,0.4,0.6,0.4,1v2.6c0,0.4-0.1,0.8-0.4,1c-0.3,0.2-0.6,0.4-1.1,0.4
		c-0.5,0-0.8-0.1-1.1-0.4c-0.3-0.3-0.4-0.6-0.4-1L13.5,8.6L13.5,8.6z M10.7,5.6l0.8,2.8h0.1l0.7-2.8h1.2l-1.4,4.1v2.9h-1.2V9.8
		L9.5,5.6H10.7z M24.4,20.2c0,1.9-1.5,3.4-3.4,3.4H9.4c-1.9,0-3.4-1.5-3.4-3.4v-2.7c0-1.9,1.5-3.4,3.4-3.4H21c1.9,0,3.4,1.5,3.4,3.4
		V20.2z"/>
	<path d="M20.2,16.9c-0.4,0-0.8,0.1-1,0.4c-0.3,0.3-0.4,0.6-0.4,1v2.1c0,0.4,0.1,0.8,0.4,1.1c0.2,0.3,0.6,0.4,1,0.4
		c0.5,0,0.8-0.1,1-0.4c0.2-0.2,0.4-0.6,0.4-1.1v-0.2h-1v0.2c0,0.3,0,0.5-0.1,0.5c-0.1,0.1-0.2,0.1-0.3,0.1c-0.1,0-0.3,0-0.3-0.1
		c-0.1-0.1-0.1-0.3-0.1-0.5v-0.9h1.8v-1.2c0-0.4-0.1-0.8-0.3-1C20.9,17,20.6,16.9,20.2,16.9z M20.5,18.7h-0.8v-0.5
		c0-0.2,0-0.3,0.1-0.4c0.1-0.1,0.2-0.1,0.3-0.1c0.1,0,0.2,0,0.3,0.1c0.1,0.1,0.1,0.2,0.1,0.4L20.5,18.7L20.5,18.7z"/>
</g>
</svg>
