<svg xmlns="http://www.w3.org/2000/svg" viewBox="0 0 17.03 19.97"><defs><style>.cls-1{fill:#ffb800;}</style></defs><title>icon-android</title><g id="Слой_2" data-name="Слой 2"><g id="Layer_1" data-name="Layer 1"><path class="cls-1" d="M1.24,6.51h0A1.2,1.2,0,0,0,0,7.7v5.18a1.19,1.19,0,0,0,1.19,1.19h.05a1.19,1.19,0,0,0,1.19-1.19V7.7A1.19,1.19,0,0,0,1.24,6.51ZM3,14.88A1.1,1.1,0,0,0,4.1,16H5.27v2.8A1.19,1.19,0,0,0,6.46,20h.05A1.19,1.19,0,0,0,7.7,18.78V16H9.33v2.8A1.19,1.19,0,0,0,10.53,20h.05a1.19,1.19,0,0,0,1.19-1.19V16h1.17A1.1,1.1,0,0,0,14,14.88V6.7H3ZM11.26,1.74,12.19.31A.2.2,0,0,0,12.13,0a.19.19,0,0,0-.27.06l-1,1.48a6.36,6.36,0,0,0-4.76,0L5.18.09a.2.2,0,0,0-.33.22l.93,1.43A4.7,4.7,0,0,0,3,5.88C3,6,3,6.1,3,6.21H14.05c0-.11,0-.21,0-.32a4.7,4.7,0,0,0-2.8-4.14ZM6,4.31a.53.53,0,1,1,.53-.53A.53.53,0,0,1,6,4.31Zm5.13,0a.53.53,0,1,1,.53-.53A.53.53,0,0,1,11.08,4.31Zm4.76,2.21h-.05A1.19,1.19,0,0,0,14.6,7.7v5.18a1.19,1.19,0,0,0,1.19,1.19h.05A1.19,1.19,0,0,0,17,12.88V7.7A1.19,1.19,0,0,0,15.84,6.51Z"/></g></g></svg>