<svg class="page-header__img page-header__img--second" width="150" height="17" xmlns="http://www.w3.org/2000/svg" viewBox="0 0 214.56 25.96"><defs><style>.blue{fill:#0097df;}.white{fill:#fff;}</style></defs><title>icon-logo-mobile</title><g id="Слой_2" data-name="Слой 2"><g id="Layer_3_copy" data-name="Layer 3 copy"><path class="blue" d="M55.77,0A12.81,12.81,0,0,0,42.91,13a12.86,12.86,0,1,0,25.72,0A12.81,12.81,0,0,0,55.77,0Zm8,10.73-3.4,3.34a.57.57,0,0,0-.16.5L61,19.3a.56.56,0,0,1-.81.59L56,17.66a.55.55,0,0,0-.52,0l-4.2,2.23a.56.56,0,0,1-.81-.59l.8-4.72a.57.57,0,0,0-.16-.5l-3.4-3.34a.57.57,0,0,1,.31-1l4.7-.69a.56.56,0,0,0,.42-.31l2.1-4.3a.56.56,0,0,1,1,0l2.1,4.3a.56.56,0,0,0,.42.31l4.7.69A.57.57,0,0,1,63.8,10.73Z"/><path class="white" d="M9.2,25.16a15.63,15.63,0,0,1-2.75-.24,15,15,0,0,1-2.6-.71,16.18,16.18,0,0,1-2.36-1.1q-.54-.31-1-.66a1.08,1.08,0,0,1-.16-1.61L3.5,17.34A1.07,1.07,0,0,1,5,17.23a8.76,8.76,0,0,0,1.43.89,6.1,6.1,0,0,0,2.78.68,3,3,0,0,0,1.19-.23.84.84,0,0,0,.54-.85.88.88,0,0,0-.18-.55,2,2,0,0,0-.64-.47,10.25,10.25,0,0,0-1.25-.54q-.8-.29-2-.69a17,17,0,0,1-2.25-.93,7.88,7.88,0,0,1-1.9-1.32,5.83,5.83,0,0,1-1.32-1.88A6.41,6.41,0,0,1,.87,8.73a7.11,7.11,0,0,1,.88-3.65A7.68,7.68,0,0,1,4,2.62,9.23,9.23,0,0,1,7.12,1.23,14.25,14.25,0,0,1,10.53.8a13.24,13.24,0,0,1,4.64.88,12.55,12.55,0,0,1,3.2,1.75,1.09,1.09,0,0,1,.13,1.63l-3.24,3.3a1.08,1.08,0,0,1-1.47.05,5.06,5.06,0,0,0-1.21-.75,5.14,5.14,0,0,0-2.05-.5,3.23,3.23,0,0,0-1.37.24.82.82,0,0,0-.52.8A.83.83,0,0,0,9.18,9a15.21,15.21,0,0,0,1.74.65q1.24.39,2.6.91a11.07,11.07,0,0,1,2.52,1.35,7.07,7.07,0,0,1,1.9,2,5.57,5.57,0,0,1,.75,3,7.58,7.58,0,0,1-.83,3.63,7.85,7.85,0,0,1-2.18,2.57,9.48,9.48,0,0,1-3,1.53A12,12,0,0,1,9.2,25.16Z"/><path class="white" d="M29.45,18.16v5.27a1.07,1.07,0,0,1-1.07,1.07H22.81a1.07,1.07,0,0,1-1.07-1.07V2.53a1.07,1.07,0,0,1,1.07-1.07h8.82a16,16,0,0,1,3.45.37,8.81,8.81,0,0,1,3,1.27,6.69,6.69,0,0,1,2.15,2.38,7.68,7.68,0,0,1,.81,3.73,7.67,7.67,0,0,1-.8,3.65,7,7,0,0,1-2.12,2.44,8.74,8.74,0,0,1-3,1.37,14.53,14.53,0,0,1-3.5.42H30.52A1.07,1.07,0,0,0,29.45,18.16Zm0-10.68v3.71h1.63a3.07,3.07,0,0,0,1.61-.44,1.59,1.59,0,0,0,.73-1.48,1.8,1.8,0,0,0-.19-.9,1.42,1.42,0,0,0-.54-.54,2.47,2.47,0,0,0-.76-.28,4.53,4.53,0,0,0-.85-.08Z"/><path class="white" d="M71.83,2.53a1.07,1.07,0,0,1,1.07-1.07h8.85a16.9,16.9,0,0,1,3.37.34,8.51,8.51,0,0,1,3,1.21,6.53,6.53,0,0,1,2.13,2.31,7.33,7.33,0,0,1,.81,3.63,6.72,6.72,0,0,1-1,3.73,6.45,6.45,0,0,1-2.05,2,1.06,1.06,0,0,0-.33,1.46l4.21,6.73A1.07,1.07,0,0,1,91,24.5H84.64a1.07,1.07,0,0,1-.95-.57l-4.11-7.67h-.23v7.16a1.07,1.07,0,0,1-1.07,1.07H72.91a1.07,1.07,0,0,1-1.07-1.07Zm7.45,8.66h1.52a6.21,6.21,0,0,0,.85-.07,2.62,2.62,0,0,0,.87-.28,2,2,0,0,0,.68-.59,1.64,1.64,0,0,0,.27-1,1.82,1.82,0,0,0-.23-1,1.45,1.45,0,0,0-.58-.54,2.33,2.33,0,0,0-.78-.23,6.75,6.75,0,0,0-.77,0H79.29Z"/><path class="white" d="M105.1,24.5H99.5a1.07,1.07,0,0,1-1.07-1.07V9.07A1.07,1.07,0,0,0,97.35,8H93.84a1.07,1.07,0,0,1-1.07-1.07V2.53a1.07,1.07,0,0,1,1.07-1.07h16.93a1.07,1.07,0,0,1,1.07,1.07V6.92A1.07,1.07,0,0,1,110.77,8h-3.51a1.07,1.07,0,0,0-1.07,1.07V23.43A1.07,1.07,0,0,1,105.1,24.5Z"/><path class="white" d="M121.77,25.16a15.63,15.63,0,0,1-2.75-.24,15,15,0,0,1-2.6-.71,16.18,16.18,0,0,1-2.36-1.1q-.54-.31-1-.66a1.08,1.08,0,0,1-.16-1.61l3.21-3.49a1.07,1.07,0,0,1,1.45-.11,8.76,8.76,0,0,0,1.43.89,6.1,6.1,0,0,0,2.78.68,3,3,0,0,0,1.19-.23.84.84,0,0,0,.54-.85.88.88,0,0,0-.18-.55,2,2,0,0,0-.64-.47,10.25,10.25,0,0,0-1.25-.54q-.8-.29-2-.69a17,17,0,0,1-2.25-.93,7.88,7.88,0,0,1-1.9-1.32,5.83,5.83,0,0,1-1.32-1.88,6.41,6.41,0,0,1-.49-2.63,7.11,7.11,0,0,1,.88-3.65,7.68,7.68,0,0,1,2.26-2.46,9.23,9.23,0,0,1,3.11-1.39A14.25,14.25,0,0,1,123.1.8a13.24,13.24,0,0,1,4.64.88,12.55,12.55,0,0,1,3.2,1.75,1.09,1.09,0,0,1,.13,1.63l-3.24,3.3a1.08,1.08,0,0,1-1.47.05,5.06,5.06,0,0,0-1.21-.75,5.14,5.14,0,0,0-2.05-.5,3.23,3.23,0,0,0-1.37.24.82.82,0,0,0-.52.8.83.83,0,0,0,.54.78,15.21,15.21,0,0,0,1.74.65q1.24.39,2.6.91a11.07,11.07,0,0,1,2.52,1.35,7.07,7.07,0,0,1,1.9,2,5.57,5.57,0,0,1,.75,3,7.58,7.58,0,0,1-.83,3.63,7.85,7.85,0,0,1-2.18,2.57,9.48,9.48,0,0,1-3,1.53A12,12,0,0,1,121.77,25.16Z"/><path class="white" d="M150.74,12.52a6.24,6.24,0,0,1,1.6.64,5.72,5.72,0,0,1,1.4,1.11,5.07,5.07,0,0,1,1,1.55,5.14,5.14,0,0,1,.36,2A5.85,5.85,0,0,1,152.29,23a8.57,8.57,0,0,1-2.86,1.14,15.87,15.87,0,0,1-3.3.34h-9.38a1.07,1.07,0,0,1-1.07-1.07V2.53a1.07,1.07,0,0,1,1.07-1.07h8.4a22.5,22.5,0,0,1,3,.21,9.73,9.73,0,0,1,2.91.85,5.71,5.71,0,0,1,2.21,1.85,5.37,5.37,0,0,1,.88,3.21,4.87,4.87,0,0,1-.93,3.06,5.51,5.51,0,0,1-2.46,1.79Zm-7.84-5V9.24A1.07,1.07,0,0,0,144,10.31h1a2.24,2.24,0,0,0,1.34-.37,1.33,1.33,0,0,0,.52-1.16,1.06,1.06,0,0,0-.55-1,2.87,2.87,0,0,0-1.46-.33Zm0,7.81v2.05A1.07,1.07,0,0,0,144,18.42h1.24a2.48,2.48,0,0,0,1.48-.41,1.37,1.37,0,0,0,.57-1.19,1.13,1.13,0,0,0-.24-.75,1.87,1.87,0,0,0-.6-.47,2.68,2.68,0,0,0-.76-.24,4.83,4.83,0,0,0-.76-.06Z"/><path class="white" d="M159.3,1.46H173a1.07,1.07,0,0,1,1.07,1.07v4.3A1.07,1.07,0,0,1,173,7.9h-7.49v2h7A1.07,1.07,0,0,1,173.56,11v3.87a1.07,1.07,0,0,1-1.07,1.07h-5.89A1.07,1.07,0,0,0,165.52,17h0a1.07,1.07,0,0,0,1.07,1.07h7a1.07,1.07,0,0,1,1.07,1.07v4.3a1.07,1.07,0,0,1-1.07,1.07H159.3a1.07,1.07,0,0,1-1.07-1.07V2.53A1.07,1.07,0,0,1,159.3,1.46Z"/><path class="white" d="M188.28,24.5h-5.6a1.07,1.07,0,0,1-1.07-1.07V9.07A1.07,1.07,0,0,0,180.53,8H177a1.07,1.07,0,0,1-1.07-1.07V2.53A1.07,1.07,0,0,1,177,1.46h16.93A1.07,1.07,0,0,1,195,2.53V6.92A1.07,1.07,0,0,1,193.94,8h-3.51a1.07,1.07,0,0,0-1.07,1.07V23.43A1.07,1.07,0,0,1,188.28,24.5Z"/><path class="white" d="M204.94,25.16a15.63,15.63,0,0,1-2.75-.24,15,15,0,0,1-2.6-.71,16.18,16.18,0,0,1-2.36-1.1q-.54-.31-1-.66a1.08,1.08,0,0,1-.16-1.61l3.21-3.49a1.07,1.07,0,0,1,1.45-.11,8.76,8.76,0,0,0,1.43.89,6.1,6.1,0,0,0,2.78.68,3,3,0,0,0,1.19-.23.84.84,0,0,0,.54-.85.88.88,0,0,0-.18-.55,2,2,0,0,0-.64-.47,10.25,10.25,0,0,0-1.25-.54q-.8-.29-2-.69a17,17,0,0,1-2.25-.93,7.88,7.88,0,0,1-1.9-1.32,5.83,5.83,0,0,1-1.32-1.88,6.41,6.41,0,0,1-.49-2.63,7.11,7.11,0,0,1,.88-3.65,7.68,7.68,0,0,1,2.26-2.46,9.23,9.23,0,0,1,3.11-1.39A14.25,14.25,0,0,1,206.28.8a13.24,13.24,0,0,1,4.64.88,12.55,12.55,0,0,1,3.2,1.75,1.09,1.09,0,0,1,.13,1.63L211,8.36a1.08,1.08,0,0,1-1.47.05,5.06,5.06,0,0,0-1.21-.75,5.14,5.14,0,0,0-2.05-.5,3.23,3.23,0,0,0-1.37.24.82.82,0,0,0-.52.8.83.83,0,0,0,.54.78,15.21,15.21,0,0,0,1.74.65q1.24.39,2.6.91a11.07,11.07,0,0,1,2.52,1.35,7.07,7.07,0,0,1,1.9,2,5.57,5.57,0,0,1,.75,3,7.58,7.58,0,0,1-.83,3.63,7.85,7.85,0,0,1-2.18,2.57,9.48,9.48,0,0,1-3,1.53A12,12,0,0,1,204.94,25.16Z"/></g></g>
</svg>
