<svg xmlns="http://www.w3.org/2000/svg" viewBox="0 0 18 18"><defs><style>.cls-1{fill:#ffb800;}</style></defs><title>icon-cyber-bets</title><g id="Слой_2" data-name="Слой 2"><g id="Layer_1" data-name="Layer 1"><path class="cls-1" d="M14.51,13.06H12.57a1,1,0,0,0-.93.69l-.54,1.78a6.88,6.88,0,0,1-4.32,0l-.62-1.86A1,1,0,0,0,5.22,13L3.43,13A6.81,6.81,0,0,1,2.15,9c0-.09,0-.19,0-.28l1.44-1a1,1,0,0,0,.35-1.09L3.43,5A6.85,6.85,0,0,1,7,2.45l1.4,1a1,1,0,0,0,1.14,0l1.39-1A6.85,6.85,0,0,1,14.54,5L14,6.67a1,1,0,0,0,.37,1.12l1.52,1V9a6.82,6.82,0,0,1-1.33,4.06M9,0a9,9,0,1,0,9,9A9,9,0,0,0,9,0"/><path class="cls-1" d="M11.38,7.73l-2-1.42a.82.82,0,0,0-1,0l-2,1.42a.83.83,0,0,0-.3.93L6.93,11a.83.83,0,0,0,.79.57h2.42a.83.83,0,0,0,.79-.57l.75-2.3a.83.83,0,0,0-.3-.93"/></g></g></svg>