<svg version="1.1"
	 xmlns="http://www.w3.org/2000/svg" xmlns:xlink="http://www.w3.org/1999/xlink" xmlns:a="http://ns.adobe.com/AdobeSVGViewerExtensions/3.0/"
	 x="0px" y="0px" width="36px" height="36px" viewBox="0 0 36 36" style="enable-background:new 0 0 36 36;" xml:space="preserve">
<style type="text/css">
	.st0{fill:#FFC200;}
	.st1{fill:#FFA300;}
	.st2{fill:#CC6315;}
	.st3{fill:#FFF0A4;}
	.st4{fill:#FFF2BB;}
	.st5{fill:#76C6ED;}
	.st6{clip-path:url(#SVGID_2_);}
	.st7{fill:#0097DF;}
	.st8{clip-path:url(#SVGID_4_);}
</style>
<defs>
</defs>
<g>
	<g>
		<g>
			<g>
				<path class="st0" d="M13.2,20.5c-2.7-0.4-4.8-2.7-4.8-5.5v-1.9h4.8v-1.7H6.7V15c0,3.7,2.8,6.8,6.5,7.2V20.5z"/>
				<path class="st1" d="M6.7,13.1V15c0,3.7,2.8,6.8,6.5,7.2v-1.7c-2.7-0.4-4.8-2.7-4.8-5.5v-1.9H6.7z"/>
				<path class="st0" d="M22.8,20.5c2.7-0.4,4.8-2.7,4.8-5.5v-1.9h-4.8v-1.7h6.5V15c0,3.7-2.8,6.8-6.5,7.2V20.5z"/>
				<path class="st1" d="M29.3,13.1V15c0,3.7-2.8,6.8-6.5,7.2v-1.7c2.7-0.4,4.8-2.7,4.8-5.5v-1.9H29.3z"/>
				<path class="st0" d="M19.8,26.8l-0.3-2.2h0.1c0.3,0,0.5-0.2,0.5-0.5c0-0.3-0.2-0.5-0.5-0.5h-3.1c-0.3,0-0.5,0.2-0.5,0.5
					c0,0.3,0.2,0.5,0.5,0.5h0.1l-0.3,2.2c-1.1,0.1-1.9,1-1.9,2.1v0h7.4v0C21.7,27.8,20.9,26.9,19.8,26.8z"/>
				<path class="st0" d="M18.1,24.2h-0.1c-3.6,0-6.7-2.7-7.1-6.4l-0.9-7.6l0.1,0c0.3-0.1,15.7-0.1,16,0l0.1,0l-0.9,7.6
					C24.8,21.5,21.7,24.2,18.1,24.2z"/>
				<path class="st1" d="M26.1,10.3L26.1,10.3c-2.8,0-5.4-0.1-8.1-0.1v14h0.1c0.6,0,1.2-0.1,1.8-0.2c0.1,0,0.2-0.1,0.4-0.1
					c0.2-0.1,0.3-0.1,0.5-0.2c2.4-0.9,4.2-3.2,4.5-5.8L26.1,10.3z"/>
				<path class="st1" d="M19.8,26.8l-0.3-2.2h0.1c0.3,0,0.5-0.2,0.5-0.5c0-0.3-0.2-0.5-0.5-0.5H18V29h3.7v0
					C21.7,27.8,20.9,26.9,19.8,26.8z"/>
				<polygon class="st2" points="19.6,25.7 19.5,24.6 16.5,24.6 16.3,25.7 				"/>
				<g>
					<path class="st3" d="M12.6,19.4c-0.5-1-0.6-2.1-0.7-3.2c-0.1-0.7-0.2-1.5-0.3-2.2c0-0.2-0.4-0.2-0.4,0c0.1,0.8,0.2,1.6,0.3,2.4
						c0.1,1.1,0.3,2.2,0.7,3.3C12.4,19.8,12.7,19.6,12.6,19.4L12.6,19.4z"/>
				</g>
				<g>
					<path class="st3" d="M14.2,21.6c-0.3-0.3-0.6-0.6-0.9-1c-0.1-0.2-0.5,0-0.3,0.2c0.3,0.4,0.6,0.7,0.9,1.1
						C14.1,22,14.4,21.8,14.2,21.6L14.2,21.6z"/>
				</g>
				<g>
					<path class="st0" d="M23.6,19.2c-0.7,1.5-2,2.8-3.5,3.5c-0.2,0.1,0,0.4,0.2,0.3c1.6-0.7,2.9-2,3.7-3.6
						C24,19.2,23.7,19,23.6,19.2L23.6,19.2z"/>
				</g>
				<g>
					<path class="st0" d="M24.1,17.1c0,0.3-0.1,0.5-0.1,0.8c-0.1,0.2,0.3,0.3,0.4,0.1c0.1-0.3,0.1-0.6,0.1-0.9
						C24.6,16.9,24.2,16.9,24.1,17.1L24.1,17.1z"/>
				</g>
				<g>
					<path class="st3" d="M15.8,27.2c-0.3,0.1-0.5,0.3-0.7,0.5c-0.2,0.2,0.1,0.4,0.3,0.3c0.2-0.2,0.4-0.3,0.6-0.4
						C16.2,27.5,16.1,27.1,15.8,27.2L15.8,27.2z"/>
				</g>
			</g>
			<path class="st2" d="M26.1,10.2L26,11H10l-0.1-0.8l0.1,0C10.2,10.1,25.8,10.1,26.1,10.2L26.1,10.2z"/>
			<path class="st0" d="M26.2,10.3H9.8c-0.6,0-1-0.5-1-1l0,0c0-0.6,0.5-1,1-1h16.4c0.6,0,1,0.5,1,1l0,0
				C27.3,9.8,26.8,10.3,26.2,10.3z"/>
			<path class="st4" d="M10.6,9.5h-0.5c-0.2,0-0.4-0.2-0.4-0.4l0,0c0-0.2,0.2-0.4,0.4-0.4h0.5c0.2,0,0.4,0.2,0.4,0.4l0,0
				C11,9.3,10.9,9.5,10.6,9.5z"/>
			<path class="st4" d="M14.6,9.5h-2.7c-0.2,0-0.4-0.2-0.4-0.4l0,0c0-0.2,0.2-0.4,0.4-0.4h2.7c0.2,0,0.4,0.2,0.4,0.4l0,0
				C14.9,9.3,14.8,9.5,14.6,9.5z"/>
		</g>
		<g>
			<g>
				<g id="_x35_2CFjl_4_">
					<g>
						<path class="st2" d="M23,19c-0.1,0-0.2,0-0.3,0c-0.5,0-1.1,0-1.6,0.2c-0.2,0.1-0.4,0.3-0.5,0.5c0,0.1,0,0.1,0,0.2
							c0.2,0.1,0.3,0.1,0.5,0.1c0.4,0,0.8-0.2,1.1-0.5C22.6,19.3,22.8,19.2,23,19C23,19,23,19,23,19z"/>
						<path class="st2" d="M20.8,20.3c-0.1-0.1-0.3-0.2-0.4-0.3c-0.3-0.2-0.7-0.3-1.1-0.3c-0.2,0-0.4,0-0.6,0.2
							c-0.1,0.1-0.1,0.1,0,0.2c0.1,0.2,0.3,0.3,0.6,0.4C19.8,20.6,20.3,20.5,20.8,20.3C20.8,20.4,20.8,20.3,20.8,20.3z"/>
						<path class="st2" d="M23.7,17.1c-0.1,0-0.3,0.1-0.4,0.1c-0.4,0.1-0.8,0.3-1.1,0.7c-0.1,0.1-0.2,0.3-0.2,0.5
							c0,0.1,0,0.1,0.1,0.1c0.2,0,0.4,0,0.6-0.1c0.4-0.3,0.7-0.7,0.9-1.1C23.6,17.2,23.6,17.2,23.7,17.1z"/>
						<path class="st2" d="M21.1,18.3C21.1,18.3,21.1,18.3,21.1,18.3c-0.5,0-1,0.2-1.2,0.7c-0.1,0.1-0.1,0.3-0.1,0.5
							c0,0,0,0.1,0.1,0.1c0.2,0.1,0.4,0,0.6-0.1c0.3-0.2,0.4-0.5,0.5-0.8C21,18.5,21.1,18.4,21.1,18.3z"/>
						<path class="st2" d="M22.2,14.3c-0.1,0.2-0.1,0.3-0.1,0.4c-0.1,0.3-0.1,0.6,0,0.9c0,0.2,0.1,0.3,0.3,0.4
							c0.1,0.1,0.1,0.1,0.2,0c0.1-0.1,0.2-0.3,0.2-0.5C22.7,15.2,22.5,14.8,22.2,14.3C22.2,14.4,22.2,14.4,22.2,14.3z"/>
						<path class="st2" d="M22,16.5c-0.2,0.2-0.3,0.4-0.4,0.6c-0.1,0.2-0.2,0.4-0.2,0.7c0,0.2,0,0.3,0.1,0.5c0,0,0.1,0.1,0.1,0
							c0.1-0.1,0.2-0.2,0.3-0.3c0.2-0.3,0.2-0.6,0.2-0.9C22.1,16.9,22,16.7,22,16.5C22,16.5,22,16.5,22,16.5z"/>
						<path class="st2" d="M23.4,15.6c-0.1,0.1-0.2,0.1-0.3,0.2c-0.2,0.2-0.4,0.4-0.5,0.7c-0.1,0.2-0.1,0.3-0.1,0.5
							c0,0.2,0.1,0.2,0.2,0.1c0.2-0.1,0.4-0.2,0.5-0.4C23.3,16.4,23.4,16.1,23.4,15.6C23.4,15.7,23.4,15.7,23.4,15.6z"/>
					</g>
				</g>
				<g id="_x35_2CFjl_3_">
					<g>
						<path class="st2" d="M13,19c0.1,0,0.2,0,0.3,0c0.5,0,1.1,0,1.6,0.2c0.2,0.1,0.4,0.3,0.5,0.5c0,0.1,0,0.1,0,0.2
							c-0.2,0.1-0.3,0.1-0.5,0.1c-0.4,0-0.8-0.2-1.1-0.5C13.4,19.3,13.2,19.2,13,19C13,19,13,19,13,19z"/>
						<path class="st2" d="M15.2,20.3c0.1-0.1,0.3-0.2,0.4-0.3c0.3-0.2,0.7-0.3,1.1-0.3c0.2,0,0.4,0,0.6,0.2c0.1,0.1,0.1,0.1,0,0.2
							c-0.1,0.2-0.3,0.3-0.6,0.4C16.2,20.6,15.7,20.5,15.2,20.3C15.2,20.4,15.2,20.3,15.2,20.3z"/>
						<path class="st2" d="M12.3,17.1c0.1,0,0.3,0.1,0.4,0.1c0.4,0.1,0.8,0.3,1.1,0.7c0.1,0.1,0.2,0.3,0.2,0.5c0,0.1,0,0.1-0.1,0.1
							c-0.2,0-0.4,0-0.6-0.1c-0.4-0.3-0.7-0.7-0.9-1.1C12.4,17.2,12.4,17.2,12.3,17.1z"/>
						<path class="st2" d="M14.9,18.3C14.9,18.3,14.9,18.3,14.9,18.3c0.5,0,1,0.2,1.2,0.7c0.1,0.1,0.1,0.3,0.1,0.5
							c0,0,0,0.1-0.1,0.1c-0.2,0.1-0.4,0-0.6-0.1c-0.3-0.2-0.4-0.5-0.5-0.8C15,18.5,14.9,18.4,14.9,18.3z"/>
						<path class="st2" d="M13.8,14.3c0.1,0.2,0.1,0.3,0.1,0.4c0.1,0.3,0.1,0.6,0,0.9c0,0.2-0.1,0.3-0.3,0.4c-0.1,0.1-0.1,0.1-0.2,0
							c-0.1-0.1-0.2-0.3-0.2-0.5C13.3,15.2,13.5,14.8,13.8,14.3C13.8,14.4,13.8,14.4,13.8,14.3z"/>
						<path class="st2" d="M14,16.5c0.2,0.2,0.3,0.4,0.4,0.6c0.1,0.2,0.2,0.4,0.2,0.7c0,0.2,0,0.3-0.1,0.5c0,0-0.1,0.1-0.1,0
							c-0.1-0.1-0.2-0.2-0.3-0.3c-0.2-0.3-0.2-0.6-0.2-0.9C13.9,16.9,14,16.7,14,16.5C14,16.5,14,16.5,14,16.5z"/>
						<path class="st2" d="M12.6,15.6c0.1,0.1,0.2,0.1,0.3,0.2c0.2,0.2,0.4,0.4,0.5,0.7c0.1,0.2,0.1,0.3,0.1,0.5
							c0,0.2-0.1,0.2-0.2,0.1c-0.2-0.1-0.4-0.2-0.5-0.4C12.7,16.4,12.6,16.1,12.6,15.6C12.6,15.7,12.6,15.7,12.6,15.6z"/>
					</g>
				</g>
			</g>
			<path class="st2" d="M17.9,16.6l-1.3,0.7c-0.1,0.1-0.3,0-0.3-0.2l0.3-1.5c0-0.1,0-0.1-0.1-0.2l-1.1-1.1c-0.1-0.1,0-0.3,0.1-0.3
				l1.5-0.2c0.1,0,0.1,0,0.1-0.1l0.7-1.4c0.1-0.1,0.3-0.1,0.3,0l0.7,1.4c0,0.1,0.1,0.1,0.1,0.1l1.5,0.2c0.1,0,0.2,0.2,0.1,0.3
				l-1.1,1.1c0,0-0.1,0.1-0.1,0.2l0.3,1.5c0,0.1-0.1,0.3-0.3,0.2l-1.3-0.7C18,16.6,18,16.6,17.9,16.6z"/>
		</g>
	</g>
	<g>
		<g>
			<path class="st5" d="M18,36C8.1,36,0,27.9,0,18S8.1,0,18,0s18,8.1,18,18S27.9,36,18,36z M18,2.6C9.5,2.6,2.6,9.5,2.6,18
				c0,8.5,6.9,15.4,15.4,15.4c8.5,0,15.4-6.9,15.4-15.4C33.4,9.5,26.5,2.6,18,2.6z"/>
		</g>
		<g>
			<defs>
				<rect id="SVGID_1_" x="18" width="18" height="36"/>
			</defs>
			<clipPath id="SVGID_2_">
				<use xlink:href="#SVGID_1_"  style="overflow:visible;"/>
			</clipPath>
			<g class="st6">
				<path class="st7" d="M18,36C8.1,36,0,27.9,0,18S8.1,0,18,0s18,8.1,18,18S27.9,36,18,36z M18,2.6C9.5,2.6,2.6,9.5,2.6,18
					c0,8.5,6.9,15.4,15.4,15.4c8.5,0,15.4-6.9,15.4-15.4C33.4,9.5,26.5,2.6,18,2.6z"/>
			</g>
		</g>
	</g>
</g>
</svg>
