<svg xmlns="http://www.w3.org/2000/svg" fill="#ffb800" viewBox="0 0 933.03 1792">
<path d="M933,1185q0,153-99.5,263.5T575,1585v175q0,14-9,23t-23,9H408a32.45,32.45,0,0,1-32-32V1585a630.29,630.29,0,0,1-127.5-31Q187,1532,147,1509.5a673.25,673.25,0,0,1-74-48Q39,1436,26.53,1424T9,1406q-17-21-2-41l103-135q7-10,23-12,15-2,24,9l2,2q113,99,243,125a349.25,349.25,0,0,0,74,8q81,0,142.5-43T680,1197a101.37,101.37,0,0,0-15-53q-15-25-33.5-42T573,1064.5q-40-20.5-66-32T427,1000q-39-16-61.5-25T304,948.5q-39-17.5-62.5-31T185,882q-33-22-53.5-42.5a622,622,0,0,1-43.5-49q-23-28.5-35.5-58t-21-66.5A347.49,347.49,0,0,1,23,588q0-138,98-242T376,212V32a30.75,30.75,0,0,1,9.5-22.5A30.75,30.75,0,0,1,408,0H543q14,0,23,9t9,23V208a556.15,556.15,0,0,1,110.5,23q53.5,17,87,33.5A481.59,481.59,0,0,1,836,302q30,21,39,29t15,14q17,18,5,38L814,529q-8,15-23,16-14,3-27-7-3-3-14.5-12t-39-26.5a516.08,516.08,0,0,0-58.5-32q-31-14.5-74.5-26A333.63,333.63,0,0,0,492,430q-95,0-155,43T277,584a132.09,132.09,0,0,0,8.5,48q8.5,22,29.5,41.5a440.29,440.29,0,0,0,39.5,33q18.5,13.5,56,31t60.5,27q23,9.5,70,27.5,53,20,81,31.5t76,35q48,23.5,75.5,42.5t62,50q34.5,31,53,63.5T920,1091Q933,1135,933,1185Z"/>
</svg>