<svg xmlns="http://www.w3.org/2000/svg" viewBox="0 0 28.7 28.4">
<style type="text/css">
	.st0{stroke:#000000;stroke-width:0.75;stroke-miterlimit:10;}
</style>
<defs>
</defs>
<g>
	<path d="M8.2,18.1c1.1,0,2.1,0.9,2.1,2.1c0,1.1-0.9,2.1-2.1,2.1c-1.1,0-2.1-0.9-2.1-2.1C6.1,19,7.1,18.1,8.2,18.1L8.2,18.1
		 M8.2,16.1c-2.2,0-4.1,1.8-4.1,4.1v0c0,2.2,1.8,4.1,4.1,4.1c0,0,0,0,0,0c2.2,0,4.1-1.8,4.1-4.1C12.3,17.9,10.5,16.1,8.2,16.1
		C8.2,16.1,8.2,16.1,8.2,16.1L8.2,16.1z"/>
</g>
<g>
	<path d="M25.6,13.9l-2,3.2h-7.3h-2.3l0.3,2.2c0,0.3,0,0.5,0,0.8c0,3.4-2.8,6.2-6.2,6.2c-3.4,0-6.2-2.8-6.2-6.2
		c0-3.4,2.8-6.2,6.2-6.2L25.6,13.9 M28.1,11.9C28.1,11.9,28.1,11.9,28.1,11.9l-19.9,0c-4.5,0-8.2,3.7-8.2,8.2c0,4.5,3.7,8.2,8.2,8.2
		c0,0,0,0,0,0c4.5,0,8.2-3.7,8.2-8.2c0-0.3,0-0.7-0.1-1h8c0,0,0,0,0,0c0.2,0,0.4-0.1,0.6-0.3l3.6-5.9c0.2-0.3,0.1-0.7-0.2-0.9
		C28.3,12,28.2,11.9,28.1,11.9L28.1,11.9z"/>
</g>
<path class="st0" d="M5.9,4c-0.3,0.2-0.3,0.6,0,0.9c0,0,0,0,0,0l3.3,3.4c0.3,0.3,0.7,0.3,0.9,0c0.3-0.3,0.3-0.7,0-0.9l0,0L6.8,4
	C6.6,3.8,6.2,3.8,5.9,4C5.9,4,5.9,4,5.9,4z"/>
<path class="st0" d="M22.6,4l-3.3,3.4c-0.3,0.3-0.3,0.7,0,0.9c0.3,0.3,0.7,0.3,0.9,0l3.3-3.4c0.3-0.3,0.2-0.7,0-0.9
	C23.3,3.8,22.9,3.8,22.6,4z"/>
<path class="st0" d="M14.1,1v5.1c0,0.4,0.3,0.7,0.7,0.7c0.4,0,0.7-0.3,0.7-0.7V1c0-0.4-0.3-0.7-0.7-0.7C14.4,0.4,14.1,0.7,14.1,1z"
	/>
</svg>
