<svg xmlns="http://www.w3.org/2000/svg" viewBox="0 0 22.76 13.4"><defs><style>.cls-1{fill:#ffb800;}</style></defs><title>icon-minimal-deposit</title><g id="Слой_2" data-name="Слой 2"><g id="Layer_1" data-name="Layer 1"><path class="cls-1" d="M9.75,10.24A.51.51,0,0,1,9.33,10L7.2,7.08a.52.52,0,0,1,0-.62l2.13-3a.52.52,0,0,1,.41-.21H14.1v-2A1.05,1.05,0,0,0,13,.15H1A1,1,0,0,0,0,1.2V12.35a1,1,0,0,0,1,1H13a1,1,0,0,0,1.05-1V10.24Z"/><path class="cls-1" d="M10.19,8.66A.22.22,0,0,1,10,8.57L8.87,6.9a.22.22,0,0,1,0-.26L10,5a.22.22,0,0,1,.17-.09H15a.22.22,0,0,1,.22.22V8.45a.22.22,0,0,1-.22.22H10.19ZM22.76,9.91,21.48,8.63l-1,1V0h-2V9.64l-1-1L16.17,9.92l3.29,3.29h0l3.29-3.29Z"/></g></g></svg>