<svg xmlns="http://www.w3.org/2000/svg" viewBox="0 0 37.24 36">
  <path d="M29,24.26a23.13,23.13,0,0,0-4,.34L34.73,7.71a3.81,3.81,0,0,0,.77-3A3.91,3.91,0,0,0,33.58,2L31.08.55a4.11,4.11,0,0,0-5.62,1.51L17.34,16.13H6.44A6.44,6.44,0,1,0,6.44,29H18.88a6.38,6.38,0,0,0,1.84-.27v4h0C20.92,35.76,27.07,36,29,36s8.05-.24,8.25-3.29h0v-5C37.24,24.51,30.92,24.26,29,24.26ZM34.05,28a15.3,15.3,0,0,1-5.08.71A15.3,15.3,0,0,1,23.9,28,13.93,13.93,0,0,1,29,27.28,13.94,13.94,0,0,1,34.05,28Zm-6-24.47A1.1,1.1,0,0,1,29,3a1.08,1.08,0,0,1,.55.15l2.51,1.45a.91.91,0,0,1,.46.6.84.84,0,0,1-.22.69L32.24,6,30.48,9.05,26.29,6.64ZM25.39,8.21l4.18,2.41L28.49,12.5,24.3,10.09ZM15.55,26H6.44a3.42,3.42,0,1,1,0-6.85H19.07l1.6-2.77,2.73-4.73,4.18,2.41-3.09,5.35-2.3,4L21.28,25v0a3.44,3.44,0,0,1-.46.38,3.41,3.41,0,0,1-1.93.6Zm18.68,6.16A12.87,12.87,0,0,1,29,33a12.87,12.87,0,0,1-5.25-.84V29.88a21,21,0,0,0,10.5,0Z"/>
</svg>
