<svg xmlns="http://www.w3.org/2000/svg" viewBox="0 0 18.53 11.58"><defs><style>.cls-1{fill:#ffb800;}</style></defs><title>icon-totalizator</title><g id="Слой_2" data-name="Слой 2"><g id="Layer_1" data-name="Layer 1"><path class="cls-1" d="M6.34,7a1.66,1.66,0,0,1,0-2.34l2.29-2.3-2-2A1.26,1.26,0,0,0,4.9.37L.37,4.9a1.26,1.26,0,0,0,0,1.77L4.9,11.21a1.26,1.26,0,0,0,1.77,0l2-2L6.34,7Z"/><path class="cls-1" d="M12.92,7.21a1.5,1.5,0,1,1,1.5-1.5,1.5,1.5,0,0,1-1.5,1.5m5.21-2.46L13.89.5A1.36,1.36,0,0,0,12,.5L7.71,4.75a1.36,1.36,0,0,0,0,1.93L12,10.92a1.37,1.37,0,0,0,1.93,0l4.25-4.25a1.36,1.36,0,0,0,0-1.93"/></g></g></svg>