<svg xmlns="http://www.w3.org/2000/svg" viewBox="0 0 39.3 36">
	<path d="M33.4,5.7l0.1-0.9h0.1l0.1-1.2h0.2c1,0,1.8-0.8,1.8-1.8S34.9,0,33.9,0H5.4c-1,0-1.8,0.8-1.8,1.8
		s0.8,1.8,1.8,1.8h0.2l0.1,1.1l0,0.1h0l0.1,0.9H0v2.9v3.2c0,6.3,4.7,11.6,10.9,12.4c1.5,1.4,3.2,2.5,5.2,3.1c0,0.1-0.1,0.2-0.1,0.3
		c0,0.5,0.4,0.9,0.9,0.9h0.1l-0.2,1.2l-0.1,0.7l-0.3,1.9c-1.9,0.2-3.3,1.8-3.3,3.7v0h6.4H26v0c0-1.2-0.6-2.3-1.4-2.9
		c-0.5-0.4-1.2-0.7-1.9-0.8l-0.4-2.5l-0.2-1.3l0-0.1h0.1c0.5,0,0.9-0.4,0.9-0.9c0-0.1,0-0.2-0.1-0.3c0.1,0,0.1,0,0.2-0.1
		c0.1,0,0.1,0,0.2-0.1c0.2,0,0.3-0.1,0.5-0.2c0.1,0,0.2-0.1,0.3-0.1c0,0,0,0,0,0c0,0,0,0,0.1,0c0.4-0.2,0.9-0.4,1.3-0.6
		c0.1-0.1,0.2-0.1,0.3-0.2c0.4-0.3,0.9-0.5,1.2-0.8c0,0,0,0,0.1,0c0.4-0.3,0.7-0.6,1.1-0.9c0,0,0.1-0.1,0.1-0.1
		c6.1-0.8,10.9-6.1,10.9-12.4V8.6V5.7H33.4z M2.9,11.8V8.6v0h3.3l1,8.2c0.1,1.3,0.5,2.5,1,3.7C5,18.8,2.9,15.6,2.9,11.8z M27.8,21.7
		L27.8,21.7c-0.2,0.3-0.5,0.6-0.8,0.9l-0.2,0.2c-0.3,0.3-0.6,0.6-0.9,0.8c-0.3,0.2-0.6,0.4-1,0.7l-0.2,0.1c-0.4,0.2-0.7,0.4-1.1,0.5
		c0,0-0.1,0-0.1,0l-0.1,0L23.2,25l-0.1,0.1c-0.1,0-0.1,0.1-0.3,0.1l-0.1,0l-0.1,0l-2,0.7l0.1,0.4h-0.9l0.3,2.4l0,0.1l0,0l0.2,1.3
		l0.4,2.5l0.2,1.3h-1.2h-1.2l0.2-1.3l0.3-1.9l0.1-0.7l0.2-1.2l0.4-2.4h-0.9l0.2-0.5l-2.1-0.6c-2.2-0.6-4.1-2-5.4-3.8v0c0,0,0,0,0,0
		c-1-1.4-1.7-3.1-1.9-4.9L7.9,4.6l0-0.1L7.7,3.3L7.6,2.1h24.1l-0.1,0.5h0l-0.2,1.9l-1.4,12c0,0.4-0.1,0.8-0.2,1.3
		c0,0.1-0.1,0.2-0.1,0.3c-0.1,0.4-0.2,0.8-0.4,1.1l0,0.1l0,0c-0.1,0.3-0.3,0.7-0.5,1.1c0,0.1-0.1,0.2-0.1,0.3
		c-0.2,0.3-0.3,0.5-0.5,0.7c0,0,0,0,0,0v0c0,0.1-0.1,0.1-0.1,0.2L27.8,21.7z M36.4,8.6v3.2c0,3.8-2.2,7.1-5.4,8.7
		c0.1-0.1,0.1-0.2,0.2-0.4c0,0,0,0,0,0c0.2-0.4,0.3-0.9,0.5-1.4c0-0.1,0.1-0.2,0.1-0.4c0.1-0.5,0.2-1,0.3-1.5v0l1-8.2L36.4,8.6
		L36.4,8.6z"/>
	<path d="M28.3,16.5c-0.1,0-0.3-0.1-0.4-0.1c-0.9-0.1-1.8,0-2.7,0.4c-0.4,0.2-0.7,0.4-0.8,0.8c0,0.1,0,0.2,0.1,0.3
		c0.3,0.2,0.6,0.2,0.9,0.2c0.7,0,1.4-0.4,2-0.8C27.7,17.2,28,16.9,28.3,16.5C28.3,16.6,28.3,16.6,28.3,16.5z"/>
	<path d="M21.9,17.9c-0.4,0-0.7,0.1-1,0.3c-0.1,0.1-0.1,0.2,0,0.3c0.2,0.4,0.6,0.6,1,0.7c0.9,0.2,1.7,0.1,2.6-0.2
		c0,0,0,0,0-0.1c-0.2-0.1-0.4-0.3-0.7-0.4C23.3,18.2,22.6,17.9,21.9,17.9z"/>
	<path d="M26.9,14.7c-0.2,0.2-0.3,0.5-0.3,0.8c0,0.1,0,0.2,0.2,0.2c0.4,0.1,0.7,0,1.1-0.2c0.7-0.5,1.2-1.1,1.5-1.9
		c0,0,0-0.1,0-0.2c-0.2,0.1-0.5,0.1-0.7,0.2C28.1,13.8,27.4,14.1,26.9,14.7z"/>
	<path d="M22.9,16.5c-0.1,0.2-0.2,0.5-0.1,0.8c0,0.1,0.1,0.1,0.1,0.2c0.4,0.2,0.7,0.1,1-0.2c0.4-0.3,0.7-0.8,0.9-1.3
		c0.1-0.2,0.1-0.4,0.2-0.6c-0.1,0-0.1,0-0.1,0C24.1,15.4,23.4,15.8,22.9,16.5z"/>
	<path d="M27.1,11.7c0.1,0.1,0.2,0.1,0.3,0c0.2-0.3,0.3-0.6,0.3-0.9c0-0.8-0.3-1.5-0.7-2.2c0,0,0,0-0.1-0.1
		c-0.1,0.3-0.2,0.5-0.2,0.8c-0.1,0.5-0.2,1.1-0.1,1.6C26.7,11.2,26.8,11.5,27.1,11.7z"/>
	<path d="M25.9,15.4c0.2-0.1,0.4-0.3,0.5-0.5c0.3-0.5,0.4-1,0.3-1.6c0-0.3-0.1-0.7-0.1-1c0,0-0.1,0-0.1,0
		c-0.3,0.3-0.5,0.7-0.7,1c-0.2,0.4-0.3,0.7-0.4,1.2c0,0.3,0,0.6,0.2,0.8C25.7,15.4,25.8,15.5,25.9,15.4z"/>
	<path d="M27.3,13.2c0.1,0.3,0.1,0.3,0.4,0.2c0.4-0.1,0.6-0.4,0.8-0.7c0.3-0.6,0.5-1.2,0.5-1.8c0,0,0,0,0-0.1
		c-0.2,0.1-0.3,0.2-0.5,0.4c-0.4,0.3-0.7,0.7-0.9,1.1C27.3,12.6,27.2,12.9,27.3,13.2z"/>
	<path d="M14.9,17.7c-0.1-0.4-0.4-0.7-0.8-0.8c-0.9-0.4-1.8-0.5-2.7-0.4c-0.1,0-0.3,0-0.4,0.1c0,0,0,0.1,0,0.1
		c0.3,0.3,0.6,0.6,1,0.8c0.6,0.4,1.2,0.7,2,0.8c0.3,0,0.6,0,0.9-0.2C15,17.9,15,17.8,14.9,17.7z"/>
	<path d="M17.4,17.9c-0.7,0-1.3,0.3-1.9,0.6c-0.2,0.1-0.4,0.3-0.7,0.4c0,0,0,0,0,0.1c0.8,0.3,1.7,0.4,2.6,0.2
		c0.4-0.1,0.8-0.3,1-0.7c0.1-0.1,0.1-0.2,0-0.3C18.1,18,17.8,17.9,17.4,17.9z"/>
	<path cd="M12.5,15.7c0.1,0,0.2-0.1,0.2-0.2c0-0.3-0.1-0.6-0.3-0.8c-0.5-0.6-1.2-0.9-1.9-1.2c-0.2-0.1-0.4-0.1-0.7-0.2
		c0,0.1,0,0.2,0,0.2c0.4,0.8,0.8,1.5,1.5,1.9C11.8,15.7,12.1,15.8,12.5,15.7z"/>
	<path d="M15.4,17.3c0.3,0.2,0.6,0.3,1,0.2c0.1,0,0.1-0.1,0.1-0.2c0.1-0.3,0-0.6-0.1-0.8c-0.5-0.7-1.2-1.1-2-1.2
		c0,0,0,0-0.1,0c0.1,0.2,0.1,0.4,0.2,0.6C14.7,16.5,14.9,17,15.4,17.3z"/>
	<path d="M12.2,11.7c0.3-0.2,0.4-0.5,0.5-0.8c0.1-0.6,0.1-1.1-0.1-1.6c-0.1-0.2-0.2-0.5-0.2-0.8
		c-0.1,0.1-0.1,0.1-0.1,0.1c-0.4,0.7-0.7,1.4-0.7,2.2c0,0.3,0.1,0.6,0.3,0.9C12,11.8,12.1,11.8,12.2,11.7z"/>
	<path d="M12.6,13.4c0,0.6,0.1,1.1,0.3,1.6c0.1,0.2,0.3,0.4,0.5,0.5c0.1,0,0.2,0,0.2-0.1c0.2-0.2,0.2-0.5,0.2-0.8
		c0-0.4-0.2-0.8-0.4-1.2c-0.2-0.4-0.4-0.8-0.7-1c0,0-0.1,0-0.1,0C12.7,12.7,12.6,13,12.6,13.4z"/>
	<path d="M11.6,13.4c0.3,0.1,0.3,0,0.4-0.2c0.1-0.3,0-0.7-0.2-0.9c-0.2-0.4-0.6-0.8-0.9-1.1c-0.2-0.1-0.3-0.2-0.5-0.4
		c0,0.1,0,0.1,0,0.1c0,0.6,0.2,1.3,0.5,1.8C11,13,11.2,13.3,11.6,13.4z"/>
	<path d="M22.6,13.4l-0.4-2.6c0-0.1,0-0.2,0.1-0.3l1.9-1.8c0.2-0.2,0.1-0.5-0.2-0.5l-2.6-0.4c-0.1,0-0.2-0.1-0.2-0.2
		l-1.2-2.4c-0.1-0.2-0.4-0.2-0.6,0l-1.2,2.4c0,0.1-0.1,0.2-0.2,0.2l-2.6,0.4c-0.3,0-0.4,0.4-0.2,0.5l1.9,1.8
		c0.1,0.1,0.1,0.2,0.1,0.3l-0.4,2.6c0,0.3,0.2,0.4,0.5,0.3l2.3-1.2c0.1,0,0.2,0,0.3,0l2.3,1.2C22.4,13.9,22.6,13.7,22.6,13.4z"/>
</svg>
