<svg xmlns="http://www.w3.org/2000/svg" viewBox="0 0 19.5 19.5"><defs><style>.cls-1{fill:none;stroke:#ffb800;stroke-linecap:round;stroke-linejoin:round;stroke-width:1.5px;}</style></defs><title>icon-email</title><g id="Слой_2" data-name="Слой 2"><g id="Layer_1" data-name="Layer 1"><line class="cls-1" x1="14.55" y1="16.35" x2="18.75" y2="16.35"/><line class="cls-1" x1="17.55" y1="13.95" x2="18.75" y2="13.95"/><path class="cls-1" d="M18.58,8.4a.59.59,0,0,1,0,.84L9.24,18.58a.6.6,0,0,1-.85,0L.92,11.1a.72.72,0,0,1,0-.94L10.28.95a.55.55,0,0,1,.81,0Z"/><path class="cls-1" d="M3.75,11h6.6a.6.6,0,0,0,.6-.6v-6"/><line class="cls-1" x1="8.55" y1="13.35" x2="8.55" y2="15.15"/><line class="cls-1" x1="15.15" y1="8.55" x2="13.35" y2="8.55"/></g></g></svg>