<?xml version="1.0" encoding="utf-8"?>
<!-- Generator: Adobe Illustrator 22.0.1, SVG Export Plug-In . SVG Version: 6.00 Build 0)  -->
<svg version="1.1" id="Layer_1" xmlns="http://www.w3.org/2000/svg" xmlns:xlink="http://www.w3.org/1999/xlink" x="0px" y="0px"
	 viewBox="0 0 139 173.8" style="enable-background:new 0 0 139 173.8;" xml:space="preserve">
<path d="M40.9,34.8c-0.4,0-0.7,0.1-1.1,0.2l-3-3l-2.2,2.2l3,3c-0.1,0.3-0.2,0.7-0.2,1.1c0,1.9,1.5,3.4,3.4,3.4
	c1.9,0,3.4-1.5,3.4-3.4C44.3,36.3,42.8,34.8,40.9,34.8z M40.9,39.8c-0.9,0-1.6-0.7-1.6-1.6c0-0.9,0.7-1.6,1.6-1.6
	c0.9,0,1.6,0.7,1.6,1.6C42.5,39.1,41.8,39.8,40.9,39.8z"/>
<path d="M43.5,25.5v-1h0.9c1.5,0,2.7-1.2,2.7-2.7s-1.2-2.7-2.7-2.7h-6.9c-1.5,0-2.7,1.2-2.7,2.7s1.2,2.7,2.7,2.7h0.9v1
	c-5.9,1.2-10.4,6.4-10.4,12.7c0,7.1,5.8,13,13,13s13-5.8,13-13C53.9,32,49.4,26.7,43.5,25.5z M36.7,21.8c0-0.4,0.3-0.8,0.8-0.8h6.9
	c0.4,0,0.8,0.3,0.8,0.8c0,0.4-0.3,0.8-0.8,0.8h-6.9C37,22.6,36.7,22.3,36.7,21.8z M40.9,48.1c-5.4,0-9.8-4.4-9.8-9.8
	c0-5.4,4.4-9.8,9.8-9.8s9.8,4.4,9.8,9.8C50.7,43.7,46.3,48.1,40.9,48.1z"/>
</svg>
