<svg xmlns="http://www.w3.org/2000/svg" width="20px" height="20px" viewBox="0 0 19.5 19.5"><defs><style>.cls-1{fill:none;stroke:#000;stroke-linecap:round;stroke-linejoin:round;stroke-width:1.5px;}</style></defs><title>icon-thumb-up</title><g id="Слой_2" data-name="Слой 2"><g id="Layer_1" data-name="Layer 1"><path class="cls-1" d="M11.55,5.55A2.35,2.35,0,0,0,14,8h3.6a1.11,1.11,0,0,1,1.2,1.2l-2.1,8.4a1.61,1.61,0,0,1-1.5,1.2h-3.6c-1.8,0-2.4-1.2-4.2-1.2"/><path class="cls-1" d="M5.55,9.75v9H.75V8h4.8A2.35,2.35,0,0,0,8,5.55V2A1.2,1.2,0,0,1,9.15.75a2.58,2.58,0,0,1,2.4,2.4v6a2.35,2.35,0,0,1-2.4,2.4"/><circle class="cls-1" cx="3.15" cy="16.35"/></g></g></svg>