<svg xmlns="http://www.w3.org/2000/svg" xmlns:xlink="http://www.w3.org/1999/xlink" viewBox="0 0 158.13 58.75">
  <defs>
    <style>
      .cls-1{fill:none;}
      .cls-2{fill:#ffc200;}
      .cls-3{fill:#ffa300;}
      .cls-4{fill:#cc6315;}
      .cls-5{fill:#fff0a4;}
      .cls-6{fill:#fff2bb;}
      .cls-7{fill:#76c6ed;}
      .cls-8{clip-path:url(#clip-path);}
      .cls-9{fill:#0097df;}
      .cls-10{fill:#fff;}
    </style>
    <clipPath id="clip-path">
      <rect class="cls-1" x="29.38" width="29.38" height="58.75"/>
    </clipPath>
  </defs>
  <title>icon-logo-desktop</title>
  <g id="Слой_2" data-name="Слой 2">
    <g id="Layer_3_copy" data-name="Layer 3 copy">
      <path class="cls-2" d="M21.46,33.51a9.12,9.12,0,0,1-7.87-9V21.4h7.87V18.7H10.89v5.79A11.82,11.82,0,0,0,21.46,36.23Z"/>
      <path class="cls-3" d="M10.89,21.43v3.06A11.82,11.82,0,0,0,21.46,36.23V33.51a9.12,9.12,0,0,1-7.87-9V21.43Z"/>
      <path class="cls-2" d="M37.29,33.51a9.12,9.12,0,0,0,7.87-9V21.4H37.29V18.7H47.86v5.79A11.82,11.82,0,0,1,37.29,36.23Z"/>
      <path class="cls-3" d="M47.86,21.43v3.06A11.82,11.82,0,0,1,37.29,36.23V33.51a9.12,9.12,0,0,0,7.87-9V21.43Z"/>
      <path class="cls-2" d="M32.3,43.76l-.54-3.6h.12a.86.86,0,0,0,0-1.71h-5a.86.86,0,0,0,0,1.71H27l-.54,3.6a3.49,3.49,0,0,0-3.11,3.47v0H35.4v0A3.49,3.49,0,0,0,32.3,43.76Z"/>
      <path class="cls-2" d="M29.46,39.51h-.21a11.67,11.67,0,0,1-11.6-10.36l-1.49-12.4.13,0c.46-.09,25.67-.09,26.13,0l.13,0-1.49,12.4A11.67,11.67,0,0,1,29.46,39.51Z"/>
      <path class="cls-3" d="M42.55,16.74l-.13,0c-4.48,0-8.69-.07-13.06-.07V39.51h.11a11.67,11.67,0,0,0,2.95-.38L33,39c.26-.08.52-.17.77-.27a11.67,11.67,0,0,0,7.29-9.54Z"/>
      <path class="cls-3" d="M32.3,43.76l-.54-3.6h.12a.86.86,0,0,0,0-1.71H29.36v8.82h6v0A3.49,3.49,0,0,0,32.3,43.76Z"/>
      <polygon class="cls-4" points="32.03 41.96 31.77 40.22 26.94 40.22 26.68 41.96 32.03 41.96"/>
      <path class="cls-5" d="M20.6,31.65a17.57,17.57,0,0,1-1.16-5.22L19,22.8c0-.39-.67-.4-.62,0l.46,3.86A17.85,17.85,0,0,0,20.06,32c.16.37.7,0,.54-.32Z"/>
      <path class="cls-5" d="M23.19,35.26a11.9,11.9,0,0,1-1.44-1.63c-.23-.32-.78,0-.54.32a12.76,12.76,0,0,0,1.54,1.76c.29.28.73-.16.44-.44Z"/>
      <path class="cls-2" d="M38.46,31.35A11.64,11.64,0,0,1,32.73,37c-.36.17,0,.71.32.54a12.17,12.17,0,0,0,6-5.9c.17-.36-.37-.68-.54-.32Z"/>
      <path class="cls-2" d="M39.41,27.94a11.88,11.88,0,0,1-.22,1.27c-.09.39.51.56.6.17A13.42,13.42,0,0,0,40,27.94c0-.4-.58-.39-.62,0Z"/>
      <path class="cls-5" d="M25.84,44.45a3.92,3.92,0,0,0-1.1.81c-.28.29.16.73.44.44a3.42,3.42,0,0,1,1-.71c.36-.18,0-.72-.32-.54Z"/>
      <path class="cls-4" d="M42.61,16.59l-.13,1.29H16.3l-.13-1.29.13,0c.36-.08,25.81-.08,26.18,0Z"/>
      <path class="cls-2" d="M42.78,16.75H16a1.69,1.69,0,0,1-1.69-1.69h0A1.69,1.69,0,0,1,16,13.37H42.78a1.69,1.69,0,0,1,1.69,1.69h0A1.69,1.69,0,0,1,42.78,16.75Z"/>
      <path class="cls-6" d="M17.38,15.44h-.87a.63.63,0,0,1-.63-.63h0a.63.63,0,0,1,.63-.63h.87a.63.63,0,0,1,.63.63h0A.63.63,0,0,1,17.38,15.44Z"/>
      <path class="cls-6" d="M23.76,15.44H19.38a.63.63,0,0,1-.63-.63h0a.63.63,0,0,1,.63-.63h4.38a.63.63,0,0,1,.63.63h0A.63.63,0,0,1,23.76,15.44Z"/>
      <g id="_52CFjl" data-name="52CFjl">
      <path class="cls-4" d="M37.51,30.95c-.14,0-.27-.06-.41-.07a4.76,4.76,0,0,0-2.55.38,1.34,1.34,0,0,0-.74.79.19.19,0,0,0,.08.27,1.41,1.41,0,0,0,.88.22,3.52,3.52,0,0,0,1.85-.74c.32-.23.61-.51.92-.76Z"/>
      <path class="cls-4" d="M34,33.19c-.21-.14-.41-.29-.63-.41a4,4,0,0,0-1.81-.55,1.2,1.2,0,0,0-.94.32.18.18,0,0,0,0,.26,1.47,1.47,0,0,0,1,.64,4.28,4.28,0,0,0,2.43-.2Z"/>
      <path class="cls-4" d="M38.62,28c-.23.06-.44.1-.63.17a3.73,3.73,0,0,0-1.77,1.13A1.07,1.07,0,0,0,36,30a.16.16,0,0,0,.16.17,1.32,1.32,0,0,0,1-.22,4,4,0,0,0,1.46-1.81A1.36,1.36,0,0,0,38.62,28Z"/>
      <path class="cls-4" d="M34.45,29.86l-.09,0a2.33,2.33,0,0,0-1.89,1.1,1,1,0,0,0-.1.74.25.25,0,0,0,.12.15.83.83,0,0,0,.91-.15,2.83,2.83,0,0,0,.86-1.24C34.33,30.26,34.38,30.06,34.45,29.86Z"/>
      <path class="cls-4" d="M36.21,23.39c-.08.26-.17.48-.22.71a3.5,3.5,0,0,0-.05,1.55,1.15,1.15,0,0,0,.42.72.2.2,0,0,0,.33,0,1.26,1.26,0,0,0,.29-.82,3.63,3.63,0,0,0-.67-2Z"/>
      <path class="cls-4" d="M35.84,27a3.24,3.24,0,0,0-.7,1A2.94,2.94,0,0,0,34.8,29a1.06,1.06,0,0,0,.21.78.15.15,0,0,0,.21.05,1.1,1.1,0,0,0,.49-.45A2.64,2.64,0,0,0,36,27.95c0-.33-.07-.65-.1-1Z"/>
      <path class="cls-4" d="M38.11,25.53c-.17.12-.33.22-.47.34a3.69,3.69,0,0,0-.89,1.07,1.2,1.2,0,0,0-.16.89c.06.25.12.28.36.2a1.34,1.34,0,0,0,.74-.68,3.55,3.55,0,0,0,.44-1.72A.77.77,0,0,0,38.11,25.53Z"/>
      </g>
      <g id="_52CFjl-2" data-name="52CFjl">
        <path class="cls-4" d="M21.25,30.95c.14,0,.27-.06.41-.07a4.76,4.76,0,0,1,2.55.38,1.34,1.34,0,0,1,.74.79.19.19,0,0,1-.08.27,1.41,1.41,0,0,1-.88.22,3.52,3.52,0,0,1-1.85-.74c-.32-.23-.61-.51-.92-.76Z"/>
      <path class="cls-4" d="M24.79,33.19c.21-.14.41-.29.63-.41a4,4,0,0,1,1.81-.55,1.2,1.2,0,0,1,.94.32.18.18,0,0,1,0,.26,1.47,1.47,0,0,1-1,.64,4.27,4.27,0,0,1-2.43-.2Z"/>
      <path class="cls-4" d="M20.13,28c.23.06.44.1.63.17a3.73,3.73,0,0,1,1.77,1.13,1.07,1.07,0,0,1,.26.75.16.16,0,0,1-.16.17,1.32,1.32,0,0,1-1-.22,4,4,0,0,1-1.46-1.81A1.35,1.35,0,0,1,20.13,28Z"/>
      <path class="cls-4" d="M24.31,29.86l.09,0a2.33,2.33,0,0,1,1.89,1.1,1,1,0,0,1,.1.74.25.25,0,0,1-.12.15.83.83,0,0,1-.91-.15,2.83,2.83,0,0,1-.86-1.24C24.42,30.26,24.37,30.06,24.31,29.86Z"/>
      <path class="cls-4" d="M22.54,23.39c.08.26.17.48.22.71a3.5,3.5,0,0,1,.05,1.55,1.16,1.16,0,0,1-.42.72.2.2,0,0,1-.33,0,1.26,1.26,0,0,1-.29-.82,3.63,3.63,0,0,1,.67-2Z"/>
      <path class="cls-4" d="M22.91,27a3.24,3.24,0,0,1,.7,1A2.94,2.94,0,0,1,24,29a1.06,1.06,0,0,1-.21.78.15.15,0,0,1-.21.05,1.1,1.1,0,0,1-.49-.45,2.64,2.64,0,0,1-.32-1.49c0-.33.07-.65.1-1Z"/>
      <path class="cls-4" d="M20.64,25.53c.17.12.33.22.47.34A3.69,3.69,0,0,1,22,26.94a1.2,1.2,0,0,1,.16.89c-.06.25-.12.28-.36.2a1.34,1.34,0,0,1-.74-.68,3.55,3.55,0,0,1-.44-1.72A.77.77,0,0,1,20.64,25.53Z"/>
      </g>
      <path class="cls-4" d="M29.24,27.17,27,28.33a.29.29,0,0,1-.43-.31L27,25.57a.29.29,0,0,0-.08-.26l-1.78-1.74a.29.29,0,0,1,.16-.5l2.46-.36a.29.29,0,0,0,.22-.16l1.1-2.23a.29.29,0,0,1,.53,0l1.1,2.23a.29.29,0,0,0,.22.16l2.46.36a.29.29,0,0,1,.16.5L31.8,25.31a.29.29,0,0,0-.08.26L32.14,28a.29.29,0,0,1-.43.31l-2.2-1.16A.29.29,0,0,0,29.24,27.17Z"/>
      <path class="cls-7" d="M29.38,58.75A29.38,29.38,0,1,1,58.75,29.38,29.41,29.41,0,0,1,29.38,58.75Zm0-54.51A25.14,25.14,0,1,0,54.51,29.38,25.16,25.16,0,0,0,29.38,4.24Z"/>
      <g class="cls-8">
        <path class="cls-9" d="M29.38,58.75A29.38,29.38,0,1,1,58.75,29.38,29.41,29.41,0,0,1,29.38,58.75Zm0-54.51A25.14,25.14,0,1,0,54.51,29.38,25.16,25.16,0,0,0,29.38,4.24Z"/>
      </g>
      <path class="cls-9" d="M105.7,9.44a8.88,8.88,0,0,0-8.92,9,8.92,8.92,0,1,0,17.83,0A8.88,8.88,0,0,0,105.7,9.44Zm5.57,7.44-2.36,2.32a.39.39,0,0,0-.11.35l.56,3.27a.39.39,0,0,1-.56.41l-2.91-1.55a.38.38,0,0,0-.36,0l-2.91,1.55a.39.39,0,0,1-.56-.41l.56-3.27a.39.39,0,0,0-.11-.35l-2.36-2.32a.39.39,0,0,1,.21-.67l3.26-.48a.39.39,0,0,0,.29-.21l1.46-3a.39.39,0,0,1,.7,0l1.46,3a.39.39,0,0,0,.29.21l3.26.48A.39.39,0,0,1,111.27,16.88Z"/>
      <path class="cls-10" d="M73.42,26.88a10.84,10.84,0,0,1-1.91-.17,10.37,10.37,0,0,1-1.81-.49,11.22,11.22,0,0,1-1.64-.76q-.38-.22-.72-.46a.75.75,0,0,1-.11-1.12l2.23-2.42a.74.74,0,0,1,1-.08,6.08,6.08,0,0,0,1,.62,4.23,4.23,0,0,0,1.93.47,2.08,2.08,0,0,0,.82-.16.58.58,0,0,0,.37-.59.61.61,0,0,0-.12-.38A1.41,1.41,0,0,0,74,21a7.11,7.11,0,0,0-.87-.37l-1.39-.48a11.75,11.75,0,0,1-1.56-.64,5.47,5.47,0,0,1-1.32-.92,4,4,0,0,1-.92-1.3,4.44,4.44,0,0,1-.34-1.82A4.93,4.93,0,0,1,68.25,13a5.33,5.33,0,0,1,1.57-1.71,6.4,6.4,0,0,1,2.16-1A9.88,9.88,0,0,1,74.34,10a9.18,9.18,0,0,1,3.22.61,8.7,8.7,0,0,1,2.22,1.21.75.75,0,0,1,.09,1.13l-2.25,2.29a.75.75,0,0,1-1,0,3.51,3.51,0,0,0-.84-.52,3.57,3.57,0,0,0-1.42-.35,2.24,2.24,0,0,0-.95.17.57.57,0,0,0-.36.55.58.58,0,0,0,.37.54,10.55,10.55,0,0,0,1.21.45q.86.27,1.81.63a7.67,7.67,0,0,1,1.75.94,4.9,4.9,0,0,1,1.32,1.41A3.86,3.86,0,0,1,80,21.17a5.25,5.25,0,0,1-.58,2.52,5.45,5.45,0,0,1-1.51,1.78,6.57,6.57,0,0,1-2.11,1.06A8.33,8.33,0,0,1,73.42,26.88Z"/>
      <path class="cls-10" d="M87.45,22v3.66a.75.75,0,0,1-.75.75H82.85a.75.75,0,0,1-.75-.75V11.19a.75.75,0,0,1,.75-.75H89a11.06,11.06,0,0,1,2.39.26,6.11,6.11,0,0,1,2.1.88,4.64,4.64,0,0,1,1.49,1.65,5.32,5.32,0,0,1,.56,2.58A5.32,5.32,0,0,1,95,18.35,4.86,4.86,0,0,1,93.49,20a6.06,6.06,0,0,1-2.1.95,10.08,10.08,0,0,1-2.43.29H88.2A.75.75,0,0,0,87.45,22Zm0-7.4v2.57h1.13a2.13,2.13,0,0,0,1.12-.3,1.1,1.1,0,0,0,.51-1,1.25,1.25,0,0,0-.13-.62,1,1,0,0,0-.37-.37,1.72,1.72,0,0,0-.53-.19,3.14,3.14,0,0,0-.59-.06Z"/>
      <path class="cls-10" d="M116.84,11.19a.75.75,0,0,1,.75-.75h6.14a11.72,11.72,0,0,1,2.34.24,5.9,5.9,0,0,1,2.08.84,4.53,4.53,0,0,1,1.48,1.6,5.08,5.08,0,0,1,.56,2.52,4.66,4.66,0,0,1-.72,2.58A4.47,4.47,0,0,1,128,19.6a.74.74,0,0,0-.23,1l2.92,4.67a.75.75,0,0,1-.63,1.14h-4.38a.75.75,0,0,1-.66-.39l-2.85-5.32h-.16v5a.75.75,0,0,1-.75.75h-3.72a.75.75,0,0,1-.75-.75Zm5.17,6h1.05a4.31,4.31,0,0,0,.59,0,1.82,1.82,0,0,0,.6-.19,1.36,1.36,0,0,0,.47-.41,1.14,1.14,0,0,0,.19-.69,1.26,1.26,0,0,0-.16-.68,1,1,0,0,0-.4-.37,1.61,1.61,0,0,0-.54-.16,4.68,4.68,0,0,0-.54,0H122Z"/>
      <path class="cls-10" d="M139.91,26.43H136a.75.75,0,0,1-.75-.75v-10a.75.75,0,0,0-.75-.75H132.1a.75.75,0,0,1-.75-.75v-3a.75.75,0,0,1,.75-.75h11.74a.75.75,0,0,1,.75.75v3a.75.75,0,0,1-.75.75H141.4a.75.75,0,0,0-.75.75v10A.75.75,0,0,1,139.91,26.43Z"/>
      <path class="cls-10" d="M151.47,26.88a10.84,10.84,0,0,1-1.91-.17,10.37,10.37,0,0,1-1.81-.49,11.22,11.22,0,0,1-1.64-.76q-.38-.22-.72-.46a.75.75,0,0,1-.11-1.12l2.23-2.42a.74.74,0,0,1,1-.08,6.08,6.08,0,0,0,1,.62,4.23,4.23,0,0,0,1.93.47,2.08,2.08,0,0,0,.82-.16.58.58,0,0,0,.37-.59.61.61,0,0,0-.12-.38,1.41,1.41,0,0,0-.44-.33,7.11,7.11,0,0,0-.87-.37l-1.39-.48a11.75,11.75,0,0,1-1.56-.64,5.47,5.47,0,0,1-1.32-.92,4,4,0,0,1-.92-1.3,4.44,4.44,0,0,1-.34-1.82A4.93,4.93,0,0,1,146.3,13a5.33,5.33,0,0,1,1.57-1.71,6.4,6.4,0,0,1,2.16-1,9.88,9.88,0,0,1,2.37-.29,9.18,9.18,0,0,1,3.22.61,8.7,8.7,0,0,1,2.22,1.21.75.75,0,0,1,.09,1.13l-2.25,2.29a.75.75,0,0,1-1,0,3.51,3.51,0,0,0-.84-.52,3.57,3.57,0,0,0-1.42-.35,2.24,2.24,0,0,0-.95.17.57.57,0,0,0-.36.55.58.58,0,0,0,.37.54,10.55,10.55,0,0,0,1.21.45q.86.27,1.81.63a7.67,7.67,0,0,1,1.75.94,4.9,4.9,0,0,1,1.32,1.41,3.86,3.86,0,0,1,.52,2.08,5.25,5.25,0,0,1-.58,2.52A5.45,5.45,0,0,1,156,25.47a6.57,6.57,0,0,1-2.11,1.06A8.33,8.33,0,0,1,151.47,26.88Z"/>
      <path class="cls-10" d="M78.63,38.12a4.33,4.33,0,0,1,1.11.44,4,4,0,0,1,1,.77,3.52,3.52,0,0,1,.68,1.07,3.57,3.57,0,0,1,.25,1.35A4.06,4.06,0,0,1,79.7,45.4a5.94,5.94,0,0,1-2,.79,11,11,0,0,1-2.29.24h-6.5a.75.75,0,0,1-.75-.75V31.19a.75.75,0,0,1,.75-.75h5.82a15.6,15.6,0,0,1,2.06.15,6.74,6.74,0,0,1,2,.59,4,4,0,0,1,1.54,1.29A3.72,3.72,0,0,1,81,34.69a3.38,3.38,0,0,1-.64,2.12,3.82,3.82,0,0,1-1.7,1.24Zm-5.44-3.5v1.22a.75.75,0,0,0,.75.75h.7a1.55,1.55,0,0,0,.93-.26.92.92,0,0,0,.36-.8.74.74,0,0,0-.38-.68,2,2,0,0,0-1-.23Zm0,5.42v1.42a.75.75,0,0,0,.75.75h.86a1.72,1.72,0,0,0,1-.28,1,1,0,0,0,.4-.82.78.78,0,0,0-.17-.52,1.3,1.3,0,0,0-.42-.33,1.86,1.86,0,0,0-.53-.17,3.35,3.35,0,0,0-.53,0Z"/>
      <path class="cls-10" d="M84.56,30.45h9.5a.75.75,0,0,1,.75.75v3a.75.75,0,0,1-.75.75H88.88v1.38h4.83a.75.75,0,0,1,.75.75v2.69a.75.75,0,0,1-.75.75H89.62a.75.75,0,0,0-.75.75h0a.75.75,0,0,0,.75.75h4.83a.75.75,0,0,1,.75.75v3a.75.75,0,0,1-.75.75H84.56a.75.75,0,0,1-.75-.75V31.19A.75.75,0,0,1,84.56,30.45Z"/>
      <path class="cls-10" d="M104.65,46.43h-3.88a.75.75,0,0,1-.75-.75v-10a.75.75,0,0,0-.75-.75H96.84a.75.75,0,0,1-.75-.75v-3a.75.75,0,0,1,.75-.75h11.74a.75.75,0,0,1,.75.75v3a.75.75,0,0,1-.75.75h-2.44a.75.75,0,0,0-.75.75v10A.75.75,0,0,1,104.65,46.43Z"/>
      <path class="cls-10" d="M116.21,46.88a10.84,10.84,0,0,1-1.91-.17,10.37,10.37,0,0,1-1.81-.49,11.22,11.22,0,0,1-1.64-.76q-.38-.22-.72-.46a.75.75,0,0,1-.11-1.12l2.23-2.42a.74.74,0,0,1,1-.08,6.08,6.08,0,0,0,1,.62,4.23,4.23,0,0,0,1.93.47,2.08,2.08,0,0,0,.82-.16.58.58,0,0,0,.37-.59.61.61,0,0,0-.12-.38,1.41,1.41,0,0,0-.44-.33,7.11,7.11,0,0,0-.87-.37l-1.39-.48a11.75,11.75,0,0,1-1.56-.64,5.47,5.47,0,0,1-1.32-.92,4,4,0,0,1-.92-1.3,4.44,4.44,0,0,1-.34-1.82A4.93,4.93,0,0,1,111,33a5.33,5.33,0,0,1,1.57-1.71,6.4,6.4,0,0,1,2.16-1,9.88,9.88,0,0,1,2.37-.29,9.18,9.18,0,0,1,3.22.61,8.7,8.7,0,0,1,2.22,1.21.75.75,0,0,1,.09,1.13l-2.25,2.29a.75.75,0,0,1-1,0,3.51,3.51,0,0,0-.84-.52,3.57,3.57,0,0,0-1.42-.35,2.24,2.24,0,0,0-.95.17.57.57,0,0,0-.36.55.58.58,0,0,0,.37.54,10.55,10.55,0,0,0,1.21.45q.86.27,1.81.63a7.67,7.67,0,0,1,1.75.94,4.9,4.9,0,0,1,1.32,1.41,3.86,3.86,0,0,1,.52,2.08,5.25,5.25,0,0,1-.58,2.52,5.45,5.45,0,0,1-1.51,1.78,6.57,6.57,0,0,1-2.11,1.06A8.33,8.33,0,0,1,116.21,46.88Z"/>
      <path class="cls-9" d="M127.28,44a2.76,2.76,0,0,1,.24-1.14,2.89,2.89,0,0,1,.65-.93,3.3,3.3,0,0,1,1-.63A2.92,2.92,0,0,1,130.3,41a2.71,2.71,0,0,1,1.12.24,3.22,3.22,0,0,1,.94.63,3,3,0,0,1,.64.93,2.76,2.76,0,0,1,.24,1.14,2.84,2.84,0,0,1-.24,1.15,2.81,2.81,0,0,1-.64.93,3.14,3.14,0,0,1-.94.61,2.83,2.83,0,0,1-1.12.23,3.05,3.05,0,0,1-1.16-.23,3.22,3.22,0,0,1-1-.61,2.72,2.72,0,0,1-.65-.93A2.84,2.84,0,0,1,127.28,44Z"/>
      <path class="cls-9" d="M135.52,37.25a2.61,2.61,0,0,1,2.61-2.61h2.4V36h0a3.15,3.15,0,0,1,1.14-1.2,3.27,3.27,0,0,1,1.77-.47,3.61,3.61,0,0,1,1,.11l-.41,4.42a3.54,3.54,0,0,0-.55-.1,4.85,4.85,0,0,0-.55,0,2.24,2.24,0,0,0-1.62.59,1.93,1.93,0,0,0-.61,1.44v3.15a2.61,2.61,0,0,1-2.61,2.61h0a2.61,2.61,0,0,1-2.61-2.61Z"/>
      <path class="cls-9" d="M158.13,43.91a2.61,2.61,0,0,1-2.61,2.61h-2.47V45.21h0a3.78,3.78,0,0,1-1.34,1.14,4.21,4.21,0,0,1-2,.49,4.34,4.34,0,0,1-2.08-.44,3.64,3.64,0,0,1-1.3-1.15,4.45,4.45,0,0,1-.68-1.6,8.34,8.34,0,0,1-.19-1.77V37.25A2.61,2.61,0,0,1,148,34.64h0a2.61,2.61,0,0,1,2.61,2.61v3.67a2.09,2.09,0,0,0,.29,1.26,1,1,0,0,0,.85.36,1,1,0,0,0,.86-.42,1.91,1.91,0,0,0,.33-1.21V37.25a2.61,2.61,0,0,1,2.61-2.61h0a2.61,2.61,0,0,1,2.61,2.61Z"/>
</g>
</g>
</svg>
