<svg xmlns="http://www.w3.org/2000/svg" viewBox="0 0 24.02 24">
  <path d="M19.75,2.12V4.28h2a5.84,5.84,0,0,1-4.36,5,9.67,9.67,0,0,0,1-3.94v-3A2.32,2.32,0,0,0,16,0H7.91A2.32,2.32,0,0,0,5.59,2.32v3a9.66,9.66,0,0,0,1,3.92A5.26,5.26,0,0,1,3,6.47a7.89,7.89,0,0,1-.72-2.19h2V2.12H0V3.2A10.26,10.26,0,0,0,1,7.37a7.64,7.64,0,0,0,7,4.28,5.87,5.87,0,0,0,2.83,1.89v1.73H7.12v2.16h9.69V15.27H13.05V13.54a5.87,5.87,0,0,0,2.83-1.89A7.65,7.65,0,0,0,23,7.37,10.25,10.25,0,0,0,24,3.2V2.12ZM12,11.53c-2.1,0-4.23-3.59-4.23-6.17v-3a.16.16,0,0,1,.16-.16H16a.16.16,0,0,1,.16.16v3C16.2,7.94,14.07,11.53,12,11.53Z"/>
  <path d="M7.31,24h9.3V18.06H7.31Zm2.16-3.79h5v1.63h-5Z"/>
</svg>
