<svg xmlns="http://www.w3.org/2000/svg" viewBox="0 0 18 18">
  <metadata><?xpacket begin="﻿" id="W5M0MpCehiHzreSzNTczkc9d"?>
<x:xmpmeta xmlns:x="adobe:ns:meta/" x:xmptk="Adobe XMP Core 5.6-c138 79.159824, 2016/09/14-01:09:01        ">
   <rdf:RDF xmlns:rdf="http://www.w3.org/1999/02/22-rdf-syntax-ns#">
      <rdf:Description rdf:about=""/>
   </rdf:RDF>
</x:xmpmeta>
                                                                                                    
                                                                                                    
                                                                                                    
                                                                                                    
                                                                                                    
                                                                                                    
                                                                                                    
                                                                                                    
                                                                                                    
                                                                                                    
                                                                                                    
                                                                                                    
                                                                                                    
                                                                                                    
                                                                                                    
                                                                                                    
                                                                                                    
                                                                                                    
                                                                                                    
                                                                                                    
                           
<?xpacket end="w"?></metadata>
<defs>
    <style>
      .cls-1 {
        fill: #ffb800;
        fill-rule: evenodd;
      }
    </style>
  </defs>
  <path id="Polygon_909_copy" data-name="Polygon 909 copy" class="cls-1" d="M254.991,1910.99a9.01,9.01,0,1,0,9,9.01A8.927,8.927,0,0,0,254.991,1910.99Zm5.619,7.45-2.378,2.32a0.4,0.4,0,0,0-.113.35l0.562,3.27a0.4,0.4,0,0,1-.568.42l-2.94-1.55a0.391,0.391,0,0,0-.364,0l-2.94,1.55a0.4,0.4,0,0,1-.568-0.42l0.562-3.27a0.393,0.393,0,0,0-.113-0.35l-2.378-2.32a0.393,0.393,0,0,1,.217-0.67l3.287-.48a0.4,0.4,0,0,0,.294-0.21l1.47-2.98a0.386,0.386,0,0,1,.7,0l1.47,2.98a0.4,0.4,0,0,0,.294.21l3.288,0.48A0.393,0.393,0,0,1,260.61,1918.44Z" transform="translate(-246 -1911)"/>
</svg>
