<svg xmlns="http://www.w3.org/2000/svg" fill="#fff" viewBox="0 0 55.58 36">
<path d="M37.58,0H18a18,18,0,0,0,0,36H37.58a18,18,0,0,0,0-36Zm0,33.49H18a15.49,15.49,0,1,1,0-31H37.58a15.49,15.49,0,0,1,0,31Z"/>
<path d="M35.42,15.72,25.07,9.23A2.7,2.7,0,0,0,21,11.51V24.43a2.61,2.61,0,0,0,1.4,2.34,2.66,2.66,0,0,0,1.29.35,2.45,2.45,0,0,0,1.4-.41l10.34-6.49a2.67,2.67,0,0,0,1.23-2.28A2.73,2.73,0,0,0,35.42,15.72Zm-1.34,2.4L23.73,24.6s-.06.06-.18,0a.18.18,0,0,1-.06-.12V11.57s0-.12.06-.12h.12L34,17.94a.2.2,0,0,1,.06.12C34.13,18.12,34.07,18.12,34.07,18.12Z"/>
</svg>