<svg xmlns="http://www.w3.org/2000/svg" viewBox="0 0 24 24"><defs><style>.cls-1{fill:#1cb7eb;}</style></defs><title>Asset 1</title><g id="Layer_2" data-name="Layer 2"><g id="Layer_1-2" data-name="Layer 1"><path class="cls-1" d="M12,0A12,12,0,1,0,24,12,12,12,0,0,0,12,0Zm5,9.3v.35c0,3.75-2.65,8-7.5,8a7.1,7.1,0,0,1-4-1.3,3.08,3.08,0,0,0,.65.05,5.11,5.11,0,0,0,3.25-1.2A2.6,2.6,0,0,1,6.9,13.3a1.7,1.7,0,0,0,.5,0,3,3,0,0,0,.7-.1A2.86,2.86,0,0,1,6,10.45v0a2.41,2.41,0,0,0,1.2.35A2.84,2.84,0,0,1,6.05,8.4,2.71,2.71,0,0,1,6.4,7a7.32,7.32,0,0,0,5.45,3,2.85,2.85,0,0,1,0-.65A2.75,2.75,0,0,1,14.45,6.4a2.55,2.55,0,0,1,1.9.9,5.78,5.78,0,0,0,1.7-.7A2.79,2.79,0,0,1,16.9,8.15a4,4,0,0,0,1.5-.45A6,6,0,0,1,17,9.3Z"/></g></g></svg>