<svg xmlns="http://www.w3.org/2000/svg" viewBox="0 0 56.58 37"><defs><style>.cls-1{stroke:#000;stroke-miterlimit:10;}</style></defs><title>icon-forecast-video</title><g id="Слой_2" data-name="Слой 2"><g id="Layer_1" data-name="Layer 1"><path class="cls-1" d="M38.08.5H18.5a18,18,0,0,0,0,36H38.08a18,18,0,0,0,0-36Zm0,33.49H18.5a15.49,15.49,0,1,1,0-31H38.08a15.49,15.49,0,0,1,0,31Z"/><path class="cls-1" d="M35.92,16.22,25.57,9.73A2.7,2.7,0,0,0,21.48,12V24.93a2.61,2.61,0,0,0,1.4,2.34,2.66,2.66,0,0,0,1.29.35,2.45,2.45,0,0,0,1.4-.41l10.34-6.49a2.67,2.67,0,0,0,1.23-2.28A2.73,2.73,0,0,0,35.92,16.22Zm-1.34,2.4L24.23,25.1s-.06.06-.18,0A.18.18,0,0,1,24,25V12.07s0-.12.06-.12h.12l10.34,6.49a.2.2,0,0,1,.06.12C34.63,18.62,34.57,18.62,34.57,18.62Z"/></g></g></svg>