<svg xmlns="http://www.w3.org/2000/svg" viewBox="0 0 16.61 19.96"><defs><style>.cls-1{fill:#ffb800;}</style></defs><title>icon-apple</title><g id="Слой_2" data-name="Слой 2"><g id="Layer_1" data-name="Layer 1"><path class="cls-1" d="M14.73,13.06a4.59,4.59,0,0,1-.82-2.68,4.29,4.29,0,0,1,.77-2.48A7.65,7.65,0,0,1,16,6.49a6.19,6.19,0,0,0-1.24-1.2,4.35,4.35,0,0,0-2.54-.78,6.69,6.69,0,0,0-2.06.41,6,6,0,0,1-1.71.41A7.63,7.63,0,0,1,6.84,5a7.88,7.88,0,0,0-2.11-.36A4.11,4.11,0,0,0,1.35,6.33,7.14,7.14,0,0,0,0,10.82a12.35,12.35,0,0,0,1.75,6Q3.53,20,5.34,20a4.29,4.29,0,0,0,1.57-.41,4.57,4.57,0,0,1,1.69-.4,5.24,5.24,0,0,1,1.8.38,5.5,5.5,0,0,0,1.67.38q1.53,0,3.06-2.35a11.67,11.67,0,0,0,1.47-3,3.63,3.63,0,0,1-1.89-1.51Z"/><path class="cls-1" d="M10.67,3.79a5,5,0,0,0,1.11-1.65A4.6,4.6,0,0,0,12.13.51s0-.07,0-.12,0-.09,0-.12a1.33,1.33,0,0,1,0-.13.66.66,0,0,0,0-.13,4.74,4.74,0,0,0-3,1.78,5.47,5.47,0,0,0-.93,3.08,6.66,6.66,0,0,0,1.24-.2,3.37,3.37,0,0,0,1.29-.86Z"/></g></g></svg>