<svg xmlns="http://www.w3.org/2000/svg" viewBox="0 0 16.46 16"><defs><style>.cls-1{fill:#ffb800;}</style></defs><title>icon-phone</title><g id="Слой_2" data-name="Слой 2"><g id="Isolation_Mode" data-name="Isolation Mode"><path class="cls-1" d="M16.44,12.58a3.08,3.08,0,0,1-1.85,2.87,4.36,4.36,0,0,1-3.68.26c-1.13-.44-2.27-.88-3.36-1.41a12.76,12.76,0,0,1-3.68-2.95,21.26,21.26,0,0,1-3-4.29A6.07,6.07,0,0,1,0,3.52,4.52,4.52,0,0,1,1.85.27,1.67,1.67,0,0,1,2.65,0,7,7,0,0,1,3.71.06a.67.67,0,0,1,.55.47c.26.64.49,1.27.74,1.92.17.43.29.88.49,1.3A1.19,1.19,0,0,1,5.26,5.1a9.18,9.18,0,0,1-.87,1,.58.58,0,0,0-.13.8,12,12,0,0,0,2.92,3.57A13.62,13.62,0,0,0,9.82,12a.58.58,0,0,0,.75-.13c.46-.52.92-1,1.37-1.57.29-.34.44-.4.83-.21,1.14.57,2.26,1.16,3.39,1.75A.63.63,0,0,1,16.44,12.58Z"/></g></g></svg>