<svg xmlns="http://www.w3.org/2000/svg" fill="#ca4638" viewBox="0 0 24 24"><defs></defs><title>Asset 1</title><g id="Layer_2" data-name="Layer 2"><g id="Layer_1-2" data-name="Layer 1"><path class="cls-1" d="M10.69,14.19a2.36,2.36,0,0,0-.39,0,6.66,6.66,0,0,0-1.79.27A1.92,1.92,0,0,0,7,16.2c0,1.21,1.18,2.08,3,2.08,1.64,0,2.51-.78,2.51-1.84C12.55,15.57,12,15.11,10.69,14.19Z"/><path class="cls-1" d="M11.61,9.7c0-1.23-.73-3.14-2.15-3.14a1.56,1.56,0,0,0-1.19.57,1.94,1.94,0,0,0-.38,1.26c0,1.14.67,3,2.13,3A1.74,1.74,0,0,0,11.18,11,1.71,1.71,0,0,0,11.61,9.7Z"/><path class="cls-1" d="M12,0A12,12,0,1,0,24,12,12,12,0,0,0,12,0ZM9.21,19c-2.48,0-3.67-1.18-3.67-2.44a2.45,2.45,0,0,1,1.31-2.08,7.32,7.32,0,0,1,3.26-.79,1.77,1.77,0,0,1-.51-1.16,1.43,1.43,0,0,1,.17-.66l-.55,0A2.7,2.7,0,0,1,6.39,9.22,3.07,3.07,0,0,1,7.48,6.94,4.69,4.69,0,0,1,10.54,6h3.51L13,6.61H11.9a2.9,2.9,0,0,1,1.21,2.31,2.87,2.87,0,0,1-1.43,2.42,1.2,1.2,0,0,0-.48.84,1,1,0,0,0,.44.73l.62.48a3,3,0,0,1,1.43,2.38C13.69,17.38,12.14,19,9.21,19Zm9.25-6.54H16.62v1.85h-.93V12.46H13.85v-.92h1.84V9.69h.93v1.85h1.84Z"/></g></g></svg>
