<svg version="1.1"
	 xmlns="http://www.w3.org/2000/svg" xmlns:xlink="http://www.w3.org/1999/xlink" xmlns:a="http://ns.adobe.com/AdobeSVGViewerExtensions/3.0/"
	 x="0px" y="0px" viewBox="0 0 23.8 24" style="enable-background:new 0 0 23.8 24;"
	 xml:space="preserve">
<defs>
</defs>
<g>
	<path d="M11.9,2c5.5,0,9.9,4.4,9.9,10s-4.3,10-9.9,10C6.3,22,2,17.6,2,12S6.3,2,11.9,2 M11.9,0C5.3,0,0,5.2,0,12
		c0,6.8,5.3,12,11.9,12c6.6,0,11.9-5.2,11.9-12C23.8,5.2,18.5,0,11.9,0L11.9,0z"/>
</g>
<g>
	<path d="M11.9,7.7L12.5,9c0.4,0.7,1.1,1.3,1.9,1.4l1.4,0.2l-1,1c-0.6,0.6-0.9,1.4-0.7,2.2l0.2,1.4l-1.2-0.6
		c-0.4-0.2-0.8-0.3-1.2-0.3c-0.4,0-0.8,0.1-1.2,0.3l-1.2,0.6l0.2-1.4C9.9,13,9.6,12.2,9,11.6l-1-1l1.4-0.2c0.8-0.1,1.5-0.6,1.9-1.4
		L11.9,7.7 M11.9,3.8c-0.2,0-0.4,0.1-0.5,0.3l-1.9,4C9.4,8.3,9.3,8.4,9.1,8.4L4.8,9C4.3,9.1,4.2,9.6,4.5,9.9L7.6,13
		c0.1,0.1,0.2,0.3,0.1,0.5L7,17.8c-0.1,0.3,0.2,0.6,0.5,0.6c0.1,0,0.2,0,0.2-0.1l3.9-2.1c0.1,0,0.2-0.1,0.2-0.1c0.1,0,0.2,0,0.2,0.1
		l3.9,2.1c0.1,0,0.2,0.1,0.2,0.1c0.3,0,0.6-0.3,0.5-0.6L16,13.5c0-0.2,0-0.3,0.1-0.5l3.1-3.1C19.6,9.6,19.4,9.1,19,9l-4.3-0.6
		c-0.2,0-0.3-0.1-0.4-0.3l-1.9-4C12.3,3.9,12.1,3.8,11.9,3.8L11.9,3.8z"/>
</g>
</svg>
