<svg xmlns="http://www.w3.org/2000/svg" viewBox="0 0 36 36">
  <path d="M18,0A18,18,0,1,0,36,18,18,18,0,0,0,18,0ZM33.1,17A16.9,16.9,0,0,0,22.76,21l-3.21-3.21L29.33,8A15.07,15.07,0,0,1,33.1,17Zm-14-14.11a15.07,15.07,0,0,1,9,3.85l-9.78,9.78-3.21-3.21A17,17,0,0,0,19.07,2.91Zm-4.75,9.62L8.24,6.45a15.06,15.06,0,0,1,9.7-3.58A15.77,15.77,0,0,1,14.32,12.52Zm7.18,9.61a17,17,0,0,0-4.82,10.94A15.07,15.07,0,0,1,8,29.33L18.34,19ZM7,7.63l6.16,6.16a15.77,15.77,0,0,1-10.28,4.5c0-.09,0-.19,0-.28A15.08,15.08,0,0,1,7,7.63ZM2.93,19.42A16.91,16.91,0,0,0,14,14.6l3.16,3.16L6.76,28.12A15.08,15.08,0,0,1,2.93,19.42ZM17.82,33.13a15.83,15.83,0,0,1,4.48-10.19L28.37,29A15.08,15.08,0,0,1,18,33.14Zm11.73-5.37-6-6a15.76,15.76,0,0,1,9.56-3.62A15.06,15.06,0,0,1,29.56,27.76Z"/>
</svg>
