<svg version="1.1"
	 xmlns="http://www.w3.org/2000/svg" xmlns:xlink="http://www.w3.org/1999/xlink" xmlns:a="http://ns.adobe.com/AdobeSVGViewerExtensions/3.0/"
	 x="0px" y="0px" width="35px" height="35px" viewBox="0 0 35 35" style="enable-background:new 0 0 35 35;" xml:space="preserve">
<defs>
</defs>
<path class="st0" d="M17.5,0C7.8,0,0,7.8,0,17.5S7.8,35,17.5,35S35,27.2,35,17.5S27.2,0,17.5,0z M24.8,13.6c0,0.1,0,0.4,0,0.5
	c0,5.5-3.9,11.7-10.9,11.7c-2.2,0-4.2-0.7-5.9-1.9C8.3,24,8.6,24,8.9,24c1.7,0,3.4-0.7,4.7-1.7c-1.7,0-3.1-1.2-3.6-2.8
	c0.2,0.1,0.5,0.1,0.7,0.1c0.4,0,0.7-0.1,1-0.1c-1.8-0.4-3.1-2.1-3.1-4.1v-0.1c0.5,0.3,1.1,0.5,1.8,0.5c-1-0.7-1.7-2-1.7-3.4
	c0-0.8,0.1-1.5,0.5-2.1c1.9,2.5,4.7,4.2,7.9,4.3c-0.1-0.3-0.1-0.7-0.1-0.9c0-2.3,1.8-4.2,3.9-4.2c1.1,0,2,0.5,2.8,1.3
	c0.9-0.2,1.7-0.6,2.5-1c-0.3,0.9-0.9,1.7-1.7,2.3c0.7-0.1,1.5-0.3,2.2-0.7C26.3,12.1,25.7,12.8,24.8,13.6z"/>
</svg>
