<svg xmlns="http://www.w3.org/2000/svg" viewBox="0 0 24.03 18.75">
  <path stroke="#000000" stroke-width="0.75px" d="M19,.38a2.19,2.19,0,0,0-2,1.41L3.37,6.07h-1a2,2,0,0,0-2,2v2.24a2,2,0,0,0,2,2h1l1.44.45-.5,1.61a2,2,0,0,0,1.33,2.52h0L10,18.29A2,2,0,0,0,12.52,17h0l.5-1.59L17,16.6a2.19,2.19,0,0,0,4.23-.78v-4h.45a2,2,0,0,0,2-2V8.59a2,2,0,0,0-2-2h-.45v-4A2.19,2.19,0,0,0,19,.38ZM4,6.92,16.8,2.87V15.51L4,11.46ZM1.38,10.3V8.08a1,1,0,0,1,1-1H3v4.23H2.39A1,1,0,0,1,1.38,10.3Zm10.18,6.35a1,1,0,0,1-1.26.65L5.92,16a1,1,0,0,1-.65-1.26l.5-1.61,6.27,2Zm8.62-.83a1.18,1.18,0,1,1-2.37,0V2.57a1.18,1.18,0,1,1,2.37,0h0Zm1.46-8.26a1,1,0,0,1,1,1V9.8a1,1,0,0,1-1,1h-.45V7.58Z"/>
</svg>
