<svg xmlns="http://www.w3.org/2000/svg" viewBox="0 0 36 36">
  <path d="M18,0A18,18,0,1,0,36,18,18,18,0,0,0,18,0Zm0,33.14a15.08,15.08,0,0,1-4.22-.6l-1.56-5.8,2.38-2.81h6.8l2.38,2.81-1.56,5.8A15.08,15.08,0,0,1,18,33.14ZM12.19,4,17.43,8.1v4.26l-5.24,3.81L8.7,14.3,6.54,8.14A15.2,15.2,0,0,1,12.19,4ZM29.46,8.14,27.3,14.3l-3.49,1.87-5.24-3.81V8.1L23.81,4A15.2,15.2,0,0,1,29.46,8.14ZM2.9,19l5.35-3.61,3.68,2,1.87,5.77-2.5,3-6.08,0A15,15,0,0,1,2.9,19Zm21.81,7.09-2.5-3,1.87-5.77,3.68-2L33.1,19a15,15,0,0,1-2.31,7.11Z"/>
</svg>
