<svg xmlns="http://www.w3.org/2000/svg" viewBox="0 0 24.25 24"><title>icon-ticket</title><g id="Слой_2" data-name="Слой 2"><g id="Layer_1_copy" data-name="Layer 1 copy"><g id="Layer_1" data-name="Layer 1"><path d="M23.21,7.34,16.88,1a3.66,3.66,0,0,0-5,0L1.05,11.62a3.53,3.53,0,0,0,0,5L7.37,23a3.57,3.57,0,0,0,5,0L23.19,12.35a3.53,3.53,0,0,0,0-5Zm-1.68,3.32L10.73,21.3a1.24,1.24,0,0,1-1.69,0L7.53,19.79a2.35,2.35,0,0,0-3.32-3.33L2.7,15a1.16,1.16,0,0,1,0-1.65L13.52,2.67a1.21,1.21,0,0,1,1.69,0l1.51,1.51A2.35,2.35,0,0,0,20,7.51L21.54,9a1.16,1.16,0,0,1,0,1.65Z"/></g><path d="M14.89,9.28l-.65,2.28a.37.37,0,0,0,.07.34l1.51,1.83a.37.37,0,0,1-.27.61l-2.37.09a.37.37,0,0,0-.3.17l-1.27,2a.37.37,0,0,1-.66-.07l-.82-2.23a.37.37,0,0,0-.26-.23l-2.3-.59a.37.37,0,0,1-.14-.65l1.87-1.46A.37.37,0,0,0,9.45,11L9.3,8.68a.37.37,0,0,1,.58-.33l2,1.32a.37.37,0,0,0,.34,0l2.21-.87A.37.37,0,0,1,14.89,9.28Z"/></g></g></svg>