<svg xmlns="http://www.w3.org/2000/svg" fill="none" stroke="#ffb800" stroke-width="1.5px" viewBox="0 0 19.5 19.5">
<circle cx="10.35" cy="13.35" r="1.2"/>
<circle cx="5.55" cy="13.35" r="1.2"/>
<line x1="10.35" y1="12.15" x2="5.55" y2="12.15"/>
<path d="M17,11,18,10.49s.74-.52.74.46v4.8c0,.93-.75.51-.75.51l-2.85-1.11v3a.6.6,0,0,1-.6.6H1.35a.6.6,0,0,1-.6-.6V8.55a.6.6,0,0,1,.6-.6h13.2a.6.6,0,0,1,.6.6v4.8"/>
<path d="M12.73,6.15a3,3,0,1,0-3.57,0"/>
<path d="M6.73,6.15a3,3,0,1,0-3.57,0"/>
<circle cx="4.95" cy="3.75"/>
<circle cx="10.95" cy="3.75"/>
</svg>