<svg xmlns="http://www.w3.org/2000/svg" viewBox="0 0 18.65 13.63"><defs><style>.cls-1{fill:#ffb800;}</style></defs><title>icon-virtual-sport</title><g id="Слой_2" data-name="Слой 2"><g id="Layer_1" data-name="Layer 1"><path class="cls-1" d="M18.59,11.84h0L16.34,4.47A1.81,1.81,0,0,0,14.6,3.18H10.38V0H8.27V3.18H4.05A1.81,1.81,0,0,0,2.32,4.47L.06,11.84a1.38,1.38,0,0,0,1.32,1.79h.51a1.38,1.38,0,0,0,1.21-.71l1.77-2.29h8.9l1.77,2.29a1.38,1.38,0,0,0,1.21.71h.51A1.38,1.38,0,0,0,18.59,11.84ZM12.08,7.5H6.58V6.13h5.5Z"/></g></g></svg>