<svg xmlns="http://www.w3.org/2000/svg" viewBox="0 0 19.5 19.5"><defs><style>.cls-1{fill:none;stroke:#ffb800;stroke-linecap:round;stroke-linejoin:round;stroke-width:1.5px;}</style></defs><title>icon-live-on-record</title><g id="Слой_2" data-name="Слой 2"><g id="Layer_1" data-name="Layer 1"><path class="cls-1" d="M12.75.75v5.4a.59.59,0,0,0,.6.6h2.4"/><path class="cls-1" d="M8,6.75v12h10.2a.59.59,0,0,0,.6-.6V6.75a1.86,1.86,0,0,0-.6-1.2L14,1.35a1.86,1.86,0,0,0-1.2-.6h-6"/><line class="cls-1" x1="4.35" y1="18.75" x2="4.35" y2="7.95"/><line class="cls-1" x1="2.55" y1="3.75" x2="6.15" y2="3.75"/><polyline class="cls-1" points="0.75 6.75 4.35 7.95 7.95 6.75 4.35 0.75 0.75 6.75 0.75 17.55"/></g></g></svg>