<svg version="1.1"
	 xmlns="http://www.w3.org/2000/svg" xmlns:xlink="http://www.w3.org/1999/xlink" xmlns:a="http://ns.adobe.com/AdobeSVGViewerExtensions/3.0/"
	 x="0px" y="0px" width="25.9px" height="32px" viewBox="0 0 25.9 32" style="enable-background:new 0 0 25.9 32;"
	 xml:space="preserve">
<defs>
</defs>
<path d="M13,15.6c-0.4,0-0.7,0.1-1.1,0.2l-3-3L6.7,15l3,3c-0.1,0.3-0.2,0.7-0.2,1.1c0,1.9,1.5,3.4,3.4,3.4c1.9,0,3.4-1.5,3.4-3.4
	C16.4,17.2,14.8,15.6,13,15.6z M13,20.6c-0.9,0-1.6-0.7-1.6-1.6c0-0.9,0.7-1.6,1.6-1.6c0.9,0,1.6,0.7,1.6,1.6
	C14.5,19.9,13.8,20.6,13,20.6z"/>
<path d="M15.5,6.3v-1h0.9c1.5,0,2.7-1.2,2.7-2.7S17.8,0,16.4,0H9.5C8.1,0,6.9,1.2,6.9,2.7s1.2,2.7,2.7,2.7h0.9v1
	C4.5,7.5,0,12.8,0,19c0,7.1,5.8,13,13,13s13-5.8,13-13C25.9,12.8,21.4,7.5,15.5,6.3z M8.7,2.7c0-0.4,0.3-0.8,0.8-0.8h6.9
	c0.4,0,0.8,0.3,0.8,0.8s-0.3,0.8-0.8,0.8H9.5C9.1,3.4,8.7,3.1,8.7,2.7z M13,28.9c-5.4,0-9.8-4.4-9.8-9.8c0-5.4,4.4-9.8,9.8-9.8
	s9.8,4.4,9.8,9.8C22.8,24.5,18.4,28.9,13,28.9z"/>
</svg>
