<svg xmlns="http://www.w3.org/2000/svg" width="58" height="19" viewBox="0 0 58 19">
  <metadata><?xpacket begin="﻿" id="W5M0MpCehiHzreSzNTczkc9d"?>
<x:xmpmeta xmlns:x="adobe:ns:meta/" x:xmptk="Adobe XMP Core 5.6-c140 79.160451, 2017/05/06-01:08:21        ">
   <rdf:RDF xmlns:rdf="http://www.w3.org/1999/02/22-rdf-syntax-ns#">
      <rdf:Description rdf:about=""/>
   </rdf:RDF>
</x:xmpmeta>
                                                                                                    
                                                                                                    
                                                                                                    
                                                                                                    
                                                                                                    
                                                                                                    
                                                                                                    
                                                                                                    
                                                                                                    
                                                                                                    
                                                                                                    
                                                                                                    
                                                                                                    
                                                                                                    
                                                                                                    
                                                                                                    
                                                                                                    
                                                                                                    
                                                                                                    
                                                                                                    
                           
<?xpacket end="w"?></metadata>
<defs>
    <style>
      .cls-1 {
        fill: #fff;
        fill-opacity: 0;
        stroke: #fff;
        stroke-linejoin: round;
        stroke-width: 1px;
        fill-rule: evenodd;
      }
    </style>
  </defs>
  <path id="decoration" class="cls-1" d="M1275.58,2175.07a0.769,0.769,0,0,0-1.03.35c-1.56,3.16-5.39,5.4-9.76,5.7-4.12.28-8.23-.93-12.09-2.2l-1.03-.34c-3.68-1.21-7.48-2.47-11.45-2.66a22.211,22.211,0,0,0-15.98,5.78,0.749,0.749,0,0,0-.04,1.07,0.775,0.775,0,0,0,1.08.04,20.933,20.933,0,0,1,14.87-5.38c3.75,0.19,7.45,1.41,11.04,2.59l1.02,0.34c4.02,1.32,8.29,2.58,12.69,2.28,3.91-.27,8.85-2.13,11.03-6.56A0.755,0.755,0,0,0,1275.58,2175.07ZM1238,2183a2,2,0,1,1-2,2A2,2,0,0,1,1238,2183Zm27-10a2,2,0,1,1-2,2A2,2,0,0,1,1265,2173Z" transform="translate(-1221.5 -2170.5)"/>
</svg>
