<?xml version="1.0" encoding="UTF-8"?>
<svg fill="#99cc00" width="24" height="24" version="1.1" viewBox="0 0 100 100" xmlns="http://www.w3.org/2000/svg">
 <path d="m50 11.906c-21.008 0-38.094 17.09-38.094 38.094 0 21.008 17.09 38.094 38.094 38.094 21.008 0 38.094-17.09 38.094-38.094 0-21.008-17.086-38.094-38.094-38.094zm0 72.902c-19.191 0-34.809-15.613-34.809-34.809 0-19.191 15.613-34.809 34.809-34.809 19.191 0 34.809 15.617 34.809 34.809s-15.617 34.809-34.809 34.809zm18.547-48.184c0.64062 0.64062 0.64062 1.6836 0 2.3242l-24.426 24.426c-0.32031 0.32031-0.74219 0.48047-1.1602 0.48047-0.42188 0-0.83984-0.16016-1.1602-0.48047l-10.348-10.344c-0.64062-0.64062-0.64062-1.6836 0-2.3242s1.6836-0.64062 2.3242 0l9.1797 9.1797 23.262-23.262c0.64453-0.64062 1.6836-0.64062 2.3281 0z"/>
</svg>
