<svg xmlns="http://www.w3.org/2000/svg" width="36.12" height="50.09" viewBox="0 0 36.12 50.09">
  <metadata><?xpacket begin="﻿" id="W5M0MpCehiHzreSzNTczkc9d"?>
<x:xmpmeta xmlns:x="adobe:ns:meta/" x:xmptk="Adobe XMP Core 5.6-c140 79.160451, 2017/05/06-01:08:21        ">
   <rdf:RDF xmlns:rdf="http://www.w3.org/1999/02/22-rdf-syntax-ns#">
      <rdf:Description rdf:about=""/>
   </rdf:RDF>
</x:xmpmeta>
                                                                                                    
                                                                                                    
                                                                                                    
                                                                                                    
                                                                                                    
                                                                                                    
                                                                                                    
                                                                                                    
                                                                                                    
                                                                                                    
                                                                                                    
                                                                                                    
                                                                                                    
                                                                                                    
                                                                                                    
                                                                                                    
                                                                                                    
                                                                                                    
                                                                                                    
                                                                                                    
                           
<?xpacket end="w"?></metadata>
<defs>
    <style>
      .cls-1 {
        fill: #7b7b7b;
        fill-rule: evenodd;
      }
    </style>
  </defs>
  <path id="icnWebinar.png" class="cls-1" d="M5249.89,4560.75a3.724,3.724,0,0,0,1.05-1.53,9.629,9.629,0,0,1,.81-1.56c0.73-1.03,2.22-1.37,2.77-2.54,0.28-.58.38-1.2,0.68-1.77a6.735,6.735,0,0,1,1.01-1.43,20.228,20.228,0,0,1,2.92-2.36l0.55-.4,0.69-.76a34.921,34.921,0,0,0,2.37-2.79,12.31,12.31,0,0,0,.97-1.53,7.941,7.941,0,0,0,.75-1.72c0.04-.15.31-0.13,0.28,0.03-0.11.48-.2,0.96-0.35,1.44a9.07,9.07,0,0,1-.62,1.39,18.143,18.143,0,0,1-1.7,2.57,59.717,59.717,0,0,0-4.05,5.11,8.082,8.082,0,0,0-1.39,5.09,4.6,4.6,0,0,0,2.88,3.85,7.122,7.122,0,0,0,3.14.37,4.536,4.536,0,0,0,1.55-.39,5.784,5.784,0,0,0,1.34-1,0.13,0.13,0,0,1,.2.16,3.923,3.923,0,0,1-1.06,1.05,10.431,10.431,0,0,1-1.31.84,4.673,4.673,0,0,1-3.14.45,5.886,5.886,0,0,1-4.57-3.82,7.512,7.512,0,0,1,.48-5.56,13.19,13.19,0,0,1,.95-1.62,6.78,6.78,0,0,0-.94,1.21,14.635,14.635,0,0,0-.67,1.7c-0.55,1.25-2.1,1.65-3.05,2.57a3.415,3.415,0,0,0-.64.78c-0.17.31-.32,0.63-0.48,0.95a2.871,2.871,0,0,1-1.31,1.38A0.1,0.1,0,0,1,5249.89,4560.75Zm17.3,8.72a4.625,4.625,0,0,0,1.19-3.15,3.607,3.607,0,0,0-.5-1.65c-0.15-.27-0.35-0.53-0.48-0.81a2.329,2.329,0,0,0-.26-0.38,1.249,1.249,0,0,0-.26-0.3,0.148,0.148,0,0,1,.16-0.25,3.8,3.8,0,0,0,.47.18c0.17,0.08.34,0.17,0.5,0.26a2.76,2.76,0,0,1,.86.84,4.069,4.069,0,0,1,.69,2.1,3.821,3.821,0,0,1-2.04,3.48C5267.32,4569.9,5267.03,4569.65,5267.19,4569.47Zm-3.3-12.59c0.38-.54.67-1.14,0.99-1.7,0.33-.58.63-1.16,0.93-1.75a28.461,28.461,0,0,0,1.56-3.53,28.029,28.029,0,0,0,1.43-7.5,3.687,3.687,0,0,0-.34-2.04,2.142,2.142,0,0,0-1.64-1.14,0.166,0.166,0,1,1,.04-0.33,2.861,2.861,0,0,1,1.76.67,3.538,3.538,0,0,1,1.05,1.63,10.187,10.187,0,0,1,.19,4.22,21.359,21.359,0,0,1-2.55,7.91c-0.27.47-2.43,3.24-3,3.84a0.264,0.264,0,0,1-.36.05A0.23,0.23,0,0,1,5263.89,4556.88Zm-7.61,5.63a0.277,0.277,0,0,1,.26-0.29,0.282,0.282,0,0,1,.2.04,6.743,6.743,0,0,1,1.1,1.03,5.336,5.336,0,0,0,.96.74,5.121,5.121,0,0,0,2.33.71,5.359,5.359,0,0,0,2.44-.45,4.75,4.75,0,0,0,2.09-1.5,0.163,0.163,0,0,1,.27.18,5.944,5.944,0,0,1-1.41,1.71,4.953,4.953,0,0,1-2.14.92,5.961,5.961,0,0,1-4.4-.92A4.035,4.035,0,0,1,5256.28,4562.51Zm-8.96-1.49c0.79-.17,1.01-1.07,1.24-1.68,0.33-.86.7-1.71,1.09-2.55a54.592,54.592,0,0,1,2.59-4.9,49.343,49.343,0,0,1,3.12-4.63,24.965,24.965,0,0,1,3.95-4.28,33.983,33.983,0,0,1,2.73-2.04c0.48-.33.97-0.65,1.46-0.96s1.02-.58,1.52-0.88c0.14-.09.31,0.09,0.17,0.19-0.42.29-.81,0.61-1.22,0.91-0.43.31-.87,0.61-1.3,0.92a29.132,29.132,0,0,0-2.38,1.9,30.109,30.109,0,0,0-3.92,4.46,54.484,54.484,0,0,0-5.79,9.65c-0.43.92-.8,1.87-1.21,2.8a2.478,2.478,0,0,1-1.96,1.66,0.309,0.309,0,0,1-.36-0.24A0.3,0.3,0,0,1,5247.32,4561.02Zm24.99,20.98a26.788,26.788,0,0,1-.18-5.37,12.7,12.7,0,0,1,.58-2.92c0.07-.24.44-0.11,0.39,0.12a17.085,17.085,0,0,0-.17,5.34c0.2,1.77.55,3.54,0.67,5.32a6.126,6.126,0,0,1-.07,1.42,2.709,2.709,0,0,1-.55,1.32,0.212,0.212,0,0,1-.27-0.02,0.123,0.123,0,0,1-.04-0.08c-0.05-.39.04-0.81,0.03-1.21-0.01-.43-0.04-0.84-0.07-1.27C5272.55,4583.77,5272.41,4582.88,5272.31,4582Zm-17.55,6.26c0.31-.02.61,0,0.92-0.04,0.33-.04.65-0.09,0.97-0.16,0.6-.14,1.19-0.31,1.78-0.47a13.218,13.218,0,0,1,3.59-.48,59.4,59.4,0,0,1,6.78.93c0.62,0.08,1.25.15,1.88,0.18a7.055,7.055,0,0,0,1.89-.08,0.164,0.164,0,1,1,.07.32,15.829,15.829,0,0,1-1.64.43,8.936,8.936,0,0,1-1.71.11,25.018,25.018,0,0,1-3.45-.43,30.147,30.147,0,0,0-3.42-.43,16.737,16.737,0,0,0-3.53.31,18.314,18.314,0,0,1-2.09.24,7.462,7.462,0,0,1-2.11-.09C5254.47,4588.54,5254.56,4588.27,5254.76,4588.26Zm2.19-12.81a5.726,5.726,0,0,0,1.93,3.71,9.249,9.249,0,0,0,1.7,1.26,10.094,10.094,0,0,0,2.01.82,0.168,0.168,0,0,0,.21-0.1,0.153,0.153,0,0,0-.07-0.17c-0.64-.36-1.24-0.78-1.85-1.19a8.043,8.043,0,0,1-1.59-1.37,4.67,4.67,0,0,1-1.21-3.27,3.47,3.47,0,0,1,1.55-2.65,6.321,6.321,0,0,1,6.94.35,0.16,0.16,0,0,0,.21-0.05,0.136,0.136,0,0,0-.01-0.16,8.044,8.044,0,0,0-1.21-.95,2.322,2.322,0,0,0,.44-0.39,1.6,1.6,0,0,0,.37-1.1,2.307,2.307,0,0,0-1.02-1.88,3.441,3.441,0,0,0-4.45.68,1.961,1.961,0,0,0-.39,1.96A4.625,4.625,0,0,0,5256.95,4575.45Zm4.26-4.68a3.1,3.1,0,0,1,.23-0.73,2.037,2.037,0,0,1,.67-0.7,2.587,2.587,0,0,1,1.9-.4,1.534,1.534,0,0,1,1.23,1.06,1.33,1.33,0,0,1-.03.79,1.422,1.422,0,0,1-.23.44l-0.06.1a6.1,6.1,0,0,0-2.55-.65,5.618,5.618,0,0,0-1.16.09h0Zm2.79,10.4a9.509,9.509,0,0,1,.72-1.28,5.441,5.441,0,0,0,.3-0.65c0.09-.23.21-0.47,0.28-0.7,0.05-.17.3-0.1,0.31,0.05a5.233,5.233,0,0,1,.01.56l0.01-.01a5.218,5.218,0,0,1,1.01-.56,2.146,2.146,0,0,1,.71-0.2,11.67,11.67,0,0,1-.15-2.5,9.87,9.87,0,0,1,.17-1.33c0.1-.46.27-0.89,0.39-1.34a0.167,0.167,0,0,1,.32.09,8.01,8.01,0,0,0-.16,2.39,15.444,15.444,0,0,0,.3,2.34c0.32,1.62.86,3.19,1.22,4.8,0.11,0.44.2,0.89,0.32,1.34a3.743,3.743,0,0,1,.17,1.37,0.206,0.206,0,0,1-.21.17,0.2,0.2,0,0,1-.16-0.1,4.194,4.194,0,0,1-.46-1.17c-0.12-.41-0.26-0.82-0.41-1.22-0.3-.82-0.58-1.64-0.81-2.46-0.17-.6-0.32-1.19-0.43-1.79a0.151,0.151,0,0,0-.16,0,4.783,4.783,0,0,0-.76.35c-0.23.13-.47,0.26-0.71,0.38-0.13.07-.25,0.14-0.38,0.22l-0.1.25a2.332,2.332,0,0,1-1.03,1.25,0.237,0.237,0,0,1-.3-0.1A0.2,0.2,0,0,1,5264,4581.17Zm2.72-24.41c0.71,0.23,1.44.39,2.15,0.63s1.39,0.52,2.06.82a16.54,16.54,0,0,1,1.94,1.07,13.809,13.809,0,0,1,1.78,1.34,0.311,0.311,0,0,1,.05.47,0.38,0.38,0,0,1-.48.06c-1.27-.7-2.53-1.4-3.79-2.1-0.63-.35-1.24-0.71-1.88-1.05a20.886,20.886,0,0,0-1.95-.98,0.136,0.136,0,0,1-.07-0.19A0.153,0.153,0,0,1,5266.72,4556.76Zm7.67,16.93c0.13-.22.25-0.45,0.39-0.68,0.2-.34.44-0.66,0.63-1a5.465,5.465,0,0,0,.64-2.29,26.36,26.36,0,0,0-.15-4.7,8.009,8.009,0,0,0-.64-2.59c-0.09-.18.19-0.28,0.29-0.12,0.21,0.36.43,0.71,0.6,1.08a8.282,8.282,0,0,1,.42,1.18,10.381,10.381,0,0,1,.36,2.47c0.03,0.83.04,1.67,0,2.5a6.2,6.2,0,0,1-.57,2.49,7.734,7.734,0,0,1-.51.88,4.4,4.4,0,0,0,.83-0.51,3.279,3.279,0,0,0,1.17-3.06,4.1,4.1,0,0,0-.35-1,6.108,6.108,0,0,1-.27-0.58c-0.07-.21-0.08-0.42-0.15-0.62-0.05-.19.27-0.23,0.32-0.05a1.9,1.9,0,0,0,.37.52,6.26,6.26,0,0,1,.39.51,3.4,3.4,0,0,1,.47.88,3.828,3.828,0,0,1,.12,1.9,3.98,3.98,0,0,1-.88,1.78,5.6,5.6,0,0,1-1.93,1.29,5.838,5.838,0,0,0-1.09.61,1.839,1.839,0,0,0-.79.82c-0.09.28-.49,0.13-0.49-0.11A1.95,1.95,0,0,1,5274.39,4573.69Zm-26.14-10.99a2.832,2.832,0,0,1,.4-0.08,3.2,3.2,0,0,1,.44-0.01c0.29,0.01.58,0.02,0.87,0.05,0.57,0.07,1.15.13,1.73,0.15,0.55,0.02,1.09.01,1.64-.02,0.28-.01.57-0.02,0.85-0.04l0.42-.04a1.8,1.8,0,0,0,.52-0.05c0.17-.06.29,0.18,0.12,0.24-0.14.08-.28,0.16-0.41,0.25-0.12.06-.25,0.12-0.38,0.17a5.624,5.624,0,0,1-.85.27,7.927,7.927,0,0,1-1.82.12,13.219,13.219,0,0,1-1.78-.15,7.148,7.148,0,0,1-.92-0.19c-0.16-.04-0.3-0.09-0.45-0.14l-0.18-.06c-0.09-.04-0.15-0.12-0.23-0.16a0.159,0.159,0,0,1-.1-0.22A0.168,0.168,0,0,1,5248.25,4562.7Zm-0.46.39a4.315,4.315,0,0,1,2.5,3.71,17.433,17.433,0,0,1,.03,2.89c-0.04.96-.07,1.92-0.13,2.88-0.04.54-.13,1.06-0.2,1.6-0.04.26-.06,0.52-0.1,0.77-0.02.15-.08,0.29-0.11,0.43l-0.07.44c-0.03.19-.38,0.22-0.39,0.01-0.02-.45-0.09-0.89-0.09-1.34s-0.03-.9-0.05-1.36c-0.03-.91.1-1.84,0.16-2.75a11.942,11.942,0,0,0-.26-5.08,4.934,4.934,0,0,0-1.43-1.97,0.124,0.124,0,0,1-.03-0.19A0.2,0.2,0,0,1,5247.79,4563.09Zm0.18,20.99a2.811,2.811,0,0,1,.31-0.1l0.29-.02a1.844,1.844,0,0,0,.51-0.19,1.685,1.685,0,0,0,.74-0.73,5.034,5.034,0,0,0-.07-2.64,3.014,3.014,0,0,1,.66-2.35,0.945,0.945,0,0,0,.39-0.96c-0.07-.2-0.18-0.39-0.25-0.59s-0.1-.41-0.17-0.62a0.14,0.14,0,0,1,.26-0.1,1.958,1.958,0,0,0,.31.46,4.434,4.434,0,0,1,.29.46,1.77,1.77,0,0,1,.26.97,1.942,1.942,0,0,1-.49.94,2.016,2.016,0,0,0-.36.96,15.391,15.391,0,0,0-.08,2.25,3.737,3.737,0,0,1-.51,2.14c-0.39.61-1.45,1.28-2.17,0.72a0.345,0.345,0,0,1-.06-0.5A0.451,0.451,0,0,1,5247.97,4584.08Zm-3.58-24.27a13.875,13.875,0,0,1,1.41-.5c0.49-.15,1-0.22,1.48-0.38,0.14-.05.24,0.16,0.09,0.21a9.52,9.52,0,0,0-1.15.58c-0.37.2-.73,0.4-1.1,0.59s-0.74.38-1.1,0.58a2.107,2.107,0,0,0-.65.57,0.338,0.338,0,0,1-.45.05,0.218,0.218,0,0,1-.05-0.04C5242.16,4560.71,5243.86,4560.04,5244.39,4559.81Zm-0.12,3.42c0.58,1.33,1.27,2.63,1.77,3.99a34.334,34.334,0,0,1,1.24,4.17,21.554,21.554,0,0,1,.49,4.3c0.01,0.69-.01,1.38,0,2.07,0.02,0.72.11,1.44,0.15,2.16,0.02,0.41.01,0.81,0.04,1.21,0.03,0.34.13,0.67,0.18,1.01a2.214,2.214,0,0,1-.36,1.74,0.155,0.155,0,0,1-.21.02,0.125,0.125,0,0,1-.03-0.19,1.985,1.985,0,0,0,.24-1.72c-0.13-.63-0.43-1.2-0.6-1.82a9.336,9.336,0,0,1-.22-2.11c-0.04-.69-0.07-1.38-0.11-2.07a34.923,34.923,0,0,0-1.53-8.09c-0.46-1.52-.85-3.05-1.34-4.55A0.157,0.157,0,0,1,5244.27,4563.23Zm16.63,15.53,0.51-.4a1.961,1.961,0,0,0,.45-0.46c0.08-.14.35-0.11,0.32,0.07a2.744,2.744,0,0,1-.09.39,1.247,1.247,0,0,1-1,.81,0.242,0.242,0,0,1-.28-0.2A0.22,0.22,0,0,1,5260.9,4578.76Zm-5.94,7.85a13.039,13.039,0,0,1,5.1-1.24,39.64,39.64,0,0,1,5.45.07q0.765,0.06,1.53.15c0.57,0.06,1.13.16,1.71,0.21a0.121,0.121,0,1,1-.03.24c-0.95-.02-1.9.04-2.85,0.01-0.87-.02-1.75-0.05-2.63-0.07a29.142,29.142,0,0,0-5.2.35,21.95,21.95,0,0,0-2.92.62,0.2,0.2,0,0,1-.26-0.11A0.177,0.177,0,0,1,5254.96,4586.61Zm-3.02-.09c0.89-.31,1.76-0.62,2.67-0.87s1.81-.52,2.71-0.76a30.433,30.433,0,0,1,5.63-.8c1.08-.07,2.17-0.11,3.26-0.15,0.19,0,.24.27,0.04,0.28q-2.805.27-5.57,0.8c-0.92.15-1.83,0.32-2.74,0.49s-1.83.32-2.73,0.53c-0.52.12-1.03,0.27-1.54,0.41-0.53.13-1.06,0.25-1.58,0.4C5251.86,4586.92,5251.7,4586.61,5251.94,4586.52Zm0.81,0.85a0.219,0.219,0,0,1,.27-0.11,0.156,0.156,0,0,1,.08.06,1.008,1.008,0,0,1,.12.23,0.69,0.69,0,0,0,.16.18,0.771,0.771,0,0,0,.21.14,0.643,0.643,0,0,0,.24.1,0.156,0.156,0,0,1,.01.31,1.478,1.478,0,0,1-.42,0,0.907,0.907,0,0,1-.36-0.2A0.711,0.711,0,0,1,5252.75,4587.37Z" transform="translate(-5242.69 -4538.91)"/>
</svg>
