<?xml version="1.0" encoding="utf-8"?>
<!-- Generator: Adobe Illustrator 22.1.0, SVG Export Plug-In . SVG Version: 6.00 Build 0)  -->
<svg version="1.1" id="Icons" xmlns="http://www.w3.org/2000/svg" xmlns:xlink="http://www.w3.org/1999/xlink" x="0px" y="0px"
	 viewBox="0 0 445.2 653.4" style="enable-background:new 0 0 445.2 653.4;" xml:space="preserve">
<style type="text/css">
	.st0{fill:none;stroke:#dd5064;stroke-width:16;stroke-linecap:round;stroke-linejoin:round;stroke-miterlimit:22.9256;}
</style>
<g>
	<path class="st0" d="M107.4,356.9V102.1c0-21.1,17.3-38.4,38.4-38.4l0,0c21.1,0,38.4,17.3,38.4,38.4v243.7"/>
	<path class="st0" d="M184.1,345.9V46.4c0-21.1,17.3-38.4,38.4-38.4l0,0c21.1,0,38.4,17.3,38.4,38.4v306.1"/>
	<path class="st0" d="M260.8,352.4V102.1c0-21.1,17.3-38.4,38.4-38.4l0,0c21.1,0,38.4,17.3,38.4,38.4v277.4"/>
	<path class="st0" d="M337.9,376.9c0-28,25.6-216.8,89.3-172.3c23.3,16.3-1.2,81.4-6.6,107c-13.4,63,8,90.1,8,138.2
		c0,106.4-86.3,192.8-192.8,192.8c-106.4,0-192.8-86.3-192.8-192.8c-4.8-74.4-14-125.1-31.3-165.5c-20.3-47.1,46.3-37.5,74.7,12.9
		c27.6,49.1,21,158.2,64.4,225.4c29.7,46,104.9,65.5,154.1,18c33.2-32,33.4-75.4,10.5-106.5c-19.9-26.9-57.9-46.6-97.2-17.2
		c-43.6,32.6-18.4,91.6,23.3,91.6c37.4,0,40.5-49,4-49"/>
</g>
</svg>
