<svg xmlns="http://www.w3.org/2000/svg" width="59.87" height="24.84" viewBox="0 0 59.87 24.84">
  <metadata><?xpacket begin="﻿" id="W5M0MpCehiHzreSzNTczkc9d"?>
<x:xmpmeta xmlns:x="adobe:ns:meta/" x:xmptk="Adobe XMP Core 5.6-c140 79.160451, 2017/05/06-01:08:21        ">
   <rdf:RDF xmlns:rdf="http://www.w3.org/1999/02/22-rdf-syntax-ns#">
      <rdf:Description rdf:about=""/>
   </rdf:RDF>
</x:xmpmeta>
                                                                                                    
                                                                                                    
                                                                                                    
                                                                                                    
                                                                                                    
                                                                                                    
                                                                                                    
                                                                                                    
                                                                                                    
                                                                                                    
                                                                                                    
                                                                                                    
                                                                                                    
                                                                                                    
                                                                                                    
                                                                                                    
                                                                                                    
                                                                                                    
                                                                                                    
                                                                                                    
                           
<?xpacket end="w"?></metadata>
<defs>
    <style>
      .cls-1 {
        fill: #7b7b7b;
        fill-rule: evenodd;
      }
    </style>
  </defs>
  <path id="icnCourses.png" class="cls-1" d="M1160.92,4485.01a12.1,12.1,0,0,1-1.46-.17,7.473,7.473,0,0,0-1.48.3,5.224,5.224,0,0,1-2.82-.31c-0.14-.05-0.28.14-0.14,0.21a8,8,0,0,0,1.35.65,3.757,3.757,0,0,0,1.49.15c0.54-.04,1.06-0.2,1.58-0.29a10.048,10.048,0,0,0,1.54-.33,0.108,0.108,0,0,0,.07-0.14A0.115,0.115,0,0,0,1160.92,4485.01Zm3.28-2.67a4.893,4.893,0,0,0-.76.27,1.637,1.637,0,0,0-.57.57,1.521,1.521,0,0,0-.15.84c0.01,0.24.16,0.65-.24,0.73a0.134,0.134,0,0,0-.14.15,0.148,0.148,0,0,0,.16.14h0.01a1.155,1.155,0,0,0,.94-1.06,1.061,1.061,0,0,1,.33-0.76,4.776,4.776,0,0,1,.63-0.55,0.192,0.192,0,0,0,.03-0.27A0.219,0.219,0,0,0,1164.2,4482.34Zm10.81-2.6a28.44,28.44,0,0,0-1.11-3.09l0.2-.29a3.545,3.545,0,0,1,.75-1.01,0.178,0.178,0,0,0-.22-0.28,10.615,10.615,0,0,1-.85.65,3.146,3.146,0,0,0-.79.71,19.322,19.322,0,0,1-1.38,1.49,16.142,16.142,0,0,1-3.2,2.34,15.339,15.339,0,0,1-2.06,1.05c-0.14.05-.05,0.23,0.09,0.2a15.825,15.825,0,0,0,2.01-.57,11.913,11.913,0,0,0,1.85-.94,12.316,12.316,0,0,0,3.08-2.66l0.19-.23a52.661,52.661,0,0,0,1.99,6.04C1175.95,4482.73,1175.2,4480.33,1175.01,4479.74Zm13.98-12.12a4.1,4.1,0,0,0-2.51.65,3.088,3.088,0,0,0-.64.61h-0.07a5.968,5.968,0,0,1-.84-0.08c-0.31-.02-0.63-0.04-0.94-0.08a4.871,4.871,0,0,1-1.67-.53,2.6,2.6,0,0,1-1.52-2.53,0.1,0.1,0,0,0-.08-0.1,0.123,0.123,0,0,0-.1.05,2.105,2.105,0,0,0-.18.86,2.6,2.6,0,0,0,.19.91,3.357,3.357,0,0,0,1.19,1.5,5.043,5.043,0,0,0,2.11.75,4.731,4.731,0,0,0,1.19.04l0.17-.02a6.549,6.549,0,0,1-.55.75,4.691,4.691,0,0,1-2.5,1.37c-0.49.12-1,.18-1.49,0.29a7.735,7.735,0,0,0-1.51.45,32.117,32.117,0,0,0-3.24,1.83c-0.13.07,0,.28,0.13,0.22a12.762,12.762,0,0,1,1.45-.68c0.51-.18,1.01-0.36,1.53-0.53,0.97-.32,1.99-0.49,2.97-0.8a8.273,8.273,0,0,0,2.71-1.12,3.96,3.96,0,0,0,.98-1.06,9.95,9.95,0,0,0,.54-1.26,1.555,1.555,0,0,1,1.12-.88c0.51-.14,1.04-0.16,1.56-0.25C1189.19,4467.95,1189.23,4467.63,1188.99,4467.62Zm8.77,14.5a8.054,8.054,0,0,1-1.31-2.7,21.281,21.281,0,0,1-.67-3.05c-0.17-1.12-.29-2.25-0.51-3.36a8.3,8.3,0,0,0-1.15-3.02,4.409,4.409,0,0,0-1.15-1.17,3.958,3.958,0,0,0-1.58-.5,0.139,0.139,0,0,0-.16.11,0.16,0.16,0,0,0,.08.14,3.827,3.827,0,0,1,1.17.85,5.329,5.329,0,0,1,.89,1.01,8.938,8.938,0,0,1,1.13,2.84,60.387,60.387,0,0,0,1.24,6.24,9.342,9.342,0,0,0,.71,1.5,8.593,8.593,0,0,0,1.04,1.3C1197.63,4482.45,1197.89,4482.28,1197.76,4482.12Zm-26.63-8.28c-0.42.39-.83,0.8-1.21,1.23-0.4.41-.81,0.8-1.23,1.19a33.538,33.538,0,0,1-2.67,2.23,43.469,43.469,0,0,1-5.94,3.76c-1.19.63-2.43,1.2-3.68,1.75a0.07,0.07,0,0,0-.04.1,0.078,0.078,0,0,0,.11.04h0a32.786,32.786,0,0,0,12.42-7.17c0.48-.43.94-0.88,1.39-1.33a8.741,8.741,0,0,0,1.3-1.49C1171.72,4473.93,1171.35,4473.67,1171.13,4473.84Zm7.8-6.81a0.225,0.225,0,0,0-.25-0.19,0.358,0.358,0,0,0-.11.04,2.277,2.277,0,0,0-.53.67c-0.17.21-.36,0.42-0.55,0.62a10.269,10.269,0,0,1-1.33,1.14c-0.98.67-1.93,1.38-2.84,2.14a5.493,5.493,0,0,0-1.19,1.53c-0.04.09,0.09,0.16,0.16,0.09,1.65-1.73,3.94-2.74,5.62-4.43a5.434,5.434,0,0,0,.62-0.73A1.461,1.461,0,0,0,1178.93,4467.03Zm2.77-3.19a7.89,7.89,0,0,0-1.51.43c-0.49.18-.99,0.35-1.48,0.53-0.99.37-1.95,0.78-2.9,1.23a17.968,17.968,0,0,0-5.12,3.41,0.955,0.955,0,0,0-.34.73,2.779,2.779,0,0,0,.26.8,5.159,5.159,0,0,0,.88,1.63,0.118,0.118,0,0,0,.21-0.08,12.316,12.316,0,0,0-.5-1.4,5.729,5.729,0,0,1-.23-0.7,0.6,0.6,0,0,1,.26-0.67,21.485,21.485,0,0,1,2.34-1.66,32.683,32.683,0,0,1,5.22-2.54c0.52-.21,1.03-0.41,1.55-0.61a8.387,8.387,0,0,0,1.53-.68,0.23,0.23,0,0,0,.05-0.33A0.31,0.31,0,0,0,1181.7,4463.84Zm-3.88,16.14a0.341,0.341,0,0,0-.61.3,1.956,1.956,0,0,1-.18.68,4.246,4.246,0,0,0-.26,1.53,2.046,2.046,0,0,1-.32,1.42,1.54,1.54,0,0,1-.57.41,4.922,4.922,0,0,1-.85.17,0.15,0.15,0,0,0-.1.19,0.164,0.164,0,0,0,.1.1,2.882,2.882,0,0,0,.83.06,1.478,1.478,0,0,0,.78-0.28,1.806,1.806,0,0,0,.53-1.36,3.2,3.2,0,0,1,.24-1.73A1.619,1.619,0,0,0,1177.82,4479.98Zm-0.87-.83a1.23,1.23,0,0,0-.19-0.31,1.469,1.469,0,0,1-.07-0.46l-0.08-.64a8.416,8.416,0,0,0-.5-2.47c-0.05-.11-0.26-0.11-0.27.03a19.028,19.028,0,0,0,.22,2.5,6.22,6.22,0,0,0,.05,1.14,0.546,0.546,0,0,0,.65.5A0.3,0.3,0,0,0,1176.95,4479.15Zm15.1-17.13a1.423,1.423,0,0,0-.96-0.4,5.192,5.192,0,0,0-1.04-.13,6.312,6.312,0,0,0-2.16.35c-0.71.26-1.35,0.67-2.04,0.99a12.526,12.526,0,0,1-2.25.63,0.111,0.111,0,0,0-.1.12,0.108,0.108,0,0,0,.13.09,8.416,8.416,0,0,0,2.1-.42c0.35-.1.7-0.19,1.05-0.31s0.7-.28,1.06-0.4c0.21-.08.42-0.14,0.63-0.2l0.02,0.03a0.918,0.918,0,0,1,.19.35q0.12,0.27.21,0.54a5.566,5.566,0,0,1,.28,1.12,4.586,4.586,0,0,1-.03,1.17,5.327,5.327,0,0,1-.29,1.16,0.119,0.119,0,0,0,.07.15,0.13,0.13,0,0,0,.16-0.06,5.363,5.363,0,0,0,.34-0.62,3.718,3.718,0,0,0,.19-0.65,5.246,5.246,0,0,0,.1-1.37,5.65,5.65,0,0,0-.2-1.35c-0.06-.21-0.13-0.43-0.21-0.63a4.032,4.032,0,0,1,.6-0.04,6.177,6.177,0,0,1,1.05.07,2.343,2.343,0,0,0,1.01.12,0.2,0.2,0,0,0,.11-0.27A0.076,0.076,0,0,0,1192.05,4462.02Zm5.49,2.24c-0.16-.38-0.24-0.79-0.39-1.17a5.41,5.41,0,0,0-.45-0.94,2.347,2.347,0,0,0-1.55-1.11,2.526,2.526,0,0,0-1.93.38,3.52,3.52,0,0,0-1.1,1.57,0.139,0.139,0,0,0,.09.17,0.163,0.163,0,0,0,.17-0.06,2.5,2.5,0,0,1,2.73-1.37,2.027,2.027,0,0,1,1.13,1.02h0.01a1.224,1.224,0,0,0-.8.45,2.377,2.377,0,0,0-.65.98,2.848,2.848,0,0,0,.65,2.32,0.093,0.093,0,0,0,.13.01,0.071,0.071,0,0,0,.03-0.1,4.243,4.243,0,0,1-.23-1.9,1.456,1.456,0,0,1,.43-0.76,1.325,1.325,0,0,1,.69-0.46l0.05-.03,0.11,0.19c0.19,0.31.43,0.59,0.62,0.91C1197.36,4464.5,1197.6,4464.43,1197.54,4464.26Zm-2.42,3.93c-0.36-.26-0.72-0.54-1.1-0.76a11.97,11.97,0,0,1-1.19-.59,1.7,1.7,0,0,1-.61-0.72,1.659,1.659,0,0,1-.04-1.01,0.1,0.1,0,0,0-.09-0.11,0.14,0.14,0,0,0-.09.03,2.024,2.024,0,0,0,.13,2.19,2.525,2.525,0,0,0,1.24.8,8.585,8.585,0,0,0,1.67.37,0.12,0.12,0,0,0,.13-0.1A0.122,0.122,0,0,0,1195.12,4468.19Zm3.88,11.38c-0.18-.8-0.34-1.6-0.51-2.4s-0.36-1.57-.45-2.37c-0.17-1.5.05-3-.12-4.49a6.093,6.093,0,0,0-.77-2.29c-0.1-.18-0.41-0.07-0.31.11a5.582,5.582,0,0,1,.47,2.09c0.05,0.72.04,1.44,0.04,2.17a18.07,18.07,0,0,0,.46,4.63c0.22,0.9.52,1.76,0.82,2.64C1198.69,4479.85,1199.04,4479.78,1199,4479.57Zm-11.56-16.58a12.786,12.786,0,0,0-2.55.94c-0.39.21-.76,0.48-1.16,0.67a4.222,4.222,0,0,1-1.36.32,0.121,0.121,0,0,0-.11.13,0.132,0.132,0,0,0,.14.11,9.77,9.77,0,0,0,1.42-.23,4.719,4.719,0,0,0,1.22-.4,19.1,19.1,0,0,1,2.51-1.28C1187.73,4463.19,1187.62,4462.95,1187.44,4462.99Zm15.57,4.97a4.906,4.906,0,0,0-1.23-1.92c-0.13-.11-0.34.08-0.22,0.2a2.918,2.918,0,0,1,.89,2.04,5.562,5.562,0,0,1-.29,2.18l-0.14.28-0.37.03a3.231,3.231,0,0,1-.62-0.04,3.475,3.475,0,0,1-1.12-.39,5.138,5.138,0,0,1-.91-0.68,2.5,2.5,0,0,1-.67-0.95c-0.05-.17-0.3-0.07-0.26.09,0.06,0.21.07,0.43,0.14,0.64a3.142,3.142,0,0,0,.27.62,2.761,2.761,0,0,0,.97,1.01,3.818,3.818,0,0,0,1.44.55h0.01l-0.27.09a3.953,3.953,0,0,1-1.04.13,2.667,2.667,0,0,1-.56-0.03,1.251,1.251,0,0,1-.57-0.16,0.14,0.14,0,0,0-.19.03,0.109,0.109,0,0,0,0,.15,1.479,1.479,0,0,0,.75.64,3.2,3.2,0,0,0,1.07.17,3.635,3.635,0,0,0,2.06-.61A3.373,3.373,0,0,0,1203.01,4467.96Zm-2.6-1.82a2.348,2.348,0,0,0-.65-0.03l-0.05-.02a3.166,3.166,0,0,0-.75-0.06,5.671,5.671,0,0,1-.84-0.16,4.723,4.723,0,0,1-1.48-.76c-0.08-.06-0.2.04-0.13,0.12a4.077,4.077,0,0,0,1.46.94,3.929,3.929,0,0,0,.85.22l0.11,0.02a0.943,0.943,0,0,0-.3.33c-0.1.18,0.14,0.3,0.29,0.22a7.919,7.919,0,0,1,.69-0.42,2.414,2.414,0,0,1,.8-0.2C1200.53,4466.34,1200.52,4466.17,1200.41,4466.14Zm1.42,2.81a2.144,2.144,0,0,1-.98.23,0.213,0.213,0,0,0-.12.28,0.178,0.178,0,0,0,.07.08,0.732,0.732,0,0,0,.73.04,1.316,1.316,0,0,0,.29-0.19l0.07-.07,0.17-.2C1202.19,4468.98,1201.96,4468.83,1201.83,4468.95Zm3.15,13.85a7.168,7.168,0,0,1-.81.1,5.52,5.52,0,0,1-.81-0.06,12.978,12.978,0,0,0-1.75-.18,4.578,4.578,0,0,0-.83.08,2.149,2.149,0,0,1-.8.04,0.71,0.71,0,0,1-.54-0.42,2.776,2.776,0,0,1-.22-0.69c-0.04-.14-0.27-0.13-0.24.02a2.723,2.723,0,0,0,.53,1.36,2.075,2.075,0,0,0,1.71.32,13.735,13.735,0,0,1,1.93.22,3.952,3.952,0,0,0,2.02-.08,0.371,0.371,0,0,0,.21-0.49A0.42,0.42,0,0,0,1204.98,4482.8Zm-2.83,1.25c-0.61-.51-1.51-0.15-2.21-0.07a1.927,1.927,0,0,1-1.78-.68c-0.07-.08-0.23-0.01-0.18.09a2.59,2.59,0,0,0,1.6,1.25,3.39,3.39,0,0,0,1.27,0,8.679,8.679,0,0,0,1.24-.21A0.215,0.215,0,0,0,1202.15,4484.05Zm12-13.51a10.347,10.347,0,0,1-1.16-.68,5.263,5.263,0,0,0-1.33-.58,7.033,7.033,0,0,1-1.48-.59c-0.51-.26-1.01-0.54-1.51-0.82-1.01-.54-2.02-1.09-3.03-1.63a16.8,16.8,0,0,0-3.02-1.38c-1.22-.38-2.45-0.7-3.69-1a0.106,0.106,0,0,0-.06.2c1.06,0.43,2.12.83,3.21,1.2a14.751,14.751,0,0,1,1.56.6c0.5,0.23.97,0.5,1.45,0.77,1.02,0.56,2.04,1.12,3.07,1.67l1.53,0.83a6.749,6.749,0,0,0,1.46.62,5.441,5.441,0,0,1,1.62.5c0.22,0.13.43,0.26,0.66,0.37a1.247,1.247,0,0,0,.69.11,0.094,0.094,0,0,0,.09-0.11A0.087,0.087,0,0,0,1214.15,4470.54Zm0.51,1.31a10.162,10.162,0,0,1-1.12-.27,10.43,10.43,0,0,1-1.08-.48c-0.72-.35-1.45-0.68-2.16-1.06a18.994,18.994,0,0,0-2.17-1.07,16.607,16.607,0,0,0-2.09-.59,7.683,7.683,0,0,1-2.28-.82,0.121,0.121,0,0,0-.15.02,0.106,0.106,0,0,0,.02.14,10.582,10.582,0,0,0,3.93,1.72c0.8,0.27,1.6.55,2.36,0.88s1.5,0.74,2.25,1.11a12.646,12.646,0,0,0,1.18.55,3.222,3.222,0,0,0,1.3.27A0.2,0.2,0,0,0,1214.66,4471.85Zm-0.31-.66a1,1,0,0,0-.61-0.13,0.117,0.117,0,0,0-.1.14,0.092,0.092,0,0,0,.1.09c0.17,0.02.33,0.09,0.51,0.12A0.127,0.127,0,0,0,1214.35,4471.19Z" transform="translate(-1154.97 -4461)"/>
</svg>
