<?xml version="1.0" encoding="utf-8"?>
<!-- Generator: Adobe Illustrator 22.1.0, SVG Export Plug-In . SVG Version: 6.00 Build 0)  -->
<svg version="1.1" id="Layer_1" xmlns="http://www.w3.org/2000/svg" xmlns:xlink="http://www.w3.org/1999/xlink" x="0px" y="0px"
	 viewBox="0 0 18 18" style="enable-background:new 0 0 18 18;" xml:space="preserve">
<style type="text/css">
	.st0{clip-path:url(#SVGID_2_);}
	.st1{clip-path:url(#SVGID_4_);fill:#FFFFFF;}
</style>
<g>
	<defs>
		<path id="SVGID_1_" d="M17,7.4L2.6,0.2C2.4,0.1,2.1,0,1.8,0C1.5,0,1.1,0.1,0.9,0.3C0.3,0.6,0,1.2,0,1.8v14.4
			c0,0.6,0.3,1.2,0.9,1.5C1.1,17.9,1.5,18,1.8,18c0.3,0,0.6-0.1,0.8-0.2L17,10.6c0.6-0.3,1-0.9,1-1.6C18,8.3,17.6,7.7,17,7.4"/>
	</defs>
	<clipPath id="SVGID_2_">
		<use xlink:href="#SVGID_1_"  style="overflow:visible;"/>
	</clipPath>
	<g class="st0">
		<defs>
			<rect id="SVGID_3_" x="-188" y="-1281" width="1000" height="2320"/>
		</defs>
		<clipPath id="SVGID_4_">
			<use xlink:href="#SVGID_3_"  style="overflow:visible;"/>
		</clipPath>
		<rect x="-5" y="-5" class="st1" width="28" height="28"/>
	</g>
</g>
</svg>
