<svg xmlns="http://www.w3.org/2000/svg" width="36.79" height="38.84" viewBox="0 0 36.79 38.84">
  <metadata><?xpacket begin="﻿" id="W5M0MpCehiHzreSzNTczkc9d"?>
<x:xmpmeta xmlns:x="adobe:ns:meta/" x:xmptk="Adobe XMP Core 5.6-c140 79.160451, 2017/05/06-01:08:21        ">
   <rdf:RDF xmlns:rdf="http://www.w3.org/1999/02/22-rdf-syntax-ns#">
      <rdf:Description rdf:about=""/>
   </rdf:RDF>
</x:xmpmeta>
                                                                                                    
                                                                                                    
                                                                                                    
                                                                                                    
                                                                                                    
                                                                                                    
                                                                                                    
                                                                                                    
                                                                                                    
                                                                                                    
                                                                                                    
                                                                                                    
                                                                                                    
                                                                                                    
                                                                                                    
                                                                                                    
                                                                                                    
                                                                                                    
                                                                                                    
                                                                                                    
                           
<?xpacket end="w"?></metadata>
<defs>
    <style>
      .cls-1 {
        fill: #7b7b7b;
        fill-rule: evenodd;
      }
    </style>
  </defs>
  <path id="icnLive.png" class="cls-1" d="M1160.36,2439.06a5.208,5.208,0,0,1,3.43-1.99,5.788,5.788,0,0,1,3.91.89,3.968,3.968,0,0,1,1.53,1.9,2.745,2.745,0,0,1-.17,2.37,0.109,0.109,0,0,1-.15.01,0.123,0.123,0,0,1-.04-0.08,3.756,3.756,0,0,0,.08-1,4.55,4.55,0,0,0-.22-0.97,3.365,3.365,0,0,0-1.15-1.56,3.8,3.8,0,0,0-3.34-.72,5.961,5.961,0,0,0-1.54.58,4.827,4.827,0,0,0-1.19.96,3.771,3.771,0,0,0-.77,1.4c0.83-1.04,2.32-.97,3.55-1.11a7.432,7.432,0,0,0,2.3-.77,0.1,0.1,0,0,1,.1.16,5.658,5.658,0,0,1-2.12,1.3c-0.77.22-1.6,0.16-2.36,0.43a1.751,1.751,0,0,0-1.2,1.37,9.782,9.782,0,0,0-.17,1.04,2.186,2.186,0,0,0-.03.36,3.523,3.523,0,0,0,.15.42,5.194,5.194,0,0,0,.97,1.55,0.179,0.179,0,0,1-.2.28,4.717,4.717,0,0,1-.81-0.49,3.271,3.271,0,0,1-.64-0.7A4.707,4.707,0,0,1,1160.36,2439.06Zm-6.39,17.89a14.475,14.475,0,0,1,.33-1.86,20.554,20.554,0,0,1,1.34-3.66c0.25-.57.49-1.14,0.76-1.69a2.845,2.845,0,0,1,1.09-1.31,5.326,5.326,0,0,1,1.71-.44,3.226,3.226,0,0,0,1.26-.51,4.918,4.918,0,0,0,1.87-2.55,0.138,0.138,0,0,1,.26.03,3.132,3.132,0,0,1-.86,2.76,4.091,4.091,0,0,1-1.31.94,5.2,5.2,0,0,1-1.6.38,1.846,1.846,0,0,0-1.39.55,6.625,6.625,0,0,0-.82,1.5,25.665,25.665,0,0,0-1.45,3.57,13.632,13.632,0,0,0-.52,2.07c-0.05.35-.08,0.7-0.1,1.06-0.01.16-.01,0.33-0.01,0.49a5.509,5.509,0,0,1-.06.57,0.209,0.209,0,0,1-.41.01,2.678,2.678,0,0,1-.11-0.49c-0.01-.14-0.02-0.29-0.02-0.44C1153.93,2457.6,1153.94,2457.27,1153.97,2456.95Zm2.26,2.68c0.23,0.01.45-.01,0.67,0s0.45,0.04.67,0.05c0.45,0.02.9,0.03,1.35,0.04a11.956,11.956,0,0,0,2.67-.24,18.815,18.815,0,0,0,2.54-.72,7.413,7.413,0,0,1,2.62-.6,10.3,10.3,0,0,1,3.04.82c0.16,0.05.06,0.27-.1,0.23a10.488,10.488,0,0,0-2.79-.32,5.067,5.067,0,0,0-.56.05l0.33,0.19a6.737,6.737,0,0,1,.82.58,11.189,11.189,0,0,1,1.55,1.45,14.359,14.359,0,0,1,2.28,3.4,10.691,10.691,0,0,1,.43,1.06q0.105,0.27.18,0.54a4.154,4.154,0,0,0,.14.61,0.108,0.108,0,0,1-.2.08,5.971,5.971,0,0,0-.55-0.86c-0.17-.28-0.35-0.55-0.53-0.83-0.36-.55-0.74-1.09-1.12-1.63a33.627,33.627,0,0,0-2.55-3.04c-0.25-.27-0.52-0.52-0.76-0.79-0.12-.14-0.24-0.29-0.37-0.42-0.08-.09-0.18-0.15-0.26-0.23a8.565,8.565,0,0,0-1.4.48c-0.41.18-.8,0.38-1.22,0.52a10.563,10.563,0,0,1-1.33.38,13.786,13.786,0,0,1-2.72.27,7.154,7.154,0,0,1-1.46-.14c-0.25-.05-0.5-0.11-0.76-0.18a4.982,4.982,0,0,1-.72-0.3A0.235,0.235,0,0,1,1156.23,2459.63Zm-0.49-2.73a1.306,1.306,0,0,1,.21-0.36,1.16,1.16,0,0,1,.36-0.25,3.352,3.352,0,0,1,.8-0.35,6.205,6.205,0,0,1,.85-0.21q0.105-.18.21-0.33c0.2-.3.4-0.61,0.61-0.92s0.4-.62.58-0.94c0.1-.17.2-0.34,0.29-0.51a5.088,5.088,0,0,0,.3-0.5,0.16,0.16,0,0,1,.2-0.08,0.157,0.157,0,0,1,.08.19c-0.08.17-.09,0.37-0.16,0.56s-0.13.36-.2,0.53c-0.14.37-.3,0.73-0.47,1.09q-0.21.42-.45,0.81a18.829,18.829,0,0,1,3.51.44,10.84,10.84,0,0,0,1.96.25,8.758,8.758,0,0,0,1.02-.08,3.1,3.1,0,0,0,.42-0.08,5.366,5.366,0,0,0,.56-0.21,2.708,2.708,0,0,1,1.82.03,5.378,5.378,0,0,1,1.11.65c0.01-.17.06-0.36,0.08-0.52,0.05-.32.07-0.64,0.11-0.95,0.07-.63.1-1.27,0.18-1.89a0.1,0.1,0,0,1,.12-0.09,0.076,0.076,0,0,1,.08.06,5.425,5.425,0,0,1,.4,1.94,8.7,8.7,0,0,1-.04,1.02,1.575,1.575,0,0,1-.28.94,26.02,26.02,0,0,0,2.29,1.74,0.107,0.107,0,0,1-.11.18c-0.88-.43-1.62-1.09-2.46-1.6a4.079,4.079,0,0,0-1.32-.56,9.637,9.637,0,0,0-1.52-.12c-0.31-.01-0.62-0.09-0.93-0.09s-0.63.04-.95,0.04c-0.62-.01-1.25-0.04-1.88-0.06-1.21-.04-2.4-0.21-3.61-0.17a8.262,8.262,0,0,0-1.79.21,6.181,6.181,0,0,0-.83.27c-0.14.06-.27,0.12-0.4,0.18a1.5,1.5,0,0,1-.47.08,0.263,0.263,0,0,1-.3-0.21A0.274,0.274,0,0,1,1155.74,2456.9Zm7.99-12.2c0.14,0.15.31,0.29,0.46,0.44a5.339,5.339,0,0,0,.44.39,7.323,7.323,0,0,0,1.09.68c0.37,0.2.76,0.37,1.14,0.55a1.211,1.211,0,0,0,1.22.16,0.073,0.073,0,0,1,.11.02,0.075,0.075,0,0,1,0,.09,1.073,1.073,0,0,1-1.11.23,8.9,8.9,0,0,1-1.42-.51,6.461,6.461,0,0,1-1.3-.75,4.111,4.111,0,0,1-.55-0.48,1.985,1.985,0,0,1-.4-0.63C1163.31,2444.69,1163.59,2444.55,1163.73,2444.7Zm2.07,2.71a0.113,0.113,0,0,1,.13-0.1,0.111,0.111,0,0,1,.1.12,0.875,0.875,0,0,0,.63.67,2.459,2.459,0,0,0,1.01.15,3.1,3.1,0,0,1,2.42.45,4.351,4.351,0,0,1,1.07,1.89,22.586,22.586,0,0,1,.8,2.66,16.224,16.224,0,0,1,.38,3.11c0,0.19-.29.24-0.31,0.04-0.09-.92-0.27-1.84-0.45-2.75a16.925,16.925,0,0,0-.78-2.72,3.078,3.078,0,0,0-1.26-1.8c-0.74-.37-1.66-0.04-2.45-0.22a1.98,1.98,0,0,1-1.02-.56A1.126,1.126,0,0,1,1165.8,2447.41Zm7.29,13.23c0.18,0.48.45,0.91,0.65,1.38s0.39,0.94.57,1.41c0.36,0.95.69,1.91,1.02,2.87,0.32,0.93.6,1.87,0.95,2.8,0.15,0.4.29,0.81,0.48,1.2a1.384,1.384,0,0,0,.76.83c0.78,0.27,1.74-.02,2.36.63,0.13,0.13-.07.31-0.22,0.22-0.65-.43-1.51-0.21-2.24-0.43a3.009,3.009,0,0,1-1.74-1.65,28.138,28.138,0,0,1-1.03-2.78c-0.34-.98-0.65-1.96-0.95-2.95-0.16-.55-0.31-1.09-0.46-1.64-0.07-.29-0.14-0.58-0.2-0.86-0.06-.31-0.09-0.62-0.18-0.93C1172.82,2460.6,1173.03,2460.5,1173.09,2460.64Zm-29.16,12.05c0.33-.19.61-0.41,0.95-0.57s0.66-.31.98-0.47c0.61-.31,1.2-0.62,1.76-0.95a16.065,16.065,0,0,0,2.94-2.17,19.511,19.511,0,0,0,2.16-2.56,25.144,25.144,0,0,0,1.64-2.55c0.26-.46.51-0.93,0.76-1.39s0.53-.92.75-1.4c0.05-.1.24-0.07,0.21,0.06a13.529,13.529,0,0,1-.88,2.7,19.91,19.91,0,0,1-1.56,2.68,21.027,21.027,0,0,1-2.18,2.71,16.19,16.19,0,0,1-2.97,2.37c-0.66.41-1.33,0.78-2.03,1.13-0.35.17-.72,0.35-1.09,0.51a4.471,4.471,0,0,1-.6.25c-0.22.06-.43,0.09-0.64,0.15C1143.73,2473.31,1143.55,2472.92,1143.93,2472.69Zm13.13-3.34a2.262,2.262,0,0,1,1.29-.54,4.511,4.511,0,0,1,1.42.13,25.682,25.682,0,0,1,2.85.94c1.95,0.69,3.95,1.19,5.95,1.75,0.46,0.12.91,0.25,1.37,0.39a0.219,0.219,0,0,1,.11-0.27,1.5,1.5,0,0,0,.27-0.29,2.819,2.819,0,0,1,.36-0.33,1.908,1.908,0,0,1,.83-0.41,2.175,2.175,0,0,1,.51,0,0.378,0.378,0,0,1,.1-0.12,1.386,1.386,0,0,0,.28-0.6,5.137,5.137,0,0,0,.23-0.79,7.831,7.831,0,0,0,.16-1.74,14.572,14.572,0,0,0-.14-1.87c-0.04-.3-0.09-0.6-0.14-0.9-0.05-.33-0.11-0.66-0.19-0.99-0.03-.12.17-0.15,0.2-0.03,0.11,0.37.29,0.72,0.42,1.08,0.11,0.32.23,0.65,0.33,0.98a7.842,7.842,0,0,1,.39,2.03,6.586,6.586,0,0,1-.17,1.93,2.912,2.912,0,0,1-.6,1.34c0.19,0.11.38,0.22,0.56,0.33a2.784,2.784,0,0,0,1.91.34,3.826,3.826,0,0,1,1.12-.03,2.04,2.04,0,0,1,.85.41,5.416,5.416,0,0,1,1.21,1.57c0.05,0.07-.06.16-0.11,0.09a2.917,2.917,0,0,0-1.65-1.21c-0.83-.13-1.64.27-2.48,0.11a3.139,3.139,0,0,1-1.24-.51,5.5,5.5,0,0,0-.97-0.62,0.927,0.927,0,0,0-.91.13,4.734,4.734,0,0,1-.46.32,2.284,2.284,0,0,1-.44.15c0.53,0.16,1.06.33,1.58,0.5a0.13,0.13,0,0,1-.06.25,22.383,22.383,0,0,1-5.98-.91c-0.97-.27-1.92-0.58-2.87-0.91-0.92-.31-1.82-0.69-2.75-0.98a6.071,6.071,0,0,0-2.93-.24,0.28,0.28,0,0,1-.31-0.24A0.256,0.256,0,0,1,1157.06,2469.35Zm-3.91.43c0.12,0.12.26,0.23,0.37,0.35,0.12,0.14.23,0.28,0.35,0.42,0.23,0.24.44,0.5,0.68,0.73a9.689,9.689,0,0,0,1.73,1.26,14.636,14.636,0,0,0,4.25,1.54,34.643,34.643,0,0,0,5.38.63c0.9,0.04,1.81.07,2.71,0.08,0.92,0.02,1.83.04,2.75-.03,1.01-.07,2.02-0.21,3.04-0.27a7.806,7.806,0,0,1,1.45.02,10.573,10.573,0,0,1,1.46.32,0.146,0.146,0,0,1-.07.28,4.559,4.559,0,0,0-1.38-.06c-0.45.03-.91,0.07-1.36,0.14-0.9.13-1.79,0.35-2.7,0.46a33.544,33.544,0,0,1-5.67.09,34.79,34.79,0,0,1-5.47-.59,17.043,17.043,0,0,1-4.62-1.57,9.976,9.976,0,0,1-2.06-1.46,5.236,5.236,0,0,1-.85-0.97c-0.11-.17-0.22-0.35-0.32-0.53a2.949,2.949,0,0,1-.17-0.63A0.284,0.284,0,0,1,1153.15,2469.78Zm-0.29-1.66a1.741,1.741,0,0,1,.34-0.42,2.783,2.783,0,0,1,.41-0.29,8.3,8.3,0,0,1,.88-0.47,8.828,8.828,0,0,1,1.94-.64l0.4-.08c0.26-.19.5-0.4,0.75-0.59,0.52-.42,1.04-0.85,1.54-1.29,0.47-.42.93-0.86,1.37-1.31l0.29-.3,0.01-.06a0.279,0.279,0,0,1,.2-0.18,3.764,3.764,0,0,0,.65-1.02,0.229,0.229,0,0,1,.29-0.11,0.215,0.215,0,0,1,.11.27,11.79,11.79,0,0,1-.57,1.38c0.09,0.43.1,0.89,0.17,1.31a13.481,13.481,0,0,0,.43,1.66,12.6,12.6,0,0,0,.64,1.57q0.18,0.375.39,0.75a5.522,5.522,0,0,0,.42.8,0.173,0.173,0,0,1-.03.24,0.185,0.185,0,0,1-.24-0.03c-0.2-.24-0.43-0.44-0.62-0.69a8.6,8.6,0,0,1-.49-0.74,9.785,9.785,0,0,1-1.26-3.36l-0.09-.46a10.471,10.471,0,0,1-.98,1.02c-0.39.35-.78,0.69-1.19,1.01,0.37-.01.74,0,1.11,0.01a11.889,11.889,0,0,0,1.2.08c0.18-.01.23,0.27,0.04,0.28a9.381,9.381,0,0,0-1.06.18l-1.05.18c-0.72.13-1.42,0.29-2.12,0.48a10.408,10.408,0,0,0-1.7.6,6.862,6.862,0,0,0-.76.4l-0.39.25a2.311,2.311,0,0,1-.51.22,0.442,0.442,0,0,1-.57-0.24A0.457,0.457,0,0,1,1152.86,2468.12Zm-9.51,5.5a4.361,4.361,0,0,0,.41.24,1.447,1.447,0,0,0,.54.11c0.34,0.01.68,0.05,1.02,0.03a13.815,13.815,0,0,0,2.29-.44,10.086,10.086,0,0,1,1.22-.23,3.843,3.843,0,0,1,1.22.07c0.48,0.08,1.46.31,1.73-.27a3.053,3.053,0,0,0,.11-0.95,2.229,2.229,0,0,1,.32-0.97,0.159,0.159,0,0,1,.21-0.04,0.15,0.15,0,0,1,.05.2,1.445,1.445,0,0,0,.09,1,1.824,1.824,0,0,1-.02,1.06,1.624,1.624,0,0,1-1.98.77,9.4,9.4,0,0,0-1.28-.27,5.461,5.461,0,0,0-1.34.08,23.49,23.49,0,0,1-2.5.49,2.624,2.624,0,0,1-1.24-.12,3.588,3.588,0,0,1-1.04-.55C1143.04,2473.72,1143.21,2473.54,1143.35,2473.62Zm15.19-23.68a4,4,0,0,1,1.38.53q0.66,0.315,1.29.69c0.85,0.5,1.64,1.09,2.46,1.63a3.655,3.655,0,0,0,2.35.71,3.523,3.523,0,0,0,2.11-1.05,4.077,4.077,0,0,0,1.12-2.64,0.159,0.159,0,0,1,.18-0.13,0.171,0.171,0,0,1,.14.13,4.529,4.529,0,0,1-.47,2.73,3.606,3.606,0,0,1-2.21,1.83,3.544,3.544,0,0,1-2.91-.35,6.983,6.983,0,0,1-1.2-.97,12.575,12.575,0,0,0-1.22-.99c-0.49-.35-1-0.67-1.52-0.97-0.27-.15-0.54-0.29-0.81-0.43a3.268,3.268,0,0,1-.8-0.44,0.15,0.15,0,0,1-.03-0.22A0.141,0.141,0,0,1,1158.54,2449.94Zm9.12-4.82a0.971,0.971,0,0,0,.37.07l0.18-.03c0.07,0,.13.01,0.2,0.01a0.1,0.1,0,0,1,.12.09,0.185,0.185,0,0,1-.02.07,0.549,0.549,0,0,1-.47.25,0.77,0.77,0,0,1-.54-0.18,0.16,0.16,0,0,1-.02-0.23A0.168,0.168,0,0,1,1167.66,2445.12Zm0.8-.72a1.111,1.111,0,0,1,.45-0.25,1.615,1.615,0,0,1-.22-1.03,0.086,0.086,0,0,1,.16-0.02,4.925,4.925,0,0,0,.42,1.04,0.16,0.16,0,0,1-.04.22,0.053,0.053,0,0,1-.03.02,1.524,1.524,0,0,1-.65.22,0.14,0.14,0,0,1-.12-0.14Zm-2.24-2.01a4.214,4.214,0,0,0,.85.15,2.055,2.055,0,0,0,.91-0.24,0.135,0.135,0,0,1,.16.07,0.111,0.111,0,0,1-.04.14,1.752,1.752,0,0,1-1.96.09C1166.05,2442.53,1166.1,2442.36,1166.22,2442.39Zm2.74-.05a2.358,2.358,0,0,0,.46.01,1.412,1.412,0,0,0,.44-0.14,0.115,0.115,0,0,1,.11.2,1.134,1.134,0,0,1-1.08.2,0.147,0.147,0,0,1-.07-0.19A0.134,0.134,0,0,1,1168.96,2442.34Zm-7.22.34,0.02-.07a1.958,1.958,0,0,1,1.34-.81c0.28-.08.57-0.12,0.85-0.19a6.57,6.57,0,0,0,.9-0.22,3.82,3.82,0,0,0,.7-0.49,5.477,5.477,0,0,1,.77-0.52,4.257,4.257,0,0,1,1.74-.5c0.11,0,.17.15,0.06,0.18a5.041,5.041,0,0,0-1.52.85,9.642,9.642,0,0,1-1.33,1.14,2.8,2.8,0,0,1-.85.26,6.417,6.417,0,0,1-.88.03,3.288,3.288,0,0,0-.76.09,2.591,2.591,0,0,1,.29.14c0.09,0.05.01,0.17-.08,0.14a0.649,0.649,0,0,0-.71.09,0.567,0.567,0,0,0-.04.6,1.021,1.021,0,0,0,.34.43c0.08,0.05.16,0.09,0.24,0.13a2.543,2.543,0,0,1,.28.16,0.164,0.164,0,0,1,0,.3,0.725,0.725,0,0,1-.41.06,1.384,1.384,0,0,1-.5-0.25,1.476,1.476,0,0,1-.55-0.89A1.077,1.077,0,0,1,1161.74,2442.68Zm2.09,7.52a0.814,0.814,0,0,0,.41.01,1.443,1.443,0,0,0,.45-0.17,3.911,3.911,0,0,1,1.07-.27c0.85-.15,1.73-0.19,2.59-0.27,0.12-.01.14,0.17,0.03,0.18l-1.54.19a3.459,3.459,0,0,0-1.45.3,3.253,3.253,0,0,1-1.02.66,0.611,0.611,0,0,1-.78-0.39,0.235,0.235,0,0,1-.02-0.08C1163.53,2450.21,1163.72,2450.14,1163.83,2450.2Zm-4.16-.7a9.279,9.279,0,0,1,1.4.22,11.606,11.606,0,0,1,1.32.34c0.13,0.04.05,0.22-.07,0.18-0.45-.12-0.9-0.22-1.36-0.3-0.43-.08-0.88-0.1-1.32-0.16a0.138,0.138,0,0,1-.12-0.16A0.151,0.151,0,0,1,1159.67,2449.5Zm3.42-3.49c0-.12.19-0.15,0.2-0.02a6.947,6.947,0,0,0,.2.99c0.07,0.33.14,0.67,0.22,1a5.687,5.687,0,0,0,.5,1.66,0.218,0.218,0,0,1-.28.29,1.91,1.91,0,0,1-.74-1.65,10.452,10.452,0,0,1-.1-1.1C1163.07,2446.79,1163.11,2446.4,1163.09,2446.01Z" transform="translate(-1143.12 -2437)"/>
</svg>
