<?xml version="1.0" encoding="UTF-8"?>
<svg fill="#5b6779" width="300" height="300" version="1.1" viewBox="0 0 100 100" xmlns="http://www.w3.org/2000/svg">
 <g>
  <path d="m50.844 0.25c5.0781 1.1836 8.2383 6.2617 7.0547 11.34-1.1836 5.082-6.2578 8.2383-11.34 7.0547-5.0781-1.1797-8.2383-6.2578-7.0547-11.34 1.1836-5.0781 6.2578-8.2383 11.34-7.0547"/>
  <path d="m84.062 17.98c-0.93359 0.82812-1.8438 1.6445-2.7422 2.4531-6.2422 0.42578-17.477 1.0977-27.84 1.2734h-9.5586c-6.9062-0.11719-14.199-0.45312-20.141-0.79297-3.668-0.20703-6.8242-0.41797-9.0586-0.57422s-3.5391-0.26172-3.543-0.26172c-1.8516-0.14844-3.4688 1.2344-3.6133 3.082-0.14844 1.8477 1.2344 3.4688 3.082 3.6133 0.035156 0.003906 13.012 1.0352 26.695 1.4844v66.551c0 2.8672 2.3242 5.1914 5.1914 5.1914 2.8672 0 5.1914-2.3242 5.1914-5.1914v-32.816c0.92969 0.74609 2.043 1.1094 3.1484 1.1094 1.4492 0 2.8867-0.62109 3.8828-1.8242 0 0 0.03125-0.035156 0.11719-0.14062 1.293-1.5352 13.258-15.539 35.875-35.625 2.082-1.8477 2.2695-5.0312 0.42188-7.1133-1.8477-2.0742-5.0312-2.2656-7.1094-0.41797zm-24.008 22.746v-12.469c4.7188-0.15625 9.3516-0.37891 13.402-0.60547-5.25 4.9219-9.7148 9.3203-13.402 13.074z"/>
 </g>
</svg>
