<?xml version="1.0" encoding="utf-8"?>
<!-- Generator: Adobe Illustrator 22.1.0, SVG Export Plug-In . SVG Version: 6.00 Build 0)  -->
<svg version="1.1" id="Icons" xmlns="http://www.w3.org/2000/svg" xmlns:xlink="http://www.w3.org/1999/xlink" x="0px" y="0px"
	 viewBox="0 0 520.3 601.1" style="enable-background:new 0 0 520.3 601.1;" xml:space="preserve">
<style type="text/css">
	.st0{fill:none;stroke:#8bc641;stroke-width:15;stroke-linecap:round;stroke-linejoin:round;stroke-miterlimit:22.9256;}
</style>
<g>
	<g>
		<path class="st0" d="M242.4,145.8c0,41.7-17.6,61.9-49.1,72.4c-23.3,7.8-62.4,24.8-89.3,70.2c-37.7,63.5-36.6,117.3-36.6,117.3
			s87.1,7.5,122.6-34.4c50.3-59.4,55.3-128,55.3-128"/>
		<path class="st0" d="M277.9,145.8c0,41.7,17.6,61.9,49.1,72.4c23.3,7.8,62.4,24.8,89.3,70.2c37.7,63.5,36.6,117.3,36.6,117.3
			s-87.1,7.5-122.6-34.4c-50.3-59.4-55.3-128-55.3-128"/>
	</g>
	<line class="st0" x1="23.5" y1="593.6" x2="481" y2="593.6"/>
	<g>
		<path class="st0" d="M206.3,351.3c-2.9,81.2-22.8,129.1-60.5,149.4"/>
		<path class="st0" d="M314,351.3c2.9,81.2,22.8,129.1,60.5,149.4"/>
	</g>
	<g>
		<path class="st0" d="M104.3,593.6H266c-22.1-24.5-61.1-53.5-108.5-79.2C46.8,454.6,7.6,487.6,7.6,487.6S1,531.3,104.3,593.6z"/>
		<path class="st0" d="M416,593.6c103.3-62.3,96.7-106,96.7-106s-39.3-33-149.9,26.8c-47.5,25.7-86.4,54.7-108.5,79.2H416z"/>
	</g>
	<path class="st0" d="M312,68.8c0,44.3-23.2,80.2-51.9,80.2c-28.7,0-51.9-35.9-51.9-80.2c0-44.3,23.2-61.3,51.9-61.3
		C288.8,7.5,312,24.5,312,68.8z"/>
</g>
</svg>
