<svg xmlns="http://www.w3.org/2000/svg" width="47.03" height="39.03" viewBox="0 0 47.03 39.03">
  <metadata><?xpacket begin="﻿" id="W5M0MpCehiHzreSzNTczkc9d"?>
<x:xmpmeta xmlns:x="adobe:ns:meta/" x:xmptk="Adobe XMP Core 5.6-c140 79.160451, 2017/05/06-01:08:21        ">
   <rdf:RDF xmlns:rdf="http://www.w3.org/1999/02/22-rdf-syntax-ns#">
      <rdf:Description rdf:about=""/>
   </rdf:RDF>
</x:xmpmeta>
                                                                                                    
                                                                                                    
                                                                                                    
                                                                                                    
                                                                                                    
                                                                                                    
                                                                                                    
                                                                                                    
                                                                                                    
                                                                                                    
                                                                                                    
                                                                                                    
                                                                                                    
                                                                                                    
                                                                                                    
                                                                                                    
                                                                                                    
                                                                                                    
                                                                                                    
                                                                                                    
                           
<?xpacket end="w"?></metadata>
<defs>
    <style>
      .cls-1 {
        fill: #7b7b7b;
        fill-rule: evenodd;
      }
    </style>
  </defs>
  <path id="icnTeacher.png" class="cls-1" d="M1153.59,5895.73a2.039,2.039,0,0,0-1.02-.66,1.355,1.355,0,0,0-.45-0.05,5.031,5.031,0,0,0-.6-1.85,4.712,4.712,0,0,0-3.92-2.16,6.369,6.369,0,0,0-4.5,1.44,4.836,4.836,0,0,0-1.65,4.55,0.134,0.134,0,0,0,.15.11,0.14,0.14,0,0,0,.12-0.14,4.411,4.411,0,0,1,1.56-3.5,5.642,5.642,0,0,1,3.75-1.26,3.985,3.985,0,0,1,3.26,1.34,5.428,5.428,0,0,1,.9,3.06l-0.02.02-0.08.06-0.06.02-0.18.06a1.575,1.575,0,0,1-.52.12,5.753,5.753,0,0,1-1.43-.28,8.376,8.376,0,0,1-2.58-1.04c-0.12-.08-0.31.07-0.2,0.2a6.1,6.1,0,0,0,2.73,2.06,3.894,3.894,0,0,0,1.88.25,2.285,2.285,0,0,0,.37-0.12,5.038,5.038,0,0,1-1.53,2.96,0.24,0.24,0,0,0-.04.34,0.248,0.248,0,0,0,.33.05,4.943,4.943,0,0,0,2.14-3.53,11.046,11.046,0,0,0,.17-1.52l0.08,0.01,0.14,0.07a0.873,0.873,0,0,1,.39.37,2.282,2.282,0,0,1,.21.51,3.48,3.48,0,0,1,.09.79,3.989,3.989,0,0,1-.3,1.44,1.476,1.476,0,0,1-.4.59c-0.1.08-.22,0.15-0.33,0.23a0.709,0.709,0,0,1-.37.22c-0.17,0-.14.27,0.03,0.26s0.34,0.09.52,0.08a1.226,1.226,0,0,0,.5-0.16,2.012,2.012,0,0,0,.81-0.8,4.849,4.849,0,0,0,.65-2.03A2.954,2.954,0,0,0,1153.59,5895.73Zm26.16-2.56c-0.46-.99-1.65-0.92-2.55-0.72-1.3.29-2.58,0.67-3.87,1.01a28.589,28.589,0,0,0-7.35,2.54c-1.1.64-2.16,1.32-3.29,1.88a33.885,33.885,0,0,1-6.99,2.48,25.653,25.653,0,0,0-3.36.8,4.087,4.087,0,0,0-1.57,1.06,6.545,6.545,0,0,0-.96,1.76c-0.3.73-.61,1.46-0.86,2.21s-0.48,1.52-.78,2.27a0.14,0.14,0,0,0,.08.18,0.143,0.143,0,0,0,.17-0.07c0.3-.62.65-1.21,0.99-1.81s0.65-1.19.94-1.81a5.864,5.864,0,0,1,1.84-2.69,9.339,9.339,0,0,1,3.01-.85,28.255,28.255,0,0,0,3.47-.94,33.088,33.088,0,0,0,6.53-3.1,19.194,19.194,0,0,1,3.24-1.69c1.18-.43,2.4-0.72,3.61-1.05l4.25-1.12c0.92-.25,2.18-0.74,3,0a0.281,0.281,0,0,0,.41-0.06A0.284,0.284,0,0,0,1179.75,5893.17Zm-23.68,11.33a4.488,4.488,0,0,0-1.96,1.37,2.727,2.727,0,0,0-.78,2.01,0.174,0.174,0,0,0,.2.16,0.207,0.207,0,0,0,.14-0.1,4.418,4.418,0,0,1,1.06-1.65c0.52-.51,1.16-0.83,1.65-1.37A0.274,0.274,0,0,0,1156.07,5904.5Zm19.59-8.96a2.991,2.991,0,0,0-1.69.3,8.157,8.157,0,0,0-1.55.88c-1.01.7-1.98,1.45-3.02,2.11a45.377,45.377,0,0,1-6.78,3.43c-1.34.56-2.69,1.09-4.01,1.67-0.1.04-.07,0.21,0.04,0.18,1.24-.29,2.47-0.66,3.69-1.04a35.379,35.379,0,0,0,3.57-1.29,25.207,25.207,0,0,0,3.37-1.78c1.07-.67,1.97-1.54,2.97-2.31a9.58,9.58,0,0,1,1.61-1.07,5.983,5.983,0,0,1,.91-0.37c0.31-.09.64-0.1,0.95-0.2C1175.99,5895.97,1175.89,5895.59,1175.66,5895.54Zm-15.11,22.48a2.1,2.1,0,0,0-.99-0.57,3.111,3.111,0,0,1-.86-0.56,5.556,5.556,0,0,1-1.26-1.77,11.1,11.1,0,0,1-1.05-5.23,12.517,12.517,0,0,1,.17-1.5c0.04-.25.09-0.5,0.14-0.75a3.493,3.493,0,0,1,.2-0.77,0.155,0.155,0,0,0-.26-0.16,2.6,2.6,0,0,0-.41.53,4.331,4.331,0,0,0-.27.71,9.219,9.219,0,0,0-.34,1.47,11.61,11.61,0,0,0-.08,2.7l-0.06.06c-0.16.17-.31,0.34-0.47,0.5a8.411,8.411,0,0,1-1.01.77,4.5,4.5,0,0,1-2.43.81,2.285,2.285,0,0,1-1.91-.97,3.79,3.79,0,0,1-.37-2.34c0.04-.53.12-1.07,0.2-1.6a11.512,11.512,0,0,1,.34-1.75c0.05-.16-0.17-0.26-0.22-0.1-0.18.54-.42,1.07-0.59,1.62a12.706,12.706,0,0,0-.38,1.62,4.564,4.564,0,0,0,.25,2.87,3.072,3.072,0,0,0,2.27,1.6,4.314,4.314,0,0,0,2.97-.75,6.283,6.283,0,0,0,1.32-1.09l0.22-.26a8.568,8.568,0,0,0,2.15,4.51,5.2,5.2,0,0,0,.63.53l-0.4.36a4.722,4.722,0,0,0-.87.97,0.232,0.232,0,0,0,.32.33c0.31-.25.63-0.51,0.97-0.74,0.26-.18.58-0.29,0.86-0.45a1.088,1.088,0,0,0,1.15-.09A0.387,0.387,0,0,0,1160.55,5918.02Zm11.29-2.49a0.929,0.929,0,0,0-.23-0.41,2,2,0,0,0-.53-0.43,5.34,5.34,0,0,0-1.09-.42,5.794,5.794,0,0,0-2.27-.15,7.392,7.392,0,0,0-4.16,2.04,17.831,17.831,0,0,1-2.02,1.87c-0.1.07-.01,0.25,0.1,0.19,0.65-.37,1.2-0.88,1.82-1.29a12,12,0,0,1,1.91-1.01,6.653,6.653,0,0,1,3.98-.49,4.973,4.973,0,0,1,.99.32c0.17,0.07.35,0.15,0.53,0.21a2.036,2.036,0,0,0,.35.11l0.13,0.02a0.3,0.3,0,0,0,.13-0.02c0.08-.02.08-0.02,0.02,0.01C1171.82,5916.16,1171.96,5915.77,1171.84,5915.53Zm9.97-1.08a5.775,5.775,0,0,0-2.44-.25,14.529,14.529,0,0,0-2.38.22,12.922,12.922,0,0,0-4.6,1.74,21.687,21.687,0,0,0-2.18,1.63,0.129,0.129,0,0,0-.03.18,0.136,0.136,0,0,0,.18.02h0a18.542,18.542,0,0,1,4.29-1.79,19.257,19.257,0,0,1,4.43-.9c0.43-.04.87-0.06,1.3-0.06a5.839,5.839,0,0,0,1.32-.05,0.392,0.392,0,0,0,.33-0.44A0.385,0.385,0,0,0,1181.81,5914.45Zm-3.98-14.77c-0.19-.01-0.37-0.04-0.56-0.05-0.21,0-.42.03-0.63,0.04a1.367,1.367,0,0,1-.81-0.23,1.907,1.907,0,0,1-.46-1.88c0.04-.16-0.19-0.18-0.23-0.04a5.125,5.125,0,0,0-.32,1.38,1.739,1.739,0,0,0,.44,1.19,1.8,1.8,0,0,0,1.19.52,2.192,2.192,0,0,0,.81-0.06,2.581,2.581,0,0,0,.69-0.38,0.283,0.283,0,0,0,.05-0.39A0.27,0.27,0,0,0,1177.83,5899.68Zm3.6,13.64a6.518,6.518,0,0,0-.36-0.96c-0.13-.33-0.25-0.66-0.37-1a12.271,12.271,0,0,1-.51-2.07c-0.32-1.78-.68-3.54-1.09-5.3-0.24-1-.47-2-0.74-2.99-0.04-.16-0.27-0.09-0.26.07,0.12,1.85.27,3.72,0.5,5.57a26.869,26.869,0,0,0,.89,4.96,4.093,4.093,0,0,0,.6,1.2,2.293,2.293,0,0,0,.97.8A0.271,0.271,0,0,0,1181.43,5913.32Zm-1.8-.2c-0.16-.29-0.33-0.58-0.52-0.86a9.314,9.314,0,0,1-.4-0.99,19.854,19.854,0,0,1-.65-2.21,23.818,23.818,0,0,1-.53-4.69c-0.01-.43-0.02-0.86,0-1.29,0.01-.45-0.02-0.89-0.03-1.33a0.209,0.209,0,0,0-.11-0.15,5.562,5.562,0,0,0-1.08-.2,2.682,2.682,0,0,1-2.1-2.3c-0.01-.14-0.25-0.15-0.25,0a3.158,3.158,0,0,0,.15,1.29,2.884,2.884,0,0,0,.77,1.17,2.819,2.819,0,0,0,1.28.61,1.788,1.788,0,0,0,.86-0.01,5.8,5.8,0,0,0-.17.72c-0.06.4-.08,0.81-0.11,1.21a15.932,15.932,0,0,0,.05,2.49,20.6,20.6,0,0,0,1.01,4.86,9.032,9.032,0,0,0,.46,1.16,1.825,1.825,0,0,0,.88,1.01,0.38,0.38,0,0,0,.49-0.21A0.447,0.447,0,0,0,1179.63,5913.12Zm1.27-15.57a0.446,0.446,0,0,0-.08-0.26l0.01-.14,0.02-.33c0.01-.21,0-0.42-0.01-0.63a3.281,3.281,0,0,0-.35-1.24,0.168,0.168,0,0,0-.31.13,3.527,3.527,0,0,1,.3,1.1,2.24,2.24,0,0,1-.02.58l-0.04.19c-0.14-.07-0.28-0.13-0.43-0.19-0.37-.14-0.75-0.24-1.13-0.35a9.81,9.81,0,0,0-1.07-.26,5.168,5.168,0,0,0-.55-0.07,4.164,4.164,0,0,1-.61-0.01,0.14,0.14,0,0,0-.14.12,0.124,0.124,0,0,0,.11.14,2.914,2.914,0,0,1,.55.23l0.51,0.19q0.51,0.195.99,0.42a8,8,0,0,1,.9.51c0.16,0.1.33,0.18,0.5,0.27a0.6,0.6,0,0,0,.68-0.01,0.365,0.365,0,0,0,.16-0.4Zm-2.08-6.32a5.768,5.768,0,0,1-.21-0.79,4.192,4.192,0,0,1-.13-1.69c0.03-.16-0.22-0.2-0.26-0.04-0.06.31-.15,0.6-0.21,0.9a4.073,4.073,0,0,0,.09,1.77,1.018,1.018,0,0,0,.45.81,0.313,0.313,0,0,0,.4-0.17A1.062,1.062,0,0,0,1178.82,5891.23Zm-0.68-3.25a2.39,2.39,0,0,0-1.13.36,2.806,2.806,0,0,0-.85.93,4.27,4.27,0,0,0-.49,1.39c-0.08.42-.28,1.25,0.15,1.52a0.36,0.36,0,0,0,.43.01,1.686,1.686,0,0,0,.32-1.26,4.1,4.1,0,0,1,.31-1.14,3.43,3.43,0,0,1,.51-0.84,2.647,2.647,0,0,1,.81-0.72,0.128,0.128,0,0,0,.07-0.17A0.111,0.111,0,0,0,1178.14,5887.98Zm-2.33.58a2.369,2.369,0,0,0-1.08.49,2.79,2.79,0,0,0-.75,1.02,4.156,4.156,0,0,0-.34,1.43c-0.03.43-.14,1.28,0.32,1.5a0.363,0.363,0,0,0,.42-0.04,1.715,1.715,0,0,0,.18-1.29,4.211,4.211,0,0,1,.19-1.17,3.627,3.627,0,0,1,.42-0.89,2.694,2.694,0,0,1,.73-0.81,0.137,0.137,0,0,0,.05-0.18A0.154,0.154,0,0,0,1175.81,5888.56Zm11.6,24.46a32.255,32.255,0,0,0-1.35-3.59c-1.05-2.37-2.24-4.68-3.46-6.96-0.33-.63-0.66-1.27-0.97-1.91a14.638,14.638,0,0,1-.88-2.03c-0.05-.16-0.29-0.06-0.24.1,0.18,0.63.3,1.28,0.47,1.92,0.13,0.45.27,0.9,0.42,1.34a3.635,3.635,0,0,0-.84.29,3.755,3.755,0,0,0-.5.31,2.438,2.438,0,0,0-.39.46c-0.09.1,0.03,0.28,0.15,0.21,0.16-.08.34-0.12,0.5-0.19s0.31-.15.47-0.21a4.042,4.042,0,0,1,.83-0.21c0.4,1.14.88,2.24,1.38,3.34,1.06,2.3,2.16,4.57,3.04,6.95a30.287,30.287,0,0,1,1.22,4.31,0.358,0.358,0,0,0,.71.01A9.242,9.242,0,0,0,1187.41,5913.02Zm-34.33,9.13c-0.24-.19-0.47-0.38-0.72-0.56q-0.375-.24-0.72-0.51a4.22,4.22,0,0,1-.58-0.54,6.63,6.63,0,0,1-.59-0.72,18.8,18.8,0,0,1-1.05-1.72l-0.52-.93-0.28-.49a4.111,4.111,0,0,1-.27-0.51c-0.05-.15-0.27-0.05-0.22.1a4.868,4.868,0,0,1,.1.65l0.08,0.55a9.81,9.81,0,0,0,.26,1.07,3.377,3.377,0,0,1-1.27-.67,2.955,2.955,0,0,1-.95-1.49,3.538,3.538,0,0,1,.14-1.07c0.08-.37.16-0.73,0.25-1.09,0.18-.72.4-1.43,0.63-2.13,0.13-.39.25-0.78,0.38-1.17a6,6,0,0,0,.34-1.22,0.124,0.124,0,0,0-.2-0.11,6.418,6.418,0,0,0-1.19,2.06,19.369,19.369,0,0,0-.79,2.37c-0.11.4-.2,0.81-0.29,1.23a3.509,3.509,0,0,0-.13,1.25,2.8,2.8,0,0,0,1.32,1.77,4.224,4.224,0,0,0,1.92.76,6.853,6.853,0,0,0,.85,1.66,6.384,6.384,0,0,0,1.38,1.46,2.616,2.616,0,0,0,1.97.6,0.345,0.345,0,0,0,.27-0.39A0.445,0.445,0,0,0,1153.08,5922.15Zm34.03-4.13a17.52,17.52,0,0,1-2.55,1.55c-1.09.54-2.2,1.03-3.28,1.59a50.3,50.3,0,0,1-6.4,2.99,28.311,28.311,0,0,1-10.36,1.49l0.05-.26a7.593,7.593,0,0,0,.08-1.07,8.9,8.9,0,0,0-.26-1.99c-0.14-.68-0.31-1.36-0.47-2.04l-0.25-1.05c-0.04-.17-0.09-0.35-0.14-0.52-0.05-.21-0.14-0.4-0.18-0.61a0.131,0.131,0,0,0-.26.03c0.06,0.34.05,0.71,0.08,1.06s0.09,0.71.13,1.06c0.08,0.68.16,1.35,0.21,2.03a13.672,13.672,0,0,1,.02,1.92c-0.02.31-.05,0.61-0.1,0.92-0.03.15-.06,0.3-0.09,0.44-0.39-.03-0.78-0.07-1.16-0.12-1.22-.15-2.43-0.33-3.63-0.59-1.18-.26-2.35-0.59-3.54-0.81a0.138,0.138,0,0,0-.16.12,0.19,0.19,0,0,0,.05.13,16.39,16.39,0,0,0,6.26,2.3,25.877,25.877,0,0,0,6.75.32,28.5,28.5,0,0,0,6.64-1.3,43.6,43.6,0,0,0,6.51-2.92c1.27-.66,2.5-1.35,3.75-2.04a5.053,5.053,0,0,0,2.65-2.34,0.239,0.239,0,0,0-.13-0.31A0.217,0.217,0,0,0,1187.11,5918.02Zm-13.48-20.21c-0.86.62-1.77,1.19-2.62,1.84-0.83.62-1.63,1.25-2.5,1.82a30.472,30.472,0,0,1-5.17,2.67c-0.51.2-1.02,0.39-1.54,0.58a15.558,15.558,0,0,1-1.62.57c-0.17.04-.14,0.3,0.03,0.27,0.49-.11.99-0.14,1.48-0.25s0.98-.23,1.46-0.38a22.5,22.5,0,0,0,2.83-1.07,25.67,25.67,0,0,0,5.21-3.28,26.691,26.691,0,0,0,2.59-2.62A0.107,0.107,0,0,0,1173.63,5897.81Zm-31.04,3.78c-0.18-.07-0.36-0.14-0.54-0.2a2.018,2.018,0,0,1-.3-0.14,11.659,11.659,0,0,0,.32-1.56,5.071,5.071,0,0,0-.04-0.87,6.484,6.484,0,0,0-.21-0.87c-0.03-.13-0.23-0.07-0.22.05,0.03,0.24.03,0.48,0.05,0.72a4.821,4.821,0,0,1,0,.76,7.473,7.473,0,0,1-.42,1.29,1.86,1.86,0,0,0-.14.7,0.667,0.667,0,0,0,.35.42,1.068,1.068,0,0,0,1.15.11,0.228,0.228,0,0,0,.11-0.3A0.2,0.2,0,0,0,1142.59,5901.59Zm4.9,1.7a2.557,2.557,0,0,0,.6-0.67,0.316,0.316,0,0,0-.36-0.49c-0.22.11-.45,0.18-0.67,0.31a6.652,6.652,0,0,1-.58.33,5.772,5.772,0,0,1-1.33.5,4.049,4.049,0,0,1-1.34.13,1.819,1.819,0,0,0-.33,0h-0.03c-0.04-.04-0.07-0.1-0.11-0.15-0.08-.19-0.14-0.38-0.24-0.57-0.06-.11-0.24,0-0.2.12a2.783,2.783,0,0,0,.49,1.34,1.464,1.464,0,0,0,.87.16,4.574,4.574,0,0,0,.83-0.07l0.35-.06a2.561,2.561,0,0,1,.65.53,3.046,3.046,0,0,1,.62.88,6.1,6.1,0,0,1,.34,1.27c0.09,0.49.09,0.99,0.16,1.48a0.188,0.188,0,0,0,.22.17,0.192,0.192,0,0,0,.15-0.11,4.131,4.131,0,0,0-.02-3.39,2.43,2.43,0,0,0-1.06-1.09l-0.08-.04,0.31-.14A4.834,4.834,0,0,0,1147.49,5903.29Zm2.2-3.89a1.339,1.339,0,0,1-.75-0.64,2.331,2.331,0,0,0-.77-0.76c-0.32-.17-0.67-0.24-0.99-0.4l-0.17-.1c0.05,0.03.04,0.03-.03-0.02l-0.17-.1-0.1-.07-0.19-.13c-0.49-.36-0.95-0.75-1.46-1.07a3.447,3.447,0,0,0-1.74-.53,0.16,0.16,0,0,0-.08.3,4.4,4.4,0,0,1,1.31,1.16,8.2,8.2,0,0,0,1.42,1.34,3.254,3.254,0,0,0,1,.46,3.387,3.387,0,0,1,.94.22c0.31,0.17.51,0.49,0.81,0.68a1.013,1.013,0,0,0,1.01.06C1149.9,5899.72,1149.91,5899.41,1149.69,5899.4Zm-6.92-.45a4.761,4.761,0,0,1-1.51.44c-0.28-.02-0.38.3-0.11,0.32a3.487,3.487,0,0,0,1.02,0,1.956,1.956,0,0,0,.93-0.44C1143.32,5899.08,1143.08,5898.84,1142.77,5898.95Z" transform="translate(-1140.97 -5887.97)"/>
</svg>
