<?xml version="1.0" encoding="UTF-8"?>
<svg fill="#5b6779" width="300" height="300" version="1.1" viewBox="0 0 100 100" xmlns="http://www.w3.org/2000/svg">
 <g>
  <path d="m93.5 98.602h-87c-2.6016 0-4.8008-2-4.8008-4.6016v-44c0-2.5 2.1016-4.6016 4.8008-4.6016s4.8008 2 4.8008 4.6016v39.5h77.5v-39.5c0-2.5 2.1016-4.6016 4.8008-4.6016 2.6992 0 4.8008 2 4.8008 4.6016v44c-0.20312 2.5-2.3008 4.6016-4.9023 4.6016z"/>
  <path d="m72 21.301l-18.5-18.5c-1.8008-1.8008-4.8008-1.8008-6.6992 0l-18.699 18.5c-0.89844 0.89844-1.3984 2.1016-1.3984 3.3984 0 1.3008 0.5 2.3984 1.3984 3.3008 0.89844 0.89844 2.1016 1.3984 3.3008 1.3984 1.3008 0 2.5-0.5 3.3984-1.3984l10.199-10.102v47.5c0 2.8008 2.1992 5 5 5s5-2.1992 5-5v-47.699l10.301 10.301c1.8008 1.8008 4.8008 1.8008 6.6992 0 0.89844-0.89844 1.3984-2.1016 1.3984-3.3008 0-1.3008-0.5-2.5-1.3984-3.3984z"/>
 </g>
</svg>
