<?xml version="1.0" encoding="UTF-8"?>
<svg width="300" height="300" version="1.1" viewBox="0 0 100 100" xmlns="http://www.w3.org/2000/svg" fill="#fff">
 <g>
  <path d="m50.199 5.1992c-24.801 0-45 20.199-45 45 0 12.699 5.3984 24.699 14.602 33.102l-7 7 23 3.8984-3.8984-23-7.9023 7.9023c-8-7.3008-12.801-17.801-12.801-28.898 0-21.5 17.5-39 39-39s39 17.5 39 39-17.5 39-39 39v6c24.801 0 45-20.199 45-45 0-24.805-20.199-45.004-45-45.004z"/>
  <path d="m40.602 34.102v33.898l29.098-16.898z"/>
 </g>
</svg>