<svg xmlns="http://www.w3.org/2000/svg" width="63" height="55" viewBox="0 0 63 55">
  <metadata><?xpacket begin="﻿" id="W5M0MpCehiHzreSzNTczkc9d"?>
<x:xmpmeta xmlns:x="adobe:ns:meta/" x:xmptk="Adobe XMP Core 5.6-c140 79.160451, 2017/05/06-01:08:21        ">
   <rdf:RDF xmlns:rdf="http://www.w3.org/1999/02/22-rdf-syntax-ns#">
      <rdf:Description rdf:about=""/>
   </rdf:RDF>
</x:xmpmeta>
                                                                                                    
                                                                                                    
                                                                                                    
                                                                                                    
                                                                                                    
                                                                                                    
                                                                                                    
                                                                                                    
                                                                                                    
                                                                                                    
                                                                                                    
                                                                                                    
                                                                                                    
                                                                                                    
                                                                                                    
                                                                                                    
                                                                                                    
                                                                                                    
                                                                                                    
                                                                                                    
                           
<?xpacket end="w"?></metadata>
<defs>
    <style>
      .cls-1 {
        fill: #fdbc1b;
        fill-rule: evenodd;
      }
    </style>
  </defs>
  <path id="icnPrize.pnh" class="cls-1" d="M1832.88,1658.71a0.415,0.415,0,0,0,.07-0.13,0.887,0.887,0,0,0,.03-0.14c0-.05.01-0.1,0.01-0.15a2.149,2.149,0,0,0-.07-0.28,0.567,0.567,0,0,0-.08-0.13c-0.03-.03-0.04-0.07-0.07-0.1l-5.58-5.57c-0.01-.01-0.02-0.01-0.03-0.02a0.038,0.038,0,0,1-.02-0.02c-0.03-.02-0.06-0.03-0.09-0.05a0.865,0.865,0,0,0-.1-0.07,0.227,0.227,0,0,1-.04-0.01,0.675,0.675,0,0,0-.14-0.02,0.037,0.037,0,0,0-.03-0.01,0.637,0.637,0,0,1-.07-0.02h-50.34a0.637,0.637,0,0,0-.07.02h-0.04a0.7,0.7,0,0,0-.14.03c-0.01,0-.03.01-0.04,0.01a0.865,0.865,0,0,0-.1.07,0.726,0.726,0,0,0-.09.05,0.038,0.038,0,0,1-.02.02c-0.01.01-.02,0.01-0.03,0.02l-5.58,5.57a0.607,0.607,0,0,0-.07.1,0.459,0.459,0,0,0-.12.27,0.577,0.577,0,0,0-.03.14c0,0.05.01,0.09,0.01,0.14a0.8,0.8,0,0,0,.03.15,0.415,0.415,0,0,0,.07.13c0.02,0.04.03,0.07,0.05,0.11l17.35,21.46a0.757,0.757,0,0,0,.22.18,17.259,17.259,0,0,0-2.72,9.33,16.868,16.868,0,1,0,33.73,0,17.348,17.348,0,0,0-3.02-9.8l17.11-21.18A0.929,0.929,0,0,0,1832.88,1658.71Zm-24.28,15.32a16.482,16.482,0,0,0-13.82.18l-10.65-13.07h34.79l-10.18,12.6A0.864,0.864,0,0,0,1808.6,1674.03Zm11.56-14.42h-37.28l-4.95-6.09h47.14Zm-48.4-1.23,4.51-4.49,17.15,21.05a17.154,17.154,0,0,0-4.82,4.28Zm30.11,47.08a15.668,15.668,0,1,1,15.37-15.67A15.535,15.535,0,0,1,1801.87,1705.46Zm8.05-30.77,16.8-20.8,4.51,4.49-16.45,20.36A16.928,16.928,0,0,0,1809.92,1674.69Zm-0.36,11.74-4.84-.72-2.17-4.47a0.772,0.772,0,0,0-1.35,0l-2.16,4.47-4.85.72a0.757,0.757,0,0,0-.61.52,0.817,0.817,0,0,0,.19.79l3.51,3.48-0.83,4.92a0.792,0.792,0,0,0,.3.75,0.752,0.752,0,0,0,.79.06l4.34-2.33,4.33,2.33a0.719,0.719,0,0,0,.35.08,0.7,0.7,0,0,0,.44-0.14,0.771,0.771,0,0,0,.3-0.75l-0.83-4.92,3.51-3.48a0.794,0.794,0,0,0,.19-0.79A0.744,0.744,0,0,0,1809.56,1686.43Zm-4.42,3.97a0.747,0.747,0,0,0-.21.68l0.63,3.79-3.33-1.79a0.726,0.726,0,0,0-.7,0l-3.34,1.79,0.64-3.79a0.781,0.781,0,0,0-.22-0.68l-2.7-2.68,3.73-.55a0.752,0.752,0,0,0,.57-0.42l1.67-3.45,1.66,3.45a0.769,0.769,0,0,0,.57.42l3.73,0.55Z" transform="translate(-1770 -1652)"/>
</svg>
