<svg xmlns="http://www.w3.org/2000/svg" width="22.906" height="54.25" viewBox="0 0 22.906 54.25">
  <metadata><?xpacket begin="﻿" id="W5M0MpCehiHzreSzNTczkc9d"?>
<x:xmpmeta xmlns:x="adobe:ns:meta/" x:xmptk="Adobe XMP Core 5.6-c140 79.160451, 2017/05/06-01:08:21        ">
   <rdf:RDF xmlns:rdf="http://www.w3.org/1999/02/22-rdf-syntax-ns#">
      <rdf:Description rdf:about=""/>
   </rdf:RDF>
</x:xmpmeta>
                                                                                                    
                                                                                                    
                                                                                                    
                                                                                                    
                                                                                                    
                                                                                                    
                                                                                                    
                                                                                                    
                                                                                                    
                                                                                                    
                                                                                                    
                                                                                                    
                                                                                                    
                                                                                                    
                                                                                                    
                                                                                                    
                                                                                                    
                                                                                                    
                                                                                                    
                                                                                                    
                           
<?xpacket end="w"?></metadata>
<defs>
    <style>
      .cls-1 {
        fill: #7b7b7b;
        fill-rule: evenodd;
      }
    </style>
  </defs>
  <path class="cls-1" d="M822.39,736.609c-0.231.1-.475,0.166-0.7,0.278a3.463,3.463,0,0,1-.629.236c-0.231.06-.472,0.086-0.706,0.135a1.847,1.847,0,0,1-.739.107,0.116,0.116,0,1,0-.041.226c0.208,0.05.391,0.142,0.589,0.205,0.072,0.915.149,1.829,0.237,2.743,0.07,0.728.124,1.458,0.215,2.185a7.638,7.638,0,0,0,.433,2.18,0.308,0.308,0,0,0,.553-0.07,5.031,5.031,0,0,0,.057-1.249c-0.007-.419-0.035-0.84-0.072-1.258q-0.192-2.205-.432-4.407l-0.012-.116,0.181-.041a3.54,3.54,0,0,0,.8-0.3,1.5,1.5,0,0,0,.577-0.59,0.2,0.2,0,0,0-.133-0.267A0.286,0.286,0,0,0,822.39,736.609ZM818.584,758.8a5.859,5.859,0,0,0,1.549-1.8,11.579,11.579,0,0,0,.953-2.2,19.444,19.444,0,0,0,.6-5.447,33.479,33.479,0,0,0-.069-3.455c-0.023-.233.327-0.219,0.352,0.008,0.118,1.068.364,2.129,0.478,3.2a15.421,15.421,0,0,1,.011,3.135,10.108,10.108,0,0,1-1.706,4.9,10.378,10.378,0,0,1-.9,1.039,6.6,6.6,0,0,1-1.061.891A0.17,0.17,0,0,1,818.584,758.8Zm4.581-3.241a17.74,17.74,0,0,1,.755-2.736c0.3-.891.63-1.775,0.906-2.676a15.339,15.339,0,0,0,.657-2.792,7.624,7.624,0,0,0-.251-3.259c-0.081-.24.269-0.313,0.36-0.089a7.894,7.894,0,0,1,.6,2.86,13.431,13.431,0,0,1-.313,2.933c-0.4,1.889-1.174,3.663-1.666,5.524a13.306,13.306,0,0,0-.337,1.511c-0.077.533-.152,1.057-0.266,1.582a0.241,0.241,0,0,1-.464-0.014A6.224,6.224,0,0,1,823.165,755.56Zm-8.086,5c0.352-.023.707,0,1.062-0.024a8.891,8.891,0,0,0,1.117-.148c0.708-.135,1.38-0.356,2.076-0.523a5.119,5.119,0,0,1,2.166-.026c0.542,0.1,1.243.354,1.6-.128,0.152-.2.545-0.01,0.442,0.2a1.945,1.945,0,0,1-1.429.822,4.475,4.475,0,0,1-1.156-.054,3.663,3.663,0,0,0-1.159.026c-0.381.069-.749,0.178-1.125,0.262a7,7,0,0,1-1.228.141q-0.594.017-1.186-.021a5.882,5.882,0,0,1-1.236-.164,0.181,0.181,0,0,1-.131-0.242A0.22,0.22,0,0,1,815.079,760.559ZM818.2,733.2a1.11,1.11,0,0,0-.381.387,1.4,1.4,0,0,0-.17.471,0.123,0.123,0,0,0,.12.132,0.153,0.153,0,0,0,.1-0.022,1.766,1.766,0,0,0,.421-0.343,0.989,0.989,0,0,0,.233-0.463,0.183,0.183,0,0,0-.179-0.193A0.243,0.243,0,0,0,818.2,733.2Zm8.028-1.089a4.177,4.177,0,0,0-2.937-1.595,4.993,4.993,0,0,0-2.079.18,9.407,9.407,0,0,0-1.751.9c-0.084.048,0,.178,0.09,0.135a3.79,3.79,0,0,1,.761-0.258,6.942,6.942,0,0,1,.888-0.106,10.108,10.108,0,0,1,1.613-.078,3.381,3.381,0,0,1,2.563,1.227,4.694,4.694,0,0,1,.819,2.487,12.85,12.85,0,0,1-.237,3.237c-0.114.656-.261,1.3-0.429,1.951-0.087.333-.118,0.675-0.2,1.01s-0.158.668-.245,1c-0.04.151,0.237,0.215,0.3,0.074a16.077,16.077,0,0,0,.786-1.814,14.069,14.069,0,0,0,.446-1.875,20.611,20.611,0,0,0,.4-3.574A4.787,4.787,0,0,0,826.223,732.108Zm-2.364-2.392a3.566,3.566,0,0,0-1.429-1.35,4.273,4.273,0,0,0-2.173-.381,5.408,5.408,0,0,0-1.788.439,10.605,10.605,0,0,0,.663-1.609,8.8,8.8,0,0,0,.384-1.725,7.106,7.106,0,0,0,.043-0.863c0-.3-0.065-0.6-0.072-0.9,0-.133-0.244-0.108-0.244.023a5.576,5.576,0,0,1-.132.906c-0.043.267-.094,0.535-0.149,0.8a12.172,12.172,0,0,1-.452,1.646,11.628,11.628,0,0,1-.71,1.578c-0.133.246-.271,0.489-0.422,0.728l-0.061.1a4.537,4.537,0,0,0-.943.993,6.3,6.3,0,0,0-.876,2.125c-0.031.125,0.186,0.145,0.226,0.029a5.438,5.438,0,0,1,1.5-2.218l0.1-.052,0.282-.264a5.579,5.579,0,0,1,.513-0.35,4.9,4.9,0,0,1,1.823-.663,4.675,4.675,0,0,1,1.87.132,3.306,3.306,0,0,1,1.782,1C823.69,729.96,823.94,729.845,823.859,729.716Zm-4.742-8.991a10.993,10.993,0,0,0-1.931-.857,8.434,8.434,0,0,1-2.974-2.589,20.948,20.948,0,0,1-1.435-2.007c-0.055-.1-0.233-0.038-0.181.061,0.308,0.6.528,1.234,0.839,1.836a9.173,9.173,0,0,0,1.107,1.65,6.918,6.918,0,0,0,3.263,2.225c0.575,0.179,1.721.352,1.542,1.072a0.133,0.133,0,0,0,.13.141,0.158,0.158,0,0,0,.153-0.072A1.207,1.207,0,0,0,819.117,720.725Zm3.577-.381a2.01,2.01,0,0,0-.309-0.576,4.088,4.088,0,0,0-.926-0.885,20.014,20.014,0,0,0-2.308-1.345,24.44,24.44,0,0,1-4.777-3.386c-0.4-.36-0.758-0.741-1.121-1.124a13.013,13.013,0,0,1-1.068-1.232c-0.051-.07-0.2,0-0.151.072a19.84,19.84,0,0,0,1.549,2.229,17.027,17.027,0,0,0,1.988,2.035,18.118,18.118,0,0,0,2.389,1.71c0.765,0.468,1.594.854,2.352,1.328a5.964,5.964,0,0,1,1.058.813,4.592,4.592,0,0,1,.43.488,3.127,3.127,0,0,0,.2.262,1.9,1.9,0,0,1,.235.23c0.1,0.152.464,0.189,0.47-.045A1.677,1.677,0,0,0,822.694,720.344Zm1.51,5.92c-0.03-.536-0.079-1.07-0.155-1.6a15.582,15.582,0,0,0-.287-1.553c-0.134-.542-0.327-1.068-0.477-1.605-0.038-.136-0.294-0.116-0.258.024a15.421,15.421,0,0,1,.26,1.55c0.077,0.532.159,1.063,0.217,1.6s0.1,1.043.134,1.567,0.105,1.063.155,1.6a0.163,0.163,0,0,0,.187.119,0.155,0.155,0,0,0,.14-0.114A9.384,9.384,0,0,0,824.2,726.264Zm-7.258,6.312a3.254,3.254,0,0,1-1.592.2,7.812,7.812,0,0,1-1.555-.262,3.006,3.006,0,0,1-2-1.787c-0.032-.1-0.243-0.058-0.214.045a3.593,3.593,0,0,0,.642,1.307,3.945,3.945,0,0,0,1.261.989,3.323,3.323,0,0,0,1.851.33,5.459,5.459,0,0,0,1.744-.612C817.217,732.712,817.088,732.516,816.946,732.576Zm-10.22-.367c-0.154-.34-0.295-0.684-0.43-1.03a18.009,18.009,0,0,1-.673-2.06,25.677,25.677,0,0,1-.712-4.321c-0.033-.4-0.05-0.792-0.058-1.19a6.52,6.52,0,0,0-.048-1.249,0.156,0.156,0,0,0-.28-0.036,3.6,3.6,0,0,0-.248,1.066c-0.057.37-.089,0.743-0.115,1.116a14.266,14.266,0,0,0,.016,2.236,17.062,17.062,0,0,0,1.04,4.422l0.218,0.553c0,0.285-.017.568-0.035,0.85-0.027.414-.08,0.83-0.137,1.242a3.8,3.8,0,0,0-.1,1.313,0.283,0.283,0,0,0,.47.113,1.454,1.454,0,0,0,.272-0.6,6.363,6.363,0,0,0,.083-0.66,8.767,8.767,0,0,0,.014-1.038,1.1,1.1,0,0,0,.537.463,0.308,0.308,0,0,0,.375-0.126A1.368,1.368,0,0,0,806.726,732.209Zm11.368,5.159a2.423,2.423,0,0,0-1.393-.1c-0.438.059-.872,0.139-1.3,0.24a8.272,8.272,0,0,1-2.714.183,4.63,4.63,0,0,1-1.952-.748,12.984,12.984,0,0,1-1.559-1.18,4.693,4.693,0,0,1-1.334-1.7,0.137,0.137,0,0,0-.168-0.056,0.105,0.105,0,0,0-.077.108,4.868,4.868,0,0,0,.67,1.8l0.033,0.05-0.071.011a2.733,2.733,0,0,1-.745.007,4.939,4.939,0,0,1-.75-0.129,1.465,1.465,0,0,1-.717-0.326,0.152,0.152,0,0,0-.188-0.016,0.1,0.1,0,0,0-.024.151,4.406,4.406,0,0,0,.592.672,2.254,2.254,0,0,0,.919.4,2.722,2.722,0,0,0,1.551-.116,3.873,3.873,0,0,0,1.094.731q0.531,0.206,1.082.363a4.6,4.6,0,0,0,1.078.192c0.4,0.032.791,0.094,1.2,0.093a13.563,13.563,0,0,0,1.426-.092q0.843-.069,1.691-0.067c0.282-.006.561,0.011,0.842,0.015,0.124,0,.252.013,0.376,0.007a2.291,2.291,0,0,0,.43-0.086C818.329,737.719,818.267,737.452,818.094,737.368Zm-10-26.684a1.491,1.491,0,0,0-.446-1.652c-0.059-.04-0.157.016-0.122,0.077a2.1,2.1,0,0,1-.161,1.871,3.173,3.173,0,0,0-.253,1.111,0.906,0.906,0,0,0,.138.551,0.388,0.388,0,0,0,.478.125l0.007,0a0.385,0.385,0,0,0,.121-0.469,1.668,1.668,0,0,1-.009-0.537C807.894,711.4,808.026,711.045,808.09,710.684ZM807.3,713.34c-0.206.335-.454,0.648-0.658,0.983-0.191.312-.371,0.629-0.544,0.949a16.538,16.538,0,0,0-.92,1.984,12.989,12.989,0,0,0-.584,2.117,4.46,4.46,0,0,0-.015,2.166,0.28,0.28,0,0,0,.474.006,7.945,7.945,0,0,0,.534-2.044c0.134-.692.312-1.378,0.487-2.063a20.339,20.339,0,0,1,.616-2.026q0.186-.5.4-1a9.739,9.739,0,0,1,.446-0.984C807.613,713.3,807.377,713.215,807.3,713.34Zm4.083-2.682c-0.112-.162-0.231-0.321-0.358-0.475a3.7,3.7,0,0,0-.85-0.8l-0.03-.016-0.072-.108c-0.068-.093-0.234,0-0.193.092l0.025,0.064a0.162,0.162,0,0,0-.01.2l0.1,0.143a3.8,3.8,0,0,1-.513,2.135q-0.288.631-.546,1.273c-0.187.461-.318,0.942-0.483,1.411-0.313.9-.64,1.794-0.891,2.7s-0.468,1.837-.646,2.765q-0.153.795-.267,1.594a4.526,4.526,0,0,0-.084,1.59,0.23,0.23,0,0,0,.413.052,5.323,5.323,0,0,0,.283-1.415q0.1-.727.232-1.451,0.262-1.446.648-2.876c0.251-.929.5-1.862,0.839-2.773s0.8-1.8,1.145-2.714a4.152,4.152,0,0,0,.326-1.734l0.118,0.152c0.106,0.141.206,0.284,0.3,0.431a1.4,1.4,0,0,0,.327.441,0.3,0.3,0,0,0,.38-0.048,0.206,0.206,0,0,0,.054-0.156A1.08,1.08,0,0,0,811.384,710.658Zm-0.9,19.786c-0.157-.241-0.259-0.5-0.437-0.74s-0.365-.46-0.546-0.691a9.594,9.594,0,0,1-.915-1.419,14.474,14.474,0,0,1-.712-1.541,6.872,6.872,0,0,1-.483-1.6c-0.015-.126-0.268-0.131-0.268,0a10.251,10.251,0,0,0,.049,1.7,6.224,6.224,0,0,0,.545,1.721,8.783,8.783,0,0,0,.979,1.559,5.18,5.18,0,0,0,.624.68,2.866,2.866,0,0,0,.418.307c0.142,0.089.3,0.142,0.452,0.221S810.582,730.6,810.48,730.444Zm-1.466-21.789a1.206,1.206,0,0,0-.665-0.34,3.685,3.685,0,0,1-.7-0.353,3.1,3.1,0,0,1-1.068-1.04,0.144,0.144,0,0,0-.176-0.056,0.108,0.108,0,0,0-.071.139,3.257,3.257,0,0,0,.337.721,2.837,2.837,0,0,0,.586.615,3.412,3.412,0,0,0,.775.449,1.074,1.074,0,0,0,.9.11A0.193,0.193,0,0,0,809.014,708.655Zm-1.88.559a4.557,4.557,0,0,0-.365-0.5,2.7,2.7,0,0,1-.377-1.129c-0.009-.09-0.157-0.083-0.178,0a1.964,1.964,0,0,0-.01,1.083,1,1,0,0,0,.7.891,0.26,0.26,0,0,0,.245-0.292A0.2,0.2,0,0,0,807.134,709.214Zm4.984,5.422a3.646,3.646,0,0,0-.225-0.478,0.989,0.989,0,0,0-.323-0.424l-0.115-.036-0.05-.01a1.038,1.038,0,0,0-.553.187,1.392,1.392,0,0,1-1.082.076,0.173,0.173,0,0,0-.216.024,0.117,0.117,0,0,0,.026.181,1.75,1.75,0,0,0,.983.413,1.623,1.623,0,0,0,.885-0.2,3.828,3.828,0,0,0,.367.41,0.2,0.2,0,0,0,.249.021A0.137,0.137,0,0,0,812.118,714.636Zm2.44,17.2a1.517,1.517,0,0,1-.742-1.215,9.688,9.688,0,0,1,.024-1.786q0.048-.678.068-1.357a3.874,3.874,0,0,0-4.683-5.087,3.959,3.959,0,0,0-.635.229,4.134,4.134,0,0,0-.6.386,0.12,0.12,0,0,0-.021.19,0.179,0.179,0,0,0,.213.026,2.293,2.293,0,0,1,.691-0.239l0.06,0.089a1.416,1.416,0,0,1,.426,1.2c-0.053.608-.281,1.194-0.337,1.8a3.489,3.489,0,0,0,.25,1.645,3.366,3.366,0,0,0,.435.782,1.46,1.46,0,0,0,.756.533,0.323,0.323,0,0,0,.394-0.137,0.22,0.22,0,0,0,.022-0.123,1.534,1.534,0,0,0-.122-0.419l-0.2-.33a3.754,3.754,0,0,1-.361-0.751,3.215,3.215,0,0,1-.083-1.6,3.789,3.789,0,0,0,.069-1.783,1.552,1.552,0,0,0-.792-0.969,3.867,3.867,0,0,1,.549.024,0.851,0.851,0,0,0,.2.174,0.84,0.84,0,0,1,.417.586c0.067,0.356.08,0.722,0.126,1.081,0.054,0.426.1,0.855,0.185,1.277s0.192,0.844.271,1.269c0.02,0.112.241,0.13,0.247,0,0.038-.751.126-1.495,0.124-2.247,0-.377,0-0.755-0.014-1.132a2.691,2.691,0,0,0-.089-0.61,2.961,2.961,0,0,1,.784.555,3.006,3.006,0,0,1,.881,1.9l-0.02.117c-0.048.353-.084,0.707-0.122,1.061l-0.01.1a3.659,3.659,0,0,1-.175.456,5.672,5.672,0,0,1-.611,1.01,7.319,7.319,0,0,0-.8,1.053,0.236,0.236,0,0,0,.162.32,0.339,0.339,0,0,0,.209,0,2.732,2.732,0,0,0,1.082-.743,2.986,2.986,0,0,0,.306,1.835,2.1,2.1,0,0,0,1.4.962,0.1,0.1,0,0,0,.11-0.072A0.073,0.073,0,0,0,814.558,731.831Z" transform="translate(-804.125 -706.875)"/>
</svg>
