<svg xmlns="http://www.w3.org/2000/svg" width="65.969" height="58" viewBox="0 0 65.969 58">
  <metadata><?xpacket begin="﻿" id="W5M0MpCehiHzreSzNTczkc9d"?>
<x:xmpmeta xmlns:x="adobe:ns:meta/" x:xmptk="Adobe XMP Core 5.6-c140 79.160451, 2017/05/06-01:08:21        ">
   <rdf:RDF xmlns:rdf="http://www.w3.org/1999/02/22-rdf-syntax-ns#">
      <rdf:Description rdf:about=""/>
   </rdf:RDF>
</x:xmpmeta>
                                                                                                    
                                                                                                    
                                                                                                    
                                                                                                    
                                                                                                    
                                                                                                    
                                                                                                    
                                                                                                    
                                                                                                    
                                                                                                    
                                                                                                    
                                                                                                    
                                                                                                    
                                                                                                    
                                                                                                    
                                                                                                    
                                                                                                    
                                                                                                    
                                                                                                    
                                                                                                    
                           
<?xpacket end="w"?></metadata>
<defs>
    <style>
      .cls-1 {
        fill: #c488fc;
        fill-rule: evenodd;
      }
    </style>
  </defs>
  <path id="icnCarpet.png" class="cls-1" d="M803.6,1697.63a14.755,14.755,0,0,0,2.628,4.93c2.878,3.5,7.522,5.39,12.014,6.26a11.011,11.011,0,0,0,1.984.19h40.216c0.517,0,.7-0.31.452-0.76l-27.063-48.63a0.446,0.446,0,0,0-.453-0.27H818.965a0.229,0.229,0,0,1-.234-0.14c-0.1-.2-0.182-0.4-0.265-0.61-4.072-10.1-18.5-10.16-22.665-.1a9.543,9.543,0,0,0-.463,6.36Q799.47,1681.24,803.6,1697.63Zm-0.7-8.4q-3.2-12.06-6.4-24.12a10.171,10.171,0,0,1,2.528-9.68,11.247,11.247,0,0,1,18.476,3.55,10.019,10.019,0,0,0,.919,1.76q6.438,9.855,12.874,19.71a0.053,0.053,0,0,1-.079.07c-2.84-2.78-4.831-3.84-6.953-4.46a17.073,17.073,0,0,0-19.827,8.6,16.433,16.433,0,0,0-1.434,4.56A0.05,0.05,0,0,1,802.9,1689.23Zm0.807-9.1-0.494.15a0.225,0.225,0,0,1-.327-0.18q-2.018-7.605-4.036-15.2a0.218,0.218,0,0,1,.178-0.31l0.5-.15a0.225,0.225,0,0,1,.322.18q2.016,7.605,4.034,15.2A0.221,0.221,0,0,1,803.711,1680.13Zm-0.228-12.84c-0.165.05-.328,0.11-0.492,0.16a0.217,0.217,0,0,0-.168.31q1.265,4.755,2.529,9.52a0.223,0.223,0,0,0,.307.19l0.5-.12a0.216,0.216,0,0,0,.193-0.31q-1.272-4.785-2.542-9.57A0.221,0.221,0,0,0,803.483,1667.29Zm30.672,16.3q-7.257-11.415-14.515-22.82c-0.142-.23-0.049-0.4.219-0.4h12.907a0.46,0.46,0,0,1,.454.27q12.961,23.295,25.923,46.58c0.25,0.45.064,0.76-.452,0.76H820.326a9.927,9.927,0,0,1-2.033-.2c-0.247-.04-0.5-0.1-0.743-0.15q-0.974-.225-1.932-0.51c-0.638-.19-1.271-0.41-1.889-0.65s-1.219-.5-1.808-0.8a18.11,18.11,0,0,1-1.688-.96,15.666,15.666,0,0,1-1.533-1.12,13.317,13.317,0,0,1-1.344-1.3,10.489,10.489,0,0,1-.7-0.86q-0.346-.465-0.649-0.96a14.435,14.435,0,0,1-1.027-2.06,15.39,15.39,0,0,1-.732-2.32,17.1,17.1,0,0,1-.386-2.45,17.387,17.387,0,0,1-.03-2.5,16.769,16.769,0,0,1,.327-2.47,15.7,15.7,0,0,1,.686-2.35c0.154-.41.329-0.81,0.522-1.21,0.137-.28.287-0.56,0.443-0.83a14.2,14.2,0,0,1,.935-1.42,14.724,14.724,0,0,1,1.177-1.4,16.113,16.113,0,0,1,1.336-1.25,16.411,16.411,0,0,1,2.8-1.88,15.56,15.56,0,0,1,1.944-.88,15.988,15.988,0,0,1,1.911-.58,16.225,16.225,0,0,1,2.3-.38,15.784,15.784,0,0,1,2.382-.03,16.883,16.883,0,0,1,2.351.32c0.529,0.12,1.051.26,1.566,0.43a16.021,16.021,0,0,1,1.5.59,17.03,17.03,0,0,1,2.593,1.49,16.639,16.639,0,0,1,2.575,2.2,17.656,17.656,0,0,1,1.974,2.46c0.3,0.45.581,0.91,0.837,1.39,0.183,0.34.354,0.69,0.511,1.04s0.3,0.7.424,1.06,0.235,0.71.328,1.08a10.688,10.688,0,0,1,.223,1.07,10.5,10.5,0,0,1,.111,1.07,8.548,8.548,0,0,1-.172,2.24,9.8,9.8,0,0,1-.343,1.22,10.915,10.915,0,0,1-.511,1.2,12.452,12.452,0,0,1-.664,1.15q-0.372.555-.8,1.08a13.366,13.366,0,0,1-.925,1.01c-0.328.32-.672,0.62-1.032,0.91a13.078,13.078,0,0,1-1.4.96,14.564,14.564,0,0,1-1.781.9,15.033,15.033,0,0,1-1.966.65,14.8,14.8,0,0,1-6.2.23,13.7,13.7,0,0,1-2-.51,12.84,12.84,0,0,1-1.685-.7,12.573,12.573,0,0,1-1.268-.73c-0.365-.24-0.72-0.5-1.059-0.77a12.767,12.767,0,0,1-.962-0.88q-0.452-.465-0.846-0.96a10.253,10.253,0,0,1-.71-1.04,9.667,9.667,0,0,1-.56-1.09,8.939,8.939,0,0,1-.379-1.1c-0.065-.24-0.119-0.49-0.161-0.73s-0.073-.5-0.092-0.74a8.948,8.948,0,0,1,0-1.36,9.571,9.571,0,0,1,.177-1.26c0.058-.28.13-0.56,0.213-0.83s0.181-.55.29-0.82,0.218-.51.342-0.75,0.261-.49.406-0.72a9.272,9.272,0,0,1,1.3-1.63c0.163-.17.331-0.32,0.5-0.48s0.354-.29.539-0.43c0.1-.08.207-0.15,0.314-0.22s0.212-.14.321-0.21a9.258,9.258,0,0,1,1.487-.76c0.285-.11.577-0.21,0.873-0.3s0.6-.16.9-0.22,0.614-.1.926-0.13,0.622-.05.934-0.05q0.411,0,.821.03a7.492,7.492,0,0,1,.815.1,9.944,9.944,0,0,1,2.268.64c0.17,0.07.338,0.14,0.5,0.22s0.33,0.16.49,0.25,0.315,0.18.469,0.28,0.3,0.2.449,0.3a9.073,9.073,0,0,1,.818.68,7.474,7.474,0,0,1,.7.76,6.424,6.424,0,0,1,.462.67c0.089,0.15.172,0.31,0.249,0.46a6.027,6.027,0,0,1,.294.72,6.933,6.933,0,0,1,.278,1.11,7.336,7.336,0,0,1,.1,1.15,7.671,7.671,0,0,1-.081,1.17,7.113,7.113,0,0,1-.257,1.12,6.728,6.728,0,0,1-.432,1.06,6.279,6.279,0,0,1-.6.94c-0.109.14-.226,0.28-0.349,0.41-0.081.08-.164,0.17-0.25,0.25q-0.19.165-.39,0.33a6.348,6.348,0,0,1-.559.39,7.63,7.63,0,0,1-.784.43c-0.161.07-.325,0.14-0.493,0.2a7.2,7.2,0,0,1-1.018.29c-0.22.05-.442,0.08-0.664,0.11a6.733,6.733,0,0,1-.9.03,5.609,5.609,0,0,1-1-.12,4.99,4.99,0,0,1-1-.32c-0.114-.05-0.224-0.1-0.332-0.16s-0.216-.12-0.319-0.18c-0.12-.08-0.235-0.15-0.348-0.24s-0.22-.17-0.326-0.26-0.208-.18-0.306-0.28c-0.059-.06-0.115-0.12-0.172-0.18s-0.11-.12-0.161-0.18c-0.078-.1-0.155-0.19-0.226-0.29s-0.14-.2-0.2-0.3a4.708,4.708,0,0,1-.345-0.67,2.557,2.557,0,0,1-.1-0.26c-0.03-.09-0.057-0.18-0.08-0.27-0.026-.11-0.048-0.21-0.066-0.31a3.164,3.164,0,0,1-.036-0.32,3.027,3.027,0,0,1,0-.33c0-.07.01-0.14,0.02-0.21s0.018-.13.03-0.19a3.389,3.389,0,0,1,.091-0.36,3.618,3.618,0,0,1,.128-0.34,3.724,3.724,0,0,1,.369-0.64,2.506,2.506,0,0,1,.237-0.3c0.086-.09.176-0.19,0.269-0.27,0.112-.1.228-0.19,0.351-0.28s0.25-.16.382-0.23,0.286-.14.436-0.2a3.421,3.421,0,0,1,.444-0.13,2.406,2.406,0,0,1,.457-0.08,1.635,1.635,0,0,1,.22-0.02,1.615,1.615,0,0,1,.22,0,2.883,2.883,0,0,1,.414.03c0.128,0.03.253,0.06,0.376,0.1a1.9,1.9,0,0,1,.325.13c0.06,0.04.12,0.07,0.176,0.11a1.548,1.548,0,0,1,.253.22,1.742,1.742,0,0,1,.206.26,2.018,2.018,0,0,1,.163.33,2.337,2.337,0,0,1,.113.42,2.813,2.813,0,0,1,.034.29,0.214,0.214,0,0,0,.257.23h0.519a0.22,0.22,0,0,0,.259-0.27c-0.205-3.33-4.177-3.63-6.34-1.63a4.448,4.448,0,0,0-1.446,3.06,5.936,5.936,0,0,0,3.911,5.25,7.691,7.691,0,0,0,8.034-2.02,8.154,8.154,0,0,0,1.044-8.95,9.72,9.72,0,0,0-7.1-4.63,11.027,11.027,0,0,0-7.216,1.34,10.5,10.5,0,0,0-3.839,3.95,10.356,10.356,0,0,0-1.055,7.24,11.877,11.877,0,0,0,6.39,7.49,15.487,15.487,0,0,0,15.383-1.1,12.639,12.639,0,0,0,5.533-8.61,13.308,13.308,0,0,0-2.231-8.32C834.284,1683.79,834.22,1683.69,834.155,1683.59Z" transform="translate(-795.031 -1651)"/>
</svg>
