<?xml version="1.0" encoding="utf-8"?>
<!-- Generator: Adobe Illustrator 22.1.0, SVG Export Plug-In . SVG Version: 6.00 Build 0)  -->
<svg version="1.1" xmlns="http://www.w3.org/2000/svg" xmlns:xlink="http://www.w3.org/1999/xlink" x="0px" y="0px"
	 viewBox="0 0 256 256" style="enable-background:new 0 0 256 256;" xml:space="preserve">
<style type="text/css">
	.st0{clip-path:url(#SVGID_2_);}
	.st1{fill:#FFFFFF;}
	.st2{fill:#CF142B;}
	.st3{fill:#00247D;}
	.st4{fill:url(#SVGID_3_);}
	.st5{opacity:0.1;}
	.st6{fill:#231F20;}
</style>
<g id="Countryflags.com">
	<g>
		<defs>
			<circle id="SVGID_1_" cx="128" cy="128" r="128"/>
		</defs>
		<clipPath id="SVGID_2_">
			<use xlink:href="#SVGID_1_"  style="overflow:visible;"/>
		</clipPath>
		<g class="st0">
			<rect id="_x31_4" x="-128" y="0" class="st1" width="511.7" height="256"/>
			<polygon id="_x31_3" class="st2" points="102.3,153.5 102.3,256 153.5,256 153.5,153.5 383.7,153.5 383.7,102.3 153.5,102.3 
				153.5,0 102.3,0 102.3,102.3 -128,102.3 -128,153.5 			"/>
			<polygon id="_x31_2" class="st3" points="170.5,82.9 170.5,0 336.2,0 			"/>
			<polygon id="_x31_1" class="st3" points="170.5,173.1 170.5,256 336.2,256 			"/>
			<polygon id="_x31_0" class="st3" points="85.2,173.1 85.2,256 -80.5,256 			"/>
			<polygon id="_x39_" class="st3" points="85.2,82.9 85.2,0 -80.5,0 			"/>
			<polygon id="_x38_" class="st3" points="-128,23.8 -128,85.3 -5,85.3 			"/>
			<polygon id="_x37_" class="st3" points="383.7,23.8 383.7,85.3 260.7,85.3 			"/>
			<polygon id="_x36_" class="st3" points="383.7,232.2 383.7,170.6 260.7,170.6 			"/>
			<polygon id="_x35_" class="st3" points="-128,232.2 -128,170.6 -5,170.6 			"/>
			<polyline id="_x34_" class="st2" points="383.7,0 355.3,0 185,85.3 213.4,85.3 384,0 			"/>
			<polyline id="_x33__1_" class="st2" points="70.7,170.6 42.3,170.6 -128,256 -99.6,256 71,170.6 			"/>
			<polygon id="_x32__1_" class="st2" points="14.1,85.4 42.5,85.4 -128,0 -128,14.3 			"/>
			<polygon id="_x31_" class="st2" points="241.5,170.6 213.1,170.6 383.6,256 383.6,241.7 			"/>
		</g>
	</g>
</g>
<g id="Light">
	<linearGradient id="SVGID_3_" gradientUnits="userSpaceOnUse" x1="48.4505" y1="207.5495" x2="207.5495" y2="48.4505">
		<stop  offset="0" style="stop-color:#FFFFFF;stop-opacity:0.1"/>
		<stop  offset="0.8361" style="stop-color:#FFFFFF;stop-opacity:0.2725"/>
		<stop  offset="0.9694" style="stop-color:#FFFFFF;stop-opacity:0.3"/>
		<stop  offset="1" style="stop-color:#FFFFFF;stop-opacity:0.2"/>
	</linearGradient>
	<circle class="st4" cx="128" cy="128" r="112.5"/>
</g>
<g id="Edge">
	<g id="XMLID_1_" class="st5">
		<g>
			<path class="st6" d="M128,0c70.7,0,128,57.3,128,128s-57.3,128-128,128S0,198.7,0,128S57.3,0,128,0z M240.5,128
				c0-62.1-50.4-112.5-112.5-112.5S15.5,65.9,15.5,128S65.9,240.5,128,240.5S240.5,190.1,240.5,128z"/>
		</g>
		<g>
		</g>
	</g>
</g>
</svg>
