<?xml version="1.0" encoding="utf-8"?>
<!-- Generator: Adobe Illustrator 22.1.0, SVG Export Plug-In . SVG Version: 6.00 Build 0)  -->
<svg version="1.1" xmlns="http://www.w3.org/2000/svg" xmlns:xlink="http://www.w3.org/1999/xlink" x="0px" y="0px"
	 viewBox="0 0 256 256" style="enable-background:new 0 0 256 256;" xml:space="preserve">
<style type="text/css">
	.st0{clip-path:url(#SVGID_2_);}
	.st1{fill:#FFFFFF;}
	.st2{fill:#D52B1E;}
	.st3{fill:#0039A6;}
	.st4{fill:url(#SVGID_3_);}
	.st5{opacity:0.1;}
	.st6{fill:#231F20;}
</style>
<g id="Countryflags.com">
	<g>
		<defs>
			<circle id="SVGID_1_" cx="128" cy="128" r="128"/>
		</defs>
		<clipPath id="SVGID_2_">
			<use xlink:href="#SVGID_1_"  style="overflow:visible;"/>
		</clipPath>
		<g class="st0">
			<rect id="_x33__1_" x="-64" class="st1" width="384" height="128"/>
			<rect id="_x32__1_" x="-64" y="128" class="st2" width="384" height="128"/>
			<rect id="_x31_" x="-64" y="85.3" class="st3" width="384" height="85.3"/>
		</g>
	</g>
</g>
<g id="Light">
	<linearGradient id="SVGID_3_" gradientUnits="userSpaceOnUse" x1="48.4505" y1="207.5495" x2="207.5495" y2="48.4505">
		<stop  offset="0" style="stop-color:#FFFFFF;stop-opacity:0.1"/>
		<stop  offset="0.8361" style="stop-color:#FFFFFF;stop-opacity:0.2725"/>
		<stop  offset="0.9694" style="stop-color:#FFFFFF;stop-opacity:0.3"/>
		<stop  offset="1" style="stop-color:#FFFFFF;stop-opacity:0.2"/>
	</linearGradient>
	<circle class="st4" cx="128" cy="128" r="112.5"/>
</g>
<g id="Edge">
	<g id="XMLID_1_" class="st5">
		<g>
			<path class="st6" d="M128,0c70.7,0,128,57.3,128,128s-57.3,128-128,128S0,198.7,0,128S57.3,0,128,0z M240.5,128
				c0-62.1-50.4-112.5-112.5-112.5S15.5,65.9,15.5,128S65.9,240.5,128,240.5S240.5,190.1,240.5,128z"/>
		</g>
		<g>
		</g>
	</g>
</g>
</svg>
