<svg xmlns="http://www.w3.org/2000/svg" width="8.031" height="52.03" viewBox="0 0 8.031 52.03">
  <metadata><?xpacket begin="﻿" id="W5M0MpCehiHzreSzNTczkc9d"?>
<x:xmpmeta xmlns:x="adobe:ns:meta/" x:xmptk="Adobe XMP Core 5.6-c140 79.160451, 2017/05/06-01:08:21        ">
   <rdf:RDF xmlns:rdf="http://www.w3.org/1999/02/22-rdf-syntax-ns#">
      <rdf:Description rdf:about=""/>
   </rdf:RDF>
</x:xmpmeta>
                                                                                                    
                                                                                                    
                                                                                                    
                                                                                                    
                                                                                                    
                                                                                                    
                                                                                                    
                                                                                                    
                                                                                                    
                                                                                                    
                                                                                                    
                                                                                                    
                                                                                                    
                                                                                                    
                                                                                                    
                                                                                                    
                                                                                                    
                                                                                                    
                                                                                                    
                                                                                                    
                           
<?xpacket end="w"?></metadata>
<defs>
    <style>
      .cls-1 {
        fill: #b3b3b3;
        fill-rule: evenodd;
      }
    </style>
  </defs>
  <path id="_01" data-name="01" class="cls-1" d="M943.93,1723.55a0.779,0.779,0,0,0-.35-1.03c-3.166-1.56-5.4-5.39-5.7-9.76-0.281-4.12.932-8.23,2.2-12.09l0.34-1.03c1.213-3.68,2.47-7.49,2.661-11.45a22.184,22.184,0,0,0-5.773-15.98,0.751,0.751,0,0,0-1.072-.04,0.773,0.773,0,0,0-.039,1.08,20.918,20.918,0,0,1,5.372,14.86c-0.184,3.76-1.4,7.46-2.589,11.04l-0.338,1.03c-1.316,4.02-2.577,8.29-2.273,12.69,0.267,3.9,2.128,8.85,6.551,11.03A0.761,0.761,0,0,0,943.93,1723.55Z" transform="translate(-936 -1671.97)"/>
</svg>
