<svg width="36" height="44" xmlns="http://www.w3.org/2000/svg" xmlns:xlink="http://www.w3.org/1999/xlink"><g fill="none" fill-rule="evenodd"><path fill="#FF1553" d="M0 0v32.8201h.00159L17.9992 44l17.9992-11.1799H36V0z"/><path d="M24.83333 22.18889c-.00273 2.01173-1.6327 3.64171-3.64444 3.64444H14.8111c-2.01173-.00273-3.64171-1.6327-3.64444-3.64444V15.8111c.00182-2.01173 1.6327-3.64262 3.64444-3.64444h6.37778c2.01173.00182 3.64262 1.6327 3.64444 3.64444v6.37778zM18 15c-2.20889 0-4 1.79111-4 4 0 2.20889 1.79111 4 4 4 2.20889 0 4-1.79111 4-4 0-2.20889-1.79111-4-4-4zm4.17778-1.06667c-.49067 0-.8889.39823-.8889.8889 0 .49066.39823.88888.8889.88888.49066 0 .88889-.39822.88889-.88889 0-.49066-.39823-.88889-.8889-.88889z" fill="#FFF"/></g></svg>