<svg viewBox="0 0 40 51" xmlns="http://www.w3.org/2000/svg"><g fill="none" fill-rule="evenodd"><path fill="#2C39F2" d="M0 0v37.571h.002l19.72 12.799L39.444 37.57h.002V0z"/><path d="M12.895 26.483c-.017 1.818 1.714 2.993 3.93 3.012 2.058.018 4.015-.52 5.718-1.919l.036-3.787c-1.107-.263-2.792-.58-4.323-.593-2.691-.023-5.338.813-5.36 3.287m17.936 2.456c.383.004.815-.038 1.248-.172l-.038 4.177c-1.06.358-2.405.622-3.7.61-2.351-.02-4.12-.861-5.063-2.522-2.27 1.679-4.92 2.666-8.326 2.637-4.317-.038-8.037-2.456-7.996-6.818.052-5.6 5.587-7.297 10.193-7.258a26.26 26.26 0 0 1 5.463.644l.008-.78c.021-2.204-1.788-3.734-5.387-3.765-3.166-.027-6.005.775-8.171 1.583l.051-5.509c1.878-.58 5.388-1.423 8.939-1.392 6.908.06 11.296 2.806 11.228 10.059l-.066 7.023c-.011 1.148.754 1.476 1.617 1.483" fill="#FFF"/></g></svg>