<?xml version="1.0" encoding="UTF-8" standalone="no"?>
<svg
   xmlns:dc="http://purl.org/dc/elements/1.1/"
   xmlns:cc="http://creativecommons.org/ns#"
   xmlns:rdf="http://www.w3.org/1999/02/22-rdf-syntax-ns#"
   xmlns:svg="http://www.w3.org/2000/svg"
   xmlns="http://www.w3.org/2000/svg"
   id="svg4966"
   version="1.1"
   viewBox="0 0 39.460014 10.176121"
   height="10.176121mm"
   width="39.460014mm">
  <defs
     id="defs4960" />
  <metadata
     id="metadata4963">
    <rdf:RDF>
      <cc:Work
         rdf:about="">
        <dc:format>image/svg+xml</dc:format>
        <dc:type
           rdf:resource="http://purl.org/dc/dcmitype/StillImage" />
        <dc:title></dc:title>
      </cc:Work>
    </rdf:RDF>
  </metadata>
  <g
     transform="translate(-90.408836,-35.303649)"
     id="layer1">
    <path
       id="path4629"
       d="M 127.46003,35.303649 H 92.819188 c -0.0926,0 -0.184415,0 -0.276754,5.29e-4 -0.07752,5.29e-4 -0.154252,0.0019 -0.232305,0.0032 -0.169862,0.0021 -0.339195,0.01693 -0.506677,0.04498 a 1.6279812,1.6279812 0 0 0 -1.18745,0.871802 1.6869833,1.6869833 0 0 0 -0.157956,0.484188 c -0.02831,0.168275 -0.04339,0.338667 -0.04551,0.509323 -0.0021,0.07805 -0.0026,0.156104 -0.0037,0.234156 v 5.880629 c 0.0013,0.07885 0.0016,0.155575 0.0037,0.234421 0.0021,0.170656 0.0172,0.341048 0.04551,0.509323 0.02778,0.16854 0.08096,0.332052 0.157956,0.484452 0.07673,0.152136 0.177271,0.291042 0.297921,0.410633 0.119327,0.121444 0.257704,0.22278 0.409046,0.300038 a 1.6864542,1.6864542 0 0 0 0.480483,0.160337 c 0.167482,0.02778 0.336815,0.04286 0.506677,0.04498 0.07805,0.0019 0.154782,0.0026 0.232305,0.0026 0.0926,5.3e-4 0.183885,5.3e-4 0.276754,5.3e-4 h 34.640842 l 0.2741,-2.65e-4 c 0.077,0 0.15611,-0.0011 0.23284,-0.0026 0.16959,-0.0024 0.33866,-0.01746 0.50562,-0.04498 a 1.7123833,1.7123833 0 0 0 0.4826,-0.160602 1.5875,1.5875 0 0 0 0.40878,-0.300038 1.6263937,1.6263937 0 0 0 0.29871,-0.410633 1.6877771,1.6877771 0 0 0 0.15637,-0.484187 c 0.0283,-0.16854 0.0439,-0.338667 0.0468,-0.509588 0.001,-0.07885 0.001,-0.155575 0.001,-0.234421 0.002,-0.0926 0.002,-0.184414 0.002,-0.278341 V 37.72964 c 0,-0.09313 0,-0.185473 -0.002,-0.277813 0,-0.07779 0,-0.156104 -0.001,-0.234156 a 3.4578396,3.4578396 0 0 0 -0.0468,-0.509323 1.6912167,1.6912167 0 0 0 -0.15637,-0.484188 1.6398875,1.6398875 0 0 0 -0.70749,-0.712258 1.7031229,1.7031229 0 0 0 -0.4826,-0.159544 3.2768646,3.2768646 0 0 0 -0.50536,-0.04498 c -0.077,-0.0013 -0.1561,-0.0026 -0.2331,-0.0032 -0.091,-5.29e-4 -0.18309,-5.29e-4 -0.2741,-5.29e-4 z"
       style="fill:#a6a6a6;stroke-width:0.26458332" />
    <path
       id="path4631"
       d="m 92.543492,45.257274 c -0.07673,0 -0.152135,-0.0011 -0.2286,-0.0027 a 3.1871708,3.1871708 0 0 1 -0.472281,-0.04154 1.4808729,1.4808729 0 0 1 -0.418836,-0.139436 1.3668375,1.3668375 0 0 1 -0.353218,-0.258498 1.3533437,1.3533437 0 0 1 -0.257969,-0.355335 1.4620875,1.4620875 0 0 1 -0.137319,-0.421746 3.1776458,3.1776458 0 0 1 -0.04207,-0.476779 23.338102,23.338102 0 0 1 -0.0037,-0.232304 v -5.87719 c 0,0 0.0024,-0.175683 0.0037,-0.227542 0.0019,-0.159543 0.01587,-0.318822 0.0418,-0.47625 a 1.4710833,1.4710833 0 0 1 0.137584,-0.422804 c 0.06588,-0.131762 0.1524,-0.251883 0.256646,-0.3556 a 1.4073187,1.4073187 0 0 1 0.772318,-0.398462 3.1617708,3.1617708 0 0 1 0.474134,-0.0418 l 0.228071,-0.0032 h 35.189058 l 0.23098,0.0032 c 0.15715,0.0021 0.31433,0.01588 0.46964,0.04154 a 1.4943667,1.4943667 0 0 1 0.42254,0.139436 1.4186958,1.4186958 0 0 1 0.61039,0.61542 c 0.0659,0.132292 0.11139,0.273844 0.1352,0.41963 0.0265,0.15875 0.041,0.319087 0.0439,0.480218 8e-4,0.07197 8e-4,0.149225 8e-4,0.226219 0.002,0.09551 0.002,0.186267 0.002,0.277813 v 5.324475 c 0,0.0926 0,0.182562 -0.002,0.273579 0,0.08281 0,0.158485 -0.001,0.236537 a 3.2591375,3.2591375 0 0 1 -0.0431,0.471488 c -0.0238,0.147902 -0.0696,0.291041 -0.13652,0.424921 -0.0667,0.130175 -0.15346,0.249237 -0.25664,0.352425 -0.10315,0.105304 -0.22274,0.193145 -0.35372,0.260085 a 1.4753167,1.4753167 0 0 1 -0.42174,0.139965 c -0.15611,0.02567 -0.31406,0.03969 -0.47254,0.04154 -0.0741,0.0016 -0.1516,0.0026 -0.22675,0.0026 l -0.2741,5.29e-4 z"
       style="fill:#000000;stroke-width:0.26458332" />
    <path
       style="fill:#ffffff;stroke-width:0.26458332"
       id="path4633"
       d="m 96.670198,40.468316 a 1.2607396,1.2607396 0 0 1 0.595577,-1.056482 1.2784667,1.2784667 0 0 0 -1.008856,-0.548745 c -0.424656,-0.04498 -0.836083,0.255587 -1.052248,0.255587 -0.220662,0 -0.553773,-0.251354 -0.912283,-0.243681 a 1.3424958,1.3424958 0 0 0 -1.130829,0.694002 c -0.488686,0.851958 -0.124355,2.103702 0.343958,2.792412 0.234685,0.33708 0.508265,0.713582 0.866775,0.700353 0.350573,-0.01455 0.481542,-0.224896 0.904875,-0.224896 0.4191,0 0.542131,0.224896 0.907521,0.216429 0.376237,-0.0061 0.613304,-0.338667 0.839523,-0.679186 a 2.7961167,2.7961167 0 0 0 0.383646,-0.786606 1.2168187,1.2168187 0 0 1 -0.737659,-1.119187 z m -0.690562,-2.058194 a 1.2448646,1.2448646 0 0 0 0.281781,-0.887942 1.2506854,1.2506854 0 0 0 -0.810948,0.422275 1.184275,1.184275 0 0 0 -0.28919,0.855134 c 0.3175,0.0032 0.619125,-0.14023 0.818357,-0.389467 z" />
    <path
       style="fill:#ffffff;stroke-width:0.26458332"
       id="path4635"
       d="m 102.07458,43.062026 v -2.325158 h -0.0151 l -0.94642,2.301081 h -0.36115 l -0.948536,-2.301081 h -0.01508 v 2.325158 h -0.443971 v -3.159125 h 0.563562 l 1.015995,2.493433 h 0.0172 l 1.01389,-2.493433 h 0.56541 v 3.159125 z m 0.821,-0.654579 c 0,-0.402696 0.30639,-0.646113 0.85063,-0.678921 l 0.62654,-0.03493 v -0.175154 c 0,-0.256117 -0.16775,-0.400844 -0.4527,-0.400844 a 0.43735625,0.43735625 0 0 0 -0.48075,0.324379 h -0.43921 c 0.013,-0.416189 0.39793,-0.711729 0.93292,-0.711729 0.5461,0 0.90726,0.300038 0.90726,0.753269 v 1.578504 h -0.45032 v -0.378883 h -0.0106 a 0.81729792,0.81729792 0 0 1 -0.72232,0.418306 0.69109167,0.69109167 0 0 1 -0.53366,-0.177271 0.70035208,0.70035208 0 0 1 -0.22781,-0.516731 z m 1.47717,-0.207963 v -0.17727 l -0.56356,0.03493 c -0.28073,0.01746 -0.43948,0.140229 -0.43948,0.337079 0,0.201612 0.16537,0.332846 0.41778,0.332846 a 0.54662917,0.54662917 0 0 0 0.40322,-0.139436 c 0.11007,-0.09948 0.17569,-0.239448 0.18204,-0.388144 z m 2.44025,-0.648229 a 0.50588333,0.50588333 0 0 0 -0.53949,-0.424656 c -0.36115,0 -0.60033,0.304271 -0.60033,0.78396 0,0.490273 0.24156,0.785813 0.60457,0.785813 a 0.49318333,0.49318333 0 0 0 0.53525,-0.413808 h 0.45244 a 0.91625208,0.91625208 0 0 1 -0.99193,0.808037 c -0.65272,0 -1.07897,-0.448998 -1.07897,-1.180042 0,-0.715962 0.42625,-1.180041 1.07448,-1.180041 a 0.92154375,0.92154375 0 0 1 0.99218,0.820737 z m 3.5052,0.656961 h -1.19671 l -0.28734,0.85381 h -0.50667 l 1.13321,-3.159125 h 0.52652 l 1.13347,3.159125 h -0.51541 z m -1.07262,-0.394229 h 0.94827 l -0.46752,-1.385623 h -0.0132 z m 4.32276,0.09657 c 0,0.715697 -0.38073,1.175543 -0.95514,1.175543 a 0.77496458,0.77496458 0 0 1 -0.7202,-0.40296 h -0.0106 v 1.140883 h -0.4699 v -3.065198 h 0.45455 v 0.383117 h 0.009 a 0.81068333,0.81068333 0 0 1 0.72867,-0.407458 c 0.58102,0 0.96387,0.462227 0.96387,1.176072 z m -0.48286,0 c 0,-0.466461 -0.23945,-0.772848 -0.60484,-0.772848 -0.35904,0 -0.6006,0.313002 -0.6006,0.772583 0,0.464344 0.24156,0.775229 0.6006,0.775229 0.36512,0 0.60484,-0.304271 0.60484,-0.775229 z m 3.0017,0 c 0,0.715697 -0.38048,1.175543 -0.95515,1.175543 a 0.77496458,0.77496458 0 0 1 -0.71993,-0.40296 h -0.0108 v 1.140883 h -0.4699 v -3.065198 h 0.45482 v 0.383117 h 0.009 a 0.81068333,0.81068333 0 0 1 0.72866,-0.407458 c 0.58076,0 0.96361,0.462227 0.96361,1.176072 z m -0.48287,0 c 0,-0.466461 -0.23945,-0.772848 -0.60457,-0.772848 -0.35904,0 -0.60061,0.313002 -0.60061,0.772583 0,0.464344 0.24157,0.775229 0.60061,0.775229 0.36512,0 0.60457,-0.304271 0.60457,-0.775229 z m 2.14789,0.271462 c 0.0347,0.313002 0.33708,0.518583 0.75036,0.518583 0.39608,0 0.68077,-0.205581 0.68077,-0.487891 0,-0.245269 -0.17172,-0.392113 -0.57864,-0.492654 l -0.40667,-0.09869 c -0.57653,-0.14023 -0.84402,-0.411428 -0.84402,-0.851959 0,-0.545041 0.47202,-0.919162 1.14221,-0.919162 0.66331,0 1.11813,0.374385 1.13321,0.919427 h -0.47414 c -0.0283,-0.315383 -0.28733,-0.505619 -0.66569,-0.505619 -0.37835,0 -0.63764,0.192617 -0.63764,0.472811 0,0.223308 0.16563,0.354541 0.57017,0.455348 l 0.34581,0.08546 c 0.644,0.153458 0.91176,0.413808 0.91176,0.875771 0,0.591079 -0.46779,0.961231 -1.21179,0.961231 -0.69639,0 -1.16629,-0.361421 -1.19671,-0.932921 h 0.48101 z m 2.94137,-1.9685 v 0.545042 h 0.43524 v 0.37465 h -0.43524 v 1.269735 c 0,0.197115 0.0873,0.28919 0.27834,0.28919 0.0516,-0.0011 0.10319,-0.0045 0.15452,-0.01085 v 0.372004 a 1.2821708,1.2821708 0 0 1 -0.26088,0.02196 c -0.46329,0 -0.644,-0.175154 -0.644,-0.621771 v -1.32027 h -0.33284 v -0.37465 h 0.33284 v -0.545042 z m 0.68686,1.697038 c 0,-0.724959 0.42413,-1.180042 1.08558,-1.180042 0.66358,0 1.08559,0.455083 1.08559,1.180042 0,0.726545 -0.41989,1.180041 -1.08559,1.180041 -0.66569,0 -1.08558,-0.453496 -1.08558,-1.180041 z m 1.69254,0 c 0,-0.497417 -0.22648,-0.790575 -0.60696,-0.790575 -0.38073,0 -0.60721,0.295539 -0.60721,0.790575 0,0.499004 0.22648,0.79031 0.60721,0.79031 0.38048,0 0.60696,-0.291042 0.60696,-0.79031 z m 0.86651,-1.151996 h 0.44767 v 0.392112 h 0.0111 a 0.54636458,0.54636458 0 0 1 0.55034,-0.416189 c 0.0542,0 0.10821,0.0058 0.16113,0.01773 v 0.442383 a 0.65272708,0.65272708 0 0 0 -0.21114,-0.02858 0.47175208,0.47175208 0 0 0 -0.36591,0.151606 0.47836667,0.47836667 0 0 0 -0.12357,0.378354 v 1.366044 h -0.4699 v -2.303198 z m 3.33587,1.627187 c -0.0632,0.418042 -0.46779,0.70485 -0.98558,0.70485 -0.66569,0 -1.07897,-0.448998 -1.07897,-1.169194 0,-0.722312 0.4154,-1.190889 1.05939,-1.190889 0.63315,0 1.03135,0.437621 1.03135,1.136121 v 0.161925 h -1.6166 v 0.02857 c -0.0151,0.17145 0.0439,0.341312 0.16139,0.465931 0.11801,0.124883 0.28337,0.192881 0.45429,0.186531 a 0.517525,0.517525 0 0 0 0.52864,-0.324114 h 0.44609 z m -1.58803,-0.687652 h 1.14406 a 0.55588958,0.55588958 0 0 0 -0.15346,-0.41566 0.54874583,0.54874583 0 0 0 -0.40773,-0.169069 0.57758542,0.57758542 0 0 0 -0.41275,0.170127 0.58499375,0.58499375 0 0 0 -0.17012,0.414602 z" />
    <path
       style="fill:#ffffff;stroke-width:0.26458332"
       id="path4641"
       d="m 99.695709,38.166705 h 0.201877 a 0.25214792,0.25214792 0 0 0 0.194734,-0.05821 0.2555875,0.2555875 0 0 0 0.0894,-0.183885 c 0,-0.140229 -0.10451,-0.230452 -0.282048,-0.230452 a 0.26749375,0.26749375 0 0 0 -0.202141,0.05424 c -0.05715,0.04498 -0.09419,0.111125 -0.102129,0.183621 h -0.221457 c 0.0077,-0.132027 0.06932,-0.254529 0.170392,-0.338667 a 0.47095833,0.47095833 0 0 1 0.362479,-0.105304 c 0.296864,0 0.506144,0.167217 0.506144,0.407988 a 0.35189583,0.35189583 0 0 1 -0.2741,0.347397 v 0.01773 c 0.19314,0.0087 0.34316,0.172773 0.33549,0.367242 a 0.508,0.508 0 0 1 -0.18733,0.344752 c -0.10583,0.08467 -0.24156,0.123296 -0.375971,0.106363 A 0.49900417,0.49900417 0 0 1 99.53299,38.976066 0.50535417,0.50535417 0 0 1 99.344607,38.63052 h 0.224895 c 0.01323,0.144992 0.14605,0.238919 0.341313,0.238919 0.195795,0 0.323325,-0.105305 0.323325,-0.253736 0,-0.150283 -0.12013,-0.243152 -0.330204,-0.243152 h -0.208227 z m 1.034251,0.551921 c 0,-0.205846 0.15267,-0.324908 0.42334,-0.341842 l 0.30824,-0.01773 v -0.09895 c 0,-0.120914 -0.0794,-0.189177 -0.23284,-0.189177 -0.12567,0 -0.21219,0.0463 -0.23733,0.127 h -0.21748 c 0.023,-0.196585 0.20716,-0.322791 0.4654,-0.322791 0.28522,0 0.44609,0.142875 0.44609,0.384968 v 0.782638 h -0.21643 v -0.160867 h -0.0177 a 0.38232292,0.38232292 0 0 1 -0.34185,0.179917 c -0.0966,0.01005 -0.19314,-0.02143 -0.26537,-0.08678 a 0.34713333,0.34713333 0 0 1 -0.11404,-0.256117 z m 0.73158,-0.0979 v -0.09551 l -0.27781,0.01799 c -0.1569,0.01058 -0.22808,0.06403 -0.22808,0.1651 0,0.103188 0.0889,0.162984 0.21114,0.162984 a 0.26722917,0.26722917 0 0 0 0.20029,-0.06218 c 0.0556,-0.04736 0.0897,-0.115094 0.0945,-0.188119 z m 0.82021,-0.533135 v 0.955146 h -0.2249 v -1.145646 h 0.74956 v 0.1905 z m 1.88621,0.382058 c 0,0.363802 -0.18283,0.592138 -0.47016,0.592138 a 0.37041667,0.37041667 0 0 1 -0.35031,-0.192617 h -0.018 v 0.554567 h -0.22464 v -1.526646 h 0.21643 v 0.189442 h 0.0167 c 0.0709,-0.131498 0.20902,-0.211932 0.35746,-0.208228 0.28971,0 0.47254,0.227278 0.47254,0.591344 z m -0.23098,0 c 0,-0.242094 -0.11377,-0.388408 -0.30427,-0.388408 -0.18918,0 -0.30718,0.149489 -0.30718,0.389202 0,0.238919 0.118,0.388408 0.30612,0.388408 0.19129,0 0.30533,-0.146314 0.30533,-0.389202 z m 0.53022,0.983456 v -0.194733 c 0.0243,0.0032 0.0487,0.0045 0.0733,0.0042 a 0.19499792,0.19499792 0 0 0 0.20585,-0.159808 l 0.0167,-0.05556 -0.41196,-1.149879 h 0.24474 l 0.28522,0.909902 h 0.018 l 0.28417,-0.910167 h 0.23812 l -0.42413,1.193271 c -0.0974,0.278606 -0.20478,0.367771 -0.43709,0.367771 -0.0185,0 -0.072,-0.0018 -0.0929,-0.005 z m 1.12925,-0.735277 h 0.22383 c 0.022,0.100807 0.11589,0.153459 0.24739,0.153459 0.14975,0 0.24156,-0.06615 0.24156,-0.169334 0,-0.110331 -0.0825,-0.162983 -0.24156,-0.162983 h -0.17013 v -0.175683 h 0.16722 c 0.13573,0 0.20505,-0.05265 0.20505,-0.148167 0,-0.0844 -0.0669,-0.148431 -0.20505,-0.148431 -0.12568,0 -0.21749,0.05345 -0.23204,0.143933 h -0.21643 a 0.39952083,0.39952083 0 0 1 0.44847,-0.335492 c 0.27067,0 0.42545,0.123032 0.42545,0.316707 0.003,0.111125 -0.0722,0.209021 -0.17992,0.234421 v 0.01799 a 0.25664583,0.25664583 0 0 1 0.22278,0.257704 c 0,0.217752 -0.18415,0.36195 -0.4654,0.36195 -0.24871,0 -0.45032,-0.114829 -0.47096,-0.346075 z m 1.25994,0.324909 v -1.145646 h 0.22278 v 0.788194 h 0.0177 l 0.52467,-0.78793 h 0.22251 v 1.145646 h -0.22251 v -0.792427 h -0.0169 l -0.52546,0.792163 z m 2.21456,-0.955146 h -0.35851 v 0.955146 h -0.22489 v -0.955146 h -0.35851 v -0.1905 h 0.94191 z m 1.20994,0.645848 a 0.46249167,0.46249167 0 0 1 -0.49344,0.331523 0.51540833,0.51540833 0 0 1 -0.39873,-0.173302 0.52255208,0.52255208 0 0 1 -0.127,-0.418042 0.53075417,0.53075417 0 0 1 0.12673,-0.419629 c 0.10055,-0.114829 0.24607,-0.179917 0.39794,-0.178859 0.31697,0 0.508,0.217753 0.508,0.577586 v 0.07885 h -0.80354 v 0.0127 c -0.007,0.08493 0.0214,0.169333 0.0794,0.23151 0.0577,0.06271 0.1389,0.0979 0.22357,0.09657 0.11007,0.01323 0.21696,-0.04154 0.27067,-0.138906 z m -0.79004,-0.369094 h 0.57467 a 0.27728333,0.27728333 0 0 0 -0.0749,-0.210873 0.27384375,0.27384375 0 0 0 -0.20506,-0.08599 0.28998333,0.28998333 0 0 0 -0.20981,0.08573 0.2936875,0.2936875 0 0 0 -0.0849,0.211137 z m 1.74254,-0.46699 h 0.5133 c 0.22277,0 0.35321,0.113507 0.35321,0.291042 a 0.2460625,0.2460625 0 0 1 -0.19235,0.242094 v 0.01799 a 0.26087917,0.26087917 0 0 1 0.24342,0.264054 c 0,0.19976 -0.14923,0.3302 -0.39899,0.3302 h -0.51859 v -1.145646 z m 0.22278,0.173567 v 0.296333 h 0.22278 c 0.13573,0 0.20056,-0.05239 0.20056,-0.149225 0,-0.08943 -0.0566,-0.147108 -0.17569,-0.147108 z m 0,0.462756 v 0.335492 h 0.26644 c 0.13282,0 0.20373,-0.059 0.20373,-0.167217 0,-0.114564 -0.0804,-0.168275 -0.23204,-0.168275 z" />
  </g>
</svg>
