<svg xmlns="http://www.w3.org/2000/svg" xmlns:xlink="http://www.w3.org/1999/xlink" width="162" height="152" viewBox="0 0 162 152">
    <defs>
        <path id="a" d="M.284.25h41.59v60.447H.284z"/>
        <path id="c" d="M0 .26h47.796v55.716H0z"/>
        <path id="e" d="M.066.489h125.575v20.473H.066z"/>
        <path id="g" d="M.412.076h71.985V15.5H.412z"/>
    </defs>
    <g fill="none" fill-rule="evenodd">
        <path fill="#DBDFE3" d="M136.11 13.52c-10.503.933-15.907 9.031-18.648 27.945-3.02 20.785-9.144 40.312-33.3 42.465-24.155 2.149-33.655-15.989-40.325-35.905C37.85 30.13 30.874 22.89 20.509 23.812c-2.724.243-4.732 2.64-4.489 5.35.243 2.712 2.645 4.716 5.37 4.474 2.27-.203 6.992-.625 13.058 17.507 3.804 11.36 11.858 35.348 34.641 41.397-.926 1.319-1.586 2.628-2.153 3.773-1.313 2.648-1.708 3.448-4.459 3.886a4.937 4.937 0 0 0-4.106 5.646c.434 2.693 2.948 4.512 5.673 4.096 7.794-1.244 10.185-6.069 11.767-9.264 1.572-3.17 2.518-5.082 9.33-5.688 6.82-.607 8.1 1.109 10.215 3.955 2.128 2.859 5.34 7.183 13.235 7.028a5.75 5.75 0 0 0 .348-.018c2.565-.23 4.553-2.404 4.503-5.01-.055-2.721-2.316-4.887-5.047-4.835-2.785.055-3.318-.664-5.085-3.038-.76-1.024-1.643-2.196-2.79-3.323 21.355-9.977 25.015-35.016 26.741-46.868 2.74-18.914 7.114-19.304 9.73-19.538 2.723-.243 4.732-2.636 4.49-5.35-.244-2.714-2.648-4.714-5.371-4.472"/>
        <g transform="translate(120 26.5)">
            <mask id="b" fill="#fff">
                <use xlink:href="#a"/>
            </mask>
            <path fill="#DBDFE3" d="M16.716 5.122c-4.044 4.151-5.608 9.684-5.37 13.325a4.972 4.972 0 0 0 5.29 4.63c2.728-.152 4.823-2.544 4.642-5.28-.064-.985.647-3.77 2.579-5.756 1.278-1.314 2.74-1.915 4.464-1.857 1.2.045 2.762 1.153 3.36 3.483 1.48 5.76-3.577 16.528-22.692 27.91-9.114 5.43-9.843 12.235-7.699 16.417a4.988 4.988 0 0 0 6.7 2.158 4.961 4.961 0 0 0 2.28-6.442c.123-.497.972-1.91 3.823-3.608C43.23 32.752 42.845 17.12 41.326 11.204 39.702 4.878 34.623.482 28.686.262c-4.568-.169-8.709 1.514-11.97 4.86" mask="url(#b)"/>
        </g>
        <g transform="translate(0 38.5)">
            <mask id="d" fill="#fff">
                <use xlink:href="#c"/>
            </mask>
            <path fill="#DBDFE3" d="M33.506 46.974c3.09 1.166 4.168 2.401 4.375 2.868a4.951 4.951 0 0 0 5.238 6.115 4.953 4.953 0 0 0 4.289-3.498c1.357-4.479-.558-11.03-10.417-14.752C16.307 29.908 9.47 20.235 9.899 14.32c.17-2.392 1.503-3.754 2.665-4.01 1.683-.358 3.21-.029 4.693 1.035 2.236 1.607 3.424 4.216 3.53 5.193.307 2.716 2.796 4.673 5.466 4.366 2.71-.306 4.66-2.76 4.356-5.476-.408-3.616-2.912-8.77-7.598-12.132C19.236.585 14.89-.335 10.455.634 4.697 1.897.513 7.107.043 13.604c-.442 6.072 1.94 21.482 33.463 33.37" mask="url(#d)"/>
        </g>
        <g transform="translate(15)">
            <mask id="f" fill="#fff">
                <use xlink:href="#e"/>
            </mask>
            <path fill="#DBDFE3" d="M120.248.508L4.578 10.963c-2.726.247-4.735 2.681-4.492 5.435.244 2.755 2.647 4.79 5.374 4.544l115.67-10.457c2.724-.246 4.735-2.677 4.491-5.434-.243-2.754-2.648-4.789-5.373-4.543" mask="url(#f)"/>
        </g>
        <path fill="#DBDFE3" d="M61.87 139.48c2.087-.186 3.902-1.691 4.374-3.833l2.81-12.754 36.927-3.284 5.036 12.056a4.938 4.938 0 0 0 6.444 2.646c2.514-1.04 3.705-3.91 2.66-6.413l-6.426-15.373a4.937 4.937 0 0 0-4.99-3.006l-44.131 3.925a4.922 4.922 0 0 0-4.376 3.834l-3.582 16.27c-.585 2.642 1.101 5.257 3.757 5.837a4.897 4.897 0 0 0 1.497.095"/>
        <g transform="translate(53 136.5)">
            <mask id="h" fill="#fff">
                <use xlink:href="#g"/>
            </mask>
            <path fill="#DBDFE3" d="M.432 11.008a4.928 4.928 0 0 0 5.344 4.472L67.91 9.922a4.93 4.93 0 0 0 4.467-5.35A4.927 4.927 0 0 0 67.033.095L4.9 5.658a4.93 4.93 0 0 0-4.467 5.35" mask="url(#h)"/>
        </g>
        <path fill="#DBDFE3" d="M79.113 30.538c10.09-.91 19.035 6.634 19.936 16.811.902 10.18-6.575 19.202-16.666 20.111-10.088.909-19.03-6.632-19.934-16.81-.9-10.18 6.577-19.202 16.664-20.112m4.149 46.848c15.518-1.398 27.01-15.27 25.625-30.923-1.387-15.655-15.136-27.25-30.653-25.848-15.514 1.4-27.008 15.268-25.62 30.921 1.385 15.651 15.134 27.249 30.648 25.85"/>
        <path fill="#DBDFE3" d="M78.39 42.439c-.234.167-.86.545-1.877 1.134-.174.09-.445.24-.814.447-.368.208-.67.395-.904.563l-.521-4.246c2.565-1.752 4.117-2.985 4.655-3.7l4.486-.55 3.405 27.736-5.718.702L78.39 42.44z"/>
    </g>
</svg>
