<?xml version="1.0" encoding="UTF-8" standalone="no"?>
<svg
   xmlns:dc="http://purl.org/dc/elements/1.1/"
   xmlns:cc="http://creativecommons.org/ns#"
   xmlns:rdf="http://www.w3.org/1999/02/22-rdf-syntax-ns#"
   xmlns:svg="http://www.w3.org/2000/svg"
   xmlns="http://www.w3.org/2000/svg"
   height="169"
   width="169.72551"
   xml:space="preserve"
   viewBox="0 0 169.72551 169"
   y="0px"
   x="0px"
   id="Слой_1"
   version="1.1"><metadata
     id="metadata182"><rdf:RDF><cc:Work
         rdf:about=""><dc:format>image/svg+xml</dc:format><dc:type
           rdf:resource="http://purl.org/dc/dcmitype/StillImage" /></cc:Work></rdf:RDF></metadata><defs
     id="defs180" />
  <g
     transform="translate(15.611691,-53.942446)"
     id="Symbols"><g
       transform="translate(-611,-399)"
       id="prognoz"><g
         transform="translate(611,399)"
         id="prognoz-tennis"><g
           id="Shape_1_"><g
               id="tennis"><g
                 transform="translate(-15.636691,53.942446)"
                 id="Shape"><path
                   style="fill:#f4f4f4"
                   id="path157"
                   d="m 156.8,12.9 c 0,0 0,0 0,0 0,0 0,0 0,0 -4.1,-4 -8.9,-7.2 -14.2,-9.4 -0.2,-0.1 -0.5,-0.2 -0.7,-0.3 -5.6,-2.1 -11.6,-3.2 -18,-3.2 -0.7,0 -1.4,0 -2.1,0 -0.1,0 -0.2,0 -0.3,0 -11,0.5 -22,4.2 -31.8,10.5 0,0 -0.1,0.1 -0.1,0.1 -4.1,2.7 -8,5.8 -11.6,9.4 0,0 0,0 0,0 0,0 0,0 0,0 -11.4,11.4 -18.5,25.7 -19.9,40.4 -0.1,1.1 -0.2,2.2 -0.2,3.3 -0.6,7.9 -2.7,22.9 -9,36.3 -0.1,0.1 -0.2,0.3 -0.2,0.4 -2.7,5.5 -6.1,10.7 -10.4,15.1 0,0 0,0 0,0 L 1,152.5 c -1.3,1.3 -1.3,3.4 0,4.7 L 11.8,168 c 0.6,0.6 1.5,1 2.3,1 0.8,0 1.7,-0.3 2.3,-1 l 37.2,-37 c 0,0 0,0 0,0 4.3,-4.3 9.6,-7.7 15.1,-10.4 0.2,-0.1 0.3,-0.1 0.5,-0.2 13.5,-6.4 28.6,-8.4 36.5,-9 0,0 0,0 0,0 0.1,0 0.2,0 0.3,0 0.9,0 1.8,-0.1 2.7,-0.2 0,0 0,0 0,0 0,0 0.1,0 0.1,0 10,-0.9 19.9,-4.5 28.9,-10.3 0.1,0 0.1,-0.1 0.2,-0.1 4.1,-2.7 8,-5.8 11.6,-9.4 0,0 0,0 0,0 0,0 0,0 0,0 C 161,80 168,65.7 169.5,51 170.9,36 166.4,22.5 156.8,12.9 Z m 2.5,15 -4.1,4.1 -6.5,-6.4 5.6,-5.5 c 2,2.3 3.7,5 5,7.8 z M 77,74.8 l 5.4,-5.4 6.5,6.4 -5.4,5.4 z m 1.8,11.1 -5.6,5.5 c -2,-2.4 -3.7,-5 -5,-7.9 l 4.1,-4.1 z m 18.4,-31.2 5.4,-5.4 6.5,6.4 -5.4,5.4 z m 1.8,11.1 -5.4,5.4 -6.5,-6.4 5.4,-5.4 z m 8.3,-21.2 5.4,-5.4 6.5,6.4 -5.4,5.4 z m 6.5,15.8 6.5,6.4 -5.4,5.4 -6.5,-6.4 z m 4.7,-4.7 5.4,-5.4 6.5,6.4 -5.4,5.4 z m 10.1,-10 5.4,-5.4 6.5,6.4 -5.4,5.4 z m -1.1,-21.2 5.4,-5.4 6.5,6.4 -5.4,5.4 z m 1.8,11.1 -5.4,5.4 -6.5,-6.4 5.4,-5.4 z m -16.6,-5.7 -6.5,-6.4 5.4,-5.4 6.5,6.4 z m -4.7,4.7 -5.4,5.4 -6.5,-6.4 5.4,-5.4 z M 97.9,44.6 92.5,50 86,43.6 91.4,38.2 Z M 87.8,54.7 82.4,60 75.9,53.6 81.3,48.2 Z m 5.8,25.8 6.5,6.4 -5.4,5.4 -6.5,-6.4 z m 4.7,-4.7 5.4,-5.4 6.5,6.4 -5.4,5.4 z m 16.5,5.7 6.5,6.4 -5.4,5.4 -6.5,-6.4 z m 4.7,-4.6 5.4,-5.4 6.5,6.4 -5.4,5.4 z m 10.1,-10.1 5.4,-5.4 6.5,6.4 -5.4,5.4 z m 10.1,-10 5.4,-5.4 6.5,6.4 -5.4,5.4 z m -1,-21.2 5.4,-5.4 6.5,6.4 -5.4,5.4 z m 3,-25.2 c 2.9,1.3 5.5,3 7.9,5 l -5.6,5.5 -6.5,-6.4 z M 123.2,6.6 c 0.2,0 0.5,0 0.7,0 3.8,0 7.4,0.5 10.9,1.3 l -4.2,4.2 c 0,0 0,0 0,0 0,0 0,0 0,0 l -7.8,7.7 -6.5,-6.4 z m -10.7,1.3 -3.2,3.1 c 0,0 0,0 0,0 0,0 0,0 0,0 l -7.8,7.7 -4.7,-4.7 c 5,-2.8 10.3,-4.9 15.7,-6.1 z M 91,17.7 96.8,23.5 91.4,28.9 85,22.5 c 2,-1.8 4,-3.4 6,-4.8 z m -10.6,9.4 6.4,6.4 -5.4,5.4 -5.8,-5.8 c 1.4,-2.1 3,-4.1 4.8,-6 z m -8.5,11.7 4.8,4.8 -7.7,7.7 c 0,0 0,0 0,0 0,0 0,0 0,0 l -3.2,3.1 C 67,49 69.1,43.8 71.9,38.8 Z m -7.5,26.3 6.8,-6.8 6.5,6.4 -12,11.9 C 64.8,73 64.4,69.1 64.4,65.1 Z M 14.1,161 8,154.9 l 32.5,-32.3 6.1,6.1 z m 37.3,-37 -6.3,-6.3 c 2.3,-2.6 4.4,-5.5 6.2,-8.5 1.1,1.7 2.3,3.4 3.8,4.8 1.5,1.5 3.1,2.7 4.8,3.8 -3,1.9 -5.8,3.9 -8.5,6.2 z m 15.9,-10 c -2.8,-0.9 -5.4,-2.5 -7.5,-4.6 -2.1,-2.1 -3.7,-4.7 -4.6,-7.5 2.7,-5.9 4.7,-12.1 6.1,-17.8 2.2,5.4 5.4,10.2 9.5,14.3 0,0 0,0 0,0 0,0 0,0 0,0 4.1,4 8.9,7.2 14.2,9.4 0.1,0 0.1,0.1 0.2,0.1 -5.7,1.4 -11.9,3.4 -17.9,6.1 z M 85.9,101 C 83,99.7 80.4,98 78,96 l 5.5,-5.5 6.5,6.4 z m 18.5,3.8 c -0.2,0 -0.5,0 -0.7,0 -3.8,0 -7.4,-0.5 -10.9,-1.3 L 97,99.3 c 0,0 0,0 0,0 0,0 0,0 0,0 l 7.8,-7.7 6.5,6.4 z m 10.7,-1.3 10.9,-10.9 4.8,4.8 c -5.1,2.8 -10.4,4.9 -15.7,6.1 z m 21.4,-9.7 -5.8,-5.8 5.4,-5.4 6.4,6.4 c -1.9,1.7 -3.9,3.3 -6,4.8 z m 10.7,-9.5 -6.4,-6.4 5.4,-5.4 5.8,5.8 c -1.5,2.1 -3.1,4.1 -4.8,6 z m 8.4,-11.7 -4.8,-4.8 11,-10.8 c -1.3,5.3 -3.3,10.6 -6.2,15.6 z m 7.5,-26.2 -6.8,6.8 -6.5,-6.4 7.7,-7.7 c 0,0 0,0 0,0 0,0 0,0 0,0 l 4.2,-4.2 c 1,3.6 1.5,7.5 1.4,11.5 z"
                   /><path
                   style="fill:#f4f4f4"
                   id="path159"
                   d="m 68,16 c -1.4,-1.2 -3.5,-1 -4.7,0.4 -4.4,5.2 -8,10.9 -11,16.8 -0.8,1.6 -0.1,3.6 1.5,4.4 0.5,0.2 1,0.3 1.5,0.3 1.2,0 2.4,-0.7 3,-1.9 2.7,-5.5 6.1,-10.7 10.1,-15.5 1.2,-1.3 1,-3.3 -0.4,-4.5 z"
                   /><path
                   style="fill:#f4f4f4"
                   id="path161"
                   d="m 52.8,40.3 c -1.7,-0.6 -3.6,0.3 -4.2,2.1 l -0.1,0.3 c -0.6,1.7 0.3,3.6 2.1,4.2 0.4,0.1 0.7,0.2 1.1,0.2 1.4,0 2.7,-0.9 3.1,-2.2 l 0.1,-0.2 c 0.6,-1.9 -0.4,-3.8 -2.1,-4.4 z"
                   /><path
                   style="fill:#f4f4f4"
                   id="path163"
                   d="m 66.4,132.2 c -1.3,-1.3 -3.4,-1.2 -4.7,0.1 l -0.1,0.1 c -1.3,1.3 -1.3,3.4 0.1,4.7 0.6,0.6 1.5,0.9 2.3,0.9 0.9,0 1.7,-0.3 2.4,-1 l 0.1,-0.1 c 1.2,-1.3 1.2,-3.4 -0.1,-4.7 z"
                   /><path
                   style="fill:#f4f4f4"
                   id="path165"
                   d="m 59.6,139 c -1.3,-1.3 -3.4,-1.3 -4.7,0 l -12,11.9 c -1.3,1.3 -1.3,3.4 0,4.7 0.6,0.6 1.5,1 2.3,1 0.8,0 1.7,-0.3 2.3,-1 l 12,-11.9 c 1.4,-1.3 1.4,-3.4 0.1,-4.7 z"
                   /><path
                   style="fill:#f4f4f4"
                   id="path167"
                   d="m 169.7,145.1 c -0.1,-5.9 -2.4,-11.7 -6.9,-16.2 -4.5,-4.4 -10.4,-6.9 -16.7,-6.9 -6.3,0 -12.2,2.4 -16.7,6.9 -4.5,4.5 -6.8,10.4 -6.9,16.3 0,0.2 0,0.4 0,0.6 0.1,5.9 2.4,11.7 6.9,16.2 4.4,4.4 10.3,6.8 16.6,6.9 0,0 0,0 0,0 0,0 0,0 0,0 0,0 0,0 0,0 6.3,0 12.2,-2.4 16.7,-6.9 4.5,-4.5 6.8,-10.4 6.9,-16.3 0.1,-0.2 0.1,-0.4 0.1,-0.6 z m -26.4,17 c -3.4,-0.6 -6.6,-2.2 -9.1,-4.7 -2.6,-2.6 -4.1,-5.8 -4.7,-9.1 3.7,-0.2 7.4,1.1 10,3.8 2.7,2.6 4.1,6.3 3.8,10 z m 14.8,-4.7 c -2.3,2.3 -5.1,3.8 -8.2,4.5 0.1,-5.3 -1.9,-10.6 -5.8,-14.5 -3.9,-3.9 -9.2,-5.9 -14.5,-5.7 0.7,-3 2.2,-5.8 4.5,-8.1 2.3,-2.3 5.1,-3.8 8.2,-4.5 -0.1,5.3 1.9,10.6 5.8,14.5 3.7,3.7 8.8,5.8 14,5.8 0.2,0 0.4,0 0.5,0 -0.6,2.9 -2.1,5.7 -4.5,8 z m -5.3,-18.5 c -2.7,-2.7 -4,-6.3 -3.8,-10 3.4,0.6 6.6,2.2 9.1,4.7 2.6,2.6 4.1,5.8 4.7,9.1 -3.6,0.2 -7.3,-1.2 -10,-3.8 z"
                   /></g></g><g
               transform="matrix(-1,0,0,1,-41.294964,0)"
               id="Rectangle-2" /></g></g></g></g></svg>