<?xml version="1.0" encoding="UTF-8" standalone="no"?>
<svg
   xmlns:dc="http://purl.org/dc/elements/1.1/"
   xmlns:cc="http://creativecommons.org/ns#"
   xmlns:rdf="http://www.w3.org/1999/02/22-rdf-syntax-ns#"
   xmlns:svg="http://www.w3.org/2000/svg"
   xmlns="http://www.w3.org/2000/svg"
   height="162.72173"
   width="181.03725"
   xml:space="preserve"
   viewBox="0 0 181.03725 162.72173"
   y="0px"
   x="0px"
   id="Слой_1"
   version="1.1"><metadata
     id="metadata72"><rdf:RDF><cc:Work
         rdf:about=""><dc:format>image/svg+xml</dc:format><dc:type
           rdf:resource="http://purl.org/dc/dcmitype/StillImage" /></cc:Work></rdf:RDF></metadata><defs
     id="defs70" />
  <g
     transform="translate(12.167998,-59.678269)"
     id="Symbols"><g
       transform="translate(-20,-320)"
       id="prognoz-mobile"><g
         transform="translate(20,19)"
         id="Stacked-Group"><g
           transform="translate(0,301)"
           id="prognoz-hockey"><g
             id="Shape_1_">
              <path
                 style="fill:#f4f4f4"
                 d="m 79.7,213.5 c -10.4,0 -17.7,-2.2 -17.7,-5 v 8.9 c 0,2.9 7.3,5 17.7,5 10.4,0 17.7,-2.2 17.7,-5 v -8.9 c -0.1,2.9 -7.4,5 -17.7,5 z m 16.8,-7.2 c 0,-2.8 -7.7,-4.8 -17.2,-4.8 -9.5,0 -17.3,2.3 -17.3,4.8 0,2.8 7.7,4.8 17.2,4.8 9.5,0 17.3,-2.3 17.3,-4.8 z m 72.3,-17.9 -0.7,-7.5 c -0.7,-6.8 -5.5,-5.8 -11.4,-5.1 l -43.4,5.3 -27.9,-43.8 43.4,-68.5 c 1.7,-2.7 1,-6.5 -1.7,-8.2 -2.6,-1.7 -6.4,-1 -8.1,1.7 L 78.2,126.4 37.7,62.6 C 36,59.9 32.2,59 29.6,60.9 27,62.6 26,66.5 27.9,69.1 L 71.3,137.6 43.4,181.4 0,176.1 c -6,-0.7 -10.5,-1.9 -11.4,5.1 l -0.7,7.5 c -0.7,6.8 4.1,6.8 10,7.5 l 37.4,4.8 c 3.8,0.5 6.9,1 9.1,-0.2 1,-0.5 1.7,-1.2 2.4,-2.2 l 31.5,-50.3 31.7,49.8 c 0.7,1 1.4,1.7 2.4,2.2 2.1,1.5 5.2,0.7 9.1,0.2 l 37.4,-4.8 c 5.9,-0.5 10.6,-0.3 9.9,-7.3 z"
                 id="Shape" /><g
                 transform="matrix(-1,0,0,1,-41.294964,0)"
                 id="Rectangle-2" /></g><g
             transform="translate(-57,65.232143)"
             id="_x26_"><g
               transform="translate(0.5)"
               id="Shape_2_" /></g></g></g></g></g></svg>