<?xml version="1.0" encoding="UTF-8" standalone="no"?>
<svg
   xmlns:dc="http://purl.org/dc/elements/1.1/"
   xmlns:cc="http://creativecommons.org/ns#"
   xmlns:rdf="http://www.w3.org/1999/02/22-rdf-syntax-ns#"
   xmlns:svg="http://www.w3.org/2000/svg"
   xmlns="http://www.w3.org/2000/svg"
   height="142.8"
   width="142.8"
   xml:space="preserve"
   viewBox="0 0 142.8 142.8"
   y="0px"
   x="0px"
   id="Слой_1"
   version="1.1"><metadata
     id="metadata32"><rdf:RDF><cc:Work
         rdf:about=""><dc:format>image/svg+xml</dc:format><dc:type
           rdf:resource="http://purl.org/dc/dcmitype/StillImage" /><dc:title></dc:title></cc:Work></rdf:RDF></metadata><defs
     id="defs30" /><g
     transform="translate(-40.6,-72.3)"
     id="Symbols"><g
       transform="translate(0,-93)"
       id="prognoz"><g
         transform="translate(0,93)"
         id="prognoz-football"><g
           id="Shape_1_"><path
             d="m 112,215.1 c -39.5,0 -71.4,-32 -71.4,-71.4 0,-39.4 32,-71.4 71.4,-71.4 39.4,0 71.4,32 71.4,71.4 0,39.4 -31.9,71.4 -71.4,71.4 z M 73.2,153.6 c -0.5,1.4 -0.3,3.6 0.5,4.9 l 9.8,15.7 c 0.8,1.3 2.7,2.3 4.2,2.1 l 22.6,-1.6 c 1.5,-0.1 3.2,-1.3 3.9,-2.7 l 8.4,-19 c 0.6,-1.4 0.4,-3.5 -0.6,-4.7 l -14.3,-18.7 c -0.9,-1.2 -2.9,-2 -4.4,-1.8 l -18.5,2.4 c -1.5,0.2 -3.2,1.5 -3.7,2.9 z m 38.7,-26.7 14.4,18.6 c 0.9,1.2 2.9,2.1 4.4,2 l 18.5,-1.3 c 1.5,-0.1 3.2,-1.3 3.8,-2.7 l 7,-17.6 c 0.6,-1.4 0.3,-3.5 -0.6,-4.8 l -12.1,-17.2 c -0.9,-1.3 -2.8,-2.2 -4.3,-2.2 l -20.8,0.5 c -1.5,0 -3.2,1.2 -3.8,2.6 l -7.2,17.4 c -0.5,1.4 -0.2,3.5 0.7,4.7 z m -60.2,28.3 c 0.4,1.5 2,2.4 3.5,2.1 l 10.3,-2 c 1.5,-0.3 3.2,-1.7 3.7,-3.1 l 8.2,-21.6 c 0.5,-1.4 0.5,-3.8 -0.1,-5.2 L 71.5,111 c -0.6,-1.4 -2.3,-2.4 -3.8,-2.2 l -7.5,1 c -1.5,0.2 -3.2,1.5 -3.8,2.9 L 47.2,136 c -0.1,0.9 -0.2,1.8 -0.3,2.8 z m 79.1,35.8 -12.9,-9.6 c -1.2,-0.9 -3.5,-1.6 -5,-1.5 l -24,1.7 c -1.5,0.1 -3.2,1.4 -3.6,2.8 l -2.3,7.3 c -0.5,1.4 0,3.5 1.1,4.6 l 9.5,9.7 c 6,1.8 12.4,2.7 18.9,2.7 4.3,0 8.5,-0.4 12.6,-1.2 l 6.7,-12.5 c 0.6,-1.3 0.2,-3.1 -1,-4 z m 10.7,-0.5 c -1.2,0.9 -2.8,2.7 -3.5,4 l -5.9,10.7 c 15,-4.6 27.6,-14.1 35.9,-26.7 l -5.9,-0.8 c -1.5,-0.2 -3.8,0.4 -5,1.3 z m 26.7,-64.1 c -1.5,-0.2 -3.1,0.8 -3.7,2.2 l -7.3,18.9 c -0.5,1.4 -0.7,3.8 -0.5,5.3 l 3.5,17.4 c 0.3,1.5 1.7,2.9 3.2,3.1 l 3.6,0.5 c 1.5,0.2 2.7,0.4 2.7,0.4 4.7,-9.1 7.4,-19.6 7.4,-30.6 0,-5.6 -0.7,-11 -2,-16.2 z M 146.1,94.2 147.6,89 c -10.2,-6.6 -22.4,-10.5 -35.5,-10.5 -4,0 -7.9,0.4 -11.7,1 l -1.9,5.3 c -0.5,1.4 0.2,3.2 1.5,3.9 l 15.3,7.6 c 1.4,0.7 3.7,1.2 5.3,1.2 L 142.7,97 c 1.4,-0.1 3,-1.3 3.4,-2.8 z m -86.5,10.4 c 0,0 1.2,-0.2 2.7,-0.4 l 8.2,-1.1 c 1.5,-0.2 3.7,-1.1 5,-2 l 13.8,-10 c 1.2,-0.9 2.6,-2.8 3.2,-4.2 l 2.3,-6.3 c -14.3,3.9 -26.6,12.5 -35.2,24 z m 11.9,90.8 c 0,0 4.1,4.4 10.6,7 l -2.8,-3.3 c -1,-1.2 -3,-2.4 -4.5,-2.8 z"
             style="fill:#f4f4f4"
             id="Shape" /></g></g></g></g></svg>