<?xml version="1.0" encoding="UTF-8" standalone="no"?>
<svg
   xmlns:dc="http://purl.org/dc/elements/1.1/"
   xmlns:cc="http://creativecommons.org/ns#"
   xmlns:rdf="http://www.w3.org/1999/02/22-rdf-syntax-ns#"
   xmlns:svg="http://www.w3.org/2000/svg"
   xmlns="http://www.w3.org/2000/svg"
   id="svg1276"
   version="1.1"
   viewBox="0 0 4.7583308 4.7609195"
   height="4.7609196mm"
   width="4.7583308mm">
  <defs
     id="defs1270" />
  <metadata
     id="metadata1273">
    <rdf:RDF>
      <cc:Work
         rdf:about="">
        <dc:format>image/svg+xml</dc:format>
        <dc:type
           rdf:resource="http://purl.org/dc/dcmitype/StillImage" />
        <dc:title></dc:title>
      </cc:Work>
    </rdf:RDF>
  </metadata>
  <g
     transform="translate(-14.240891,-239.18574)"
     id="layer1">
    <path
       style="fill:#f4f4f4"
       id="path1227"
       d="m 16.813764,239.57057 c 0.05371,-0.0714 0.04498,-0.22278 0.03731,-0.35639 0,-0.006 -5.29e-4,-0.0114 -7.94e-4,-0.0172 a 2.3741062,2.3741062 0 0 0 -1.070769,0.14234 c 0.186532,0.09 0.475721,0.24421 0.796925,0.47229 0.109538,-0.0942 0.192088,-0.18124 0.237332,-0.24104 z m 1.20597,1.35811 c -0.11721,0.0132 -0.216164,0.0325 -0.300831,0.0595 0.404548,0.70644 0.56224,1.59861 0.600604,2.24525 a 2.371725,2.371725 0 0 0 0.679715,-1.57189 c -0.276225,-0.33946 -0.642144,-0.77099 -0.979488,-0.73289 z m -2.404797,-0.6096 c 0.284162,-0.0593 0.551127,-0.20215 0.764116,-0.35322 -0.444235,-0.30586 -0.814652,-0.46461 -0.888471,-0.49477 a 2.3897167,2.3897167 0 0 0 -1.044045,1.12686 c 0.27887,-0.11113 0.58076,-0.16775 0.877622,-0.22278 0.09578,-0.0177 0.194998,-0.0363 0.290778,-0.0561 z" />
    <path
       style="fill:#f4f4f4"
       id="path1229"
       d="m 17.260116,240.3884 a 2.5310042,2.5310042 0 0 1 0.329935,0.39423 c 0.112448,-0.0423 0.24474,-0.0725 0.40296,-0.0905 0.373063,-0.0423 0.70485,0.25347 0.989542,0.57891 a 2.3706667,2.3706667 0 0 0 -0.587904,-1.29196 c -0.171979,0.0209 -0.363802,0.0561 -0.559329,0.1143 -0.128059,0.0384 -0.332317,0.14234 -0.575204,0.29501 z m -0.313002,1.22925 c 0.09763,-0.33073 0.210608,-0.56885 0.429683,-0.7239 a 2.2259396,2.2259396 0 0 0 -0.213254,-0.26352 c -0.03545,-0.037 -0.07144,-0.073 -0.107157,-0.10848 -0.87921,0.59848 -2.083329,1.69756 -2.192866,2.65006 a 2.3751646,2.3751646 0 0 0 1.42875,0.75195 c 0.205052,-0.40825 0.398198,-1.23825 0.512762,-1.7317 0.0553,-0.23706 0.102659,-0.44185 0.142082,-0.57441 z" />
    <path
       style="fill:#f4f4f4"
       id="path1231"
       d="M 15.950164,241.09325 A 8.4902146,8.4902146 0 0 1 16.87647,240.354 c -0.09869,-0.0873 -0.197644,-0.16774 -0.294746,-0.24156 -0.246062,0.18468 -0.56806,0.36671 -0.918369,0.43973 -0.09816,0.0204 -0.198437,0.0392 -0.295804,0.0572 -0.374385,0.0696 -0.733689,0.13679 -1.035844,0.30533 a 2.3804562,2.3804562 0 0 0 0.336021,2.01137 c 0.173831,-0.68951 0.771261,-1.36181 1.282436,-1.83277 z m 1.131358,-0.87551 c 0.283104,-0.18018 0.527314,-0.30506 0.6858,-0.35242 0.142346,-0.0423 0.281781,-0.0736 0.414073,-0.0961 a 2.3714604,2.3714604 0 0 0 -1.090877,-0.53684 c 0.0093,0.16616 0.01323,0.34872 -0.08678,0.48154 -0.04763,0.0627 -0.128058,0.14923 -0.232568,0.24289 a 5.2916667,5.2916667 0 0 1 0.310356,0.26115 z m 0.09366,1.46738 c -0.03704,0.12594 -0.08387,0.32729 -0.138112,0.56092 -0.160338,0.68897 -0.313531,1.30572 -0.49239,1.69862 0.0254,0.001 0.0508,0.002 0.07646,0.002 0.554567,0 1.064683,-0.1905 1.469496,-0.50853 -0.01588,-0.67654 -0.178329,-1.63327 -0.586846,-2.34368 -0.158486,0.11774 -0.243417,0.30321 -0.328613,0.59055 z" />
  </g>
</svg>
