<?xml version="1.0" encoding="UTF-8" standalone="no"?>
<svg
   xmlns:dc="http://purl.org/dc/elements/1.1/"
   xmlns:cc="http://creativecommons.org/ns#"
   xmlns:rdf="http://www.w3.org/1999/02/22-rdf-syntax-ns#"
   xmlns:svg="http://www.w3.org/2000/svg"
   xmlns="http://www.w3.org/2000/svg"
   width="35.71875mm"
   height="10.58334mm"
   viewBox="0 0 35.718749 10.58334"
   version="1.1"
   id="svg4966">
  <defs
     id="defs4960">
    <linearGradient
       gradientUnits="userSpaceOnUse"
       gradientTransform="matrix(0.19079375,0,0,0.36691107,16.065291,290.56725)"
       id="a"
       x1="17.749964"
       x2="-5.5229688"
       y1="1.2329183"
       y2="13.334771">
      <stop
         offset="0%"
         stop-color="#00A0FF"
         id="stop4472" />
      <stop
         offset=".657%"
         stop-color="#00A1FF"
         id="stop4474" />
      <stop
         offset="26.01%"
         stop-color="#00BEFF"
         id="stop4476" />
      <stop
         offset="51.22%"
         stop-color="#00D2FF"
         id="stop4478" />
      <stop
         offset="76.04%"
         stop-color="#00DFFF"
         id="stop4480" />
      <stop
         offset="100%"
         stop-color="#00E3FF"
         id="stop4482" />
    </linearGradient>
    <linearGradient
       gradientUnits="userSpaceOnUse"
       gradientTransform="matrix(0.30117491,0,0,0.23243748,16.065291,290.56725)"
       id="c"
       x1="13.904049"
       x2="-6.0891705"
       y1="17.411528"
       y2="43.31731">
      <stop
         offset="0%"
         stop-color="#FF3A44"
         id="stop4494" />
      <stop
         offset="100%"
         stop-color="#C31162"
         id="stop4496" />
    </linearGradient>
    <linearGradient
       gradientUnits="userSpaceOnUse"
       gradientTransform="matrix(0.30187627,0,0,0.23189746,16.065291,290.56725)"
       id="d"
       x1="-1.4923472"
       x2="7.4148107"
       y1="-7.7856631"
       y2="3.8092737">
      <stop
         offset="0%"
         stop-color="#32A071"
         id="stop4499" />
      <stop
         offset="6.85%"
         stop-color="#2DA771"
         id="stop4501" />
      <stop
         offset="47.62%"
         stop-color="#15CF74"
         id="stop4503" />
      <stop
         offset="80.09%"
         stop-color="#06E775"
         id="stop4505" />
      <stop
         offset="100%"
         stop-color="#00F076"
         id="stop4507" />
    </linearGradient>
    <linearGradient
       gradientUnits="userSpaceOnUse"
       gradientTransform="matrix(0.28912526,0,0,0.2421246,16.065291,290.56725)"
       id="b"
       x1="22.726364"
       x2="0.58338982"
       y1="14.207348"
       y2="14.207348">
      <stop
         offset="0%"
         stop-color="#FFE000"
         id="stop4485" />
      <stop
         offset="40.87%"
         stop-color="#FFBD00"
         id="stop4487" />
      <stop
         offset="77.54%"
         stop-color="#FFA500"
         id="stop4489" />
      <stop
         offset="100%"
         stop-color="#FF9C00"
         id="stop4491" />
    </linearGradient>
  </defs>
  <metadata
     id="metadata4963">
    <rdf:RDF>
      <cc:Work
         rdf:about="">
        <dc:format>image/svg+xml</dc:format>
        <dc:type
           rdf:resource="http://purl.org/dc/dcmitype/StillImage" />
        <dc:title></dc:title>
      </cc:Work>
    </rdf:RDF>
  </metadata>
  <g
     id="layer1"
     transform="translate(-13.680597,-288.71619)">
    <path
       style="fill:#a6a6a6;"
       d="M 48.07643,288.71619 H 15.003514 c -0.740834,0 -1.322917,0.58209 -1.322917,1.32292 v 7.9375 c 0,0.74083 0.582083,1.32292 1.322917,1.32292 H 48.07643 c 0.740834,0 1.322918,-0.58209 1.322918,-1.32292 v -7.9375 c 0,-0.71438 -0.582084,-1.32292 -1.322918,-1.32292 z"
       id="path4651-9" />
    <path
       style="fill:#000000;"
       d="m 48.079874,288.92683 c 0.608542,0 1.11125,0.50271 1.11125,1.11125 v 7.9375 c 0,0.60854 -0.502708,1.11125 -1.11125,1.11125 H 15.006958 c -0.608542,0 -1.11125,-0.50271 -1.11125,-1.11125 v -7.9375 c 0,-0.60854 0.502708,-1.11125 1.11125,-1.11125 z"
       id="path4651" />
    <path
       style="fill:#ffffff;"
       d="m 31.702166,294.48308 c -0.635,0 -1.137708,0.47625 -1.137708,1.13771 0,0.635 0.502708,1.13771 1.137708,1.13771 0.635,0 1.137708,-0.47625 1.137708,-1.13771 0,-0.68792 -0.502708,-1.13771 -1.137708,-1.13771 z m 0,1.79917 c -0.343958,0 -0.635,-0.29105 -0.635,-0.68792 0,-0.39688 0.291042,-0.68792 0.635,-0.68792 0.343958,0 0.635,0.26459 0.635,0.68792 0,0.39687 -0.291042,0.68792 -0.635,0.68792 z m -2.460625,-1.79917 c -0.635,0 -1.137708,0.47625 -1.137708,1.13771 0,0.635 0.502708,1.13771 1.137708,1.13771 0.635,0 1.137708,-0.47625 1.137708,-1.13771 0,-0.68792 -0.502708,-1.13771 -1.137708,-1.13771 z m 0,1.79917 c -0.343958,0 -0.635,-0.29105 -0.635,-0.68792 0,-0.39688 0.291042,-0.68792 0.635,-0.68792 0.343958,0 0.635,0.26459 0.635,0.68792 0,0.39687 -0.291042,0.68792 -0.635,0.68792 z m -2.936875,-1.45521 v 0.47625 h 1.137708 c -0.02646,0.26458 -0.132291,0.47625 -0.264583,0.60854 -0.15875,0.15875 -0.423333,0.34396 -0.873125,0.34396 -0.714375,0 -1.243542,-0.55563 -1.243542,-1.27 0,-0.71438 0.555625,-1.27 1.243542,-1.27 0.370417,0 0.661458,0.15875 0.873125,0.34396 l 0.343958,-0.34396 c -0.291041,-0.26459 -0.661458,-0.47625 -1.190625,-0.47625 -0.9525,0 -1.772708,0.79375 -1.772708,1.74625 0,0.9525 0.820208,1.74625 1.772708,1.74625 0.529167,0 0.899584,-0.15875 1.217084,-0.50271 0.3175,-0.3175 0.423333,-0.76729 0.423333,-1.11125 0,-0.10583 0,-0.21167 -0.02646,-0.29104 z m 12.012083,0.37041 c -0.105833,-0.26458 -0.370416,-0.71437 -0.9525,-0.71437 -0.582083,0 -1.058333,0.44979 -1.058333,1.13771 0,0.635 0.47625,1.13771 1.11125,1.13771 0.502708,0 0.820208,-0.3175 0.926042,-0.50271 l -0.370417,-0.26459 c -0.132292,0.18521 -0.291042,0.3175 -0.555625,0.3175 -0.264583,0 -0.423333,-0.10583 -0.555625,-0.34395 l 1.508125,-0.635 z m -1.534583,0.37042 c 0,-0.42333 0.343958,-0.66146 0.582083,-0.66146 0.185209,0 0.370417,0.10584 0.423334,0.23813 z m -1.243542,1.08479 h 0.502709 v -3.30729 h -0.502709 z m -0.79375,-1.93146 c -0.132291,-0.13229 -0.343958,-0.26458 -0.608541,-0.26458 -0.555625,0 -1.084792,0.50271 -1.084792,1.13771 0,0.635 0.502708,1.11125 1.084792,1.11125 0.264583,0 0.47625,-0.13229 0.582083,-0.26458 h 0.02646 v 0.15875 c 0,0.42333 -0.238125,0.66145 -0.608541,0.66145 -0.291042,0 -0.502709,-0.21166 -0.555625,-0.39687 l -0.423336,0.18521 c 0.132292,0.29104 0.449792,0.66146 1.005417,0.66146 0.582083,0 1.058333,-0.34396 1.058333,-1.16417 V 294.536 h -0.47625 z m -0.582083,1.56105 c -0.343958,0 -0.635,-0.29105 -0.635,-0.68792 0,-0.39688 0.291042,-0.68792 0.635,-0.68792 0.343958,0 0.608542,0.29104 0.608542,0.68792 0,0.39687 -0.264584,0.68792 -0.608542,0.68792 z m 6.455833,-2.93688 h -1.190625 v 3.30729 h 0.502709 v -1.24354 h 0.687916 c 0.555625,0 1.084792,-0.39687 1.084792,-1.03187 0,-0.635 -0.529167,-1.03188 -1.084792,-1.03188 z m 0.02646,1.5875 h -0.714376 v -1.13771 h 0.714375 c 0.370416,0 0.582083,0.3175 0.582083,0.55563 -0.02646,0.29104 -0.238125,0.58208 -0.582083,0.58208 z m 3.042708,-0.47625 c -0.370417,0 -0.740833,0.15875 -0.873125,0.50271 l 0.449791,0.18521 c 0.105833,-0.18521 0.264583,-0.23813 0.449791,-0.23813 0.264584,0 0.502709,0.15875 0.529167,0.42334 v 0.0265 c -0.07938,-0.0529 -0.291042,-0.13229 -0.502708,-0.13229 -0.47625,0 -0.9525,0.26459 -0.9525,0.74084 0,0.44979 0.396875,0.74083 0.820208,0.74083 0.343958,0 0.502708,-0.15875 0.635,-0.3175 h 0.02646 v 0.26458 h 0.47625 v -1.27 c -0.05292,-0.58208 -0.50271,-0.92604 -1.058335,-0.92604 z m -0.05292,1.82563 c -0.15875,0 -0.396875,-0.0794 -0.396875,-0.29105 0,-0.26458 0.291042,-0.34395 0.529167,-0.34395 0.211667,0 0.3175,0.0529 0.449792,0.10583 -0.05292,0.3175 -0.3175,0.52917 -0.582084,0.52917 z m 2.778125,-1.74625 -0.555625,1.42875 h -0.02646 L 45.248829,294.536 h -0.529167 l 0.873125,2.01083 -0.502708,1.11125 h 0.502708 l 1.349375,-3.12208 z m -4.445,2.11666 h 0.502709 v -3.30729 h -0.502709 z"
       id="path4653" />
    <path
       style="fill:url(#a);"
       d="m 16.435708,290.69954 c -0.07938,0.0794 -0.132292,0.21166 -0.132292,0.37041 v 5.8473 c 0,0.15875 0.05292,0.29104 0.132292,0.37041 l 0.02646,0.0265 3.280833,-3.28083 v -0.0529 z"
       id="path4655" />
    <path
       style="fill:url(#b)"
       d="m 20.854249,295.11812 -1.11125,-1.05837 v -0.0794 l 1.084792,-1.08479 v 0 l 1.322919,0.76733 c 0.370416,0.21167 0.370416,0.55563 0,0.76729 z"
       id="path4657" />
    <path
       style="fill:url(#c);"
       d="m 20.854249,295.11808 -1.11125,-1.11125 -3.307291,3.30729 c 0.132291,0.13229 0.3175,0.13229 0.555625,0.0265 l 3.862916,-2.2225"
       id="path4659" />
    <path
       style="fill:url(#d);"
       d="m 20.854249,292.89558 -3.862916,-2.19604 c -0.238125,-0.13229 -0.423334,-0.10584 -0.555625,0.0265 l 3.307291,3.28083 z"
       id="path4661" />
    <path
       d="m 24.822999,292.4987 h -0.185208 v -0.52916 h 0.15875 c 0.132292,-0.10584 0.211667,-0.3175 0.211667,-0.60854 v -0.79375 h 1.058333 v 1.40229 h 0.185208 v 0.52916 h -0.185208 v -0.34395 h -1.217083 v 0.34395 z m 0.370417,-1.1377 c 0,0.23812 -0.05292,0.44979 -0.15875,0.60854 h 0.79375 v -1.19063 h -0.661458 v 0.58209 z m 2.619375,0.58208 c -0.15875,0.15875 -0.343958,0.23812 -0.582083,0.23812 -0.238125,0 -0.423334,-0.0794 -0.582084,-0.23812 -0.15875,-0.15875 -0.238125,-0.34396 -0.238125,-0.58208 0,-0.23813 0.07938,-0.42334 0.238125,-0.58209 0.15875,-0.15875 0.343959,-0.23812 0.582084,-0.23812 0.238125,0 0.423333,0.0794 0.582083,0.23812 0.15875,0.15875 0.238125,0.34396 0.238125,0.58209 0,0.23812 -0.07938,0.42333 -0.238125,0.58208 z m -1.005417,-0.13229 c 0.105834,0.10583 0.264584,0.18521 0.423334,0.18521 0.15875,0 0.3175,-0.0529 0.423333,-0.18521 0.105833,-0.10584 0.185208,-0.26459 0.185208,-0.44979 0,-0.18521 -0.05292,-0.34396 -0.185208,-0.4498 -0.105833,-0.10583 -0.264583,-0.1852 -0.423333,-0.1852 -0.15875,0 -0.3175,0.0529 -0.423334,0.1852 -0.105833,0.10584 -0.185208,0.26459 -0.185208,0.4498 0,0.1852 0.05292,0.34395 0.185208,0.44979 z m 2.275417,0.37041 c -0.238125,0 -0.423333,-0.0794 -0.582083,-0.23812 -0.15875,-0.15875 -0.238125,-0.34396 -0.238125,-0.58208 0,-0.23813 0.07937,-0.42334 0.238125,-0.58209 0.15875,-0.15875 0.343958,-0.23812 0.582083,-0.23812 0.238125,0 0.423333,0.0794 0.582083,0.26458 l -0.132291,0.13229 c -0.105834,-0.13229 -0.264584,-0.21166 -0.449792,-0.21166 -0.185208,0 -0.3175,0.0529 -0.449792,0.1852 -0.132291,0.10584 -0.185208,0.26459 -0.185208,0.4498 0,0.1852 0.05292,0.34395 0.185208,0.44979 0.105834,0.10583 0.264584,0.18521 0.449792,0.18521 0.185208,0 0.343958,-0.0794 0.47625,-0.23813 l 0.132292,0.13229 c -0.07937,0.0794 -0.15875,0.15875 -0.264584,0.21167 -0.105833,0.0529 -0.211666,0.0794 -0.343958,0.0794 z m 1.455208,-0.0265 h -0.211666 v -1.4023 h -0.449792 v -0.1852 h 1.084792 v 0.1852 h -0.449792 v 1.4023 z m 1.825625,-1.5875 -0.608541,1.34937 c -0.07937,0.18521 -0.211667,0.29104 -0.370417,0.29104 -0.05292,0 -0.105833,0 -0.15875,-0.0265 l 0.05292,-0.1852 c 0.02646,0.0265 0.07937,0.0265 0.105833,0.0265 0.05292,0 0.07938,0 0.105833,-0.0265 0.02646,-0.0265 0.05292,-0.0529 0.07938,-0.10584 l 0.05291,-0.13229 -0.529167,-1.16417 h 0.238125 l 0.396874,0.89959 0.370417,-0.89959 h 0.264583 z m 0.238125,1.5875 v -1.5875 h 1.137709 v 1.5875 h -0.211667 v -1.4023 h -0.740833 v 1.4023 z m 1.508125,0 v -1.5875 h 0.211667 v 0.68791 h 0.79375 v -0.68791 h 0.211667 v 1.5875 h -0.211667 v -0.71438 h -0.79375 v 0.71438 z m 2.883959,-0.21167 c -0.15875,0.15875 -0.343959,0.23812 -0.582084,0.23812 -0.238125,0 -0.423333,-0.0794 -0.582083,-0.23812 -0.15875,-0.15875 -0.238125,-0.34396 -0.238125,-0.58208 0,-0.23813 0.07938,-0.42334 0.238125,-0.58209 0.15875,-0.15875 0.343958,-0.23812 0.582083,-0.23812 0.238125,0 0.423334,0.0794 0.582084,0.23812 0.15875,0.15875 0.238125,0.34396 0.238125,0.58209 -0.02646,0.23812 -0.105834,0.42333 -0.238125,0.58208 z m -1.031875,-0.13229 c 0.105833,0.10583 0.264583,0.18521 0.423333,0.18521 0.15875,0 0.3175,-0.0529 0.423333,-0.18521 0.105834,-0.10584 0.185209,-0.26459 0.185209,-0.44979 0,-0.18521 -0.05292,-0.34396 -0.185209,-0.4498 -0.105833,-0.10583 -0.264583,-0.1852 -0.423333,-0.1852 -0.15875,0 -0.3175,0.0529 -0.423333,0.1852 a 0.63843958,0.63843958 0 0 0 0,0.89959 z m 2.090208,0.34396 v -1.5875 h 0.582083 c 0.132292,0 0.238125,0.0529 0.3175,0.13229 0.07937,0.0794 0.132292,0.18521 0.132292,0.3175 0,0.0794 -0.02646,0.13229 -0.05292,0.21166 -0.02646,0.0529 -0.07938,0.10584 -0.15875,0.1323 0.07937,0.0265 0.132292,0.0794 0.185209,0.13229 0.05292,0.0529 0.07937,0.13229 0.07937,0.23812 0,0.13229 -0.05292,0.23813 -0.132292,0.3175 -0.105833,0.0794 -0.211667,0.13229 -0.343958,0.13229 h -0.608534 z m 0.211667,-0.89959 h 0.370416 c 0.07937,0 0.132292,-0.0265 0.185209,-0.0794 0.05292,-0.0529 0.07937,-0.10584 0.07937,-0.15875 0,-0.0529 -0.02646,-0.10584 -0.07937,-0.15875 -0.05292,-0.0529 -0.105834,-0.0794 -0.185209,-0.0794 h -0.370416 z m 0,0.71438 h 0.423333 c 0.07937,0 0.132292,-0.0265 0.185208,-0.0794 0.05292,-0.0529 0.07937,-0.10583 0.07937,-0.18521 0,-0.0529 -0.02646,-0.13229 -0.07937,-0.1852 -0.05292,-0.0529 -0.105833,-0.0794 -0.185208,-0.0794 h -0.396875 v 0.52917 z"
       id="path4673"
       style="fill:#ffffff;" />
  </g>
</svg>
