<?xml version="1.0" encoding="UTF-8" standalone="no"?>
<svg
   xmlns:dc="http://purl.org/dc/elements/1.1/"
   xmlns:cc="http://creativecommons.org/ns#"
   xmlns:rdf="http://www.w3.org/1999/02/22-rdf-syntax-ns#"
   xmlns:svg="http://www.w3.org/2000/svg"
   xmlns="http://www.w3.org/2000/svg"
   id="svg6341"
   version="1.1"
   viewBox="0 0 37.041672 14.155208"
   height="14.155208mm"
   width="37.041672mm">
  <defs
     id="defs6335" />
  <metadata
     id="metadata6338">
    <rdf:RDF>
      <cc:Work
         rdf:about="">
        <dc:format>image/svg+xml</dc:format>
        <dc:type
           rdf:resource="http://purl.org/dc/dcmitype/StillImage" />
        <dc:title></dc:title>
      </cc:Work>
    </rdf:RDF>
  </metadata>
  <g
     transform="translate(-212.04464,-60.112872)"
     id="layer1">
    <path
       id="Combined-Shape"
       d="m 212.57381,62.890997 h 30.48 v 5.027083 h -30.48 z m -0.52917,5.55625 h 37.04167 v 5.820833 h -37.04167 z"
       style="fill:#f5a623;stroke-width:0.26458332" />
    <path
       id="path6259"
       d="m 212.04464,68.447247 h 34.39584 v 5.820833 h -34.39584 z m 0,-5.55625 h 25.98209 v 5.027083 h -25.98209 z"
       style="fill:#ffffff;stroke-width:0.26458332" />
    <polygon
       points="36.27667,11 35.774915,7.924642 37.9,5.7467773 34.963335,5.2980306 33.65,2.5 32.336665,5.2980306 29.4,5.7467773 31.525,7.924642 31.02333,11 33.65,9.5480306 "
       id="polygon6261"
       style="fill:#f5a623"
       transform="matrix(0.26458333,0,0,0.26458333,212.04464,59.451414)" />
    <path
       id="реитинг"
       d="m 213.91789,63.687393 h 0.56621 v 0.243417 c 0.16581,-0.190501 0.35983,-0.28575 0.58208,-0.28575 0.2787,0 0.46479,0.119061 0.55828,0.357187 0.0935,0.238126 0.14022,0.501825 0.14022,0.791104 v 0.740834 c 0,0.373946 -0.0573,0.67645 -0.17197,0.90752 -0.11466,0.231071 -0.31133,0.346605 -0.59003,0.346605 -0.17991,0 -0.35277,-0.08996 -0.51858,-0.269875 v 1.232958 h -0.56621 z m 0.97367,2.656417 c 0.13053,0 0.21431,-0.06615 0.25135,-0.198438 0.037,-0.132292 0.0556,-0.336019 0.0556,-0.611187 v -0.740834 c 0,-0.225779 -0.0212,-0.39952 -0.0635,-0.521229 -0.0423,-0.121709 -0.13053,-0.182562 -0.26459,-0.182562 -0.13053,0 -0.25929,0.05292 -0.38629,0.15875 v 1.957916 c 0.12347,0.09172 0.25929,0.137584 0.40746,0.137584 z m 2.98185,0.4445 c -0.23636,0 -0.4198,-0.04498 -0.55033,-0.134938 -0.13053,-0.08996 -0.22225,-0.223131 -0.27517,-0.399521 -0.0529,-0.176389 -0.0794,-0.405693 -0.0794,-0.687916 v -0.6985 c 0,-0.423336 0.0661,-0.732895 0.19844,-0.928688 0.13229,-0.195793 0.36776,-0.293687 0.70643,-0.293687 0.24695,0 0.43304,0.05115 0.55827,0.153458 0.12524,0.102306 0.20814,0.246061 0.24871,0.431271 0.0406,0.185209 0.0609,0.434797 0.0609,0.748771 v 0.248708 h -1.2065 v 0.613833 c 0,0.186973 0.0273,0.32191 0.082,0.404813 0.0547,0.0829 0.14199,0.124354 0.26194,0.124354 0.11994,0 0.20108,-0.04145 0.24341,-0.124354 0.0423,-0.0829 0.0635,-0.20902 0.0635,-0.378354 v -0.185209 h 0.55034 v 0.116417 c 0,0.321029 -0.0688,0.566207 -0.20638,0.735542 -0.13758,0.169334 -0.3563,0.254 -0.65617,0.254 z m 0.31221,-1.867959 v -0.275166 c 0,-0.20814 -0.0203,-0.357188 -0.0608,-0.447146 -0.0406,-0.08996 -0.12612,-0.134938 -0.25665,-0.134938 -0.0917,0 -0.16139,0.02117 -0.20902,0.0635 -0.0476,0.04233 -0.0803,0.112007 -0.0979,0.209021 -0.0176,0.09701 -0.0265,0.237242 -0.0265,0.420688 v 0.164041 z m 1.80711,-1.232958 h 0.58208 v 1.8415 l 0.86254,-1.8415 h 0.56092 v 3.058583 h -0.58738 v -1.8415 l -0.84137,1.8415 h -0.57679 z m 3.65918,0.423333 h -0.5715 v -0.423333 h 1.7145 v 0.423333 h -0.57679 v 2.63525 h -0.56621 z m 2.23573,-0.423333 h 0.47625 v 2.058458 l 0.92075,-2.058458 h 0.4445 v 3.058583 h -0.46566 v -2.074333 l -0.91546,2.074333 h -0.46038 z m 3.16706,0 h 0.56621 v 1.285875 h 0.72496 v -1.285875 h 0.56621 v 3.058583 h -0.56621 v -1.359958 h -0.72496 v 1.359958 h -0.56621 z m 3.17765,0 h 1.23296 v 0.407458 h -0.66675 v 2.651125 h -0.56621 z"
       style="fill:#22175c;stroke-width:0.26458332" />
    <path
       id="букмекеров"
       d="m 214.75927,72.926643 c -0.26811,0 -0.47713,-0.09084 -0.62706,-0.272521 -0.14994,-0.181681 -0.2249,-0.443616 -0.2249,-0.785813 v -1.799166 c 0,-0.268113 0.0203,-0.485951 0.0609,-0.653521 0.0406,-0.16757 0.10407,-0.300742 0.1905,-0.399521 0.0864,-0.09878 0.20197,-0.178152 0.34661,-0.238125 0.10583,-0.04233 0.26987,-0.09172 0.49212,-0.148166 0.127,-0.03175 0.23195,-0.06086 0.31486,-0.08731 0.0829,-0.02646 0.16845,-0.06614 0.25664,-0.119062 l 0.11642,0.470958 c -0.0776,0.04586 -0.16051,0.0829 -0.24871,0.111125 -0.0882,0.02822 -0.19403,0.05644 -0.3175,0.08467 -0.0176,0.0035 -0.0759,0.01764 -0.17462,0.04233 -0.0988,0.02469 -0.18698,0.05468 -0.26459,0.08996 -0.10583,0.05292 -0.18609,0.130527 -0.24077,0.232833 -0.0547,0.102306 -0.082,0.238124 -0.082,0.407459 v 0.492125 c 0.0741,-0.07056 0.17551,-0.134056 0.30427,-0.1905 0.12877,-0.05645 0.24959,-0.08467 0.36248,-0.08467 0.20814,0 0.37659,0.08643 0.50536,0.259292 0.12876,0.172862 0.19314,0.451553 0.19314,0.836083 v 0.582084 c 0,0.306918 -0.0397,0.545922 -0.11906,0.71702 -0.0794,0.171098 -0.18874,0.289278 -0.32808,0.354542 -0.13935,0.06526 -0.31133,0.0979 -0.51594,0.0979 z m 0.0635,-0.418042 c 0.11641,0 0.2002,-0.0441 0.25135,-0.132292 0.0512,-0.08819 0.0767,-0.23636 0.0767,-0.4445 v -0.926041 c 0,-0.194029 -0.0203,-0.332493 -0.0608,-0.415396 -0.0406,-0.0829 -0.11025,-0.124354 -0.20902,-0.124354 -0.11642,0 -0.25224,0.05292 -0.40746,0.15875 v 1.259416 c 0,0.225779 0.0265,0.386292 0.0794,0.481542 0.0529,0.09525 0.14288,0.142875 0.26988,0.142875 z m 2.11402,0.709083 c 0.21167,0 0.35719,-0.01588 0.43656,-0.04763 0.0794,-0.03175 0.11906,-0.09172 0.11906,-0.179916 0,-0.04233 -0.0388,-0.229304 -0.11641,-0.560917 l -0.61384,-2.603495 h 0.5715 l 0.41275,2.286 0.39688,-2.286 h 0.5715 l -0.73025,3.227917 c -0.0494,0.215195 -0.15346,0.368652 -0.31221,0.460375 -0.15875,0.09172 -0.381,0.137583 -0.66675,0.137583 h -0.0688 z m 2.87073,-3.391958 h 0.56621 v 1.291167 h 0.15875 l 0.57679,-1.291167 h 0.58208 l -0.64029,1.481667 0.65087,1.576916 h -0.59266 l -0.57679,-1.42875 h -0.15875 v 1.42875 h -0.56621 z m 2.96068,0 h 0.41805 l 0.67733,1.878542 0.68262,-1.878542 h 0.41805 l 0.0318,3.058583 h -0.47625 v -1.825625 l -0.56621,1.524 h -0.17463 l -0.56621,-1.513416 v 1.815041 h -0.47625 z m 4.37886,3.100917 c -0.23636,0 -0.41981,-0.04498 -0.55033,-0.134938 -0.13053,-0.08996 -0.22225,-0.223131 -0.27517,-0.399521 -0.0529,-0.176389 -0.0794,-0.405693 -0.0794,-0.687916 v -0.6985 c 0,-0.423336 0.0661,-0.732895 0.19844,-0.928688 0.13229,-0.195792 0.36777,-0.293687 0.70643,-0.293687 0.24695,0 0.43304,0.05115 0.55827,0.153458 0.12524,0.102306 0.20814,0.246062 0.24871,0.431271 0.0406,0.185209 0.0609,0.434797 0.0609,0.748771 v 0.248708 h -1.2065 v 0.613833 c 0,0.186974 0.0273,0.32191 0.082,0.404813 0.0547,0.0829 0.142,0.124354 0.26194,0.124354 0.11995,0 0.20108,-0.04145 0.24342,-0.124354 0.0423,-0.0829 0.0635,-0.20902 0.0635,-0.378354 v -0.185209 h 0.55033 v 0.116417 c 0,0.321029 -0.0688,0.566207 -0.20637,0.735542 -0.13759,0.169334 -0.35631,0.254 -0.65617,0.254 z m 0.31221,-1.867959 v -0.275166 c 0,-0.20814 -0.0203,-0.357187 -0.0609,-0.447146 -0.0406,-0.08996 -0.12612,-0.134938 -0.25665,-0.134938 -0.0917,0 -0.16139,0.02117 -0.20902,0.0635 -0.0476,0.04233 -0.0803,0.112006 -0.0979,0.20902 -0.0176,0.09701 -0.0265,0.237242 -0.0265,0.420688 v 0.164041 z m 1.81768,-1.232958 h 0.56621 v 1.291167 h 0.15875 l 0.57679,-1.291167 h 0.58209 l -0.64029,1.481667 0.65087,1.576916 h -0.59267 l -0.57679,-1.42875 h -0.15875 v 1.42875 h -0.56621 z m 3.79148,3.100917 c -0.23636,0 -0.4198,-0.04498 -0.55033,-0.134938 -0.13053,-0.08996 -0.22225,-0.223131 -0.27517,-0.399521 -0.0529,-0.176389 -0.0794,-0.405693 -0.0794,-0.687916 v -0.6985 c 0,-0.423336 0.0662,-0.732895 0.19844,-0.928688 0.13229,-0.195792 0.36777,-0.293687 0.70644,-0.293687 0.24695,0 0.43303,0.05115 0.55827,0.153458 0.12524,0.102306 0.20814,0.246062 0.24871,0.431271 0.0406,0.185209 0.0609,0.434797 0.0609,0.748771 v 0.248708 h -1.2065 v 0.613833 c 0,0.186974 0.0273,0.32191 0.082,0.404813 0.0547,0.0829 0.14199,0.124354 0.26194,0.124354 0.11994,0 0.20108,-0.04145 0.24341,-0.124354 0.0423,-0.0829 0.0635,-0.20902 0.0635,-0.378354 v -0.185209 h 0.55034 v 0.116417 c 0,0.321029 -0.0688,0.566207 -0.20638,0.735542 -0.13758,0.169334 -0.3563,0.254 -0.65617,0.254 z m 0.31221,-1.867959 v -0.275166 c 0,-0.20814 -0.0203,-0.357187 -0.0608,-0.447146 -0.0406,-0.08996 -0.12612,-0.134938 -0.25664,-0.134938 -0.0917,0 -0.1614,0.02117 -0.20902,0.0635 -0.0476,0.04233 -0.0803,0.112006 -0.0979,0.20902 -0.0176,0.09701 -0.0265,0.237242 -0.0265,0.420688 v 0.164041 z m 1.81769,-1.232958 h 0.56621 v 0.243417 c 0.1658,-0.190501 0.35983,-0.28575 0.58208,-0.28575 0.2787,0 0.46479,0.119061 0.55827,0.357187 0.0935,0.238126 0.14023,0.501825 0.14023,0.791104 v 0.740834 c 0,0.373946 -0.0573,0.67645 -0.17198,0.907521 -0.11465,0.23107 -0.31132,0.346604 -0.59002,0.346604 -0.17992,0 -0.35278,-0.08996 -0.51858,-0.269875 v 1.232958 h -0.56621 z m 0.97367,2.656417 c 0.13052,0 0.21431,-0.06614 0.25135,-0.198438 0.037,-0.132292 0.0556,-0.336019 0.0556,-0.611187 v -0.740834 c 0,-0.225779 -0.0212,-0.39952 -0.0635,-0.521229 -0.0423,-0.121709 -0.13053,-0.182562 -0.26458,-0.182562 -0.13053,0 -0.25929,0.05292 -0.38629,0.15875 v 1.957916 c 0.12347,0.09172 0.25929,0.137584 0.40745,0.137584 z m 2.97656,0.4445 c -0.32456,0 -0.55474,-0.09613 -0.69056,-0.288396 -0.13582,-0.192265 -0.20373,-0.471839 -0.20373,-0.838729 v -0.889 c 0,-0.366891 0.0679,-0.646465 0.20373,-0.838729 0.13582,-0.192265 0.366,-0.288396 0.69056,-0.288396 0.32103,0 0.54945,0.09613 0.68527,0.288396 0.13582,0.192264 0.20373,0.471838 0.20373,0.838729 v 0.889 c 0,0.36689 -0.0679,0.646464 -0.20373,0.838729 -0.13582,0.192265 -0.36424,0.288396 -0.68527,0.288396 z m 0,-0.418042 c 0.10231,0 0.17639,-0.02999 0.22225,-0.08996 0.0459,-0.05997 0.0741,-0.134055 0.0847,-0.22225 0.0106,-0.08819 0.0159,-0.208138 0.0159,-0.359834 v -0.957791 c 0,-0.151695 -0.005,-0.272521 -0.0159,-0.362479 -0.0106,-0.08996 -0.0388,-0.164924 -0.0847,-0.224896 -0.0459,-0.05997 -0.11994,-0.08996 -0.22225,-0.08996 -0.10231,0 -0.17727,0.02999 -0.2249,0.08996 -0.0476,0.05997 -0.0767,0.134937 -0.0873,0.224896 -0.0106,0.08996 -0.0159,0.210784 -0.0159,0.362479 v 0.957791 c 0,0.151696 0.005,0.271639 0.0159,0.359834 0.0106,0.0882 0.0397,0.162277 0.0873,0.22225 0.0476,0.05997 0.12259,0.08996 0.2249,0.08996 z m 2.15635,-2.682875 h 0.85725 c 0.29281,0 0.50359,0.07055 0.63236,0.211667 0.12876,0.141112 0.19314,0.32279 0.19314,0.545041 0,0.162279 -0.03,0.297215 -0.09,0.404813 -0.06,0.107598 -0.16404,0.184326 -0.3122,0.230187 0.17286,0.03528 0.29545,0.123472 0.36777,0.264584 0.0723,0.141112 0.10848,0.312207 0.10848,0.513291 0,0.28928 -0.0653,0.509763 -0.1958,0.661459 -0.13053,0.151695 -0.3563,0.227541 -0.67733,0.227541 h -0.88371 z m 0.83079,1.232958 c 0.11642,0 0.20462,-0.03351 0.26459,-0.100541 0.06,-0.06703 0.09,-0.178152 0.09,-0.333375 0,-0.137584 -0.0353,-0.236361 -0.10583,-0.296334 -0.0706,-0.05997 -0.17286,-0.08996 -0.30692,-0.08996 h -0.21696 v 0.820208 z m -0.0741,1.397 c 0.14111,0 0.25048,-0.03351 0.32809,-0.100541 0.0776,-0.06703 0.11641,-0.194027 0.11641,-0.381 0,-0.151695 -0.0177,-0.263701 -0.0529,-0.336021 -0.0353,-0.07232 -0.0811,-0.119063 -0.13758,-0.140229 -0.0564,-0.02117 -0.13229,-0.03175 -0.22754,-0.03175 h -0.22754 v 0.989541 z"
       style="fill:#22175c;stroke-width:0.26458332" />
  </g>
</svg>
