<?xml version="1.0" encoding="UTF-8"?>
<svg width="536px" height="387px" viewBox="0 0 536 387" version="1.1" xmlns="http://www.w3.org/2000/svg" xmlns:xlink="http://www.w3.org/1999/xlink">
    <!-- Generator: Sketch 49.3 (51167) - http://www.bohemiancoding.com/sketch -->
    <title>football</title>
    <desc>Created with Sketch.</desc>
    <defs>
        <rect id="path-1" x="0" y="0" width="1011" height="485"></rect>
        <polygon id="path-3" points="0 0.392975258 582.619834 0.392975258 582.619834 120.9146 0 120.9146"></polygon>
    </defs>
    <g id="Symbols" stroke="none" stroke-width="1" fill="none" fill-rule="evenodd">
        <g id="match-head" transform="translate(-1068.000000, -213.000000)">
            <g id="illustration" transform="translate(1278.000000, 348.000000) scale(-1, 1) translate(-1278.000000, -348.000000) translate(723.000000, 95.500000)">
                <g id="football" transform="translate(0.500000, 19.500000)">
                    <mask id="mask-2" fill="white">
                        <use xlink:href="#path-1"></use>
                    </mask>
                    <use id="Mask" fill-opacity="0" fill="#000000" xlink:href="#path-1"></use>
                    <g mask="url(#mask-2)">
                        <g transform="translate(37.000000, 32.000000)">
                            <g transform="translate(378.416321, 373.844424) rotate(9.000000) translate(-378.416321, -373.844424) translate(46.916321, 47.844424)">
                                <g id="Group-3" transform="translate(0.000000, 530.684536)">
                                    <mask id="mask-4" fill="white">
                                        <use xlink:href="#path-3"></use>
                                    </mask>
                                    <g id="Clip-2"></g>
                                </g>
                                <path d="M304.152983,397.293667 C304.152983,397.293667 276.753243,382.617501 279.56209,375.24713 C280.647366,371.82112 285.786774,365.785898 305.28,365.625331 L304.152983,397.293667 Z" id="Fill-6" fill="#29235C"></path>
                                <path d="M124.122943,116.366223 C120.419602,118.617214 119.920643,124.393473 122.878137,124.717293 C125.787289,125.037613 126.495154,123.204964 134.117649,121.531599 C135.845875,120.89271 145.92,113.238292 145.92,113.238292 C145.92,113.238292 127.986849,114.017211 124.122943,116.366223" id="Fill-8" fill="#E36627"></path>
                                <path d="M431.04,177.164189 C431.04,177.164189 441.283961,193.111054 448.746105,184.662245 C452.291491,180.140078 450.951776,162.180265 450.951776,162.180265 L431.04,177.164189 Z" id="Fill-10" fill="#662482"></path>
                                <path d="M334.135886,174.579782 C334.135886,174.579782 323.058607,192.509675 309.12,228.928695 C340.230031,235.746185 375.628598,236.854328 379.886033,232.614476 C385.480828,219.110272 392.160715,205.640483 398.4,193.948196 L379.689057,171.77673 L334.135886,174.579782 Z" id="Fill-12" fill="#94C01F"></path>
                                <path d="M454.607965,94.2793264 C441.66663,76.2349835 405.22951,64.2756823 405.22951,64.2756823 C405.22951,64.2756823 353.545346,46.5285079 335.301743,59.3551262 C325.001179,66.5977426 320.052971,86.6946208 308.16,110.518198 C311.503711,117.420453 318.887163,129.816869 333.035757,141.85219 C351.008202,157.139086 368.184443,159.83779 373.890858,159.83779 C379.597274,159.83779 385.868458,156.18711 385.868458,156.18711 C385.868458,156.18711 388.616311,161.017825 394.495439,163.056538 C401.657819,165.535822 410.428151,163.351979 419.15876,159.068953 C419.15876,159.068953 474.36971,121.833059 454.607965,94.2793264" id="Fill-14" fill="#DDDB00"></path>
                                <path d="M394.00398,162.735925 C388.148301,160.705145 385.412211,155.887423 385.412211,155.887423 C385.412211,155.887423 379.169592,159.528704 373.487605,159.528704 C367.805618,159.528704 350.702907,156.836499 332.8074,141.597892 C318.719375,129.599234 311.36753,117.238858 308.036414,110.359352 C291.630193,143.266956 277.186184,185.977082 270.72,214.998816 C279.678072,221.21173 293.943229,225.981223 309.250543,229.355523 C323.121883,192.89965 334.147069,174.949891 334.147069,174.949891 L379.486022,172.144003 L398.108975,194.339627 C409.008621,173.80101 418.56,158.762209 418.56,158.762209 C409.868486,163.032188 401.133979,165.209378 394.00398,162.735925" id="Fill-16" fill="#C7D319"></path>
                                <path d="M451.657276,91.3278907 C427.246464,81.9265206 420.984967,134.743033 420.984967,134.743033 C420.984967,134.743033 418.935403,138.786929 415.638052,144.367918 C415.343026,144.868246 415.035852,145.38233 414.72,145.90673 C422.819336,147.576212 444.238235,153.39619 449.118315,168.897791 C457.146498,158.028101 464.032756,145.30496 465.999018,132.177772 C468.053789,118.445376 464.725199,104.274547 451.657276,91.3278907" id="Fill-18" fill="#E5007D"></path>
                                <polygon id="Fill-20" fill="#F29100" points="398.347373 47.982327 389.76 65.7297794 394.571949 122.834757 425.782691 106.913895 441.6 82.5107184"></polygon>
                                <path d="M400.61878,15.1622609 C392.270275,27.9233758 392.980018,39.2780792 394.662436,48.2956579 C396.344854,57.3132366 399.390048,61.4376758 399.390048,61.4376758 L398.254115,75.4638715 L414.786148,105.505232 L431.385204,107.480412 L453.077913,74.2436028 L454.648628,65.5293677 L458.877872,57.5958977 C458.877872,57.5958977 464.471611,43.0233389 462.16022,29.3952818 C459.001605,10.7706725 418.035844,-11.46476 400.61878,15.1622609" id="Fill-22" fill="#F8B133"></path>
                                <path d="M330.24,176.378491 L342.772096,194.758427 C342.772096,194.758427 402.518581,208.80498 417.237474,201.174196 C431.954636,193.541673 422.331344,167.925529 401.290996,165.059205 C384.056333,170.397277 330.24,176.378491 330.24,176.378491" id="Fill-24" fill="#F8B133"></path>
                                <path d="M329.28,178.416573 L309.765683,177.222833 C309.765683,177.222833 299.511933,178.457737 294.42273,176.850647 C289.170851,175.192103 286.08,174.79419 286.08,178.267356 C286.08,182.071544 291.143517,184.608241 294.273753,184.982143 C295.867982,185.170808 300.123254,186.026665 304.770661,186.868801 C309.887262,187.796693 326.300453,192.888954 326.300453,192.888954 L329.28,178.416573 Z" id="Fill-26" fill="#F29100"></path>
                                <path d="M143.04,83.6432216 L151.098663,105.561119 C151.098663,105.561119 192.539007,87.2286897 235.455588,82.0401037 C240.797419,82.0401037 241.528607,47.4782595 237.124152,46.0630339 C195.813759,51.1654308 143.04,83.6432216 143.04,83.6432216" id="Fill-28" fill="#F29100"></path>
                                <path d="M143.623288,83.7940551 C143.623288,83.7940551 131.916718,82.8313609 126.971134,84.3277411 C122.023818,85.8224053 116.612257,88.9610285 114.781265,91.6122985 C112.948541,94.2652845 113.866635,97.1310585 113.866635,97.1310585 C113.866635,97.1310585 112.34052,97.7728546 111.392977,98.7098083 C109.530804,100.556259 111.107155,104.298926 111.107155,104.298926 C111.107155,104.298926 110.284335,104.643848 109.014593,106.677347 C107.744851,108.709129 108.933177,111.518274 110.530315,112.319661 C112.129185,113.121048 113.404123,113.287503 113.404123,113.287503 C113.404123,113.287503 112.801299,115.981674 115.952269,117.852149 C120.289832,120.426198 131.805854,117.852149 131.805854,117.852149 L145.773015,113.062703 L151.68,105.613406 L143.623288,83.7940551 Z" id="Fill-30" fill="#F29100"></path>
                                <polygon id="Fill-32" fill="#F29100" points="413.76 56.4438366 425.978401 53.7402062 438.72 61.5814303 436.744058 66.6633507 426.280112 70.0541973 417.70142 65.5411875"></polygon>
                                <polygon id="Fill-34" fill="#F29100" points="442.56 64.9638736 444.594917 61.1455336 453.246279 56.6191458 458.88 57.8032065 454.710199 65.6565662 448.998538 71.0138439 443.269934 69.6011605"></polygon>
                                <polygon id="Fill-36" fill="#F29100" points="444.42644 78.872246 442.784718 80.5451363 438.200121 79.095298 434.827605 79.8759801 430.131231 78.0410286 425.780667 79.1353777 434.370018 82.8819549 433.318617 87.822209 429.958326 86.7627118 420.48 87.7734163 431.08832 92.14907 439.041941 92.7624631 432.778945 97.1172056 429.00997 96.7373201 427.099284 98.7238773 429.015209 100.77491 426.50023 106.886188 431.523202 107.480412 442.262511 91.1104839 448.286234 81.9270133 447.075901 74.5227313 449.28 70.5374187 443.375039 69.0945508"></polygon>
                                <path d="M462.650768,35.5480602 L445.730448,43.5465556 L419.647187,25.4098945 L416.049436,39.6269674 L407.614345,46.5359269 L403.656992,56.2680864 L398.651952,51.1630283 L390.754535,62.377025 C390.754535,62.377025 389.240056,41.7306625 389.948887,35.4589787 C390.659448,29.1855818 394.924537,-1.08844074 426.732042,0.0302179707 C465.964986,3.68941399 462.650768,35.5480602 462.650768,35.5480602" id="Fill-38" fill="#624E42"></path>
                                <path d="M319.345824,195.341371 C316.419071,195.802325 311.332623,193.305353 312.798556,188.961167 C309.408159,188.961167 305.555822,185.27184 308.097342,182.118308 C303.399536,182.118308 302.808049,176.574963 302.808049,176.574963 L289.9692,184.458794 C289.9692,184.458794 288.574858,190.543036 289.064071,192.614774 C289.553284,194.686512 291.803321,195.722381 292.236283,195.722381 C291.223766,201.161969 295.340312,202.74724 297.859672,202.230155 C297.859672,206.968958 303.859771,206.489295 305.78594,206.489295 C307.713813,210.261967 313.086629,209.202285 314.165624,208.559332 C315.244619,207.91808 324.48,202.42066 324.48,202.42066 C324.48,202.42066 317.34295,200.338717 319.345824,195.341371" id="Fill-40" fill="#F29100"></path>
                                <path d="M330.362056,176.574963 L303.36,176.574963 C303.36,176.574963 303.952457,182.132198 308.659676,182.132198 C306.11228,185.291926 309.970937,188.992202 313.366895,188.992202 C311.900265,193.345568 316.993349,195.850501 319.924903,195.388393 C317.918744,200.39826 325.067502,202.48542 325.067502,202.48542 C325.067502,202.48542 335.576364,200.239676 338.304741,198.783439 C341.033118,197.327201 342.72,194.605708 342.72,194.605708 L330.362056,176.574963 Z" id="Fill-42" fill="#F8B133"></path>
                                <path d="M414.907718,145.866274 C411.295516,151.917936 406.443407,159.370798 401.214991,165.488277 C390.454686,178.081761 413.770126,202.823602 417.186371,201.47263 C418.736687,200.859496 435.6445,187.64595 449.28,169.028516 C444.401879,153.410933 423.000924,147.548061 414.907718,145.866274" id="Fill-44" fill="#F8B133"></path>
                                <path d="M448.969624,168.16421 C450.368025,172.66553 450.397087,177.979494 448.32,184.252135 C464.584535,156.660072 465.6,131.471576 465.6,131.471576 L465.59829,131.471576 C463.661385,144.587255 456.876233,157.302627 448.969624,168.16421" id="Fill-46" fill="#BD1622"></path>
                                <path d="M267.84,46.6543416 C251.073788,45.6455462 241.599181,46.0898343 236.6198,46.7832723 C228.990493,47.8443369 217.053763,78.3416681 234.960581,83.1469491 C240.64121,84.6697249 248.253287,87.1734192 256.587289,90.2067747 C254.085538,72.6913684 261.475352,54.3239744 267.84,46.6543416" id="Fill-48" fill="#F29100"></path>
                                <path d="M263.391779,105.568453 C282.826617,105.568453 309.12,111.318999 309.12,111.318999 C296.481763,104.433679 275.202379,95.6332151 257.28,89.2471281 C258.105916,94.9158878 260.000361,100.492639 263.391779,105.568453" id="Fill-50" fill="#1E70B7"></path>
                                <path d="M363.194719,54.8522307 C320.475535,47.9075735 294.285824,47.93348 273.963405,46.4533578 C271.887339,46.3031004 269.926419,46.1752952 268.041117,46.0630339 C261.692617,53.6657151 254.321551,71.8727721 256.818674,89.2352786 C274.719588,95.7084383 295.973487,104.628895 308.594868,111.606367 C366.716126,119.214229 374.673234,59.8452683 363.194719,54.8522307" id="Fill-52" fill="#009EE2"></path>
                                <path d="M410.88,283.095729 C410.88,283.095729 409.182947,310.974327 397.041287,312.834067 C381.354402,313.40441 375.36,290.994811 375.36,290.994811 L410.88,283.095729 Z" id="Fill-54" fill="#683C11"></path>
                                <path d="M498.592811,261.983505 C488.369639,267.102476 468.965806,278.012971 456,292.702492 C458.923865,300.425671 464.709459,311.793708 476.087334,325.089961 C497.439835,350.046665 568.877768,388.48539 618.24,405.930486 C561.766596,353.588319 521.163877,294.49138 498.592811,261.983505" id="Fill-56" fill="#FFEC00"></path>
                                <path d="M299.913855,367.544624 C299.875951,384.04007 299.276382,404.636019 297.6,429.905159 C297.6,437.325861 343.546303,445.275994 343.546303,445.275994 C343.546303,445.275994 351.413065,432.254731 360,401.341775 C350.835894,389.280756 321.598277,370.413247 299.913855,367.544624" id="Fill-58" fill="#F29100"></path>
                                <path d="M298.62136,319.562297 C298.62136,319.562297 286.033213,357.812965 280.32,373.302504 C284.762475,368.077617 292.041115,366.731603 300.478069,367.861355 C300.534281,343.193663 299.350416,327.704124 298.62136,319.562297" id="Fill-60" fill="#662482"></path>
                                <path d="M277.066805,229.484493 C277.066805,229.484493 255.475616,276.149434 298.746065,319.339326 C299.48517,327.449497 300.685352,342.883816 300.628365,367.459099 C322.361158,370.318775 351.66805,389.1161 360.853328,401.132253 C361.333401,399.417137 361.815201,397.639967 362.297001,395.812809 C369.979893,366.736855 377.916636,323.448709 381.12,262.545721 C329.07527,225.447507 277.066805,229.484493 277.066805,229.484493" id="Fill-62" fill="#951C81"></path>
                                <path d="M287.424983,433.760236 C278.472288,437.123395 265.429644,443.354525 250.089314,454.712925 C220.798995,476.396362 189.531838,548.066388 179.52,585.384389 C214.185386,547.667485 275.591556,501.671639 312.96,472.570682 C307.441759,459.924446 297.66107,443.858311 287.424983,433.760236" id="Fill-64" fill="#009640"></path>
                                <path d="M343.68,445.477576 C343.68,440.307618 299.898198,429.921649 299.898198,429.921649 C299.898198,429.921649 295.154997,430.605633 287.04,433.645179 C297.237881,443.662718 306.982064,459.599014 312.481427,472.146097 C329.46071,458.979847 341.459632,449.300036 343.68,445.477576" id="Fill-66" fill="#F29100"></path>
                                <path d="M398.965958,50.6274765 C400.260071,58.0182005 398.262083,64.5432218 394.503559,65.2018348 C390.743338,65.8621452 386.647292,60.4048238 385.354875,53.0140998 C384.059066,45.6250733 386.057055,39.100052 389.817275,38.4397415 C393.5758,37.7811285 397.671846,43.2367525 398.965958,50.6274765" id="Fill-68" fill="#F8B133"></path>
                                <path d="M396.270294,52.1838983 C396.959541,55.8792946 395.894011,59.1418356 393.891394,59.4711452 C391.885159,59.8004547 389.701636,57.0726174 389.01058,53.377221 C388.319523,49.6818247 389.385053,46.4192837 391.391288,46.0899741 C393.395715,45.7606646 395.581046,48.4885019 396.270294,52.1838983" id="Fill-70" fill="#F29100"></path>
                                <path d="M480.589437,238.252824 C453.591167,229.463302 426.259009,224.003328 400.701824,220.718704 C391.707591,232.956995 373.089408,276.612599 381.196154,299.40972 C404.1324,293.545431 428.64121,286.571869 453.06006,282.575375 C464.856881,280.681663 483.848743,242.23204 480.589437,238.252824" id="Fill-72" fill="#F8B133"></path>
                                <path d="M498.24,262.06309 C489.258427,249.050994 483.152669,240.304231 480.071561,237.992342 C477.365114,237.992342 453.12,281.986843 453.12,281.986843 C453.12,281.986843 453.480974,285.943467 456.023186,292.692194 C468.874534,278.045655 488.107075,267.167083 498.24,262.06309" id="Fill-74" fill="#F8B133"></path>
                                <path d="M400.32,220.009196 C398.534415,219.777249 396.759151,219.55915 394.992488,219.349706 C327.972836,211.378696 270.951085,214.677881 270.951085,214.677881 C270.951085,214.677881 245.269966,288.497562 300.2481,306.096096 C304.202878,307.363149 308.429451,308.159385 312.867611,308.600776 C332.075553,310.515203 355.52211,305.381215 380.924554,298.839968 C372.863617,276.003589 391.376592,232.269491 400.32,220.009196" id="Fill-76" fill="#E20714"></path>
                                <path d="M312.972009,308.397122 C312.968578,308.402414 312.96,308.420054 312.96,308.420054 C312.96,308.420054 364.283549,314.759776 396.48,312.261989 C388.154249,310.616202 383.285408,305.511261 380.845841,298.450074 C355.511744,305.116131 332.128271,310.346314 312.972009,308.397122" id="Fill-78" fill="#BD1622"></path>
                                <g id="ball" transform="translate(573.000000, 148.000000)">
                                    <g transform="translate(0.000000, -0.000000)">
                                        <circle id="Oval-2" fill="#D8D8D8" cx="45.3435655" cy="44.5123117" r="44.5"></circle>
                                        <path d="M44.1420908,51.7125097 C60.5162761,53.1446596 74.9006695,41.6683648 76.2612851,26.0796296 C76.8037981,19.8545512 75.1606598,13.9367341 71.9853123,8.95632416 C65.5687532,4.10784564 57.7655794,0.936284493 49.1668355,0.182886827 C39.6823915,-0.646892169 30.6451307,1.58899768 23.0031509,6.05556956 C19.6406105,10.1940489 17.4376265,15.2647277 16.9471116,20.8874351 C15.5882293,36.4779062 27.7627056,50.2786238 44.1420908,51.7125097" id="Fill-80" fill="#ECECEB"></path>
                                        <path d="M81.858982,41.640294 C84.6149248,40.7886355 87.1051525,40.6613169 89.1235655,41.4028619 C88.3230135,28.3165703 81.7806301,16.5877707 71.8435655,9.01231166 C71.8946646,9.09661725 71.9440604,9.18952544 71.9934561,9.27555155 C79.0860061,17.8557956 82.952502,29.1630672 81.9100811,41.175753 C81.8981579,41.3323205 81.876015,41.485447 81.858982,41.640294" id="Fill-82" fill="#BD1622"></path>
                                        <path d="M49.5235655,80.0123117 C47.333331,80.6381062 45.0747037,81.0826121 42.7710373,81.3353704 C42.984556,84.1523175 42.6959721,86.6136599 41.8435655,88.5206773 C44.3690912,88.7193975 46.854582,88.6845343 49.2916976,88.4370056 C48.7679096,86.0994276 48.8696646,83.2144972 49.5235655,80.0123117" id="Fill-84" fill="#BD1622"></path>
                                        <path d="M81.6868833,40.7353732 C79.8582628,59.2909906 66.5864644,74.051219 49.4320972,78.7253773 C48.7526477,81.8827558 48.646917,84.7305873 49.19117,87.0349921 C70.0218443,85.0108992 87.1068799,68.5275264 88.992699,47.0896834 C89.190294,44.864385 89.2128268,42.6614429 89.0793635,40.4980539 C87.0254153,39.7568611 84.4930792,39.885839 81.6868833,40.7353732 Z" id="Fill-86" fill="#D9D9D9"></path>
                                        <path d="M43.4127771,80.2980554 C40.6068358,80.5862101 37.7361689,80.6254264 34.8200192,80.376488 C25.7094566,79.6006868 17.4805614,76.1990969 10.8435655,71.0123117 C18.2205322,80.0337714 29.2186326,86.2129002 41.9415822,87.2956118 C42.1112681,87.3092522 42.2739568,87.3126624 42.4383947,87.3263028 C43.3340568,85.4609698 43.6366926,83.0517234 43.4127771,80.2980554" id="Fill-88" fill="#D9D9D9"></path>
                                        <path d="M44.5235392,51.2852509 C28.2721994,49.8634248 16.1928967,36.1787791 17.541156,20.7194328 C18.0278363,15.1440155 20.2135985,10.115984 23.5498524,6.01231166 C11.6270441,12.9734069 3.14539244,25.4186885 1.85216413,40.2273686 C1.84872469,40.2686808 1.84872469,40.3134356 1.84356553,40.3564691 C2.04649232,40.1602364 2.23738107,39.9485117 2.46438391,39.7780991 C8.82734235,35.0650727 22.4268762,42.6510141 32.8363323,56.7281251 C39.1115851,65.2160481 42.7659869,74.1016004 43.2973799,80.8647417 C45.6723111,80.6151475 47.9990903,80.1762061 50.2588004,79.556524 C51.5915822,73.2977351 55.1978319,65.7806473 60.7336057,58.5974993 C67.5901234,49.7085043 75.6796792,43.5495531 82.2610419,41.5321436 C82.2782391,41.3772231 82.3023151,41.224024 82.3143532,41.0673821 C83.3651012,29.0489926 79.4613402,17.7363522 72.3004323,9.15203415 C75.351213,14.0337518 76.9195962,19.8036804 76.3916426,25.867958 C75.0416636,41.325583 60.7697198,52.7053556 44.5235392,51.2852509" id="Fill-90" fill="#E5007D"></path>
                                        <path d="M60.2123393,59.2399002 C54.7326015,66.4913353 51.1645585,74.0798847 49.8435655,80.3981732 C66.6930357,75.6750962 79.7259256,60.7603904 81.5235655,42.0123117 C75.0071206,44.0488997 66.9994516,50.2664014 60.2123393,59.2399002" id="Fill-92" fill="#ECECEB"></path>
                                        <path d="M43.1235655,81.9484445 C42.5947048,75.1135023 38.9694496,66.1336163 32.7459528,57.5555812 C22.4195201,43.3290203 8.92845285,35.6625427 2.61624386,40.4256051 C2.39105154,40.5978268 2.20168527,40.8135389 2.00037699,41.0118549 C1.0245436,52.7977377 4.65832877,63.8964731 11.3612123,72.4745083 C17.8337855,77.7664132 25.858821,81.2369425 34.7436816,82.0284667 C37.5875877,82.2824503 40.3871376,82.2424392 43.1235655,81.9484445" id="Fill-94" fill="#ECECEB"></path>
                                    </g>
                                </g>
                                <path d="M253.44,651.6 C226.341881,629.845558 198.806111,606.34153 179.52,585.384389 C184.204437,602.825139 193.533524,627.758454 205.133906,651.6 L253.44,651.6 Z" id="Fill-96" fill="#94C01F"></path>
                            </g>
                        </g>
                    </g>
                </g>
            </g>
        </g>
    </g>
</svg>