<?xml version="1.0" encoding="UTF-8"?>
<svg width="785px" height="361px" viewBox="0 0 785 361" version="1.1" xmlns="http://www.w3.org/2000/svg" xmlns:xlink="http://www.w3.org/1999/xlink">
    <!-- Generator: Sketch 49.3 (51167) - http://www.bohemiancoding.com/sketch -->
    <title>illustration</title>
    <desc>Created with Sketch.</desc>
    <defs>
        <rect id="path-1" x="0" y="0" width="864" height="480"></rect>
        <path d="M0.460065819,1.38092264 C0.460065819,18.0801714 0.460065819,267.03558 0.460065819,267.03558 L591.290746,267.03558 C591.290746,267.03558 382.382258,0.562284242 34.3858984,0.541168569 C23.2059773,0.539544286 11.924713,0.814048035 0.460065819,1.38092264" id="path-3"></path>
        <polygon id="path-5" points="0 536.984276 817.71666 536.984276 817.71666 0.33565661 0 0.33565661"></polygon>
        <filter x="-15.1%" y="-23.0%" width="130.2%" height="146.0%" filterUnits="objectBoundingBox" id="filter-6">
            <feGaussianBlur stdDeviation="41.1194196 0" in="SourceGraphic"></feGaussianBlur>
        </filter>
    </defs>
    <g id="Symbols" stroke="none" stroke-width="1" fill="none" fill-rule="evenodd">
        <g id="match-head" transform="translate(-757.000000, -239.000000)">
            <g id="illustration" transform="translate(1278.000000, 348.000000) scale(-1, 1) translate(-1278.000000, -348.000000) translate(723.000000, 95.500000)">
                <g id="hockey" transform="translate(678.000000, 264.500000) scale(-1, 1) translate(-678.000000, -264.500000) translate(246.000000, 24.500000)">
                    <mask id="mask-2" fill="white">
                        <use xlink:href="#path-1"></use>
                    </mask>
                    <use id="Mask" fill-opacity="0" fill="#D8D8D8" xlink:href="#path-1"></use>
                    <g mask="url(#mask-2)">
                        <g transform="translate(-63.600000, -51.600000)">
                            <g transform="translate(463.895659, 366.566973) scale(-1, 1) rotate(-15.000000) translate(-463.895659, -366.566973) translate(54.695659, 98.074835)">
                                <g id="Group-5" transform="translate(238.899883, 48.551924)">
                                    <path d="M55.4847184,109.793915 L22.5780186,73.3692623 C22.5780186,73.3692623 51.4422414,31.6538779 59.9261135,31.6538779 C88.1346249,60.0887118 95.1455689,104.827139 95.1455689,104.827139 L55.4847184,109.793915 Z" id="Fill-1" fill="#A21A5B"></path>
                                    <path d="M64.6181648,36.7538176 C64.6181648,36.7538176 44.6803385,7.70525883 0.169484596,0.723120927 C1.72639545,16.6425256 11.4748539,93.5144151 11.4748539,93.5144151 L64.6181648,36.7538176 Z" id="Fill-3" fill="#662482"></path>
                                </g>
                                <g id="Group-8" transform="translate(226.427198, 269.948696)">
                                    <mask id="mask-4" fill="white">
                                        <use xlink:href="#path-3"></use>
                                    </mask>
                                    <g id="Clip-7"></g>
                                    <path d="M0.460065819,1.38092264 C0.460065819,18.0801714 0.460065819,267.03558 0.460065819,267.03558 L591.290746,267.03558 C591.290746,267.03558 382.382258,0.562284242 34.3858984,0.541168569 C23.2059773,0.539544286 11.924713,0.814048035 0.460065819,1.38092264" id="Fill-6" mask="url(#mask-4)"></path>
                                </g>
                                <g id="Group-74">
                                    <path d="M145.004884,256.11098 C145.004884,256.11098 175.161879,326.576625 218.456686,376.146526 C203.064656,349.533178 218.845788,317.892954 255.257352,317.892954 C246.960802,265.812054 234.718567,216.225901 211.856426,216.225901 C179.519175,216.225901 145.004884,256.11098 145.004884,256.11098" id="Fill-9" fill="#662482"></path>
                                    <path d="M277.08564,181.571989 L250.342129,141.147329 C250.342129,141.147329 208.524943,191.541228 206.323785,229.679172 C207.444463,228.803166 208.288588,228.09456 208.791848,227.585859 C243.852811,204.221371 277.08564,181.571989 277.08564,181.571989" id="Fill-11" fill="#36A9E0"></path>
                                    <path d="M239.086636,48.5084986 C234.610358,48.3557258 175.618028,45.061359 126.536538,65.323259 C93.2313562,79.074437 81.14026,87.9466365 81.14026,87.9466365 C81.14026,87.9466365 95.5048682,163.697571 102.388111,184.156125 C116.209263,234.246103 132.752519,257.12952 136.093649,262.770737 C175.191946,253.406089 197.639259,236.461309 206.324911,229.679172 C208.526069,191.541228 250.341646,141.147329 250.341646,141.147329 C250.341646,141.147329 253.571834,68.8029035 239.086636,48.5084986" id="Fill-13" fill="#1E70B7"></path>
                                    <path d="M381.294972,453.571623 C377.209403,451.780605 244.125343,388.71469 244.125343,388.71469 L275.496272,334.477092 C275.496272,334.477092 356.847483,363.695705 381.294972,453.571623" id="Fill-15" fill="#1E70B7"></path>
                                    <path d="M277.756117,354.720627 C277.756117,373.497055 262.700129,388.714202 244.126147,388.714202 C225.552166,388.714202 210.496178,373.497055 210.496178,354.720627 C210.496178,335.947449 225.552166,320.727052 244.126147,320.727052 C262.700129,320.727052 277.756117,335.947449 277.756117,354.720627" id="Fill-17" fill="#951C81"></path>
                                    <path d="M1.52553619,174.464803 C1.52553619,174.464803 10.6292313,130.160689 81.14026,87.9466365 C115.934319,96.6026788 102.862429,186.114543 102.862429,186.114543 L54.9868328,195.186647 L1.52553619,174.464803 Z" id="Fill-19" fill="#008D36"></path>
                                    <path d="M22.4276973,248.413344 C22.4276973,248.413344 -6.91572118,217.127423 1.52553619,174.464803 C5.56769257,176.033162 54.9868328,195.186647 54.9868328,195.186647 L58.2025499,247.600722 L22.4276973,248.413344 Z" id="Fill-21" fill="#94C01F"></path>
                                    <path d="M136.539348,68.9129324 C139.515494,66.2524102 140.324247,65.8217209 140.324247,65.8217209 L179.596192,91.3071507 C179.596192,91.3071507 177.073462,107.559577 157.890101,107.559577 C138.705133,107.559577 133.563202,82.2382968 136.539348,68.9129324" id="Fill-23" fill="#E36627"></path>
                                    <path d="M30.9803793,274.225122 L36.8426315,290.726211 C36.8426315,290.726211 50.4113498,304.077579 61.0167848,304.077579 C71.6206119,304.077579 83.1248398,299.608162 83.1248398,299.608162 L73.2767062,289.65355 L59.8108908,262.633892 L30.9803793,274.225122 Z" id="Fill-25" fill="#662482"></path>
                                    <polygon id="Fill-27" fill="#F29100" points="200.161989 41.3884731 186.516093 39.8119878 139.679174 42.2092206 149.922841 80.498312 179.176219 101.446064 181.710204 100.456292 181.710204 80.4706829 188.128775 80.4706829 188.128775 61.8193984 200.161989 57.4995034"></polygon>
                                    <path d="M66.7010471,285.720788 L52.2078101,267.900003 L76.6922801,260.602663 L89.7561308,273.80776 C89.7561308,273.80776 93.5571084,286.829204 95.9865826,294.326448 C98.6331178,302.490042 89.2898518,309.236424 82.8133976,303.468438 C80.3678447,301.292238 71.2126982,292.018604 66.7010471,285.720788" id="Fill-29" fill="#1E70B7"></path>
                                    <path d="M310.937815,179.645264 C307.558097,172.911884 295.360882,177.000994 295.360882,183.70512 C295.360882,190.409246 302.890483,199.547986 309.431252,206.156222 C315.970412,212.769335 340.835945,213.221152 342.575648,201.501527 C344.315351,189.781903 346.008426,170.402509 346.008426,170.402509 L308.225358,168.370956 C308.225358,168.370956 308.900658,170.402509 310.937815,179.645264" id="Fill-31" fill="#662482"></path>
                                    <path d="M644.489035,465.245332 C650.624623,470.270617 656.742525,470.027147 656.742525,470.027147 L656.723231,470.010577 C653.108765,469.575008 649.50073,468.417828 645.873401,465.385104 C642.696273,462.623798 335.000383,194.910356 335.000383,194.910356 L332.50981,196.249565 L332.508202,196.249565 C332.508202,196.249565 636.30182,459.280651 644.489035,465.245332" id="Fill-33" fill="#ECECEB"></path>
                                    <polygon id="Fill-35" fill="#FABD5D" points="203.177528 41.7377378 200.162793 41.3883106 200.162793 57.4993409"></polygon>
                                    <polygon id="Fill-37" fill="#FABD5D" points="188.128132 80.4705204 181.711169 80.4705204 181.711169 100.456129 192.77002 96.1394847 200.161346 57.4993409 188.128132 61.8192358"></polygon>
                                    <polygon id="Fill-39" fill="#312783" points="136.369719 68.9699784 128.066737 48.7584609 143.230451 52.1519676 148.510659 75.3246771"></polygon>
                                    <path d="M341.994246,419.866853 C332.337448,410.105646 291.732588,368.764349 232.997515,327.065498 C239.117025,322.981264 283.669177,284.23873 283.669177,284.23873 C283.669177,284.23873 346.824253,314.848549 341.994246,419.866853" id="Fill-41" fill="#E36627"></path>
                                    <polygon id="Fill-43" fill="#D9D9D9" points="16.8001924 247.600722 69.9801138 232.500593 76.6929232 260.602663 30.9798969 274.225447"></polygon>
                                    <path d="M210.793632,291.279118 C210.603905,295.386106 206.323785,229.679172 206.323785,229.679172 C217.276518,186.314447 266.526833,175.197788 277.027757,181.485852 C297.494188,208.760674 291.881154,256.875982 284.507515,284.464476 C275.382918,259.011551 223.831757,246.588196 210.793632,291.279118" id="Fill-45" fill="#BD1622"></path>
                                    <path d="M285.305495,294.196266 C284.345603,315.041628 266.850495,331.154284 246.226493,330.187264 C225.602491,329.215369 209.662182,311.531104 210.620466,290.685742 C211.578749,269.837129 229.075466,253.724474 249.699468,254.691493 C270.323469,255.663388 286.265387,273.347654 285.305495,294.196266" id="Fill-47" fill="#DE3439"></path>
                                    <polygon id="Fill-49" fill="#D9D9D9" points="332.508845 196.250043 332.508845 196.250043 332.510453 196.250043"></polygon>
                                    <path d="M661.95263,470.25942 C660.20328,470.25942 658.463577,470.217163 656.723874,470.009132 L656.743168,470.023759 C656.743168,470.023759 650.625267,470.269171 644.489678,465.243913 C636.302463,459.279262 332.560297,196.295063 332.508845,196.249556 L323.900371,200.875004 C323.900371,200.875004 641.794908,476.22082 643.360962,477.805434 C652.406774,485.522099 662.476792,488.130618 668.163788,488.130618 C669.715371,488.159872 671.234797,488.166373 672.733322,488.163883 L667.477232,469.752343 C665.604077,469.953874 663.75504,470.12615 661.95263,470.25942" id="Fill-51" fill="#D9D9D9"></path>
                                    <path d="M725.463043,458.069644 C724.234639,458.388192 721.258493,459.184561 717.10057,460.227966 L722.758625,480.790536 C727.152902,479.079156 729.966654,477.348272 731.090548,475.947313 C739.34047,463.541836 730.415247,456.787328 725.463043,458.069644" id="Fill-53" fill="#D9D9D9"></path>
                                    <path d="M667.476428,469.752538 L672.734126,488.161662 C696.266743,488.125907 713.244122,484.49999 722.759429,480.791186 L717.099766,460.228617 C705.6695,463.09717 685.281854,467.842878 667.476428,469.752538" id="Fill-55" fill="#9C9C9C"></path>
                                    <path d="M314.655988,209.40752 C313.570684,203.30961 311.038306,189.091987 311.038306,189.091987 L307.01866,170.401697 L337.969937,170.401697 C337.969937,170.401697 333.146361,205.030742 333.146361,210.220141 C333.146361,215.409541 320.986127,220.806972 314.655988,209.40752" id="Fill-57" fill="#E5007D"></path>
                                    <polygon id="Fill-59" fill="#BDE1E8" points="344.409089 139.115776 291.689015 154.908259 307.018338 170.401697 346.008908 170.401697"></polygon>
                                    <path d="M712.951813,495.277137 C712.951813,497.861272 705.12315,499.95621 695.463136,499.95621 C685.806337,499.95621 677.977674,497.861272 677.977674,495.277137 C677.977674,492.691376 685.806337,490.598063 695.463136,490.598063 C705.12315,490.598063 712.951813,492.691376 712.951813,495.277137" id="Fill-63" fill="#3C3C3B"></path>
                                    <mask id="mask-7" fill="white">
                                        <use xlink:href="#path-5"></use>
                                    </mask>
                                    <g id="Clip-66" filter="url(#filter-6)"></g>
                                    <polygon id="Fill-65" fill="#3C3C3B" mask="url(#mask-7)" points="677.977674 495.277299 712.951813 495.277299 712.951813 486.874795 677.977674 486.874795"></polygon>
                                    <path d="M712.951813,486.874795 C712.951813,489.457305 705.12315,491.552243 695.463136,491.552243 C685.806337,491.552243 677.977674,489.457305 677.977674,486.874795 C677.977674,484.290659 685.806337,482.195721 695.463136,482.195721 C705.12315,482.195721 712.951813,484.290659 712.951813,486.874795" id="Fill-67" fill="#6F6F6E" mask="url(#mask-7)"></path>
                                    <polygon id="Fill-68" fill="#00AAD6" mask="url(#mask-7)" points="381.294972 453.571623 396.188566 448.944557 417.730654 471.338775"></polygon>
                                    <polygon id="Fill-69" fill="#FEFEFE" mask="url(#mask-7)" points="357.162944 442.221903 341.994407 419.866691 350.516057 461.641928"></polygon>
                                    <path d="M188.128132,43.5216041 L141.940788,47.7472349 C141.940788,47.7472349 145.515057,62.1793896 146.603578,66.957603 C162.542279,78.712983 177.487324,78.7552393 188.128132,76.1239715 L188.128132,43.5216041 Z" id="Fill-70" fill="#BDE1E8" mask="url(#mask-7)"></path>
                                    <path d="M207.11855,41.7851948 L188.128132,43.520954 L188.128132,76.1233214 C197.83799,73.7212127 203.965539,69.0973974 203.965539,69.0973974 L207.11855,41.7851948 Z" id="Fill-71" fill="#BDE1E8" mask="url(#mask-7)"></path>
                                    <path d="M207.11855,41.7851948 L188.128132,43.520954 L188.128132,76.1233214 C197.83799,73.7212127 203.965539,69.0973974 203.965539,69.0973974 L207.11855,41.7851948 Z" id="Fill-72" fill="#F5F5F5" mask="url(#mask-7)"></path>
                                    <path d="M128.066576,48.7592735 C162.125844,60.75844 206.409484,47.9271493 207.11855,41.7853574 C207.32114,39.2808585 208.965979,26.3016707 203.510515,20.7872224 C195.968051,15.2727742 177.101438,0.335169037 159.191502,0.335169037 C141.281566,0.335169037 111.54583,10.2523996 128.066576,48.7592735" id="Fill-73" fill="#312783" mask="url(#mask-7)"></path>
                                </g>
                            </g>
                        </g>
                    </g>
                </g>
            </g>
        </g>
    </g>
</svg>