<?xml version="1.0" encoding="UTF-8"?>
<svg width="575px" height="405px" viewBox="0 0 575 405" version="1.1" xmlns="http://www.w3.org/2000/svg" xmlns:xlink="http://www.w3.org/1999/xlink">
    <!-- Generator: Sketch 49.3 (51167) - http://www.bohemiancoding.com/sketch -->
    <title>basket</title>
    <desc>Created with Sketch.</desc>
    <defs>
        <rect id="path-1" x="0" y="0" width="772.8" height="480"></rect>
        <polygon id="path-3" points="0.247992043 0.743391443 76.5544866 0.743391443 76.5544866 68.6141437 0.247992043 68.6141437"></polygon>
    </defs>
    <g id="Symbols" stroke="none" stroke-width="1" fill="none" fill-rule="evenodd">
        <g id="match-head" transform="translate(-1030.000000, -195.000000)">
            <g id="illustration" transform="translate(1278.000000, 348.000000) scale(-1, 1) translate(-1278.000000, -348.000000) translate(723.000000, 95.500000)">
                <g id="basket" transform="translate(129.000000, 24.500000)">
                    <mask id="mask-2" fill="white">
                        <use xlink:href="#path-1"></use>
                    </mask>
                    <use id="Mask" fill-opacity="0" fill="#FFFFFF" xlink:href="#path-1"></use>
                    <g mask="url(#mask-2)">
                        <g transform="translate(468.165998, 335.167833) rotate(7.000000) translate(-468.165998, -335.167833) translate(114.165998, 85.682119)">
                            <g id="Group-47" transform="translate(0.000000, 72.709255)">
                                <path d="M0,316.629665 L229.781208,425.518149 L502.985989,425.518149 C439.953505,385.466193 312.650495,332.663872 68.6286293,316.629665 L0,316.629665 Z" id="Fill-1" fill="#009640"></path>
                                <path d="M707.232979,316.629665 L105.756892,316.629665 C349.778758,332.663872 477.081767,385.466193 540.114252,425.518149 L707.232979,425.518149 L707.232979,316.629665 Z" id="Fill-3" fill="#009640"></path>
                                <path d="M453.094266,235.233495 C437.812733,242.87257 422.017803,258.064604 416.714845,273.237641 C428.922404,284.463232 437.897232,289.466876 441.196537,291.343718 C449.732226,296.199191 485.152711,278.469242 466.802324,256.940018 C462.276501,251.629898 457.589362,243.88571 453.094266,235.233495" id="Fill-5" fill="#F29100"></path>
                                <path d="M559.927113,284.475642 C542.688017,273.131008 526.322079,265.722422 513.042918,262.420852 C482.465768,254.81597 467.309703,257.103134 467.309703,257.103134 C467.309703,257.103134 435.52524,287.946913 441.196922,291.343465 C448.18346,296.040635 463.036097,296.426895 477.045023,297.67559 C499.90843,300.199575 527.032639,309.1494 553.005869,319.137693 C561.012799,308.364216 560.906535,293.367212 559.927113,284.475642" id="Fill-7" fill="#F29100"></path>
                                <path d="M418.788914,145.573268 L427.434707,173.882931 C427.434707,173.882931 439.363163,208.802066 453.094266,235.233621 C462.157434,230.702353 471.0324,228.825511 477.412082,231.192459 C445.092458,201.859525 418.788914,145.573268 418.788914,145.573268" id="Fill-9" fill="#00AAD6"></path>
                                <path d="M427.434707,173.882298 L418.788914,145.573901 L408.869232,113.093901 C408.869232,113.093901 343.894548,148.447419 343.894548,160.26823 C368.268697,218.231233 394.062686,251.321651 413.164603,269.881108 C414.377037,271.057617 415.560024,272.173337 416.714845,273.237134 C422.017803,258.065363 437.812733,242.87333 453.094266,235.232988 C439.363163,208.801433 427.434707,173.882298 427.434707,173.882298" id="Fill-11" fill="#1E70B7"></path>
                                <path d="M281.50861,63.2204399 C300.680942,50.8727966 298.066592,17.1554989 295.599474,1.22134022 C289.351662,2.08250918 282.648067,3.61108409 275.303047,6.03248859 C273.999713,30.8278226 277.071127,49.4974591 281.50861,63.2204399" id="Fill-13" fill="#F8B133"></path>
                                <path d="M281.50861,63.2204399 C277.071127,49.4974591 273.999713,30.8278226 275.303047,6.03248859 C271.079373,7.42555603 266.647011,9.10736835 261.956031,11.1463125 C255.525138,13.9425788 250.553774,16.5108886 246.677058,18.9284938 C249.023829,32.4298502 256.68636,57.3252317 281.50861,63.2204399" id="Fill-15" fill="#F8B133"></path>
                                <path d="M281.50861,63.2204399 C289.276125,87.2407218 301.225065,96.1082293 301.225065,96.1082293 C301.225065,96.1082293 314.245608,102.301047 327.903735,97.4924317 C354.490223,88.1297521 368.148349,62.7581947 371.592328,40.1461773 C360.168306,21.3321684 350.619908,5.21691092 339.093463,3.4743102 C325.308588,1.21880737 312.005102,-1.04049474 295.599474,1.22134022 C298.066592,17.1554989 300.680942,50.8727966 281.50861,63.2204399" id="Fill-17" fill="#FBE911"></path>
                                <path d="M405.768499,71.2029696 C391.678915,65.0126844 424.961316,46.6102636 429.994134,48.2642145 C453.29796,71.3156814 455.59992,113.093774 455.59992,113.093774 L431.594495,103.278981 C431.594495,103.278981 419.858083,77.3932547 405.768499,71.2029696" id="Fill-19" fill="#F8B133"></path>
                                <path d="M218.089862,42.9248403 C211.468205,64.5845062 226.436068,84.0633883 230.311504,105.538156 C232.567374,118.030172 261.848871,117.394426 264.196922,111.510616 C269.919815,54.8760925 240.396343,23.4877503 240.396343,23.4877503 C240.396343,23.4877503 222.811569,27.4807881 218.089862,42.9248403" id="Fill-21" fill="#F29100"></path>
                                <path d="M281.50861,63.2204399 C256.68636,57.3252317 249.023829,32.4298502 246.677058,18.9284938 C242.799062,21.346099 240.015713,23.6142661 237.962129,25.8077141 C237.060805,40.583094 238.224588,68.8889579 254.705753,99.6744819 C262.982823,106.753797 271.440414,110.955795 276.827872,110.955795 C277.046801,110.955795 277.290056,110.983657 277.544834,111.024182 C279.926172,111.22681 287.828118,111.689055 291.889196,109.322107 C300.259727,104.443838 301.225065,96.1082293 301.225065,96.1082293 C301.225065,96.1082293 289.276125,87.2407218 281.50861,63.2204399" id="Fill-23" fill="#DDDB00"></path>
                                <path d="M420.439335,223.613033 C417.801939,230.611297 375.50502,224.879458 375.50502,224.879458 L398.921512,199.335666 C398.921512,199.335666 424.095841,213.907152 420.439335,223.613033" id="Fill-25" fill="#29235C"></path>
                                <path d="M230.312016,105.538029 C234.497282,86.5986444 264.196153,101.874262 264.196153,111.510489 C262.534338,135.854976 239.550584,164.700337 239.550584,164.700337 L221.507466,156.904225 C230.267206,127.258484 225.622316,126.764578 230.312016,105.538029" id="Fill-27" fill="#F29100"></path>
                                <path d="M221.506954,156.904352 C221.506954,156.904352 211.274882,167.537256 210.865189,168.974648 C210.455497,170.413307 210.152068,183.349838 211.064914,185.913082 C211.977761,188.477592 215.086303,189.892189 215.086303,189.892189 C215.086303,189.892189 214.671489,195.081998 216.66618,195.924171 C218.659591,196.765077 222.896068,198.592528 225.004705,199.215609 C227.679229,200.007125 230.059287,196.942377 230.059287,196.942377 C230.059287,196.942377 231.654527,197.350165 233.202397,197.350165 C236.166267,197.350165 236.360871,192.209746 234.750267,191.295388 C233.138383,190.382295 231.520097,189.256444 231.520097,189.256444 C231.520097,189.256444 232.786303,187.328945 232.576336,185.458435 C232.394535,183.839944 230.60341,182.28984 230.60341,182.28984 C230.60341,182.28984 234.097319,178.854029 236.802571,174.330359 C239.639692,169.586331 239.551352,166.059338 239.551352,164.700464 C238.562969,157.708532 221.506954,156.904352 221.506954,156.904352" id="Fill-29" fill="#F29100"></path>
                                <path d="M221.729468,157.000853 C222.173729,154.613642 233.930626,152.446789 237.204325,158.157099 C240.177157,163.344376 234.74489,167.117056 234.74489,168.526587 C234.74489,169.934851 234.583573,170.451553 236.0303,173.565692 C238.238799,178.319851 232.206076,180.230886 229.823458,177.874069 C227.442119,175.518519 226.748203,171.346915 226.748203,168.816598 C226.748203,166.286281 221.285208,159.388064 221.729468,157.000853" id="Fill-31" fill="#F8B133"></path>
                                <path d="M343.894548,160.26823 C343.894548,160.26823 378.532776,182.203976 402.467785,181.164241 C407.606867,180.124507 419.514838,95.5589808 419.514838,95.5589808 L343.894548,160.26823 Z" id="Fill-33" fill="#2D2E83"></path>
                                <path d="M345.818695,203.120251 C344.302833,207.082894 343.574348,209.342196 343.574348,209.342196 C343.574348,209.342196 335.516207,237.160487 348.055361,250.501007 C350.037248,250.501007 386.143968,222.329384 386.143968,222.329384 C386.143968,222.329384 393.491549,217.552429 403.028424,208.569677 C383.693494,199.103151 357.410435,200.055502 345.818695,203.120251" id="Fill-35" fill="#F8B133"></path>
                                <path d="M419.51535,95.5594873 C381.81595,127.81913 359.844905,170.181044 349.944427,193.032416 C348.203234,197.053315 346.833324,200.468863 345.818055,203.120757 C357.409795,200.056009 383.694135,199.103657 403.027784,208.568917 C414.718106,197.558619 429.701332,180.222528 438.516124,157.537058 C440.862894,151.497477 442.177751,145.970799 442.74748,140.900033 C446.172254,110.388057 421.634229,96.982949 419.51535,95.5594873" id="Fill-37" fill="#E5007D"></path>
                                <path d="M480.951826,230.363204 C482.73911,240.331235 483.445829,256.289456 474.503008,269.22472 C503.239102,276.205254 534.539616,285.01324 561.234929,293.559075 C549.086263,275.75694 514.68873,247.627109 480.951826,230.363204" id="Fill-39" fill="#F5F5F5"></path>
                                <path d="M438.515996,157.537564 C429.701204,180.221768 414.717978,197.559125 403.027656,208.569424 C410.12558,212.043228 416.288893,216.918964 420.439591,223.613286 C442.761435,170.222077 442.771677,140.889142 442.771677,140.889142 L442.747352,140.899273 C442.177623,145.971305 440.862766,151.496717 438.515996,157.537564" id="Fill-41" fill="#D50C51"></path>
                                <path d="M480.951826,230.363204 C468.367862,223.9247 455.874799,218.986909 444.664585,216.675683 C403.40086,208.174173 387.968252,220.891612 387.968252,220.891612 C387.968252,220.891612 346.705808,241.336776 348.055233,250.500627 C359.90303,258.567754 386.136158,255.566327 396.386155,255.566327 C411.722741,255.566327 441.41265,261.184188 474.503008,269.22472 C483.445829,256.289456 482.73911,240.331235 480.951826,230.363204" id="Fill-43" fill="#F8B133"></path>
                                <path d="M559.927113,284.475642 C560.906535,293.367212 561.012799,308.364216 553.005869,319.137693 C581.33099,330.031481 608.284922,342.158766 626.838875,348.54408 C606.317117,320.721991 582.382108,299.256088 559.927113,284.475642" id="Fill-45" fill="#ECECEB"></path>
                            </g>
                            <g id="Group-102" transform="translate(208.687161, 0.523034)">
                                <path d="M119.216318,169.678654 C105.559471,174.487269 92.5376485,168.294451 92.5376485,168.294451 L103.155088,184.044978 C103.155088,184.044978 124.290104,184.158956 144.055211,179.238896 C146.92946,182.08202 159.818133,196.210256 182.338422,212.129218 C192.28243,202.51072 202.32758,188.410345 210.828701,167.746089 C189.54005,155.751779 175.147037,132.492618 162.904911,112.332399 C159.462213,134.944417 145.804086,160.315974 119.216318,169.678654" id="Fill-51" fill="#DDDB00"></path>
                                <path d="M29.2747118,97.9945692 C24.0293664,103.597233 23.5351747,108.726254 21.7069215,114.677185 C17.4538004,138.008532 31.4576051,159.406048 46.0196159,171.861337 C29.5371711,141.075813 28.3733881,112.768683 29.2747118,97.9945692" id="Fill-53" fill="#F8B133"></path>
                                <path d="M103.155088,184.045232 C103.155088,184.045232 98.1696412,191.579194 91.6478474,196.927306 C111.284925,211.516521 135.207131,232.454325 135.207131,232.454325 C135.207131,232.454325 143.160289,233.388947 154.527978,229.56561 C127.068332,208.540423 103.155088,184.045232 103.155088,184.045232" id="Fill-55" fill="#94C01F"></path>
                                <path d="M144.055595,179.239275 C124.290488,184.15807 103.155472,184.045358 103.155472,184.045358 C103.155472,184.045358 127.067436,208.540549 154.528362,229.565736 C162.613389,226.845456 172.422966,221.717701 182.337526,212.128331 C159.818517,196.20937 146.929844,182.082399 144.055595,179.239275" id="Fill-57" fill="#C7D319"></path>
                                <path d="M226.328012,171.606152 C226.450919,171.579557 226.548221,171.533966 226.637842,171.484576 C226.039946,171.099582 225.433089,170.729786 224.81727,170.368855 C214.574956,172.663617 176.404409,188.101337 173.696597,242.13589 C174.129335,242.491756 174.565914,242.838756 175.006333,243.176892 C177.839614,188.970105 216.421133,173.731213 226.328012,171.606152" id="Fill-59" fill="#683C11"></path>
                                <path d="M219.328926,172.069917 C221.556629,171.226478 223.439935,170.67685 224.817526,170.369109 C218.211233,166.534374 210.524376,164.326995 202.31004,164.326995 C177.850112,164.326995 158.003067,183.833739 157.782857,207.97813 C162.48664,181.308487 197.964738,156.905745 219.328926,172.069917" id="Fill-61" fill="#E36627"></path>
                                <path d="M220.829297,173.276947 C220.291575,173.479575 219.732089,173.698666 219.153398,173.935488 C238.795597,190.106468 206.143098,240.644422 188.399568,250.231259 C188.921926,250.402226 189.449405,250.560529 189.976885,250.713767 C208.078895,240.849583 240.168067,190.485129 220.829297,173.276947" id="Fill-63" fill="#683C11"></path>
                                <path d="M157.782473,207.977497 C157.782473,208.114271 157.772231,208.247245 157.772231,208.378954 C157.772231,209.146407 157.795276,209.902463 157.837525,210.654719 C161.463305,183.708996 196.608527,158.930125 217.557902,172.773416 C218.17116,172.518865 218.758813,172.284576 219.328542,172.069284 C197.964354,156.906378 162.486256,181.307854 157.782473,207.977497" id="Fill-65" fill="#683C11"></path>
                                <path d="M175.076365,242.217322 C175.055881,242.541526 175.023873,242.850534 175.005949,243.177272 C178.987649,246.234422 183.510911,248.635563 188.399056,250.231259 C190.169696,249.276374 192.08757,247.911168 194.08098,246.214159 C193.970875,246.214159 193.86077,246.22429 193.750665,246.22429 C187.086759,246.22429 180.767251,244.781832 175.076365,242.217322" id="Fill-67" fill="#D54D15"></path>
                                <path d="M227.565795,172.12564 C234.57794,179.990139 238.841303,190.308969 238.841303,201.616878 C238.841303,225.404137 220.01849,244.838695 196.30369,246.148178 C194.086229,248.084542 191.945586,249.642244 189.977781,250.71364 C193.895466,251.831893 198.032081,252.435978 202.309528,252.435978 C226.905166,252.435978 246.845672,232.711409 246.845672,208.379587 C246.845672,193.335725 239.203625,180.074989 227.565795,172.12564" id="Fill-69" fill="#D54D15"></path>
                                <path d="M219.15391,173.936121 C204.500999,179.957972 177.764717,197.88675 175.076109,242.217955 C180.768276,244.782465 187.086503,246.224923 193.750409,246.224923 C193.860514,246.224923 193.970619,246.214792 194.080724,246.214792 C212.130243,230.90878 236.839827,188.497475 219.15391,173.936121" id="Fill-71" fill="#E36627"></path>
                                <path d="M238.840791,201.616878 C238.840791,190.308969 234.577428,179.990139 227.565283,172.12564 C227.255453,171.914147 226.955865,171.691256 226.638354,171.484829 C226.547453,171.534219 226.450151,171.579811 226.328524,171.606406 C224.975258,171.896417 223.084271,172.434648 220.829681,173.27682 C238.066216,188.609427 214.45512,230.279873 196.303178,246.148178 C220.019258,244.838695 238.840791,225.404137 238.840791,201.616878" id="Fill-73" fill="#E36627"></path>
                                <path d="M217.558542,172.77367 C196.609167,158.930378 161.463945,183.709249 157.838166,210.654973 C158.447583,222.558101 163.836321,233.203669 172.140278,240.775623 C172.666477,241.061835 173.196516,241.326518 173.734238,241.588668 C176.17703,197.070032 202.77248,178.941159 217.558542,172.77367" id="Fill-75" fill="#E36627"></path>
                                <path d="M103.155088,184.045232 L92.5376485,168.294704 C92.5376485,168.294704 91.5735906,176.630313 83.2017787,181.508582 C79.1407009,183.875531 71.2387552,183.412019 68.857417,183.209391 C72.9697063,183.854001 81.7627335,189.583308 91.6478474,196.927306 C98.1696412,191.579194 103.155088,184.045232 103.155088,184.045232" id="Fill-77" fill="#C7D319"></path>
                                <path d="M114.555168,73.1849246 C105.760861,77.9834087 112.805013,114.110713 130.283523,125.465479 C147.762033,136.820245 159.072108,125.909994 197.081338,143.389191 C209.867588,149.447768 224.296448,124.177525 221.306973,120.450436 C211.11587,107.741862 170.718901,73.1849246 114.555168,73.1849246" id="Fill-79" fill="#F8B133"></path>
                                <polygon id="Fill-81" fill="#F29100" points="243.34805 195.636692 244.899761 223.194099 252.719768 202.590632"></polygon>
                                <path d="M151.192312,98.3804489 C161.700927,115.928033 163.255198,134.235472 154.660616,139.270778 C146.067314,144.30735 130.582214,134.164552 120.072319,116.615702 C109.562424,99.0681177 108.009433,80.7606786 116.602735,75.7253731 C125.197317,70.6900675 140.682417,80.8328649 151.192312,98.3804489" id="Fill-83" fill="#F8B133"></path>
                                <path d="M245.413541,175.965694 C245.413541,175.965694 248.787103,178.758161 249.359392,181.948285 C250.114763,186.143951 253.101678,189.435389 253.101678,191.671896 L253.101678,195.591481 C253.101678,195.591481 255.67506,197.544308 255.67506,201.246068 C255.67506,204.949095 253.668846,207.745361 253.668846,207.745361 L252.524268,220.308297 C251.886684,221.166933 246.793693,227.791602 246.793693,227.791602 C246.793693,227.791602 242.194893,233.410729 240.604774,233.880573 C238.912231,234.379544 236.479682,231.200818 239.132441,227.167254 C241.78264,223.13749 245.176687,219.980293 245.176687,219.980293 L246.970373,215.083027 C246.970373,215.083027 241.631566,218.694871 239.385939,220.916181 C237.140311,223.13749 234.673193,216.834493 237.557685,213.982504 C240.440897,211.130515 245.787385,205.841925 245.787385,205.841925 L248.94842,200.415294 C248.94842,200.415294 243.333071,205.801399 240.250134,208.849684 C238.000665,211.074792 233.880694,205.431603 237.918727,201.436032 C241.407515,197.986291 241.906828,195.82577 243.348434,193.783026 C243.348434,187.838427 231.081982,178.858208 231.081982,178.858208 L245.413541,175.965694 Z" id="Fill-85" fill="#FABD5D"></path>
                                <path d="M226.853058,168.976168 C224.726498,171.962398 226.385753,176.651969 228.252414,178.49715 C230.117796,180.343598 234.013716,182.435732 236.02249,183.385551 C238.031264,184.335369 242.178122,190.131796 242.178122,190.131796 L248.264617,179.276002 C248.264617,179.276002 246.044595,175.386811 241.928465,173.894962 C238.918505,172.803304 235.699858,174.600361 234.432371,173.3466 C233.163604,172.091573 234.146867,171.121492 233.621948,168.693755 C233.310838,167.255096 229.754194,164.904612 226.853058,168.976168" id="Fill-87" fill="#FABD5D"></path>
                                <path d="M67.5615081,54.5892473 L82.8532839,74.057998 C82.8532839,74.057998 71.4753526,101.992799 71.4753526,130.939474 C67.2132694,127.013557 36.3122061,98.5455907 36.3122061,98.5455907 L20.6542676,98.0402872 L38.7293924,58.4037192 L67.5615081,54.5892473 Z" id="Fill-89" fill="#F29100"></path>
                                <path d="M19.6100637,15.4741931 C9.26660615,25.7056403 7.23350669,41.2788678 7.23350669,41.2788678 L9.73903291,49.2459472 L0.504305967,62.0824304 L1.99328246,65.9412272 L8.38576709,67.3469589 L9.29093165,81.1231295 L20.6534995,98.0400339 L49.5675537,82.5275947 L50.2819552,64.864766 C50.2819552,64.864766 66.8424976,63.6793923 71.1929208,59.3773467 C75.5433439,55.0740347 88.818664,43.1278482 77.9566893,22.6510233 C66.2945338,0.664619811 30.8010727,4.40437268 19.6100637,15.4741931" id="Fill-91" fill="#F8B133"></path>
                                <polygon id="Fill-93" fill="#F29100" points="7.23350669 41.2787412 13.828277 37.3553567 28.5170365 48.7265863 20.1362626 63.0219911 26.3443855 73.8511908 26.9691667 87.9654968 24.0488268 96.2187882 20.6534995 98.0399072 9.29093165 81.1230028 8.38576709 67.3468323 1.99328246 65.9411006 0.504305967 62.0823038 9.73903291 49.2458205"></polygon>
                                <g id="Group-97" transform="translate(7.681736, 0.000000)">
                                    <mask id="mask-4" fill="white">
                                        <use xlink:href="#path-3"></use>
                                    </mask>
                                    <g id="Clip-96"></g>
                                    <path d="M7.5366792,20.7698757 C10.1139016,20.7698757 21.9015255,16.9047467 29.97503,19.8504512 L27.5219957,36.8357425 L32.8672036,42.1218003 L34.3561801,56.2475041 L45.4383646,52.9991241 L70.8969179,68.6141437 C70.8969179,68.6141437 68.8740608,64.0474153 71.3270951,55.9017701 C73.7801295,47.7548584 87.1348275,20.7863392 58.3603248,6.3326313 C38.8013447,-3.49229343 14.952115,0.201868136 0.247992043,12.9851615 C0.247992043,12.9851615 1.73696854,20.7698757 7.5366792,20.7698757" id="Fill-95" fill="#683C11" mask="url(#mask-4)"></path>
                                </g>
                                <path d="M62.5559609,58.7416014 C60.0786011,65.2345621 54.7679609,69.2655927 50.6940803,67.7433499 C46.6201996,66.22364 45.3258271,59.72688 47.803187,53.2339193 C50.2792665,46.7409586 55.591187,42.709928 59.6650676,44.2309044 C63.737668,45.7518807 65.0333208,52.2486407 62.5559609,58.7416014" id="Fill-98" fill="#F8B133"></path>
                                <path d="M58.8675754,57.3644909 C57.6282553,60.610338 54.9729353,62.6264866 52.9359949,61.8653652 C50.8990546,61.1055102 50.2525085,57.8571302 51.4905483,54.6112831 C52.7298684,51.3641695 55.3851884,49.348021 57.4221288,50.1091424 C59.4590691,50.8702638 60.1056152,54.1186438 58.8675754,57.3644909" id="Fill-100" fill="#F29100"></path>
                            </g>
                        </g>
                    </g>
                </g>
            </g>
        </g>
    </g>
</svg>