<?xml version="1.0" encoding="UTF-8"?>
<svg width="330px" height="476px" viewBox="0 0 330 476" version="1.1" xmlns="http://www.w3.org/2000/svg" xmlns:xlink="http://www.w3.org/1999/xlink">
    <!-- Generator: Sketch 49.3 (51167) - http://www.bohemiancoding.com/sketch -->
    <title>tennis</title>
    <desc>Created with Sketch.</desc>
    <defs>
        <rect id="path-1" x="0" y="0" width="438" height="504"></rect>
        <filter x="0.0%" y="0.0%" width="100.0%" height="100.0%" filterUnits="objectBoundingBox" id="filter-2">
            <feGaussianBlur stdDeviation="0" in="SourceGraphic"></feGaussianBlur>
        </filter>
        <path d="M0,0.137358689 C0,0.137358689 5.03434596,99.0770109 73.3651309,155.107798 C75.3303485,151.767602 190.715966,0.137358689 190.715966,0.137358689 L0,0.137358689 Z" id="path-4"></path>
        <path d="M0.422339598,204.152488 L247.440894,286.464 C247.440894,286.464 316.413823,76.9817405 143.750201,0.0590912287 L0.422339598,204.152488 Z" id="path-6"></path>
        <polygon id="path-8" points="0.0465819204 0.381540974 57.8965091 0.381540974 57.8965091 42.9007785 0.0465819204 42.9007785"></polygon>
        <path d="M1.91017531,5.88416 C3.53637005,6.84544 4.45019932,7.31136 5.6629324,7.43936 C6.87566549,7.56864 9.30244841,4.61312 7.739458,2.23104 C6.93360279,0.99968 5.78670755,0.43776 3.64829438,0.29568 C3.5469041,0.28416 3.44683058,0.27904 3.34807382,0.27904 C0.679007629,0.27904 -0.831312508,4.13056 1.91017531,5.88416" id="path-10"></path>
        <filter x="-88.4%" y="-88.4%" width="276.7%" height="276.8%" filterUnits="objectBoundingBox" id="filter-12">
            <feGaussianBlur stdDeviation="4.78962977 3.51507843" in="SourceGraphic"></feGaussianBlur>
        </filter>
    </defs>
    <g id="Symbols" stroke="none" stroke-width="1" fill="none" fill-rule="evenodd">
        <g id="match-head" transform="translate(-1097.000000, -124.000000)">
            <g id="illustration" transform="translate(1278.000000, 348.000000) scale(-1, 1) translate(-1278.000000, -348.000000) translate(723.000000, 95.500000)">
                <g id="tennis" transform="translate(338.000000, 0.500000)">
                    <mask id="mask-3" fill="white">
                        <use xlink:href="#path-1"></use>
                    </mask>
                    <use id="Mask" fill="#D8D8D8" opacity="0" filter="url(#filter-2)" xlink:href="#path-1"></use>
                    <g mask="url(#mask-3)">
                        <g transform="translate(-73.000000, 38.400000)">
                            <g id="Group-3" stroke-width="1" fill="none" transform="translate(0.000000, 460.800000)">
                                <mask id="mask-5" fill="white">
                                    <use xlink:href="#path-4"></use>
                                </mask>
                                <g id="Clip-2"></g>
                                <path d="M0,0.137358689 C0,0.137358689 5.03434596,99.0770109 73.3651309,155.107798 C75.3303485,151.767602 190.715966,0.137358689 190.715966,0.137358689 L0,0.137358689 Z" id="Fill-1" mask="url(#mask-5)"></path>
                            </g>
                            <g id="Group-6" stroke-width="1" fill="none" transform="translate(115.984335, 354.816000)">
                                <mask id="mask-7" fill="white">
                                    <use xlink:href="#path-6"></use>
                                </mask>
                                <g id="Clip-5"></g>
                                <path d="M0.422339598,204.152488 L247.440894,286.464 C247.440894,286.464 316.413823,76.9817405 143.750201,0.0590912287 L0.422339598,204.152488 Z" id="Fill-4" mask="url(#mask-7)"></path>
                            </g>
                            <g id="Group-30" stroke-width="1" fill="none" transform="translate(162.838934, 30.720000)">
                                <path d="M77.3938909,117.891058 C77.3938909,117.891058 76.4916743,123.968486 76.4916743,126.843621 C76.4916743,129.718757 80.9283215,139.326918 80.9283215,139.326918 L80.9283215,119.945092 L77.3938909,117.891058 Z" id="Fill-7" fill="#7A6A58"></path>
                                <path d="M0.0243842342,176.652103 C0.0243842342,176.652103 0.37731394,181.737795 1.33471598,183.859827 C2.14324585,185.652136 4.20050518,185.616213 4.20050518,185.616213 L8.06733137,183.723832 L3.49207901,169.554714 L0.0243842342,176.652103 Z" id="Fill-11" fill="#F29100"></path>
                                <polygon id="Fill-13" fill="#F29100" points="83.7155678 165.667956 77.9852728 119.813331 83.4242404 106.823262 121.615085 117.161433 121.792191 159.570001"></polygon>
                                <path d="M69.519965,177.634986 C67.6410956,180.757734 57.4972542,209.883716 51.0533995,215.504407 C51.0533995,215.454371 50.0497957,253.396921 50.0420954,253.395638 C62.4844718,255.448389 79.7138583,240.18618 79.7138583,240.18618 C79.7138583,240.18618 77.1830315,186.049985 69.519965,177.634986" id="Fill-15" fill="#BD1622"></path>
                                <path d="M51.0532711,215.504535 C51.0532711,215.504535 22.2182725,189.530811 14.7027948,176.456065 L4.2008902,185.61647 C4.2008902,185.61647 30.8271906,249.889409 50.0419671,253.395766 L51.0532711,215.504535 Z" id="Fill-17" fill="#F8B133"></path>
                                <path d="M186.447373,80.5421379 L249.789913,20.4042097 L256.278686,37.1700596 C256.278686,37.1700596 221.414365,95.7081244 201.814574,99.976565 C198.504735,95.6901628 186.447373,80.5421379 186.447373,80.5421379" id="Fill-19" fill="#F29100"></path>
                                <path d="M81.6551,115.871407 C80.8850716,119.176337 78.8521965,121.526738 77.1106488,121.121319 C75.3716679,120.718467 74.5811053,117.711185 75.3498504,114.406255 C76.1185955,111.102608 78.152754,108.752207 79.8943016,109.157625 C81.6345659,109.560478 82.4238451,112.567759 81.6551,115.871407" id="Fill-21" fill="#F8B133"></path>
                                <path d="M127.206261,126.128879 C126.436233,129.433809 124.403358,131.78421 122.66181,131.378791 C120.921546,130.975939 120.130983,127.968658 120.899728,124.663727 C121.669757,121.36008 123.703915,119.009679 125.444179,119.415098 C127.185727,119.81795 127.973723,122.825231 127.206261,126.128879" id="Fill-23" fill="#F8B133"></path>
                                <g id="Group-27" transform="translate(249.743973, 0.000000)">
                                    <mask id="mask-9" fill="white">
                                        <use xlink:href="#path-8"></use>
                                    </mask>
                                    <g id="Clip-26"></g>
                                    <path d="M0.0465819204,20.4048512 L14.5154165,16.1492403 L24.8735825,11.0186439 L36.5600475,5.61990682 C36.5600475,5.61990682 46.2328882,1.15388882 48.3504665,0.466216984 C50.4654779,-0.220171879 51.9426492,3.44912186 49.3964218,4.34976668 C46.8514778,5.25041151 32.2555885,14.6173743 32.2555885,14.6173743 L31.9745281,16.9806047 C31.9745281,16.9806047 52.6408083,18.3880226 56.0494676,18.6189572 C59.4581268,18.8524577 57.497121,23.2940993 55.3782594,23.2184041 C53.2593978,23.1439918 33.3900971,22.4357925 33.3900971,22.4357925 L33.3182278,23.5045064 C33.3182278,23.5045064 52.3109795,24.0561834 54.2707019,23.7392898 C56.8656977,23.3197587 57.7448135,26.6272549 54.9598773,27.9333182 C52.579206,29.050785 32.6765374,29.4536375 32.6765374,29.4536375 L31.357222,33.0190107 L38.6891762,37.3285064 C38.6891762,37.3285064 44.6491964,39.8033552 46.3548094,40.2331501 C48.0822399,40.3511833 47.2980943,43.0377221 45.2215842,42.8953125 C42.6804903,42.7233945 26.4919256,36.9487473 26.4919256,36.9487473 C26.4919256,36.9487473 18.2885559,37.0321403 12.6583645,38.1778324 C9.41911151,38.5242342 6.53535498,37.1707011 6.53535498,37.1707011 L0.0465819204,20.4048512 Z" id="Fill-25" fill="#F29100" mask="url(#mask-9)"></path>
                                </g>
                                <path d="M254.741068,31.060044 C249.570327,26.5414243 254.140446,19.1258586 254.140446,19.1258586 L259.904109,18.7178742 L267.178311,20.5165979 L266.748378,25.317471 C266.748378,25.317471 259.846356,35.5222131 254.741068,31.060044" id="Fill-28" fill="#F8B133"></path>
                            </g>
                            <g id="Group-33" stroke-width="1" fill="none" transform="translate(423.227606, 49.152000)">
                                <mask id="mask-11" fill="white">
                                    <use xlink:href="#path-10"></use>
                                </mask>
                                <g id="Clip-32"></g>
                                <path d="M1.91017531,5.88416 C3.53637005,6.84544 4.45019932,7.31136 5.6629324,7.43936 C6.87566549,7.56864 9.30244841,4.61312 7.739458,2.23104 C6.93360279,0.99968 5.78670755,0.43776 3.64829438,0.29568 C3.5469041,0.28416 3.44683058,0.27904 3.34807382,0.27904 C0.679007629,0.27904 -0.831312508,4.13056 1.91017531,5.88416" id="Fill-31" mask="url(#mask-11)"></path>
                            </g>
                            <g id="Group-82" stroke-width="1" fill="none" transform="translate(115.984335, 37.632000)">
                                <path d="M47.4792079,143.026357 C47.4792079,143.026357 45.9254235,148.509236 45.2050326,149.988702 C43.7539777,151.418125 41.830367,150.535321 41.830367,150.535321 L42.3889589,144.854839 L47.4792079,143.026357 Z" id="Fill-34" fill="#F29100"></path>
                                <polygon id="Fill-36" fill="#94C01F" points="50.9038257 130.114069 38.9140036 169.726038 47.4174417 172.677271 60.0210728 132.231259 62.0628225 123.262075 54.7407742 120.390397"></polygon>
                                <path d="M40.2484604,154.000711 C38.6150607,155.425002 40.2702905,158.578972 40.2702905,158.578972 C40.2702905,158.578972 38.5071946,159.11661 39.0786277,161.428837 C37.1344711,160.959206 37.2770083,164.24534 37.2770083,164.24534 C37.2770083,164.24534 36.9354326,166.298372 38.844918,166.726943 C40.1996639,167.031048 40.4616242,165.976303 40.4616242,165.976303 C40.4616242,165.976303 41.5364321,167.58665 42.8577909,167.013084 C45.743207,165.756885 43.6899002,162.255183 43.2186284,161.714979 C45.6802851,162.243634 45.2860605,157.506263 45.2860605,157.506263 C45.2860605,157.506263 40.7685287,154.594807 40.2484604,154.000711" id="Fill-38" fill="#F29100"></path>
                                <path d="M78.8635975,95.8357499 C75.0356378,99.1732099 63.6249536,112.887463 62.778719,113.904997 C61.9119385,114.945628 60.1989233,114.378478 60.0551019,112.958036 C59.9112806,111.537595 59.8034145,97.7681662 57.6242641,86.7870116 C57.4059638,85.2600691 58.7722667,84.1552813 60.5584767,85.4923183 C62.7748666,87.3220831 64.5418148,89.2557825 68.8320574,90.7121521 C73.1235842,92.1698047 75.6969593,92.3571439 77.6976172,92.4931573 C79.6982751,92.6291706 79.9576672,94.8823732 78.8635975,95.8357499 Z M83.4055275,91.7040231 L68.9129569,89.5316587 L59.4284517,83.5483537 L49.6242008,70.6232345 C49.6242008,70.6232345 56.3414289,91.818223 56.7587677,102.345144 C57.1761064,112.873349 55.5093196,120.692834 55.5093196,120.692834 L61.2621741,122.948603 C61.2621741,122.948603 68.5392782,112.15992 72.6022317,107.218529 C79.0741931,99.3464345 93.4768753,88.5808483 93.4768753,88.5808483 L83.4055275,91.7040231 Z" id="Fill-40" fill="#008D36"></path>
                                <path d="M118.367217,52.5220368 C113.821434,77.6742444 94.0010528,95.1506788 74.0959193,91.5578729 C54.1946382,87.9676333 41.7451015,64.6657208 46.2908838,39.5135132 C50.8366662,14.3625888 70.6570478,-3.11384562 90.559613,0.476393985 C110.463462,4.06791674 122.912999,27.3698293 118.367217,52.5220368 Z M112.002583,63.5972908 C113.554294,60.0011082 114.740764,56.1129652 115.483598,52.0019782 C119.665975,28.8617419 108.212915,7.42423902 89.9000893,4.12014074 C71.5911162,0.816042457 53.3553378,16.895132 49.1742454,40.0340851 C44.9905846,63.1743214 56.4449289,84.6118243 74.7551862,87.9146394 C89.8134037,90.6327695 104.820388,80.2424516 112.002583,63.5972908 Z" id="Combined-Shape" fill="#008D36"></path>
                                <polygon id="Fill-46" fill="#A3897A" points="109.209648 286.72666 209.213008 293.78909 144.656478 354.660204"></polygon>
                                <path d="M131.684304,94.808849 L124.774458,113.414451 L128.616543,119.80323 L144.510088,109.133879 L158.302814,114.330616 L163.79756,132.677023 L171.278839,113.647983 C171.278839,113.647983 173.980626,102.854168 175.016911,99.1202161 C178.376167,74.8277156 139.133481,69.7721245 131.684304,94.808849" id="Fill-48" fill="#F8B133"></path>
                                <polygon id="Fill-50" fill="#F29100" points="160.283568 90.7519296 159.247283 94.3306209 156.341321 98.1762063 155.144522 101.210844 155.750627 103.316485 154.941631 105.667207 152.383666 105.120587 153.56634 109.25103 152.636637 112.285668 163.542663 127.403682 165.648618 107.70869 169.890064 104.521358"></polygon>
                                <path d="M170.436072,117.077702 C172.963219,115.572572 208.854353,94.511031 233.298849,74.1372553 C236.004488,77.2347673 248.674893,93.5756184 248.674893,93.5756184 C248.674893,93.5756184 208.892877,159.263658 206.875526,162.819253 C200.312392,150.588315 187.020473,125.756894 170.436072,117.077702" id="Fill-52" fill="#00AAD6"></path>
                                <path d="M55.4566707,146.878872 L52.9128303,155.04224 L50.8043064,154.916492 L45.084839,151.759955 C45.084839,151.759955 42.6424441,150.515304 39.886724,149.626085 C37.1322881,148.736865 36.399056,152.10897 37.6793229,153.220174 C38.7682561,154.115809 42.1621834,156.898951 42.1621834,156.898951 C42.1621834,156.898951 45.9439148,158.496466 46.6745787,160.369858 C46.6732946,172.969058 51.1754169,176.173071 52.6752682,176.660666 C55.3539411,177.531922 61.454792,170.065301 61.454792,170.065301 L60.1051826,151.990921 L55.4566707,146.878872 Z" id="Fill-54" fill="#F8B133"></path>
                                <path d="M139.083015,93.5055586 L146.817265,86.3456097 L156.274804,89.8152337 C156.274804,89.8152337 153.421491,92.6638155 152.746044,93.3400329 C147.682762,91.4602256 139.083015,93.5055586 139.083015,93.5055586" id="Fill-56" fill="#F29100"></path>
                                <path d="M160.283568,90.7519296 L167.843178,92.561164 L169.890064,104.521358 C169.890064,104.521358 166.74012,98.934545 161.897706,96.5350639 C161.499629,95.1133393 160.283568,90.7519296 160.283568,90.7519296" id="Fill-58" fill="#F29100"></path>
                                <path d="M151.226931,97.4401944 C152.802545,95.8657755 156.817987,93.7344717 156.817987,93.7344717 L159.731653,94.4427677 L161.385599,101.138218 C161.385599,101.138218 158.31527,97.4401944 151.226931,97.4401944" id="Fill-60" fill="#F29100"></path>
                                <polygon id="Fill-62" fill="#F29100" points="155.649952 103.22628 150.612352 102.207463 145.307655 102.095829 151.675602 99.6078111 155.404685 100.552206 161.464444 108.456379"></polygon>
                                <path d="M127.286453,103.022003 L128.009412,104.704206 L131.747483,99.4163659 C131.747483,99.4163659 135.774481,90.4715624 137.924097,88.3222946 C140.166169,86.0832066 148.354998,79.0284756 162.34933,83.882613 C175.329208,88.9317884 173.012657,100.785482 173.012657,100.785482 L170.729493,115.877833 C170.729493,115.877833 175.529531,102.214905 175.954575,100.05024 C176.694227,96.2957574 177.012689,80.5310383 160.280614,76.4891317 C157.513337,76.0182175 142.912901,72.3997487 133.466919,86.5400062 C129.961273,91.1246832 127.286453,103.022003 127.286453,103.022003" id="Fill-64" fill="#7A6A58"></path>
                                <path d="M162.348945,77.0897719 C148.332783,72.647524 135.706038,76.0067975 135.706038,76.0067975 C135.706038,76.0067975 138.550362,76.5341701 140.256957,77.4772817 C137.480691,77.4772817 134.220312,80.1398074 134.220312,80.1398074 C134.220312,80.1398074 138.802049,79.5405788 140.652465,80.2835197 C139.297719,81.0264606 137.940405,83.7595594 137.940405,83.7595594 C137.940405,83.7595594 164.416377,77.6902837 162.348945,77.0897719" id="Fill-66" fill="#7A6A58"></path>
                                <path d="M74.3515875,426.655928 C59.9180864,434.925797 48.8579668,419.371514 53.7915532,399.994742 C1.26080034,429.110584 0.43125926,520.637314 0.424838664,521.373839 C11.8599211,504.38885 42.2742871,464.323931 74.3515875,426.655928 Z" id="Fill-68" fill="#F29100"></path>
                                <path d="M53.7919384,399.994357 C56.7004686,402.636352 74.3275744,419.047776 77.734343,422.699607 C101.888627,394.570503 126.638743,368.295544 144.656221,354.660845 C144.656221,354.660845 137.942845,318.358108 109.209391,286.727301 C107.871339,288.995902 69.9911035,352.46795 53.7919384,399.994357" id="Fill-70" fill="#CABB9F"></path>
                                <path d="M74.3515875,426.655928 C75.4777601,425.334288 76.6052169,424.015215 77.7339577,422.699992 C74.3271892,419.046878 56.7000834,402.635454 53.7915532,399.994742 C48.8579668,419.371514 59.9180864,434.925797 74.3515875,426.655928" id="Fill-72" fill="#CABB9F"></path>
                                <path d="M209.213008,293.788961 L144.656478,354.660075 C164.095476,339.001857 200.153546,305.845391 209.213008,293.788961" id="Fill-74" fill="#A3897A"></path>
                                <path d="M144.655836,354.660717 C144.655836,354.660717 134.011771,396.002364 138.498484,431.864983 C146.651357,449.5711 168.812688,445.012086 172.803731,432.584827 C205.79404,355.830945 209.212366,293.789603 209.212366,293.789603 C200.154188,305.846033 164.096118,339.002499 144.655836,354.660717" id="Fill-76" fill="#ECECEB"></path>
                                <path d="M109.209648,286.72666 C141.21247,305.963569 190.159246,305.963569 209.213008,293.78909 C210.414944,286.667635 211.42683,279.845153 212.278201,273.279301 C193.635357,281.762172 155.277429,295.956321 109.209648,286.72666" id="Fill-78" fill="#F29100"></path>
                                <path d="M212.277816,273.278659 C226.48788,163.836659 193.956001,129.988578 170.472027,117.085272 C151.211522,125.88508 125.604898,137.996686 113.785864,177.056901 C121.705028,187.46834 123.665878,210.62269 124.043409,225.289037 C124.043409,256.863385 111.236887,282.202932 109.209263,286.726018 C151.184555,296.190495 201.212559,288.607109 212.277816,273.278659" id="Fill-80" fill="#E5332A"></path>
                            </g>
                            <ellipse id="Oval" fill="#F5A623" filter="url(#filter-12)" cx="289.598684" cy="10.08" rx="10.0855263" ry="10.08"></ellipse>
                        </g>
                    </g>
                </g>
            </g>
        </g>
    </g>
</svg>