<?xml version="1.0" encoding="UTF-8"?>
<svg width="446px" height="490px" viewBox="0 0 446 490" version="1.1" xmlns="http://www.w3.org/2000/svg" xmlns:xlink="http://www.w3.org/1999/xlink">
    <!-- Generator: Sketch 49.3 (51167) - http://www.bohemiancoding.com/sketch -->
    <title>rating</title>
    <desc>Created with Sketch.</desc>
    <defs>
        <polygon id="path-1" points="0 0 126.297417 0 126.297417 163.1938 0 163.1938"></polygon>
        <path d="M0,0 L286.889706,0 L286.889706,303.255386 C284.878104,307.500834 282.469731,309.623558 279.664589,309.623558 C276.859446,309.623558 183.637916,307.500834 0,303.255386 L0,0 Z" id="path-3"></path>
    </defs>
    <g id="Symbols" stroke="none" stroke-width="1" fill="none" fill-rule="evenodd">
        <g id="rating-head" transform="translate(-1087.000000, -110.000000)">
            <g id="rating" transform="translate(1087.000000, 110.000000)">
                <path d="M443.752102,170.009526 C442.628381,169.814377 441.192135,169.678641 439.704333,169.63888 C439.662816,168.148985 439.5264,166.710277 439.332497,165.585086 C439.216156,164.909606 439.09069,164.346553 438.987123,163.9526 C438.885381,163.558646 438.805995,163.333333 438.805995,163.333333 C438.805995,163.333333 438.727066,163.558646 438.62578,163.9526 C438.521757,164.346553 438.397204,164.909606 438.27995,165.585086 C438.086047,166.710734 437.949631,168.149442 437.908114,169.639794 C436.420769,169.680926 434.984066,169.818033 433.860802,170.011811 C433.186478,170.129266 432.623933,170.25449 432.230653,170.358692 C431.837374,170.460151 431.612903,170.539216 431.612903,170.539216 C431.612903,170.539216 431.837374,170.618738 432.230653,170.720197 C432.623933,170.824398 433.186478,170.949622 433.860802,171.06662 C434.984066,171.260855 436.420312,171.397505 437.907201,171.438637 C437.946894,172.928989 438.082397,174.367698 438.277212,175.493345 C438.394466,176.168826 438.520389,176.731878 438.624868,177.125832 C438.726609,177.520243 438.805995,177.745098 438.805995,177.745098 C438.805995,177.745098 438.885838,177.520243 438.988035,177.125832 C439.092058,176.731878 439.217981,176.168826 439.334778,175.493345 C439.530049,174.368155 439.665553,172.929446 439.705246,171.439551 C441.192591,171.39979 442.628381,171.264054 443.752102,171.068905 C444.426426,170.951907 444.988058,170.825769 445.381338,170.721111 C445.775073,170.619195 446,170.539216 446,170.539216 C446,170.539216 445.775073,170.459237 445.381338,170.357321 C444.988058,170.253119 444.426426,170.126981 443.752102,170.009526" id="Fill-1" fill="#CCCCCC"></path>
                <path d="M235.139198,97.9507024 C234.015477,97.7555536 232.579231,97.6198178 231.09143,97.5795997 C231.049912,96.0901616 230.913496,94.6514531 230.72005,93.5262623 C230.603253,92.8507823 230.477786,92.2877299 230.37422,91.893776 C230.272478,91.4993651 230.193092,91.2745098 230.193092,91.2745098 C230.193092,91.2745098 230.114162,91.4993651 230.012877,91.893776 C229.908854,92.2877299 229.7843,92.8507823 229.667047,93.5262623 C229.473144,94.6519101 229.336728,96.0906187 229.29521,97.5809708 C227.807865,97.6221029 226.371163,97.7587528 225.247898,97.9529876 C224.573574,98.0704425 224.01103,98.1956668 223.61775,98.299411 C223.22447,98.4008701 223,98.4803922 223,98.4803922 C223,98.4803922 223.22447,98.5599142 223.61775,98.6613733 C224.01103,98.7651175 224.573574,98.8907989 225.247898,99.0077968 C226.371163,99.2020315 227.807409,99.3386814 229.294298,99.3798135 C229.333991,100.870166 229.469494,102.308874 229.664309,103.434522 C229.781563,104.110002 229.907485,104.673054 230.011965,105.067008 C230.113706,105.461419 230.193092,105.686275 230.193092,105.686275 C230.193092,105.686275 230.272934,105.461419 230.375132,105.067008 C230.479155,104.673054 230.605534,104.110002 230.721875,103.434522 C230.917146,102.309331 231.05265,100.870623 231.092343,99.3807276 C232.579688,99.3409666 234.015477,99.2052307 235.139198,99.0100819 C235.813522,98.893084 236.375611,98.7669456 236.768891,98.6622873 C237.162626,98.5599142 237.387097,98.4803922 237.387097,98.4803922 C237.387097,98.4803922 237.162626,98.4004131 236.768891,98.298497 C236.375611,98.1938387 235.813522,98.0677003 235.139198,97.9507024" id="Fill-3" fill="#CCCCCC"></path>
                <path d="M156.009781,165.205604 C154.886552,165.010456 153.449895,164.87472 151.962141,164.834959 C151.921081,163.345064 151.784669,161.906355 151.590773,160.781164 C151.473979,160.105684 151.348973,159.542632 151.244954,159.148678 C151.143215,158.754724 151.064288,158.529412 151.064288,158.529412 C151.064288,158.529412 150.985361,158.754724 150.884079,159.148678 C150.780059,159.542632 150.655053,160.105684 150.538259,160.781164 C150.344363,161.906812 150.207495,163.345521 150.166435,164.835873 C148.679137,164.877005 147.24248,165.014112 146.118795,165.20789 C145.444492,165.325344 144.882421,165.450569 144.489154,165.55477 C144.095887,165.656229 143.870968,165.735294 143.870968,165.735294 C143.870968,165.735294 144.095887,165.814816 144.489154,165.916275 C144.882421,166.020019 145.444492,166.145701 146.118795,166.262699 C147.24248,166.456934 148.678224,166.593583 150.165522,166.634715 C150.205214,168.125068 150.340713,169.563776 150.535522,170.689424 C150.652772,171.364904 150.77869,171.927956 150.88271,172.32191 C150.984905,172.716321 151.064288,172.941176 151.064288,172.941176 C151.064288,172.941176 151.144128,172.716321 151.245866,172.32191 C151.350342,171.927956 151.47626,171.364904 151.593054,170.689424 C151.787863,169.564233 151.923362,168.125525 151.963054,166.63563 C153.450808,166.595869 154.886552,166.460133 156.009781,166.264984 C156.68454,166.147986 157.246155,166.021848 157.639422,165.917189 C158.033145,165.815273 158.258065,165.735294 158.258065,165.735294 C158.258065,165.735294 158.033145,165.655315 157.639422,165.553399 C157.246155,165.448741 156.68454,165.322602 156.009781,165.205604" id="Fill-5" fill="#CCCCCC"></path>
                <path d="M304.676833,261.283579 C303.553112,261.08843 302.116866,260.952694 300.629065,260.912933 C300.587547,259.423495 300.451131,257.984786 300.257228,256.859139 C300.140887,256.184116 300.015421,255.620606 299.911854,255.226652 C299.810112,254.832698 299.731183,254.607843 299.731183,254.607843 C299.731183,254.607843 299.651797,254.832698 299.550511,255.226652 C299.446489,255.620606 299.321935,256.184116 299.204681,256.859139 C299.010779,257.984786 298.874363,259.423952 298.832845,260.913847 C297.3455,260.954979 295.908798,261.092086 294.785533,261.286321 C294.111209,261.403319 293.54912,261.528543 293.155841,261.632744 C292.762561,261.734203 292.537634,261.813268 292.537634,261.813268 C292.537634,261.813268 292.762561,261.89279 293.155841,261.994707 C293.54912,262.098451 294.111209,262.223675 294.785533,262.340673 C295.908798,262.534908 297.345044,262.671558 298.831932,262.713147 C298.871625,264.203499 299.007129,265.642208 299.201943,266.767398 C299.319197,267.443335 299.44512,268.005931 299.549599,268.399885 C299.651341,268.794295 299.731183,269.019608 299.731183,269.019608 C299.731183,269.019608 299.810569,268.794295 299.912767,268.399885 C300.01679,268.005931 300.142712,267.443335 300.259966,266.767398 C300.454781,265.642208 300.590284,264.203956 300.629977,262.714061 C302.117322,262.6743 303.553112,262.538107 304.676833,262.342958 C305.351157,262.226417 305.913245,262.099822 306.306525,261.995621 C306.700261,261.893248 306.924731,261.813268 306.924731,261.813268 C306.924731,261.813268 306.700261,261.733746 306.306525,261.63183 C305.913245,261.527172 305.351157,261.401034 304.676833,261.283579" id="Fill-7" fill="#CCCCCC"></path>
                <path d="M343.042039,21.0879573 C341.918354,20.8928085 340.482153,20.7570727 338.994399,20.7173117 C338.953339,19.2274165 338.816927,17.788708 338.622575,16.6635172 C338.506237,15.9880372 338.380775,15.4249848 338.277212,15.0310309 C338.175473,14.6370771 338.096546,14.4117647 338.096546,14.4117647 C338.096546,14.4117647 338.017163,14.6370771 337.916337,15.0310309 C337.812317,15.4249848 337.687311,15.9880372 337.570517,16.6635172 C337.376165,17.789165 337.239753,19.2278736 337.198236,20.7182257 C335.711395,20.7593578 334.274738,20.8964647 333.151053,21.0902425 C332.47675,21.2076974 331.91468,21.3329217 331.521412,21.437123 C331.128145,21.5385821 330.903226,21.6176471 330.903226,21.6176471 C330.903226,21.6176471 331.128145,21.6971691 331.521412,21.7986282 C331.91468,21.9028294 332.47675,22.0280538 333.151053,22.1450517 C334.274282,22.3392864 335.710482,22.4759363 337.197324,22.5170684 C337.237016,24.0074206 337.372971,25.4465861 337.56778,26.5717769 C337.68503,27.2472569 337.810492,27.8103093 337.915424,28.2042632 C338.016706,28.5986741 338.096546,28.8235294 338.096546,28.8235294 C338.096546,28.8235294 338.176386,28.5986741 338.278124,28.2042632 C338.3826,27.8103093 338.508062,27.2472569 338.625312,26.5717769 C338.820121,25.4465861 338.95562,24.0078776 338.995312,22.5179825 C340.483066,22.4782215 341.91881,22.3424856 343.042039,22.1473368 C343.716798,22.0303389 344.278413,21.9042005 344.67168,21.7995422 C345.065403,21.6976261 345.290323,21.6176471 345.290323,21.6176471 C345.290323,21.6176471 345.065403,21.537668 344.67168,21.4357519 C344.278413,21.3315506 343.716798,21.2054123 343.042039,21.0879573" id="Fill-9" fill="#CCCCCC"></path>
                <path d="M213.558553,33.0977613 C212.435288,32.9026124 210.998586,32.7668766 209.510785,32.7271156 C209.469723,31.2372205 209.333307,29.7985119 209.139405,28.6733212 C209.022607,27.9978411 208.897141,27.4347887 208.793575,27.0408349 C208.691833,26.646881 208.612903,26.4215686 208.612903,26.4215686 C208.612903,26.4215686 208.533974,26.646881 208.432688,27.0408349 C208.328665,27.4347887 208.203655,27.9978411 208.086401,28.6733212 C207.892955,29.7989689 207.756083,31.2376775 207.715021,32.7280296 C206.22722,32.7691617 204.790974,32.9062686 203.667253,33.1000464 C202.992929,33.2175013 202.430841,33.3427256 202.037561,33.4469269 C201.644282,33.548386 201.419355,33.627451 201.419355,33.627451 C201.419355,33.627451 201.644282,33.706973 202.037561,33.8084321 C202.430841,33.9121763 202.992929,34.0378577 203.667253,34.1548556 C204.790518,34.3490904 206.226764,34.4857403 207.714109,34.5268723 C207.753802,36.0172245 207.889305,37.455933 208.08412,38.5815808 C208.201374,39.2570609 208.32684,39.8201132 208.431319,40.2140671 C208.533061,40.608478 208.612903,40.8333333 208.612903,40.8333333 C208.612903,40.8333333 208.692745,40.608478 208.794487,40.2140671 C208.898966,39.8201132 209.024432,39.2570609 209.141686,38.5815808 C209.336501,37.4563901 209.472005,36.0176815 209.511698,34.5277864 C210.999043,34.4880254 212.435288,34.3522895 213.558553,34.1571407 C214.232877,34.0401428 214.794966,33.9140044 215.188245,33.8093462 C215.581981,33.706973 215.806452,33.627451 215.806452,33.627451 C215.806452,33.627451 215.581981,33.5474719 215.188245,33.4455558 C214.794966,33.3408975 214.232877,33.2152162 213.558553,33.0977613" id="Fill-11" fill="#CCCCCC"></path>
                <path d="M444.969874,59.8560248 C444.314428,59.7474046 443.37773,59.6058105 442.253693,59.4923412 C440.245723,59.2605535 437.640396,59.1155649 434.971655,59.0859853 C434.940189,56.4121831 434.793997,53.8028742 434.564058,51.7924309 C434.450783,50.6664664 434.309915,49.7281626 434.202449,49.0711074 C434.094499,48.4145372 434.010753,48.0392157 434.010753,48.0392157 C434.010753,48.0392157 433.927007,48.4145372 433.81954,49.0711074 C433.711106,49.7281626 433.571207,50.6664664 433.457447,51.7924309 C433.227509,53.8033591 433.080832,56.412668 433.049851,59.0864702 C430.380625,59.1179895 427.775298,59.2644327 425.768296,59.4947657 C424.644259,59.6087199 423.707561,59.7488594 423.052115,59.8569946 C422.396184,59.9651299 422.021505,60.0490196 422.021505,60.0490196 C422.021505,60.0490196 422.396184,60.1329093 423.052115,60.2405597 C423.707561,60.3491798 424.644259,60.4893193 425.768296,60.6032735 C427.775298,60.8336065 430.380625,60.9800497 433.049367,61.011569 C433.078896,63.6848863 433.22412,66.2946801 433.455027,68.3056083 C433.568786,69.4315728 433.709654,70.3698767 433.818088,71.0269318 C433.926523,71.683502 434.010753,72.0588235 434.010753,72.0588235 C434.010753,72.0588235 434.095467,71.683502 434.203417,71.0269318 C434.311367,70.3698767 434.452719,69.4315728 434.566962,68.3056083 C434.797385,66.2951651 434.94261,63.6853712 434.972623,61.0120539 C437.64088,60.9824743 440.246207,60.8370008 442.253693,60.605698 C443.37773,60.4922287 444.314428,60.3506346 444.969874,60.2420144 C445.625321,60.1338791 446,60.0490196 446,60.0490196 C446,60.0490196 445.625321,59.9641601 444.969874,59.8560248" id="Fill-13" fill="#CCCCCC"></path>
                <path d="M145.238692,103.477062 C145.894138,103.368929 146.268817,103.284556 146.268817,103.284556 C146.268817,103.284556 145.894138,103.199698 145.238692,103.091565 C144.583245,102.982462 143.646063,102.841356 142.52251,102.727404 C140.515024,102.496106 137.909213,102.350635 135.240472,102.321056 C135.209491,99.6477931 135.062814,97.0385368 134.832875,95.0276493 C134.719116,93.9017074 134.578732,92.9634226 134.471266,92.3063807 C134.3638,91.6498238 134.27957,91.2745098 134.27957,91.2745098 C134.27957,91.2745098 134.195824,91.6498238 134.087874,92.3063807 C133.980408,92.9634226 133.840024,93.9017074 133.726265,95.0276493 C133.49681,97.0385368 133.349649,99.648278 133.318668,102.322026 C130.649927,102.35306 128.0446,102.499985 126.037114,102.729829 C124.913076,102.84378 123.976379,102.984402 123.320932,103.092535 C122.665002,103.200183 122.290323,103.284556 122.290323,103.284556 C122.290323,103.284556 122.665002,103.368444 123.320932,103.476092 C123.976379,103.584225 124.913076,103.724362 126.037114,103.838799 C128.044116,104.068642 130.649442,104.215568 133.318184,104.246601 C133.347713,106.920349 133.492937,109.530091 133.723844,111.540978 C133.837603,112.66692 133.978471,113.605205 134.086905,114.261762 C134.19534,114.918804 134.27957,115.294118 134.27957,115.294118 C134.27957,115.294118 134.364284,114.918804 134.472234,114.261762 C134.580669,113.605205 134.721536,112.66692 134.835295,111.540978 C135.066202,109.530091 135.211911,106.920834 135.24144,104.247571 C137.909697,104.217992 140.515024,104.072522 142.52251,103.841223 C143.646063,103.727271 144.583245,103.58568 145.238692,103.477062" id="Fill-15" fill="#CCCCCC"></path>
                <path d="M382.307456,266.060737 C380.29997,265.829439 377.694644,265.683969 375.025418,265.65439 C374.994437,262.981126 374.84776,260.37187 374.617821,258.360983 C374.504062,257.235041 374.364163,256.296756 374.256212,255.640199 C374.148746,254.983157 374.065,254.607843 374.065,254.607843 C374.065,254.607843 373.98077,254.983157 373.87282,255.640199 C373.765354,256.296756 373.62497,257.235041 373.511211,258.360983 C373.281272,260.37187 373.13508,262.981611 373.103614,265.654875 C370.434873,265.686878 367.829546,265.833318 365.82206,266.063162 C364.698023,266.177114 363.761325,266.317735 363.105878,266.425868 C362.449948,266.533517 362.075269,266.617405 362.075269,266.617405 C362.075269,266.617405 362.449948,266.701778 363.105878,266.809426 C363.761325,266.917559 364.698023,267.05818 365.82206,267.172132 C367.829546,267.401976 370.434389,267.548901 373.10313,267.580419 C373.132659,270.253198 373.277884,272.863424 373.508791,274.874311 C373.62255,276.000253 373.763901,276.938538 373.871852,277.595095 C373.980286,278.252137 374.065,278.627451 374.065,278.627451 C374.065,278.627451 374.148746,278.252137 374.257181,277.595095 C374.365615,276.938538 374.506967,276.000253 374.620242,274.874311 C374.851633,272.863424 374.996373,270.253683 375.026386,267.580904 C377.695128,267.551325 380.29997,267.40537 382.307456,267.174557 C383.43101,267.060605 384.368192,266.919498 385.023638,266.810396 C385.679568,266.702262 386.053763,266.617405 386.053763,266.617405 C386.053763,266.617405 385.679568,266.533032 385.023638,266.424899 C384.368192,266.315796 383.43101,266.174689 382.307456,266.060737" id="Fill-17" fill="#CCCCCC"></path>
                <path d="M199.021505,235.392157 C199.135403,235.796436 199.240909,236.197273 199.336823,236.593137 C199.14979,236.224811 199.044884,235.809058 199.021505,235.392157" id="Fill-19" fill="#61C46E"></path>
                <path d="M191.827957,216.176471 C191.827957,216.176471 192.312383,216.615985 193.026882,217.377451 C192.653581,217.095946 192.252293,216.689328 191.827957,216.176471" id="Fill-21" fill="#61C46E"></path>
                <path d="M196.947965,226.985294 C196.826274,226.600046 196.717172,226.196558 196.623656,225.784314 C196.733358,226.171021 196.841261,226.57378 196.947965,226.985294" id="Fill-23" fill="#61C46E"></path>
                <path d="M199.021505,242.598039 C199.074858,241.786409 199.272081,240.900314 199.555626,240.196078 C199.561022,240.69301 199.523255,241.125206 199.435134,241.467595 C199.354806,241.777803 199.209737,242.163972 199.021505,242.598039" id="Fill-25" fill="#61C46E"></path>
                <g id="Group-29" transform="translate(0.000000, 242.598039)">
                    <mask id="mask-2" fill="white">
                        <use xlink:href="#path-1"></use>
                    </mask>
                    <g id="Clip-28"></g>
                    <path d="M24.3219601,1.49130547 L125.647005,144.849798 C126.773865,146.443674 126.399464,148.652345 124.811803,149.782832 L106.890845,162.541184 C105.302727,163.671671 103.102036,163.296371 101.975634,161.702495 L0.650131415,18.3435433 C-0.476271308,16.7501257 -0.101870403,14.5414553 1.48579058,13.4109684 L19.4072053,0.652616333 C20.9948663,-0.477870559 23.1955573,-0.102570933 24.3219601,1.49130547" id="Fill-27" fill="#262626" mask="url(#mask-2)"></path>
                </g>
                <path d="M56.4300749,259.669425 L123.744396,352.420375 C129.533421,360.396983 127.610407,371.449589 119.449912,377.107843 L31.172043,255.471951 C39.3330023,249.814151 50.6410498,251.692817 56.4300749,259.669425" id="Fill-30" fill="#333333"></path>
                <polygon id="Fill-32" fill="#FFD590" points="257.637917 163.333333 69.5376344 276.198937 108.897694 331.470588 278.150538 192.138073"></polygon>
                <polygon id="Fill-34" fill="#F5A623" points="88.7204301 308.288434 108.405296 336.27451 278.150538 194.800889 267.843468 180.147059"></polygon>
                <path d="M69.5376344,277.43469 L109.564423,333.872549 L115.096774,329.299695 C100.258361,311.929285 85.9691741,294.009536 71.5443122,276.22549 L69.5376344,277.43469 Z" id="Fill-38" fill="#CCCCCC" opacity="0"></path>
                <path d="M207.079097,217.046824 C202.853121,211.67057 197.028576,208.530237 192.002394,204.166667 L83.9247312,269.237356 C86.3009205,269.099598 88.5632555,269.307387 90.4591365,270.491462 C102.443796,279.245325 111.662766,292.145755 127.795962,289.381377 C135.090932,294.97187 143.669183,297.610008 152.447024,297.843137 L211.074598,249.414924 C214.60408,238.716782 214.765412,227.473597 207.079097,217.046824" id="Fill-40" fill="#CCCCCC" opacity="0"></path>
                <g id="Group-44" transform="translate(148.666667, 0.000000)">
                    <mask id="mask-4" fill="white">
                        <use xlink:href="#path-3"></use>
                    </mask>
                    <g id="Clip-43"></g>
                    <polygon id="Fill-42" fill="#FFD590" mask="url(#mask-4)" points="284.714689 247.342191 218.291204 152.82872 286.889706 59.9570066 177.30768 94.5134715 110.883737 0 109.582026 115.870664 0 150.426666 108.777906 187.482303 107.407008 303.255386 175.937241 210.286554"></polygon>
                </g>
                <polygon id="Fill-45" fill="#FFD590" points="255.527839 186.805896 254.172043 302.647059 304.526882 151.323529"></polygon>
                <polygon id="Fill-47" fill="#F5A623" points="304.038372 151.323529 254.172043 302.647059 321.311828 209.623094"></polygon>
                <polygon id="Fill-49" fill="#F5A623" opacity="0" points="431.612903 245 366.093639 152.117067 306.924731 151.323529"></polygon>
                <polygon id="Fill-51" fill="#F5A623" points="324.317205 208.585462 431.612903 245 306.924731 151.323529"></polygon>
                <polygon id="Fill-53" fill="#F5A623" points="366.211404 151.323529 434.010753 60.0490196 306.924731 150.529945"></polygon>
                <polygon id="Fill-57" fill="#F5A623" points="257.851121 0 256.569892 115.338859 304.526882 151.323529"></polygon>
                <polygon id="Fill-61" fill="#F5A623" points="148.666667 151.323529 257.411372 189.754902 306.924731 152.976837"></polygon>
                <polygon id="Fill-63" fill="#B5B5B5" opacity="0" points="258.215707 115.294118 148.666667 149.734749 306.924731 151.323529"></polygon>
                <path d="M164.434825,192.703943 C172.200697,190.660189 178.406106,194.736402 180.033979,198.431246 C181.66094,202.126542 184.725385,214.482604 186.172889,218.700701 C187.620393,222.918797 192.170146,231.862878 193.714211,235.183584 C195.258276,238.503838 193.183126,244.608893 189.158537,246.302006 C185.133948,247.995571 178.559602,248.517919 174.410212,241.966879 C170.260823,235.416291 156.822448,205.491078 156.048139,203.79164 C155.274284,202.092201 156.668497,194.747698 164.434825,192.703943" id="Fill-65" fill="#FCDCB5"></path>
                <path d="M180.730301,244.158145 C178.5419,243.093311 170.661063,232.108394 168.146533,226.644394 C165.632003,221.180394 162.480502,212.216243 159.259976,206.749106 C156.038988,201.281969 157.625625,198.46437 158.304751,196.960784 C155.941242,199.762698 155.55211,203.079998 156.051032,204.148418 C156.83856,205.83351 170.505873,235.514431 174.726559,242.011446 C178.946318,248.508461 185.632893,247.990833 189.726648,246.311119 C190.502131,245.992924 191.206273,245.516975 191.827957,244.933019 C187.215824,247.034902 182.158505,245.353395 180.730301,244.158145" id="Fill-67" fill="#FCC27E"></path>
                <path d="M137.149367,200.816553 C144.311475,197.910518 151.622899,199.532544 153.70007,204.156529 C155.777241,208.780056 177.173154,254.979703 178.306032,257.664656 C179.43891,260.350066 182.53252,270.082679 174.439818,274.314289 C166.347115,278.545899 161.387749,275.300477 158.591856,268.988234 C155.796419,262.67599 131.974019,220.582339 130.163515,216.173041 C128.353468,211.7642 129.986803,203.722588 137.149367,200.816553" id="Fill-69" fill="#FCDCB5"></path>
                <path d="M164.543937,272.915132 C157.289739,265.174659 133.754324,218.934203 132.736105,215.239537 C130.871085,209.838133 131.132017,205.174916 133.231564,201.764706 C129.449606,205.537714 128.753188,211.376062 130.149603,214.918707 C131.923767,219.42011 155.274336,262.39305 158.014353,268.837149 C160.754371,275.280782 165.615865,278.594463 173.54813,274.27446 C174.099983,273.974148 174.593204,273.643526 175.043011,273.293319 C171.115145,275.132958 166.710171,274.825186 164.543937,272.915132" id="Fill-71" fill="#FCC27E"></path>
                <path d="M115.351929,216.249065 C120.908432,212.294061 128.260107,213.248811 131.233614,217.909677 C133.438345,221.673822 158.686395,266.48904 162.050866,275.251795 C163.836513,279.902234 163.631959,285.475236 158.156643,288.836354 C152.681326,292.197473 145.690228,290.379549 143.111314,287.259611 C140.5324,284.140127 122.419678,250.65361 114.828527,239.681693 C107.237376,228.710229 110.440381,219.186304 115.351929,216.249065" id="Fill-73" fill="#FCDCB5"></path>
                <path d="M150.503832,287.940594 C148.388568,286.968262 144.850383,284.59392 143.383308,282.823812 C137.492706,274.722897 131.521081,259.541553 129.71398,256.216178 C127.906879,252.891265 111.292477,234.867007 112.008034,222.906397 C112.319384,218.216053 112.699467,217.802117 113.544298,216.176471 C109.785801,220.235725 108.222682,228.856143 114.843862,238.595206 C122.462362,249.800638 140.640794,284.00126 143.228999,287.187268 C145.817205,290.373739 152.833034,292.230893 158.328077,288.798098 C159.240731,288.227663 160.010911,287.59148 160.655914,286.90807 C157.236533,288.808748 153.507624,288.97497 150.503832,287.940594" id="Fill-75" fill="#FCC27E"></path>
                <path d="M106.852503,235.842784 C111.644403,236.907802 117.088393,244.666294 120.02737,249.491147 C123.172126,253.830057 133.209097,271.696074 133.849298,275.043733 C134.489498,278.391854 134.952272,281.828034 131.11427,284.473059 C127.276268,287.117622 121.002304,285.842367 115.207576,281.202855 C112.041784,278.668021 103.632752,266.336407 101.450583,264.06898 C99.2684138,261.801552 95.1331763,258.689488 92.9537511,254.266207 C90.7747832,249.842464 89.9201156,244.728535 93.9090216,240.054445 C97.8983849,235.379432 102.060602,234.778227 106.852503,235.842784" id="Fill-77" fill="#FCDCB5"></path>
                <path d="M118.341965,279.730598 C112.698743,274.615343 108.897458,264.419418 106.139141,261.532535 C95.2948361,256.738824 89.2484621,242.947031 99.2658219,235.392157 C97.4252622,236.092729 95.6553345,237.369557 93.9175122,239.42781 C89.9162555,244.165906 90.7739297,249.349863 92.9593937,253.834181 C95.1453164,258.318033 99.2924236,261.472713 101.481098,263.771189 C103.670231,266.069666 112.104334,278.570143 115.279563,281.139688 C121.091567,285.842264 127.383777,287.135449 131.233221,284.454205 C133.140285,283.126435 133.986493,281.60144 134.27957,279.988113 C131.402463,284.56123 122.41156,283.917676 118.341965,279.730598" id="Fill-79" fill="#FCC27E"></path>
                <path d="M128.382732,266.941771 C129.785346,269.155824 130.669255,270.264825 131.88172,272.361579 C130.448062,276.816146 123.993799,276.196085 123.993799,276.196085 C123.993799,276.196085 121.154509,274.118683 120.083469,271.987963 C119.01243,269.857243 122.536426,265.37977 128.382732,266.941771" id="Fill-81" fill="#FDEAD3"></path>
                <path d="M171.955382,259.661235 C172.843677,260.400634 174.483852,263.993005 175.041907,266.163645 C175.129175,268.053082 170.028601,272.435716 164.362623,271.207933 C163.270856,270.125301 160.488391,265.07481 160.663845,264.370561 C161.704169,261.936086 167.201583,258.446272 171.955382,259.661235" id="Fill-83" fill="#FDEAD3"></path>
                <path d="M154.400619,271.505207 C155.366192,272.130672 157.423777,275.429995 158.24199,277.466363 C158.56127,279.278605 154.084522,284.00086 148.357942,283.374594 C147.149497,282.438803 143.787502,277.846452 143.872552,277.150423 C144.595254,274.703495 149.572754,270.801159 154.400619,271.505207" id="Fill-85" fill="#FDEAD3"></path>
                <path d="M185.986773,230.759454 C186.84449,231.493934 189.014495,234.853014 189.409834,237.14714 C189.82905,240.287674 183.658357,243.643895 179.104836,242.289315 C178.122686,241.831797 175.060986,236.717808 175.043079,235.769276 C175.025171,234.820743 178.539606,229.582979 185.986773,230.759454" id="Fill-87" fill="#FDEAD3"></path>
                <path d="M148.590911,349.871662 C146.687596,346.978598 127.086022,319.021802 127.086022,319.021802 L195.615895,255.234814 C195.615895,255.234814 196.552425,253.487314 197.677819,251.840366 C197.361517,252.664528 197.153858,253.187952 197.153858,253.187952 C197.153858,253.187952 197.361517,252.664528 197.677819,251.840366 C198.626268,250.452374 199.708572,249.13601 200.477782,248.996889 C202.160602,248.692936 206.559955,249.277885 206.559955,249.277885 C206.559955,249.277885 202.201859,246.887124 201.050335,246.431654 C200.580925,246.24616 200.430566,245.056059 200.486951,243.68873 C200.630891,243.156123 200.741826,242.682287 200.803253,242.301657 C200.870639,241.882 200.899519,241.35123 200.895393,240.741487 C201.110387,239.883807 201.389558,239.246515 201.69165,239.145963 C202.716653,238.803901 213.334783,236.555015 213.334783,236.555015 C213.334783,236.555015 204.24453,237.007272 202.03454,237.126649 C201.233699,237.170268 200.694152,236.515529 200.406729,235.6303 C200.332925,235.155086 200.252704,234.673904 200.165147,234.188589 C200.120682,232.926403 200.473198,231.661922 201.213071,231.324451 C202.833547,230.584312 211.078494,228.279411 217.037812,223.036909 C211.709265,227.653139 201.323089,230.250055 199.918523,229.548943 C199.440403,229.310647 198.947613,228.553519 198.592346,227.630181 C198.51029,227.370765 198.427777,227.117318 198.344346,226.874431 C197.887771,225.221055 197.930403,223.356473 199.191945,222.92901 C201.404686,222.181065 207.578082,217.481271 210.022777,213.501414 C207.172848,216.134603 197.639313,221.533672 192.495504,219.296266 C192.373109,219.243005 192.246588,219.17597 192.117775,219.101589 C191.322435,218.453737 190.782888,218.079535 190.782888,218.079535 C185.250348,212.962838 177.754442,199.030584 176.889424,195.30647 C175.972605,188.667254 179.666008,184.164891 182.098785,182.701141 C184.531562,181.237851 194.205829,190.742124 200.935275,193.609016 C207.664262,196.475909 218.432293,197.076928 221.508218,199.675681 C224.584602,202.274434 227.061845,213.645126 230.324343,224.672837 C234.047083,237.255209 238.69581,247.255817 237.774408,252.664069 C236.853006,258.072781 219.64066,311.20534 219.160705,320.080587 C218.680751,328.955374 219.671373,328.355273 220.296185,331.606469 C220.920996,334.857206 220.866446,336.003688 221.163953,339.974821 C221.202001,371.081801 264.750869,468.42025 275.752688,490 L175.195602,490 C171.938605,465.051513 164.884605,413.7491 156.59886,370.100152 C155.762263,367.181835 153.417959,363.743768 152.091323,360.60644 C150.764687,357.469111 150.494226,352.764726 148.590911,349.871662" id="Fill-89" fill="#FCDCB5"></path>
                <path d="M220.555825,201.249726 C228.329873,209.775558 225.495747,217.628298 228.896892,227.949042 C230.354526,232.885049 236.428001,243.579584 237.399757,248.515591 C238.286484,254.795091 236.086915,258.066318 235.941151,264.215686 C237.950743,258.006637 239.403032,253.386534 239.659575,251.996374 C240.63619,246.710808 235.708902,236.936614 231.763087,224.640121 C228.305093,213.862124 225.679894,202.749824 222.419167,200.210024 C220.536876,198.743581 215.936098,197.927793 211.010753,196.960784 C215.871476,199.782386 219.203627,199.688602 220.555825,201.249726" id="Fill-91" fill="#FDE3C4"></path>
                <path d="M159.856305,363.651172 C157.372979,354.728299 150.609524,347.961003 146.84991,339.730072 C143.858452,333.236141 142.063945,325.595735 143.589712,318.308445 C145.058154,313.370348 149.260319,310.760237 152.321025,306.946026 C165.342555,290.722494 179.472982,277.010883 190.162982,259.411765 L127.086022,318.334722 C127.086022,318.334722 146.695361,346.404248 148.599933,349.30893 C150.504046,352.213151 150.774162,356.93689 152.101355,360.086817 C153.429006,363.236745 155.773835,366.688619 156.611242,369.618194 C164.900463,413.442429 171.956963,464.950863 175.215327,490 L201.419355,490 C180.430542,462.80174 176.986445,410.710156 159.856305,363.651172" id="Fill-93" fill="#FCC27E"></path>
                <path d="M200.531533,236.798856 C202.580614,236.686234 211.010753,236.261635 211.010753,236.261635 C211.010753,236.261635 201.164113,238.374705 200.213543,238.696174 C199.933389,238.791105 199.674065,239.390031 199.475109,240.196078 C199.466607,238.89596 199.299109,237.201017 199.021505,235.392157 C199.288056,236.224526 199.788848,236.839849 200.531533,236.798856" id="Fill-95" fill="#FCC27E"></path>
                <path d="M215.806452,223.382353 C209.608918,227.899084 201.034393,229.884894 199.34914,230.522569 C198.579693,230.81332 198.213085,231.902747 198.259328,232.990196 C197.831698,231.020604 197.256281,229.000773 196.623656,227.339734 C196.993124,228.13564 197.505613,228.787556 198.002845,228.993257 C199.463556,229.596912 210.264903,227.359908 215.806452,223.382353" id="Fill-97" fill="#FCC27E"></path>
                <path d="M200.265664,245.830959 C201.50871,246.367794 206.215054,249.185641 206.215054,249.185641 C206.215054,249.185641 201.464156,248.496196 199.64736,248.854448 C198.816188,249.018421 197.647398,250.569941 196.623656,252.205882 C197.443442,249.87292 198.941928,245.485154 199.65726,242.598039 C199.59637,244.209629 199.758744,245.612328 200.265664,245.830959" id="Fill-99" fill="#FCC27E"></path>
                <path d="M211.010753,213.77451 C208.718986,217.34867 202.93177,221.568966 200.857448,222.241079 C199.674823,222.624968 199.634857,224.299066 200.062442,225.784314 C199.008306,222.850517 195.962358,220.15794 194.225806,218.803816 C194.346561,218.870203 194.465168,218.930817 194.579907,218.978648 C199.401942,220.987979 208.339102,216.138865 211.010753,213.77451" id="Fill-101" fill="#FCC27E"></path>
                <path d="M199.013287,192.944668 C199.013287,192.944668 198.231972,194.793599 196.891296,194.533802 C195.55062,194.274005 188.6845,190.524809 187.42988,189.002633 C186.174833,187.480457 184.396637,182.980439 184.660768,182.561729 C184.924899,182.142573 199.415448,192.22554 199.013287,192.944668" id="Fill-103" fill="#FEE7CB"></path>
                <path d="M176.234597,348.381336 C177.753805,349.374498 181.680415,373.123675 189.430108,398.72549 C183.828293,388.521528 173.276288,358.973711 172.722571,356.633299 C172.168854,354.292886 174.715389,347.388174 176.234597,348.381336" id="Fill-105" fill="#FDCE98"></path>
            </g>
        </g>
    </g>
</svg>