<?xml version="1.0" encoding="UTF-8" standalone="no"?>
<svg
   xmlns:dc="http://purl.org/dc/elements/1.1/"
   xmlns:cc="http://creativecommons.org/ns#"
   xmlns:rdf="http://www.w3.org/1999/02/22-rdf-syntax-ns#"
   xmlns:svg="http://www.w3.org/2000/svg"
   xmlns="http://www.w3.org/2000/svg"
   id="svg1426"
   version="1.1"
   viewBox="0 0 8.6693373 8.6693373"
   height="8.6693373mm"
   width="8.6693373mm">
  <defs
     id="defs1420" />
  <metadata
     id="metadata1423">
    <rdf:RDF>
      <cc:Work
         rdf:about="">
        <dc:format>image/svg+xml</dc:format>
        <dc:type
           rdf:resource="http://purl.org/dc/dcmitype/StillImage" />
        <dc:title></dc:title>
      </cc:Work>
    </rdf:RDF>
  </metadata>
  <g
     transform="translate(22.477525,-90.826045)"
     id="layer1">
    <circle
       id="circle1382"
       r="4.3346686"
       cy="95.160713"
       cx="-18.142857"
       style="fill:#4d76a1;fill-rule:nonzero;stroke-width:0.26458332" />
    <path
       id="path1384"
       d="m -18.105286,96.969671 h 0.340254 c 0,0 0.102658,-0.01111 0.155046,-0.06773 0.04842,-0.05186 0.04683,-0.14949 0.04683,-0.14949 0,0 -0.0066,-0.456406 0.205317,-0.52361 0.208756,-0.06615 0.477043,0.441325 0.761206,0.636323 0.215106,0.147637 0.378354,0.115358 0.378354,0.115358 l 0.760148,-0.01058 c 0,0 0.397404,-0.02461 0.209021,-0.33708 -0.01561,-0.02567 -0.109802,-0.23151 -0.56515,-0.65405 -0.476515,-0.442383 -0.41275,-0.370681 0.161396,-1.135856 0.349514,-0.466196 0.489479,-0.750623 0.445558,-0.872596 -0.04154,-0.115888 -0.298715,-0.0852 -0.298715,-0.0852 l -0.855662,0.0053 c 0,0 -0.0635,-0.0087 -0.110596,0.01931 -0.04604,0.02778 -0.07567,0.09208 -0.07567,0.09208 0,0 -0.135467,0.360627 -0.315912,0.667279 -0.381,0.647172 -0.533665,0.681304 -0.595842,0.641087 -0.144992,-0.09366 -0.108479,-0.376238 -0.108479,-0.576792 0,-0.627327 0.09499,-0.889 -0.185208,-0.956468 -0.09313,-0.02249 -0.161661,-0.03731 -0.399521,-0.03969 -0.305594,-0.0032 -0.563827,7.93e-4 -0.710142,0.0725 -0.09737,0.04762 -0.172508,0.153987 -0.127,0.160073 0.05662,0.0077 0.184944,0.0344 0.252677,0.127 0.08784,0.119327 0.08467,0.38735 0.08467,0.38735 0,0 0.05027,0.738187 -0.117739,0.829997 -0.115359,0.06271 -0.27358,-0.06562 -0.613305,-0.652726 -0.174096,-0.300567 -0.305594,-0.633148 -0.305594,-0.633148 0,0 -0.02514,-0.06218 -0.07038,-0.09525 -0.05503,-0.04022 -0.131497,-0.05292 -0.131497,-0.05292 l -0.81333,0.0053 c 0,0 -0.121973,0.0032 -0.166687,0.05636 -0.03995,0.0471 -0.0034,0.144727 -0.0034,0.144727 0,0 0.636852,1.489604 1.357577,2.240227 0.661194,0.688446 1.411817,0.642937 1.411817,0.642937 z"
       style="fill:#ffffff;stroke-width:0.26458332" />
  </g>
</svg>
