<?xml version="1.0" encoding="UTF-8" standalone="no"?>
<svg
   xmlns:dc="http://purl.org/dc/elements/1.1/"
   xmlns:cc="http://creativecommons.org/ns#"
   xmlns:rdf="http://www.w3.org/1999/02/22-rdf-syntax-ns#"
   xmlns:svg="http://www.w3.org/2000/svg"
   xmlns="http://www.w3.org/2000/svg"
   id="svg1426"
   version="1.1"
   viewBox="0 0 8.6693373 8.6693373"
   height="8.6693373mm"
   width="8.6693373mm">
  <defs
     id="defs1420" />
  <metadata
     id="metadata1423">
    <rdf:RDF>
      <cc:Work
         rdf:about="">
        <dc:format>image/svg+xml</dc:format>
        <dc:type
           rdf:resource="http://purl.org/dc/dcmitype/StillImage" />
        <dc:title></dc:title>
      </cc:Work>
    </rdf:RDF>
  </metadata>
  <g
     transform="translate(-70.236498,-33.760951)"
     id="layer1">
    <circle
       id="circle1388"
       r="4.3346686"
       cy="38.095619"
       cx="74.571167"
       style="fill:#55acee;stroke-width:0.26458332" />
    <path
       id="path1390"
       d="m 77.403265,36.892559 a 2.0671896,2.0671896 0 0 1 -0.595313,0.162983 1.0390187,1.0390187 0 0 0 0.455877,-0.573087 2.0743333,2.0743333 0 0 1 -0.658018,0.251354 1.0361083,1.0361083 0 0 0 -1.765565,0.945092 2.9411083,2.9411083 0 0 1 -2.135717,-1.082675 1.0361083,1.0361083 0 0 0 0.320675,1.383241 1.0287,1.0287 0 0 1 -0.469106,-0.129646 v 0.01323 c 0,0.501914 0.357188,0.92075 0.830792,1.016 a 1.0324042,1.0324042 0 0 1 -0.467784,0.01773 1.0371667,1.0371667 0 0 0 0.967846,0.719666 2.0788312,2.0788312 0 0 1 -1.533789,0.428361 2.9307896,2.9307896 0 0 0 1.588029,0.465666 c 1.905794,0 2.947987,-1.578504 2.947987,-2.947987 0,-0.04498 -0.0011,-0.08943 -0.0029,-0.133879 a 2.1010562,2.1010562 0 0 0 0.516996,-0.536311 z"
       style="fill:#f1f2f2;stroke-width:0.26458332" />
  </g>
</svg>
