<?xml version="1.0" encoding="UTF-8" standalone="no"?>
<svg
   xmlns:dc="http://purl.org/dc/elements/1.1/"
   xmlns:cc="http://creativecommons.org/ns#"
   xmlns:rdf="http://www.w3.org/1999/02/22-rdf-syntax-ns#"
   xmlns:svg="http://www.w3.org/2000/svg"
   xmlns="http://www.w3.org/2000/svg"
   id="svg4843"
   version="1.1"
   viewBox="0 0 101.33542 99.483337"
   height="99.483337mm"
   width="101.33542mm">
  <defs
     id="defs4837" />
  <metadata
     id="metadata4840">
    <rdf:RDF>
      <cc:Work
         rdf:about="">
        <dc:format>image/svg+xml</dc:format>
        <dc:type
           rdf:resource="http://purl.org/dc/dcmitype/StillImage" />
        <dc:title></dc:title>
      </cc:Work>
    </rdf:RDF>
  </metadata>
  <g
     transform="translate(-202.5763,-40.883334)"
     id="layer1">
    <path
       style="fill:#1f1f3b;stroke-width:0.26458332"
       id="path4517"
       d="m 214.49979,74.485417 -0.49689,0.678921 -0.84323,-0.02249 0.49504,0.679979 -0.28205,0.791898 0.80275,-0.258763 0.66913,0.511704 7.9e-4,-0.839787 0.69559,-0.475456 -0.80222,-0.260615 z m 7.83351,-21.960416 -0.80962,0.637381 -0.98901,-0.299244 0.36168,0.959644 -0.59293,0.838994 1.0332,-0.04419 0.62256,0.817827 0.27676,-0.986896 0.9779,-0.333639 -0.86228,-0.565679 z m -3.98409,11.985095 -0.16934,-0.343429 -0.15769,0.349515 -0.36459,0.06218 0.26908,0.264583 -0.0561,0.382059 0.32411,-0.185738 0.3302,0.173567 -0.0688,-0.379413 0.25982,-0.274637 z m 6.77545,5.316009 -0.2884,-0.367771 -0.12038,0.449262 -0.44371,0.156898 0.39608,0.252148 0.014,0.464609 0.36513,-0.293688 0.45244,0.13044 -0.17013,-0.433652 0.26538,-0.383911 z m 9.96024,-7.724511 -0.56462,0.131234 -0.41672,-0.447411 -0.063,0.642938 -0.508,0.306387 0.52546,0.266171 0.10266,0.636588 0.38788,-0.478896 0.5715,0.08758 -0.28575,-0.561975 z m 0.0116,8.595519 -0.37624,0.07514 -0.27781,-0.255588 -0.0421,0.367507 -0.33867,0.174889 0.35031,0.152136 0.0685,0.363802 0.25876,-0.27358 0.38074,0.05001 -0.1905,-0.321204 z m 9.53585,-14.203362 -0.42466,0.434181 -0.55642,-0.150019 0.23336,0.591608 -0.29792,0.55298 0.56886,-0.06853 0.37253,0.49186 0.118,-0.633942 0.52811,-0.249237 -0.49583,-0.323056 z m 0.5125,-12.738895 -0.47043,0.09393 -0.34714,-0.319617 -0.0529,0.459317 -0.42307,0.21881 0.43788,0.189971 0.0857,0.454819 0.32305,-0.341842 0.47625,0.06244 -0.23812,-0.401638 z m 7.93776,20.902084 -0.47096,0.09393 -0.3466,-0.319616 -0.0526,0.459316 -0.42334,0.218811 0.43815,0.189971 0.0855,0.454818 0.32333,-0.341841 0.47598,0.06218 -0.23812,-0.401373 z m -19.84375,-14.2875 -0.47096,0.09393 -0.3466,-0.319617 -0.0526,0.459317 -0.42334,0.21881 0.43815,0.189972 0.0855,0.454818 0.32333,-0.341841 0.47598,0.06244 -0.23812,-0.401373 z m -5.05116,-9.486106 -0.0529,0.459316 -0.42307,0.218546 0.43789,0.1905 0.0855,0.454554 0.32332,-0.342106 0.47625,0.06271 -0.23813,-0.401373 0.20876,-0.416454 -0.47043,0.09393 z m -14.26951,2.432843 -0.56462,0.131234 L 212.93689,43 l -0.063,0.642938 -0.508,0.306652 0.52546,0.266171 0.10266,0.636587 0.38788,-0.478631 0.5715,0.08731 -0.28575,-0.561975 z m -8.46084,12.874097 -0.4707,0.09393 -0.3466,-0.319617 -0.0529,0.459317 -0.42333,0.21881 0.43788,0.189971 0.0855,0.454819 0.32332,-0.341842 0.47625,0.06218 -0.23812,-0.401373 z m 4.38361,5.859727 -0.69823,0.633677 -0.93663,-0.195792 0.40878,0.836348 -0.48233,0.799042 0.95091,-0.116682 0.63923,0.68924 0.17886,-0.908315 0.87683,-0.373062 -0.84058,-0.4445 z m -4.02669,20.6375 -0.44556,0.341841 -0.53552,-0.171185 0.18918,0.527314 -0.32941,0.453761 0.56224,-0.01588 0.33232,0.451644 0.15849,-0.537105 0.53445,-0.174625 -0.46434,-0.315912 z m 17.03149,-3.96875 -0.24183,-0.529167 -0.33073,0.490537 -0.6469,0.03863 0.42862,0.428095 -0.15848,0.55298 0.59531,-0.225955 0.5498,0.303213 -0.0606,-0.567796 0.49742,-0.365654 z m 3.97669,8.62965 -0.45244,0.130439 -0.36486,-0.293423 -0.014,0.464609 -0.39581,0.252412 0.4437,0.156369 0.12065,0.449527 0.2884,-0.367771 0.47016,0.0254 -0.26564,-0.384175 z m 6.67782,-1.558396 -0.32597,-0.456671 -0.16457,0.536046 -0.53552,0.168804 0.45985,0.321998 -0.005,0.560652 0.449,-0.337079 0.53234,0.1778 -0.18256,-0.530225 0.33417,-0.45085 z m 13.17466,-4.158721 -0.57309,0.269875 -0.5715,-0.271992 0.10769,0.574146 -0.46382,0.405606 0.63977,0.08493 0.28469,0.522816 0.28734,-0.521758 0.64029,-0.08228 -0.46223,-0.407459 z m 9.23449,0.511969 -0.29739,-0.514086 -0.27464,0.524404 -0.63791,0.09472 0.47202,0.395817 -0.0963,0.572558 0.5662,-0.279664 0.57838,0.259291 -0.12223,-0.568854 0.45402,-0.41275 z m -11.46228,-7.922419 -0.73369,0.410104 -0.73792,-0.401637 0.14499,0.859102 -0.59214,0.61251 0.82338,0.12065 0.37201,0.780521 0.3638,-0.78449 0.82206,-0.130175 -0.59849,-0.605895 z m -41.11678,-31.07743 -0.75406,0.551921 0.89508,0.265642 0.28946,0.891117 0.52811,-0.772848 0.93318,-0.0013 -0.56885,-0.743215 0.28733,-0.891646 -0.87947,0.313267 -0.75565,-0.550069 z m 62.23397,31.342013 -0.49689,0.678921 -0.84323,-0.02249 0.49504,0.679979 -0.28205,0.791898 0.80275,-0.258763 0.66887,0.511704 0.001,-0.839787 0.69559,-0.475456 -0.80222,-0.260615 z m 12.8606,-14.552083 -0.80962,0.637381 -0.98902,-0.299244 0.36169,0.959644 -0.59293,0.838994 1.0332,-0.04419 0.62256,0.817827 0.27675,-0.986896 0.9779,-0.33364 -0.86227,-0.565679 z m -9.27576,4.576762 -0.16934,-0.343429 -0.15769,0.349515 -0.36459,0.06218 0.26908,0.264583 -0.0561,0.382059 0.32411,-0.185738 0.3302,0.173567 -0.0688,-0.379413 0.25982,-0.274637 z m 6.77545,5.316009 -0.2884,-0.367771 -0.12038,0.449262 -0.44371,0.156898 0.39582,0.252148 0.0143,0.464609 0.36512,-0.293688 0.45244,0.13044 -0.17013,-0.433652 0.26538,-0.383911 z m 9.96024,-7.724511 -0.56462,0.131234 -0.41672,-0.447411 -0.0632,0.642938 -0.50774,0.306652 0.52547,0.266171 0.10265,0.636587 0.38788,-0.478896 0.5715,0.08758 -0.28575,-0.561975 z m 8.74315,8.066352 -0.3765,0.07514 -0.27781,-0.255587 -0.0423,0.367506 -0.3384,0.174889 0.35031,0.152136 0.0685,0.363802 0.25876,-0.273579 0.38073,0.05001 -0.1905,-0.321204 z m 3.45017,-21.082529 -0.42466,0.434181 -0.55668,-0.150019 0.23363,0.591609 -0.29792,0.552979 0.56885,-0.06853 0.37253,0.491861 0.11801,-0.633942 0.52811,-0.249238 -0.49583,-0.323056 z m -2.13307,-5.330561 -0.47096,0.09393 -0.3466,-0.319617 -0.0529,0.459317 -0.42333,0.21881 0.43788,0.189971 0.0857,0.454819 0.32332,-0.341842 0.47598,0.06244 -0.23812,-0.401638 z m 7.06702,21.135711 -0.42333,0.218811 0.43815,0.189971 0.0852,0.454818 0.32332,-0.341841 0.47625,0.06218 -0.23813,-0.401373 0.20876,-0.415925 -0.4707,0.09366 -0.3466,-0.319616 z m -19.76702,-13.19821 -0.47096,0.09393 -0.3466,-0.319617 -0.0527,0.459317 -0.42334,0.21881 0.43789,0.189971 0.0857,0.454819 0.32306,-0.341842 0.47625,0.06244 -0.23813,-0.401638 z m -6.87943,-9.260417 -0.4707,0.09393 -0.3466,-0.319617 -0.0529,0.459317 -0.42307,0.21881 0.43789,0.189971 0.0857,0.454819 0.32332,-0.341842 0.47598,0.06218 -0.23811,-0.401373 z m -9.00166,2.736321 -0.56462,0.131233 -0.41645,-0.44741 -0.0635,0.642937 -0.50774,0.306652 0.52547,0.266171 0.10265,0.636587 0.38815,-0.478631 0.57123,0.08731 -0.28575,-0.561975 z m -2.64001,9.434513 -0.47069,0.09393 -0.34661,-0.319617 -0.0529,0.459317 -0.42306,0.21881 0.43788,0.189971 0.0855,0.454819 0.32359,-0.341842 0.47598,0.06244 -0.23812,-0.401638 z m -4.08305,7.447227 -0.69823,0.633677 -0.93689,-0.195792 0.40904,0.836348 -0.48233,0.799042 0.95117,-0.116682 0.63844,0.68924 0.1786,-0.908315 0.87736,-0.373062 -0.84059,-0.4445 z m -22.81211,32.54375 -0.44556,0.341841 -0.53551,-0.171185 0.18891,0.527314 -0.32914,0.453761 0.5625,-0.01588 0.33179,0.451644 0.15848,-0.537105 0.53446,-0.174625 -0.46434,-0.315912 z m 35.81691,-15.875 -0.24183,-0.529167 -0.33073,0.490537 -0.6469,0.03863 0.42862,0.428095 -0.15848,0.55298 0.59531,-0.225955 0.54954,0.303213 -0.0606,-0.567796 0.49768,-0.365654 z m 4.24127,8.62965 -0.45243,0.130439 -0.36513,-0.293423 -0.014,0.464609 -0.39582,0.252412 0.44371,0.156369 0.12065,0.449527 0.28813,-0.367771 0.47043,0.0254 -0.26564,-0.384175 z m 6.41324,-1.558396 -0.32597,-0.456671 -0.16457,0.536046 -0.53552,0.168804 0.45985,0.321998 -0.005,0.560652 0.44873,-0.337079 0.53234,0.1778 -0.18256,-0.530225 0.33417,-0.45085 z m 13.17466,-4.158721 -0.57309,0.269875 -0.5715,-0.271992 0.10795,0.574146 -0.46408,0.405606 0.63977,0.08493 0.28469,0.522816 0.2876,-0.521758 0.64003,-0.08228 -0.46197,-0.407459 z m 3.94282,5.274469 -0.29739,-0.514086 -0.27464,0.52414 -0.63791,0.09498 0.47202,0.395817 -0.0963,0.572558 0.56621,-0.279664 0.57838,0.259027 -0.12224,-0.568854 0.45402,-0.412221 z m -11.72686,-7.922419 -0.73369,0.410104 -0.73792,-0.401902 0.14499,0.859367 -0.59214,0.61251 0.82338,0.120915 0.37201,0.780256 0.3638,-0.78449 0.82206,-0.130175 -0.59849,-0.605895 z m -33.95001,-36.540546 -0.87948,0.313531 -0.75565,-0.550069 0.0249,0.937154 -0.75432,0.551921 0.89508,0.265642 0.28946,0.891117 0.52811,-0.772584 0.93318,-0.0016 -0.56885,-0.743479 z m -41.24113,82.842632 -0.49689,0.67892 -0.84323,-0.0228 0.49504,0.67998 -0.28205,0.79163 0.80275,-0.2585 0.66913,0.51197 7.9e-4,-0.84005 0.69559,-0.47493 -0.80222,-0.26061 z m 13.12518,-14.55209 -0.80962,0.63738 -0.98902,-0.29924 0.36169,0.95964 -0.59293,0.839 1.0332,-0.0442 0.62256,0.81783 0.27675,-0.9869 0.9779,-0.33338 -0.86227,-0.56567 z m -9.27576,4.57677 -0.16934,-0.34343 -0.15769,0.34925 -0.36459,0.0624 0.26908,0.26458 -0.0561,0.38206 0.32411,-0.18574 0.3302,0.17357 -0.0688,-0.37942 0.25982,-0.27463 z m 6.77545,5.316 -0.2884,-0.36777 -0.12038,0.44953 -0.44371,0.15663 0.39608,0.25215 0.014,0.46461 0.36513,-0.29369 0.45244,0.13044 -0.17013,-0.43365 0.26538,-0.38391 z m 13.92899,-10.89951 -0.56462,0.13124 -0.41672,-0.44741 -0.063,0.64293 -0.508,0.30639 0.52546,0.26617 0.10266,0.63659 0.38814,-0.47863 0.57124,0.0873 -0.28575,-0.56198 z m 2.39289,12.03537 -0.37624,0.0749 -0.27781,-0.25559 -0.0421,0.36777 -0.33867,0.17463 0.35031,0.15213 0.0685,0.36381 0.25876,-0.27358 0.38074,0.0503 -0.1905,-0.32147 z m 5.5671,-21.61196 -0.42466,0.43418 -0.55642,-0.15002 0.23336,0.59161 -0.29792,0.55298 0.56886,-0.0685 0.37253,0.49186 0.11801,-0.63394 0.5281,-0.24924 -0.49583,-0.32305 z m -1.86875,-5.595143 -0.47043,0.09393 -0.34714,-0.319617 -0.0529,0.459317 -0.42307,0.21881 0.43789,0.189971 0.0857,0.454819 0.32306,-0.341842 0.47625,0.06244 -0.23813,-0.401638 z m 7.93776,21.166933 -0.47096,0.0937 -0.3466,-0.31962 -0.0526,0.45932 -0.42334,0.21881 0.43815,0.18997 0.0855,0.45482 0.32333,-0.34184 0.47598,0.0624 -0.23812,-0.40164 z m -28.575,-11.1125 -0.47096,0.0937 -0.3466,-0.31962 -0.0526,0.45932 -0.42334,0.21881 0.43815,0.18997 0.0855,0.45482 0.32306,-0.34184 0.47625,0.0622 -0.23812,-0.40137 z m -0.26485,-10.848183 -0.47069,0.09393 -0.34661,-0.319617 -0.0529,0.459317 -0.42306,0.21881 0.43788,0.189971 0.0855,0.454819 0.32359,-0.341842 0.47598,0.06218 -0.23812,-0.401373 z m -10.32457,0.355071 -0.56462,0.131233 -0.41672,-0.44741 -0.063,0.642937 -0.508,0.306388 0.52546,0.26617 0.10266,0.636588 0.38788,-0.478631 0.5715,0.08731 -0.28575,-0.561975 z m -8.46084,12.874092 -0.4707,0.0939 -0.3466,-0.31962 -0.0529,0.45932 -0.42307,0.21881 0.43789,0.18997 0.0855,0.45482 0.32332,-0.34184 0.47625,0.0624 -0.23813,-0.40164 z m 4.38361,5.85973 -0.69823,0.63368 -0.93663,-0.19579 0.40878,0.83608 -0.48233,0.79957 0.95091,-0.11668 0.63923,0.68897 0.17886,-0.90831 0.8771,-0.37306 -0.84059,-0.4445 z m -4.02669,20.6375 -0.44556,0.34184 -0.53552,-0.17118 0.18918,0.52705 -0.32941,0.45402 0.56224,-0.0159 0.33232,0.45165 0.15849,-0.53711 0.53445,-0.17462 -0.46434,-0.31592 z m 17.03149,-3.96875 -0.24183,-0.52917 -0.33073,0.49054 -0.6469,0.0386 0.42862,0.4281 -0.15848,0.55298 0.59531,-0.22596 0.5498,0.30321 -0.0606,-0.56779 0.49742,-0.36566 z m -4.75456,7.30673 -0.45244,0.13071 -0.36512,-0.29369 -0.014,0.46461 -0.39582,0.25241 0.44371,0.15663 0.12065,0.44927 0.28839,-0.36777 0.47017,0.0254 -0.26564,-0.38418 z m 15.40907,-0.23548 -0.32597,-0.45667 -0.16457,0.53605 -0.53552,0.1688 0.45985,0.322 -0.005,0.56065 0.449,-0.33708 0.53234,0.1778 -0.18256,-0.53022 0.33417,-0.45085 z m 17.14341,-8.39205 -0.57282,0.26988 -0.5715,-0.272 0.10768,0.57415 -0.46408,0.40561 0.63977,0.0849 0.28469,0.52281 0.2876,-0.52176 0.64003,-0.0823 -0.46197,-0.40745 z m -0.29025,9.5078 -0.29818,-0.51408 -0.27438,0.5244 -0.63791,0.0947 0.47202,0.39582 -0.0963,0.57256 0.56621,-0.27967 0.57838,0.25929 -0.12224,-0.56885 0.45403,-0.41275 z m -11.46254,-7.65783 -0.73369,0.4101 -0.73792,-0.4019 0.14499,0.85937 -0.59214,0.61251 0.82338,0.12091 0.37201,0.78026 0.3638,-0.78449 0.82206,-0.13018 -0.59849,-0.60589 z m -35.56053,-36.104515 -0.75406,0.551921 0.89508,0.265377 0.28946,0.891381 0.52811,-0.772848 0.93318,-0.0013 -0.56885,-0.743214 0.28733,-0.891646 -0.87947,0.313266 -0.75565,-0.550068 z m 62.23397,31.342015 -0.49689,0.67892 -0.84323,-0.0225 0.49504,0.67998 -0.28205,0.79163 0.80275,-0.2585 0.66887,0.51171 0.001,-0.84006 0.69559,-0.47492 -0.80226,-0.26062 z m 12.8606,-14.55209 -0.80962,0.63738 -0.98902,-0.29924 0.36169,0.95964 -0.59293,0.839 1.0332,-0.0442 0.62256,0.81783 0.27675,-0.9869 0.9779,-0.33338 -0.86227,-0.56567 z m -9.27576,4.57677 -0.16934,-0.34343 -0.15769,0.34925 -0.36459,0.0624 0.26908,0.26458 -0.0561,0.38206 0.32411,-0.18574 0.3302,0.17357 -0.0688,-0.37942 0.25982,-0.27463 z m 6.77545,5.316 -0.2884,-0.36777 -0.12038,0.44953 -0.44371,0.15663 0.39582,0.25215 0.0143,0.46461 0.36512,-0.29369 0.45244,0.13044 -0.17013,-0.43365 0.26538,-0.38391 z m 14.98732,-5.87242 -0.56462,0.13123 -0.41645,-0.44741 -0.0635,0.64294 -0.50774,0.30639 0.52573,0.26617 0.10239,0.63658 0.38815,-0.47863 0.57123,0.0873 -0.28575,-0.56197 z m -4.75086,6.74343 -0.3765,0.0751 -0.27755,-0.25559 -0.0423,0.36751 -0.3384,0.17489 0.35031,0.15214 0.0685,0.3638 0.25876,-0.27358 0.38074,0.05 -0.1905,-0.32121 z m 2.65668,-21.34711 -0.42465,0.43418 -0.55642,-0.15002 0.23336,0.59161 -0.29792,0.55298 0.56885,-0.0685 0.37254,0.49186 0.118,-0.63394 0.52811,-0.24924 -0.49583,-0.32305 z m 7.9211,-0.56806 -0.47096,0.09393 -0.3466,-0.319616 -0.0529,0.459316 -0.42334,0.21881 0.43789,0.18997 0.0857,0.45482 0.32332,-0.34184 0.47599,0.0624 -0.23813,-0.401638 z m 6.27327,16.37321 -0.42333,0.21881 0.43815,0.18997 0.0852,0.45482 0.32332,-0.34184 0.47625,0.0624 -0.23813,-0.40164 0.20876,-0.41592 -0.4707,0.0937 -0.3466,-0.31962 z m -27.70478,-11.34586 -0.47043,0.0937 -0.34714,-0.31962 -0.0529,0.45932 -0.42307,0.21881 0.43789,0.18997 0.0855,0.45482 0.32332,-0.34184 0.47625,0.0622 -0.23813,-0.40137 z m -0.26432,-10.848183 -0.47096,0.09393 -0.34661,-0.319617 -0.0529,0.459317 -0.42306,0.21881 0.43788,0.189971 0.0857,0.454819 0.32332,-0.341842 0.47599,0.06218 -0.23813,-0.401373 z m -10.06026,0.355071 -0.56462,0.131233 -0.41672,-0.44741 -0.0632,0.642937 -0.50773,0.306388 0.52546,0.26617 0.10266,0.636588 0.38788,-0.478631 0.5715,0.08731 -0.28575,-0.561975 z m -8.72542,12.874092 -0.4707,0.0939 -0.3466,-0.31961 -0.0529,0.45931 -0.42307,0.21881 0.43815,0.18997 0.0852,0.45482 0.32332,-0.34184 0.47625,0.0624 -0.23812,-0.40164 z m 4.38361,5.85973 -0.69823,0.63368 -0.93689,-0.19579 0.40904,0.83608 -0.48233,0.79931 0.95117,-0.11669 0.63871,0.68924 0.17859,-0.90831 0.87736,-0.37306 -0.84058,-0.4445 z m -4.02669,20.6375 -0.44556,0.34184 -0.53578,-0.17118 0.18918,0.52705 -0.32915,0.45402 0.56251,-0.0159 0.33179,0.45165 0.15848,-0.53711 0.53446,-0.17462 -0.46434,-0.31592 z m 17.03149,-3.96875 -0.24183,-0.52917 -0.33073,0.49054 -0.6469,0.0386 0.42862,0.4281 -0.15848,0.55298 0.59531,-0.22596 0.54954,0.30321 -0.0606,-0.56779 0.49768,-0.36566 z m 2.61594,9.98961 -0.39582,0.25215 0.44344,0.15689 0.12092,0.44927 0.28813,-0.36777 0.47043,0.0254 -0.26564,-0.38391 0.17012,-0.43392 -0.45243,0.13097 -0.36539,-0.29369 z m 8.03857,-2.91836 -0.32597,-0.45667 -0.16457,0.53605 -0.53552,0.1688 0.45985,0.322 -0.005,0.56065 0.44873,-0.33708 0.53234,0.1778 -0.18256,-0.53022 0.33417,-0.45085 z m 13.17466,-3.89413 -0.57309,0.26987 -0.5715,-0.27199 0.10795,0.57415 -0.46408,0.4056 0.63977,0.0849 0.28469,0.52282 0.2876,-0.52176 0.64003,-0.0823 -0.46197,-0.40746 z m 3.94282,5.00988 -0.29739,-0.51408 -0.27464,0.5244 -0.63791,0.0947 0.47202,0.39582 -0.0963,0.57256 0.56621,-0.27967 0.57838,0.25929 -0.12224,-0.56885 0.45402,-0.41275 z m -11.72686,-7.65783 -0.73369,0.4101 -0.73792,-0.4019 0.14499,0.85937 -0.59214,0.61251 0.82338,0.12091 0.37201,0.78026 0.3638,-0.78449 0.82206,-0.13018 -0.59849,-0.60589 z m -33.95001,-36.805132 -0.87948,0.313531 -0.75565,-0.550068 0.0249,0.937154 -0.75432,0.551921 0.89508,0.265641 0.28946,0.891117 0.5281,-0.772583 0.93319,-0.0016 -0.56885,-0.743479 z" />
  </g>
</svg>
