<?xml version="1.0" encoding="UTF-8"?>
<svg width="157px" height="36px" viewBox="0 0 157 36" version="1.1" xmlns="http://www.w3.org/2000/svg" xmlns:xlink="http://www.w3.org/1999/xlink">
    <!-- Generator: Sketch 49.3 (51167) - http://www.bohemiancoding.com/sketch -->
    <title>logo</title>
    <desc>Created with Sketch.</desc>
    <defs></defs>
    <g id="Symbols" stroke="none" stroke-width="1" fill="none" fill-rule="evenodd">
        <g id="stavka-tv" transform="translate(-403.000000, -104.000000)">
            <g id="logo" transform="translate(403.000000, 104.500000)">
                <path d="M13.2001126,0 L109,0 L103.494949,35 L0,35 L4.30941527,7.6016075 C4.99784127,3.22473395 8.76942951,4.36661695e-15 13.2001126,3.55271368e-15 Z" id="Rectangle" fill="#FD213A"></path>
                <path d="M121.152682,0 L157,0 L151.555556,35 L108,35 L112.259634,7.61663694 C112.941547,3.23291162 116.716237,2.59131874e-15 121.152682,1.77635684e-15 Z" id="Rectangle" fill="#0161DA" transform="translate(132.500000, 17.500000) scale(-1, -1) translate(-132.500000, -17.500000) "></path>
                <polygon id="Fill-4" fill="#FFFFFF" points="83 10 78.4798569 10 74.3306461 14.9215382 73.7392604 14.9215382 74.6574198 10 70.426006 10 68 23 72.2314138 23 73.1533096 18.0602303 74.3248715 18.0602303 76.4723386 23 81.0447927 23 77.7335764 16.038136"></polygon>
                <g id="Group-8" transform="translate(13.000000, 10.000000)" fill="#FFFFFF">
                    <path d="M24.4701024,0.115916742 L14.4929592,0.115916742 L13.8174064,0.115916742 L6.40440545,0.115916742 L4.87972703,0.11559095 C3.41685102,0.11559095 2.16535237,1.15649593 1.91189677,2.58444163 L-3.28736183e-05,13.3574009 L3.6801687,13.3574009 L10.3186672,13.3574009 L10.8890245,10.1415095 L4.66539104,10.1415095 L5.65390074,4.56623348 C5.78046418,3.85242353 6.40637787,3.33180814 7.13781588,3.33180814 L13.2473778,3.33180814 L13.922602,3.33180814 L16.3552497,3.33180814 L14.5777732,13.3574009 L18.6731686,13.3574009 L20.4506451,3.33180814 L23.9000739,3.33180814 L24.4701024,0.115916742 Z" id="Fill-6"></path>
                </g>
                <path d="M43.0472935,17.4254216 L45.0780007,13.3929994 L45.6135829,13.3929994 L46.1464754,17.4254216 L43.0472935,17.4254216 Z M44.7145579,10 C43.5452202,10 42.4767455,10.6288776 41.9559565,11.6239615 L36,23 L40.2399417,23 L41.4590384,20.5793963 L46.5633755,20.5793963 L46.8834473,23 L51,23 L49.03519,10 L44.7145579,10 Z" id="Fill-9" fill="#FFFFFF"></path>
                <path d="M89.0472935,17.4254216 L91.0780007,13.3929994 L91.6135829,13.3929994 L92.1464754,17.4254216 L89.0472935,17.4254216 Z M90.7145579,10 C89.5452202,10 88.4767455,10.6288776 87.9559565,11.6239615 L82,23 L86.2399417,23 L87.4590384,20.5793963 L92.5633755,20.5793963 L92.8834473,23 L97,23 L95.03519,10 L90.7145579,10 Z" id="Fill-11" fill="#FFFFFF"></path>
                <path d="M62.4229499,15.0391192 L58.7492087,15.0391192 L59.102407,13.1578054 L63.2748617,13.1578054 L62.4229499,15.0391192 Z M62.2241477,19.8431541 L57.8477672,19.8431541 L58.2467379,17.7174806 L62.6217521,17.7174806 L62.2241477,19.8431541 Z M64.1455605,10 L57.944094,10.0006397 L57.9430693,10.0057572 C56.4776718,10.0604502 55.2404527,11.0615574 54.9846059,12.4244064 L53,23 L55.5044975,23 L57.2554597,23 L61.4344044,23 L61.6062214,23 L62.9346435,23 C64.4553777,23 65.7557899,21.9771436 66.0184683,20.574634 L66.6568898,17.1619141 L66.6503997,17.1619141 L66.7033453,16.8820519 L64.8420513,16.4928035 L67.2522715,13.9686062 L68,10.0006397 L64.145219,10.0006397 L64.1455605,10 Z" id="Fill-13" fill="#FFFFFF"></path>
                <path d="M142.657243,10 L137.86191,19.7460942 L136.61874,10 L132.275629,10 L132.275629,10.0003444 L122.002903,10.0003444 C121.21373,10.0003444 120.538766,10.5507689 120.402212,11.3057941 L120,13.400369 L124.416531,13.400369 L122.498752,24 L126.917411,24 L128.83519,13.400369 L132.778572,13.400369 L134.346632,24 L138.404577,24 L138.397483,23.9424775 C139.393082,23.7654324 140.262414,23.1492188 140.723504,22.2495264 L147,10 L142.657243,10 Z" id="Fill-1" fill="#FFFFFF"></path>
            </g>
        </g>
    </g>
</svg>