<?xml version="1.0" encoding="UTF-8"?>
<svg width="257px" height="190px" viewBox="0 0 257 190" version="1.1" xmlns="http://www.w3.org/2000/svg" xmlns:xlink="http://www.w3.org/1999/xlink">
    <!-- Generator: Sketch 49.3 (51167) - http://www.bohemiancoding.com/sketch -->
    <title>youtube background</title>
    <desc>Created with Sketch.</desc>
    <defs></defs>
    <g id="Symbols" stroke="none" stroke-width="1" fill="none" fill-rule="evenodd" opacity="0.311820652">
        <g id="stavka-tv" transform="translate(-270.000000, -107.000000)" fill="#FFFFFF" fill-rule="nonzero">
            <g id="youtube-background" transform="translate(270.000000, 107.500000)">
                <path d="M205.893714,0 L51.1062857,0 C22.925449,0 0,23.0218895 0,51.3149254 L0,137.685075 C0,165.983361 22.925449,189 51.1062857,189 L205.893714,189 C234.074551,189 257,165.978111 257,137.685075 L257,51.3149254 C257,23.0218895 234.074551,0 205.893714,0 Z M246.510204,137.690325 C246.510204,160.1977 228.289429,178.504958 205.893714,178.504958 L51.1062857,178.504958 C28.7105714,178.504958 10.4897959,160.19245 10.4897959,137.690325 L10.4897959,51.3149254 C10.4897959,28.8128004 28.7105714,10.5002917 51.1062857,10.5002917 L205.893714,10.5002917 C228.289429,10.5002917 246.510204,28.8128004 246.510204,51.3149254 L246.510204,137.690325 Z" id="Shape" opacity="0.288779438"></path>
                <path d="M174.408704,92.0044365 L101.878587,49.7127658 C100.266225,48.7746881 98.2612425,48.7590535 96.6331757,49.6867081 C95.0051088,50.6143628 94,52.3393835 94,54.2103274 L94,138.788457 C94,140.654189 95.0051088,142.384422 96.6279407,143.312076 C97.4341217,143.770692 98.3345317,144 99.2349417,144 C100.151056,144 101.061936,143.760269 101.878587,143.286019 L174.408704,101.004771 C176.010596,100.071905 177,98.3573073 177,96.5072095 C177,94.6571118 176.015831,92.9373027 174.408704,92.0044365 Z M104.469883,129.694315 L104.469883,63.2992582 L161.405109,96.501998 L104.469883,129.694315 Z" id="Shape" opacity="0.288779438"></path>
            </g>
        </g>
    </g>
</svg>