<svg xmlns="http://www.w3.org/2000/svg" width="19.435px" height="19.435px" viewBox="0 0 19.435 19.435">
  <path  d="M15.655,15.655 C14.050,17.261 11.915,18.145 9.645,18.145 C7.375,18.145 5.240,17.261 3.635,15.655 C2.029,14.050 1.145,11.915 1.145,9.645 C1.145,7.375 2.029,5.240 3.635,3.635 C5.240,2.029 7.375,1.145 9.645,1.145 C11.915,1.145 14.050,2.029 15.655,3.635 C17.261,5.240 18.145,7.375 18.145,9.645 C18.145,11.915 17.261,14.050 15.655,15.655 ZM15.280,4.011 C13.775,2.505 11.773,1.676 9.645,1.676 C7.516,1.676 5.515,2.505 4.010,4.011 C2.505,5.516 1.676,7.517 1.676,9.645 C1.676,11.773 2.505,13.774 4.010,15.279 C5.515,16.785 7.516,17.614 9.645,17.614 C11.773,17.614 13.775,16.785 15.280,15.279 C16.785,13.774 17.614,11.773 17.614,9.645 C17.614,7.517 16.785,5.516 15.280,4.011 ZM9.600,10.715 C9.459,10.715 9.369,10.708 9.355,10.706 L7.785,10.707 L7.785,11.770 L9.645,11.770 L9.645,12.301 L7.785,12.301 L7.785,13.895 L7.254,13.895 L7.254,12.301 L6.192,12.301 L6.192,11.770 L7.254,11.770 L7.254,10.707 L6.192,10.707 L6.192,10.176 L7.254,10.176 L7.254,5.395 L7.520,5.395 L7.786,5.395 L9.379,5.395 C9.416,5.390 10.867,5.269 11.806,6.127 C12.310,6.588 12.567,7.235 12.567,8.051 C12.567,8.867 12.310,9.515 11.806,9.976 C11.086,10.633 10.065,10.715 9.600,10.715 ZM11.447,6.519 C10.680,5.818 9.416,5.924 9.403,5.925 L7.785,5.926 L7.785,10.176 L9.379,10.176 C9.417,10.179 10.686,10.281 11.450,9.582 C11.838,9.226 12.036,8.711 12.035,8.051 C12.035,7.391 11.838,6.875 11.447,6.519 Z"/>
</svg>
