<svg xmlns="http://www.w3.org/2000/svg" width="16" height="16" viewBox="0 0 16 16">
  <metadata><?xpacket begin="﻿" id="W5M0MpCehiHzreSzNTczkc9d"?>
<x:xmpmeta xmlns:x="adobe:ns:meta/" x:xmptk="Adobe XMP Core 5.6-c138 79.159824, 2016/09/14-01:09:01        ">
   <rdf:RDF xmlns:rdf="http://www.w3.org/1999/02/22-rdf-syntax-ns#">
      <rdf:Description rdf:about=""/>
   </rdf:RDF>
</x:xmpmeta>
                                                                                                    
                                                                                                    
                                                                                                    
                                                                                                    
                                                                                                    
                                                                                                    
                                                                                                    
                                                                                                    
                                                                                                    
                                                                                                    
                                                                                                    
                                                                                                    
                                                                                                    
                                                                                                    
                                                                                                    
                                                                                                    
                                                                                                    
                                                                                                    
                                                                                                    
                                                                                                    
                           
<?xpacket end="w"?></metadata>
<defs>
    <style>
      .cls-1 {
        fill: #1b1b1b;
        fill-rule: evenodd;
      }
    </style>
  </defs>
  <path id="Icon" class="cls-1" d="M32.733,1939.47H31.65a2.164,2.164,0,0,0,.016-0.27,1.861,1.861,0,0,0-1.067-1.69v-8.98a0.247,0.247,0,0,0-.267-0.26h-4v-4a0.255,0.255,0,0,0-.267-0.27h-7.2a0.255,0.255,0,0,0-.267.27v15.2H17.267a0.247,0.247,0,0,0-.267.26,0.255,0.255,0,0,0,.267.27H32.733a0.255,0.255,0,0,0,.267-0.27A0.247,0.247,0,0,0,32.733,1939.47Zm-2.667-2.12a2.328,2.328,0,0,0-.267-0.02,1.919,1.919,0,0,0-.585.1,0.265,0.265,0,0,0-.215-0.1,0.255,0.255,0,0,0-.267.27v0.08a1.853,1.853,0,0,0-.28.25c-0.014.01-.027,0.03-0.04,0.04a1.743,1.743,0,0,0-.827-0.57,0.283,0.283,0,0,0-.186-0.07c-0.03,0-.058.01-0.083,0.01-0.06,0-.121-0.01-0.183-0.01a1.253,1.253,0,0,0-.508.09,0.127,0.127,0,0,0-.056.02,1.676,1.676,0,0,0-.627-0.32H25.935c-0.02-.01-0.04-0.01-0.06-0.02a0.087,0.087,0,0,1-.049-0.01H25.805c-0.017,0-.034-0.01-0.052-0.01H25.73a0.084,0.084,0,0,1-.048-0.01H25.422a1.645,1.645,0,0,0-.688.21v-8.48h5.333v8.55h0Zm-10.933-12.82H25.8v3.74H24.467a0.247,0.247,0,0,0-.267.26v8.3a1.864,1.864,0,0,0-.465-0.35,0.093,0.093,0,0,1-.046-0.02,0.018,0.018,0,0,1-.018-0.01,1.831,1.831,0,0,0-.614-0.17H23.049a0.2,0.2,0,0,0-.076-0.01H22.867a1.8,1.8,0,0,0-1.067.35v-0.09a0.267,0.267,0,0,0-.533,0v0.54a0.34,0.34,0,0,0,.019.11,1.84,1.84,0,0,0-.259.71,1.932,1.932,0,0,0-.827.31v-0.07a0.267,0.267,0,0,0-.533,0v0.54a0.24,0.24,0,0,0,.012.08,1.914,1.914,0,0,0-.259.72H19.133v-14.94h0Zm2.012,13.88a0.015,0.015,0,0,1,.016-0.01h0.105a0.255,0.255,0,0,0,.267-0.27,1.322,1.322,0,0,1,1.333-1.33,1.3,1.3,0,0,1,1.307,1.15,0.3,0.3,0,0,0,.119.17H24.3a0.012,0.012,0,0,0,.013.01c0.01,0.01.02,0.01,0.031,0.02h0c0.012,0,.025.01,0.038,0.01h0a0.1,0.1,0,0,0,.053.01,0.259,0.259,0,0,0,.214-0.12h0l0.027-.02a1.055,1.055,0,0,1,1.375-.29,1.625,1.625,0,0,0-.52,1.11c0,0.03,0,.06,0,0.08a1.587,1.587,0,0,0,.092.54H19.96A1.332,1.332,0,0,1,21.145,1938.41Zm5.11,1.06a1.174,1.174,0,0,1-.161-0.56,1.054,1.054,0,0,1,.316-0.76c0.038-.03.079-0.07,0.122-0.1a0.256,0.256,0,0,0,.122-0.02,1.047,1.047,0,0,1,1.493.56,0.242,0.242,0,0,0,.24.16,0.144,0.144,0,0,0,.081-0.03,0.229,0.229,0,0,0,.159-0.13,1.214,1.214,0,0,1,.458-0.52,0.214,0.214,0,0,0,.107-0.06,1.378,1.378,0,0,1,.608-0.14,1.315,1.315,0,0,1,1.333,1.33,0.932,0.932,0,0,1-.027.27H26.255Zm-0.455-8.54a0.255,0.255,0,0,0-.267.27v0.53a0.267,0.267,0,1,0,.533,0v-0.53A0.255,0.255,0,0,0,25.8,1930.93Zm0,4.8a0.255,0.255,0,0,0-.267.27v0.53a0.267,0.267,0,1,0,.533,0V1936A0.255,0.255,0,0,0,25.8,1935.73Zm0-3.2a0.255,0.255,0,0,0-.267.27v0.53a0.267,0.267,0,1,0,.533,0v-0.53A0.255,0.255,0,0,0,25.8,1932.53Zm0,1.6a0.255,0.255,0,0,0-.267.27v0.53a0.267,0.267,0,1,0,.533,0v-0.53A0.255,0.255,0,0,0,25.8,1934.13Zm0-4.8a0.255,0.255,0,0,0-.267.27v0.53a0.267,0.267,0,1,0,.533,0v-0.53A0.255,0.255,0,0,0,25.8,1929.33Zm1.6,2.67a0.255,0.255,0,0,0,.267-0.27v-0.53a0.267,0.267,0,1,0-.533,0v0.53A0.255,0.255,0,0,0,27.4,1932Zm0-1.6a0.255,0.255,0,0,0,.267-0.27v-0.53a0.267,0.267,0,1,0-.533,0v0.53A0.255,0.255,0,0,0,27.4,1930.4Zm0,3.2a0.255,0.255,0,0,0,.267-0.27v-0.53a0.267,0.267,0,1,0-.533,0v0.53A0.255,0.255,0,0,0,27.4,1933.6Zm0,1.6a0.255,0.255,0,0,0,.267-0.27v-0.53a0.267,0.267,0,1,0-.533,0v0.53A0.255,0.255,0,0,0,27.4,1935.2Zm0,1.6a0.255,0.255,0,0,0,.267-0.27V1936a0.267,0.267,0,1,0-.533,0v0.53A0.255,0.255,0,0,0,27.4,1936.8Zm1.6-3.2a0.255,0.255,0,0,0,.267-0.27v-0.53a0.267,0.267,0,1,0-.533,0v0.53A0.255,0.255,0,0,0,29,1933.6Zm0-1.6a0.255,0.255,0,0,0,.267-0.27v-0.53a0.267,0.267,0,1,0-.533,0v0.53A0.255,0.255,0,0,0,29,1932Zm0,4.8a0.255,0.255,0,0,0,.267-0.27V1936a0.267,0.267,0,1,0-.533,0v0.53A0.255,0.255,0,0,0,29,1936.8Zm0-1.6a0.255,0.255,0,0,0,.267-0.27v-0.53a0.267,0.267,0,1,0-.533,0v0.53A0.255,0.255,0,0,0,29,1935.2Zm0-4.8a0.255,0.255,0,0,0,.267-0.27v-0.53a0.267,0.267,0,1,0-.533,0v0.53A0.255,0.255,0,0,0,29,1930.4Zm-9.067,3.73a0.247,0.247,0,0,0,.267-0.26v-0.54a0.267,0.267,0,0,0-.533,0v0.54A0.247,0.247,0,0,0,19.933,1934.13Zm0,1.6a0.247,0.247,0,0,0,.267-0.26v-0.54a0.267,0.267,0,0,0-.533,0v0.54A0.247,0.247,0,0,0,19.933,1935.73Zm0,1.6a0.247,0.247,0,0,0,.267-0.26v-0.54a0.267,0.267,0,0,0-.533,0v0.54A0.247,0.247,0,0,0,19.933,1937.33Zm0-11.2a0.247,0.247,0,0,0,.267-0.26v-0.54a0.267,0.267,0,0,0-.533,0v0.54A0.247,0.247,0,0,0,19.933,1926.13Zm0,1.6a0.247,0.247,0,0,0,.267-0.26v-0.54a0.267,0.267,0,0,0-.533,0v0.54A0.247,0.247,0,0,0,19.933,1927.73Zm0,1.6a0.247,0.247,0,0,0,.267-0.26v-0.54a0.267,0.267,0,0,0-.533,0v0.54A0.247,0.247,0,0,0,19.933,1929.33Zm0,1.6a0.247,0.247,0,0,0,.267-0.26v-0.54a0.267,0.267,0,0,0-.533,0v0.54A0.247,0.247,0,0,0,19.933,1930.93Zm0,1.6a0.247,0.247,0,0,0,.267-0.26v-0.54a0.267,0.267,0,0,0-.533,0v0.54A0.247,0.247,0,0,0,19.933,1932.53Zm1.6-4.8a0.247,0.247,0,0,0,.267-0.26v-0.54a0.267,0.267,0,0,0-.533,0v0.54A0.247,0.247,0,0,0,21.533,1927.73Zm0-1.6a0.247,0.247,0,0,0,.267-0.26v-0.54a0.267,0.267,0,0,0-.533,0v0.54A0.247,0.247,0,0,0,21.533,1926.13Zm0,4.8a0.247,0.247,0,0,0,.267-0.26v-0.54a0.267,0.267,0,0,0-.533,0v0.54A0.247,0.247,0,0,0,21.533,1930.93Zm0-1.6a0.247,0.247,0,0,0,.267-0.26v-0.54a0.267,0.267,0,0,0-.533,0v0.54A0.247,0.247,0,0,0,21.533,1929.33Zm0,3.2a0.247,0.247,0,0,0,.267-0.26v-0.54a0.267,0.267,0,0,0-.533,0v0.54A0.247,0.247,0,0,0,21.533,1932.53Zm0,1.6a0.247,0.247,0,0,0,.267-0.26v-0.54a0.267,0.267,0,0,0-.533,0v0.54A0.247,0.247,0,0,0,21.533,1934.13Zm0,1.6a0.247,0.247,0,0,0,.267-0.26v-0.54a0.267,0.267,0,0,0-.533,0v0.54A0.247,0.247,0,0,0,21.533,1935.73Zm1.6-6.4a0.247,0.247,0,0,0,.267-0.26v-0.54a0.267,0.267,0,0,0-.533,0v0.54A0.247,0.247,0,0,0,23.133,1929.33Zm0-1.6a0.247,0.247,0,0,0,.267-0.26v-0.54a0.267,0.267,0,0,0-.533,0v0.54A0.247,0.247,0,0,0,23.133,1927.73Zm0-1.6a0.247,0.247,0,0,0,.267-0.26v-0.54a0.267,0.267,0,0,0-.533,0v0.54A0.247,0.247,0,0,0,23.133,1926.13Zm0,9.6a0.247,0.247,0,0,0,.267-0.26v-0.54a0.267,0.267,0,0,0-.533,0v0.54A0.247,0.247,0,0,0,23.133,1935.73Zm0-1.6a0.247,0.247,0,0,0,.267-0.26v-0.54a0.267,0.267,0,0,0-.533,0v0.54A0.247,0.247,0,0,0,23.133,1934.13Zm0-1.6a0.247,0.247,0,0,0,.267-0.26v-0.54a0.267,0.267,0,0,0-.533,0v0.54A0.247,0.247,0,0,0,23.133,1932.53Zm0-1.6a0.247,0.247,0,0,0,.267-0.26v-0.54a0.267,0.267,0,0,0-.533,0v0.54A0.247,0.247,0,0,0,23.133,1930.93Zm1.6-3.2a0.247,0.247,0,0,0,.267-0.26v-0.54a0.267,0.267,0,0,0-.533,0v0.54A0.247,0.247,0,0,0,24.733,1927.73Zm0-1.6a0.247,0.247,0,0,0,.267-0.26v-0.54a0.267,0.267,0,0,0-.533,0v0.54A0.247,0.247,0,0,0,24.733,1926.13Z" transform="translate(-17 -1924)"/>
</svg>
