<svg xmlns="http://www.w3.org/2000/svg" width="12px" height="12px" viewBox="0 0 12 12">
  <path d="M10.500,4.500 L0.750,4.500 L0.750,10.500 L4.950,10.500 C5.100,10.800 5.250,11.025 5.475,11.250 L-0.000,11.250 L-0.000,0.750 L1.500,0.750 L1.500,3.000 L3.750,3.000 L3.750,0.750 L7.500,0.750 L7.500,3.000 L9.750,3.000 L9.750,0.750 L11.250,0.750 L11.250,5.475 C11.025,5.250 10.800,5.100 10.500,4.950 L10.500,4.500 ZM8.250,-0.000 L9.000,-0.000 L9.000,2.250 L8.250,2.250 L8.250,-0.000 ZM2.250,-0.000 L3.000,-0.000 L3.000,2.250 L2.250,2.250 L2.250,-0.000 ZM8.625,5.250 C10.500,5.250 12.000,6.750 12.000,8.625 C12.000,10.500 10.500,12.000 8.625,12.000 C6.750,12.000 5.250,10.500 5.250,8.625 C5.250,6.750 6.750,5.250 8.625,5.250 ZM8.625,11.250 C10.050,11.250 11.250,10.050 11.250,8.625 C11.250,7.199 10.050,6.000 8.625,6.000 C7.200,6.000 6.000,7.199 6.000,8.625 C6.000,10.050 7.200,11.250 8.625,11.250 ZM9.000,8.250 L10.500,8.250 L10.500,9.000 L8.250,9.000 L8.250,6.750 L9.000,6.750 L9.000,8.250 Z"/>
</svg>
