<svg xmlns="http://www.w3.org/2000/svg" width="20px" height="17px" viewBox="0 0 20 17">
  <path d="M17.500,14.571 L17.500,16.999 L16.250,16.999 L16.250,14.571 L13.750,14.571 L13.750,13.357 L16.250,13.357 L16.250,10.928 L17.500,10.928 L17.500,13.357 L20.000,13.357 L20.000,14.571 L17.500,14.571 ZM18.750,4.249 C18.750,3.914 18.470,3.642 18.125,3.642 L15.000,3.642 C14.706,3.651 14.446,3.458 14.375,3.181 L13.887,1.213 L6.112,1.213 L5.625,3.181 C5.554,3.458 5.294,3.651 5.000,3.642 L1.875,3.642 C1.530,3.642 1.250,3.914 1.250,4.249 L1.250,15.178 C1.250,15.513 1.530,15.785 1.875,15.785 L10.000,15.785 L10.000,16.999 L1.875,16.999 C0.839,16.999 -0.000,16.184 -0.000,15.178 L-0.000,4.249 C-0.000,3.244 0.839,2.428 1.875,2.428 L4.512,2.428 L5.000,0.461 C5.071,0.183 5.331,-0.009 5.625,-0.000 L14.375,-0.000 C14.669,-0.009 14.929,0.183 15.000,0.461 L15.487,2.428 L18.125,2.428 C19.161,2.428 20.000,3.244 20.000,4.249 L20.000,9.714 L18.750,9.714 L18.750,4.249 ZM7.500,9.714 C7.500,8.373 8.619,7.285 10.000,7.285 C11.381,7.285 12.500,8.373 12.500,9.714 C12.500,11.055 11.381,12.143 10.000,12.143 C8.619,12.143 7.500,11.055 7.500,9.714 ZM11.250,9.714 C11.250,9.043 10.690,8.499 10.000,8.499 C9.310,8.499 8.750,9.043 8.750,9.714 C8.750,10.384 9.310,10.928 10.000,10.928 C10.690,10.928 11.250,10.384 11.250,9.714 ZM7.500,2.428 L12.500,2.428 L12.500,3.642 L7.500,3.642 L7.500,2.428 ZM6.250,9.714 C6.250,11.725 7.929,13.357 10.000,13.357 L10.000,14.571 C7.239,14.571 5.000,12.396 5.000,9.714 C5.000,7.031 7.239,4.857 10.000,4.857 C12.761,4.857 15.000,7.031 15.000,9.714 L13.750,9.714 C13.750,7.702 12.071,6.071 10.000,6.071 C7.929,6.071 6.250,7.702 6.250,9.714 Z"/>
</svg>
