<svg xmlns="http://www.w3.org/2000/svg" width="22.531" height="22.63" viewBox="0 0 22.531 22.63">
  <metadata><?xpacket begin="﻿" id="W5M0MpCehiHzreSzNTczkc9d"?>
<x:xmpmeta xmlns:x="adobe:ns:meta/" x:xmptk="Adobe XMP Core 5.6-c138 79.159824, 2016/09/14-01:09:01        ">
   <rdf:RDF xmlns:rdf="http://www.w3.org/1999/02/22-rdf-syntax-ns#">
      <rdf:Description rdf:about=""/>
   </rdf:RDF>
</x:xmpmeta>
                                                                                                    
                                                                                                    
                                                                                                    
                                                                                                    
                                                                                                    
                                                                                                    
                                                                                                    
                                                                                                    
                                                                                                    
                                                                                                    
                                                                                                    
                                                                                                    
                                                                                                    
                                                                                                    
                                                                                                    
                                                                                                    
                                                                                                    
                                                                                                    
                                                                                                    
                                                                                                    
                           
<?xpacket end="w"?></metadata>
<defs>
    <style>
      .cls-1 {
        fill-rule: evenodd;
      }
    </style>
  </defs>
  <path id="Icon" class="cls-1" d="M260.7,1040.17a0.428,0.428,0,0,0-.414-0.25,17.433,17.433,0,0,1-7.058-1.18,8.911,8.911,0,0,1-4.027-4.03,0.21,0.21,0,0,0-.032-0.06,0.186,0.186,0,0,0-.01-0.02c-0.014-.02-0.03-0.04-0.047-0.06h0a4.707,4.707,0,0,0-6.659,0,4.753,4.753,0,0,0,0,6.69,0.014,0.014,0,0,0,.014.01,0.046,0.046,0,0,0,.028.02,0.152,0.152,0,0,0,.05.04c0.005,0,.009.01,0.015,0.01a10.167,10.167,0,0,1,4.047,4.06c1.227,2.6,1.17,7.06,1.169,7.11a0.434,0.434,0,0,0,.261.4,0.483,0.483,0,0,0,.167.03,0.43,0.43,0,0,0,.3-0.12l12.107-12.17A0.429,0.429,0,0,0,260.7,1040.17Zm-17.643-4.99a3.854,3.854,0,0,1,5.128-.29l-5.414,5.44A3.886,3.886,0,0,1,243.059,1035.18Zm14.334,7.49c-0.994.09-2.607,0.03-3.135-.5a0.443,0.443,0,0,0-.606,0,0.434,0.434,0,0,0,0,.61,4.365,4.365,0,0,0,2.851.79l-2.245,2.25-2.119-2.13a0.441,0.441,0,0,0-.605,0,0.432,0.432,0,0,0,0,.61l2.118,2.13-2.244,2.26a4.4,4.4,0,0,0-.782-2.87,0.424,0.424,0,0,0-.606,0,0.434,0.434,0,0,0,0,.61c0.528,0.53.586,2.15,0.5,3.15l-1.9,1.91a18.317,18.317,0,0,0-1.237-6.46,10.571,10.571,0,0,0-3.927-4.16l5.244-5.27a9.675,9.675,0,0,0,4.167,3.92,16.634,16.634,0,0,0,6.4,1.27Zm-19.177-11.75,0.6-.61,3.632,3.65-0.6.61Z" transform="translate(-238.219 -1030.31)"/>
</svg>
