<svg xmlns="http://www.w3.org/2000/svg" width="16" height="16" viewBox="0 0 16 16">
  <metadata><?xpacket begin="﻿" id="W5M0MpCehiHzreSzNTczkc9d"?>
<x:xmpmeta xmlns:x="adobe:ns:meta/" x:xmptk="Adobe XMP Core 5.6-c138 79.159824, 2016/09/14-01:09:01        ">
   <rdf:RDF xmlns:rdf="http://www.w3.org/1999/02/22-rdf-syntax-ns#">
      <rdf:Description rdf:about=""/>
   </rdf:RDF>
</x:xmpmeta>
                                                                                                    
                                                                                                    
                                                                                                    
                                                                                                    
                                                                                                    
                                                                                                    
                                                                                                    
                                                                                                    
                                                                                                    
                                                                                                    
                                                                                                    
                                                                                                    
                                                                                                    
                                                                                                    
                                                                                                    
                                                                                                    
                                                                                                    
                                                                                                    
                                                                                                    
                                                                                                    
                           
<?xpacket end="w"?></metadata>
<defs>
    <style>
      .cls-1 {
        fill: #1b1b1b;
        fill-rule: evenodd;
      }
    </style>
  </defs>
  <path id="Icon" class="cls-1" d="M94.7,1926H87v-1.71a0.293,0.293,0,0,0-.3-0.29H83.741a0.293,0.293,0,0,0-.3.29v1.12a0.286,0.286,0,0,0,0,.04V1926H79.3a0.293,0.293,0,0,0-.3.29v2.28a0.293,0.293,0,0,0,.3.29h1.481v7.71H79.889a0.293,0.293,0,0,0-.3.29V1938H79.3a0.293,0.293,0,0,0-.3.29v1.42a0.293,0.293,0,0,0,.3.29h3.555a0.293,0.293,0,0,0,.3-0.29v-1.42a0.293,0.293,0,0,0-.3-0.29h-0.3v-1.14a0.293,0.293,0,0,0-.3-0.29H81.37v-7.71h2.074v1.98a0.3,0.3,0,0,0,0,.04v2.82a0.3,0.3,0,0,0,0,.04v2.82a0.154,0.154,0,0,0,0,.02c0,0.01,0,.01,0,0.02v2.82a0.3,0.3,0,0,0,0,.04v0.25a0.293,0.293,0,0,0,.3.29H86.7a0.293,0.293,0,0,0,.3-0.29v-10.85h5.333v3.44h0a0.289,0.289,0,0,0,.294.27,0.86,0.86,0,1,1-.889.86,0.3,0.3,0,0,0-.593,0,1.482,1.482,0,1,0,1.778-1.4v-3.17H94.7a0.293,0.293,0,0,0,.3-0.29v-2.28A0.293,0.293,0,0,0,94.7,1926Zm-12.148,13.43H79.593v-0.86h2.963v0.86Zm-0.593-2.29V1938H80.185v-0.86h1.778Zm2.074-10.85v-0.17l0.764,0.74-0.764.74v-1.31Zm2.37,0v1.31l-0.768-.74,0.768-.74v0.17Zm-0.273,1.85-0.914.89-0.914-.89,0.914-.88Zm-2.1.55,0.764,0.74-0.764.74v-1.48Zm1.183,1.14,1.064,1.03-1.065,1.03-1.064-1.03Zm-0.419,2.46-0.764.74v-1.48Zm0.419,0.4,1.065,1.03-1.064,1.03-1.065-1.03Zm-0.419,2.46-0.764.74v-1.48Zm0.419,0.41,1.063,1.02-1.062,1.02-1.062-1.02Zm-0.419,2.45-0.764.74v-1.48Zm0.419,0.4,1.053,1.02H84.167Zm0.419-.4,0.768-.74v1.48Zm0-2.86,0.768-.74v1.48Zm0-2.86,0.768-.74v1.48Zm0-2.86,0.768-.74v1.48Zm0.768-4.86v0.74l-1.187,1.14-1.183-1.14v-0.74h2.37Zm-6.815,2h3.852v1.41a0.3,0.3,0,0,0,0,.04v0.25c0,0.01,0,.01,0,0.02H79.593v-1.72Zm14.815,1.72H87v-1.72h7.407v1.72Z" transform="translate(-79 -1924)"/>
</svg>
