<svg xmlns="http://www.w3.org/2000/svg" width="20.25" height="22.625" viewBox="0 0 20.25 22.625">
  <metadata><?xpacket begin="﻿" id="W5M0MpCehiHzreSzNTczkc9d"?>
<x:xmpmeta xmlns:x="adobe:ns:meta/" x:xmptk="Adobe XMP Core 5.6-c138 79.159824, 2016/09/14-01:09:01        ">
   <rdf:RDF xmlns:rdf="http://www.w3.org/1999/02/22-rdf-syntax-ns#">
      <rdf:Description rdf:about=""/>
   </rdf:RDF>
</x:xmpmeta>
                                                                                                    
                                                                                                    
                                                                                                    
                                                                                                    
                                                                                                    
                                                                                                    
                                                                                                    
                                                                                                    
                                                                                                    
                                                                                                    
                                                                                                    
                                                                                                    
                                                                                                    
                                                                                                    
                                                                                                    
                                                                                                    
                                                                                                    
                                                                                                    
                                                                                                    
                                                                                                    
                           
<?xpacket end="w"?></metadata>
<defs>
    <style>
      .cls-1 {
        fill-rule: evenodd;
      }
    </style>
  </defs>
  <path id="Icon" class="cls-1" d="M36.519,901.666a7.016,7.016,0,0,0-6.886,7.124,7.1,7.1,0,0,0,4.456,6.663v3.813a0.413,0.413,0,0,0,.405.42H34.9v0.838a0.412,0.412,0,0,0,.405.419h2.43a0.412,0.412,0,0,0,.405-0.419v-0.838h0.405a0.412,0.412,0,0,0,.405-0.42v-3.813a7.1,7.1,0,0,0,4.456-6.663A7.016,7.016,0,0,0,36.519,901.666Zm1.215,17.181a0.412,0.412,0,0,0-.405.419v0.839h-1.62v-0.839a0.412,0.412,0,0,0-.405-0.419H34.9v-2.1h3.24v2.1H37.734Zm0.684-4.089a0.419,0.419,0,0,0-.279.4v0.758H34.9v-0.758a0.418,0.418,0,0,0-.279-0.4,6.255,6.255,0,0,1-4.177-5.968,6.079,6.079,0,1,1,12.152,0A6.255,6.255,0,0,1,38.418,914.758Zm-1.9-13.93a0.412,0.412,0,0,0,.405-0.419v-1.676a0.405,0.405,0,1,0-.81,0v1.676A0.412,0.412,0,0,0,36.519,900.828Zm9.721,7.543H44.62a0.419,0.419,0,0,0,0,.838h1.62A0.419,0.419,0,0,0,46.24,908.371Zm-17.823,0H26.8a0.419,0.419,0,0,0,0,.838h1.62A0.419,0.419,0,0,0,28.418,908.371Zm14.689-6.989-1.146,1.185a0.43,0.43,0,0,0,0,.593,0.395,0.395,0,0,0,.573,0l1.145-1.185a0.429,0.429,0,0,0,0-.593A0.4,0.4,0,0,0,43.107,901.382ZM30.5,914.42l-1.145,1.186a0.428,0.428,0,0,0,0,.592,0.395,0.395,0,0,0,.573,0l1.145-1.185a0.429,0.429,0,0,0,0-.593A0.4,0.4,0,0,0,30.5,914.42Zm12.03,0a0.4,0.4,0,0,0-.573,0,0.43,0.43,0,0,0,0,.593l1.146,1.185a0.395,0.395,0,0,0,.573,0,0.428,0.428,0,0,0,0-.592ZM30.5,903.16a0.395,0.395,0,0,0,.573,0,0.429,0.429,0,0,0,0-.593l-1.145-1.185a0.4,0.4,0,0,0-.573,0,0.429,0.429,0,0,0,0,.593Zm6.015,0.6a4.952,4.952,0,0,0-4.861,5.028,0.405,0.405,0,1,0,.81,0,4.127,4.127,0,0,1,4.051-4.19A0.419,0.419,0,0,0,36.519,903.762Z" transform="translate(-26.406 -898.313)"/>
</svg>
