<svg xmlns="http://www.w3.org/2000/svg" width="17" height="13" viewBox="0 0 17 13">
  <metadata><?xpacket begin="﻿" id="W5M0MpCehiHzreSzNTczkc9d"?>
<x:xmpmeta xmlns:x="adobe:ns:meta/" x:xmptk="Adobe XMP Core 5.6-c138 79.159824, 2016/09/14-01:09:01        ">
   <rdf:RDF xmlns:rdf="http://www.w3.org/1999/02/22-rdf-syntax-ns#">
      <rdf:Description rdf:about=""/>
   </rdf:RDF>
</x:xmpmeta>
                                                                                                    
                                                                                                    
                                                                                                    
                                                                                                    
                                                                                                    
                                                                                                    
                                                                                                    
                                                                                                    
                                                                                                    
                                                                                                    
                                                                                                    
                                                                                                    
                                                                                                    
                                                                                                    
                                                                                                    
                                                                                                    
                                                                                                    
                                                                                                    
                                                                                                    
                                                                                                    
                           
<?xpacket end="w"?></metadata>
<defs>
    <style>
      .cls-1 {
        fill: #fff;
        fill-rule: evenodd;
        opacity: 0.8;
      }
    </style>
  </defs>
  <path id="Message" class="cls-1" d="M30.506,220H16.494A1.5,1.5,0,0,0,15,221.5v10a1.5,1.5,0,0,0,1.494,1.5H30.506A1.5,1.5,0,0,0,32,231.5v-10A1.5,1.5,0,0,0,30.506,220ZM30.3,221l-6.768,6.794L16.705,221H30.3ZM16,231.293V221.7l4.8,4.775ZM16.7,232l4.8-4.819,1.682,1.674a0.5,0.5,0,0,0,.7,0l1.64-1.647L30.3,232H16.7Zm14.3-.707L26.23,226.5,31,221.707v9.586Z" transform="translate(-15 -220)"/>
</svg>
