<svg xmlns="http://www.w3.org/2000/svg" width="34px" height="34px" viewBox="0 0 34 34">
  <path d="M15.297,16.500 L4.227,27.645 C3.919,27.955 3.919,28.457 4.227,28.766 C4.380,28.921 4.582,28.998 4.783,28.998 C4.985,28.998 5.186,28.921 5.340,28.766 L16.494,17.537 L27.648,28.766 C27.802,28.921 28.003,28.998 28.204,28.998 C28.405,28.998 28.607,28.921 28.761,28.766 C29.068,28.457 29.068,27.955 28.761,27.645 L17.690,16.500 L28.768,5.346 C29.076,5.036 29.076,4.535 28.768,4.225 C28.460,3.916 27.962,3.916 27.655,4.225 L16.494,15.462 L5.332,4.225 C5.024,3.916 4.526,3.916 4.219,4.225 C3.911,4.535 3.911,5.037 4.219,5.346 L15.297,16.500 Z"/>
</svg>
