<svg xmlns="http://www.w3.org/2000/svg" width="24.031" height="22.625" viewBox="0 0 24.031 22.625">
  <metadata><?xpacket begin="﻿" id="W5M0MpCehiHzreSzNTczkc9d"?>
<x:xmpmeta xmlns:x="adobe:ns:meta/" x:xmptk="Adobe XMP Core 5.6-c138 79.159824, 2016/09/14-01:09:01        ">
   <rdf:RDF xmlns:rdf="http://www.w3.org/1999/02/22-rdf-syntax-ns#">
      <rdf:Description rdf:about=""/>
   </rdf:RDF>
</x:xmpmeta>
                                                                                                    
                                                                                                    
                                                                                                    
                                                                                                    
                                                                                                    
                                                                                                    
                                                                                                    
                                                                                                    
                                                                                                    
                                                                                                    
                                                                                                    
                                                                                                    
                                                                                                    
                                                                                                    
                                                                                                    
                                                                                                    
                                                                                                    
                                                                                                    
                                                                                                    
                                                                                                    
                           
<?xpacket end="w"?></metadata>
<defs>
    <style>
      .cls-1 {
        fill-rule: evenodd;
      }
    </style>
  </defs>
  <path id="Icon" class="cls-1" d="M151.82,920.943a2.385,2.385,0,0,1-2.4-2.248h-0.7a2.4,2.4,0,0,1-4.8,0h-0.7a2.4,2.4,0,0,1-4.8,0h-0.7a2.4,2.4,0,0,1-4.8-.109V900.671a2.4,2.4,0,0,1,4.8,0v0.382h0.694v-0.382a2.4,2.4,0,0,1,4.8,0v0.382h0.694v-0.382a2.4,2.4,0,0,1,4.8,0v0.382h0.694v-0.382a2.4,2.4,0,0,1,4.8,0v0.387h1.049l0.036,0a1.671,1.671,0,0,1,0,3.342,0.223,0.223,0,0,1-.037,0h-1.05v10.945h1.05a0.223,0.223,0,0,1,.037,0,1.671,1.671,0,0,1,0,3.342l-0.037,0h-1.052A2.385,2.385,0,0,1,151.82,920.943Zm-1.691-2.6v0.24a1.691,1.691,0,0,0,3.382,0V900.671a1.691,1.691,0,0,0-3.382,0v17.675Zm-5.5,0v0.24a1.691,1.691,0,0,0,3.382,0V900.671a1.691,1.691,0,0,0-3.382,0v17.675Zm-5.5,0v0.24a1.691,1.691,0,0,0,3.382,0V900.671a1.691,1.691,0,0,0-3.382,0v17.675Zm-3.807-19.335a1.677,1.677,0,0,0-1.691,1.66v17.915a1.691,1.691,0,0,0,3.382,0V900.671A1.678,1.678,0,0,0,135.326,899.011ZM154.222,918h1.05a0.974,0.974,0,1,0,0-1.948l-0.034,0h-1.016V918Zm-5.5,0h0.694v-1.951h-0.694V918Zm-5.5,0h0.694v-1.951h-0.694V918Zm-5.5,0h0.694v-1.951h-0.694V918Zm11-2.648h0.694V904.4h-0.694v10.95Zm-5.5,0h0.694V904.4h-0.694v10.95Zm-5.5,0h0.694V904.4h-0.694v10.95Zm16.494-11.642h1.016l0.034,0a0.974,0.974,0,1,0,0-1.948h-1.05v1.951h0Zm-5.5-.006h0.694V901.75h-0.694V903.7Zm-5.5,0h0.694V901.75h-0.694V903.7Zm-5.5,0h0.694V901.75h-0.694V903.7Z" transform="translate(-132.938 -898.313)"/>
</svg>
