<svg xmlns="http://www.w3.org/2000/svg" width="27.438" height="16.35" viewBox="0 0 27.438 16.35">
  <metadata><?xpacket begin="﻿" id="W5M0MpCehiHzreSzNTczkc9d"?>
<x:xmpmeta xmlns:x="adobe:ns:meta/" x:xmptk="Adobe XMP Core 5.6-c138 79.159824, 2016/09/14-01:09:01        ">
   <rdf:RDF xmlns:rdf="http://www.w3.org/1999/02/22-rdf-syntax-ns#">
      <rdf:Description rdf:about=""/>
   </rdf:RDF>
</x:xmpmeta>
                                                                                                    
                                                                                                    
                                                                                                    
                                                                                                    
                                                                                                    
                                                                                                    
                                                                                                    
                                                                                                    
                                                                                                    
                                                                                                    
                                                                                                    
                                                                                                    
                                                                                                    
                                                                                                    
                                                                                                    
                                                                                                    
                                                                                                    
                                                                                                    
                                                                                                    
                                                                                                    
                           
<?xpacket end="w"?></metadata>
<defs>
    <style>
      .cls-1 {
        fill-rule: evenodd;
      }
    </style>
  </defs>
  <path id="Icon" class="cls-1" d="M79.507,1437.13a1.2,1.2,0,1,1,1.179-1.19A1.184,1.184,0,0,1,79.507,1437.13Zm0-1.83a0.631,0.631,0,0,0-.63.64,0.63,0.63,0,1,0,1.261,0A0.631,0.631,0,0,0,79.507,1435.3Zm22.234,1.83a1.2,1.2,0,1,1,1.179-1.19A1.184,1.184,0,0,1,101.741,1437.13Zm0-1.83a0.632,0.632,0,0,0-.631.64,0.631,0.631,0,1,0,1.261,0A0.632,0.632,0,0,0,101.741,1435.3Zm2.609,0.64a2.633,2.633,0,0,0-2.609-2.65,2.768,2.768,0,0,0-.65.08,3.623,3.623,0,0,0-3.573-3.29H83.73a3.624,3.624,0,0,0-3.575,3.29,2.765,2.765,0,0,0-.648-0.08,2.65,2.65,0,0,0-.567,5.23v4.36a0.03,0.03,0,0,0,0,.01,1.461,1.461,0,0,0,.891,1.35,0.944,0.944,0,0,0-.135.49,1.128,1.128,0,0,0,.45.79v0.63a0.28,0.28,0,0,0,.275.28h1.172a0.28,0.28,0,0,0,.274-0.28v-0.63a1.128,1.128,0,0,0,.45-0.79,0.927,0.927,0,0,0-.076-0.37H99.007a0.929,0.929,0,0,0-.076.37,1.128,1.128,0,0,0,.45.79v0.63a0.28,0.28,0,0,0,.274.28h1.172a0.28,0.28,0,0,0,.274-0.28v-0.63a1.129,1.129,0,0,0,.451-0.79,0.948,0.948,0,0,0-.136-0.49,1.461,1.461,0,0,0,.891-1.35,0.016,0.016,0,0,0,0-.01v-4.36A2.632,2.632,0,0,0,104.35,1435.94Zm-20.62-5.3H97.518a3.067,3.067,0,0,1,3.04,2.94,2.645,2.645,0,0,0-1.426,2.36h0c0,0.01,0,.01,0,0.01v2.63a5.169,5.169,0,0,0-.962-0.26,20.85,20.85,0,0,0-6.309,0,3.316,3.316,0,0,0-1.237.41,3.315,3.315,0,0,0-1.237-.41,20.85,20.85,0,0,0-6.309,0,5.173,5.173,0,0,0-.962.26v-2.64h0a2.644,2.644,0,0,0-1.426-2.36A3.068,3.068,0,0,1,83.73,1430.64Zm15.4,8.57v1.26a0.289,0.289,0,0,1-.288.29H90.9v-1.55c0.2-.2,1.6-0.58,4.117-0.58S98.929,1439.01,99.131,1439.21Zm-8.782,0v1.55H82.4a0.289,0.289,0,0,1-.287-0.29v-1.26c0.2-.2,1.6-0.58,4.117-0.58S90.147,1439.01,90.349,1439.21Zm-8.582,5.52a0.737,0.737,0,0,1-.323.41,0.276,0.276,0,0,0-.127.23v0.5H80.694v-0.5a0.278,0.278,0,0,0-.127-0.23,0.735,0.735,0,0,1-.324-0.41,0.364,0.364,0,0,1,.364-0.37h0.8A0.364,0.364,0,0,1,81.768,1444.73Zm18.913,0.41a0.275,0.275,0,0,0-.128.23v0.5H99.93v-0.5a0.278,0.278,0,0,0-.127-0.23,0.735,0.735,0,0,1-.324-0.41,0.364,0.364,0,0,1,.364-0.37h0.8a0.363,0.363,0,0,1,.363.37A0.739,0.739,0,0,1,100.681,1445.14Zm1.428-7.15h0a2.688,2.688,0,0,1-.368.04,2.007,2.007,0,0,1-.96-0.24,0.277,0.277,0,0,0-.371.11,0.284,0.284,0,0,0,.115.38,2.579,2.579,0,0,0,1.216.31h0.017v4.3h0a0.911,0.911,0,0,1-.9.91H80.39a0.91,0.91,0,0,1-.9-0.91h0v-4.3h0.017a2.579,2.579,0,0,0,1.216-.31,0.283,0.283,0,0,0,.115-0.38,0.277,0.277,0,0,0-.371-0.11,2.006,2.006,0,0,1-.96.24,2.126,2.126,0,0,1-.357-0.03h0a2.093,2.093,0,1,1,2.418-2.07v0.02c0,0.01,0,.01,0,0.02v4.5a0.843,0.843,0,0,0,.837.85h16.44a0.843,0.843,0,0,0,.837-0.85v-4.5c0-.01,0-0.01,0-0.02s0-.01,0-0.01A2.06,2.06,0,1,1,102.109,1437.99Zm-16.1-5.43a0.27,0.27,0,0,0-.388,0l-0.2.21-0.2-.21a0.27,0.27,0,0,0-.388,0,0.289,0.289,0,0,0,0,.4l0.2,0.2-0.2.21a0.277,0.277,0,0,0,0,.39,0.275,0.275,0,0,0,.388,0l0.2-.2,0.2,0.2a0.275,0.275,0,0,0,.388,0,0.277,0.277,0,0,0,0-.39l-0.2-.21,0.2-.2A0.289,0.289,0,0,0,86.008,1432.56Zm0,3.07a0.27,0.27,0,0,0-.388,0l-0.2.2-0.2-.2a0.27,0.27,0,0,0-.388,0,0.277,0.277,0,0,0,0,.39l0.2,0.21-0.2.2a0.279,0.279,0,1,0,.388.4l0.2-.21,0.2,0.21a0.279,0.279,0,1,0,.388-0.4l-0.2-.2,0.2-.21A0.276,0.276,0,0,0,86.008,1435.63Zm10.211-2.47,0.2-.2a0.289,0.289,0,0,0,0-.4,0.269,0.269,0,0,0-.388,0l-0.2.21-0.2-.21a0.269,0.269,0,0,0-.388,0,0.289,0.289,0,0,0,0,.4l0.2,0.2-0.2.21a0.276,0.276,0,0,0,0,.39,0.275,0.275,0,0,0,.388,0l0.2-.2,0.2,0.2a0.276,0.276,0,0,0,.388,0,0.277,0.277,0,0,0,0-.39Zm0.2,2.47a0.269,0.269,0,0,0-.388,0l-0.2.2-0.2-.2a0.269,0.269,0,0,0-.388,0,0.276,0.276,0,0,0,0,.39l0.2,0.21-0.2.2a0.279,0.279,0,1,0,.388.4l0.2-.21,0.2,0.21a0.279,0.279,0,1,0,.388-0.4l-0.2-.2,0.2-.21A0.277,0.277,0,0,0,96.422,1435.63Zm-5.41-2.47,0.2-.2a0.289,0.289,0,0,0,0-.4,0.27,0.27,0,0,0-.388,0l-0.2.21-0.2-.21a0.27,0.27,0,0,0-.388,0,0.289,0.289,0,0,0,0,.4l0.2,0.2-0.2.21a0.276,0.276,0,0,0,0,.39,0.275,0.275,0,0,0,.388,0l0.2-.2,0.2,0.2a0.276,0.276,0,0,0,.388,0,0.277,0.277,0,0,0,0-.39Zm0.2,2.47a0.27,0.27,0,0,0-.388,0l-0.2.2-0.2-.2a0.27,0.27,0,0,0-.388,0,0.276,0.276,0,0,0,0,.39l0.2,0.21-0.2.2a0.279,0.279,0,1,0,.388.4l0.2-.21,0.2,0.21a0.279,0.279,0,1,0,.388-0.4l-0.2-.2,0.2-.21A0.277,0.277,0,0,0,91.215,1435.63Z" transform="translate(-76.906 -1430.09)"/>
</svg>
