<svg xmlns="http://www.w3.org/2000/svg" width="17px" height="16px" viewBox="0 0 16 16">
  <path d="M9.674,13.658 C9.547,13.753 9.384,13.801 9.186,13.801 L7.150,13.801 C6.952,13.801 6.790,13.753 6.663,13.658 C6.535,13.563 6.472,13.426 6.472,13.250 L6.472,12.656 L6.472,7.694 L6.472,5.658 L9.865,5.658 L9.865,7.694 L9.865,12.656 L9.865,13.250 C9.865,13.426 9.801,13.563 9.674,13.658 ZM4.309,4.004 C4.111,3.806 4.012,3.566 4.012,3.283 C4.012,3.001 4.111,2.760 4.309,2.562 C4.507,2.364 4.747,2.265 5.030,2.265 C5.334,2.265 5.578,2.375 5.761,2.594 L7.097,4.301 L5.030,4.301 C4.747,4.301 4.507,4.202 4.309,4.004 ZM11.307,4.301 L9.250,4.301 L10.575,2.594 C10.759,2.375 11.003,2.265 11.307,2.265 C11.589,2.265 11.830,2.364 12.028,2.562 C12.225,2.760 12.325,3.001 12.325,3.283 C12.325,3.566 12.225,3.806 12.028,4.004 C11.830,4.202 11.589,4.301 11.307,4.301 L11.307,4.301 ZM16.216,5.754 C16.152,5.690 16.071,5.658 15.972,5.658 L11.307,5.658 C11.964,5.658 12.524,5.427 12.987,4.964 C13.450,4.501 13.682,3.941 13.682,3.283 C13.682,2.626 13.450,2.066 12.987,1.603 C12.524,1.140 11.964,0.908 11.307,0.908 C10.550,0.908 9.956,1.180 9.525,1.725 L8.168,3.474 L6.811,1.725 C6.380,1.180 5.786,0.908 5.030,0.908 C4.372,0.908 3.812,1.140 3.349,1.603 C2.886,2.066 2.655,2.626 2.655,3.283 C2.655,3.941 2.886,4.501 3.349,4.964 C3.812,5.427 4.372,5.658 5.030,5.658 L0.365,5.658 C0.266,5.658 0.184,5.690 0.121,5.754 C0.057,5.817 0.025,5.899 0.025,5.997 L0.025,9.390 C0.025,9.489 0.057,9.571 0.121,9.634 C0.184,9.698 0.266,9.730 0.365,9.730 L1.383,9.730 L1.383,14.140 C1.383,14.423 1.481,14.664 1.679,14.861 C1.877,15.059 2.118,15.158 2.400,15.158 L13.936,15.158 C14.219,15.158 14.459,15.059 14.657,14.861 C14.855,14.664 14.954,14.423 14.954,14.140 L14.954,9.730 L15.972,9.730 C16.071,9.730 16.152,9.698 16.216,9.634 C16.279,9.571 16.311,9.489 16.311,9.390 L16.311,5.997 C16.311,5.899 16.279,5.817 16.216,5.754 Z"/>
</svg>
