<svg xmlns="http://www.w3.org/2000/svg" width="19.001" height="23.875" viewBox="0 0 19.001 23.875">
  <metadata><?xpacket begin="﻿" id="W5M0MpCehiHzreSzNTczkc9d"?>
<x:xmpmeta xmlns:x="adobe:ns:meta/" x:xmptk="Adobe XMP Core 5.6-c138 79.159824, 2016/09/14-01:09:01        ">
   <rdf:RDF xmlns:rdf="http://www.w3.org/1999/02/22-rdf-syntax-ns#">
      <rdf:Description rdf:about=""/>
   </rdf:RDF>
</x:xmpmeta>
                                                                                                    
                                                                                                    
                                                                                                    
                                                                                                    
                                                                                                    
                                                                                                    
                                                                                                    
                                                                                                    
                                                                                                    
                                                                                                    
                                                                                                    
                                                                                                    
                                                                                                    
                                                                                                    
                                                                                                    
                                                                                                    
                                                                                                    
                                                                                                    
                                                                                                    
                                                                                                    
                           
<?xpacket end="w"?></metadata>
<defs>
    <style>
      .cls-1 {
        fill-rule: evenodd;
      }
    </style>
  </defs>
  <path id="Icon" class="cls-1" d="M99.369,904.841a0.393,0.393,0,0,0-.36-0.305h0a0.4,0.4,0,0,0-.359.308c0,0.017-.505,1.737-1.163,3.424-1.2,3.084-1.781,3.148-1.843,3.148a1.356,1.356,0,0,1-.469-1.03c-1.138-5.015-3.428-12.369-3.452-12.442a0.407,0.407,0,0,0-.291-0.291,0.348,0.348,0,0,0-.357.153,71.57,71.57,0,0,0-4.679,8.256v-1.986a0.468,0.468,0,0,0-.236-0.424,0.336,0.336,0,0,0-.417.1c-3.482,4.184-4.918,7.982-4.269,11.288,0.894,4.549,5.375,6.392,5.565,6.468a0.325,0.325,0,0,0,.121.024,0.376,0.376,0,0,0,.33-0.228,0.529,0.529,0,0,0-.074-0.573,9.925,9.925,0,0,1-2.178-3.9h0a12.041,12.041,0,0,1-.215-2.812c0.213,1.242.52,1.82,0.993,1.93,0.7,0.163,1.41-.753,2.624-3.38a8,8,0,0,1,.911-1.659,10.928,10.928,0,0,1,.25,1.26,19.964,19.964,0,0,0,.436,2.158c0.652,2.349,2.56,2.64,3.823,2.832a5.168,5.168,0,0,1,1.006.215,0.2,0.2,0,0,1,.118.141c0.21,0.61-.3,2.327-0.721,3.352a0.534,0.534,0,0,0,.053.506,0.342,0.342,0,0,0,.41.135,7.837,7.837,0,0,0,4.453-4.532C101.43,911.911,99.454,905.127,99.369,904.841ZM98.69,916.575a7.075,7.075,0,0,1-3.16,3.66,5.743,5.743,0,0,0,.359-3.071,1.035,1.035,0,0,0-.582-0.661,5.447,5.447,0,0,0-1.152-.255c-1.263-.192-2.694-0.41-3.194-2.211a19.212,19.212,0,0,1-.411-2.044c-0.193-1.188-.32-1.972-0.855-2.074a0.571,0.571,0,0,0-.1-0.01c-0.447,0-.876.594-1.624,2.213-1.338,2.894-1.766,2.929-1.81,2.924-0.013,0-.311-0.151-0.535-2.3a1.24,1.24,0,0,0-.437-1.072,0.4,0.4,0,0,0-.468.112c-0.469.5-.671,3.075-0.228,5.26a8.331,8.331,0,0,0,1.125,2.646c-0.194-.135-0.4-0.286-0.6-0.452a7.715,7.715,0,0,1-2.8-4.416c-0.542-2.769.606-6,3.414-9.613v2.539a0.453,0.453,0,0,0,.284.444,0.36,0.36,0,0,0,.43-0.216,92.515,92.515,0,0,1,4.892-8.966c0.61,2,2.283,7.577,3.2,11.615,0.094,0.414.38,1.674,1.181,1.707,0.477,0.02,1.26-.341,2.564-3.684,0.309-.792.581-1.58,0.786-2.207,0.147,0.687.314,1.6,0.429,2.646A16.158,16.158,0,0,1,98.69,916.575Z" transform="translate(-81.313 -897.656)"/>
</svg>
