<svg xmlns="http://www.w3.org/2000/svg" width="17px" height="16px" viewBox="0 0 16 17">
  <path d="M16.914,6.971 C16.827,7.096 16.693,7.162 16.557,7.162 C16.467,7.162 16.375,7.133 16.297,7.072 L8.499,1.044 L0.702,7.072 C0.506,7.224 0.229,7.179 0.085,6.971 C-0.059,6.763 -0.016,6.471 0.181,6.319 L8.239,0.089 C8.394,-0.031 8.605,-0.031 8.760,0.089 L16.818,6.319 C17.015,6.471 17.058,6.763 16.914,6.971 ZM2.316,7.177 C2.560,7.177 2.757,7.386 2.757,7.644 L2.757,15.067 L6.291,15.067 L6.291,11.015 C6.291,9.729 7.282,8.683 8.500,8.683 C9.717,8.683 10.708,9.729 10.708,11.015 L10.708,15.067 L14.242,15.067 L14.242,7.644 C14.242,7.386 14.439,7.177 14.683,7.177 C14.927,7.177 15.125,7.386 15.125,7.644 L15.125,15.534 C15.125,15.791 14.927,16.000 14.683,16.000 L10.266,16.000 C10.034,16.000 9.844,15.810 9.826,15.570 C9.825,15.559 9.825,15.547 9.825,15.534 L9.825,11.015 C9.825,10.243 9.230,9.616 8.500,9.616 C7.769,9.616 7.174,10.243 7.174,11.015 L7.174,15.534 C7.174,15.547 7.174,15.559 7.173,15.570 C7.155,15.811 6.965,16.000 6.733,16.000 L2.316,16.000 C2.072,16.000 1.874,15.791 1.874,15.534 L1.874,7.644 C1.874,7.386 2.072,7.177 2.316,7.177 Z"/>
</svg>
