<svg xmlns="http://www.w3.org/2000/svg" width="18" height="15.969" viewBox="0 0 18 15.969">
  <metadata><?xpacket begin="﻿" id="W5M0MpCehiHzreSzNTczkc9d"?>
<x:xmpmeta xmlns:x="adobe:ns:meta/" x:xmptk="Adobe XMP Core 5.6-c138 79.159824, 2016/09/14-01:09:01        ">
   <rdf:RDF xmlns:rdf="http://www.w3.org/1999/02/22-rdf-syntax-ns#">
      <rdf:Description rdf:about=""/>
   </rdf:RDF>
</x:xmpmeta>
                                                                                                    
                                                                                                    
                                                                                                    
                                                                                                    
                                                                                                    
                                                                                                    
                                                                                                    
                                                                                                    
                                                                                                    
                                                                                                    
                                                                                                    
                                                                                                    
                                                                                                    
                                                                                                    
                                                                                                    
                                                                                                    
                                                                                                    
                                                                                                    
                                                                                                    
                                                                                                    
                           
<?xpacket end="w"?></metadata>
<defs>
    <style>
      .cls-1 {
        fill: #fff;
        fill-rule: evenodd;
      }
    </style>
  </defs>
  <path class="cls-1" d="M31.8,263.812V260.9a0.889,0.889,0,0,0-.439-0.772,0.878,0.878,0,0,0-.888-0.008,20.615,20.615,0,0,1-8.642,2.611c-0.023,0-2.79.014-2.79,0.014a1.363,1.363,0,0,0-1.349,1.206H17.128A1.133,1.133,0,0,0,16,265.083v2.494a1.133,1.133,0,0,0,1.128,1.135H17.7a1.371,1.371,0,0,0,.8,1.09l2.021,5.614a0.885,0.885,0,0,0,.829.584h2.028a0.882,0.882,0,0,0,.723-0.379,0.892,0.892,0,0,0,.106-0.812l-1.736-4.821a20.6,20.6,0,0,1,8.009,2.554,0.89,0.89,0,0,0,1.327-.78v-2.915A2.541,2.541,0,0,0,31.8,263.812Zm-14.117,4.025H17.128a0.259,0.259,0,0,1-.258-0.26v-2.494a0.259,0.259,0,0,1,.258-0.259h0.558v3.013ZM18.845,269a0.493,0.493,0,0,1-.29-0.449v-4.442h0a0.491,0.491,0,0,1,.489-0.492h2.367v5.426l-2.4,0A0.448,0.448,0,0,1,18.845,269Zm4.541,6.108a0.009,0.009,0,0,1,0,.011,0.01,0.01,0,0,1-.01.006H21.346a0.013,0.013,0,0,1-.011-0.008l-1.872-5.2h2.053Zm7.547-3.346a0.016,0.016,0,0,1-.009.017,0.021,0.021,0,0,1-.023,0,21.482,21.482,0,0,0-8.62-2.688v-5.521a21.479,21.479,0,0,0,8.62-2.688,0.021,0.021,0,0,1,.023,0,0.016,0.016,0,0,1,.009.017v10.865Zm0.87-3.8V264.7A1.666,1.666,0,0,1,31.8,267.96Z" transform="translate(-16 -260.031)"/>
</svg>
