<svg xmlns="http://www.w3.org/2000/svg" width="16" height="16" viewBox="0 0 16 16">
  <metadata><?xpacket begin="﻿" id="W5M0MpCehiHzreSzNTczkc9d"?>
<x:xmpmeta xmlns:x="adobe:ns:meta/" x:xmptk="Adobe XMP Core 5.6-c138 79.159824, 2016/09/14-01:09:01        ">
   <rdf:RDF xmlns:rdf="http://www.w3.org/1999/02/22-rdf-syntax-ns#">
      <rdf:Description rdf:about=""/>
   </rdf:RDF>
</x:xmpmeta>
                                                                                                    
                                                                                                    
                                                                                                    
                                                                                                    
                                                                                                    
                                                                                                    
                                                                                                    
                                                                                                    
                                                                                                    
                                                                                                    
                                                                                                    
                                                                                                    
                                                                                                    
                                                                                                    
                                                                                                    
                                                                                                    
                                                                                                    
                                                                                                    
                                                                                                    
                                                                                                    
                           
<?xpacket end="w"?></metadata>
<defs>
    <style>
      .cls-1 {
        fill: #1b1b1b;
        fill-rule: evenodd;
      }
    </style>
  </defs>
  <path id="Icon" class="cls-1" d="M217.746,1924h-3.492v1.24h3.492V1924h0Zm-0.492.75h-2.508v-0.26h2.508v0.26Zm-3.5,12h0.492v1h-0.492v-1Zm-7-5.5h8.5v0.5h-8.5v-0.5Zm-1.246,6h6.242v-3.75H205.5v3.75ZM206,1934h5.258v1.01H206V1934Zm0,1.5h5.258v0.26H206v-0.26Zm0,0.75h5.258v0.51H206v-0.51Zm6,0.01h0.5v0.49H212v-0.49Zm-6.75,2.5h0.5v0.49h-0.5v-0.49Zm0.75,0h0.5v0.49H206v-0.49Zm0.75,0h0.5v0.49h-0.5v-0.49Zm11,0.75v-8.36l-6.5-4.77v-0.89l7.258,5.38v0.88H218v0.5h1v-1.62l-1.75-1.3v-3.34H217.5v-0.49h-3v0.49h0.254v1.49L211,1924.69l-8,5.94v1.62h1v-0.5h-0.5v-0.88l7.258-5.38v0.89l-6.5,5v8.13H203V1940h16v-0.49h-1.254Zm-2.5-13.52h1.508v2.97l-1.508-1.12v-1.85ZM216,1939.51h-2.758V1934H216v5.51Zm1.25-3.25h-0.5v0.49h0.5v2.76H216.5v-6.01h-3.742v6.01h-8.008v-2.76h0.5v-0.49h-0.5v-4.51h1.5v-0.5h-1.027l5.777-4.44,5.777,4.44H215.75v0.5h1.5v4.51ZM211,1930.49a1.245,1.245,0,1,0-1.246-1.24A1.24,1.24,0,0,0,211,1930.49Zm0-2a0.765,0.765,0,0,1,.713.51h-1.426A0.764,0.764,0,0,1,211,1928.49Zm0.713,1a0.753,0.753,0,0,1-1.426,0h1.426Z" transform="translate(-203 -1924)"/>
</svg>
