<svg xmlns="http://www.w3.org/2000/svg" width="10px" height="13px" viewBox="0 0 10 13">
  <path d="M9.473,13.001 L0.525,13.001 C0.234,13.001 -0.002,12.768 -0.002,12.481 L-0.002,1.743 C-0.002,1.456 0.234,1.223 0.525,1.223 L1.836,1.223 L1.836,0.517 C1.836,0.230 2.072,-0.003 2.364,-0.003 C2.655,-0.003 2.891,0.230 2.891,0.517 L2.891,1.223 L3.594,1.223 L3.594,0.517 C3.594,0.230 3.830,-0.003 4.121,-0.003 C4.412,-0.003 4.648,0.230 4.648,0.517 L4.648,1.223 L5.351,1.223 L5.351,0.517 C5.351,0.230 5.587,-0.003 5.878,-0.003 C6.170,-0.003 6.406,0.230 6.406,0.517 L6.406,1.223 L7.109,1.223 L7.109,0.517 C7.109,0.230 7.344,-0.003 7.635,-0.003 C7.927,-0.003 8.163,0.230 8.163,0.517 L8.163,1.223 L9.474,1.223 C9.765,1.223 10.001,1.456 10.001,1.743 L10.001,12.481 C10.001,12.768 9.765,13.001 9.473,13.001 ZM8.947,2.263 L8.163,2.263 L8.163,2.436 C8.163,2.723 7.927,2.956 7.636,2.956 C7.345,2.956 7.109,2.723 7.109,2.436 L7.109,2.263 L6.406,2.263 L6.406,2.436 C6.406,2.723 6.170,2.956 5.879,2.956 C5.587,2.956 5.351,2.723 5.351,2.436 L5.351,2.263 L4.648,2.263 L4.648,2.436 C4.648,2.723 4.413,2.956 4.121,2.956 C3.830,2.956 3.594,2.723 3.594,2.436 L3.594,2.263 L2.891,2.263 L2.891,2.436 C2.891,2.723 2.655,2.956 2.364,2.956 C2.073,2.956 1.837,2.723 1.837,2.436 L1.837,2.263 L1.053,2.263 L1.053,11.962 L8.947,11.962 L8.947,11.962 L8.947,2.263 ZM7.635,8.934 L2.364,8.934 C2.072,8.934 1.836,8.701 1.836,8.414 C1.836,8.127 2.072,7.894 2.364,7.894 L7.635,7.894 C7.927,7.894 8.163,8.127 8.163,8.414 C8.163,8.701 7.927,8.934 7.635,8.934 ZM7.635,7.201 L2.364,7.201 C2.072,7.201 1.836,6.968 1.836,6.681 C1.836,6.394 2.072,6.161 2.364,6.161 L7.635,6.161 C7.927,6.161 8.163,6.394 8.163,6.681 C8.163,6.968 7.927,7.201 7.635,7.201 ZM7.635,5.468 L2.364,5.468 C2.072,5.468 1.836,5.236 1.836,4.949 C1.836,4.662 2.072,4.429 2.364,4.429 L7.635,4.429 C7.927,4.429 8.163,4.662 8.163,4.949 C8.163,5.236 7.927,5.468 7.635,5.468 ZM2.364,9.627 L5.000,9.627 C5.291,9.627 5.527,9.860 5.527,10.147 C5.527,10.433 5.291,10.667 5.000,10.667 L2.364,10.667 C2.072,10.667 1.836,10.434 1.836,10.147 C1.836,9.860 2.072,9.627 2.364,9.627 Z"/>
</svg>
