<svg  xmlns="http://www.w3.org/2000/svg" width="28px" height="42px" viewBox="0 0 28 42" >
  <path d="M21.005,13.985 C21.005,17.840 17.858,20.983 13.999,20.983 C10.140,20.983 6.992,17.840 6.992,13.985 C6.992,10.131 10.140,6.987 13.999,6.987 C17.858,6.987 21.005,10.131 21.005,13.985 ZM28.011,13.985 C28.011,6.249 21.744,-0.010 13.999,-0.010 C6.253,-0.010 -0.014,6.249 -0.014,13.985 C-0.014,15.653 0.177,17.375 0.889,18.878 L10.879,40.036 C11.426,41.239 12.685,41.977 13.999,41.977 C15.312,41.977 16.571,41.239 17.146,40.036 L27.108,18.878 C27.820,17.375 28.011,15.653 28.011,13.985 Z"/>
</svg>
