<svg xmlns="http://www.w3.org/2000/svg" width="16" height="16" viewBox="0 0 16 16">
  <metadata><?xpacket begin="﻿" id="W5M0MpCehiHzreSzNTczkc9d"?>
<x:xmpmeta xmlns:x="adobe:ns:meta/" x:xmptk="Adobe XMP Core 5.6-c138 79.159824, 2016/09/14-01:09:01        ">
   <rdf:RDF xmlns:rdf="http://www.w3.org/1999/02/22-rdf-syntax-ns#">
      <rdf:Description rdf:about=""/>
   </rdf:RDF>
</x:xmpmeta>
                                                                                                    
                                                                                                    
                                                                                                    
                                                                                                    
                                                                                                    
                                                                                                    
                                                                                                    
                                                                                                    
                                                                                                    
                                                                                                    
                                                                                                    
                                                                                                    
                                                                                                    
                                                                                                    
                                                                                                    
                                                                                                    
                                                                                                    
                                                                                                    
                                                                                                    
                                                                                                    
                           
<?xpacket end="w"?></metadata>
<defs>
    <style>
      .cls-1 {
        fill: #1b1b1b;
        fill-rule: evenodd;
      }
    </style>
  </defs>
  <path id="Icon" class="cls-1" d="M149.777,1930.46a5.7,5.7,0,0,0,2.121.42,4.485,4.485,0,0,0,1.95-.42c1.784-.82,3-2.79,3.615-5.87a0.324,0.324,0,0,0-.064-0.26,0.33,0.33,0,0,0-.245-0.12c-3.635-.25-6.083.41-7.276,1.94a4.313,4.313,0,0,0-.577,3.82,10.317,10.317,0,0,0-1.233,2.44,3.659,3.659,0,0,0-1.117-1.56,2.956,2.956,0,0,0-.951-2.23c-0.9-.79-2.346-1.01-4.29-0.64a0.341,0.341,0,0,0-.227.15,0.324,0.324,0,0,0-.03.27c0.687,2.03,1.639,3.21,2.831,3.51a2.2,2.2,0,0,0,.611.08,3.108,3.108,0,0,0,1.715-.57,3.277,3.277,0,0,1,1.046,2.55,0.27,0.27,0,0,0,.008.07,8.042,8.042,0,0,0-.085,1.52,2.244,2.244,0,0,0-2.978.72,1.806,1.806,0,0,0-.329-0.03,1.956,1.956,0,1,0,0,3.91h9.813a1.956,1.956,0,1,0,0-3.91,2.063,2.063,0,0,0-1.138.34,2.878,2.878,0,0,0-2.753-1.97,2.933,2.933,0,0,0-1.943.73,7.8,7.8,0,0,1,.209-1.87A9.352,9.352,0,0,1,149.777,1930.46Zm0.642-3.92c1.007-1.29,3.126-1.86,6.3-1.71-0.589,2.65-1.651,4.35-3.159,5.04a4.511,4.511,0,0,1-3.4.04,12.8,12.8,0,0,1,2.111-2.2,0.317,0.317,0,0,0,.034-0.46,0.352,0.352,0,0,0-.477-0.04,14.066,14.066,0,0,0-2,2.04A3.483,3.483,0,0,1,150.419,1926.54Zm-6.178,3.85a4.782,4.782,0,0,1,1.72.56,0.351,0.351,0,0,0,.08.05,2.09,2.09,0,0,1-1.584.28c-0.877-.22-1.646-1.16-2.234-2.73a4.032,4.032,0,0,1,3.316.55,2.159,2.159,0,0,1,.688,1.26,5.428,5.428,0,0,0-1.924-.62A0.327,0.327,0,1,0,144.241,1930.39Zm4.09,5.87a2.223,2.223,0,0,1,1.863-.99,2.169,2.169,0,0,1,2.2,1.98,0.314,0.314,0,0,0,.241.29,0.34,0.34,0,0,0,.368-0.11,1.348,1.348,0,0,1,1.087-.53,1.3,1.3,0,1,1,0,2.6h-9.813a1.3,1.3,0,1,1,0-2.6,1.372,1.372,0,0,1,.4.06,0.342,0.342,0,0,0,.408-0.18,1.537,1.537,0,0,1,1.387-.86,1.555,1.555,0,0,1,1.2.56,0.314,0.314,0,0,0,.3.12,0.282,0.282,0,0,0,.153-0.05A0.332,0.332,0,0,0,148.331,1936.26Z" transform="translate(-141.469 -1924.16)"/>
</svg>
