<?xml version="1.0" ?><!DOCTYPE svg  PUBLIC '-//W3C//DTD SVG 1.1//EN'  'http://www.w3.org/Graphics/SVG/1.1/DTD/svg11.dtd'><svg enable-background="new 0 0 136 135.099" height="135.099px" version="1.1" viewBox="49 30 40 80" width="90px" xml:space="preserve" xmlns="http://www.w3.org/2000/svg" xmlns:xlink="http://www.w3.org/1999/xlink"><path d="M92.617,50.709c-0.263-0.988-0.798-2.04-1.193-2.961   c-4.738-11.384-15.088-15.464-23.445-15.464c-11.188,0-23.511,7.5-25.156,22.966v3.159c0,0.131,0.045,1.315,0.111,1.908   c0.922,7.37,6.736,15.202,11.079,22.571c4.672,7.896,9.521,15.662,14.325,23.428c2.961-5.066,5.912-10.199,8.807-15.137   c0.789-1.447,1.705-2.895,2.495-4.276c0.525-0.921,1.531-1.843,1.991-2.698c4.672-8.554,12.192-17.176,12.192-25.665v-3.488   C93.822,54.132,92.683,50.907,92.617,50.709z M68.183,66.568c-3.289,0-6.888-1.645-8.665-6.186   c-0.265-0.723-0.244-2.171-0.244-2.304v-2.041c0-5.789,4.917-8.422,9.193-8.422c5.265,0,9.336,4.211,9.336,9.476   C77.803,62.358,73.447,66.568,68.183,66.568z"/></svg>