<svg xmlns="http://www.w3.org/2000/svg" viewBox="0 0 20 24">
  <path d="M1.430,23.217 L18.575,23.217 C19.363,23.217 20.003,22.579 20.003,21.793 L20.003,1.862 C20.003,1.077 19.363,0.438 18.575,0.438 L1.430,0.438 C0.642,0.438 0.002,1.077 0.002,1.862 L0.002,21.793 C0.002,22.579 0.642,23.217 1.430,23.217 ZM1.430,1.862 L18.575,1.862 L18.575,21.793 L1.430,21.793 L1.430,1.862 ZM15.003,4.709 L9.288,4.709 C8.894,4.709 8.574,5.028 8.574,5.421 C8.574,5.814 8.894,6.133 9.288,6.133 L15.003,6.133 C15.396,6.133 15.717,5.814 15.717,5.421 C15.717,5.028 15.396,4.709 15.003,4.709 ZM15.003,8.980 L5.002,8.980 C4.608,8.980 4.288,9.299 4.288,9.692 C4.288,10.085 4.608,10.404 5.002,10.404 L15.003,10.404 C15.396,10.404 15.717,10.085 15.717,9.692 C15.717,9.299 15.396,8.980 15.003,8.980 ZM15.003,13.251 L5.002,13.251 C4.608,13.251 4.288,13.571 4.288,13.963 C4.288,14.355 4.608,14.675 5.002,14.675 L15.003,14.675 C15.396,14.675 15.717,14.355 15.717,13.963 C15.717,13.571 15.396,13.251 15.003,13.251 ZM15.003,17.522 L5.002,17.522 C4.608,17.522 4.288,17.842 4.288,18.234 C4.288,18.626 4.608,18.946 5.002,18.946 L15.003,18.946 C15.396,18.946 15.717,18.626 15.717,18.234 C15.717,17.842 15.396,17.522 15.003,17.522 Z"/>
</svg>
