<svg xmlns="http://www.w3.org/2000/svg" viewBox="0 0 22 24">
  <path d="M19.801,10.835 C18.851,12.484 17.515,13.833 16.222,15.137 C15.001,16.365 13.851,17.527 13.084,18.858 C12.509,19.855 12.211,20.864 12.170,21.944 C12.161,22.177 12.096,22.398 11.983,22.594 C11.858,22.813 11.673,22.995 11.447,23.121 C11.016,23.359 10.494,23.355 10.068,23.109 L1.488,18.139 C1.038,17.877 0.770,17.390 0.789,16.867 C0.847,15.319 1.269,13.886 2.075,12.482 C3.025,10.833 4.361,9.484 5.655,8.182 C6.874,6.953 8.026,5.790 8.792,4.458 C9.367,3.461 9.666,2.452 9.705,1.373 C9.715,1.141 9.779,0.920 9.892,0.724 C10.018,0.506 10.202,0.322 10.429,0.197 C10.859,-0.041 11.381,-0.037 11.807,0.209 L20.387,5.179 C20.835,5.439 21.106,5.928 21.087,6.450 C21.029,7.998 20.607,9.433 19.801,10.835 ZM11.106,1.427 C10.853,8.190 2.444,10.157 2.189,16.921 C5.031,18.566 7.928,20.244 10.769,21.891 C11.023,15.127 19.432,13.158 19.687,6.396 C16.845,4.750 13.948,3.072 11.106,1.427 ZM14.046,13.712 C13.974,13.737 13.907,13.732 13.845,13.702 C13.699,13.628 13.551,13.550 13.402,13.466 C13.223,13.779 13.019,14.011 12.792,14.170 C12.568,14.330 12.340,14.428 12.111,14.473 C11.882,14.519 11.663,14.519 11.460,14.481 C11.256,14.444 11.077,14.375 10.927,14.276 C10.779,14.177 10.687,14.064 10.653,13.938 C10.619,13.811 10.644,13.683 10.729,13.556 C10.813,13.435 10.899,13.363 10.991,13.340 C11.084,13.316 11.180,13.317 11.279,13.336 C11.379,13.356 11.482,13.385 11.589,13.424 C11.695,13.460 11.806,13.482 11.920,13.487 C12.034,13.490 12.152,13.461 12.275,13.398 C12.399,13.337 12.525,13.215 12.656,13.026 C12.141,12.707 11.618,12.355 11.095,11.999 C10.665,12.405 10.232,12.661 9.805,12.804 C9.377,12.945 8.972,12.933 8.582,12.754 C8.343,12.644 8.163,12.507 8.036,12.323 C7.910,12.141 7.827,11.931 7.790,11.686 C7.752,11.444 7.755,11.183 7.803,10.907 C7.850,10.633 7.931,10.362 8.048,10.106 C7.994,10.080 7.940,10.055 7.886,10.029 C7.825,10.000 7.781,9.952 7.755,9.881 C7.727,9.813 7.732,9.741 7.765,9.671 C7.800,9.599 7.852,9.551 7.926,9.531 C7.998,9.510 8.066,9.518 8.127,9.550 C8.182,9.579 8.237,9.609 8.292,9.639 C8.377,9.494 8.501,9.336 8.663,9.170 C8.825,9.004 9.007,8.868 9.208,8.762 C9.413,8.656 9.620,8.598 9.833,8.579 C10.050,8.560 10.248,8.613 10.435,8.739 C10.580,8.836 10.666,8.953 10.695,9.089 C10.722,9.223 10.697,9.348 10.622,9.459 C10.550,9.562 10.452,9.617 10.323,9.626 C10.197,9.634 10.058,9.639 9.905,9.641 C9.756,9.644 9.604,9.667 9.453,9.715 C9.301,9.762 9.162,9.880 9.038,10.072 C9.504,10.359 9.978,10.675 10.453,10.997 C10.653,10.823 10.856,10.665 11.060,10.515 C11.264,10.366 11.478,10.254 11.695,10.178 C11.915,10.100 12.144,10.066 12.383,10.069 C12.623,10.071 12.879,10.138 13.149,10.264 C13.385,10.373 13.564,10.504 13.692,10.678 C13.820,10.850 13.904,11.054 13.943,11.296 C13.982,11.535 13.977,11.807 13.927,12.100 C13.876,12.392 13.784,12.698 13.648,13.002 C13.795,13.076 13.940,13.145 14.085,13.209 C14.144,13.235 14.188,13.282 14.214,13.352 C14.240,13.420 14.237,13.493 14.203,13.568 C14.170,13.641 14.116,13.691 14.046,13.712 ZM8.781,10.502 C8.714,10.631 8.668,10.758 8.646,10.879 C8.622,11.001 8.620,11.115 8.638,11.219 C8.655,11.326 8.689,11.418 8.740,11.496 C8.789,11.575 8.852,11.637 8.931,11.679 C9.115,11.782 9.299,11.801 9.488,11.741 C9.677,11.681 9.883,11.544 10.105,11.331 C9.658,11.035 9.215,10.752 8.781,10.502 ZM12.976,11.541 C12.923,11.440 12.836,11.357 12.715,11.287 C12.594,11.218 12.473,11.187 12.356,11.189 C12.238,11.192 12.126,11.217 12.018,11.264 C11.913,11.313 11.812,11.373 11.714,11.448 C11.617,11.524 11.528,11.597 11.443,11.667 C11.937,11.998 12.428,12.318 12.911,12.601 C12.969,12.491 13.012,12.372 13.043,12.242 C13.074,12.112 13.085,11.988 13.074,11.870 C13.062,11.752 13.031,11.642 12.976,11.541 ZM12.625,3.774 L12.332,4.535 C12.149,5.009 11.920,5.485 11.651,5.953 C11.371,6.439 11.051,6.895 10.716,7.334 L10.712,7.334 C10.611,7.494 10.401,7.548 10.237,7.451 C10.068,7.354 10.010,7.136 10.107,6.966 C10.124,6.935 10.147,6.910 10.171,6.887 C10.487,6.475 10.786,6.052 11.045,5.602 C11.295,5.166 11.508,4.722 11.678,4.281 L11.963,3.542 C11.971,3.509 11.982,3.475 12.000,3.443 C12.098,3.273 12.313,3.215 12.482,3.313 C12.643,3.407 12.702,3.607 12.624,3.773 L12.625,3.774 ZM10.252,17.469 C10.532,16.982 10.853,16.528 11.188,16.088 L11.190,16.087 C11.295,15.944 11.492,15.897 11.648,15.988 C11.816,16.085 11.874,16.301 11.776,16.470 C11.769,16.483 11.759,16.494 11.749,16.507 L11.751,16.508 C11.410,16.949 11.137,17.338 10.859,17.821 C10.607,18.256 10.394,18.702 10.224,19.141 L9.950,19.851 C9.944,19.880 9.933,19.906 9.919,19.933 C9.821,20.100 9.606,20.158 9.438,20.062 C9.292,19.978 9.230,19.803 9.280,19.648 L9.278,19.647 L9.572,18.889 C9.755,18.415 9.983,17.937 10.252,17.469 Z"/>
</svg>
