<svg xmlns="http://www.w3.org/2000/svg" width="13px" height="18px" viewBox="0 0 13 18">
  <path  d="M12.145,18.000 L0.855,18.000 C0.383,18.000 0.000,17.602 0.000,17.113 L0.000,0.887 C0.000,0.398 0.383,-0.000 0.855,-0.000 L9.487,-0.000 C9.599,-0.000 9.700,0.047 9.773,0.123 C9.774,0.123 9.774,0.123 9.774,0.123 L12.881,3.350 C12.958,3.429 12.998,3.535 12.999,3.643 C12.999,3.645 13.000,3.646 13.000,3.648 L13.000,17.113 C13.000,17.602 12.617,18.000 12.145,18.000 ZM9.893,1.439 L9.893,3.182 C9.893,3.206 9.912,3.226 9.935,3.226 L11.614,3.226 L9.893,1.439 ZM12.188,4.069 L9.935,4.069 C9.464,4.069 9.081,3.671 9.081,3.182 L9.081,0.843 L0.855,0.843 C0.831,0.843 0.812,0.863 0.812,0.887 L0.812,17.113 C0.812,17.137 0.831,17.157 0.855,17.157 L12.145,17.157 C12.169,17.157 12.188,17.137 12.188,17.113 L12.188,17.113 L12.188,4.069 ZM10.092,11.695 L2.908,11.695 C2.684,11.695 2.502,11.507 2.502,11.274 C2.502,11.041 2.684,10.852 2.908,10.852 L10.092,10.852 C10.316,10.852 10.498,11.041 10.498,11.274 C10.498,11.507 10.316,11.695 10.092,11.695 ZM10.092,9.152 L2.908,9.152 C2.684,9.152 2.502,8.963 2.502,8.731 C2.502,8.498 2.684,8.309 2.908,8.309 L10.092,8.309 C10.316,8.309 10.498,8.498 10.498,8.731 C10.498,8.963 10.316,9.152 10.092,9.152 ZM10.092,6.609 L2.908,6.609 C2.684,6.609 2.502,6.420 2.502,6.188 C2.502,5.955 2.684,5.766 2.908,5.766 L10.092,5.766 C10.316,5.766 10.498,5.955 10.498,6.188 C10.498,6.420 10.316,6.609 10.092,6.609 ZM2.908,13.396 L6.500,13.396 C6.724,13.396 6.906,13.584 6.906,13.817 C6.906,14.050 6.724,14.239 6.500,14.239 L2.908,14.239 C2.684,14.239 2.502,14.050 2.502,13.817 C2.502,13.584 2.684,13.396 2.908,13.396 Z"/>
</svg>
