<svg xmlns="http://www.w3.org/2000/svg" width="17.531" height="22.625" viewBox="0 0 17.531 22.625">
  <metadata><?xpacket begin="﻿" id="W5M0MpCehiHzreSzNTczkc9d"?>
<x:xmpmeta xmlns:x="adobe:ns:meta/" x:xmptk="Adobe XMP Core 5.6-c138 79.159824, 2016/09/14-01:09:01        ">
   <rdf:RDF xmlns:rdf="http://www.w3.org/1999/02/22-rdf-syntax-ns#">
      <rdf:Description rdf:about=""/>
   </rdf:RDF>
</x:xmpmeta>
                                                                                                    
                                                                                                    
                                                                                                    
                                                                                                    
                                                                                                    
                                                                                                    
                                                                                                    
                                                                                                    
                                                                                                    
                                                                                                    
                                                                                                    
                                                                                                    
                                                                                                    
                                                                                                    
                                                                                                    
                                                                                                    
                                                                                                    
                                                                                                    
                                                                                                    
                                                                                                    
                           
<?xpacket end="w"?></metadata>
<defs>
    <style>
      .cls-1 {
        fill-rule: evenodd;
      }
    </style>
  </defs>
  <path id="Icon" class="cls-1" d="M202.649,901.331c-5.556,0-8.049-2.839-8.085-2.882a0.383,0.383,0,0,0-.292-0.135,0.437,0.437,0,0,0-.293.134c-0.025.03-2.516,2.883-8.086,2.883a0.379,0.379,0,0,0-.381.377v7.2a12.708,12.708,0,0,0,4.778,10,11.658,11.658,0,0,0,3.873,2.019,0.4,0.4,0,0,0,.108.016,0.392,0.392,0,0,0,.108-0.016,11.658,11.658,0,0,0,3.873-2.019,12.708,12.708,0,0,0,4.778-10v-7.2A0.379,0.379,0,0,0,202.649,901.331Zm-0.381,7.575a11.953,11.953,0,0,1-4.486,9.409,10.912,10.912,0,0,1-3.511,1.856,10.36,10.36,0,0,1-2.006-.861,0.372,0.372,0,0,0,.1-0.253,0.379,0.379,0,0,0-.736-0.125q-0.442-.285-0.87-0.617c-0.016-.012-0.031-0.026-0.047-0.039a0.375,0.375,0,1,0-.251-0.351,0.371,0.371,0,0,0,.063.2,11.332,11.332,0,0,1-1.956-2.084,0.376,0.376,0,1,0-.359-0.526c-0.167-.258-0.325-0.522-0.471-0.793a0.361,0.361,0,0,0,.057-0.187,0.373,0.373,0,0,0-.341-0.369,12.225,12.225,0,0,1-.92-2.753,0.373,0.373,0,0,0-.113-0.619,12.515,12.515,0,0,1-.139-1.541,0.376,0.376,0,0,0-.01-0.752v-1.509a0.377,0.377,0,1,0,0-.754v-1.509a0.377,0.377,0,1,0,0-.754v-1.509a0.379,0.379,0,0,0,.381-0.377,0.174,0.174,0,0,0,0-.022,15.516,15.516,0,0,0,1.574-.148,0.366,0.366,0,0,0-.046.17,0.381,0.381,0,0,0,.762,0,0.375,0.375,0,0,0-.116-0.27,12.584,12.584,0,0,0,2.782-.859,0.381,0.381,0,0,0,.761,0,0.372,0.372,0,0,0-.148-0.292c0.308-.16.583-0.322,0.827-0.479a0.393,0.393,0,0,0,.083.016,0.376,0.376,0,0,0,.371-0.328,7.916,7.916,0,0,0,.771-0.636c0.813,0.773,3.335,2.743,8,2.846v6.825Zm-8-8.33a0.378,0.378,0,1,1-.381.378A0.379,0.379,0,0,1,194.271,900.576Zm-6.854,2.263a0.378,0.378,0,1,1-.381.377A0.379,0.379,0,0,1,187.417,902.839Zm2.284,0a0.378,0.378,0,1,1-.38.377A0.379,0.379,0,0,1,189.7,902.839Zm1.143-1.131a0.377,0.377,0,1,1-.381.377A0.379,0.379,0,0,1,190.844,901.708Zm1.142,1.131a0.378,0.378,0,1,1-.381.377A0.379,0.379,0,0,1,191.986,902.839Zm1.143-1.131a0.377,0.377,0,1,1-.381.377A0.379,0.379,0,0,1,193.129,901.708Zm1.142,1.131a0.378,0.378,0,1,1-.381.377A0.379,0.379,0,0,1,194.271,902.839Zm-6.854,2.263a0.378,0.378,0,1,1-.381.377A0.379,0.379,0,0,1,187.417,905.1Zm1.142-1.131a0.377,0.377,0,1,1-.381.377A0.379,0.379,0,0,1,188.559,903.971ZM189.7,905.1a0.378,0.378,0,1,1-.38.377A0.379,0.379,0,0,1,189.7,905.1Zm1.143-1.131a0.377,0.377,0,1,1-.381.377A0.379,0.379,0,0,1,190.844,903.971Zm1.142,1.131a0.378,0.378,0,1,1-.381.377A0.379,0.379,0,0,1,191.986,905.1Zm1.143-1.131a0.377,0.377,0,1,1-.381.377A0.379,0.379,0,0,1,193.129,903.971Zm1.142,1.131a0.378,0.378,0,1,1-.381.377A0.379,0.379,0,0,1,194.271,905.1Zm-6.854,2.263a0.377,0.377,0,1,1-.381.377A0.379,0.379,0,0,1,187.417,907.365Zm1.142-1.131a0.377,0.377,0,1,1-.381.377A0.379,0.379,0,0,1,188.559,906.234Zm1.142,1.131a0.377,0.377,0,1,1-.38.377A0.379,0.379,0,0,1,189.7,907.365Zm1.143-1.131a0.377,0.377,0,1,1-.381.377A0.379,0.379,0,0,1,190.844,906.234Zm1.142,1.131a0.377,0.377,0,1,1-.381.377A0.379,0.379,0,0,1,191.986,907.365Zm1.143-1.131a0.377,0.377,0,1,1-.381.377A0.379,0.379,0,0,1,193.129,906.234Zm1.142,1.131a0.377,0.377,0,1,1-.381.377A0.379,0.379,0,0,1,194.271,907.365Zm-6.854,2.263a0.377,0.377,0,1,1-.381.377A0.379,0.379,0,0,1,187.417,909.628Zm1.142-1.131a0.377,0.377,0,1,1-.381.377A0.379,0.379,0,0,1,188.559,908.5Zm1.142,1.131a0.377,0.377,0,1,1-.38.377A0.379,0.379,0,0,1,189.7,909.628Zm1.143-1.131a0.377,0.377,0,1,1-.381.377A0.379,0.379,0,0,1,190.844,908.5Zm1.142,1.131a0.377,0.377,0,1,1-.381.377A0.379,0.379,0,0,1,191.986,909.628Zm1.143-1.131a0.377,0.377,0,1,1-.381.377A0.379,0.379,0,0,1,193.129,908.5Zm1.142,1.131a0.377,0.377,0,1,1-.381.377A0.379,0.379,0,0,1,194.271,909.628Zm-6.854,2.263a0.377,0.377,0,1,1-.381.377A0.378,0.378,0,0,1,187.417,911.891Zm1.142-1.131a0.377,0.377,0,1,1-.381.377A0.379,0.379,0,0,1,188.559,910.76Zm1.142,1.131a0.377,0.377,0,1,1-.38.377A0.378,0.378,0,0,1,189.7,911.891Zm1.143-1.131a0.377,0.377,0,1,1-.381.377A0.379,0.379,0,0,1,190.844,910.76Zm1.142,1.131a0.377,0.377,0,1,1-.381.377A0.378,0.378,0,0,1,191.986,911.891Zm1.143-1.131a0.377,0.377,0,1,1-.381.377A0.379,0.379,0,0,1,193.129,910.76Zm1.142,1.131a0.377,0.377,0,1,1-.381.377A0.378,0.378,0,0,1,194.271,911.891Zm-5.712,1.131a0.378,0.378,0,1,1-.381.377A0.379,0.379,0,0,1,188.559,913.022Zm1.142,1.132a0.377,0.377,0,1,1-.38.377A0.379,0.379,0,0,1,189.7,914.154Zm1.143-1.132a0.378,0.378,0,1,1-.381.377A0.379,0.379,0,0,1,190.844,913.022Zm1.142,1.132a0.377,0.377,0,1,1-.381.377A0.379,0.379,0,0,1,191.986,914.154Zm1.143-1.132a0.378,0.378,0,1,1-.381.377A0.379,0.379,0,0,1,193.129,913.022Zm1.142,1.132a0.377,0.377,0,1,1-.381.377A0.379,0.379,0,0,1,194.271,914.154Zm-4.57,2.263a0.377,0.377,0,1,1-.38.377A0.378,0.378,0,0,1,189.7,916.417Zm1.143-1.132a0.377,0.377,0,1,1-.381.377A0.379,0.379,0,0,1,190.844,915.285Zm1.142,1.132a0.377,0.377,0,1,1-.381.377A0.378,0.378,0,0,1,191.986,916.417Zm1.143-1.132a0.377,0.377,0,1,1-.381.377A0.379,0.379,0,0,1,193.129,915.285Zm1.142,1.132a0.377,0.377,0,1,1-.381.377A0.378,0.378,0,0,1,194.271,916.417Zm-1.142,1.131a0.377,0.377,0,1,1-.381.377A0.379,0.379,0,0,1,193.129,917.548Zm1.142,1.132a0.377,0.377,0,1,1-.381.377A0.378,0.378,0,0,1,194.271,918.68Z" transform="translate(-185.5 -898.313)"/>
</svg>
