<svg xmlns="http://www.w3.org/2000/svg" width="16" height="16" viewBox="0 0 16 16">
  <metadata><?xpacket begin="﻿" id="W5M0MpCehiHzreSzNTczkc9d"?>
<x:xmpmeta xmlns:x="adobe:ns:meta/" x:xmptk="Adobe XMP Core 5.6-c138 79.159824, 2016/09/14-01:09:01        ">
   <rdf:RDF xmlns:rdf="http://www.w3.org/1999/02/22-rdf-syntax-ns#">
      <rdf:Description rdf:about=""/>
   </rdf:RDF>
</x:xmpmeta>
                                                                                                    
                                                                                                    
                                                                                                    
                                                                                                    
                                                                                                    
                                                                                                    
                                                                                                    
                                                                                                    
                                                                                                    
                                                                                                    
                                                                                                    
                                                                                                    
                                                                                                    
                                                                                                    
                                                                                                    
                                                                                                    
                                                                                                    
                                                                                                    
                                                                                                    
                                                                                                    
                           
<?xpacket end="w"?></metadata>
<defs>
    <style>
      .cls-1 {
        fill: #1b1b1b;
        fill-rule: evenodd;
      }
    </style>
  </defs>
  <path id="Icon" class="cls-1" d="M280.681,1924H265.319a0.354,0.354,0,0,0-.319.38v15.24a0.354,0.354,0,0,0,.319.38h15.362a0.354,0.354,0,0,0,.319-0.38v-15.24A0.354,0.354,0,0,0,280.681,1924Zm-5.814,4.05v-3.28h2.4v3.28c0,0.09,0,.18.012,0.26a1.211,1.211,0,1,1-2.422,0C274.863,1928.23,274.867,1928.14,274.867,1928.05Zm-3.066,0v-3.28h2.4v3.28c0,0.09,0,.18.012,0.26a1.211,1.211,0,1,1-2.422,0C271.8,1928.23,271.8,1928.14,271.8,1928.05Zm-3.066,0v-3.28h2.4v3.28c0,0.09,0,.18.013,0.26a1.211,1.211,0,1,1-2.422,0C268.73,1928.23,268.735,1928.14,268.735,1928.05Zm-3.1-.65v-2.63h2.429v3.28c0,0.09.005,0.18,0.013,0.26a1.323,1.323,0,0,1-1.212,1.22,1.372,1.372,0,0,1-1.23-1.48v-0.65Zm4.781,11.83h-4.781v-2.64h4.781v2.64Zm0-3.41h-4.781v-3.68h4.781v3.68Zm4.526,3.41h-3.888v-7.09h3.888v7.09Zm5.419,0h-4.781v-2.64h4.781v2.64h0Zm0-3.41h-4.781v-3.68h4.781v3.68h0Zm0-4.45H265.637v-1.63a1.686,1.686,0,0,0,1.23.56,1.792,1.792,0,0,0,1.534-.97,1.7,1.7,0,0,0,3.066,0,1.7,1.7,0,0,0,3.066,0,1.7,1.7,0,0,0,3.066,0,1.792,1.792,0,0,0,1.533.97,1.682,1.682,0,0,0,1.23-.56v1.63h0Zm0-3.97v0.65a1.372,1.372,0,0,1-1.231,1.48,1.322,1.322,0,0,1-1.211-1.22c0.008-.08.013-0.17,0.013-0.26v-3.28h2.429v2.63Zm-8.67,7.94a0.354,0.354,0,0,0-.319.38v0.34a0.325,0.325,0,1,0,.638,0v-0.34A0.354,0.354,0,0,0,271.693,1935.34Zm5.833-.58H277.4a0.353,0.353,0,0,0-.318.38,0.356,0.356,0,0,0,.318.39h0.128A0.392,0.392,0,0,0,277.526,1934.76Zm2.2,0h-1.211a0.392,0.392,0,0,0,0,.77h1.211A0.392,0.392,0,0,0,279.725,1934.76Z" transform="translate(-265 -1924)"/>
</svg>
