<svg xmlns="http://www.w3.org/2000/svg" width="12px" height="15px" viewBox="0 0 12 15">
  <path  d="M11.110,4.462 L11.110,13.986 C11.110,14.561 10.657,15.000 10.075,15.000 L1.924,15.000 C1.343,15.000 0.898,14.561 0.898,13.986 L0.898,4.462 L-0.000,4.462 L-0.000,3.532 L-0.000,2.789 C-0.000,2.214 0.453,1.766 1.035,1.766 L3.071,1.766 L3.071,0.465 C3.071,0.203 3.276,-0.000 3.541,-0.000 L3.575,-0.000 L3.609,-0.000 L8.373,-0.000 C8.382,-0.000 8.399,0.008 8.408,0.017 C8.416,0.008 8.433,-0.000 8.459,-0.000 C8.724,-0.000 8.938,0.203 8.938,0.465 L8.938,1.766 L10.965,1.766 C11.547,1.766 12.000,2.214 12.000,2.789 L12.000,3.532 L12.000,4.462 L11.110,4.462 ZM1.839,13.986 C1.839,14.045 1.865,14.070 1.924,14.070 L10.075,14.070 C10.135,14.070 10.161,14.045 10.161,13.986 L10.161,4.462 L1.839,4.462 L1.839,13.986 ZM7.989,0.929 L4.011,0.929 L4.011,1.766 L7.989,1.766 L7.989,0.929 ZM11.051,2.789 C11.051,2.730 11.025,2.696 10.965,2.696 L1.035,2.696 C0.975,2.696 0.949,2.730 0.949,2.789 L0.949,3.532 L11.051,3.532 L11.051,2.789 ZM7.723,5.552 L8.673,5.552 L8.673,13.242 L7.723,13.242 L7.723,5.552 ZM5.534,5.552 L6.483,5.552 L6.483,13.242 L5.534,13.242 L5.534,5.552 ZM3.344,5.552 L4.294,5.552 L4.294,13.242 L3.344,13.242 L3.344,5.552 Z"/>
</svg>
