<svg
  xmlns="http://www.w3.org/2000/svg" viewBox="0 0 63 64">
  <path fill-rule="evenodd"  fill-opacity="0.149" fill="rgb(255, 255, 255)"
        d="M42.405,39.491 C44.133,38.147 46.197,36.203 48.597,33.659 C50.997,31.115 53.349,28.283 55.653,25.163 C57.957,22.043 59.781,18.419 61.125,14.291 C62.469,10.163 62.901,6.131 62.421,2.194 C62.325,1.715 62.181,1.379 61.989,1.187 C61.701,0.899 61.365,0.755 60.981,0.755 C57.141,0.179 53.181,0.635 49.101,2.123 C45.021,3.611 41.541,5.411 38.661,7.522 C35.781,9.635 32.949,12.131 30.165,15.010 C27.381,17.891 25.533,19.931 24.621,21.131 C23.709,22.331 23.013,23.266 22.533,23.939 L17.421,23.507 L13.677,23.507 C12.573,23.507 11.589,23.819 10.725,24.442 C9.861,25.067 9.165,25.547 8.637,25.883 C8.109,26.218 7.509,27.083 6.837,28.474 L5.253,31.714 C4.869,32.483 4.221,34.043 3.309,36.394 L1.077,42.082 C0.501,43.619 0.573,44.723 1.293,45.394 C2.013,46.067 3.045,46.115 4.389,45.538 L12.021,42.659 L21.381,52.162 L18.501,60.083 C18.021,61.426 18.093,62.482 18.717,63.250 C19.341,64.018 20.421,64.115 21.957,63.539 L33.117,58.642 C33.741,58.354 34.821,57.731 36.357,56.771 C37.893,55.811 38.733,55.042 38.877,54.466 C39.021,53.891 39.333,52.931 39.813,51.586 C40.293,50.244 40.485,48.827 40.389,47.338 C40.293,45.851 40.101,43.907 39.813,41.506 L42.405,39.491 ZM41.829,16.162 C41.829,14.627 42.357,13.307 43.413,12.202 C44.469,11.099 45.765,10.546 47.301,10.546 C48.837,10.546 50.133,11.099 51.189,12.202 C52.245,13.307 52.773,14.627 52.773,16.162 C52.773,17.699 52.245,19.019 51.189,20.122 C50.133,21.227 48.837,21.778 47.301,21.778 C45.765,21.778 44.469,21.251 43.413,20.195 C42.357,19.043 41.829,17.699 41.829,16.162 Z"/>
</svg>
