<svg xmlns="http://www.w3.org/2000/svg" viewBox="0 0 69 60" width="69px" height="60px">
  <path fill-rule="evenodd"  fill-opacity="0.2" fill="rgb(255, 255, 255)"
        d="M18.662,9.131 C12.949,14.699 9.997,21.467 9.806,29.434 L0.878,29.434 L14.126,44.267 L27.374,29.434 L17.150,29.434 C17.341,23.483 19.573,18.443 23.846,14.315 C28.118,10.187 33.253,8.123 39.254,8.123 C45.254,8.123 50.414,10.283 54.734,14.603 C59.054,18.923 61.214,24.132 61.214,30.227 C61.214,36.323 59.054,41.531 54.734,45.850 C50.414,50.171 45.230,52.331 39.182,52.331 C34.382,52.331 30.013,50.890 26.078,48.011 L21.038,53.482 C26.510,57.706 32.558,59.819 39.182,59.819 C47.342,59.819 54.277,56.938 59.990,51.179 C65.702,45.418 68.558,38.459 68.558,30.298 C68.558,22.139 65.702,15.178 59.990,9.419 C54.277,3.659 47.342,0.778 39.182,0.778 C31.214,0.778 24.374,3.563 18.662,9.131 ZM36.590,31.306 L47.390,42.107 L50.990,38.506 L41.630,29.147 L41.630,14.459 L36.590,14.459 L36.590,31.306 Z"/>
</svg>
