<svg xmlns="http://www.w3.org/2000/svg" width="17" height="16" viewBox="0 0 17 16">
  <path d="M15.675,80H31.325a0.71,0.71,0,0,0,.535-0.233A0.573,0.573,0,0,0,32,79.309a8.584,8.584,0,0,0-4.532-6.493,5.619,5.619,0,0,1-7.94,0A8.583,8.583,0,0,0,15,79.309a0.575,0.575,0,0,0,.142.459A0.709,0.709,0,0,0,15.675,80Zm4.3-7.8c0.091,0.1.187,0.186,0.285,0.275a4.853,4.853,0,0,0,6.482,0c0.1-.088.194-0.179,0.285-0.275s0.179-.193.263-0.3a4.872,4.872,0,1,0-7.579,0C19.794,72.006,19.882,72.1,19.974,72.2Z" transform="translate(-15 -64)"/>
</svg>
