<svg xmlns="http://www.w3.org/2000/svg" width="15" height="14" viewBox="0 0 15 14">
  <path d="M27.539,166.537a3.893,3.893,0,0,1,.039-0.516,3.134,3.134,0,0,1-1.039.18,2.741,2.741,0,0,1-.93-0.168,5.074,5.074,0,0,1-.762-0.332,1.508,1.508,0,0,0-.34-0.164q-0.969,0-.969,2.758a1.071,1.071,0,0,0,.438.926,1.79,1.79,0,0,0,1.078.316H26.1a2.692,2.692,0,0,1,2.07-1,3.439,3.439,0,0,1-.633-2h0Zm8.973,6.168a7.941,7.941,0,0,0-.109-0.851,6.589,6.589,0,0,0-.207-0.848,4.025,4.025,0,0,0-.336-0.762,2.77,2.77,0,0,0-.484-0.633,2.061,2.061,0,0,0-.668-0.418,2.349,2.349,0,0,0-.871-0.156,0.92,0.92,0,0,0-.336.168q-0.258.168-.57,0.375a3.627,3.627,0,0,1-3.781,0q-0.312-.207-0.57-0.375a0.921,0.921,0,0,0-.336-0.168,2.349,2.349,0,0,0-.871.156,2.059,2.059,0,0,0-.668.418,2.77,2.77,0,0,0-.484.633,4.018,4.018,0,0,0-.336.762,6.589,6.589,0,0,0-.207.848,7.916,7.916,0,0,0-.109.851q-0.027.394-.027,0.809a1.946,1.946,0,0,0,.57,1.48,2.107,2.107,0,0,0,1.516.543h6.828a2.107,2.107,0,0,0,1.516-.543,1.946,1.946,0,0,0,.57-1.48Q36.539,173.1,36.511,172.705Zm-9.973-11.168a2,2,0,1,0,1.414.586A1.925,1.925,0,0,0,26.539,161.537Zm4.5,2a3,3,0,1,0,2.121.879A2.89,2.89,0,0,0,31.039,163.537Zm6.531,2a1.509,1.509,0,0,0-.34.164,5.076,5.076,0,0,1-.762.332,2.742,2.742,0,0,1-.93.168,3.133,3.133,0,0,1-1.039-.18,3.912,3.912,0,0,1,.039.516,3.439,3.439,0,0,1-.633,2,2.692,2.692,0,0,1,2.07,1h1.047a1.791,1.791,0,0,0,1.078-.316,1.071,1.071,0,0,0,.438-0.926q0-2.758-.969-2.758h0Zm-2.031-4a2,2,0,1,0,1.414.586A1.925,1.925,0,0,0,35.539,161.537Z"
        transform="translate(-23.531 -161.531)"/>
</svg>
