<svg xmlns="http://www.w3.org/2000/svg" width="13px" height="10px" viewBox="0 0 13 10">
  <path d="M12.086,3.149 C12.076,3.149 12.067,3.146 12.059,3.145 L10.822,8.716 L2.489,8.716 L1.253,3.145 C1.244,3.146 1.236,3.149 1.226,3.149 C0.722,3.149 0.311,2.716 0.311,2.181 C0.311,1.647 0.722,1.214 1.226,1.214 C1.731,1.214 2.142,1.647 2.142,2.181 C2.142,2.527 1.968,2.830 1.709,3.001 C2.259,3.804 3.038,4.736 3.838,5.006 C4.894,5.361 5.877,3.177 6.360,1.878 C6.001,1.747 5.740,1.389 5.740,0.965 C5.740,0.432 6.151,-0.002 6.655,-0.002 C7.160,-0.002 7.570,0.432 7.570,0.965 C7.570,1.389 7.309,1.747 6.950,1.878 C7.434,3.177 8.418,5.361 9.472,5.006 C10.274,4.736 11.051,3.804 11.602,3.001 C11.342,2.830 11.169,2.527 11.169,2.181 C11.169,1.647 11.579,1.214 12.086,1.214 C12.589,1.214 13.000,1.647 13.000,2.181 C13.000,2.716 12.590,3.149 12.086,3.149 ZM10.780,9.998 L2.531,9.998 L2.531,8.912 L10.780,8.912 L10.780,9.998 Z"/>
</svg>
