<svg xmlns="http://www.w3.org/2000/svg" width="18.718" height="18.85" viewBox="0 0 18.718 18.85">
  <metadata><?xpacket begin="﻿" id="W5M0MpCehiHzreSzNTczkc9d"?>
<x:xmpmeta xmlns:x="adobe:ns:meta/" x:xmptk="Adobe XMP Core 5.6-c138 79.159824, 2016/09/14-01:09:01        ">
   <rdf:RDF xmlns:rdf="http://www.w3.org/1999/02/22-rdf-syntax-ns#">
      <rdf:Description rdf:about=""/>
   </rdf:RDF>
</x:xmpmeta>
                                                                                                    
                                                                                                    
                                                                                                    
                                                                                                    
                                                                                                    
                                                                                                    
                                                                                                    
                                                                                                    
                                                                                                    
                                                                                                    
                                                                                                    
                                                                                                    
                                                                                                    
                                                                                                    
                                                                                                    
                                                                                                    
                                                                                                    
                                                                                                    
                                                                                                    
                                                                                                    
                           
<?xpacket end="w"?></metadata>
<defs>
    <style>
      .cls-1 {
        fill-rule: evenodd;
      }
    </style>
  </defs>
  <path id="Icon" class="cls-1" d="M141.955,1437.34a3.35,3.35,0,1,0,3.321,3.35A3.338,3.338,0,0,0,141.955,1437.34Zm-2.717,3.35a2.731,2.731,0,0,1,2.609-2.73,3.359,3.359,0,0,0,0,5.46A2.731,2.731,0,0,1,139.238,1440.69Zm3.621,2.58a2.744,2.744,0,0,1,0-5.16A2.742,2.742,0,0,1,142.859,1443.27Zm-5.433-13.23a1.525,1.525,0,1,0,1.51,1.53A1.524,1.524,0,0,0,137.426,1430.04Zm0,2.44a0.915,0.915,0,1,1,.906-0.91A0.911,0.911,0,0,1,137.426,1432.48Zm4.831-2.44a1.525,1.525,0,1,0,1.509,1.53A1.524,1.524,0,0,0,142.257,1430.04Zm0,2.44a0.915,0.915,0,1,1,.905-0.91A0.91,0.91,0,0,1,142.257,1432.48Zm3.622-1.83h2.114v0.61h-2.114v-0.61Zm0,1.22h2.114v0.61h-2.114v-0.61Zm-1.207-1.22h0.6v0.61h-0.6v-0.61Zm0,1.22h0.6v0.61h-0.6v-0.61Zm-5.132-1.22h0.6v0.61h-0.6v-0.61Zm0,1.22h0.6v0.61h-0.6v-0.61Zm-4.529,13.99h0.6v0.61h-0.6v-0.61Zm1.208,0h0.6v0.61h-0.6v-0.61Zm16.3-6.08h-2.415v-10.04a0.91,0.91,0,0,0-.906-0.91H134.709a0.911,0.911,0,0,0-.906.91v17.03a0.913,0.913,0,0,0,.906.92H149.2a0.912,0.912,0,0,0,.906-0.92v-0.91h2.415v-6.08h0Zm-18.114-10.04a0.3,0.3,0,0,1,.3-0.3H149.2a0.3,0.3,0,0,1,.3.3v3.95H134.407v-3.95Zm11.538,8.21H149.5v4.92a1,1,0,0,0-.3-0.05h-2.909A4.867,4.867,0,0,0,145.945,1437.95Zm0.236,2.74a4.227,4.227,0,1,1-4.226-4.26A4.247,4.247,0,0,1,146.181,1440.69Zm2.415,2.74h0.6a0.3,0.3,0,0,1,.3.3,0.307,0.307,0,0,1-.3.31h-0.3a1,1,0,0,0-.3.05v-0.66Zm0.906,3.34h0a0.307,0.307,0,0,1-.3.31H134.709a0.307,0.307,0,0,1-.3-0.31V1434.3h15.1v3.04h-4.049a4.809,4.809,0,0,0-3.5-1.52,4.87,4.87,0,1,0,3.99,7.61h2.048v1.52a0.91,0.91,0,0,0,.905.91h0.6v0.91Zm2.415-1.52H148.9a0.3,0.3,0,0,1-.3-0.3,0.307,0.307,0,0,1,.3-0.31h0.3a0.91,0.91,0,0,0,.906-0.91v-3.34h1.811v4.86Z" transform="translate(-133.813 -1428.84)"/>
</svg>
