<svg xmlns="http://www.w3.org/2000/svg" width="19" height="22.625" viewBox="0 0 19 22.625">
  <metadata><?xpacket begin="﻿" id="W5M0MpCehiHzreSzNTczkc9d"?>
<x:xmpmeta xmlns:x="adobe:ns:meta/" x:xmptk="Adobe XMP Core 5.6-c138 79.159824, 2016/09/14-01:09:01        ">
   <rdf:RDF xmlns:rdf="http://www.w3.org/1999/02/22-rdf-syntax-ns#">
      <rdf:Description rdf:about=""/>
   </rdf:RDF>
</x:xmpmeta>
                                                                                                    
                                                                                                    
                                                                                                    
                                                                                                    
                                                                                                    
                                                                                                    
                                                                                                    
                                                                                                    
                                                                                                    
                                                                                                    
                                                                                                    
                                                                                                    
                                                                                                    
                                                                                                    
                                                                                                    
                                                                                                    
                                                                                                    
                                                                                                    
                                                                                                    
                                                                                                    
                           
<?xpacket end="w"?></metadata>
<defs>
    <style>
      .cls-1 {
        fill-rule: evenodd;
      }
    </style>
  </defs>
  <path id="Icon" class="cls-1" d="M194.372,916.456a15.415,15.415,0,0,0-1.349-1.921l-0.269-.32-0.27.32a15.348,15.348,0,0,0-1.348,1.921c-0.871,1.482-1.126,2.632-.759,3.416,0.333,0.71,1.132,1.071,2.377,1.071s2.044-.361,2.376-1.071C195.5,919.088,195.242,917.938,194.372,916.456Zm0.12,3.12a2.6,2.6,0,0,1-3.476,0c-0.256-.546,0-1.526.723-2.758a14.652,14.652,0,0,1,1.016-1.5C193.562,916.371,194.975,918.544,194.492,919.576Zm-1.815-1.7-0.315-.627a1.53,1.53,0,0,0-.664,1.48h0.7a0.965,0.965,0,0,1,.288-0.86Zm12.149-13.261v-0.7h-2.11v-1.866h-1.172v-1.631h2.344v-2.1H196.62v2.1h2.345v1.631h-1.173v1.866h-2.109v0.7h-4.922v6.532h-1.407v2.567h6.33v-2.567h-1.172v-1.632h1.171v0.7h9.143v-0.7h3.515v-4.9h-3.515Zm-9.846,7.233v1.165h-4.921v-1.165h4.921Zm0.7-3.034h-1.875v2.333h-2.343v-5.831h4.218v3.5Zm4.923-9.8h2.577v0.7h-2.577v-0.7Zm0.234,1.4v1.631h-1.171v-1.631h1.171Zm-3.515-.7v-0.7H199.9v0.7h-2.577Zm1.172,3.033h3.514v1.165H198.5v-1.165h0Zm3.983,6.764h-4.452v-2.565h4.452v2.565Zm1.641-.35v0.35h-0.936v-3.266h-5.861v3.266h-0.937v-4.9h7.734v4.548h0Zm3.516-.35h-2.811v-3.5h2.811v3.5Zm-9.024-.933h1.641v0.7h-1.641v-0.7Zm2.345,0H201.9v0.7h-0.937v-0.7Z" transform="translate(-189.344 -898.313)"/>
</svg>
