<svg xmlns="http://www.w3.org/2000/svg" width="23.719" height="18.88" viewBox="0 0 23.719 18.88">
  <path d="M48.565,1434.24a15.449,15.449,0,0,0-23.485,0,0.519,0.519,0,0,0,0,.68,0.4,0.4,0,0,0,.611,0,14.641,14.641,0,0,1,22.262,0,0.4,0.4,0,0,0,.611,0A0.52,0.52,0,0,0,48.565,1434.24Zm-20.944,2.83a0.519,0.519,0,0,0,0,.68,0.387,0.387,0,0,0,.611,0,11.3,11.3,0,0,1,17.179,0,0.4,0.4,0,0,0,.611,0,0.519,0.519,0,0,0,0-.68A12.108,12.108,0,0,0,27.621,1437.07Zm9.2-.23a8.894,8.894,0,0,0-6.66,3.07,0.519,0.519,0,0,0,0,.68,0.4,0.4,0,0,0,.611,0,7.951,7.951,0,0,1,12.1,0,0.4,0.4,0,0,0,.611,0,0.519,0.519,0,0,0,0-.68A8.893,8.893,0,0,0,36.822,1436.84Zm0,4.53a3.179,3.179,0,1,0,2.833,3.16A3.015,3.015,0,0,0,36.822,1441.37Zm0,5.35a2.208,2.208,0,1,1,1.968-2.19A2.088,2.088,0,0,1,36.822,1446.72Z" transform="translate(-24.969 -1428.81)"/>
</svg>
