<svg xmlns="http://www.w3.org/2000/svg" width="173" height="70"><g fill="none" fill-rule="evenodd"><path fill="#000" d="M84.508 33H76v37h8.508V41.513H100V33zm31.486.004l-4.143.004L99 70h8.579l2.185-7.003h12.09L124.025 70H133l-12.88-37-4.126.004zm-.165 10.553l3.869 12.48h-7.763l3.894-12.48zM16.994 33.004l-4.143.004L0 70h8.579l8.25-26.443L25.026 70H34L21.122 33zm41.466.004L47.602 51.845l-1.65 3.554.352-3.21-.018-19.168-8.286.006v36.95h.037V70h7.572l10.844-19.183 1.513-3.31-.27 2.967L57.714 70 66 69.997 65.965 33z"/><path fill="#2C39F2" d="M138 0v32.82h.002L155.5 44l17.498-11.18H173V0z"/><path fill="#FFF" d="M150.2 23.522c-.015 1.639 1.501 2.698 3.442 2.715 1.802.017 3.516-.469 5.006-1.73l.032-3.413c-.97-.237-2.445-.523-3.785-.535-2.357-.02-4.675.733-4.695 2.963m15.707 2.214a3.5 3.5 0 0 0 1.093-.155l-.034 3.765c-.927.323-2.106.56-3.24.55-2.058-.018-3.606-.776-4.433-2.273-1.988 1.513-4.308 2.403-7.29 2.376-3.781-.033-7.038-2.213-7.003-6.145.046-5.049 4.893-6.578 8.926-6.542 1.596.014 3.359.237 4.784.58l.007-.703c.018-1.987-1.566-3.366-4.717-3.394-2.773-.025-5.259.698-7.155 1.427l.044-4.966c1.644-.524 4.718-1.283 7.827-1.255 6.05.054 9.892 2.529 9.833 9.067l-.058 6.331c-.01 1.035.66 1.33 1.416 1.337"/></g></svg>