<svg xmlns="http://www.w3.org/2000/svg" width="91" height="74"><g fill="#FFF" fill-rule="evenodd"><path d="M58.097 65.436c-6.96 6.96-18.286 6.96-25.246 0L4.243 36.827 32.85 8.218c6.96-6.959 18.286-6.959 25.246 0l28.608 28.61-28.608 28.61zm2.12-59.34c-8.128-8.129-21.358-8.129-29.487 0L0 36.828l30.73 30.73c4.064 4.064 9.404 6.096 14.744 6.096s10.68-2.031 14.744-6.096l30.73-30.73-30.73-30.732z"/><path d="M45.474 45.014c-4.395 0-7.981-3.483-8.17-7.833.386.079.772.132 1.152.132a5.742 5.742 0 0 0 5.505-4.126 5.686 5.686 0 0 0-.455-4.308 8.2 8.2 0 0 1 1.968-.238c4.514 0 8.187 3.673 8.187 8.186 0 4.514-3.673 8.187-8.187 8.187M35.84 30.819a2.704 2.704 0 0 1 1.308-1.63 2.708 2.708 0 0 1 2.076-.227c.7.204 1.279.669 1.63 1.309a2.731 2.731 0 0 1-4.787 2.625 2.707 2.707 0 0 1-.227-2.077m9.634-5.178c-1.487 0-2.96.315-4.323.887a5.702 5.702 0 0 0-5.446.032 5.692 5.692 0 0 0-2.746 3.419 5.703 5.703 0 0 0 .477 4.359c.253.46.58.86.937 1.228-.046.419-.086.838-.086 1.26 0 6.169 5.019 11.188 11.187 11.188 6.168 0 11.187-5.02 11.187-11.187S51.64 25.64 45.474 25.64"/><path d="M45.474 55.324c-10.2 0-18.497-8.298-18.497-18.497S35.275 18.33 45.474 18.33 63.97 26.628 63.97 36.827c0 10.2-8.298 18.497-18.497 18.497m0-39.994c-11.854 0-21.497 9.643-21.497 21.497 0 11.853 9.643 21.497 21.497 21.497S66.97 48.68 66.97 36.827c0-11.854-9.643-21.497-21.497-21.497"/></g></svg>