<svg width="36" height="44" xmlns="http://www.w3.org/2000/svg" xmlns:xlink="http://www.w3.org/1999/xlink"><g fill="none" fill-rule="evenodd"><path fill="#FF1553" d="M0 0v32.8201h.00159L17.9992 44l17.9992-11.1799H36V0z"/><path d="M17.14548 25.38438c.63247 0 .63247-.91138.63247-1.26493 0-.63246.63246-1.26493 1.26493-1.26493.63246 0 1.71714 1.08468 2.52986 1.8974.63247.63246.63247.63246 1.26493.63246h1.8974S26 25.33632 26 24.11945c0-.39529-.43324-1.0657-1.8974-2.52986-1.26493-1.26493-1.91384-.6116 0-3.16233 1.16564-1.55334 2.01377-2.96057 1.8683-3.36662-.13914-.3877-3.38116-1.00498-3.7657-.42817-1.26493 1.8974-1.49704 2.36226-1.8974 3.16232-.63246 1.26494-.69507 1.8974-1.26492 1.8974-.57491 0-.63247-1.22761-.63247-1.8974 0-2.09093.30295-3.56963-.63246-3.79479h-1.8974c-1.01827 0-1.8974.63247-1.8974.63247s-.78489.61222-.63246.63246c.18847.0253 1.26493-.26184 1.26493.63247v1.26493s.00569 2.52986-.63247 2.52986c-.63246 0-1.8974-2.52986-3.16233-4.42726-.49648-.74441-.63246-.63246-1.26493-.63246-.678 0-1.2643.02656-1.8974.02656-.63246 0-.71342.40288-.63246.6059 1.26493 3.16233 2.17378 5.14827 4.57715 7.6503 2.20415 2.29522 3.67653 2.4173 4.90983 2.46915.31624.01328 0 0 .63247 0z" fill="#FFF" fill-rule="nonzero"/></g></svg>