<?xml version="1.0" encoding="UTF-8" standalone="no"?>
<svg width="66px" height="82px" viewBox="0 0 66 82" version="1.1" xmlns="http://www.w3.org/2000/svg" xmlns:xlink="http://www.w3.org/1999/xlink">
    <!-- Generator: Sketch 50.2 (55047) - http://www.bohemiancoding.com/sketch -->
    <title>icn_lss</title>
    <desc>Created with Sketch.</desc>
    <defs></defs>
    <g id="Стайлгайд" stroke="none" stroke-width="1" fill="none" fill-rule="evenodd">
        <g id="2" transform="translate(-748.000000, -625.000000)">
            <g id="Group-3" transform="translate(256.000000, -614.000000)">
                <g id="Group-12" transform="translate(57.000000, 1239.000000)">
                    <g id="icn_lss" transform="translate(435.000000, 0.000000)">
                        <polygon id="Page-1-Copy-10" fill="#FF1553" points="0.486486486 0 0.486486486 61.1647303 0.489369004 61.1647303 33.1742344 82 65.8619823 61.1647303 65.8648649 61.1647303 65.8648649 0"></polygon>
                        <g id="00d5306389ec779f297d81dd1bf5d66f" transform="translate(33.000000, 36.500000) rotate(-90.000000) translate(-33.000000, -36.500000) translate(4.000000, 24.000000)" fill="#FFFFFF" fill-rule="nonzero">
                            <path d="M12.3669122,0.270487796 C12.3669122,5.25839376 12.3669122,10.5278257 12.3669122,15.6136537 C12.3669122,15.9686213 12.3266783,16.3909102 12.4473801,16.5867544 C12.8267287,17.2416083 14.5855266,16.5561538 14.9188935,17.2783291 C15.0338476,17.5231343 14.9821182,18.0311051 14.9821182,18.4350337 C14.9821182,18.6308778 14.9821182,18.826722 14.9821182,19.0470467 C14.9821182,19.2306506 15.0223522,19.5244168 14.9821182,19.6406993 C14.9361366,19.769222 14.4073477,19.9161051 14.2694028,19.9528259 C13.9820175,20.0323876 13.6831368,20.0629883 13.3842561,20.0874688 C12.6772883,20.1303097 12.0852747,20.0140272 11.5967197,19.8732642 C10.8725088,19.6590597 10.1310548,19.2857317 9.57927507,18.7961213 C9.41833932,18.6553584 9.14819716,18.4105532 9.09646781,18.2514298 C9.06198158,18.1351473 9.05623387,17.9576635 9.03324305,17.8046603 C8.89529812,16.7642382 8.83207336,15.6075336 8.78609171,14.4814297 C8.62515596,10.4421439 8.91254124,6.41509833 8.78609171,2.36357226 C7.59056897,2.0453255 7.19972499,3.0245463 6.19387653,3.05514695 C5.46391793,6.41509833 6.69392691,11.862014 3.30852837,12.3944654 C4.54428505,13.0921602 5.25125283,14.1142219 5.65359221,15.766657 C5.99845454,17.180407 6.03294078,18.8328421 5.91798667,20.5097577 C5.88350043,20.9871279 5.8432665,21.4032967 6.04443619,21.7337837 C6.42953246,22.3702773 7.48711027,22.449839 7.78599096,23.1903747 C7.87795424,23.4229396 7.91818818,23.8880695 7.8319726,24.1512351 C7.76874784,24.3470793 7.55033503,24.524563 7.36640845,24.6469656 C6.33182146,25.3507806 4.55003276,24.8672903 3.62465217,24.3654397 C3.44072559,24.2675176 3.2338082,24.1389948 3.04988162,23.9859916 C2.87170275,23.8391085 2.67053306,23.6677448 2.60156059,23.4902611 C2.55557895,23.3800987 2.53833583,23.2148552 2.5095973,23.061852 C2.32567073,22.1193519 2.29118449,20.8157642 2.27394138,19.6896603 C2.26244597,19.0225662 2.27394138,18.3187512 2.27394138,17.6088161 C2.27394138,16.7275174 2.41188631,15.6809752 2.0900148,15.1301635 C1.63019836,14.3467868 0.296730682,14.2488647 0.0553270511,13.1472413 C-0.059627059,12.6270303 -0.00215000394,11.8987348 0.290982977,11.5254069 C0.699070068,10.9929556 1.46926261,10.8154718 1.93482675,10.3013809 C2.07851939,10.1483776 2.25095055,9.90357244 2.27394138,9.68936788 C2.29118449,9.54860489 2.23945514,9.37112112 2.21071662,9.21199774 C2.04403316,8.17157564 1.91183593,6.92918925 2.00954692,5.70516325 C2.2969322,2.05756576 4.42358324,0.356169616 7.86071113,0.0501631156 C9.37810538,-0.0783596146 10.9414813,0.0562832456 12.3669122,0.270487796 Z" id="Shape"></path>
                            <path d="M50.1542713,24.7455768 C50.033034,24.2247309 50.0220124,23.6548643 50.1983576,23.2381876 C50.4738969,22.5886622 51.1737669,22.3435583 51.6421837,21.8656056 C51.7964858,21.7062881 51.9783417,21.4734393 52.0169172,21.2834838 C52.0499819,21.1057834 52.0114064,20.7932759 52.0003849,20.5726824 C51.8571044,17.0064203 52.0003849,13.3972649 54.4857497,12.6129324 C54.3645124,12.4903804 54.2157211,12.4168492 54.0834622,12.31268 C52.4081831,11.0258844 51.8736368,8.4461656 51.9562986,5.19241096 C51.9618094,4.96568983 51.9728309,4.7267135 51.9838525,4.49999237 C52.0058957,4.08331569 52.0444712,3.7034046 51.9122123,3.3908971 C51.5650327,2.58205414 50.3857244,2.51465056 50.0826311,1.62002122 C49.9283291,1.17270656 50.0109909,0.602839925 50.1597821,0.0942492758 C50.4242999,0.0758664813 50.7494363,0.0268456959 51.0359972,0.00846290131 C53.3780815,-0.114089062 54.7227135,1.10530298 55.3233893,2.95583763 C55.7918061,4.3958232 55.8854895,6.14218868 55.846914,8.12140289 C55.8414032,8.40940001 55.8138493,8.72190751 55.8028277,9.03441502 C55.7918061,9.33466733 55.7532306,9.65330244 55.8028277,9.92904436 C56.0122376,11.123926 57.5993442,10.8114185 57.9189698,11.932769 C58.0842934,12.5026356 57.9850992,13.2195646 57.7260923,13.6362413 C57.2907401,14.340915 56.3263524,14.5431258 55.7036335,15.1068648 C55.6099502,15.1926512 55.4942236,15.3213308 55.4776913,15.3887343 C55.4556481,15.4990311 55.4832021,15.713497 55.4942236,15.8850698 C55.5934178,18.1951743 55.7642522,20.9342107 55.1194901,22.7541073 C54.7778214,23.7222679 54.2102103,24.4330692 53.3174629,24.7762147 C52.4136939,25.1254878 51.0855943,25.0274463 50.1542713,24.7455768 Z" id="Shape"></path>
                            <path d="M26.7855511,14.7936206 C24.0906584,14.7936206 21.3957657,14.7936206 18.7065825,14.7936206 C18.6951634,16.6816501 19.6943292,17.5568956 21.2073516,17.800714 C22.8174358,18.0570359 24.5188723,17.6131614 25.8206425,17.2630632 C25.8491901,18.4008823 26.3744658,19.2573726 26.1460851,20.4702127 C25.044148,20.7265346 23.95363,20.9641013 22.720374,20.99536 C21.4357323,21.0266188 20.2196049,20.9015837 19.2375677,20.5702408 C17.2620743,19.9200584 15.7775995,18.5759314 15.2580333,16.381566 C14.6528243,13.8245988 15.1838095,11.0863308 16.1087515,9.34209156 C16.5883511,8.4355873 17.2106886,7.69788039 17.9757641,7.11021557 C18.7522586,6.51004723 19.7571339,6.07242449 20.9390042,6.00990696 C22.1094555,5.94738942 23.1999735,6.18495605 23.976468,6.60382354 C24.7758006,7.03519453 25.363881,7.69162864 25.8434806,8.47934958 C26.3002421,9.22955999 26.6884893,10.167323 26.8769034,11.2676316 C27.0538985,12.3554367 27.0538985,13.6495497 26.7855511,14.7936206 Z M22.88595,9.91100112 C22.4177695,9.46087487 21.7611749,9.17329421 20.9275852,9.23581175 C19.6086864,9.3358398 18.6209397,10.3111133 18.6894539,11.9365692 C20.2767,11.9740798 21.9324604,11.942821 23.5482541,11.9553245 C23.6338969,11.0488203 23.348421,10.3611274 22.88595,9.91100112 Z" id="Shape"></path>
                            <path d="M37.5734611,6.86049666 C37.5081337,7.98076489 37.2230688,8.86187473 36.9142485,9.71781001 C36.1481365,9.44088978 35.2276144,9.0821522 34.2180095,9.01921578 C33.0777499,8.94998572 32.2403717,9.24578688 31.8602852,10.0576667 C32.6501525,12.1912112 35.9462155,11.7443627 37.3299681,13.3051858 C37.4249897,13.4121777 37.5378279,13.5317569 37.5853388,13.6261615 C37.6447273,13.758328 37.6684827,13.93455 37.7159935,14.0855974 C38.0010584,15.1177546 38.1495297,16.5652922 37.7813209,17.641505 C37.3952955,18.7806541 36.5816727,19.5673594 35.6492729,20.0897316 C34.6753011,20.6372785 33.434081,20.9204923 32.0384507,20.9897224 C30.6546982,21.0589525 29.2828233,20.7694449 28.1544413,20.3918264 C27.9940923,19.0512807 28.4573228,18.1009408 28.8136539,17.1946564 C28.932431,17.219831 29.0393303,17.2827674 29.1521685,17.3331165 C30.660637,18.0128299 33.9923331,18.4030356 34.5446464,16.5023558 C34.2061318,15.7282379 33.6716351,15.2310402 32.9886671,14.9037708 C32.2760048,14.5639142 31.4505044,14.4002795 30.6487593,14.1548275 C29.8529531,13.9093754 29.1699851,13.5821061 28.7245712,12.9464482 C28.5167113,12.6506471 28.3563623,12.2793222 28.2257076,11.8576482 C28.1009917,11.4548551 28.0000312,10.982832 28.0000312,10.4793407 C27.9940923,8.962573 28.8374094,7.88006662 29.7163595,7.23182152 C30.6546982,6.53952093 31.9374902,6.08008508 33.3925091,6.01085502 C35.1028985,5.92903768 36.4153849,6.31924346 37.5734611,6.86049666 Z" id="Shape"></path>
                            <path d="M47.1467373,6.81436091 C47.3305611,7.79203665 46.94568,8.52062303 46.8078121,9.30525451 C46.3769751,9.504526 45.8772041,9.37375409 45.4291335,9.27411834 C44.9868075,9.1744826 44.5329924,9.05616515 44.0964109,8.98766558 C43.1945253,8.8444392 42.3960406,8.94407494 42.0628599,9.67888855 C42.0226485,9.77229706 41.9537145,9.89061451 41.9537145,9.98402302 C41.9537145,10.1646128 42.1432828,10.5257924 42.2179613,10.6565643 C42.5568864,11.2481515 43.1543138,11.5906494 43.8321641,11.765012 C44.8317061,12.0203285 45.9059265,12.0141013 46.5952658,12.5745524 C46.7790897,12.724006 46.9284465,12.9357319 47.0778034,13.1287762 C47.5890633,13.8013175 48.0716009,14.6731302 47.9911779,15.9559404 C47.9164995,17.1391149 47.3075831,18.0420638 46.6871778,18.7146051 C45.4521115,20.0534604 43.5736619,21 41.1150184,21 C39.9890975,21 38.8976436,20.6761838 38.0244805,20.1904596 C37.8578901,18.7955592 38.5931854,18.2226536 38.6736083,17.0457064 C38.7942427,17.0519336 38.8918991,17.1328877 39.0010445,17.1827055 C39.3399697,17.3197047 39.7076173,17.4255677 40.0867539,17.5189762 C41.5228775,17.8801558 43.4185605,17.8801558 44.0619439,16.6969813 C44.1251333,16.5848911 44.1998118,16.4292102 44.1998118,16.342029 C44.2055563,16.1365302 43.9298205,15.6881694 43.8264196,15.5511702 C42.8096442,14.2434511 40.5692914,14.3617685 39.2308243,13.3654111 C39.006789,13.1972758 38.7540312,12.9980043 38.6563748,12.7925056 C38.5759519,12.6305975 38.5242515,12.3752809 38.472551,12.1884639 C38.3117052,11.6217856 38.1623483,10.8433813 38.2255378,10.1210222 C38.3059607,9.13711919 38.6506303,8.44589622 39.0929564,7.89789963 C39.983353,6.80190644 41.459688,6.10445623 43.2692037,6.01104772 C44.8546841,5.93009368 46.0782614,6.30372772 47.1467373,6.81436091 Z" id="Shape"></path>
                        </g>
                    </g>
                </g>
            </g>
        </g>
    </g>
</svg>