<svg xmlns="http://www.w3.org/2000/svg" width="81" height="80"><g fill="#FFF"><path d="M53.731 3.234c-5.47.39-7.595.83-9.298 2.207L42.549 3.1c2.37-1.915 4.85-2.43 10.97-2.865 1.8-.129 1.854-.132 2.54-.189l.123-.005h6.58l-.975 2.13-.223.494a143.958 143.958 0 0 0-2.4 5.674 98.643 98.643 0 0 0-.701 1.815l-.041.109-2.81-1.054.042-.113c.227-.604.468-1.228.722-1.868a145.803 145.803 0 0 1 1.74-4.18h-1.873c-.647.052-.75.06-2.512.185z"/><path d="M23.705 3.047a143.851 143.851 0 0 1 1.741 3.646 92.056 92.056 0 0 1 1.43 3.272l-2.776 1.14a71.546 71.546 0 0 0-.758-1.777 90.926 90.926 0 0 0-.621-1.378 143.412 143.412 0 0 0-2.785-5.712L18.795.041h2.472l4.464.003c1.419.086 2.474.121 5.065.186 5.088.126 7.196.287 9.458.902 4.618 1.254 7.338 4.164 8.229 9.138l-2.953.53c-.684-3.817-2.55-5.814-6.061-6.767-1.94-.527-3.922-.679-8.748-.798-2.626-.066-3.704-.102-5.08-.188h-1.936z"/><path d="M11.25 10.223l.623.757c2.615 3.17 4.06 7.29 4.06 11.557V33.31c0 3.324.709 6.528 2.048 9.407l-2.72 1.27c-1.523-3.277-2.328-6.914-2.328-10.677V22.537c0-3.576-1.207-7.017-3.372-9.643L4.879 7.217h13.598l.106.004c6.06.43 11.71 3.459 16.08 8.395l-2.244 1.995c-3.858-4.359-8.775-7.002-13.996-7.388H11.25zm25.576 54.305l11.008-10.252 2.042 2.202-13.058 12.16-12.966-12.164 2.05-2.194z"/><path d="M49.952 11.697c-13.257.85-23.576 11.873-23.576 25.185V52.07h-3V36.882c0-14.897 11.548-27.233 26.384-28.184l26.683-1.716-2.502 2.75-2.926 3.218a14.242 14.242 0 0 0-3.71 9.587V33.31c0 3.47-.75 6.838-2.182 9.917l-2.72-1.27a20.46 20.46 0 0 0 1.903-8.647V22.537a17.25 17.25 0 0 1 4.492-11.612l.424-.467-19.27 1.24zM35.366 64.7l3-.056.04 2.189V80h-3V66.861z"/><path d="M62.997 53.918a9.49 9.49 0 0 0 6.666-2.714l5.315-7.11H53.626a15.748 15.748 0 0 0-11.15 4.629l-5.108 5.118 25.629.077zm-30.3.352l7.657-7.673a18.745 18.745 0 0 1 13.272-5.508h27.347l-8.976 12.007-.14.162a12.487 12.487 0 0 1-8.869 3.666l-32.841-.1 2.55-2.554z"/><path d="M30.273 56.814l-2.96.022-10.427.075c-2.891.012-4.846-.929-6.775-3.052-.726-.798-.946-1.086-2.772-3.543L.479 41.09h11.057c4.529 0 8.829 2.396 11.95 6.595l6.787 9.13zM21.08 49.48c-2.58-3.47-6.014-5.384-9.544-5.384H6.454l3.291 4.426c1.741 2.342 1.958 2.625 2.585 3.315 1.38 1.519 2.54 2.078 4.539 2.07l7.461-.055-3.25-4.372zm6.941 22.307c-2.063-2.587-4.954-4.046-7.966-4.046H11.69l4.718 5.38c2.036 2.324 4.77 3.616 7.607 3.616h7.954l-3.948-4.95zm-4.006 7.956c-3.717 0-7.266-1.677-9.861-4.638L5.06 64.735h14.994c3.945 0 7.69 1.89 10.31 5.176l7.84 9.832h-14.19z"/></g></svg>