<svg width="36" height="44" xmlns="http://www.w3.org/2000/svg"><g fill="none" fill-rule="evenodd"><path fill="#FF1553" d="M0 0v32.82h.002L17.999 44l18-11.18H36V0z"/><path d="M17.145 25.384c.633 0 .633-.911.633-1.265 0-.632.632-1.264 1.265-1.264.632 0 1.717 1.084 2.53 1.897.632.632.632.632 1.265.632h1.897S26 25.336 26 24.12c0-.395-.433-1.065-1.897-2.53-1.265-1.264-1.914-.611 0-3.162 1.165-1.553 2.013-2.96 1.868-3.366-.14-.388-3.381-1.005-3.766-.429-1.265 1.898-1.497 2.363-1.897 3.163-.633 1.265-.695 1.897-1.265 1.897-.575 0-.633-1.227-.633-1.897 0-2.091.303-3.57-.632-3.795H15.88c-1.019 0-1.898.632-1.898.632s-.785.613-.632.633c.188.025 1.265-.262 1.265.632v1.265s.005 2.53-.633 2.53c-.632 0-1.897-2.53-3.162-4.427-.497-.744-.633-.633-1.265-.633-.678 0-1.264.027-1.898.027-.632 0-.713.403-.632.606 1.265 3.162 2.174 5.148 4.577 7.65 2.204 2.295 3.677 2.418 4.91 2.47.316.013 0 0 .632 0z" fill="#FFF" fill-rule="nonzero"/></g></svg>