<svg xmlns="http://www.w3.org/2000/svg" width="79" height="88"><g fill="#FFF" fill-rule="evenodd"><path fill-rule="nonzero" d="M17.664 86.966V47.112h52.138v39.854H17.664zm3-3h46.138V50.112H20.664v33.854z"/><path fill-rule="nonzero" d="M67.448 86.966V70.388h11.405v16.578H67.448zm8.405-3V73.388h-5.405v10.578h5.405zM42.495 73.854v-3h10.342v16.405H18.452L.89 57.447h19.92v14.907h-3V60.447H6.14l14.027 23.812h29.67V73.854z"/><path fill-rule="nonzero" d="M42.465 72.086a28.276 28.276 0 0 0-.583-2.245c-.789-2.621-1.894-5.154-3.34-7.287-4.14-6.105-9.947-7.579-18.445-2.33l-1.576-2.553c9.909-6.12 17.49-4.196 22.504 3.2 1.638 2.416 2.86 5.216 3.73 8.105.28.932.496 1.783.645 2.489.048.227.085.421.1.519.004.026.004.026.013.113.004.041.004.041.005.139-.003.087-.003.087-.048.358l-.235.502-1.968.421-.537-.53c-.045-.079-.045-.079-.095-.188-.045-.117-.045-.117-.058-.162-.033-.133-.033-.133-.039-.167a9.456 9.456 0 0 1-.038-.214l-.035-.17zm2.977-.339a5.648 5.648 0 0 0-.04-.109c-.05-.11-.05-.11-.633-.718l-1.967.421-.236.502-.039.212c-.006.059-.006.059-.009.146v.032l2.924-.486z"/><path fill-rule="nonzero" d="M52.797 43.594l-6.571-6.627 2.13-2.112 4.315 4.352 4.752-5.372 5.357 5.186 5.034-5.384 5.121 5.327 2.924-3.429V18.261H53.1V6.825l-17.877 11.26-.098-10.396L20.81 21.974V47.63h24.634l8.292 7.77 6.94-8.37h7.996v3h-6.587l-8.074 9.74-9.753-9.14H17.81v-29.9L38.058.525l.115 12.157L56.101 1.39v13.872H78.86v21.38l-5.79 6.79-5.225-5.434-4.958 5.302-5.295-5.126z"/><path fill-rule="nonzero" d="M49.837 24.91a3.796 3.796 0 0 0-3.8-3.788 3.796 3.796 0 0 0-3.802 3.789 3.797 3.797 0 0 0 3.802 3.79c2.098 0 3.8-1.698 3.8-3.79zm3 0c0 3.75-3.046 6.79-6.8 6.79-3.756 0-6.802-3.039-6.802-6.79 0-3.748 3.047-6.788 6.802-6.788 3.754 0 6.8 3.04 6.8 6.789z"/><path d="M62.833 40.513v7.372"/><path fill-rule="nonzero" d="M61.333 40.513h3v7.372h-3z"/><path d="M68.644 22.986h8.715"/><path fill-rule="nonzero" d="M68.644 24.486v-3h8.715v3z"/></g></svg>