<?xml version="1.0" encoding="UTF-8" standalone="no"?>
<svg width="66px" height="82px" viewBox="0 0 66 82" version="1.1" xmlns="http://www.w3.org/2000/svg" xmlns:xlink="http://www.w3.org/1999/xlink">
    <!-- Generator: Sketch 50.2 (55047) - http://www.bohemiancoding.com/sketch -->
    <title>icn_gulp</title>
    <desc>Created with Sketch.</desc>
    <defs>
        <polygon id="path-1" points="0 0 0 61.1647303 0.00288251745 61.1647303 32.6877479 82 65.3754959 61.1647303 65.3783784 61.1647303 65.3783784 0"></polygon>
    </defs>
    <g id="Стайлгайд" stroke="none" stroke-width="1" fill="none" fill-rule="evenodd">
        <g id="2" transform="translate(-964.000000, -625.000000)">
            <g id="Group-3" transform="translate(256.000000, -614.000000)">
                <g id="Group-12" transform="translate(57.000000, 1239.000000)">
                    <g id="icn_gulp" transform="translate(651.000000, 0.000000)">
                        <mask id="mask-2" fill="white">
                            <use xlink:href="#path-1"></use>
                        </mask>
                        <use id="Mask" fill="#FF1553" xlink:href="#path-1"></use>
                        <g id="gulp" mask="url(#mask-2)" fill="#FFFFFF" fill-rule="nonzero">
                            <g transform="translate(18.044170, 4.152344)" id="Shape">
                                <path d="M20.806875,57.8758711 L21.3792539,48.338332 L22.9597031,45.6404414 C22.9597031,45.6404414 19.3625859,47.1119414 13.3404258,47.1119414 C7.31816016,47.1119414 3.77557031,45.6676523 3.77557031,45.6676523 L5.5468125,48.6106523 L6.17340234,57.8758711 C6.17340234,58.8691758 9.44915625,59.6743242 13.4901914,59.6743242 C17.5310156,59.6743242 20.806875,58.8691758 20.806875,57.8758711 M19.0013555,13.3369453 L20.20275,8.58821484 L26.8558242,1.58762109 L25.1023008,0.094078125 L18.0586758,7.55145703 L16.6637461,13.2249375 C15.6138926,13.1897602 14.5635207,13.172285 13.5130781,13.1725195 C6.09482813,13.1725195 0.0811054688,14.017957 0.0811054688,15.0606211 C0.0811054688,16.1033906 6.09482813,16.9487227 13.5130781,16.9487227 C20.9312227,16.9487227 26.9448398,16.1033906 26.9448398,15.0606211 C26.9448398,14.2928086 23.6833242,13.6319414 19.0013555,13.3369453"></path>
                                <path d="M18.3025195,15.9963398 C18.3025195,15.9963398 18.0423281,16.0546641 17.2769414,16.0579336 C16.5113437,16.0610977 15.9677578,16.0529766 15.7512305,15.85575 C15.6930117,15.8028047 15.6611602,15.6976523 15.6614766,15.6264609 C15.6621094,15.4909336 15.7582969,15.4110938 15.8808516,15.3611016 L15.9967617,15.5429297 C15.9463477,15.560332 15.9175547,15.5808984 15.9174492,15.6028359 C15.9170273,15.7057734 16.7002383,15.7762266 17.2993008,15.7686328 C17.8984687,15.76125 18.6224062,15.7118906 18.6230391,15.6104297 C18.6230391,15.5797383 18.5683008,15.5508398 18.4730625,15.5280586 L18.5884453,15.3474961 C18.7436953,15.3956953 18.8792227,15.4888242 18.8789062,15.6499805 C18.8774297,15.9239883 18.52875,15.9656484 18.3025195,15.9963398"></path>
                                <path d="M26.8427461,1.6014375 C27.0100195,1.40821875 26.7561562,0.913992187 26.2757461,0.497707031 C25.795125,0.0816328125 25.2698906,-0.099140625 25.1023008,0.094078125 C24.9349219,0.287296875 25.1888906,0.781523437 25.6695117,1.19759766 C26.1499219,1.61377734 26.6753672,1.79476172 26.8427461,1.6014375 M20.4868828,34.5795117 C20.329207,33.0624492 23.8051406,30.8653242 22.9130859,30.7949766 C20.9927109,30.9047695 20.0369531,33.0454687 19.0707539,35.2875234 C18.7166953,36.1092305 17.5051758,39.6131133 16.7105742,39.1817461 C15.9161836,38.7505898 17.7404766,35.8692891 18.2517891,34.1581641 C17.6617969,34.5907969 15.4981055,36.2718633 14.9404922,34.6975312 C14.0440078,35.4589102 12.1283789,35.8713984 12.3444844,33.8713945 C11.8675547,34.7161992 10.7971523,35.8956562 9.51233203,35.405543 C7.82504297,34.7620781 10.4900273,29.3872852 11.1526875,29.6584453 C11.8154531,29.9295 11.0189531,31.1538867 10.8103359,31.6293398 C10.3515469,32.6756953 9.82156641,33.9911016 10.175625,34.2603633 C10.7821758,34.7216836 12.4327617,32.5151719 12.4694648,32.4666562 C12.7781719,32.0588086 13.6576758,29.3905547 14.3665312,29.6969414 C15.0753867,30.0033281 12.5984531,33.5263008 13.5245742,34.2254531 C13.7113594,34.3665703 14.4755859,34.1384414 14.9404922,33.6354609 C15.2412891,33.3100898 15.1378242,32.5894219 16.1405156,30.1982344 C17.143207,27.8071523 18.0368437,24.8293477 18.7245,25.0562109 C19.4121562,25.2829687 18.8453672,26.8113164 18.5986758,27.3810586 C17.4410508,30.0551133 15.4392539,34.4728828 16.3833047,34.1384414 C17.3273555,33.8041055 17.8189453,33.7844883 18.7433789,32.7026953 C19.6678125,31.6209023 19.6252031,29.8390078 20.2413516,29.8768711 C20.8577109,29.9148398 20.7542461,30.4861641 20.6047969,30.9212227 C21.2112422,30.2272383 23.4794531,28.7656523 24.0270469,30.2132109 C24.6756797,31.9269727 20.7818789,34.4024297 21.7527187,34.2761836 C22.6993008,34.1531016 24.2328164,33.1818398 24.8875664,32.29875 L26.6898164,16.0960078 C26.6898164,16.0960078 24.8762812,17.5968281 13.3386328,17.5968281 C1.80087891,17.5968281 0.174972656,16.1272266 0.174972656,16.1272266 L1.70933203,30.9164766 C2.52376172,28.6017539 4.45774219,23.9197852 7.50621094,24.0769336 C8.89291406,24.1484414 10.7441016,26.8185937 9.15837891,26.9090859 C8.48717578,26.9472656 8.41904297,25.5762773 7.62423047,25.3749375 C7.05069141,25.2296016 6.2521875,25.6958789 5.73612891,26.2010742 C4.70696484,27.2083008 2.49349219,31.1822578 2.78595703,33.1634883 C3.15857812,35.6893594 6.27148828,32.2857773 6.79819922,31.2752812 C7.16913281,30.5634727 7.41972656,28.4545195 8.23099219,28.675793 C9.04236328,28.8970664 8.16022266,31.0735195 7.57212891,32.9977969 C6.91147266,35.1585352 6.56416406,37.4378203 5.73612891,37.175625 C4.90798828,36.9136406 6.25693359,34.1242031 6.20810156,33.6354609 C5.42974219,34.3535977 3.99578906,36.171668 2.16126563,35.2718086 L3.11417578,44.4558164 C3.11417578,44.4558164 5.64679687,46.456875 13.2760898,46.456875 C20.9053828,46.456875 23.5317656,44.4870352 23.5317656,44.4870352 L24.7150195,33.8497734 C23.7469219,34.7924531 20.6830547,36.4664531 20.4868828,34.5795117"></path>
                            </g>
                        </g>
                    </g>
                </g>
            </g>
        </g>
    </g>
</svg>