<svg xmlns="http://www.w3.org/2000/svg" width="92" height="84" viewBox="0 0 92 84">
    <g fill="#FFF" fill-rule="nonzero">
        <path d="M6.486 56.454l7.126-25.307 2.888.806-6.057 21.515h6.259v18.368l2.467 1.615-1.648 2.495-3.82-2.5V56.454z"/>
        <path d="M7.761 21.106L40.15 55.797l-28.292 25.18h49.708v-44.72c0-8.336-6.768-15.103-15.14-15.146l-.916-.005H7.761zM.878 18.12h47.055c9.323.874 16.633 8.658 16.633 18.138v47.704H4.002L35.871 55.6.878 18.12z"/>
        <path d="M47.692 82.47h-3V19.612h3z"/>
        <path d="M33.823 59.694l2.367-1.835a4.75 4.75 0 0 0 3.752 1.83c2.624 0 4.75-2.117 4.75-4.729 0-2.609-2.127-4.726-4.75-4.726-1.739 0-3.311.938-4.147 2.422l-2.617-1.46a7.753 7.753 0 0 1 6.764-3.947c4.28 0 7.75 3.453 7.75 7.711 0 4.26-3.47 7.715-7.75 7.715a7.754 7.754 0 0 1-6.12-2.981zM65.037 18.12l.388.91 6.493 15.207 8.376 20.873 2.696-23.778h2.606l-8.33-18.008.756-.177-11.74-2.531 1.979-7.19c-.554.022-1.172.069-1.85.146-2.083.238-4.336.727-6.715 1.527-2.628.884-5.279 3.442-7.763 7.167a46.452 46.452 0 0 0-3.29 5.854h16.394zM44.14 21.106l.806-2.04c.056-.142.162-.397.314-.747.25-.578.545-1.22.88-1.91a49.38 49.38 0 0 1 3.293-5.795c2.82-4.226 5.901-7.2 9.302-8.343C63.303.735 67.183.292 70.005.449c.173.01.298.02.374.028l1.752.187-2.12 7.7 21.626 4.662-10.111 2.367 8.753 18.924h-4.608l-3.735 32.936-2.214-5.518-10.577-26.36-6.093-14.27H44.14zM24.204 29.158v-2.985h11.504v2.985z"/>
    </g>
</svg>
