<svg xmlns="http://www.w3.org/2000/svg" width="77" height="78" viewBox="0 0 77 78">
    <g fill="none" fill-rule="evenodd">
        <path fill="#FFF" fill-rule="nonzero" d="M47.53 25.406L34.364 12.243l2.122-2.122L49.65 23.285 71.184 44.82l-.18.805a33.743 33.743 0 0 1-25.566 25.568l-.805.18-29.42-29.421-5.172-5.173 2.121-2.121 5.173 5.172 28.244 28.246a30.744 30.744 0 0 0 22.308-22.31L47.53 25.406z"/>
        <g stroke="#FFF" stroke-linecap="square" stroke-width="3">
            <path d="M56.125 74.096l1.286 1.285M61.171 70.656l3.214 3.215M65.607 66.607l7.07 7.07M69.656 62.171l3.215 3.214M73.096 57.125l1.285 1.286"/>
        </g>
        <path fill="#FFF" fill-rule="nonzero" d="M34.679 4.954L3.693 3.727l.922 31.305c16.411-.416 29.655-13.665 30.064-30.078zM.599.602l37.054 1.467.029 1.413c.384 19.24-15.313 34.937-34.554 34.553l-1.427-.028L.599.602z"/>
        <path fill="#FFF" fill-rule="nonzero" d="M45.984 22.606l2.434 1.755c-3.005 4.169-8.015 8.957-12.649 12.042-1.917 1.277-6.31 3.038-9.071 3.754-5.66 1.466-10.367 1.433-13.631-.774l1.68-2.485c2.362 1.597 6.297 1.624 11.198.355 2.463-.639 6.562-2.282 8.161-3.347 4.338-2.888 9.086-7.426 11.878-11.3zM55.191 31.73l2.434 1.755c-3.003 4.166-8.013 8.954-12.65 12.043-1.917 1.275-6.313 3.038-9.07 3.754-5.66 1.466-10.367 1.432-13.632-.776l1.681-2.485c2.362 1.598 6.297 1.626 11.198.357 2.46-.638 6.561-2.283 8.16-3.347 4.34-2.892 9.09-7.43 11.88-11.3zM64.359 40.816l2.433 1.754c-3.002 4.166-8.013 8.954-12.65 12.043-1.916 1.275-6.312 3.038-9.07 3.754-5.665 1.465-10.368 1.432-13.631-.776l1.68-2.485c2.362 1.597 6.294 1.625 11.198.357 2.46-.639 6.562-2.284 8.16-3.347 4.34-2.892 9.09-7.43 11.88-11.3z"/>
    </g>
</svg>
