<?xml version="1.0" encoding="UTF-8" standalone="no"?>
<svg width="66px" height="82px" viewBox="0 0 66 82" version="1.1" xmlns="http://www.w3.org/2000/svg" xmlns:xlink="http://www.w3.org/1999/xlink">
    <!-- Generator: Sketch 50.2 (55047) - http://www.bohemiancoding.com/sketch -->
    <title>icn_sas</title>
    <desc>Created with Sketch.</desc>
    <defs>
        <polygon id="path-1" points="0 0 0 61.1647303 0.00288251745 61.1647303 32.6877479 82 65.3754959 61.1647303 65.3783784 61.1647303 65.3783784 0"></polygon>
    </defs>
    <g id="Стайлгайд" stroke="none" stroke-width="1" fill="none" fill-rule="evenodd">
        <g id="2" transform="translate(-856.000000, -625.000000)">
            <g id="Group-3" transform="translate(256.000000, -614.000000)">
                <g id="Group-12" transform="translate(57.000000, 1239.000000)">
                    <g id="icn_sas" transform="translate(543.000000, 0.000000)">
                        <mask id="mask-2" fill="white">
                            <use xlink:href="#path-1"></use>
                        </mask>
                        <use id="Mask" fill="#FF1553" xlink:href="#path-1"></use>
                        <path d="M66.8862656,41.4916558 C64.0953141,41.5062693 61.6696705,42.1784892 59.6385593,43.1722055 C58.8933314,41.6962445 58.1481035,40.3810317 58.0165927,39.4165424 C57.8704696,38.2913048 57.6951219,37.6044714 57.8704696,36.2600317 C58.0458174,34.915592 58.8348822,33.0012268 58.8202698,32.855092 C58.8056575,32.7089573 58.6449221,32.0221239 57.0375679,32.0075104 C55.4302137,31.992897 54.0420441,32.3143934 53.8813087,32.7381842 C53.7205733,33.161975 53.4137148,34.1264643 53.2091424,35.1201807 C52.9315085,36.5815282 49.994434,41.7985388 48.3140182,44.5312587 C47.7733627,43.464475 47.3057687,42.5292126 47.2034826,41.7839253 C47.0573595,40.6586877 46.8820117,39.9718544 47.0573595,38.6274147 C47.2327072,37.282975 48.021772,35.3686097 48.0071597,35.222475 C47.9925474,35.0763402 47.8318119,34.3895069 46.2244577,34.3748934 C44.6171035,34.3602799 43.228934,34.6817764 43.0681985,35.1055672 C42.9074631,35.529358 42.7321154,36.5230743 42.3960322,37.4875636 C42.0599491,38.452053 38.158462,47.1616842 37.1356002,49.4121594 C36.609557,50.5666239 36.1565754,51.4872728 35.8351046,52.1156523 C35.8351046,52.1156523 35.8351046,52.1156523 35.8351046,52.1156523 C35.8351046,52.1156523 35.8204923,52.1594927 35.7766553,52.2325601 C35.4990214,52.7732586 35.338286,53.0655281 35.338286,53.0655281 C35.338286,53.0655281 35.338286,53.0655281 35.338286,53.0801416 C35.1191013,53.4747054 34.8853043,53.8400423 34.7684059,53.8400423 C34.680732,53.8400423 34.5199966,52.7878721 34.7976305,51.3557515 C35.3821229,48.3307622 36.7702925,43.6252232 36.7556802,43.464475 C36.7556802,43.3767941 37.0187018,42.5584395 35.8497169,42.1346487 C34.7099566,41.7108579 34.3008119,42.4123048 34.1985257,42.4123048 C34.0962395,42.4123048 34.023178,42.6607338 34.023178,42.6607338 C34.023178,42.6607338 35.2944491,37.3706558 31.5975344,37.3706558 C29.2887892,37.3706558 26.1033054,39.898787 24.5251758,42.1784892 C23.5315387,42.7191877 21.4127536,43.8736523 19.1478453,45.1157977 C18.285719,45.5980423 17.394368,46.080287 16.5614663,46.5333047 C16.503017,46.4748508 16.4445678,46.4017835 16.3861185,46.3433296 C11.9147514,41.5647232 3.64418331,38.1890104 3.99487877,31.7736948 C4.12638957,29.4355388 4.93006668,23.2978793 19.8784609,15.8450069 C32.1820268,9.78041474 41.9722752,11.4609644 43.6673033,15.1874005 C46.0929469,20.5067055 38.4214836,30.3854147 25.708773,31.8175353 C20.8574857,32.3582339 18.3149436,30.487709 17.6720019,29.7862622 C16.9998356,29.0555885 16.8975494,29.011748 16.6491401,29.1578828 C16.2399954,29.3770849 16.503017,30.0346913 16.6491401,30.4146417 C17.0290602,31.408358 18.5925775,33.161975 21.2374058,34.02417 C23.5753756,34.7840707 29.2595646,35.2078615 36.1419631,32.548209 C43.842651,29.5670601 49.8629232,21.2812197 48.0948335,14.339819 C46.3267439,7.29612397 34.6368951,4.97258142 23.5753756,8.90360623 C16.9998356,11.2417623 9.86902782,14.924358 4.74010664,19.7175778 C-1.35322707,25.4168332 -2.3176396,30.3708012 -1.9231072,32.4459147 C-0.50571303,39.8111062 9.64984315,44.604326 13.7120656,48.1554005 C13.5074933,48.2723083 13.3175332,48.3746026 13.1567978,48.4622835 C11.1256866,49.4706133 3.38116171,53.5185459 1.45233665,57.8002941 C-0.739510007,62.6519678 1.80303212,66.1299749 3.48344789,66.5976061 C8.70004293,68.0443402 14.0627611,65.4431416 16.9413864,61.1467799 C19.8200116,56.8504182 19.4693162,51.2680707 18.1395959,48.7107125 C18.1249836,48.6814856 18.1103713,48.6522586 18.0811466,48.6230317 C18.6071898,48.3161487 19.1478453,47.9946523 19.6738885,47.6877693 C20.7113626,47.0740033 21.7342244,46.5040778 22.6109631,46.0364466 C22.1141445,47.3954998 21.7488367,49.0175955 21.573489,51.3557515 C21.3543043,54.1030849 22.4794523,57.6687728 23.9552957,59.0716664 C24.6128497,59.6854324 25.3873022,59.7000459 25.8841207,59.7000459 C27.6083734,59.7000459 28.3828259,58.2679253 29.2449523,56.5727622 C30.2970387,54.4976487 31.2468389,52.0864253 31.2468389,52.0864253 C31.2468389,52.0864253 30.0632417,58.6040352 33.2779501,58.6040352 C34.446935,58.6040352 35.6305322,57.0842338 36.1565754,56.3097196 C36.1565754,56.3243331 36.1565754,56.3243331 36.1565754,56.3243331 C36.1565754,56.3243331 36.1858,56.2804927 36.2442493,56.1781983 C36.3611478,55.9882232 36.4342093,55.8713154 36.4342093,55.8713154 C36.4342093,55.8713154 36.4342093,55.8567019 36.4342093,55.8420884 C36.9018033,55.0237338 37.9538897,53.1678225 39.5174069,50.0843792 C41.5339059,46.109514 43.4773432,41.1409324 43.4773432,41.1409324 C43.4773432,41.1409324 43.652691,42.3538509 44.2517957,44.3705104 C44.6024912,45.5542019 45.3331067,46.8548012 45.9175992,48.1115601 C45.4500052,48.7691664 45.157759,49.1345033 45.157759,49.1345033 C45.157759,49.1345033 45.157759,49.1345033 45.1723713,49.1491168 C44.7924512,49.645975 44.3833065,50.1866735 43.9303249,50.7127586 C42.337583,52.6125104 40.4379825,54.7899182 40.1749609,55.4182976 C39.8681024,56.1635849 39.941164,56.7042835 40.5256564,57.1426877 C40.9494134,57.4641842 41.7092536,57.5080246 42.4837061,57.4641842 C43.9157126,57.3618898 44.923962,57.0111664 45.4207806,56.7919643 C46.1952331,56.5143083 47.1011964,56.0905175 47.9487104,55.4621381 C49.5122277,54.3076735 50.4620279,52.6563508 50.3743541,50.478943 C50.3305171,49.2806381 49.9359847,48.0823331 49.4537785,46.9570955 C49.5999016,46.7525069 49.7314124,46.5479182 49.8775355,46.3433296 C52.3470161,42.7338012 54.2612288,38.7735494 54.2612288,38.7735494 C54.2612288,38.7735494 54.4365765,39.9864679 55.0356813,42.0031275 C55.3279275,43.0260707 55.9270323,44.1366948 56.4530755,45.218092 C54.129718,47.1032303 52.6977115,49.2952516 52.1862806,50.7273721 C51.265705,53.3870246 51.9817083,54.5853296 53.3406532,54.8629856 C53.9543703,54.9945069 54.8311089,54.7022374 55.4740506,54.4245813 C56.29234,54.1615388 57.2567526,53.708521 58.1773282,53.0363012 C59.7408454,51.8818367 61.2459135,50.2743544 61.1582396,48.0969466 C61.1144027,47.1032303 60.8513811,46.1241274 60.4860733,45.1742516 C62.4587353,44.355897 65.0012774,43.9028792 68.2452105,44.2828296 C75.2006705,45.1011842 76.5742278,49.4413863 76.3112062,51.2680707 C76.0481846,53.0947551 74.5869535,54.0884714 74.1047472,54.3953544 C73.6225409,54.7022374 73.4618055,54.8045317 73.5056425,55.0237338 C73.5640917,55.3452303 73.7978887,55.3306168 74.2070334,55.2721629 C74.7769135,55.1698686 77.8601112,53.7962019 77.991622,50.4351026 C78.2108066,46.1387409 74.1193595,41.4478154 66.8862656,41.4916558 Z M13.3421125,59.9992458 C11.1425708,62.5662164 8.0799179,63.5362925 6.75740868,62.7154588 C5.33745142,61.8349282 5.8942974,58.0441694 8.59500044,55.3279563 C10.2376961,53.6713649 12.3537109,52.1341674 13.759747,51.1939398 C14.0799334,50.9850003 14.5532525,50.6865154 15.1240196,50.3134092 C15.2214677,50.2537122 15.2771523,50.2238637 15.2771523,50.2238637 C15.3885215,50.1492425 15.4998907,50.0746212 15.6112599,50 C16.5996615,53.8803043 15.6530233,57.297957 13.3421125,59.9992458 Z M30.7490819,48.4594773 C29.883817,50.3699158 28.0746269,55.260068 26.9733807,54.9891849 C26.0294554,54.7610728 25.4473682,51.0542519 26.7845957,47.3902021 C27.4610755,45.5510486 28.8926955,43.3554701 29.7264962,42.5000499 C31.0794558,41.1313776 32.5740041,40.6751534 32.9358422,41.2311766 C33.3920727,41.9582838 31.2839729,47.261889 30.7490819,48.4594773 Z M43.8377187,54.7547646 C43.4978474,54.9382281 43.1727531,55.0605372 43.0249829,54.9688054 C42.9215438,54.9076509 43.1727531,54.6630328 43.1727531,54.6630328 C43.1727531,54.6630328 44.9312179,52.7060879 45.6257376,51.8193472 C46.024717,51.2995337 46.4975815,50.6879884 47,50 C47,50.0611545 47,50.1375977 47,50.1987522 C47,52.5379129 44.8130018,54.112642 43.8377187,54.7547646 Z M54.1177626,53 C53.8971452,52.8139535 53.9360776,52.1937984 54.675795,50.255814 C54.9612999,49.496124 55.6361298,48.2248062 56.7911271,47 C56.9209021,47.496124 57.0117445,47.9767442 56.998767,48.4263566 C56.9857895,51.4186047 55.1948949,52.5348837 54.1177626,53 Z" id="Shape" fill="#FFFFFF" fill-rule="nonzero" mask="url(#mask-2)"></path>
                    </g>
                </g>
            </g>
        </g>
    </g>
</svg>