<svg width="80" height="98" xmlns="http://www.w3.org/2000/svg"><g fill="#000" fill-rule="evenodd"><path d="M46.073 31.951h3.314V0h-3.314zM53.604 24.041h3.314V0h-3.314zM40.076 40.966h1.446V0h-1.446z"/><path d="M40.076 40.995h1.446v-3.262h-1.446zM53.451 52.822v3.262h26.446v-3.262zM46.107 45.277v3.262h33.791v-3.262zM46.073 30.32v3.262H79.9V30.32z"/><path d="M40.075 37.733v3.262h39.823v-3.262zM53.604 22.908v3.261H79.9v-3.261zM61 15.091v3.262h18.9v-3.262zM68.669 7.547v3.261h11.23V7.547z"/><path d="M68.669 8.751h3.314V.002H68.67zM60.999 18.353h3.314V.002h-3.314zM76.82.002v3.262h3.08V.002zM40.075 39.314v58.618l1.447-.944V39.314zM53.404 56.084v33.149l3.315-2.164V56.084zM45.873 45.277V94.15l.068-.045 3.247-2.119V45.277zM61.003 61.899v22.373l3.314-2.164V61.9zM68.669 67.806v11.462l3.314-2.164v-9.298z"/><path d="M70.76 67.815v3.261h9.137v-3.261zM61.004 60.266v3.262h18.893v-3.262zM30.747 31.951h3.313V0h-3.313zM23.215 24.041h3.314V0h-3.314zM38.611 40.966h1.447V0H38.61z"/><path d="M38.611 40.995h1.447v-3.262H38.61zM.236 52.822v3.262h26.446v-3.262zM.235 45.277v3.262h33.79v-3.262zM.235 30.32v3.262H34.06V30.32z"/><path d="M.235 37.733v3.262h39.823v-3.262zM.234 22.908v3.261H26.53v-3.261zM.234 15.091v3.262h18.9v-3.262zM.234 7.547v3.261h11.23V7.547z"/><path d="M8.15 8.751h3.315V.002H8.15zM15.82 18.353h3.315V.002H15.82zM.233.002v3.262h3.081V.002zM38.612 39.314v57.674l1.446.944V39.314zM23.415 56.084v30.985l3.314 2.164V56.084zM30.946 45.277v46.708l3.246 2.12.068.044V45.277zM15.816 61.899v20.21l3.315 2.163V61.899zM8.15 67.806v9.298l3.315 2.164V67.806z"/><path d="M.236 67.815v3.261h9.138v-3.261zM.236 60.266v3.262H19.13v-3.262z"/></g></svg>