<svg width="80" height="99" xmlns="http://www.w3.org/2000/svg" xmlns:xlink="http://www.w3.org/1999/xlink"><defs><path id="a" d="M.087.3h39.83v41.247H.087z"/><path id="c" d="M.317.3h30.354V30H.317z"/><path id="e" d="M.12.3h14.47v41.247H.12z"/><path id="g" d="M.087.3h11.207v41.247H.087z"/><path id="i" d="M39.914 41.393H.088v30.692L39.905 98.08l.008-.005 39.83-25.989V41.393z"/></defs><g fill="none" fill-rule="evenodd"><path fill="#FF1553" d="M.088 42.247h79.657V1H.088z"/><path fill="#FFF" d="M36.768 41.661h3.149V38.04z"/><g transform="translate(0 .114)"><mask id="b" fill="#fff"><use xlink:href="#a"/></mask><path fill="#FFF" mask="url(#b)" d="M10.663 122.458l13.413-15.432h-4.194l13.413-15.43h-4.458l13.414-15.433h-3.863L51.8 60.731h-4.194L61.021 45.3h-.01l.013-.015h-3.862l13.413-15.432H66.38l13.413-15.431h-4.458L88.75-1.01h-3.862L98.3-16.441h-4.194l13.413-15.432h-7.75L86.356-16.441h4.194L77.137-1.01H81L67.586 14.42h4.458L58.631 29.854h4.194L49.412 45.285h3.862L39.861 60.716h.01l-.013.015h4.194L30.638 76.163h3.863L21.088 91.595h4.458l-13.413 15.431h4.193L2.913 122.458h3.863l-13.413 15.431h7.75l13.413-15.431z"/></g><g transform="translate(9.246 .114)"><mask id="d" fill="#fff"><use xlink:href="#c"/></mask><path fill="#FFF" mask="url(#d)" d="M17.617 122.458l13.414-15.432h-4.194l13.413-15.43h-4.458l13.413-15.433h-3.862l13.413-15.432H54.56L67.975 45.3h-.01l.013-.015h-3.862l13.413-15.432h-4.194l13.413-15.431H82.29L95.704-1.01H91.84l13.413-15.432h-4.194l13.413-15.432h-7.75L93.31-16.441h4.195L84.09-1.01h3.863L74.541 14.42h4.457L65.585 29.854h4.194L56.366 45.285h3.863L46.816 60.716h.009l-.013.015h4.194L37.593 76.163h3.862L28.042 91.595H32.5l-13.413 15.431h4.194L9.868 122.458h3.862L.317 137.889h7.75l13.413-15.431z"/></g><g transform="translate(25.327 .114)"><mask id="f" fill="#fff"><use xlink:href="#e"/></mask><path fill="#FFF" mask="url(#f)" d="M17.42 122.458l13.414-15.432h-4.195l13.414-15.43h-4.458l13.413-15.433h-3.863L58.56 60.731h-4.194L67.778 45.3h-.01l.014-.015h-3.863l13.413-15.432h-4.194L86.55 14.422h-4.457L95.507-1.01h-3.863l13.413-15.432h-4.194l13.413-15.432h-7.75L93.113-16.441h4.194L83.894-1.01h3.863L74.343 14.42h4.458L65.388 29.854h4.194L56.17 45.285h3.863L46.619 60.716h.009l-.013.015h4.194L37.395 76.163h3.863L27.845 91.595h4.458L18.89 107.026h4.194L9.67 122.458h3.862L.12 137.889h7.75l13.413-15.431z"/></g><path d="M35.493 14.536h4.424v-5.09l-4.424 5.09zm-8.955 15.431h4.194L20.567 41.661h7.75l10.165-11.694h-4.194l5.629-6.476v-8.916l-13.38 15.392z" fill="#FFF"/><g transform="translate(0 .114)"><mask id="h" fill="#fff"><use xlink:href="#g"/></mask><path fill="#FFF" mask="url(#h)" d="M-85.562 122.458l13.414-15.432h-4.195l13.413-15.43h-4.457l13.413-15.433h-3.863l13.414-15.432h-4.195L-35.205 45.3h-.008l.013-.015h-3.863l13.413-15.432h-4.195l13.414-15.431h-4.458L-7.475-1.01h-3.863L2.075-16.441h-4.194l13.413-15.432h-7.75L-9.869-16.441h4.194L-19.088-1.01h3.863l-13.413 15.43h4.457l-13.413 15.432h4.194l-13.413 15.432h3.863l-13.413 15.431h.009l-.014.015h4.195l-13.414 15.432h3.864l-13.414 15.432h4.458l-13.414 15.431h4.195l-13.413 15.432h3.862l-13.413 15.431h7.75l13.413-15.431z"/></g><mask id="j" fill="#fff"><use xlink:href="#i"/></mask><use fill="#FFF" xlink:href="#i"/><path fill="#000" mask="url(#j)" d="M77.635 67.387l.014.008-.013.008.023.015-.022.014.014.008-.014.009 9.53 5.666 1.577-1.03V60.504z"/><path fill="#000" mask="url(#j)" d="M85.678 41.393l-8.636 5.35-.063-.036.22 6.928-11.12 6.81-11.232 6.96.014.008-.013.008.024.015-.024.014.014.008-.013.009 11.673 6.94 9.815 5.774 5.455-3.56-3.998-2.377-11.551-6.795v-.008l-.002-.029v-.008l11.12-6.813 11.384-7.053V41.393zM48.42 41h-9.756l-3.991 4.516-3.32 7.761-11.12 6.81L9 67.048l.014.008-.013.008.024.015-.023.014.014.009-.014.008 11.673 6.94 11.551 6.794.203 6.409 9.008 5.88 2.681 1.595 4.644 2.73 5.475-3.572-10.398-6.117v-.008l-.22-6.918L33.46 87.14l4.611-2.865 5.549-3.438-.007-.005.007-.004-11.673-6.94-11.551-6.795v-.009l-.001-.029v-.008l11.12-6.813 11.172-6.921.062.037-.219-6.918v-.009L51.38 41z"/><path fill="#000" mask="url(#j)" d="M25.42 41h-9.756l-3.991 4.516-3.32 7.761-11.12 6.81L-14 67.048l.014.008-.013.008.024.015-.023.014.014.009-.014.008 11.673 6.94 11.551 6.794.203 6.409 9.008 5.88 2.681 1.595 4.644 2.73 5.475-3.572-10.398-6.117v-.008l-.22-6.918L10.46 87.14l4.611-2.865 5.549-3.438-.007-.005.007-.004-11.673-6.94-11.551-6.795v-.009l-.001-.029v-.008l11.12-6.813 11.172-6.921.062.037-.219-6.918v-.009L28.38 41z"/><path fill="#000" mask="url(#j)" d="M5.42 41h-9.756l-3.991 4.516-3.32 7.761-11.12 6.81L-34 67.048l.014.008-.013.008.024.015-.023.014.014.009-.014.008 11.673 6.94 11.551 6.794.203 6.409 9.008 5.88 2.681 1.595 4.644 2.73 5.475-3.572L.839 87.768v-.008l-.22-6.918L-9.54 87.14l4.611-2.865L.62 80.836l-.007-.005.007-.004-11.673-6.94-11.551-6.795v-.009l-.001-.029v-.008l11.12-6.813 11.172-6.921.062.037-.219-6.918v-.009L8.38 41zM62.871 41.393l-8.641 5.354-.038-.023.22 6.935-11.175 6.927.001.049-10.956 6.787.014.009-.013.008.024.014-.023.015.013.008-.013.008 11.386 6.77v.004l11.613 6.909.22 6.934.036-.023 4.548 2.705 6.974-4.55-.159-5.02-.22.135v-.002l.22-.135-.007-.004.007-.004-11.673-6.941-11.551-6.795v-.008l-.001-.03v-.007l11.12-6.813 11.198-6.938.035.02-.22-6.918v-.008l-.004-.13 8.556-5.242z"/><path fill="#FFF" d="M.087.414v8.628l7.5-8.628zM15.72.414L3.445 14.536h4.458L.087 23.527V37.27l6.347-7.301H2.24l13.413-15.432h-4.458L23.47.414zM31.567.414L19.292 14.451h4.458l-13.413 15.34h4.194L4.367 41.414h7.75L22.28 29.791h-4.194L31.5 14.45h-4.458L39.317.414z"/></g></svg>