<?xml version="1.0" encoding="UTF-8" standalone="no"?>
<svg width="80px" height="94px" viewBox="0 0 80 94" version="1.1" xmlns="http://www.w3.org/2000/svg" xmlns:xlink="http://www.w3.org/1999/xlink">
    <!-- Generator: Sketch 50.2 (55047) - http://www.bohemiancoding.com/sketch -->
    <title>icon_shield_1</title>
    <desc>Created with Sketch.</desc>
    <defs></defs>
    <g id="Стайлгайд" stroke="none" stroke-width="1" fill="none" fill-rule="evenodd">
        <g id="styleguide_icons" transform="translate(-34.000000, -637.000000)" fill="#000000">
            <g id="icon_shield_1" transform="translate(34.000000, 637.000000)">
                <polygon id="Fill-1" points="56.3176926 0 52.1602882 0 54.2098534 3.59658462 52.1590908 0 51.1269241 0 45.7569434 9.42254948 39.9978047 19.6395125 39.9906203 19.6395125 39.966273 19.6395125 39.9594877 19.6395125 34.200349 9.42254948 28.8303683 0 23.0784141 0 17.1428571 0 22.4657398 9.33964029 22.4481778 9.36993403 28.3118901 9.36993403 34.0694323 19.5864984 39.9523032 29.9090909 39.9594877 29.8963356 39.966273 29.9090909 39.9782471 29.8871678 39.9906203 29.9090909 39.9978047 29.8963356 40.0045901 29.9090909 45.887461 19.5864984 51.6454023 9.36993403 57.5083164 9.36993403 57.5051233 9.3623606 57.5075181 9.35757737 57.5147026 9.36993403 62.8571429 0"></polygon>
                <polygon id="Fill-2" points="35 0 40.3309911 9.25757576 40.3381234 9.24582707 40.3448595 9.25757576 40.3571429 9.23642812 40.3694262 9.25757576 40.3765585 9.24582707 40.3832946 9.25757576 45.7142857 0"></polygon>
                <polygon id="Fill-3" points="75.1033633 20.2203669 75.0899121 20.2203669 69.2857143 20.2203669 75.0899121 30.6212121 75.0966377 30.6086975 75.1033633 30.6212121 80 21.8428245 80 11.3939394"></polygon>
                <polygon id="Fill-4" points="0 0 5.34874733 9.25757576 5.3559435 9.24536727 5.36273987 9.25757576 10.7142857 0"></polygon>
                <polygon id="Fill-5" points="0 21.0202161 5.5089965 30.6212121 5.516242 30.6084363 5.52308497 30.6212121 11.4285714 20.3351151 5.52308497 20.3351151 5.5089965 20.3351151 0 10.6818182"></polygon>
                <polygon id="Fill-6" points="69.7469164 0 71.6162719 3.28425615 69.745318 0 68.7123372 0 63.3356422 9.4440841 57.5697312 19.6835646 57.5625383 19.6835646 51.7003223 19.6835646 57.0302635 29.0409581 54.6058556 24.7939167 51.6947279 19.6835646 51.6911314 19.6895571 51.6879346 19.6835646 45.7985454 30.0285121 40.0326345 40.2683921 40.0254416 40.2683921 40.0010656 40.2683921 39.9938727 40.2683921 34.2283614 30.0285121 28.3701415 19.7386951 28.4013107 19.6835646 22.5386952 19.6835646 22.5319019 19.6835646 16.7659909 9.4440841 11.3896955 0.000399495943 10.3559155 0.000399495943 7.95868077 4.20948875 5 9.39135063 10.8706077 9.39135063 16.6349202 19.6308312 22.4935397 29.9210477 22.4619709 29.9761781 28.3329781 29.9761781 34.0972907 40.2156586 39.9866798 50.5606061 39.9938727 50.5486212 40.0010656 50.5606061 40.0130538 50.5390333 40.0254416 50.5606061 40.0326345 50.5486212 40.0394278 50.5606061 45.9288169 40.2156586 51.6935291 29.9761781 57.5637371 29.9761781 57.5633375 29.9749796 57.5697312 29.9637937 57.5769241 29.9761781 63.4667128 19.6308312 69.2310254 9.39135063 75.1020327 9.39135063 75.097637 9.38376021 75.1000346 9.37856676 75.1072275 9.39135063 80 0.801788358 80 0"></polygon>
                <polygon id="Fill-7" points="69.1358304 61.2484952 69.1318401 61.2424242 63.2509111 71.7228896 57.493283 82.0969111 57.4868985 82.0969111 51.6327046 82.0969111 51.6518582 82.1309084 45.7896837 92.5777812 45 94 52.8010694 88.7587555 63.7301482 81.415347 69.1378255 71.6694653 75 71.6694653 72.0459684 66.4197215 69.1394217 61.2424242"></polygon>
                <polygon id="Fill-8" points="75.1033633 61.5235826 75.0899121 61.5235826 69.2857143 61.5235826 75.0899121 71.9242424 75.0966377 71.912535 75.1033633 71.9242424 80 63.1456705 80 57.933835 80 52.6969697"></polygon>
                <polygon id="Fill-9" points="75.1072275 40.5909091 75.1000346 40.5909091 69.2338226 40.5909091 72.1245704 45.7208707 69.2322242 40.5909091 69.2286278 40.5969624 69.2254309 40.5909091 63.3356422 51.0413092 57.5697312 61.3847678 57.5625383 61.3847678 51.7003223 61.3847678 57.0298639 70.8367785 54.605456 66.5470136 51.6947279 61.3847678 51.6911314 61.3908211 51.6879346 61.3847678 45.7981458 71.8351678 40.0326345 82.1786265 40.0254416 82.1786265 40.000666 82.1786265 39.9938727 82.1786265 34.2283614 71.8351678 28.3697419 61.4400545 28.4013107 61.3847678 22.5386952 61.3847678 22.5319019 61.3847678 16.7659909 51.0413092 10.8762021 40.5909091 10.8730053 40.5969624 10.8694088 40.5909091 7.95868077 45.7535585 5 50.9876367 10.8706077 50.9876367 16.6349202 61.3314988 22.4931401 71.7258051 22.4619709 71.7814953 28.3329781 71.7814953 34.0972907 82.124954 39.9866798 92.5757576 39.9938727 92.5628439 40.000666 92.5757576 40.0130538 92.5539657 40.0254416 92.5757576 40.0326345 92.5628439 40.0394278 92.5757576 45.9288169 82.124954 51.6935291 71.7814953 57.5637371 71.7814953 57.5633375 71.7802847 57.5697312 71.7693888 57.5769241 71.7814953 63.4667128 61.3314988 69.2310254 50.9876367 75.0932413 50.9876367 75.0936409 50.9876367 75.1016331 50.9876367 75.097637 50.9803727 75.1000346 50.9755301 75.1072275 50.9876367 80 42.3112541 80 40.5909091"></polygon>
                <polygon id="Fill-10" points="69.1304546 19.9453879 69.1264607 19.9393939 63.2401406 30.2864854 57.5906632 40.3274877 57.5666994 40.3274877 57.5595102 40.3274877 51.6959558 40.3274877 51.8105829 40.5288832 51.8093847 40.5288832 51.6947576 40.3274877 51.691163 40.3334816 51.6875685 40.3274877 45.8012484 50.6749788 40.0383422 60.916977 40.031153 60.916977 40.0067898 60.916977 40 60.916977 34.2370938 50.6749788 28.3683472 40.3582565 28.3855213 40.3274877 22.5259608 40.3274877 22.5191711 40.3274877 22.4093368 40.3274877 16.75946 30.2864854 10.8731399 19.9393939 10.8695454 19.9453879 10.8663502 19.9393939 7.95673955 25.050603 5 30.2345382 10.8675484 30.2345382 16.6292564 40.4761368 22.4964054 50.7904615 22.4772343 50.8240274 28.3507737 50.8240274 34.2103341 61.1183725 34.2514721 61.1183725 39.9928108 71.2121212 40 71.2001334 40.0067898 71.2121212 40.0191711 71.1909427 40.031153 71.2121212 40.0383422 71.2001334 40.0451319 71.2121212 45.7872695 61.1183725 45.7896659 61.1183725 51.6492263 50.8240274 57.5223663 50.8240274 57.5035946 50.7904615 63.371143 40.4761368 69.1324516 30.2345382 75 30.2345382 72.0432605 25.050603 69.1340492 19.9393939"></polygon>
                <polygon id="Fill-11" points="5.54298552 40.5909091 5.5361656 40.5909091 0 40.5909091 0 41.2327386 5.52894452 51.2727273 5.5361656 51.2602887 5.54298552 51.2727273 11.4285714 40.5909091"></polygon>
                <polygon id="Fill-12" points="0 57.3758004 0 61.6111399 5.5089965 71.2121212 5.516242 71.2005427 5.52308497 71.2121212 11.4285714 60.9260115 5.52308497 60.9260115 5.5089965 60.9260115 0 51.2727273"></polygon>
                <polygon id="Fill-13" points="10.9422222 61.2483931 10.9389875 61.2424242 7.99334997 66.3326796 5 71.4941635 10.9402005 71.4941635 16.7348376 81.6269231 26.9647112 88.2961445 35.7142857 94 34.5991082 92.0509638 28.6589077 81.7797263 28.6783161 81.7463006 22.7462025 81.7463006 22.7393286 81.7463006 16.9050659 71.5466895 10.9458613 61.2424242"></polygon>
            </g>
        </g>
    </g>
</svg>