<?xml version="1.0" encoding="UTF-8" standalone="no"?>
<svg width="80px" height="98px" viewBox="0 0 80 98" version="1.1" xmlns="http://www.w3.org/2000/svg" xmlns:xlink="http://www.w3.org/1999/xlink">
    <!-- Generator: Sketch 50.2 (55047) - http://www.bohemiancoding.com/sketch -->
    <title>icon_shield_4</title>
    <desc>Created with Sketch.</desc>
    <defs></defs>
    <g id="Стайлгайд" stroke="none" stroke-width="1" fill="none" fill-rule="evenodd">
        <g id="styleguide_icons" transform="translate(-364.000000, -638.000000)" fill="#000000">
            <g id="icon_shield_4" transform="translate(364.000000, 638.000000)">
                <polygon id="Fill-1" points="46.0731658 31.9513568 49.3873367 31.9513568 49.3873367 -2.84217094e-14 46.0731658 -2.84217094e-14"></polygon>
                <polygon id="Fill-2" points="53.6040201 24.041005 56.918191 24.041005 56.918191 0 53.6040201 0"></polygon>
                <polygon id="Fill-3" points="40.0755779 40.9660302 41.5224121 40.9660302 41.5224121 -2.84217094e-14 40.0755779 -2.84217094e-14"></polygon>
                <polygon id="Fill-4" points="40.0755779 40.9945729 41.5224121 40.9945729 41.5224121 37.7330653 40.0755779 37.7330653"></polygon>
                <polygon id="Fill-5" points="53.4511357 52.8222714 53.4511357 56.0837789 79.8973668 56.0837789 79.8977688 52.8222714"></polygon>
                <polygon id="Fill-6" points="46.1074975 45.2774673 46.1074975 48.5393769 79.8980503 48.5393769 79.8980503 45.2774673"></polygon>
                <polygon id="Fill-7" points="46.0731256 30.3202814 46.0731256 33.582191 79.8986533 33.582191 79.8986533 30.3202814"></polygon>
                <polygon id="Fill-8" points="40.0754171 37.7330251 40.0754171 40.9945327 79.8981307 40.9945327 79.8985327 37.7330251"></polygon>
                <polygon id="Fill-9" points="53.6041809 22.9075377 53.6041809 26.1694472 79.8988543 26.1694472 79.8992563 22.9075377"></polygon>
                <polygon id="Fill-10" points="60.999196 15.0913769 60.999196 18.3532864 79.8992965 18.3532864 79.8992965 15.0913769"></polygon>
                <polygon id="Fill-11" points="68.6688241 7.54693467 68.6688241 10.8084422 79.8997789 10.8084422 79.8997789 7.54693467"></polygon>
                <polygon id="Fill-12" points="68.6689447 8.75095477 71.9831156 8.75095477 71.9831156 0.00201005025 68.6689447 0.00201005025"></polygon>
                <polygon id="Fill-13" points="60.998995 18.3533668 64.3127638 18.3533668 64.3127638 0.00201005025 60.998995 0.00201005025"></polygon>
                <polygon id="Fill-14" points="76.8192965 0.00213065327 76.8192965 3.2640402 79.8998995 3.2640402 79.8998995 0.00213065327"></polygon>
                <polygon id="Fill-15" points="40.0754171 39.3137688 40.0754171 97.9320603 41.5222513 96.9881407 41.5222513 39.3137688"></polygon>
                <polygon id="Fill-16" points="53.4044623 56.0839799 53.4044623 89.2325226 56.7190352 87.0685025 56.7190352 56.0839799"></polygon>
                <polygon id="Fill-17" points="45.873407 45.2774673 45.873407 94.1486231 45.9413467 94.104402 49.1875779 91.985005 49.1875779 45.2774673"></polygon>
                <polygon id="Fill-18" points="61.0028141 61.8989749 61.0028141 84.2720402 64.3169849 82.1084221 64.3169849 61.8989749"></polygon>
                <polygon id="Fill-19" points="68.6688241 67.8058693 68.6688241 79.2675779 71.982995 77.1039598 71.982995 67.8058693"></polygon>
                <polygon id="Fill-20" points="70.7593568 67.8145528 70.7593568 71.0764623 79.8970452 71.0764623 79.8970452 67.8145528"></polygon>
                <polygon id="Fill-21" points="61.0035377 60.2657688 61.0035377 63.5276784 79.897206 63.5276784 79.897206 60.2657688"></polygon>
                <polygon id="Fill-22" points="30.7465327 31.9513568 34.0603015 31.9513568 34.0603015 -2.84217094e-14 30.7465327 -2.84217094e-14"></polygon>
                <polygon id="Fill-23" points="23.2152764 24.041005 26.5294472 24.041005 26.5294472 0 23.2152764 0"></polygon>
                <polygon id="Fill-24" points="38.6114573 40.9660302 40.0578894 40.9660302 40.0578894 -2.84217094e-14 38.6114573 -2.84217094e-14"></polygon>
                <polygon id="Fill-25" points="38.6114573 40.9945729 40.0578894 40.9945729 40.0578894 37.7330653 38.6114573 37.7330653"></polygon>
                <polygon id="Fill-26" points="0.235738693 52.8222714 0.235738693 56.0837789 26.6823719 56.0837789 26.6823719 52.8222714"></polygon>
                <polygon id="Fill-27" points="0.235417085 45.2774673 0.235417085 48.5393769 34.0255678 48.5393769 34.0255678 45.2774673"></polygon>
                <polygon id="Fill-28" points="0.234733668 30.3202814 0.234733668 33.582191 34.0602613 33.582191 34.0602613 30.3202814"></polygon>
                <polygon id="Fill-29" points="0.235055276 37.7330251 0.235055276 40.9945327 40.0581709 40.9945327 40.0581709 37.7330251"></polygon>
                <polygon id="Fill-30" points="0.23441206 22.9075377 0.23441206 26.1694472 26.5294874 26.1694472 26.5294874 22.9075377"></polygon>
                <polygon id="Fill-31" points="0.234050251 15.0913769 0.234050251 18.3532864 19.1345528 18.3532864 19.1345528 15.0913769"></polygon>
                <polygon id="Fill-32" points="0.233688442 7.54693467 0.233688442 10.8084422 11.4646432 10.8084422 11.4646432 7.54693467"></polygon>
                <polygon id="Fill-33" points="8.14994975 8.75095477 11.4645226 8.75095477 11.4645226 0.00201005025 8.14994975 0.00201005025"></polygon>
                <polygon id="Fill-34" points="15.8203015 18.3533668 19.1348744 18.3533668 19.1348744 0.00201005025 15.8203015 0.00201005025"></polygon>
                <polygon id="Fill-35" points="0.233366834 0.00213065327 0.233366834 3.2640402 3.31396985 3.2640402 3.31396985 0.00213065327"></polygon>
                <polygon id="Fill-36" points="38.6115377 39.3137688 38.6115377 96.9881407 40.0579698 97.9320603 40.0579698 39.3137688"></polygon>
                <polygon id="Fill-37" points="23.4148342 56.0839799 23.4148342 87.0689045 26.729005 89.2325226 26.729005 56.0839799"></polygon>
                <polygon id="Fill-38" points="30.9458894 45.2774673 30.9458894 91.985005 34.1921206 94.104402 34.2600603 94.1486231 34.2600603 45.2774673"></polygon>
                <polygon id="Fill-39" points="15.8164824 61.8989749 15.8164824 82.1084221 19.1306533 84.2720402 19.1306533 61.8989749"></polygon>
                <polygon id="Fill-40" points="8.15011055 67.8058693 8.15011055 77.1039598 11.4646834 79.2675779 11.4646834 67.8058693"></polygon>
                <polygon id="Fill-41" points="0.236422111 67.8145528 0.236422111 71.0764623 9.37411055 71.0764623 9.37411055 67.8145528"></polygon>
                <polygon id="Fill-42" points="0.236100503 60.2657688 0.236100503 63.5276784 19.1297688 63.5276784 19.1297688 60.2657688"></polygon>
            </g>
        </g>
    </g>
</svg>