<svg width="80" height="98" xmlns="http://www.w3.org/2000/svg" xmlns:xlink="http://www.w3.org/1999/xlink"><defs><path id="a" d="M56.43.234H.376v70.624l10.42 7.09L27.187 89.1l12.854 8.745L52.894 89.1l16.39-11.152 10.42-7.09V.233z"/><path id="c" d="M56.43.234H.376v70.624l10.42 7.09L27.187 89.1l12.854 8.745L52.894 89.1l16.39-11.152 10.42-7.09V.233z"/><path id="e" d="M56.43.234H.376v70.624l10.42 7.09L27.187 89.1l12.854 8.745L52.894 89.1l16.39-11.152 10.42-7.09V.233z"/></defs><g fill="none" fill-rule="evenodd"><path fill="#FF1553" d="M67.09 35.563l-13.479 7.88.016.01-.016.009.028.016-.028.016.016.01-.016.01 13.48 7.88 12.613 7.29V50.836l-12.682-7.332V43.452l12.682-7.332v-7.848z"/><g transform="translate(0 .105)"><mask id="b" fill="#fff"><use xlink:href="#a"/></mask><path fill="#FF1553" mask="url(#b)" d="M67.022 90.237v-7.844l-13.41 7.844.016.01-.016.008 13.479 7.88L93.844 113.6v-7.75L67.022 90.255z"/></g><path fill="#FF1553" d="M60.067.34l6.955 4.067V.339zM67.09 12.2l-13.407 7.838-.072-.042v7.855L40.27 35.563l-13.479 7.88.016.01-.016.009.028.016-.028.016.016.01-.016.01 13.48 7.88 13.341 7.711v7.855h.002l.014.008-.016.01 13.48 7.88 3.724 2.152 6.237-4.243-10.03-5.8v-7.852l-12.192 7.13 5.533-3.244 6.659-3.894-.008-.005.008-.005-13.48-7.88-13.341-7.713V43.452l13.342-7.714L66.95 27.9l.072.042V20.09l12.682-7.332V4.909z"/><g transform="translate(0 .105)"><mask id="d" fill="#fff"><use xlink:href="#c"/></mask><path fill="#FF1553" mask="url(#d)" d="M13.642 82.347l-.008-.005.008-.005-13.479-7.88-13.342-7.713V58.89l-.043.026-13.436-7.854L-40 43.348v7.75l13.41 7.844v7.862l.044-.026 13.436 7.855L.232 82.345V90.2l6.752-3.959z"/></g><g transform="translate(0 .105)"><mask id="f" fill="#fff"><use xlink:href="#e"/></mask><path fill="#FF1553" mask="url(#f)" d="M13.642 90.256v-7.863L.232 90.237l.016.01-.016.009 13.48 7.88L40.463 113.6v-7.75z"/></g><path d="M27.053.34v4.148L13.71 12.2.376 19.996V35.614L13.571 27.9l.071.043v-7.854l13.342-7.714 13.48-7.88-.008-.004.008-.005-6.66-3.894-.43-.253h-6.321zM.376 58.122v8.938l13.335 7.796 13.342 7.712v6.544l.133.091L40.04 97.95l.424-.288V82.573l-6.617 3.868 6.617-3.87-.008-.005.008-.005-13.48-7.88-13.342-7.713v-7.853L1.45 66.245l5.534-3.243 6.658-3.895-.008-.005.008-.005L.376 51.343v6.78zM56.43.34h-2.818v4.115L40.27 12.167l-13.436 7.855-.044-.026v7.863l-13.41 7.843v.055L.376 43.36v.239l13.004 7.601v.004l13.41 7.844v7.862l.044-.026 13.436 7.854 13.342 7.713v6.266l11.157-7.591-11.226-6.563L40.463 67v-7.891l-.262.154v-.002l.263-.154-.008-.005.008-.005-13.48-7.88-13.342-7.713V43.452l13.342-7.714 13.44-7.856.04.023v-8l13.079-7.562 13.479-7.88-.008-.005.008-.005L60.363.56l-.374-.22zM33.422.34l7.042 4.118V.34zM6.688.34l6.954 4.067V.34zM.376.34v11.878l13.267-7.755-.008-.005.008-.005L6.983.56 6.61.339z" fill="#FF1553"/></g></svg>