<?xml version="1.0" encoding="UTF-8" standalone="no"?>
<svg width="80px" height="98px" viewBox="0 0 80 98" version="1.1" xmlns="http://www.w3.org/2000/svg" xmlns:xlink="http://www.w3.org/1999/xlink">
    <!-- Generator: Sketch 50.2 (55047) - http://www.bohemiancoding.com/sketch -->
    <title>icon_shield_5</title>
    <desc>Created with Sketch.</desc>
    <defs>
        <polygon id="path-1" points="56.4304 0.2344 23.6504 0.2344 0.376 0.2348 0.376 24.14 0.376 58.0184 0.376 70.8572 10.7968 77.9476 27.1864 89.0996 40.0404 97.8452 52.894 89.0996 69.2836 77.9476 79.7044 70.8572 79.7044 58.0184 79.7044 24.14 79.7044 0.2344"></polygon>
        <polygon id="path-3" points="56.4304 0.2344 23.6504 0.2344 0.376 0.2348 0.376 24.14 0.376 58.0184 0.376 70.8572 10.7968 77.9476 27.1864 89.0996 40.0404 97.8452 52.894 89.0996 69.2836 77.9476 79.7044 70.8572 79.7044 58.0184 79.7044 24.14 79.7044 0.2344"></polygon>
        <polygon id="path-5" points="56.4304 0.2344 23.6504 0.2344 0.376 0.2348 0.376 24.14 0.376 58.0184 0.376 70.8572 10.7968 77.9476 27.1864 89.0996 40.0404 97.8452 52.894 89.0996 69.2836 77.9476 79.7044 70.8572 79.7044 58.0184 79.7044 24.14 79.7044 0.2344"></polygon>
    </defs>
    <g id="Стайлгайд" stroke="none" stroke-width="1" fill="none" fill-rule="evenodd">
        <g id="styleguide_icons" transform="translate(-473.000000, -637.000000)">
            <g id="icon_shield_5" transform="translate(473.000000, 637.000000)">
                <polygon id="Fill-1" fill="#FF1553" points="67.09064 35.5632 53.61144 43.4432 53.62744 43.4528 53.61144 43.462 53.63944 43.478 53.61144 43.4944 53.62744 43.5036 53.61144 43.5136 67.09064 51.3932 79.70424 58.6844 79.70424 58.1232 79.70424 50.8364 67.02184 43.5036 67.02184 43.4944 67.02184 43.462 67.02184 43.4528 79.70424 36.1196 79.70424 28.272"></polygon>
                <g id="Group-4" transform="translate(0.000000, 0.104800)">
                    <mask id="mask-2" fill="white">
                        <use xlink:href="#path-1"></use>
                    </mask>
                    <g id="Clip-3"></g>
                    <polygon id="Fill-2" fill="#FF1553" mask="url(#mask-2)" points="67.02204 90.237 67.02204 82.3934 53.61164 90.237 53.62764 90.2462 53.61164 90.2554 67.09084 98.1358 93.84364 113.6002 93.84364 105.8498 67.02204 90.2554"></polygon>
                </g>
                <polygon id="Fill-5" fill="#FF1553" points="60.06744 0.33936 67.02184 4.40696 67.02184 0.33936"></polygon>
                <polygon id="Fill-6" fill="#FF1553" points="67.09064 12.20028 53.68264 20.03828 53.61144 19.99588 53.61144 27.85108 40.26944 35.56308 26.79024 43.44308 26.80624 43.45268 26.79024 43.46188 26.81824 43.47828 26.79024 43.49428 26.80624 43.50388 26.79024 43.51348 40.26944 51.39308 53.61144 59.10548 53.61144 66.95988 53.61304 66.95908 53.62744 66.96788 53.61144 66.97708 67.09064 74.85708 70.81544 77.01028 77.05184 72.76708 67.02184 66.96788 67.02184 66.95828 67.02184 59.11468 54.83024 66.24548 60.36344 63.00148 67.02184 59.10708 67.01424 59.10228 67.02184 59.09748 53.54264 51.21788 40.20064 43.50388 40.20064 43.49428 40.20064 43.46188 40.20064 43.45268 53.54264 35.73828 66.95024 27.90028 67.02184 27.94228 67.02184 20.09868 67.02184 20.08948 79.70424 12.75668 79.70424 4.90868"></polygon>
                <g id="Group-13" transform="translate(0.000000, 0.104800)">
                    <g id="Group-9">
                        <mask id="mask-4" fill="white">
                            <use xlink:href="#path-3"></use>
                        </mask>
                        <g id="Clip-8"></g>
                        <polygon id="Fill-7" fill="#FF1553" mask="url(#mask-4)" points="13.64236 82.34676 13.63436 82.34196 13.64236 82.33716 0.16316 74.45756 -13.17884 66.74356 -13.17884 66.73396 -13.17884 58.89036 -13.22244 58.91596 -26.65844 51.06196 -39.99964 43.34756 -39.99964 51.09796 -26.58964 58.94156 -26.58964 66.80396 -26.54604 66.77836 -13.11004 74.63276 0.23196 82.34516 0.23196 90.19956 6.98396 86.24116"></polygon>
                    </g>
                    <g id="Group-12">
                        <mask id="mask-6" fill="white">
                            <use xlink:href="#path-5"></use>
                        </mask>
                        <g id="Clip-11"></g>
                        <polygon id="Fill-10" fill="#FF1553" mask="url(#mask-6)" points="13.64236 90.25556 13.64236 90.23716 13.64236 82.39316 0.23196 90.23716 0.24756 90.24636 0.23196 90.25556 13.71116 98.13556 40.46396 113.59996 40.46396 105.84956"></polygon>
                    </g>
                </g>
                <path d="M27.05288,0.33936 L27.05288,4.48776 L13.71128,12.20016 L0.37608,19.99576 L0.37608,24.24496 L0.37608,35.61376 L13.57088,27.90016 L13.64248,27.94256 L13.64248,20.09856 L13.64248,20.08936 L26.98408,12.37536 L40.46408,4.49536 L40.45568,4.49096 L40.46408,4.48616 L33.80488,0.59176 L33.37408,0.33936 L27.05288,0.33936 Z M0.37608,58.12336 L0.37608,67.06136 L13.71128,74.85736 L27.05288,82.56936 L27.05288,89.11336 L27.18648,89.20416 L40.04008,97.95016 L40.46408,97.66176 L40.46408,90.43136 L40.46408,90.42216 L40.46408,82.57296 L33.84728,86.44096 L40.46408,82.57096 L40.45568,82.56616 L40.46408,82.56136 L26.98408,74.68176 L13.64248,66.96776 L13.64248,66.95856 L13.64248,59.11496 L1.45008,66.24576 L6.98368,63.00176 L13.64248,59.10736 L13.63448,59.10216 L13.64248,59.09736 L0.37608,51.34256 L0.37608,58.12336 Z" id="Fill-14" fill="#FF1553"></path>
                <polygon id="Fill-15" fill="#FF1553" points="56.43032 0.33936 53.61152 0.33936 53.61152 4.45536 40.26952 12.16736 26.83352 20.02216 26.79032 19.99616 26.79032 27.85856 13.37952 35.70216 13.37952 35.75736 0.37632 43.35896 0.37632 43.59776 13.37952 51.19896 13.37952 51.20296 26.79032 59.04656 26.79032 66.90896 26.83352 66.88296 40.26952 74.73736 53.61152 82.45016 53.61152 88.71616 64.76872 81.12496 53.54272 74.56216 40.46392 66.99976 40.46392 66.96736 40.46392 66.95816 40.46392 59.10896 40.20072 59.26256 40.20072 59.26056 40.46392 59.10736 40.45552 59.10216 40.46392 59.09736 26.98392 51.21776 13.64232 43.50376 13.64232 43.49456 13.64232 43.46216 13.64232 43.45256 26.98392 35.73816 40.42352 27.88176 40.46392 27.90536 40.46392 20.06176 40.46392 20.05216 40.46392 19.90496 53.54272 12.34256 67.02192 4.46296 67.01432 4.45816 67.02192 4.45336 60.36312 0.55896 59.98872 0.33936"></polygon>
                <polygon id="Fill-16" fill="#FF1553" points="33.42172 0.33936 40.46412 4.45816 40.46412 0.33936"></polygon>
                <polygon id="Fill-17" fill="#FF1553" points="6.68832 0.33964 13.64232 4.40684 13.64232 0.33964"></polygon>
                <polygon id="Fill-18" fill="#FF1553" points="0.37616 0.33972 0.37616 12.21772 13.64256 4.46292 13.63456 4.45812 13.64256 4.45332 6.98376 0.55892 6.60936 0.33972"></polygon>
            </g>
        </g>
    </g>
</svg>