<?xml version="1.0" encoding="UTF-8" standalone="no"?>
<svg width="80px" height="99px" viewBox="0 0 80 99" version="1.1" xmlns="http://www.w3.org/2000/svg" xmlns:xlink="http://www.w3.org/1999/xlink">
    <!-- Generator: Sketch 50.2 (55047) - http://www.bohemiancoding.com/sketch -->
    <title>icon_shield_3</title>
    <desc>Created with Sketch.</desc>
    <defs>
        <polygon id="path-1" points="0.0872361809 0.299899497 39.9167839 0.299899497 39.9167839 41.5469347 0.0872361809 41.5469347"></polygon>
        <polygon id="path-3" points="0.317386935 0.299899497 30.6705528 0.299899497 30.6705528 30 0.317386935 30"></polygon>
        <polygon id="path-5" points="0.120080402 0.299899497 14.5901508 0.299899497 14.5901508 41.5469347 0.120080402 41.5469347"></polygon>
        <polygon id="path-7" points="0.0872361809 0.299899497 11.2939899 0.299899497 11.2939899 41.5469347 0.0872361809 41.5469347"></polygon>
        <polygon id="path-9" points="39.9135678 41.3933668 39.1477387 41.3933668 0.0872361809 41.3933668 0.0872361809 72.0852261 39.9059296 98.078794 39.9135678 98.0735678 79.7447236 72.0852261 79.7447236 41.3933668"></polygon>
    </defs>
    <g id="Стайлгайд" stroke="none" stroke-width="1" fill="none" fill-rule="evenodd">
        <g id="styleguide_icons" transform="translate(-255.000000, -637.000000)">
            <g id="icon_shield_3" transform="translate(255.000000, 637.000000)">
                <polygon id="Fill-1" fill="#FF1553" points="0.087638191 42.2470352 79.7447236 42.2470352 79.7447236 1 0.087638191 1"></polygon>
                <polygon id="Fill-2" fill="#FFFFFF" points="36.7681608 41.6611055 39.9167035 41.6611055 39.9167035 38.038995"></polygon>
                <g id="Group-12" transform="translate(0.000000, 0.114171)">
                    <g id="Group-5">
                        <mask id="mask-2" fill="white">
                            <use xlink:href="#path-1"></use>
                        </mask>
                        <g id="Clip-4"></g>
                        <polygon id="Fill-3" fill="#FFFFFF" mask="url(#mask-2)" points="10.6631558 122.457849 24.0762211 107.026291 19.8824523 107.026291 33.2951156 91.5951357 28.8372261 91.5951357 42.2506935 76.1631759 38.3877789 76.1631759 51.8012462 60.7312161 47.6070754 60.7312161 61.0205427 45.2996583 61.0112965 45.2996583 61.0241608 45.2847839 57.1616482 45.2847839 70.5747136 29.8532261 66.3805427 29.8532261 79.793608 14.4216683 75.3361206 14.4216683 88.7491859 -1.00948744 84.8866734 -1.00948744 98.2997387 -16.4414472 94.1055678 -16.4414472 107.519035 -31.873005 99.7686834 -31.873005 86.3556181 -16.4414472 90.5497889 -16.4414472 77.1367236 -1.00948744 80.9996382 -1.00948744 67.5861709 14.4216683 72.0440603 14.4216683 58.630593 29.8532261 62.8247638 29.8532261 49.4121005 45.2847839 53.2742111 45.2847839 39.8611457 60.7163417 39.870392 60.7163417 39.8575276 60.7312161 44.0516985 60.7312161 30.6382312 76.1631759 34.5011457 76.1631759 21.0880804 91.5951357 25.5455678 91.5951357 12.1325025 107.026291 16.3262714 107.026291 2.91320603 122.457849 6.7761206 122.457849 -6.63734673 137.889407 1.11260302 137.889407 14.5256683 122.457849"></polygon>
                    </g>
                    <g id="Group-8" transform="translate(9.246231, 0.000000)">
                        <mask id="mask-4" fill="white">
                            <use xlink:href="#path-3"></use>
                        </mask>
                        <g id="Clip-7"></g>
                        <polygon id="Fill-6" fill="#FFFFFF" mask="url(#mask-4)" points="17.6174874 122.457849 31.0305528 107.026291 26.8367839 107.026291 40.2498492 91.5951357 35.7919598 91.5951357 49.2050251 76.1631759 45.3425126 76.1631759 58.7555779 60.7312161 54.561407 60.7312161 67.9748744 45.2996583 67.9656281 45.2996583 67.9784925 45.2847839 64.1159799 45.2847839 77.5290452 29.8532261 73.3348744 29.8532261 86.7479397 14.4216683 82.2904523 14.4216683 95.7035176 -1.00948744 91.841005 -1.00948744 105.25407 -16.4414472 101.059899 -16.4414472 114.473367 -31.873005 106.723015 -31.873005 93.3099497 -16.4414472 97.5045226 -16.4414472 84.0910553 -1.00948744 87.9539698 -1.00948744 74.5405025 14.4216683 78.998392 14.4216683 65.5849246 29.8532261 69.7790955 29.8532261 56.3664322 45.2847839 60.2285427 45.2847839 46.8158794 60.7163417 46.8247236 60.7163417 46.8118593 60.7312161 51.0060302 60.7312161 37.5925628 76.1631759 41.4554774 76.1631759 28.0424121 91.5951357 32.4998995 91.5951357 19.0868342 107.026291 23.280603 107.026291 9.8679397 122.457849 13.7304523 122.457849 0.317386935 137.889407 8.06733668 137.889407 21.48 122.457849"></polygon>
                    </g>
                    <g id="Group-11" transform="translate(25.326633, 0.000000)">
                        <mask id="mask-6" fill="white">
                            <use xlink:href="#path-5"></use>
                        </mask>
                        <g id="Clip-10"></g>
                        <polygon id="Fill-9" fill="#FFFFFF" mask="url(#mask-6)" points="17.4205829 122.457849 30.8336482 107.026291 26.6390754 107.026291 40.0525427 91.5951357 35.5950553 91.5951357 49.0081206 76.1631759 45.145206 76.1631759 58.5586734 60.7312161 54.3645025 60.7312161 67.7775678 45.2996583 67.7687236 45.2996583 67.7815879 45.2847839 63.9190754 45.2847839 77.3321407 29.8532261 73.1375678 29.8532261 86.5506332 14.4216683 82.0935477 14.4216683 95.5066131 -1.00948744 91.6436985 -1.00948744 105.057166 -16.4414472 100.862995 -16.4414472 114.275658 -31.873005 106.526111 -31.873005 93.1130452 -16.4414472 97.3072161 -16.4414472 83.8937487 -1.00948744 87.7566633 -1.00948744 74.343196 14.4216683 78.8010854 14.4216683 65.3880201 29.8532261 69.582191 29.8532261 56.1687236 45.2847839 60.0320402 45.2847839 46.6185729 60.7163417 46.6278191 60.7163417 46.6149548 60.7312161 50.8087236 60.7312161 37.3952563 76.1631759 41.2581709 76.1631759 27.8447035 91.5951357 32.302593 91.5951357 18.8899296 107.026291 23.0836985 107.026291 9.67063317 122.457849 13.5331457 122.457849 0.120080402 137.889407 7.87003015 137.889407 21.2830955 122.457849"></polygon>
                    </g>
                </g>
                <path d="M35.4931859,14.5359196 L39.9165025,14.5359196 L39.9165025,9.44687437 L35.4931859,14.5359196 Z M26.537608,29.9674774 L30.7317789,29.9674774 L20.5673568,41.6611457 L28.3173065,41.6611457 L38.4817286,29.9674774 L34.2875578,29.9674774 L39.9165025,23.4910955 L39.9165025,14.5749146 L26.537608,29.9674774 Z" id="Fill-13" fill="#FFFFFF"></path>
                <g id="Group-16" transform="translate(0.000000, 0.114171)">
                    <mask id="mask-8" fill="white">
                        <use xlink:href="#path-7"></use>
                    </mask>
                    <g id="Clip-15"></g>
                    <polygon id="Fill-14" fill="#FFFFFF" mask="url(#mask-8)" points="-85.5618894 122.457849 -72.1484221 107.026291 -76.342995 107.026291 -62.9295276 91.5951357 -67.3874171 91.5951357 -53.9735477 76.1631759 -57.8368643 76.1631759 -44.422995 60.7312161 -48.6175678 60.7312161 -35.2045025 45.2996583 -35.2133467 45.2996583 -35.2004824 45.2847839 -39.062995 45.2847839 -25.6499296 29.8532261 -29.8445025 29.8532261 -16.4310352 14.4216683 -20.8889246 14.4216683 -7.47545729 -1.00948744 -11.3383719 -1.00948744 2.07509548 -16.4414472 -2.11947739 -16.4414472 11.2939899 -31.873005 3.5440402 -31.873005 -9.86902513 -16.4414472 -5.67485427 -16.4414472 -19.0883216 -1.00948744 -15.225407 -1.00948744 -28.6384724 14.4216683 -24.1809849 14.4216683 -37.5940503 29.8532261 -33.3998794 29.8532261 -46.8129447 45.2847839 -42.9504322 45.2847839 -56.3634975 60.7163417 -56.3542513 60.7163417 -56.3675176 60.7312161 -52.1729447 60.7312161 -65.5868141 76.1631759 -61.7234975 76.1631759 -75.1369648 91.5951357 -70.6794774 91.5951357 -84.0929447 107.026291 -79.8983719 107.026291 -93.3110352 122.457849 -89.4485226 122.457849 -102.861588 137.889407 -95.1116382 137.889407 -81.6989749 122.457849"></polygon>
                </g>
                <mask id="mask-10" fill="white">
                    <use xlink:href="#path-9"></use>
                </mask>
                <use id="Clip-24" fill="#FFFFFF" xlink:href="#path-9"></use>
                <polygon id="Fill-21" fill="#000000" mask="url(#mask-10)" points="77.6345327 67.3868141 77.648603 67.3952563 77.6357387 67.4032965 77.6594573 67.4177688 77.6365427 67.4322412 77.6506131 67.4402814 77.6365427 67.4487236 87.166191 73.1150553 88.7444824 72.0851055 88.7444824 60.503598"></polygon>
                <polygon id="Fill-22" fill="#000000" mask="url(#mask-10)" points="85.6777487 41.3933668 77.0417688 46.7437186 76.9794573 46.7067337 77.1993568 53.6345729 66.0789548 60.4454271 54.846794 67.4046231 54.8612663 67.4126633 54.847598 67.4211055 54.8717186 67.4355779 54.848402 67.4496482 54.8620704 67.4580905 54.848804 67.4665327 66.5215678 74.4072362 76.3374472 80.1805025 81.7919196 76.6215075 77.7935276 74.2440201 66.2425729 67.4488442 66.2425729 67.440804 66.2413668 67.4122613 66.2413668 67.4038191 77.3613668 60.5909548 88.7446834 53.5384925 88.7446834 41.3933668"></polygon>
                <polygon id="Fill-26" fill="#000000" mask="url(#mask-10)" points="48.4194975 41 47.6540704 41 38.6643216 41 34.6727638 45.5157789 31.3525628 53.2769849 20.2325628 60.0878392 9 67.0470352 9.01407035 67.0554774 9.00080402 67.0631156 9.02492462 67.0775879 9.00160804 67.0920603 9.01567839 67.1005025 9.00201005 67.1089447 20.6747739 74.0492462 32.2261307 80.8428141 32.4287437 87.2516583 41.4365829 93.1318593 44.118392 94.7266332 48.761608 97.4570854 54.2369849 93.8848241 43.839397 87.7682412 43.838995 87.760201 43.6198995 80.8424121 33.4603015 87.1394975 38.0713568 84.2743719 43.6198995 80.8355779 43.6130653 80.8311558 43.6198995 80.8271357 31.9471357 73.8864322 20.3957789 67.0916583 20.3953769 67.0832161 20.3949749 67.0542714 20.3945729 67.0462312 31.5145729 60.2333668 42.6872362 53.3115578 42.7491457 53.3485427 42.5300503 46.4307538 42.5296482 46.4223116 51.3798995 41"></polygon>
                <polygon id="Fill-26-Copy" fill="#000000" mask="url(#mask-10)" points="25.4194975 41 24.6540704 41 15.6643216 41 11.6727638 45.5157789 8.35256281 53.2769849 -2.76743719 60.0878392 -14 67.0470352 -13.9859296 67.0554774 -13.999196 67.0631156 -13.9750754 67.0775879 -13.998392 67.0920603 -13.9843216 67.1005025 -13.9979899 67.1089447 -2.32522613 74.0492462 9.22613065 80.8428141 9.42874372 87.2516583 18.4365829 93.1318593 21.118392 94.7266332 25.761608 97.4570854 31.2369849 93.8848241 20.839397 87.7682412 20.838995 87.760201 20.6198995 80.8424121 10.4603015 87.1394975 15.0713568 84.2743719 20.6198995 80.8355779 20.6130653 80.8311558 20.6198995 80.8271357 8.94713568 73.8864322 -2.60422111 67.0916583 -2.60462312 67.0832161 -2.60502513 67.0542714 -2.60542714 67.0462312 8.51457286 60.2333668 19.6872362 53.3115578 19.7491457 53.3485427 19.5300503 46.4307538 19.5296482 46.4223116 28.3798995 41"></polygon>
                <polygon id="Fill-26-Copy-2" fill="#000000" mask="url(#mask-10)" points="5.41949749 41 4.65407035 41 -4.33567839 41 -8.32723618 45.5157789 -11.6474372 53.2769849 -22.7674372 60.0878392 -34 67.0470352 -33.9859296 67.0554774 -33.999196 67.0631156 -33.9750754 67.0775879 -33.998392 67.0920603 -33.9843216 67.1005025 -33.9979899 67.1089447 -22.3252261 74.0492462 -10.7738693 80.8428141 -10.5712563 87.2516583 -1.56341709 93.1318593 1.11839196 94.7266332 5.76160804 97.4570854 11.2369849 93.8848241 0.839396985 87.7682412 0.838994975 87.760201 0.619899497 80.8424121 -9.53969849 87.1394975 -4.92864322 84.2743719 0.619899497 80.8355779 0.613065327 80.8311558 0.619899497 80.8271357 -11.0528643 73.8864322 -22.6042211 67.0916583 -22.6046231 67.0832161 -22.6050251 67.0542714 -22.6054271 67.0462312 -11.4854271 60.2333668 -0.312763819 53.3115578 -0.250854271 53.3485427 -0.469949749 46.4307538 -0.470351759 46.4223116 8.3798995 41"></polygon>
                <polygon id="Fill-27" fill="#000000" mask="url(#mask-10)" points="62.8713568 41.3933668 54.2297487 46.7473367 54.1919598 46.7244221 54.4114573 53.6590955 43.2367839 60.5861307 43.238392 60.6347739 32.2824121 67.4223116 32.2956784 67.4307538 32.2828141 67.438794 32.3065327 67.4532663 32.2836181 67.4677387 32.2972864 67.4761809 32.2844221 67.4842211 43.6701508 74.2544724 43.6701508 74.2576884 55.2830151 81.1666332 55.5025126 88.1009045 55.5386935 88.078392 60.0874372 90.7831156 67.0611055 86.2331658 66.9023116 81.2124623 66.6828141 81.3483417 66.6828141 81.3463317 66.9023116 81.2108543 66.8950754 81.2068342 66.9019095 81.2028141 55.2287437 74.2617085 43.6777889 67.4669347 43.6773869 67.4588945 43.6765829 67.4299497 43.6761809 67.4215075 54.7965829 60.6090452 65.9949749 53.6711558 66.0303518 53.6912563 65.8108543 46.7734673 65.8104523 46.7650251 65.8064322 46.6351759 74.361608 41.3933668"></polygon>
                <polygon id="Fill-17" fill="#FFFFFF" points="0.0872763819 0.414150754 0.0872763819 9.04168844 7.58677387 0.414150754"></polygon>
                <polygon id="Fill-18" fill="#FFFFFF" points="15.7201206 0.414150754 3.44514573 14.5359598 7.90263317 14.5359598 0.0871557789 23.5273166 0.0871557789 37.2688241 6.43368844 29.9675176 2.23951759 29.9675176 15.6525829 14.5359598 11.1946935 14.5359598 23.4700704 0.414150754"></polygon>
                <polygon id="Fill-19" fill="#FFFFFF" points="31.5673568 0.414150754 19.2923819 14.451382 23.7498693 14.451382 10.336804 29.7905177 14.5313769 29.7905177 4.36695477 41.4141508 12.1169045 41.4141508 22.2805226 29.7905177 18.0867538 29.7905177 31.4998191 14.451382 27.0423317 14.451382 39.3173065 0.414150754"></polygon>
            </g>
        </g>
    </g>
</svg>