<svg width="80" height="94" xmlns="http://www.w3.org/2000/svg"><g fill="#000" fill-rule="evenodd"><path d="M56.318 0H52.16l2.05 3.597L52.16 0h-1.033l-5.37 9.423-5.76 10.217h-.038L34.2 9.423 28.83 0H17.143l5.323 9.34-.018.03h5.864l5.757 10.216 5.883 10.323.007-.013.007.013.012-.022.013.022.007-.013.007.013 5.882-10.323L51.645 9.37h5.863l-.003-.008.003-.004.007.012L62.857 0z"/><path d="M35 0l5.331 9.258.007-.012.007.012.012-.022.012.022.008-.012.006.012L45.714 0zM75.103 20.22h-5.817l5.804 10.401.007-.012.006.012L80 21.843v-10.45zM0 0l5.349 9.258.007-.013.007.013L10.714 0zM0 21.02l5.509 9.601.007-.013.007.013 5.906-10.286h-5.92L0 10.682z"/><path d="M69.747 0l1.87 3.284L69.744 0h-1.033l-5.376 9.444-5.766 10.24H51.7l5.33 9.357-2.424-4.247-2.911-5.11-.004.006-.003-.006-5.89 10.345-5.765 10.24h-.039l-5.766-10.24-5.858-10.29.031-.055h-5.869l-5.766-10.24L11.39 0h-1.034L7.959 4.21 5 9.39h5.87l5.765 10.24 5.859 10.29-.032.055h5.871l5.764 10.24 5.89 10.345.007-.012.007.012.012-.022.012.022.008-.012.006.012 5.89-10.345 5.765-10.24h5.87v-.001l.006-.011.007.012 5.89-10.345L69.23 9.39h5.871l-.004-.007.002-.005.007.012L80 .801V0zM69.136 61.248l-.004-.006-5.881 10.48-5.758 10.375h-5.86l.019.034-5.862 10.447L45 94l7.801-5.241 10.93-7.344 5.407-9.746H75l-2.954-5.25-2.907-5.177z"/><path d="M75.103 61.524h-5.817l5.804 10.4.007-.011.006.011L80 63.146V52.697zM75.107 40.59H69.234l2.89 5.13-2.892-5.13-.003.007-.004-.006-5.89 10.45-5.765 10.344H51.7l5.33 9.452-2.425-4.29-2.91-5.162-.004.006-.003-.006-5.89 10.45-5.765 10.344h-.039l-5.766-10.344L28.37 61.44l.031-.055h-5.869L16.766 51.04l-5.89-10.45-.003.006-.004-.006-2.91 5.163L5 50.988h5.87l5.765 10.343 5.858 10.395-.031.055h5.871l5.764 10.344 5.89 10.45.007-.012.007.013.012-.022.012.022.008-.013.006.013 5.89-10.451 5.765-10.344h5.87l.006-.012.007.012 5.89-10.45 5.764-10.343h5.871l-.004-.008.002-.004.007.012L80 42.31v-1.72z"/><path d="M69.13 19.945l-.004-.006-5.886 10.347-5.65 10.041h-5.894l.115.202h-.002l-.114-.202-.004.006-.003-.006L45.8 50.675l-5.763 10.242H40l-5.763-10.242-5.869-10.317.018-.03h-5.977l-5.65-10.042-5.886-10.347-.003.006-.004-.006-2.91 5.112L5 30.235h5.868l5.761 10.241 5.867 10.314-.019.034h5.874l5.86 10.294h.04l5.742 10.094L40 71.2l.007.012.012-.021.012.021.007-.012.007.012 5.742-10.094h.003l5.86-10.294h5.872l-.018-.034 5.867-10.314 5.761-10.241H75l-2.957-5.184-2.909-5.112zM5.543 40.59H0v.643l5.529 10.04.007-.013.007.013 5.886-10.682zM0 57.376v4.235l5.509 9.601.007-.011.007.011 5.906-10.286h-5.92L0 51.273z"/><path d="M10.942 61.248l-.003-.006-2.946 5.09L5 71.495h5.94l5.795 10.133 10.23 6.67L35.715 94l-1.116-1.949-5.94-10.271.02-.034H22.738l-5.834-10.2-5.96-10.304z"/></g></svg>