<svg xmlns="http://www.w3.org/2000/svg" width="25.906" height="25" viewBox="0 0 25.906 25"><path fill="#bac4d2" data-name="icon-refferal" d="M5.931 12.761a3.724 3.724 0 1 0 3.779 3.724 3.729 3.729 0 0 0-3.779-3.724zm0 6.384a2.66 2.66 0 1 1 2.7-2.66 2.654 2.654 0 0 1-2.7 2.66zm0 0a5.879 5.879 0 0 0-5.938 5.852h1.08a4.859 4.859 0 0 1 9.717 0h1.08a5.879 5.879 0 0 0-5.939-5.852zm14.037-6.384a3.724 3.724 0 1 0 3.779 3.724 3.728 3.728 0 0 0-3.776-3.724zm0 6.384a2.66 2.66 0 1 1 2.7-2.66 2.655 2.655 0 0 1-2.697 2.66zm0 0a5.879 5.879 0 0 0-5.937 5.852h1.08a4.859 4.859 0 0 1 9.717 0h1.08a5.879 5.879 0 0 0-5.937-5.852zM12.95-.008a3.724 3.724 0 1 0 3.779 3.725 3.729 3.729 0 0 0-3.776-3.725zm0 6.385a2.661 2.661 0 1 1 2.7-2.66 2.655 2.655 0 0 1-2.697 2.66zm0 0a5.878 5.878 0 0 0-5.939 5.852h1.08a4.859 4.859 0 0 1 9.717 0h1.08a5.878 5.878 0 0 0-5.935-5.852z"/></svg>