<svg xmlns="http://www.w3.org/2000/svg" width="25" height="18"><path fill-rule="evenodd" fill="#FFF" d="M24.564 2.891C24.258 1.518 23.171.504 21.862.353c-3.099-.357-6.237-.359-9.36-.357-3.123-.002-6.261 0-9.361.357C1.833.504.747 1.518.441 2.891.005 4.847 0 6.982 0 8.996c0 2.014 0 4.149.436 6.105.305 1.373 1.392 2.386 2.701 2.538 3.099.357 6.237.359 9.36.357 3.124.002 6.261 0 9.36-.357 1.308-.152 2.396-1.165 2.702-2.538.435-1.956.437-4.091.437-6.105 0-2.014.003-4.149-.432-6.105zM9.272 13.004v-8.54l7.947 4.283c-2.658 1.425-5.291 2.835-7.947 4.257z"/></svg>