<svg xmlns="http://www.w3.org/2000/svg" width="25.906" height="26.031" viewBox="0 0 25.906 26.031"><path fill="#bac4d2" data-name="icon-settings" d="M24.578 10.126h-2.424a.934.934 0 0 1-.658-1.594l1.714-1.72a1.342 1.342 0 0 0 0-1.894l-2.185-2.192a1.362 1.362 0 0 0-1.887 0l-1.714 1.72a.931.931 0 0 1-1.589-.661V1.352A1.337 1.337 0 0 0 14.501.014h-3.09a1.337 1.337 0 0 0-1.334 1.338v2.433a.931.931 0 0 1-1.589.661l-1.714-1.72a1.362 1.362 0 0 0-1.887 0L2.702 4.918a1.342 1.342 0 0 0 0 1.894l1.714 1.72a.934.934 0 0 1-.658 1.594H1.331a1.339 1.339 0 0 0-1.334 1.339v3.1a1.338 1.338 0 0 0 1.334 1.341h2.425a.935.935 0 0 1 .658 1.6L2.7 19.225a1.342 1.342 0 0 0 0 1.894l2.185 2.193a1.362 1.362 0 0 0 1.887 0l1.714-1.72a.931.931 0 0 1 1.589.661v2.432a1.337 1.337 0 0 0 1.334 1.339h3.09a1.338 1.338 0 0 0 1.334-1.339v-2.432a.931.931 0 0 1 1.589-.661l1.713 1.72a1.362 1.362 0 0 0 1.887 0l2.185-2.193a1.342 1.342 0 0 0 0-1.894l-1.714-1.719a.935.935 0 0 1 .659-1.6h2.424a1.337 1.337 0 0 0 1.334-1.338v-3.1a1.338 1.338 0 0 0-1.332-1.342zm.375 4.441a.375.375 0 0 1-.375.375h-2.424a1.9 1.9 0 0 0-1.337 3.239l1.714 1.725a.375.375 0 0 1 0 .531l-2.185 2.193a.373.373 0 0 1-.529 0l-1.714-1.724a1.89 1.89 0 0 0-3.228 1.342v2.432a.376.376 0 0 1-.374.376h-3.09a.376.376 0 0 1-.375-.376v-2.432a1.867 1.867 0 0 0-1.167-1.753 1.9 1.9 0 0 0-.735-.15 1.863 1.863 0 0 0-1.325.56l-1.714 1.721a.375.375 0 0 1-.53 0L3.38 20.433a.378.378 0 0 1 0-.532l1.715-1.719a1.9 1.9 0 0 0-1.337-3.239H1.331a.375.375 0 0 1-.374-.375v-3.1a.375.375 0 0 1 .374-.375h2.425a1.9 1.9 0 0 0 1.337-3.239l-1.715-1.72a.378.378 0 0 1 0-.532L5.563 3.41a.374.374 0 0 1 .53 0l1.714 1.719a1.889 1.889 0 0 0 3.227-1.341V1.355a.375.375 0 0 1 .375-.375h3.09a.375.375 0 0 1 .374.375v2.433a1.89 1.89 0 0 0 3.228 1.342l1.714-1.72a.372.372 0 0 1 .529 0l2.185 2.193a.375.375 0 0 1 0 .531l-1.714 1.72a1.9 1.9 0 0 0 1.337 3.239h2.424a.375.375 0 0 1 .375.375v3.1zm-12-5.885a4.334 4.334 0 1 0 4.319 4.334 4.331 4.331 0 0 0-4.316-4.334zm0 7.705a3.371 3.371 0 1 1 3.359-3.371 3.369 3.369 0 0 1-3.356 3.371z"/></svg>