<svg xmlns="http://www.w3.org/2000/svg" width="18" height="18"><path fill-rule="evenodd" fill="#FFF" d="M16.2 0H1.8C.81 0 0 .81 0 1.8v14.4c0 .99.81 1.8 1.8 1.8h14.4c.99 0 1.8-.81 1.8-1.8V1.8c0-.99-.81-1.8-1.8-1.8zM9 5.4c1.98 0 3.6 1.62 3.6 3.6s-1.62 3.6-3.6 3.6A3.61 3.61 0 0 1 5.4 9c0-1.98 1.62-3.6 3.6-3.6zM2.25 16.2c-.27 0-.45-.18-.45-.45V8.1h1.89c-.09.27-.09.63-.09.9 0 2.97 2.43 5.4 5.4 5.4s5.4-2.43 5.4-5.4c0-.27 0-.63-.09-.9h1.89v7.65c0 .27-.18.45-.45.45H2.25zM16.2 4.05c0 .269-.18.45-.45.45h-1.8c-.27 0-.45-.181-.45-.45v-1.8c0-.27.18-.45.45-.45h1.8c.27 0 .45.18.45.45v1.8z"/></svg>