<svg xmlns="http://www.w3.org/2000/svg" width="26.906" height="24" viewBox="0 0 26.906 24"><path data-name="icon-balance" d="M26.902 7.633a.5.5 0 0 0 .006-.054.47.47 0 0 0 0-.065.525.525 0 0 0-.009-.055.5.5 0 0 0-.02-.062c0-.01 0-.022-.01-.032s-.01-.013-.014-.021 0-.015-.01-.023L22.359.209a.439.439 0 0 0-.072-.088.46.46 0 0 0-.134-.082c-.006 0-.01-.008-.017-.01h-.015a.445.445 0 0 0-.141-.025H4.931a.433.433 0 0 0-.139.025.059.059 0 0 0-.014 0c-.007 0-.011.008-.017.01a.436.436 0 0 0-.129.078h-.008a.474.474 0 0 0-.073.088L.065 7.318c0 .007-.006.015-.01.023s-.01.013-.014.021a.3.3 0 0 0-.01.032.448.448 0 0 0-.02.062.485.485 0 0 0-.009.055.354.354 0 0 0 0 .065.5.5 0 0 0 .006.054.416.416 0 0 0 .017.063.328.328 0 0 0 .02.052.244.244 0 0 0 .01.024c.007.013.018.023.026.035s.01.02.017.029l13 16a.432.432 0 0 0 .133.1.281.281 0 0 0 .039.019.445.445 0 0 0 .172.039.463.463 0 0 0 .154-.027c.008 0 .013-.009.02-.012a.39.39 0 0 0 .062-.037.442.442 0 0 0 .092-.073c.006-.006.016-.01.022-.017l13.009-16c.007-.009.01-.02.017-.029a.288.288 0 0 0 .026-.035.244.244 0 0 0 .01-.024.465.465 0 0 0 .02-.052.323.323 0 0 0 .028-.052zM14.402.889h6.929l-2.18 5.8zm3.946 6.224H8.571l4.888-5.963zM7.73 6.727L5.578.889h6.939zM18.658 8l-5.282 14.049L8.195 8h10.463zm3.422-6.556l3.574 5.667h-5.7zM4.825 1.45l2.087 5.661H1.255zM7.24 8l4.862 13.186L1.383 8H7.24zm7.29 13.527L19.615 8h5.916z"/></svg>
