<svg xmlns="http://www.w3.org/2000/svg" width="22" height="18"><path fill-rule="evenodd" fill="#FFF" d="M19.422 2.845c.987-.613 1.64-1.448 1.961-2.511-.961.515-1.918.868-2.873 1.063C17.651.464 16.563-.01 15.259-.01c-1.275 0-2.351.452-3.231 1.33-.874.885-1.315 1.961-1.315 3.215 0 .381.048.722.143 1.011C7.097 5.417 3.985 3.841 1.533.811 1.118 1.552.91 2.308.91 3.089c0 1.605.671 2.878 2.011 3.812-.764-.065-1.438-.26-2.011-.58 0 1.147.334 2.104 1.002 2.947a4.415 4.415 0 0 0 2.585 1.593 4.756 4.756 0 0 1-1.196.146c-.382 0-.652-.032-.812-.102a4.36 4.36 0 0 0 1.578 2.271 4.438 4.438 0 0 0 2.63.918c-1.628 1.289-3.489 1.928-5.595 1.928-.516 0-.881-.007-1.103-.048 2.074 1.36 4.383 2.035 6.937 2.035 2.615 0 4.925-.669 6.936-2.007 2.01-1.33 3.494-2.971 4.448-4.904.957-1.93 1.432-3.939 1.432-6.037v-.578c.926-.703 1.676-1.496 2.248-2.37-.83.361-1.69.607-2.578.732z"/></svg>