<svg xmlns="http://www.w3.org/2000/svg" width="29.906" height="26.031" viewBox="0 0 29.906 26.031"><path fill="#bac4d2" data-name="icon-withdrawal" d="M21.506.013H1.845A1.839 1.839 0 0 0 .003 1.845v13.032a1.839 1.839 0 0 0 1.842 1.832h13.108a.436.436 0 1 0 0-.871H1.845a.964.964 0 0 1-.966-.961V1.845a.964.964 0 0 1 .966-.961h19.661a.965.965 0 0 1 .967.961v8.843a.438.438 0 0 0 .876 0V1.845A1.84 1.84 0 0 0 21.506.013zM6.058 5.133H4.186a1.372 1.372 0 0 0-1.375 1.366v.931a1.372 1.372 0 0 0 1.375 1.366h1.872A1.371 1.371 0 0 0 7.432 7.43v-.931a1.371 1.371 0 0 0-1.374-1.366zM4.684 7.925h-.5a.5.5 0 0 1-.5-.5v-.926a.5.5 0 0 1 .5-.495h.5v1.921zm1.872-.5a.5.5 0 0 1-.5.5h-.5V6.003h.5a.5.5 0 0 1 .5.5v.931zm-.5 2.822H3.247a.436.436 0 1 0 0 .871h2.809a.436.436 0 1 0 .002-.866zm4.681 0H7.931a.436.436 0 1 0 0 .871h2.808a.436.436 0 1 0 0-.866zm1.873 2.328H3.247a.435.435 0 1 0 0 .87h9.363a.435.435 0 1 0 .002-.865zm2.809-2.328H12.61a.436.436 0 1 0 0 .871h2.809a.436.436 0 1 0 .002-.866zm4.681 0h-2.809a.436.436 0 1 0 0 .871H20.1a.436.436 0 1 0 .002-.866zM18.228 2.8a2.315 2.315 0 0 1-3.745 0 4.591 4.591 0 1 0 3.748.005zm-3.746 3.724a1.427 1.427 0 1 1 1.435-1.426 1.432 1.432 0 0 1-1.433 1.431zm3.746 0a1.427 1.427 0 1 1 1.434-1.426 1.432 1.432 0 0 1-1.431 1.431zm4.681 5.585a6.952 6.952 0 1 0 6.991 6.952 6.98 6.98 0 0 0-6.989-6.947zm0 13.032a6.081 6.081 0 1 1 6.122-6.072 6.1 6.1 0 0 1-6.12 6.077zm-.922-8.358h3.095l-.983-.587a.432.432 0 0 1-.15-.6.438.438 0 0 1 .6-.149l2.336 1.394a.433.433 0 0 1 0 .745l-2.336 1.394a.439.439 0 0 1-.6-.149.434.434 0 0 1 .15-.6l.982-.586h-3.094a1.889 1.889 0 1 0 0 3.777h3.271a.435.435 0 1 1 0 .869h-3.271a2.758 2.758 0 1 1 .002-5.503z"/></svg>