<svg xmlns="http://www.w3.org/2000/svg" width="20.937" height="26" viewBox="0 0 20.937 26"><path fill="#bac4d2" data-name="icon-operations" d="M20.289.003H.667a.616.616 0 0 0-.654.65v24.7a.616.616 0 0 0 .654.65h19.622a.616.616 0 0 0 .654-.65V.653a.616.616 0 0 0-.654-.65zm-.654 1.3v3.9H1.321v-1.3H9.17v-1.3H1.321v-1.3h18.314zm-18.314 23.4v-18.2h18.314v18.2H1.321zm3.271-16.9h1.962v1.3H4.592v-1.3zm3.27 0h1.962v1.3H7.862v-1.3zm3.27 0h1.963v1.3h-1.963v-1.3zm3.271 0h1.959v1.3H14.4v-1.3zm-11.12 3.251H5.9v1.3H3.283v-1.3zm3.925 0h2.616v1.3H7.208v-1.3zm3.924 0h2.617v1.3h-2.617v-1.3zm3.925 0h2.616v1.3h-2.611v-1.3zm-11.774 2.6H5.9v1.3H3.283v-1.3zm3.925 0h2.616v1.3H7.208v-1.3zm3.924 0h2.617v1.3h-2.617v-1.3zm3.925 0h2.616v1.3h-2.611v-1.3zm-11.774 2.6H5.9v1.3H3.283v-1.3zm3.925 0h2.616v1.3H7.208v-1.3zm3.924 0h2.617v1.3h-2.617v-1.3zm3.925 0h2.616v1.3h-2.611v-1.3zm-11.774 2.6H5.9v1.3H3.283v-1.3zm3.925 0h2.616v1.3H7.208v-1.3zm3.924 0h2.617v1.3h-2.617v-1.3zm3.925 0h2.616v1.3h-2.611v-1.3zm-11.774 2.6H5.9v1.3H3.283v-1.3zm3.925 0h2.616v1.3H7.208v-1.3zm3.924 0h2.617v1.3h-2.617v-1.3zm3.925 0h2.616v1.3h-2.611v-1.3zM10.478 2.602h1.963v1.3h-1.963v-1.3z"/></svg>