<svg xmlns="http://www.w3.org/2000/svg" width="25.906" height="25" viewBox="0 0 25.906 25"><path data-name="icon-deposit" d="M19.64-.009c3.515 0 6.269 1.516 6.269 3.448v18.109c0 1.937-2.754 3.448-6.269 3.448s-6.269-1.516-6.269-3.448V3.439c0-1.932 2.754-3.448 6.269-3.448zm-5.433 21.563c0 1.247 2.184 2.589 5.433 2.589s5.433-1.342 5.433-2.589v-.848a9.481 9.481 0 0 1-10.866 0v.848zm0-2.59c0 1.248 2.184 2.59 5.433 2.59s5.433-1.342 5.433-2.59v-.847a9.486 9.486 0 0 1-10.866 0v.852zm0-2.589c0 1.247 2.184 2.589 5.433 2.589s5.433-1.336 5.433-2.589v-.847a9.486 9.486 0 0 1-10.866 0v.847zm0-2.584c0 1.247 2.184 2.589 5.433 2.589s5.433-1.342 5.433-2.589v-.847a9.486 9.486 0 0 1-10.866 0v.847zm0-2.59c0 1.248 2.184 2.59 5.433 2.59s5.433-1.337 5.433-2.59v-.847a9.481 9.481 0 0 1-10.866 0v.847zm0-2.584c0 1.248 2.184 2.59 5.433 2.59s5.433-1.342 5.433-2.59v-.848a9.481 9.481 0 0 1-10.866 0v.847zm0-2.589c0 1.247 2.184 2.589 5.433 2.589s5.433-1.342 5.433-2.589v-.847a9.486 9.486 0 0 1-10.866 0v.847zm5.433 0c3.249 0 5.433-1.337 5.433-2.589S22.889.849 19.64.849s-5.433 1.337-5.433 2.59 2.184 2.589 5.433 2.589zm-13.375 4.31c3.515 0 6.269 1.516 6.269 3.448v7.762c0 1.937-2.754 3.448-6.269 3.448s-6.269-1.511-6.269-3.442v-7.763c0-1.937 2.755-3.453 6.269-3.453zM.831 21.554c0 1.247 2.183 2.589 5.432 2.589s5.433-1.337 5.433-2.589v-.848a9.48 9.48 0 0 1-10.865 0v.848zm0-2.59c0 1.248 2.183 2.59 5.432 2.59s5.433-1.337 5.433-2.59v-.847a9.484 9.484 0 0 1-10.865 0v.852zm0-2.589c0 1.247 2.183 2.589 5.432 2.589s5.433-1.336 5.433-2.589v-.847a9.484 9.484 0 0 1-10.865 0v.847zm5.432 0c3.249 0 5.433-1.337 5.433-2.589s-2.184-2.59-5.433-2.59-5.432 1.337-5.432 2.59 2.185 2.589 5.434 2.589z"/></svg>
