<svg xmlns="http://www.w3.org/2000/svg" width="11px" height="7px"><path fill-rule="evenodd" fill="rgb(255, 255, 255)"
 d="M10.001,1.123 L10.001,0.129 L11.000,0.129 L11.000,1.123 L10.001,1.123 ZM9.000,2.118 L9.000,1.123 L10.001,1.123 L10.001,2.118 L9.000,2.118 ZM8.000,3.113 L8.000,2.118 L9.000,2.118 L9.000,3.113 L8.000,3.113 ZM7.000,4.107 L7.000,3.113 L8.000,3.113 L8.000,4.107 L7.000,4.107 ZM6.000,5.102 L6.000,4.107 L7.000,4.107 L7.000,5.102 L6.000,5.102 ZM5.000,6.096 L5.000,5.102 L6.000,5.102 L6.000,6.096 L5.000,6.096 ZM4.000,4.107 L5.000,4.107 L5.000,5.102 L4.000,5.102 L4.000,4.107 ZM3.000,3.113 L4.000,3.113 L4.000,4.107 L3.000,4.107 L3.000,3.113 ZM2.000,2.118 L3.000,2.118 L3.000,3.113 L2.000,3.113 L2.000,2.118 ZM1.000,1.123 L2.000,1.123 L2.000,2.118 L1.000,2.118 L1.000,1.123 ZM0.000,0.129 L1.000,0.129 L1.000,1.123 L0.000,1.123 L0.000,0.129 Z"/></svg>
