<svg xmlns="http://www.w3.org/2000/svg" width="11px" height="6px"><path fill-rule="evenodd" fill="rgb(255, 255, 255)" d="M10.001,6.000 L10.001,5.001 L11.000,5.001 L11.000,6.000 L10.001,6.000 ZM9.000,4.001 L10.001,4.001 L10.001,5.001 L9.000,5.001 L9.000,4.001 ZM8.000,3.001 L9.000,3.001 L9.000,4.001 L8.000,4.001 L8.000,3.001 ZM7.000,2.002 L8.000,2.002 L8.000,3.001 L7.000,3.001 L7.000,2.002 ZM6.000,1.002 L7.000,1.002 L7.000,2.002 L6.000,2.002 L6.000,1.002 ZM4.000,2.002 L4.000,1.002 L5.000,1.002 L5.000,2.002 L4.000,2.002 ZM3.000,3.001 L3.000,2.002 L4.000,2.002 L4.000,3.001 L3.000,3.001 ZM2.000,4.001 L2.000,3.001 L3.000,3.001 L3.000,4.001 L2.000,4.001 ZM1.000,5.001 L1.000,4.001 L2.000,4.001 L2.000,5.001 L1.000,5.001 ZM0.000,6.000 L0.000,5.001 L1.000,5.001 L1.000,6.000 L0.000,6.000 ZM5.000,0.003 L6.000,0.003 L6.000,1.002 L5.000,1.002 L5.000,0.003 Z"/></svg>
