<?xml version="1.0" encoding="UTF-8"?><!DOCTYPE svg PUBLIC "-//W3C//DTD SVG 1.1//EN" "http://www.w3.org/Graphics/SVG/1.1/DTD/svg11.dtd"><svg xmlns="http://www.w3.org/2000/svg"><defs><style>.cls-1{fill:#1b1b1b;fill-rule:evenodd}</style><style>.cls-1{fill-rule:evenodd}</style><style>.cls-1{fill-rule:evenodd;opacity:.4}</style><style>.cls-1{fill:#1b1b1b;fill-rule:evenodd}</style><style>.cls-1{fill-rule:evenodd}</style><style>.cls-1{fill:#fff;fill-rule:evenodd;opacity:.8}</style><style>.cls-1{fill-rule:evenodd}</style><style>.cls-1{fill-rule:evenodd}</style><style>.cls-1{fill-rule:evenodd}</style><style>.cls-1{fill:#fff;fill-rule:evenodd}</style><style>.cls-1{fill:#1b1b1b;fill-rule:evenodd}</style><style>.cls-1{fill:#1b1b1b;fill-rule:evenodd}</style><style>.cls-1{fill-rule:evenodd}</style><style>.cls-1{fill:#1b1b1b;fill-rule:evenodd}</style><style>.cls-1{fill-rule:evenodd}</style><style>.cls-1{fill-rule:evenodd}</style></defs><symbol id="arrow" viewBox="0 0 320 512"><path d="M285.476 272.971L91.132 467.314c-9.373 9.373-24.569 9.373-33.941 0l-22.667-22.667c-9.357-9.357-9.375-24.522-.04-33.901L188.505 256 34.484 101.255c-9.335-9.379-9.317-24.544.04-33.901l22.667-22.667c9.373-9.373 24.569-9.373 33.941 0L285.475 239.03c9.373 9.372 9.373 24.568.001 33.941z"/></symbol><symbol id="back" viewBox="0 0 8 16"><path d="M1.037 7.999L7.874.773a.47.47 0 0 0 0-.64.41.41 0 0 0-.606 0L.126 7.681a.47.47 0 0 0 0 .64l7.142 7.545a.422.422 0 0 0 .301.134.41.41 0 0 0 .302-.134.47.47 0 0 0 0-.641L1.037 7.999z"/></symbol><symbol id="balance" viewBox="0 0 19.435 19.435"><path d="M15.655 15.655a8.441 8.441 0 0 1-6.01 2.49 8.441 8.441 0 0 1-6.01-2.49 8.441 8.441 0 0 1-2.49-6.01c0-2.27.884-4.405 2.49-6.01a8.441 8.441 0 0 1 6.01-2.49c2.27 0 4.405.884 6.01 2.49a8.441 8.441 0 0 1 2.49 6.01c0 2.27-.884 4.405-2.49 6.01zM15.28 4.011a7.915 7.915 0 0 0-5.635-2.335c-2.129 0-4.13.829-5.635 2.335a7.916 7.916 0 0 0-2.334 5.634c0 2.128.829 4.129 2.334 5.634a7.913 7.913 0 0 0 5.635 2.335c2.128 0 4.13-.829 5.635-2.335a7.916 7.916 0 0 0 2.334-5.634 7.916 7.916 0 0 0-2.334-5.634zM9.6 10.715c-.141 0-.231-.007-.245-.009l-1.57.001v1.063h1.86v.531h-1.86v1.594h-.531v-1.594H6.192v-.531h1.062v-1.063H6.192v-.531h1.062V5.395h2.125c.037-.005 1.488-.126 2.427.732.504.461.761 1.108.761 1.924 0 .816-.257 1.464-.761 1.925-.72.657-1.741.739-2.206.739zm1.847-4.196c-.767-.701-2.031-.595-2.044-.594l-1.618.001v4.25h1.594c.038.003 1.307.105 2.071-.594.388-.356.586-.871.585-1.531 0-.66-.197-1.176-.588-1.532z"/></symbol><symbol id="build" viewBox="0 0 16 16"><path id="Icon" class="cls-1" d="M32.733 1939.47H31.65a2.164 2.164 0 0 0 .016-.27 1.861 1.861 0 0 0-1.067-1.69v-8.98a.247.247 0 0 0-.267-.26h-4v-4a.255.255 0 0 0-.267-.27h-7.2a.255.255 0 0 0-.267.27v15.2h-1.331a.247.247 0 0 0-.267.26.255.255 0 0 0 .267.27h15.466a.255.255 0 0 0 .267-.27.247.247 0 0 0-.267-.26zm-2.667-2.12a2.328 2.328 0 0 0-.267-.02 1.919 1.919 0 0 0-.585.1.265.265 0 0 0-.215-.1.255.255 0 0 0-.267.27v.08a1.853 1.853 0 0 0-.28.25c-.014.01-.027.03-.04.04a1.743 1.743 0 0 0-.827-.57.283.283 0 0 0-.186-.07c-.03 0-.058.01-.083.01-.06 0-.121-.01-.183-.01a1.253 1.253 0 0 0-.508.09.127.127 0 0 0-.056.02 1.676 1.676 0 0 0-.627-.32h-.007c-.02-.01-.04-.01-.06-.02a.087.087 0 0 1-.049-.01h-.021c-.017 0-.034-.01-.052-.01h-.023a.084.084 0 0 1-.048-.01h-.26a1.645 1.645 0 0 0-.688.21v-8.48h5.333v8.55zm-10.933-12.82H25.8v3.74h-1.333a.247.247 0 0 0-.267.26v8.3a1.864 1.864 0 0 0-.465-.35.093.093 0 0 1-.046-.02.018.018 0 0 1-.018-.01 1.831 1.831 0 0 0-.614-.17h-.008a.2.2 0 0 0-.076-.01h-.106a1.8 1.8 0 0 0-1.067.35v-.09a.267.267 0 0 0-.533 0v.54a.34.34 0 0 0 .019.11 1.84 1.84 0 0 0-.259.71 1.932 1.932 0 0 0-.827.31v-.07a.267.267 0 0 0-.533 0v.54a.24.24 0 0 0 .012.08 1.914 1.914 0 0 0-.259.72h-.287v-14.94zm2.012 13.88a.015.015 0 0 1 .016-.01h.105a.255.255 0 0 0 .267-.27 1.322 1.322 0 0 1 1.333-1.33 1.3 1.3 0 0 1 1.307 1.15.3.3 0 0 0 .119.17h.008a.012.012 0 0 0 .013.01c.01.01.02.01.031.02.012 0 .025.01.038.01a.1.1 0 0 0 .053.01.259.259 0 0 0 .214-.12l.027-.02a1.055 1.055 0 0 1 1.375-.29 1.625 1.625 0 0 0-.52 1.11v.08a1.587 1.587 0 0 0 .092.54H19.96a1.332 1.332 0 0 1 1.185-1.06zm5.11 1.06a1.174 1.174 0 0 1-.161-.56 1.054 1.054 0 0 1 .316-.76c.038-.03.079-.07.122-.1a.256.256 0 0 0 .122-.02 1.047 1.047 0 0 1 1.493.56.242.242 0 0 0 .24.16.144.144 0 0 0 .081-.03.229.229 0 0 0 .159-.13 1.214 1.214 0 0 1 .458-.52.214.214 0 0 0 .107-.06 1.378 1.378 0 0 1 .608-.14 1.315 1.315 0 0 1 1.333 1.33.932.932 0 0 1-.027.27h-4.851zm-.455-8.54a.255.255 0 0 0-.267.27v.53a.267.267 0 1 0 .533 0v-.53a.255.255 0 0 0-.266-.27zm0 4.8a.255.255 0 0 0-.267.27v.53a.267.267 0 1 0 .533 0v-.53a.255.255 0 0 0-.266-.27zm0-3.2a.255.255 0 0 0-.267.27v.53a.267.267 0 1 0 .533 0v-.53a.255.255 0 0 0-.266-.27zm0 1.6a.255.255 0 0 0-.267.27v.53a.267.267 0 1 0 .533 0v-.53a.255.255 0 0 0-.266-.27zm0-4.8a.255.255 0 0 0-.267.27v.53a.267.267 0 1 0 .533 0v-.53a.255.255 0 0 0-.266-.27zm1.6 2.67a.255.255 0 0 0 .267-.27v-.53a.267.267 0 1 0-.533 0v.53a.255.255 0 0 0 .266.27zm0-1.6a.255.255 0 0 0 .267-.27v-.53a.267.267 0 1 0-.533 0v.53a.255.255 0 0 0 .266.27zm0 3.2a.255.255 0 0 0 .267-.27v-.53a.267.267 0 1 0-.533 0v.53a.255.255 0 0 0 .266.27zm0 1.6a.255.255 0 0 0 .267-.27v-.53a.267.267 0 1 0-.533 0v.53a.255.255 0 0 0 .266.27zm0 1.6a.255.255 0 0 0 .267-.27v-.53a.267.267 0 1 0-.533 0v.53a.255.255 0 0 0 .266.27zm1.6-3.2a.255.255 0 0 0 .267-.27v-.53a.267.267 0 1 0-.533 0v.53a.255.255 0 0 0 .266.27zm0-1.6a.255.255 0 0 0 .267-.27v-.53a.267.267 0 1 0-.533 0v.53a.255.255 0 0 0 .266.27zm0 4.8a.255.255 0 0 0 .267-.27v-.53a.267.267 0 1 0-.533 0v.53a.255.255 0 0 0 .266.27zm0-1.6a.255.255 0 0 0 .267-.27v-.53a.267.267 0 1 0-.533 0v.53a.255.255 0 0 0 .266.27zm0-4.8a.255.255 0 0 0 .267-.27v-.53a.267.267 0 1 0-.533 0v.53a.255.255 0 0 0 .266.27zm-9.067 3.73a.247.247 0 0 0 .267-.26v-.54a.267.267 0 0 0-.533 0v.54a.247.247 0 0 0 .266.26zm0 1.6a.247.247 0 0 0 .267-.26v-.54a.267.267 0 0 0-.533 0v.54a.247.247 0 0 0 .266.26zm0 1.6a.247.247 0 0 0 .267-.26v-.54a.267.267 0 0 0-.533 0v.54a.247.247 0 0 0 .266.26zm0-11.2a.247.247 0 0 0 .267-.26v-.54a.267.267 0 0 0-.533 0v.54a.247.247 0 0 0 .266.26zm0 1.6a.247.247 0 0 0 .267-.26v-.54a.267.267 0 0 0-.533 0v.54a.247.247 0 0 0 .266.26zm0 1.6a.247.247 0 0 0 .267-.26v-.54a.267.267 0 0 0-.533 0v.54a.247.247 0 0 0 .266.26zm0 1.6a.247.247 0 0 0 .267-.26v-.54a.267.267 0 0 0-.533 0v.54a.247.247 0 0 0 .266.26zm0 1.6a.247.247 0 0 0 .267-.26v-.54a.267.267 0 0 0-.533 0v.54a.247.247 0 0 0 .266.26zm1.6-4.8a.247.247 0 0 0 .267-.26v-.54a.267.267 0 0 0-.533 0v.54a.247.247 0 0 0 .266.26zm0-1.6a.247.247 0 0 0 .267-.26v-.54a.267.267 0 0 0-.533 0v.54a.247.247 0 0 0 .266.26zm0 4.8a.247.247 0 0 0 .267-.26v-.54a.267.267 0 0 0-.533 0v.54a.247.247 0 0 0 .266.26zm0-1.6a.247.247 0 0 0 .267-.26v-.54a.267.267 0 0 0-.533 0v.54a.247.247 0 0 0 .266.26zm0 3.2a.247.247 0 0 0 .267-.26v-.54a.267.267 0 0 0-.533 0v.54a.247.247 0 0 0 .266.26zm0 1.6a.247.247 0 0 0 .267-.26v-.54a.267.267 0 0 0-.533 0v.54a.247.247 0 0 0 .266.26zm0 1.6a.247.247 0 0 0 .267-.26v-.54a.267.267 0 0 0-.533 0v.54a.247.247 0 0 0 .266.26zm1.6-6.4a.247.247 0 0 0 .267-.26v-.54a.267.267 0 0 0-.533 0v.54a.247.247 0 0 0 .266.26zm0-1.6a.247.247 0 0 0 .267-.26v-.54a.267.267 0 0 0-.533 0v.54a.247.247 0 0 0 .266.26zm0-1.6a.247.247 0 0 0 .267-.26v-.54a.267.267 0 0 0-.533 0v.54a.247.247 0 0 0 .266.26zm0 9.6a.247.247 0 0 0 .267-.26v-.54a.267.267 0 0 0-.533 0v.54a.247.247 0 0 0 .266.26zm0-1.6a.247.247 0 0 0 .267-.26v-.54a.267.267 0 0 0-.533 0v.54a.247.247 0 0 0 .266.26zm0-1.6a.247.247 0 0 0 .267-.26v-.54a.267.267 0 0 0-.533 0v.54a.247.247 0 0 0 .266.26zm0-1.6a.247.247 0 0 0 .267-.26v-.54a.267.267 0 0 0-.533 0v.54a.247.247 0 0 0 .266.26zm1.6-3.2a.247.247 0 0 0 .267-.26v-.54a.267.267 0 0 0-.533 0v.54a.247.247 0 0 0 .266.26zm0-1.6a.247.247 0 0 0 .267-.26v-.54a.267.267 0 0 0-.533 0v.54a.247.247 0 0 0 .266.26z" transform="translate(-17 -1924)"/></symbol><symbol id="calendar" viewBox="0 0 12 12"><path d="M10.5 4.5H.75v6h4.2c.15.3.3.525.525.75H0V.75h1.5V3h2.25V.75H7.5V3h2.25V.75h1.5v4.725a2.694 2.694 0 0 0-.75-.525V4.5zM8.25 0H9v2.25h-.75V0zm-6 0H3v2.25h-.75V0zm6.375 5.25C10.5 5.25 12 6.75 12 8.625S10.5 12 8.625 12A3.361 3.361 0 0 1 5.25 8.625c0-1.875 1.5-3.375 3.375-3.375zm0 6c1.425 0 2.625-1.2 2.625-2.625C11.25 7.199 10.05 6 8.625 6S6 7.199 6 8.625c0 1.425 1.2 2.625 2.625 2.625zm.375-3h1.5V9H8.25V6.75H9v1.5z"/></symbol><symbol id="camera-2" viewBox="0 0 512 512"><path d="M512 144v288c0 26.5-21.5 48-48 48H48c-26.5 0-48-21.5-48-48V144c0-26.5 21.5-48 48-48h88l12.3-32.9c7-18.7 24.9-31.1 44.9-31.1h125.5c20 0 37.9 12.4 44.9 31.1L376 96h88c26.5 0 48 21.5 48 48zM376 288c0-66.2-53.8-120-120-120s-120 53.8-120 120 53.8 120 120 120 120-53.8 120-120zm-32 0c0 48.5-39.5 88-88 88s-88-39.5-88-88 39.5-88 88-88 88 39.5 88 88z"/></symbol><symbol id="camera" viewBox="0 0 20 17"><path d="M17.5 14.571v2.428h-1.25v-2.428h-2.5v-1.214h2.5v-2.429h1.25v2.429H20v1.214h-2.5zm1.25-10.322a.616.616 0 0 0-.625-.607H15a.623.623 0 0 1-.625-.461l-.488-1.968H6.112l-.487 1.968A.623.623 0 0 1 5 3.642H1.875a.616.616 0 0 0-.625.607v10.929c0 .335.28.607.625.607H10v1.214H1.875C.839 16.999 0 16.184 0 15.178V4.249c0-1.005.839-1.821 1.875-1.821h2.637L5 .461A.621.621 0 0 1 5.625 0h8.75A.621.621 0 0 1 15 .461l.487 1.967h2.638c1.036 0 1.875.816 1.875 1.821v5.465h-1.25V4.249zM7.5 9.714c0-1.341 1.119-2.429 2.5-2.429s2.5 1.088 2.5 2.429c0 1.341-1.119 2.429-2.5 2.429s-2.5-1.088-2.5-2.429zm3.75 0c0-.671-.56-1.215-1.25-1.215s-1.25.544-1.25 1.215c0 .67.56 1.214 1.25 1.214s1.25-.544 1.25-1.214zM7.5 2.428h5v1.214h-5V2.428zM6.25 9.714c0 2.011 1.679 3.643 3.75 3.643v1.214c-2.761 0-5-2.175-5-4.857 0-2.683 2.239-4.857 5-4.857s5 2.174 5 4.857h-1.25c0-2.012-1.679-3.643-3.75-3.643-2.071 0-3.75 1.631-3.75 3.643z"/></symbol><symbol id="check-false" viewBox="0 0 512 512"><path fill="#dc485d" d="M255.908-.031C114.518-.031-.124 114.612-.124 256.001c0 141.39 114.643 256.032 256.032 256.032 141.39 0 256.032-114.643 256.032-256.032 0-141.39-114.643-256.032-256.032-256.032zm123.787 342.329c1.714 1.714 2.629 4 2.629 6.4 0 2.4-.915 4.8-2.63 6.401l-24.688 24.803c-1.829 1.829-4.115 2.63-6.4 2.63-2.287 0-4.687-.915-6.401-2.63l-86.297-86.41-86.182 86.524c-1.715 1.83-4.115 2.63-6.401 2.63-2.286 0-4.686-.915-6.4-2.63l-24.69-24.803c-1.714-1.714-2.628-4-2.628-6.4 0-2.4.914-4.801 2.628-6.401l86.526-86.868-86.754-85.725c-3.543-3.544-3.543-9.373 0-12.916l24.689-24.803c1.714-1.715 4-2.63 6.4-2.63 2.4 0 4.687.915 6.401 2.63l86.525 85.382 86.525-85.382c1.715-1.715 4-2.63 6.401-2.63 2.4 0 4.687.915 6.401 2.63l24.689 24.803c3.543 3.543 3.543 9.372 0 12.916l-86.754 85.725 86.41 86.754z"/></symbol><symbol id="check-true" viewBox="0 0 20 20"><path d="M10 0C4.5 0 0 4.5 0 10s4.5 10 10 10 10-4.5 10-10S15.5 0 10 0zM8 15l-5-5 1.4-1.4L8 12.2l7.6-7.6L17 6l-9 9z" fill="#a7cc66" fill-rule="evenodd"/></symbol><symbol id="check" viewBox="0 0 20 20"><path d="M10 0C4.5 0 0 4.5 0 10s4.5 10 10 10 10-4.5 10-10S15.5 0 10 0zM8 15l-5-5 1.4-1.4L8 12.2l7.6-7.6L17 6l-9 9z" fill-rule="evenodd"/></symbol><symbol id="clean" viewBox="0 0 22.531 22.63"><path id="Icon" class="cls-1" d="M260.7 1040.17a.428.428 0 0 0-.414-.25 17.433 17.433 0 0 1-7.058-1.18 8.911 8.911 0 0 1-4.027-4.03.21.21 0 0 0-.032-.06.186.186 0 0 0-.01-.02.82.82 0 0 0-.047-.06 4.707 4.707 0 0 0-6.659 0 4.753 4.753 0 0 0 0 6.69.014.014 0 0 0 .014.01.046.046 0 0 0 .028.02.152.152 0 0 0 .05.04c.005 0 .009.01.015.01a10.167 10.167 0 0 1 4.047 4.06c1.227 2.6 1.17 7.06 1.169 7.11a.434.434 0 0 0 .261.4.483.483 0 0 0 .167.03.43.43 0 0 0 .3-.12l12.107-12.17a.429.429 0 0 0 .089-.48zm-17.643-4.99a3.854 3.854 0 0 1 5.128-.29l-5.414 5.44a3.886 3.886 0 0 1 .288-5.15zm14.334 7.49c-.994.09-2.607.03-3.135-.5a.443.443 0 0 0-.606 0 .434.434 0 0 0 0 .61 4.365 4.365 0 0 0 2.851.79l-2.245 2.25-2.119-2.13a.441.441 0 0 0-.605 0 .432.432 0 0 0 0 .61l2.118 2.13-2.244 2.26a4.4 4.4 0 0 0-.782-2.87.424.424 0 0 0-.606 0 .434.434 0 0 0 0 .61c.528.53.586 2.15.5 3.15l-1.9 1.91a18.317 18.317 0 0 0-1.237-6.46 10.571 10.571 0 0 0-3.927-4.16l5.244-5.27a9.675 9.675 0 0 0 4.167 3.92 16.634 16.634 0 0 0 6.4 1.27zm-19.177-11.75l.6-.61 3.632 3.65-.6.61z" transform="translate(-238.219 -1030.31)"/></symbol><symbol id="clock-2" viewBox="0 0 512 512"><path d="M256 8C119 8 8 119 8 256s111 248 248 248 248-111 248-248S393 8 256 8zm57.1 350.1L224.9 294c-3.1-2.3-4.9-5.9-4.9-9.7V116c0-6.6 5.4-12 12-12h48c6.6 0 12 5.4 12 12v137.7l63.5 46.2c5.4 3.9 6.5 11.4 2.6 16.8l-28.2 38.8c-3.9 5.3-11.4 6.5-16.8 2.6z"/></symbol><symbol id="clock" viewBox="0 0 512 512"><path d="M256 8C119 8 8 119 8 256s111 248 248 248 248-111 248-248S393 8 256 8zm0 448c-110.5 0-200-89.5-200-200S145.5 56 256 56s200 89.5 200 200-89.5 200-200 200zm61.8-104.4l-84.9-61.7c-3.1-2.3-4.9-5.9-4.9-9.7V116c0-6.6 5.4-12 12-12h32c6.6 0 12 5.4 12 12v141.7l66.8 48.6c5.4 3.9 6.5 11.4 2.6 16.8L334.6 349c-3.9 5.3-11.4 6.5-16.8 2.6z"/></symbol><symbol id="close" viewBox="0 0 14 14"><path id="Close" class="cls-1" d="M249.622 32.009l-.631-.631 13.387-13.387.631.631zm-.631-13.386l.631-.631 13.387 13.387-.631.631z" transform="translate(-249 -18)"/></symbol><symbol id="comment" viewBox="0 0 576 512"><path d="M288 32C129 32 0 125.1 0 240c0 49.3 23.7 94.5 63.3 130.2-8.7 23.3-22.1 32.7-37.1 43.1C15.1 421-6 433 1.6 456.5c5.1 15.4 20.9 24.7 38.1 23.3 57.7-4.6 111.2-19.2 157-42.5 28.7 6.9 59.4 10.7 91.2 10.7 159.1 0 288-93 288-208C576 125.1 447.1 32 288 32zm0 368c-32.5 0-65.4-4.4-97.3-14-32.3 19-78.7 46-134.7 54 32-24 56.8-61.6 61.2-88.4C79.1 325.6 48 286.7 48 240c0-70.9 86.3-160 240-160s240 89.1 240 160c0 71-86.3 160-240 160z"/></symbol><symbol id="crane" viewBox="0 0 16 16"><path id="Icon" class="cls-1" d="M94.7 1926H87v-1.71a.293.293 0 0 0-.3-.29h-2.959a.293.293 0 0 0-.3.29v1.12a.286.286 0 0 0 0 .04v.55H79.3a.293.293 0 0 0-.3.29v2.28a.293.293 0 0 0 .3.29h1.481v7.71h-.892a.293.293 0 0 0-.3.29v1.14H79.3a.293.293 0 0 0-.3.29v1.42a.293.293 0 0 0 .3.29h3.555a.293.293 0 0 0 .3-.29v-1.42a.293.293 0 0 0-.3-.29h-.3v-1.14a.293.293 0 0 0-.3-.29h-.885v-7.71h2.074v1.98a.3.3 0 0 0 0 .04v2.82a.3.3 0 0 0 0 .04v2.82a.154.154 0 0 0 0 .02v2.84a.3.3 0 0 0 0 .04v.25a.293.293 0 0 0 .3.29H86.7a.293.293 0 0 0 .3-.29v-10.85h5.333v3.44a.289.289 0 0 0 .294.27.86.86 0 1 1-.889.86.3.3 0 0 0-.593 0 1.482 1.482 0 1 0 1.778-1.4v-3.17H94.7a.293.293 0 0 0 .3-.29v-2.28a.293.293 0 0 0-.3-.29zm-12.148 13.43h-2.959v-.86h2.963v.86zm-.593-2.29v.86h-1.774v-.86h1.778zm2.074-10.85v-.17l.764.74-.764.74v-1.31zm2.37 0v1.31l-.768-.74.768-.74v.17zm-.273 1.85l-.914.89-.914-.89.914-.88zm-2.1.55l.764.74-.764.74v-1.48zm1.183 1.14l1.064 1.03-1.065 1.03-1.064-1.03zm-.419 2.46l-.764.74v-1.48zm.419.4l1.065 1.03-1.064 1.03-1.065-1.03zm-.419 2.46l-.764.74v-1.48zm.419.41l1.063 1.02-1.062 1.02-1.062-1.02zm-.419 2.45l-.764.74v-1.48zm.419.4l1.053 1.02h-2.099zm.419-.4l.768-.74v1.48zm0-2.86l.768-.74v1.48zm0-2.86l.768-.74v1.48zm0-2.86l.768-.74v1.48zm.768-4.86v.74l-1.187 1.14-1.183-1.14v-.74h2.37zm-6.815 2h3.852v1.41a.3.3 0 0 0 0 .04v.27h-3.844v-1.72zm14.815 1.72H87v-1.72h7.407v1.72z" transform="translate(-79 -1924)"/></symbol><symbol id="del" viewBox="0 0 384 512"><path d="M323.1 441l53.9-53.9c9.4-9.4 9.4-24.5 0-33.9L279.8 256l97.2-97.2c9.4-9.4 9.4-24.5 0-33.9L323.1 71c-9.4-9.4-24.5-9.4-33.9 0L192 168.2 94.8 71c-9.4-9.4-24.5-9.4-33.9 0L7 124.9c-9.4 9.4-9.4 24.5 0 33.9l97.2 97.2L7 353.2c-9.4 9.4-9.4 24.5 0 33.9L60.9 441c9.4 9.4 24.5 9.4 33.9 0l97.2-97.2 97.2 97.2c9.3 9.3 24.5 9.3 33.9 0z"/></symbol><symbol id="diamond" viewBox="0 0 576 512"><path d="M464 0H112c-4 0-7.8 2-10 5.4L2 152.6c-2.9 4.4-2.6 10.2.7 14.2l276 340.8c4.8 5.9 13.8 5.9 18.6 0l276-340.8c3.3-4.1 3.6-9.8.7-14.2L474.1 5.4C471.8 2 468.1 0 464 0zm-19.3 48l63.3 96h-68.4l-51.7-96h56.8zm-202.1 0h90.7l51.7 96H191l51.6-96zm-111.3 0h56.8l-51.7 96H68l63.3-96zm-43 144h51.4L208 352 88.3 192zm102.9 0h193.6L288 435.3 191.2 192zM368 352l68.2-160h51.4L368 352z"/></symbol><symbol id="down-blue" viewBox="0 0 320 512"><path fill="#328eff" d="M143 352.3L7 216.3c-9.4-9.4-9.4-24.6 0-33.9l22.6-22.6c9.4-9.4 24.6-9.4 33.9 0l96.4 96.4 96.4-96.4c9.4-9.4 24.6-9.4 33.9 0l22.6 22.6c9.4 9.4 9.4 24.6 0 33.9l-136 136c-9.2 9.4-24.4 9.4-33.8 0z"/></symbol><symbol id="electricity" viewBox="0 0 20.25 22.625"><path id="Icon" class="cls-1" d="M36.519 901.666a7.016 7.016 0 0 0-6.886 7.124 7.1 7.1 0 0 0 4.456 6.663v3.813a.413.413 0 0 0 .405.42h.406v.838a.412.412 0 0 0 .405.419h2.43a.412.412 0 0 0 .405-.419v-.838h.405a.412.412 0 0 0 .405-.42v-3.813a7.1 7.1 0 0 0 4.456-6.663 7.016 7.016 0 0 0-6.887-7.124zm1.215 17.181a.412.412 0 0 0-.405.419v.839h-1.62v-.839a.412.412 0 0 0-.405-.419H34.9v-2.1h3.24v2.1h-.406zm.684-4.089a.419.419 0 0 0-.279.4v.758H34.9v-.758a.418.418 0 0 0-.279-.4 6.255 6.255 0 0 1-4.177-5.968 6.079 6.079 0 1 1 12.152 0 6.255 6.255 0 0 1-4.178 5.968zm-1.9-13.93a.412.412 0 0 0 .405-.419v-1.676a.405.405 0 1 0-.81 0v1.676a.412.412 0 0 0 .406.419zm9.721 7.543H44.62a.419.419 0 0 0 0 .838h1.62a.419.419 0 0 0 0-.838zm-17.823 0H26.8a.419.419 0 0 0 0 .838h1.62a.419.419 0 0 0-.002-.838zm14.689-6.989l-1.146 1.185a.43.43 0 0 0 0 .593.395.395 0 0 0 .573 0l1.145-1.185a.429.429 0 0 0 0-.593.4.4 0 0 0-.57 0zM30.5 914.42l-1.145 1.186a.428.428 0 0 0 0 .592.395.395 0 0 0 .573 0l1.145-1.185a.429.429 0 0 0 0-.593.4.4 0 0 0-.573 0zm12.03 0a.4.4 0 0 0-.573 0 .43.43 0 0 0 0 .593l1.146 1.185a.395.395 0 0 0 .573 0 .428.428 0 0 0 0-.592zM30.5 903.16a.395.395 0 0 0 .573 0 .429.429 0 0 0 0-.593l-1.145-1.185a.4.4 0 0 0-.573 0 .429.429 0 0 0 0 .593zm6.015.6a4.952 4.952 0 0 0-4.861 5.028.405.405 0 1 0 .81 0 4.127 4.127 0 0 1 4.051-4.19.419.419 0 0 0 .004-.836z" transform="translate(-26.406 -898.313)"/></symbol><symbol id="envelope-light" viewBox="0 0 17 13"><path id="Message" class="cls-1" d="M30.506 220H16.494A1.5 1.5 0 0 0 15 221.5v10a1.5 1.5 0 0 0 1.494 1.5h14.012A1.5 1.5 0 0 0 32 231.5v-10a1.5 1.5 0 0 0-1.494-1.5zm-.206 1l-6.768 6.794L16.705 221H30.3zM16 231.293V221.7l4.8 4.775zm.7.707l4.8-4.819 1.682 1.674a.5.5 0 0 0 .7 0l1.64-1.647L30.3 232H16.7zm14.3-.707l-4.77-4.793 4.77-4.793v9.586z" transform="translate(-15 -220)"/></symbol><symbol id="envelope" viewBox="0 0 512 512"><path d="M502.3 190.8c3.9-3.1 9.7-.2 9.7 4.7V400c0 26.5-21.5 48-48 48H48c-26.5 0-48-21.5-48-48V195.6c0-5 5.7-7.8 9.7-4.7 22.4 17.4 52.1 39.5 154.1 113.6 21.1 15.4 56.7 47.8 92.2 47.6 35.7.3 72-32.8 92.3-47.6 102-74.1 131.6-96.3 154-113.7zM256 320c23.2.4 56.6-29.2 73.4-41.4 132.7-96.3 142.8-104.7 173.4-128.7 5.8-4.5 9.2-11.5 9.2-18.9v-19c0-26.5-21.5-48-48-48H48C21.5 64 0 85.5 0 112v19c0 7.4 3.4 14.3 9.2 18.9 30.6 23.9 40.7 32.4 173.4 128.7 16.8 12.2 50.2 41.8 73.4 41.4z"/></symbol><symbol id="eye" viewBox="0 0 576 512"><path d="M569.354 231.631C512.97 135.949 407.81 72 288 72 168.14 72 63.004 135.994 6.646 231.631a47.999 47.999 0 0 0 0 48.739C63.031 376.051 168.19 440 288 440c119.86 0 224.996-63.994 281.354-159.631a47.997 47.997 0 0 0 0-48.738zM288 392c-102.556 0-192.091-54.701-240-136 44.157-74.933 123.677-127.27 216.162-135.007C273.958 131.078 280 144.83 280 160c0 30.928-25.072 56-56 56s-56-25.072-56-56l.001-.042C157.794 179.043 152 200.844 152 224c0 75.111 60.889 136 136 136s136-60.889 136-136c0-31.031-10.4-59.629-27.895-82.515C451.704 164.638 498.009 205.106 528 256c-47.908 81.299-137.444 136-240 136z"/></symbol><symbol id="fail" viewBox="0 0 34 34"><path d="M15.297 16.5L4.227 27.645a.796.796 0 0 0 0 1.121.781.781 0 0 0 1.113 0l11.154-11.229 11.154 11.229a.78.78 0 0 0 1.113 0 .797.797 0 0 0 0-1.121L17.69 16.5 28.768 5.346a.796.796 0 0 0 0-1.121.784.784 0 0 0-1.113 0L16.494 15.462 5.332 4.225a.784.784 0 0 0-1.113 0 .796.796 0 0 0 0 1.121L15.297 16.5z"/></symbol><symbol id="fb" viewBox="0 0 264 512"><path d="M76.7 512V283H0v-91h76.7v-71.7C76.7 42.4 124.3 0 193.8 0c33.3 0 61.9 2.5 70.2 3.6V85h-48.2c-37.8 0-45.1 18-45.1 44.3V192H256l-11.7 91h-73.6v229"/></symbol><symbol id="fence" viewBox="0 0 24.031 22.625"><path id="Icon" class="cls-1" d="M151.82 920.943a2.385 2.385 0 0 1-2.4-2.248h-.7a2.4 2.4 0 0 1-4.8 0h-.7a2.4 2.4 0 0 1-4.8 0h-.7a2.4 2.4 0 0 1-4.8-.109v-17.915a2.4 2.4 0 0 1 4.8 0v.382h.694v-.382a2.4 2.4 0 0 1 4.8 0v.382h.694v-.382a2.4 2.4 0 0 1 4.8 0v.382h.694v-.382a2.4 2.4 0 0 1 4.8 0v.387h1.085a1.671 1.671 0 0 1 0 3.342.223.223 0 0 1-.037 0h-1.05v10.945h1.05a.223.223 0 0 1 .037 0 1.671 1.671 0 0 1 0 3.342h-1.089a2.385 2.385 0 0 1-2.378 2.256zm-1.691-2.6v.24a1.691 1.691 0 0 0 3.382 0v-17.912a1.691 1.691 0 0 0-3.382 0v17.675zm-5.5 0v.24a1.691 1.691 0 0 0 3.382 0v-17.912a1.691 1.691 0 0 0-3.382 0v17.675zm-5.5 0v.24a1.691 1.691 0 0 0 3.382 0v-17.912a1.691 1.691 0 0 0-3.382 0v17.675zm-3.807-19.335a1.677 1.677 0 0 0-1.691 1.66v17.915a1.691 1.691 0 0 0 3.382 0v-17.912a1.678 1.678 0 0 0-1.687-1.66zm18.9 18.992h1.05a.974.974 0 1 0 0-1.948h-1.05V918zm-5.5 0h.694v-1.951h-.694V918zm-5.5 0h.694v-1.951h-.694V918zm-5.5 0h.694v-1.951h-.694V918zm11-2.648h.694V904.4h-.694v10.95zm-5.5 0h.694V904.4h-.694v10.95zm-5.5 0h.694V904.4h-.694v10.95zm16.494-11.642h1.05a.974.974 0 1 0 0-1.948h-1.05v1.951zm-5.5-.006h.694v-1.954h-.694v1.95zm-5.5 0h.694v-1.954h-.694v1.95zm-5.5 0h.694v-1.954h-.694v1.95z" transform="translate(-132.938 -898.313)"/></symbol><symbol id="filter" viewBox="0 0 512 512"><path d="M487.976 0H24.028C2.71 0-8.047 25.866 7.058 40.971L192 225.941V432c0 7.831 3.821 15.17 10.237 19.662l80 55.98C298.02 518.69 320 507.493 320 487.98V225.941l184.947-184.97C520.021 25.896 509.338 0 487.976 0z"/></symbol><symbol id="furniture" viewBox="0 0 27.438 16.35"><path id="Icon" class="cls-1" d="M79.507 1437.13a1.2 1.2 0 1 1 1.179-1.19 1.184 1.184 0 0 1-1.179 1.19zm0-1.83a.631.631 0 0 0-.63.64.63.63 0 1 0 1.261 0 .631.631 0 0 0-.631-.64zm22.234 1.83a1.2 1.2 0 1 1 1.179-1.19 1.184 1.184 0 0 1-1.179 1.19zm0-1.83a.632.632 0 0 0-.631.64.631.631 0 1 0 1.261 0 .632.632 0 0 0-.63-.64zm2.609.64a2.633 2.633 0 0 0-2.609-2.65 2.768 2.768 0 0 0-.65.08 3.623 3.623 0 0 0-3.573-3.29H83.73a3.624 3.624 0 0 0-3.575 3.29 2.765 2.765 0 0 0-.648-.08 2.65 2.65 0 0 0-.567 5.23v4.36a.03.03 0 0 0 0 .01 1.461 1.461 0 0 0 .891 1.35.944.944 0 0 0-.135.49 1.128 1.128 0 0 0 .45.79v.63a.28.28 0 0 0 .275.28h1.172a.28.28 0 0 0 .274-.28v-.63a1.128 1.128 0 0 0 .45-.79.927.927 0 0 0-.076-.37h16.766a.929.929 0 0 0-.076.37 1.128 1.128 0 0 0 .45.79v.63a.28.28 0 0 0 .274.28h1.172a.28.28 0 0 0 .274-.28v-.63a1.129 1.129 0 0 0 .451-.79.948.948 0 0 0-.136-.49 1.461 1.461 0 0 0 .891-1.35.016.016 0 0 0 0-.01v-4.36a2.632 2.632 0 0 0 2.043-2.58zm-20.62-5.3h13.788a3.067 3.067 0 0 1 3.04 2.94 2.645 2.645 0 0 0-1.426 2.36V1438.58a5.169 5.169 0 0 0-.962-.26 20.85 20.85 0 0 0-6.309 0 3.316 3.316 0 0 0-1.237.41 3.315 3.315 0 0 0-1.237-.41 20.85 20.85 0 0 0-6.309 0 5.173 5.173 0 0 0-.962.26v-2.64a2.644 2.644 0 0 0-1.426-2.36 3.068 3.068 0 0 1 3.04-2.94zm15.4 8.57v1.26a.289.289 0 0 1-.288.29H90.9v-1.55c.2-.2 1.6-.58 4.117-.58s3.912.38 4.114.58zm-8.782 0v1.55H82.4a.289.289 0 0 1-.287-.29v-1.26c.2-.2 1.6-.58 4.117-.58s3.917.38 4.119.58zm-8.582 5.52a.737.737 0 0 1-.323.41.276.276 0 0 0-.127.23v.5h-.622v-.5a.278.278 0 0 0-.127-.23.735.735 0 0 1-.324-.41.364.364 0 0 1 .364-.37h.8a.364.364 0 0 1 .361.37zm18.913.41a.275.275 0 0 0-.128.23v.5h-.621v-.5a.278.278 0 0 0-.127-.23.735.735 0 0 1-.324-.41.364.364 0 0 1 .364-.37h.8a.363.363 0 0 1 .363.37.739.739 0 0 1-.325.41zm1.428-7.15a2.688 2.688 0 0 1-.368.04 2.007 2.007 0 0 1-.96-.24.277.277 0 0 0-.371.11.284.284 0 0 0 .115.38 2.579 2.579 0 0 0 1.216.31h.017v4.3a.911.911 0 0 1-.9.91H80.39a.91.91 0 0 1-.9-.91v-4.3h.017a2.579 2.579 0 0 0 1.216-.31.283.283 0 0 0 .115-.38.277.277 0 0 0-.371-.11 2.006 2.006 0 0 1-.96.24 2.126 2.126 0 0 1-.357-.03 2.093 2.093 0 1 1 2.418-2.07v4.54a.843.843 0 0 0 .837.85h16.44a.843.843 0 0 0 .837-.85v-4.5-.02-.01a2.06 2.06 0 1 1 2.427 2.05zm-16.1-5.43a.27.27 0 0 0-.388 0l-.2.21-.2-.21a.27.27 0 0 0-.388 0 .289.289 0 0 0 0 .4l.2.2-.2.21a.277.277 0 0 0 0 .39.275.275 0 0 0 .388 0l.2-.2.2.2a.275.275 0 0 0 .388 0 .277.277 0 0 0 0-.39l-.2-.21.2-.2a.289.289 0 0 0 .001-.4zm0 3.07a.27.27 0 0 0-.388 0l-.2.2-.2-.2a.27.27 0 0 0-.388 0 .277.277 0 0 0 0 .39l.2.21-.2.2a.279.279 0 1 0 .388.4l.2-.21.2.21a.279.279 0 1 0 .388-.4l-.2-.2.2-.21a.276.276 0 0 0 .001-.39zm10.211-2.47l.2-.2a.289.289 0 0 0 0-.4.269.269 0 0 0-.388 0l-.2.21-.2-.21a.269.269 0 0 0-.388 0 .289.289 0 0 0 0 .4l.2.2-.2.21a.276.276 0 0 0 0 .39.275.275 0 0 0 .388 0l.2-.2.2.2a.276.276 0 0 0 .388 0 .277.277 0 0 0 0-.39zm.2 2.47a.269.269 0 0 0-.388 0l-.2.2-.2-.2a.269.269 0 0 0-.388 0 .276.276 0 0 0 0 .39l.2.21-.2.2a.279.279 0 1 0 .388.4l.2-.21.2.21a.279.279 0 1 0 .388-.4l-.2-.2.2-.21a.277.277 0 0 0 .004-.39zm-5.41-2.47l.2-.2a.289.289 0 0 0 0-.4.27.27 0 0 0-.388 0l-.2.21-.2-.21a.27.27 0 0 0-.388 0 .289.289 0 0 0 0 .4l.2.2-.2.21a.276.276 0 0 0 0 .39.275.275 0 0 0 .388 0l.2-.2.2.2a.276.276 0 0 0 .388 0 .277.277 0 0 0 0-.39zm.2 2.47a.27.27 0 0 0-.388 0l-.2.2-.2-.2a.27.27 0 0 0-.388 0 .276.276 0 0 0 0 .39l.2.21-.2.2a.279.279 0 1 0 .388.4l.2-.21.2.21a.279.279 0 1 0 .388-.4l-.2-.2.2-.21a.277.277 0 0 0 .007-.39z" transform="translate(-76.906 -1430.09)"/></symbol><symbol id="g" viewBox="0 0 640 512"><path d="M386.061 228.496c1.834 9.692 3.143 19.384 3.143 31.956C389.204 370.205 315.599 448 204.8 448c-106.084 0-192-85.915-192-192s85.916-192 192-192c51.864 0 95.083 18.859 128.611 50.292l-52.126 50.03c-14.145-13.621-39.028-29.599-76.485-29.599-65.484 0-118.92 54.221-118.92 121.277 0 67.056 53.436 121.277 118.92 121.277 75.961 0 104.513-54.745 108.965-82.773H204.8v-66.009h181.261zm185.406 6.437V179.2h-56.001v55.733h-55.733v56.001h55.733v55.733h56.001v-55.733H627.2v-56.001h-55.733z"/></symbol><symbol id="gift-2" viewBox="0 0 16 16"><path d="M9.674 13.658a.794.794 0 0 1-.488.143H7.15a.79.79 0 0 1-.487-.143.478.478 0 0 1-.191-.408V5.658h3.393v7.592a.48.48 0 0 1-.191.408zM4.309 4.004a.981.981 0 0 1-.297-.721c0-.282.099-.523.297-.721a.981.981 0 0 1 .721-.297c.304 0 .548.11.731.329l1.336 1.707H5.03a.981.981 0 0 1-.721-.297zm6.998.297H9.25l1.325-1.707a.909.909 0 0 1 .732-.329c.282 0 .523.099.721.297a.987.987 0 0 1 .297.721c0 .283-.1.523-.297.721a.983.983 0 0 1-.721.297zm4.909 1.453a.33.33 0 0 0-.244-.096h-4.665c.657 0 1.217-.231 1.68-.694a2.29 2.29 0 0 0 .695-1.681c0-.657-.232-1.217-.695-1.68a2.289 2.289 0 0 0-1.68-.695c-.757 0-1.351.272-1.782.817L8.168 3.474 6.811 1.725C6.38 1.18 5.786.908 5.03.908a2.29 2.29 0 0 0-1.681.695 2.288 2.288 0 0 0-.694 1.68c0 .658.231 1.218.694 1.681a2.289 2.289 0 0 0 1.681.694H.365a.328.328 0 0 0-.34.339V9.39a.328.328 0 0 0 .34.34h1.018v4.41c0 .283.098.524.296.721a.983.983 0 0 0 .721.297h11.536a.981.981 0 0 0 .721-.297.98.98 0 0 0 .297-.721V9.73h1.018a.33.33 0 0 0 .244-.096.332.332 0 0 0 .095-.244V5.997a.33.33 0 0 0-.095-.243z"/></symbol><symbol id="gift" viewBox="0 0 512 512"><path d="M488 192h-64.512C438.72 175.003 448 152.566 448 128c0-52.935-43.065-96-96-96-41.997 0-68.742 20.693-95.992 54.15C226.671 50.192 199.613 32 160 32c-52.935 0-96 43.065-96 96 0 24.566 9.28 47.003 24.512 64H24c-13.255 0-24 10.745-24 24v80c0 13.255 10.745 24 24 24h8v112c0 26.51 21.49 48 48 48h352c26.51 0 48-21.49 48-48V320h8c13.255 0 24-10.745 24-24v-80c0-13.255-10.745-24-24-24zm-208-32c24-56 55.324-64 72-64 17.645 0 32 14.355 32 32s-14.355 32-32 32h-72zM160 96c16.676 0 48 8 72 64h-72c-17.645 0-32-14.355-32-32s14.355-32 32-32zm48 128h96v184c0 13.255-10.745 24-24 24h-48c-13.255 0-24-10.745-24-24V224z"/></symbol><symbol id="heart-full" viewBox="0 0 576 512"><path d="M414.9 24C361.8 24 312 65.7 288 89.3 264 65.7 214.2 24 161.1 24 70.3 24 16 76.9 16 165.5c0 72.6 66.8 133.3 69.2 135.4l187 180.8c8.8 8.5 22.8 8.5 31.6 0l186.7-180.2c2.7-2.7 69.5-63.5 69.5-136C560 76.9 505.7 24 414.9 24z"/></symbol><symbol id="heart-light" viewBox="0 0 576 512"><path d="M403.7 24c-42.8 0-83.9 25.7-115.7 54.7C256.2 49.8 215.1 24 172.3 24 80.8 24 24 80.6 24 171.7c0 73.2 62.4 132.4 68.1 137.7l170.3 168.2c14.1 13.9 37.1 14 51.2 0l170.2-167.8.5-.5c15.9-15.5 67.7-71.1 67.7-137.6C552 80.6 495.2 24 403.7 24zm57.7 263L291.2 454.7c-1.8 1.8-4.5 1.8-6.3 0L114.3 286.4C85.8 259.6 56 214 56 171.7 56 98.2 98.4 56 172.3 56c45.1 0 85.4 37 115.7 67.4C303.8 107.6 351.7 56 403.7 56 477.6 56 520 98.2 520 171.7c0 42.4-28.2 85.2-58.6 115.3z"/></symbol><symbol id="heart" viewBox="0 0 576 512"><path d="M257.3 475.4L92.5 313.6C85.4 307 24 248.1 24 174.8 24 84.1 80.8 24 176 24c41.4 0 80.6 22.8 112 49.8 31.3-27 70.6-49.8 112-49.8 91.7 0 152 56.5 152 150.8 0 52-31.8 103.5-68.1 138.7l-.4.4-164.8 161.5a43.7 43.7 0 0 1-61.4 0zM125.9 279.1L288 438.3l161.8-158.7c27.3-27 54.2-66.3 54.2-104.8C504 107.9 465.8 72 400 72c-47.2 0-92.8 49.3-112 68.4-17-17-64-68.4-112-68.4-65.9 0-104 35.9-104 102.8 0 37.3 26.7 78.9 53.9 104.3z"/></symbol><symbol id="heating" viewBox="0 0 19.001 23.875"><path id="Icon" class="cls-1" d="M99.369 904.841a.393.393 0 0 0-.36-.305.4.4 0 0 0-.359.308c0 .017-.505 1.737-1.163 3.424-1.2 3.084-1.781 3.148-1.843 3.148a1.356 1.356 0 0 1-.469-1.03c-1.138-5.015-3.428-12.369-3.452-12.442a.407.407 0 0 0-.291-.291.348.348 0 0 0-.357.153 71.57 71.57 0 0 0-4.679 8.256v-1.986a.468.468 0 0 0-.236-.424.336.336 0 0 0-.417.1c-3.482 4.184-4.918 7.982-4.269 11.288.894 4.549 5.375 6.392 5.565 6.468a.325.325 0 0 0 .121.024.376.376 0 0 0 .33-.228.529.529 0 0 0-.074-.573 9.925 9.925 0 0 1-2.178-3.9 12.041 12.041 0 0 1-.215-2.812c.213 1.242.52 1.82.993 1.93.7.163 1.41-.753 2.624-3.38a8 8 0 0 1 .911-1.659 10.928 10.928 0 0 1 .25 1.26 19.964 19.964 0 0 0 .436 2.158c.652 2.349 2.56 2.64 3.823 2.832a5.168 5.168 0 0 1 1.006.215.2.2 0 0 1 .118.141c.21.61-.3 2.327-.721 3.352a.534.534 0 0 0 .053.506.342.342 0 0 0 .41.135 7.837 7.837 0 0 0 4.453-4.532c2.051-5.066.075-11.85-.01-12.136zm-.679 11.734a7.075 7.075 0 0 1-3.16 3.66 5.743 5.743 0 0 0 .359-3.071 1.035 1.035 0 0 0-.582-.661 5.447 5.447 0 0 0-1.152-.255c-1.263-.192-2.694-.41-3.194-2.211a19.212 19.212 0 0 1-.411-2.044c-.193-1.188-.32-1.972-.855-2.074a.571.571 0 0 0-.1-.01c-.447 0-.876.594-1.624 2.213-1.338 2.894-1.766 2.929-1.81 2.924-.013 0-.311-.151-.535-2.3a1.24 1.24 0 0 0-.437-1.072.4.4 0 0 0-.468.112c-.469.5-.671 3.075-.228 5.26a8.331 8.331 0 0 0 1.125 2.646 8.893 8.893 0 0 1-.6-.452 7.715 7.715 0 0 1-2.8-4.416c-.542-2.769.606-6 3.414-9.613v2.539a.453.453 0 0 0 .284.444.36.36 0 0 0 .43-.216 92.515 92.515 0 0 1 4.892-8.966c.61 2 2.283 7.577 3.2 11.615.094.414.38 1.674 1.181 1.707.477.02 1.26-.341 2.564-3.684.309-.792.581-1.58.786-2.207.147.687.314 1.6.429 2.646a16.158 16.158 0 0 1-.708 7.486z" transform="translate(-81.313 -897.656)"/></symbol><symbol id="home" viewBox="0 0 16 17"><path d="M16.914 6.971a.435.435 0 0 1-.357.191.421.421 0 0 1-.26-.09L8.499 1.044.702 7.072a.426.426 0 0 1-.617-.101.484.484 0 0 1 .096-.652L8.239.089a.422.422 0 0 1 .521 0l8.058 6.23c.197.152.24.444.096.652zm-14.598.206c.244 0 .441.209.441.467v7.423h3.534v-4.052c0-1.286.991-2.332 2.209-2.332 1.217 0 2.208 1.046 2.208 2.332v4.052h3.534V7.644c0-.258.197-.467.441-.467s.442.209.442.467v7.89a.455.455 0 0 1-.442.466h-4.417a.453.453 0 0 1-.44-.43l-.001-.036v-4.519c0-.772-.595-1.399-1.325-1.399-.731 0-1.326.627-1.326 1.399v4.519l-.001.036a.452.452 0 0 1-.44.43H2.316a.455.455 0 0 1-.442-.466v-7.89c0-.258.198-.467.442-.467z"/></symbol><symbol id="horn-light" viewBox="0 0 18 15.969"><path class="cls-1" d="M15.8 3.781V.869a.889.889 0 0 0-.439-.772.878.878 0 0 0-.888-.008A20.615 20.615 0 0 1 5.831 2.7l-2.79.014A1.363 1.363 0 0 0 1.692 3.92h-.564A1.133 1.133 0 0 0 0 5.052v2.494a1.133 1.133 0 0 0 1.128 1.135H1.7a1.371 1.371 0 0 0 .8 1.09l2.021 5.614a.885.885 0 0 0 .829.584h2.028a.882.882 0 0 0 .723-.379.892.892 0 0 0 .106-.812L6.471 9.957a20.6 20.6 0 0 1 8.009 2.554.89.89 0 0 0 1.327-.78V8.816a2.541 2.541 0 0 0-.007-5.035zM1.683 7.806h-.555a.259.259 0 0 1-.258-.26V5.052a.259.259 0 0 1 .258-.259h.558v3.013zm1.162 1.163a.493.493 0 0 1-.29-.449V4.078a.491.491 0 0 1 .489-.492h2.367v5.426h-2.4a.448.448 0 0 1-.166-.043zm4.541 6.108a.009.009 0 0 1 0 .011.01.01 0 0 1-.01.006h-2.03a.013.013 0 0 1-.011-.008l-1.872-5.2h2.053zm7.547-3.346a.016.016 0 0 1-.009.017.021.021 0 0 1-.023 0 21.482 21.482 0 0 0-8.62-2.688V3.539a21.479 21.479 0 0 0 8.62-2.688.021.021 0 0 1 .023 0 .016.016 0 0 1 .009.017v10.865zm.87-3.8V4.669a1.666 1.666 0 0 1-.003 3.26z"/></symbol><symbol id="house" viewBox="0 0 16 16"><path id="Icon" class="cls-1" d="M217.746 1924h-3.492v1.24h3.492V1924zm-.492.75h-2.508v-.26h2.508v.26zm-3.5 12h.492v1h-.492v-1zm-7-5.5h8.5v.5h-8.5v-.5zm-1.246 6h6.242v-3.75h-6.25v3.75zM206 1934h5.258v1.01H206V1934zm0 1.5h5.258v.26H206v-.26zm0 .75h5.258v.51H206v-.51zm6 .01h.5v.49h-.5v-.49zm-6.75 2.5h.5v.49h-.5v-.49zm.75 0h.5v.49h-.5v-.49zm.75 0h.5v.49h-.5v-.49zm11 .75v-8.36l-6.5-4.77v-.89l7.258 5.38v.88H218v.5h1v-1.62l-1.75-1.3v-3.34h.25v-.49h-3v.49h.254v1.49l-3.754-2.79-8 5.94v1.62h1v-.5h-.5v-.88l7.258-5.38v.89l-6.5 5v8.13H203v.49h16v-.49h-1.254zm-2.5-13.52h1.508v2.97l-1.508-1.12v-1.85zm.75 13.52h-2.758V1934H216v5.51zm1.25-3.25h-.5v.49h.5v2.76h-.75v-6.01h-3.742v6.01h-8.008v-2.76h.5v-.49h-.5v-4.51h1.5v-.5h-1.027l5.777-4.44 5.777 4.44h-1.027v.5h1.5v4.51zm-6.25-5.77a1.245 1.245 0 1 0-1.246-1.24 1.24 1.24 0 0 0 1.246 1.24zm0-2a.765.765 0 0 1 .713.51h-1.426a.764.764 0 0 1 .713-.51zm.713 1a.753.753 0 0 1-1.426 0h1.426z" transform="translate(-203 -1924)"/></symbol><symbol id="lock" viewBox="0 0 9 11"><path d="M2.507 3.512a2 2 0 1 1 4 0v1.5h-4v-1.5zm6.282 1.719a.724.724 0 0 0-.532-.219h-.25v-1.5a3.5 3.5 0 0 0-7 0v1.5h-.25a.748.748 0 0 0-.75.75v4.5a.748.748 0 0 0 .75.75h7.5a.746.746 0 0 0 .75-.75v-4.5a.726.726 0 0 0-.218-.531z"/></symbol><symbol id="master" viewBox="0 0 300 180"><path d="M298.032 90.5c.014 48.936-39.646 88.614-88.582 88.627-48.937.012-88.614-39.646-88.627-88.582V90.5c-.013-48.935 39.647-88.615 88.581-88.628 48.937-.013 88.615 39.647 88.628 88.583v.045z" fill="#f90"/><path d="M90.001 1.895C41.355 2.204 1.967 41.781 1.967 90.5c0 48.909 39.695 88.604 88.605 88.604 22.955 0 43.879-8.748 59.624-23.086l-.007-.004h.019a89.437 89.437 0 0 0 8.995-9.488H141.05a86.536 86.536 0 0 1-6.606-9.127h31.308a88.75 88.75 0 0 0 5.158-9.488h-41.635a87.392 87.392 0 0 1-3.703-9.309h49.045a88.388 88.388 0 0 0 4.56-28.103c0-6.512-.706-12.861-2.042-18.974h-54.164a88.347 88.347 0 0 1 2.528-9.308h49.063a88.618 88.618 0 0 0-3.82-9.487H129.27a85.013 85.013 0 0 1 5.084-9.307h31.285a88.798 88.798 0 0 0-6.877-9.488h-17.443a82.232 82.232 0 0 1 8.889-8.95c-15.746-14.34-36.676-23.09-59.636-23.09h-.571z" fill="#c00"/><path d="M289.143 136.82c.482 0 .951.125 1.409.371.46.246.814.601 1.07 1.062.256.456.384.937.384 1.435 0 .492-.127.968-.379 1.424-.251.455-.605.81-1.061 1.063-.451.249-.928.375-1.424.375s-.972-.126-1.426-.375a2.71 2.71 0 0 1-1.063-1.063 2.908 2.908 0 0 1-.377-1.424c0-.498.127-.979.384-1.435a2.663 2.663 0 0 1 1.071-1.062 2.97 2.97 0 0 1 1.412-.371m0 .475c-.401 0-.793.104-1.176.311-.38.207-.677.5-.891.888a2.378 2.378 0 0 0-.325 1.194c0 .412.106.81.315 1.188.214.377.51.673.888.885.381.211.776.315 1.188.315.414 0 .81-.104 1.189-.315.378-.212.673-.508.884-.885a2.392 2.392 0 0 0-.008-2.382 2.179 2.179 0 0 0-.894-.888 2.402 2.402 0 0 0-1.17-.311m-1.256 3.975v-3.082h1.062c.36 0 .622.028.784.088a.758.758 0 0 1 .388.297.813.813 0 0 1-.098 1.039.949.949 0 0 1-.639.281.896.896 0 0 1 .264.164c.125.12.275.323.455.61l.375.603h-.606l-.272-.485c-.215-.382-.388-.62-.521-.718-.091-.069-.224-.105-.397-.105h-.293v1.311h-.5m.496-1.738h.604c.288 0 .483-.044.588-.129a.421.421 0 0 0 .159-.342.404.404 0 0 0-.075-.244.466.466 0 0 0-.213-.162c-.089-.035-.255-.055-.497-.055h-.564v.932" fill="#fcb340"/><g><path d="M119.975 115.92l1.18-8.02c-.645 0-1.593.279-2.431.279-3.284 0-3.694-1.755-3.436-3.037l3.236-16.13h4.992l1.029-9.103h-4.705l.958-5.516h-9.842c-.208.208-5.568 31.022-5.568 34.776 0 5.555 3.118 8.027 7.516 7.988 3.442-.03 6.125-.982 7.071-1.237zM122.962 100.632c0 13.332 8.799 16.499 16.297 16.499 6.921 0 10.55-1.604 10.55-1.604l1.662-9.1s-5.848 2.378-10.601 2.378c-10.131 0-8.355-7.554-8.355-7.554l19.463.059s1.239-6.111 1.239-8.602c0-6.217-3.387-13.85-13.745-13.85-9.486.003-16.51 10.224-16.51 21.774zm16.546-13.325c5.324 0 4.342 5.984 4.342 6.469h-10.474c0-.62.989-6.47 6.132-6.47zM199.246 115.917l1.689-10.284s-4.632 2.32-7.807 2.32c-6.693 0-9.378-5.11-9.378-10.6 0-11.137 5.758-17.265 12.168-17.265 4.808 0 8.665 2.699 8.665 2.699l1.54-9.993s-4.554-3.29-9.456-3.308c-14.745-.058-23.182 10.208-23.182 27.955 0 11.763 6.248 19.768 17.506 19.768 3.183 0 8.255-1.292 8.255-1.292zM68.086 79.006c-6.47 0-11.427 2.079-11.427 2.079l-1.37 8.127s4.093-1.663 10.28-1.663c3.514 0 6.084.395 6.084 3.25 0 1.734-.314 2.374-.314 2.374s-2.772-.231-4.056-.231c-9.21 0-16.729 3.482-16.729 13.98 0 8.273 5.623 10.17 9.108 10.17 6.657 0 9.292-4.203 9.444-4.215l-.077 3.488h8.307l3.706-25.98c0-11.025-9.616-11.38-12.956-11.38zm1.438 21.096c.18 1.586-.41 9.086-6.092 9.086-2.93 0-3.691-2.24-3.691-3.562 0-2.584 1.403-5.683 8.315-5.683 1.61 0 1.197.116 1.468.159zM89.87 116.9c2.126 0 14.273.54 14.273-11.994 0-11.721-11.244-9.404-11.244-14.114 0-2.342 1.833-3.08 5.184-3.08 1.329 0 6.447.423 6.447.423l1.189-8.33s-3.312-.741-8.704-.741c-6.98 0-14.063 2.786-14.063 12.318 0 10.802 11.812 9.717 11.812 14.267 0 3.037-3.3 3.287-5.844 3.287-4.401 0-8.363-1.511-8.377-1.438l-1.26 8.245c.23.07 2.675 1.157 10.588 1.157zM277.063 71.449l-1.705 12.709s-3.553-4.905-9.112-4.905c-10.459 0-15.849 10.423-15.849 22.396 0 7.73 3.844 15.307 11.699 15.307 5.651 0 8.784-3.941 8.784-3.941l-.415 3.365h9.178l7.207-44.862-9.787-.07zm-4.052 24.7c0 4.984-2.468 11.64-7.581 11.64-3.396 0-4.988-2.85-4.988-7.323 0-7.315 3.285-12.14 7.432-12.14 3.394 0 5.137 2.33 5.137 7.824zM17.005 116.417l5.743-33.87.844 33.87h6.499l12.125-33.87-5.371 33.87h9.658l7.437-44.922-15.342-.117-9.126 27.504-.25-27.387h-14.06l-7.544 44.922h9.387z" fill="#006"/><path d="M162.357 116.48c2.746-15.614 3.724-27.946 11.732-25.392 1.15-6.044 3.891-11.3 5.143-13.858 0 0-.396-.59-2.871-.59-4.225 0-9.866 8.575-9.866 8.575l.843-5.301h-8.786l-5.884 36.566h9.689zM219.006 79.006c-6.472 0-11.43 2.079-11.43 2.079l-1.369 8.127s4.095-1.663 10.28-1.663c3.514 0 6.083.395 6.083 3.25 0 1.734-.313 2.374-.313 2.374s-2.77-.231-4.055-.231c-9.21 0-16.729 3.482-16.729 13.98 0 8.273 5.622 10.17 9.107 10.17 6.655 0 9.292-4.203 9.443-4.215l-.078 3.488h8.31l3.704-25.98c.001-11.025-9.615-11.38-12.953-11.38zm1.436 21.096c.18 1.586-.411 9.086-6.092 9.086-2.932 0-3.692-2.24-3.692-3.562 0-2.584 1.402-5.683 8.315-5.683 1.611 0 1.199.116 1.469.159zM241.522 116.48c1.508-11.487 4.299-27.615 11.731-25.392 1.149-6.044.041-6.028-2.433-6.028-4.228 0-5.164.154-5.164.154l.844-5.301h-8.785l-5.884 36.567h9.69z" fill="#006"/><g><path d="M122.434 113.059l1.181-8.019c-.645 0-1.594.276-2.431.276-3.284 0-3.646-1.746-3.437-3.037l2.653-16.362h4.991l1.205-8.87h-4.706l.958-5.516h-9.434c-.208.208-5.569 31.023-5.569 34.775 0 5.555 3.119 8.029 7.517 7.989 3.444-.029 6.126-.982 7.072-1.236zM125.423 97.77c0 13.332 8.8 16.5 16.297 16.5 6.92 0 9.965-1.547 9.965-1.547l1.662-9.099s-5.264 2.319-10.018 2.319c-10.13 0-8.356-7.553-8.356-7.553h19.172s1.238-6.113 1.238-8.604c0-6.216-3.094-13.79-13.452-13.79-9.486.002-16.508 10.223-16.508 21.774zm16.544-13.325c5.324 0 4.342 5.983 4.342 6.467h-10.474c0-.618.99-6.467 6.132-6.467zM201.707 113.055l1.688-10.285s-4.629 2.321-7.806 2.321c-6.692 0-9.376-5.11-9.376-10.6 0-11.137 5.758-17.264 12.168-17.264 4.807 0 8.665 2.699 8.665 2.699l1.54-9.993s-5.721-2.315-10.625-2.315c-10.891 0-21.486 9.448-21.486 27.192 0 11.766 5.721 19.537 16.979 19.537 3.183.001 8.253-1.292 8.253-1.292zM70.547 76.143c-6.469 0-11.428 2.079-11.428 2.079l-1.369 8.127s4.093-1.663 10.28-1.663c3.513 0 6.083.395 6.083 3.25 0 1.734-.315 2.374-.315 2.374s-2.771-.232-4.054-.232c-8.159 0-16.73 3.482-16.73 13.98 0 8.272 5.623 10.17 9.108 10.17 6.656 0 9.525-4.319 9.678-4.332l-.311 3.605h8.307l3.706-25.981c0-11.022-9.615-11.377-12.955-11.377zm2.021 21.154c.18 1.587-.995 9.026-6.675 9.026-2.93 0-3.692-2.238-3.692-3.562 0-2.582 1.403-5.682 8.316-5.682 1.608.002 1.78.174 2.051.218zM92.331 114.038c2.125 0 14.273.54 14.273-11.995 0-11.719-11.245-9.404-11.245-14.112 0-2.344 1.833-3.082 5.183-3.082 1.33 0 6.447.423 6.447.423l1.19-8.33c0 .001-3.312-.741-8.704-.741-6.979 0-14.063 2.786-14.063 12.318 0 10.801 11.812 9.717 11.812 14.267 0 3.037-3.3 3.284-5.843 3.284-4.401 0-8.364-1.51-8.378-1.438l-1.258 8.246c.228.07 2.672 1.16 10.586 1.16zM279.852 68.668l-2.035 12.627s-3.551-4.905-9.11-4.905c-8.644 0-15.849 10.422-15.849 22.397 0 7.73 3.843 15.304 11.699 15.304 5.651 0 8.784-3.94 8.784-3.94l-.415 3.365h9.176l7.207-44.863-9.457.015zm-4.381 24.62c0 4.983-2.467 11.639-7.582 11.639-3.395 0-4.986-2.85-4.986-7.323 0-7.314 3.285-12.14 7.43-12.14 3.396-.001 5.138 2.332 5.138 7.824zM19.466 113.555l5.743-33.87.843 33.87h6.5l12.125-33.87-5.371 33.87h9.658l7.438-44.923H41.467l-9.301 27.563-.484-27.563H17.915l-7.545 44.923h9.096zM164.818 113.617c2.746-15.616 3.255-28.296 9.808-25.975 1.147-6.044 2.254-8.382 3.506-10.94 0 0-.587-.123-1.819-.123-4.225 0-7.355 5.772-7.355 5.772l.841-5.301h-8.784l-5.885 36.567h9.688zM223.475 76.143c-6.469 0-11.428 2.079-11.428 2.079l-1.368 8.127s4.093-1.663 10.28-1.663c3.513 0 6.081.395 6.081 3.25 0 1.734-.313 2.374-.313 2.374s-2.77-.232-4.055-.232c-8.158 0-16.729 3.482-16.729 13.98 0 8.272 5.622 10.17 9.107 10.17 6.656 0 9.525-4.319 9.677-4.332l-.309 3.605h8.307l3.705-25.981c.001-11.022-9.615-11.377-12.955-11.377zm2.024 21.154c.18 1.587-.996 9.026-6.678 9.026-2.93 0-3.69-2.238-3.69-3.562 0-2.582 1.403-5.682 8.315-5.682 1.608.002 1.78.174 2.053.218zM244.023 113.617c2.747-15.616 3.256-28.296 9.807-25.975 1.149-6.044 2.257-8.382 3.508-10.94 0 0-.587-.123-1.82-.123-4.224 0-7.354 5.772-7.354 5.772l.84-5.301h-8.783l-5.885 36.567h9.687zM289.105 107.975c.479 0 .951.123 1.406.373.459.242.816.598 1.072 1.059.257.458.383.935.383 1.434 0 .493-.126.969-.379 1.424a2.655 2.655 0 0 1-1.059 1.063c-.454.25-.93.376-1.424.376-.498 0-.974-.126-1.429-.376a2.678 2.678 0 0 1-1.058-1.063 2.865 2.865 0 0 1-.381-1.424c0-.499.127-.976.384-1.434a2.63 2.63 0 0 1 1.073-1.059c.461-.25.933-.373 1.412-.373m0 .472c-.401 0-.793.104-1.176.313a2.183 2.183 0 0 0-.894.885c-.214.381-.322.78-.322 1.194s.104.81.313 1.188c.213.377.509.673.891.886.378.208.773.313 1.188.313.412 0 .81-.105 1.188-.313.378-.213.674-.509.884-.886.211-.381.314-.774.314-1.188s-.107-.813-.321-1.194a2.16 2.16 0 0 0-.894-.885 2.408 2.408 0 0 0-1.171-.313m-1.255 3.976v-3.083h1.061c.361 0 .625.029.785.088a.756.756 0 0 1 .388.297.784.784 0 0 1 .146.451.817.817 0 0 1-.244.588.934.934 0 0 1-.637.28.946.946 0 0 1 .262.163c.123.122.275.326.455.611l.377.604h-.609l-.271-.485c-.216-.383-.389-.621-.521-.718-.091-.071-.224-.106-.399-.106h-.291v1.311l-.502-.001m.498-1.735h.604c.289 0 .484-.043.588-.129a.418.418 0 0 0 .16-.342.404.404 0 0 0-.075-.242.458.458 0 0 0-.213-.164c-.091-.035-.254-.053-.498-.053h-.565v.93" fill="#fff"/></g></g></symbol><symbol id="notebook" viewBox="0 0 10 13"><path d="M9.473 13.001H.525a.524.524 0 0 1-.527-.52V1.743c0-.287.236-.52.527-.52h1.311V.517c0-.287.236-.52.528-.52.291 0 .527.233.527.52v.706h.703V.517c0-.287.236-.52.527-.52.291 0 .527.233.527.52v.706h.703V.517c0-.287.236-.52.527-.52.292 0 .528.233.528.52v.706h.703V.517c0-.287.235-.52.526-.52.292 0 .528.233.528.52v.706h1.311c.291 0 .527.233.527.52v10.738c0 .287-.236.52-.528.52zM8.947 2.263h-.784v.173c0 .287-.236.52-.527.52a.524.524 0 0 1-.527-.52v-.173h-.703v.173c0 .287-.236.52-.527.52a.524.524 0 0 1-.528-.52v-.173h-.703v.173c0 .287-.235.52-.527.52a.524.524 0 0 1-.527-.52v-.173h-.703v.173c0 .287-.236.52-.527.52a.524.524 0 0 1-.527-.52v-.173h-.784v9.699h7.894V2.263zM7.635 8.934H2.364a.524.524 0 0 1-.528-.52c0-.287.236-.52.528-.52h5.271c.292 0 .528.233.528.52 0 .287-.236.52-.528.52zm0-1.733H2.364a.524.524 0 0 1-.528-.52c0-.287.236-.52.528-.52h5.271c.292 0 .528.233.528.52 0 .287-.236.52-.528.52zm0-1.733H2.364a.523.523 0 0 1-.528-.519c0-.287.236-.52.528-.52h5.271c.292 0 .528.233.528.52a.523.523 0 0 1-.528.519zM2.364 9.627H5c.291 0 .527.233.527.52 0 .286-.236.52-.527.52H2.364a.524.524 0 0 1-.528-.52c0-.287.236-.52.528-.52z"/></symbol><symbol id="od" viewBox="0 0 320 512"><path d="M275.1 334c-27.4 17.4-65.1 24.3-90 26.9l20.9 20.6 76.3 76.3c27.9 28.6-17.5 73.3-45.7 45.7-19.1-19.4-47.1-47.4-76.3-76.6L84 503.4c-28.2 27.5-73.6-17.6-45.4-45.7 19.4-19.4 47.1-47.4 76.3-76.3l20.6-20.6c-24.6-2.6-62.9-9.1-90.6-26.9-32.6-21-46.9-33.3-34.3-59 7.4-14.6 27.7-26.9 54.6-5.7 0 0 36.3 28.9 94.9 28.9s94.9-28.9 94.9-28.9c26.9-21.1 47.1-8.9 54.6 5.7 12.4 25.7-1.9 38-34.5 59.1zM30.3 129.7C30.3 58 88.6 0 160 0s129.7 58 129.7 129.7c0 71.4-58.3 129.4-129.7 129.4s-129.7-58-129.7-129.4zm66 0c0 35.1 28.6 63.7 63.7 63.7s63.7-28.6 63.7-63.7c0-35.4-28.6-64-63.7-64s-63.7 28.6-63.7 64z"/></symbol><symbol id="paper-plane" viewBox="0 0 512 512"><path d="M476 3.2L12.5 270.6c-18.1 10.4-15.8 35.6 2.2 43.2L121 358.4l287.3-253.2c5.5-4.9 13.3 2.6 8.6 8.3L176 407v80.5c0 23.6 28.5 32.9 42.5 15.8L282 426l124.6 52.2c14.2 6 30.4-2.9 33-18.2l72-432C515 7.8 493.3-6.8 476 3.2z"/></symbol><symbol id="pen" viewBox="100 -40 576 512"><path d="M402.6 83.2l90.2 90.2c3.8 3.8 3.8 10 0 13.8L274.4 405.6l-92.8 10.3c-12.4 1.4-22.9-9.1-21.5-21.5l10.3-92.8L388.8 83.2c3.8-3.8 10-3.8 13.8 0zm162-22.9l-48.8-48.8c-15.2-15.2-39.9-15.2-55.2 0l-35.4 35.4c-3.8 3.8-3.8 10 0 13.8l90.2 90.2c3.8 3.8 10 3.8 13.8 0l35.4-35.4c15.2-15.3 15.2-40 0-55.2z"/></symbol><symbol id="pencil" viewBox="0 0 13 13"><path d="M7.884 2.721l2.309 2.32-5.844 5.87-2.308-2.319 5.843-5.871zm4.061-.559l-1.03-1.034c-.397-.4-1.044-.4-1.443 0l-.986.99 2.309 2.32 1.15-1.156a.792.792 0 0 0 0-1.12zM.833 11.852c-.042.19.128.36.317.314l2.573-.627L1.416 9.22l-.583 2.632z"/></symbol><symbol id="phone-empty" viewBox="0 0 1792 1792"><path d="M1600 1240q0 27-10 70.5t-21 68.5q-21 50-122 106-94 51-186 51-27 0-52.5-3.5T1151 1520t-47.5-14.5-55.5-20.5-49-18q-98-35-175-83-128-79-264.5-215.5T344 904q-48-77-83-175-3-9-18-49t-20.5-55.5T208 577t-12.5-57.5T192 467q0-92 51-186 56-101 106-122 25-11 68.5-21t70.5-10q14 0 21 3 18 6 53 76 11 19 30 54t35 63.5 31 53.5q3 4 17.5 25t21.5 35.5 7 28.5q0 20-28.5 50t-62 55-62 53-28.5 46q0 9 5 22.5t8.5 20.5 14 24 11.5 19q76 137 174 235t235 174q2 1 19 11.5t24 14 20.5 8.5 22.5 5q18 0 46-28.5t53-62 55-62 50-28.5q14 0 28.5 7t35.5 21.5 25 17.5q25 15 53.5 31t63.5 35 54 30q70 35 76 53 3 7 3 21z"/></symbol><symbol id="phone" viewBox="0 0 1792 1792"><path d="M1600 1240q0 27-10 70.5t-21 68.5q-21 50-122 106-94 51-186 51-27 0-52.5-3.5T1151 1520t-47.5-14.5-55.5-20.5-49-18q-98-35-175-83-128-79-264.5-215.5T344 904q-48-77-83-175-3-9-18-49t-20.5-55.5T208 577t-12.5-57.5T192 467q0-92 51-186 56-101 106-122 25-11 68.5-21t70.5-10q14 0 21 3 18 6 53 76 11 19 30 54t35 63.5 31 53.5q3 4 17.5 25t21.5 35.5 7 28.5q0 20-28.5 50t-62 55-62 53-28.5 46q0 9 5 22.5t8.5 20.5 14 24 11.5 19q76 137 174 235t235 174q2 1 19 11.5t24 14 20.5 8.5 22.5 5q18 0 46-28.5t53-62 55-62 50-28.5q14 0 28.5 7t35.5 21.5 25 17.5q25 15 53.5 31t63.5 35 54 30q70 35 76 53 3 7 3 21z"/></symbol><symbol id="pin" viewBox="0 0 28 42"><path d="M21.005 13.985c0 3.855-3.147 6.998-7.006 6.998-3.859 0-7.007-3.143-7.007-6.998 0-3.854 3.148-6.998 7.007-6.998 3.859 0 7.006 3.144 7.006 6.998zm7.006 0c0-7.736-6.267-13.995-14.012-13.995C6.253-.01-.014 6.249-.014 13.985c0 1.668.191 3.39.903 4.893l9.99 21.158c.547 1.203 1.806 1.941 3.12 1.941 1.313 0 2.572-.738 3.147-1.941l9.962-21.158c.712-1.503.903-3.225.903-4.893z"/></symbol><symbol id="plane" viewBox="0 0 42 36"><path d="M0 36l42-18L0 0v14l30 4-30 4z"/></symbol><symbol id="plant" viewBox="0 0 16 16"><path id="Icon" class="cls-1" d="M149.777 1930.46a5.7 5.7 0 0 0 2.121.42 4.485 4.485 0 0 0 1.95-.42c1.784-.82 3-2.79 3.615-5.87a.324.324 0 0 0-.064-.26.33.33 0 0 0-.245-.12c-3.635-.25-6.083.41-7.276 1.94a4.313 4.313 0 0 0-.577 3.82 10.317 10.317 0 0 0-1.233 2.44 3.659 3.659 0 0 0-1.117-1.56 2.956 2.956 0 0 0-.951-2.23c-.9-.79-2.346-1.01-4.29-.64a.341.341 0 0 0-.227.15.324.324 0 0 0-.03.27c.687 2.03 1.639 3.21 2.831 3.51a2.2 2.2 0 0 0 .611.08 3.108 3.108 0 0 0 1.715-.57 3.277 3.277 0 0 1 1.046 2.55.27.27 0 0 0 .008.07 8.042 8.042 0 0 0-.085 1.52 2.244 2.244 0 0 0-2.978.72 1.806 1.806 0 0 0-.329-.03 1.956 1.956 0 1 0 0 3.91h9.813a1.956 1.956 0 1 0 0-3.91 2.063 2.063 0 0 0-1.138.34 2.878 2.878 0 0 0-2.753-1.97 2.933 2.933 0 0 0-1.943.73 7.8 7.8 0 0 1 .209-1.87 9.352 9.352 0 0 1 1.317-3.02zm.642-3.92c1.007-1.29 3.126-1.86 6.3-1.71-.589 2.65-1.651 4.35-3.159 5.04a4.511 4.511 0 0 1-3.4.04 12.8 12.8 0 0 1 2.111-2.2.317.317 0 0 0 .034-.46.352.352 0 0 0-.477-.04 14.066 14.066 0 0 0-2 2.04 3.483 3.483 0 0 1 .591-2.71zm-6.178 3.85a4.782 4.782 0 0 1 1.72.56.351.351 0 0 0 .08.05 2.09 2.09 0 0 1-1.584.28c-.877-.22-1.646-1.16-2.234-2.73a4.032 4.032 0 0 1 3.316.55 2.159 2.159 0 0 1 .688 1.26 5.428 5.428 0 0 0-1.924-.62.327.327 0 1 0-.062.65zm4.09 5.87a2.223 2.223 0 0 1 1.863-.99 2.169 2.169 0 0 1 2.2 1.98.314.314 0 0 0 .241.29.34.34 0 0 0 .368-.11 1.348 1.348 0 0 1 1.087-.53 1.3 1.3 0 1 1 0 2.6h-9.813a1.3 1.3 0 1 1 0-2.6 1.372 1.372 0 0 1 .4.06.342.342 0 0 0 .408-.18 1.537 1.537 0 0 1 1.387-.86 1.555 1.555 0 0 1 1.2.56.314.314 0 0 0 .3.12.282.282 0 0 0 .153-.05.332.332 0 0 0 .206-.29z" transform="translate(-141.469 -1924.16)"/></symbol><symbol id="plus-circle" viewBox="0 0 512 512"><path d="M384 250v12c0 6.6-5.4 12-12 12h-98v98c0 6.6-5.4 12-12 12h-12c-6.6 0-12-5.4-12-12v-98h-98c-6.6 0-12-5.4-12-12v-12c0-6.6 5.4-12 12-12h98v-98c0-6.6 5.4-12 12-12h12c6.6 0 12 5.4 12 12v98h98c6.6 0 12 5.4 12 12zm120 6c0 137-111 248-248 248S8 393 8 256 119 8 256 8s248 111 248 248zm-32 0c0-119.9-97.3-216-216-216-119.9 0-216 97.3-216 216 0 119.9 97.3 216 216 216 119.9 0 216-97.3 216-216z"/></symbol><symbol id="plus" viewBox="0 0 512 512"><path d="M256 8C119 8 8 119 8 256s111 248 248 248 248-111 248-248S393 8 256 8zm144 276c0 6.6-5.4 12-12 12h-92v92c0 6.6-5.4 12-12 12h-56c-6.6 0-12-5.4-12-12v-92h-92c-6.6 0-12-5.4-12-12v-56c0-6.6 5.4-12 12-12h92v-92c0-6.6 5.4-12 12-12h56c6.6 0 12 5.4 12 12v92h92c6.6 0 12 5.4 12 12v56z"/></symbol><symbol id="pointer" viewBox="49 30 40 80"><path d="M92.617 50.709c-.263-.988-.798-2.04-1.193-2.961-4.738-11.384-15.088-15.464-23.445-15.464-11.188 0-23.511 7.5-25.156 22.966v3.159c0 .131.045 1.315.111 1.908.922 7.37 6.736 15.202 11.079 22.571 4.672 7.896 9.521 15.662 14.325 23.428 2.961-5.066 5.912-10.199 8.807-15.137.789-1.447 1.705-2.895 2.495-4.276.525-.921 1.531-1.843 1.991-2.698 4.672-8.554 12.192-17.176 12.192-25.665v-3.488c-.001-.92-1.14-4.145-1.206-4.343zM68.183 66.568c-3.289 0-6.888-1.645-8.665-6.186-.265-.723-.244-2.171-.244-2.304v-2.041c0-5.789 4.917-8.422 9.193-8.422 5.265 0 9.336 4.211 9.336 9.476 0 5.267-4.356 9.477-9.62 9.477z"/></symbol><symbol id="promo-1" viewBox="0 0 20 24"><path d="M1.43 23.217h17.145c.788 0 1.428-.638 1.428-1.424V1.862c0-.785-.64-1.424-1.428-1.424H1.43C.642.438.002 1.077.002 1.862v19.931c0 .786.64 1.424 1.428 1.424zm0-21.355h17.145v19.931H1.43V1.862zm13.573 2.847H9.288a.713.713 0 0 0-.714.712c0 .393.32.712.714.712h5.715a.714.714 0 0 0 .714-.712.714.714 0 0 0-.714-.712zm0 4.271H5.002a.713.713 0 0 0-.714.712c0 .393.32.712.714.712h10.001a.714.714 0 0 0 .714-.712.714.714 0 0 0-.714-.712zm0 4.271H5.002a.714.714 0 0 0-.714.712c0 .392.32.712.714.712h10.001c.393 0 .714-.32.714-.712a.715.715 0 0 0-.714-.712zm0 4.271H5.002a.714.714 0 0 0-.714.712c0 .392.32.712.714.712h10.001c.393 0 .714-.32.714-.712a.715.715 0 0 0-.714-.712z"/></symbol><symbol id="promo-2" viewBox="0 0 22 24"><path d="M19.801 10.835c-.95 1.649-2.286 2.998-3.579 4.302-1.221 1.228-2.371 2.39-3.138 3.721-.575.997-.873 2.006-.914 3.086a1.405 1.405 0 0 1-2.102 1.165l-8.58-4.97a1.409 1.409 0 0 1-.699-1.272c.058-1.548.48-2.981 1.286-4.385.95-1.649 2.286-2.998 3.58-4.3C6.874 6.953 8.026 5.79 8.792 4.458c.575-.997.874-2.006.913-3.085A1.402 1.402 0 0 1 11.807.209l8.58 4.97c.448.26.719.749.7 1.271-.058 1.548-.48 2.983-1.286 4.385zm-8.695-9.408c-.253 6.763-8.662 8.73-8.917 15.494 2.842 1.645 5.739 3.323 8.58 4.97.254-6.764 8.663-8.733 8.918-15.495l-8.581-4.969zm2.94 12.285a.254.254 0 0 1-.201-.01 11.326 11.326 0 0 1-.443-.236 2.125 2.125 0 0 1-.61.704 1.746 1.746 0 0 1-1.332.311 1.42 1.42 0 0 1-.533-.205c-.148-.099-.24-.212-.274-.338a.454.454 0 0 1 .076-.382c.084-.121.17-.193.262-.216a.65.65 0 0 1 .288-.004c.1.02.203.049.31.088.106.036.217.058.331.063a.732.732 0 0 0 .355-.089c.124-.061.25-.183.381-.372a43.896 43.896 0 0 1-1.561-1.027c-.43.406-.863.662-1.29.805-.428.141-.833.129-1.223-.05a1.287 1.287 0 0 1-.546-.431 1.489 1.489 0 0 1-.246-.637 2.382 2.382 0 0 1 .013-.779c.047-.274.128-.545.245-.801l-.162-.077a.25.25 0 0 1-.131-.148.254.254 0 0 1 .01-.21.246.246 0 0 1 .161-.14.263.263 0 0 1 .201.019l.165.089a2.51 2.51 0 0 1 .916-.877c.205-.106.412-.164.625-.183a.902.902 0 0 1 .602.16.564.564 0 0 1 .26.35.473.473 0 0 1-.073.37.376.376 0 0 1-.299.167 8.355 8.355 0 0 1-.418.015 1.594 1.594 0 0 0-.452.074c-.152.047-.291.165-.415.357.466.287.94.603 1.415.925.2-.174.403-.332.607-.482.204-.149.418-.261.635-.337.22-.078.449-.112.688-.109.24.002.496.069.766.195.236.109.415.24.543.414.128.172.212.376.251.618.039.239.034.511-.016.804a3.838 3.838 0 0 1-.279.902c.147.074.292.143.437.207a.239.239 0 0 1 .129.143.273.273 0 0 1-.011.216.25.25 0 0 1-.157.144zm-5.265-3.21a1.352 1.352 0 0 0-.135.377.934.934 0 0 0-.008.34.7.7 0 0 0 .102.277.5.5 0 0 0 .191.183.674.674 0 0 0 .557.062c.189-.06.395-.197.617-.41-.447-.296-.89-.579-1.324-.829zm4.195 1.039a.646.646 0 0 0-.261-.254.696.696 0 0 0-.359-.098.894.894 0 0 0-.338.075 1.632 1.632 0 0 0-.304.184c-.097.076-.186.149-.271.219.494.331.985.651 1.468.934.058-.11.101-.229.132-.359.031-.13.042-.254.031-.372a.861.861 0 0 0-.098-.329zm-.351-7.767l-.293.761c-.183.474-.412.95-.681 1.418-.28.486-.6.942-.935 1.381h-.004a.351.351 0 0 1-.475.117.356.356 0 0 1-.13-.485.33.33 0 0 1 .064-.079c.316-.412.615-.835.874-1.285.25-.436.463-.88.633-1.321l.285-.739a.352.352 0 0 1 .519-.229c.161.094.22.294.142.46l.001.001zm-2.373 13.695c.28-.487.601-.941.936-1.381l.002-.001a.35.35 0 0 1 .586.383c-.007.013-.017.024-.027.037l.002.001c-.341.441-.614.83-.892 1.313a9.469 9.469 0 0 0-.635 1.32l-.274.71a.314.314 0 0 1-.031.082.355.355 0 0 1-.481.129.353.353 0 0 1-.158-.414l-.002-.001.294-.758c.183-.474.411-.952.68-1.42z"/></symbol><symbol id="question" viewBox="0 0 16 16"><path d="M6.88 11.06V13h2.35v-1.94zM8 16A8 8 0 1 1 8 0a8 8 0 0 1 0 16zM5.57 3.51C4.586 4.043 4.063 4.948 4 6.224h2.28c0-.372.128-.73.383-1.075s.687-.517 1.298-.517c.62 0 1.048.14 1.282.42.234.28.35.59.35.93 0 .295-.105.566-.315.812l-.457.397-.576.383c-.568.376-.92.708-1.058.997-.136.289-.22.811-.252 1.568h2.13c.005-.358.04-.622.103-.792.1-.27.302-.504.607-.706l.56-.369c.568-.376.952-.685 1.152-.927.342-.398.513-.889.513-1.47 0-.95-.393-1.666-1.18-2.15C10.035 3.242 9.048 3 7.859 3c-.905 0-1.667.17-2.288.51zm0 0" fill-rule="evenodd"/></symbol><symbol id="rate" viewBox="0 0 13 18"><path d="M12.145 18H.855C.383 18 0 17.602 0 17.113V.887C0 .398.383 0 .855 0h8.632c.112 0 .213.047.286.123h.001l3.107 3.227a.424.424 0 0 1 .118.293l.001.005v13.465c0 .489-.383.887-.855.887zM9.893 1.439v1.743c0 .024.019.044.042.044h1.679L9.893 1.439zm2.295 2.63H9.935c-.471 0-.854-.398-.854-.887V.843H.855a.044.044 0 0 0-.043.044v16.226c0 .024.019.044.043.044h11.29c.024 0 .043-.02.043-.044V4.069zm-2.096 7.626H2.908a.414.414 0 0 1-.406-.421c0-.233.182-.422.406-.422h7.184c.224 0 .406.189.406.422a.414.414 0 0 1-.406.421zm0-2.543H2.908a.414.414 0 0 1-.406-.421c0-.233.182-.422.406-.422h7.184c.224 0 .406.189.406.422a.414.414 0 0 1-.406.421zm0-2.543H2.908a.414.414 0 0 1-.406-.421c0-.233.182-.422.406-.422h7.184c.224 0 .406.189.406.422a.414.414 0 0 1-.406.421zm-7.184 6.787H6.5c.224 0 .406.188.406.421a.414.414 0 0 1-.406.422H2.908a.414.414 0 0 1-.406-.422c0-.233.182-.421.406-.421z"/></symbol><symbol id="reload" viewBox="0 0 16 16"><path d="M14 8c-.609 0-.898.43-1 .883C12.635 10.516 11.084 13 8 13a4.947 4.947 0 0 1-2.114-.474L6.414 12c.359-.344.586-.555.586-1 0-.523-.438-1-1-1H3c-.609 0-1 .492-1 1v3c0 .541.428 1 1 1 .484 0 .688-.273 1-.594l.408-.407A6.933 6.933 0 0 0 8 15c4.99 0 7-4.75 7-5.938C15 8.336 14.469 8 14 8zM3 7.117C3.365 5.485 4.916 3 8 3c.757 0 1.473.171 2.114.473L9.586 4C9.227 4.344 9 4.555 9 5c0 .523.438 1 1 1h3c.609 0 1-.492 1-1V2c0-.541-.428-1-1-1-.484 0-.688.273-1 .594l-.408.407A6.933 6.933 0 0 0 8 1C3.01 1 1 5.75 1 6.938 1 7.664 1.531 8 2 8c.609 0 .898-.43 1-.883z"/></symbol><symbol id="rub" viewBox="0 0 384 512"><path d="M239.36 320C324.48 320 384 260.542 384 175.071S324.48 32 239.36 32H76c-6.627 0-12 5.373-12 12v206.632H12c-6.627 0-12 5.373-12 12V308c0 6.627 5.373 12 12 12h52v32H12c-6.627 0-12 5.373-12 12v40c0 6.627 5.373 12 12 12h52v52c0 6.627 5.373 12 12 12h58.56c6.627 0 12-5.373 12-12v-52H308c6.627 0 12-5.373 12-12v-40c0-6.627-5.373-12-12-12H146.56v-32h92.8zm-92.8-219.252h78.72c46.72 0 74.88 29.11 74.88 74.323 0 45.832-28.16 75.561-76.16 75.561h-77.44V100.748z"/></symbol><symbol id="search-light" viewBox="0 0 512 512"><path d="M508.5 481.6l-129-129c-2.3-2.3-5.3-3.5-8.5-3.5h-10.3C395 312 416 262.5 416 208 416 93.1 322.9 0 208 0S0 93.1 0 208s93.1 208 208 208c54.5 0 104-21 141.1-55.2V371c0 3.2 1.3 6.2 3.5 8.5l129 129c4.7 4.7 12.3 4.7 17 0l9.9-9.9c4.7-4.7 4.7-12.3 0-17zM208 384c-97.3 0-176-78.7-176-176S110.7 32 208 32s176 78.7 176 176-78.7 176-176 176z"/></symbol><symbol id="search" viewBox="0 0 512 512"><path d="M505 442.7L405.3 343c-4.5-4.5-10.6-7-17-7H372c27.6-35.3 44-79.7 44-128C416 93.1 322.9 0 208 0S0 93.1 0 208s93.1 208 208 208c48.3 0 92.7-16.4 128-44v16.3c0 6.4 2.5 12.5 7 17l99.7 99.7c9.4 9.4 24.6 9.4 33.9 0l28.3-28.3c9.4-9.4 9.4-24.6.1-34zM208 336c-70.7 0-128-57.2-128-128 0-70.7 57.2-128 128-128 70.7 0 128 57.2 128 128 0 70.7-57.2 128-128 128z"/></symbol><symbol id="security" viewBox="0 0 17.531 22.625"><path id="Icon" class="cls-1" d="M202.649 901.331c-5.556 0-8.049-2.839-8.085-2.882a.383.383 0 0 0-.292-.135.437.437 0 0 0-.293.134c-.025.03-2.516 2.883-8.086 2.883a.379.379 0 0 0-.381.377v7.2a12.708 12.708 0 0 0 4.778 10 11.658 11.658 0 0 0 3.873 2.019.4.4 0 0 0 .108.016.392.392 0 0 0 .108-.016 11.658 11.658 0 0 0 3.873-2.019 12.708 12.708 0 0 0 4.778-10v-7.2a.379.379 0 0 0-.381-.377zm-.381 7.575a11.953 11.953 0 0 1-4.486 9.409 10.912 10.912 0 0 1-3.511 1.856 10.36 10.36 0 0 1-2.006-.861.372.372 0 0 0 .1-.253.379.379 0 0 0-.736-.125q-.442-.285-.87-.617l-.047-.039a.375.375 0 1 0-.251-.351.371.371 0 0 0 .063.2 11.332 11.332 0 0 1-1.956-2.084.376.376 0 1 0-.359-.526 11.488 11.488 0 0 1-.471-.793.361.361 0 0 0 .057-.187.373.373 0 0 0-.341-.369 12.225 12.225 0 0 1-.92-2.753.373.373 0 0 0-.113-.619 12.515 12.515 0 0 1-.139-1.541.376.376 0 0 0-.01-.752v-1.509a.377.377 0 1 0 0-.754v-1.509a.377.377 0 1 0 0-.754v-1.509a.379.379 0 0 0 .381-.377.174.174 0 0 0 0-.022 15.516 15.516 0 0 0 1.574-.148.366.366 0 0 0-.046.17.381.381 0 0 0 .762 0 .375.375 0 0 0-.116-.27 12.584 12.584 0 0 0 2.782-.859.381.381 0 0 0 .761 0 .372.372 0 0 0-.148-.292c.308-.16.583-.322.827-.479a.393.393 0 0 0 .083.016.376.376 0 0 0 .371-.328 7.916 7.916 0 0 0 .771-.636c.813.773 3.335 2.743 8 2.846v6.825zm-8-8.33a.378.378 0 1 1-.381.378.379.379 0 0 1 .384-.378zm-6.854 2.263a.378.378 0 1 1-.381.377.379.379 0 0 1 .384-.377zm2.284 0a.378.378 0 1 1-.38.377.379.379 0 0 1 .382-.377zm1.143-1.131a.377.377 0 1 1-.381.377.379.379 0 0 1 .384-.377zm1.142 1.131a.378.378 0 1 1-.381.377.379.379 0 0 1 .384-.377zm1.143-1.131a.377.377 0 1 1-.381.377.379.379 0 0 1 .384-.377zm1.142 1.131a.378.378 0 1 1-.381.377.379.379 0 0 1 .384-.377zm-6.854 2.263a.378.378 0 1 1-.381.377.379.379 0 0 1 .384-.379zm1.142-1.131a.377.377 0 1 1-.381.377.379.379 0 0 1 .384-.377zm1.144 1.129a.378.378 0 1 1-.38.377.379.379 0 0 1 .38-.377zm1.143-1.131a.377.377 0 1 1-.381.377.379.379 0 0 1 .382-.375zm1.142 1.131a.378.378 0 1 1-.381.377.379.379 0 0 1 .382-.377zm1.143-1.131a.377.377 0 1 1-.381.377.379.379 0 0 1 .382-.375zm1.142 1.131a.378.378 0 1 1-.381.377.379.379 0 0 1 .382-.377zm-6.854 2.263a.377.377 0 1 1-.381.377.379.379 0 0 1 .382-.375zm1.142-1.131a.377.377 0 1 1-.381.377.379.379 0 0 1 .382-.375zm1.142 1.131a.377.377 0 1 1-.38.377.379.379 0 0 1 .38-.375zm1.143-1.131a.377.377 0 1 1-.381.377.379.379 0 0 1 .382-.375zm1.142 1.131a.377.377 0 1 1-.381.377.379.379 0 0 1 .382-.375zm1.143-1.131a.377.377 0 1 1-.381.377.379.379 0 0 1 .382-.375zm1.142 1.131a.377.377 0 1 1-.381.377.379.379 0 0 1 .382-.375zm-6.854 2.263a.377.377 0 1 1-.381.377.379.379 0 0 1 .382-.375zm1.142-1.131a.377.377 0 1 1-.381.377.379.379 0 0 1 .382-.372zm1.142 1.131a.377.377 0 1 1-.38.377.379.379 0 0 1 .38-.375zm1.143-1.131a.377.377 0 1 1-.381.377.379.379 0 0 1 .382-.372zm1.142 1.131a.377.377 0 1 1-.381.377.379.379 0 0 1 .382-.375zm1.143-1.131a.377.377 0 1 1-.381.377.379.379 0 0 1 .382-.372zm1.142 1.131a.377.377 0 1 1-.381.377.379.379 0 0 1 .382-.375zm-6.854 2.263a.377.377 0 1 1-.381.377.378.378 0 0 1 .382-.375zm1.142-1.131a.377.377 0 1 1-.381.377.379.379 0 0 1 .382-.375zm1.142 1.131a.377.377 0 1 1-.38.377.378.378 0 0 1 .38-.375zm1.143-1.131a.377.377 0 1 1-.381.377.379.379 0 0 1 .382-.375zm1.142 1.131a.377.377 0 1 1-.381.377.378.378 0 0 1 .382-.375zm1.143-1.131a.377.377 0 1 1-.381.377.379.379 0 0 1 .382-.375zm1.142 1.131a.377.377 0 1 1-.381.377.378.378 0 0 1 .382-.375zm-5.712 1.131a.378.378 0 1 1-.381.377.379.379 0 0 1 .382-.375zm1.142 1.132a.377.377 0 1 1-.38.377.379.379 0 0 1 .38-.375zm1.143-1.132a.378.378 0 1 1-.381.377.379.379 0 0 1 .382-.375zm1.142 1.132a.377.377 0 1 1-.381.377.379.379 0 0 1 .382-.375zm1.143-1.132a.378.378 0 1 1-.381.377.379.379 0 0 1 .382-.375zm1.142 1.132a.377.377 0 1 1-.381.377.379.379 0 0 1 .382-.375zm-4.57 2.263a.377.377 0 1 1-.38.377.378.378 0 0 1 .38-.375zm1.143-1.132a.377.377 0 1 1-.381.377.379.379 0 0 1 .382-.375zm1.142 1.132a.377.377 0 1 1-.381.377.378.378 0 0 1 .382-.375zm1.143-1.132a.377.377 0 1 1-.381.377.379.379 0 0 1 .382-.375zm1.142 1.132a.377.377 0 1 1-.381.377.378.378 0 0 1 .382-.375zm-1.142 1.131a.377.377 0 1 1-.381.377.379.379 0 0 1 .382-.375zm1.142 1.132a.377.377 0 1 1-.381.377.378.378 0 0 1 .382-.375z" transform="translate(-185.5 -898.313)"/></symbol><symbol id="share" viewBox="0 0 512 512"><path d="M503.691 189.836L327.687 37.851C312.281 24.546 288 35.347 288 56.015v80.053C127.371 137.907 0 170.1 0 322.326c0 61.441 39.581 122.309 83.333 154.132 13.653 9.931 33.111-2.533 28.077-18.631C66.066 312.814 132.917 274.316 288 272.085V360c0 20.7 24.3 31.453 39.687 18.164l176.004-152c11.071-9.562 11.086-26.753 0-36.328z"/></symbol><symbol id="shop" viewBox="0 0 16 16"><path id="Icon" class="cls-1" d="M280.681 1924h-15.362a.354.354 0 0 0-.319.38v15.24a.354.354 0 0 0 .319.38h15.362a.354.354 0 0 0 .319-.38v-15.24a.354.354 0 0 0-.319-.38zm-5.814 4.05v-3.28h2.4v3.28c0 .09 0 .18.012.26a1.211 1.211 0 1 1-2.422 0c.006-.08.01-.17.01-.26zm-3.066 0v-3.28h2.4v3.28c0 .09 0 .18.012.26a1.211 1.211 0 1 1-2.422 0c.009-.08.009-.17.009-.26zm-3.066 0v-3.28h2.4v3.28c0 .09 0 .18.013.26a1.211 1.211 0 1 1-2.422 0c.004-.08.009-.17.009-.26zm-3.1-.65v-2.63h2.429v3.28c0 .09.005.18.013.26a1.323 1.323 0 0 1-1.212 1.22 1.372 1.372 0 0 1-1.23-1.48v-.65zm4.781 11.83h-4.781v-2.64h4.781v2.64zm0-3.41h-4.781v-3.68h4.781v3.68zm4.526 3.41h-3.888v-7.09h3.888v7.09zm5.419 0h-4.781v-2.64h4.781v2.64zm0-3.41h-4.781v-3.68h4.781v3.68zm0-4.45h-14.724v-1.63a1.686 1.686 0 0 0 1.23.56 1.792 1.792 0 0 0 1.534-.97 1.7 1.7 0 0 0 3.066 0 1.7 1.7 0 0 0 3.066 0 1.7 1.7 0 0 0 3.066 0 1.792 1.792 0 0 0 1.533.97 1.682 1.682 0 0 0 1.23-.56v1.63zm0-3.97v.65a1.372 1.372 0 0 1-1.231 1.48 1.322 1.322 0 0 1-1.211-1.22c.008-.08.013-.17.013-.26v-3.28h2.429v2.63zm-8.67 7.94a.354.354 0 0 0-.319.38v.34a.325.325 0 1 0 .638 0v-.34a.354.354 0 0 0-.317-.38zm5.833-.58h-.124a.353.353 0 0 0-.318.38.356.356 0 0 0 .318.39h.128a.392.392 0 0 0-.002-.77zm2.2 0h-1.211a.392.392 0 0 0 0 .77h1.211a.392.392 0 0 0 .001-.77z" transform="translate(-265 -1924)"/></symbol><symbol id="spam" viewBox="0 0 576 512"><path d="M286.693 391.984l32.579 46.542A333.958 333.958 0 0 1 288 440C168.19 440 63.031 376.051 6.646 280.369a47.999 47.999 0 0 1 0-48.739c24.023-40.766 56.913-75.775 96.024-102.537l57.077 81.539C154.736 224.82 152 240.087 152 256c0 74.736 60.135 135.282 134.693 135.984zm282.661-111.615c-31.667 53.737-78.747 97.46-135.175 125.475l.011.015 41.47 59.2c7.6 10.86 4.96 25.82-5.9 33.42l-13.11 9.18c-10.86 7.6-25.82 4.96-33.42-5.9L100.34 46.94c-7.6-10.86-4.96-25.82 5.9-33.42l13.11-9.18c10.86-7.6 25.82-4.96 33.42 5.9l51.038 72.617C230.68 75.776 258.905 72 288 72c119.81 0 224.969 63.949 281.354 159.631a48.002 48.002 0 0 1 0 48.738zM424 256c0-75.174-60.838-136-136-136-17.939 0-35.056 3.473-50.729 9.772l19.299 27.058c25.869-8.171 55.044-6.163 80.4 7.41h-.03c-23.65 0-42.82 19.17-42.82 42.82 0 23.626 19.147 42.82 42.82 42.82 23.65 0 42.82-19.17 42.82-42.82v-.03c18.462 34.49 16.312 77.914-8.25 110.95v.01l19.314 27.061C411.496 321.2 424 290.074 424 256zM262.014 356.727l-77.53-110.757c-5.014 52.387 29.314 98.354 77.53 110.757z"/></symbol><symbol id="success" viewBox="0 0 70 70"><path d="M34.5 65C17.683 65 4 51.318 4 34.5 4 17.682 17.683 4 34.5 4S65 17.682 65 34.5C65 51.318 51.317 65 34.5 65zm0-59.032c-15.733 0-28.532 12.8-28.532 28.532S18.767 63.032 34.5 63.032s28.532-12.8 28.532-28.532S50.233 5.968 34.5 5.968zm16.376 19.528L28.861 47.509 17.958 36.606l.023-.023a1.102 1.102 0 0 1-.591-.967c0-.616.5-1.116 1.116-1.116.559 0 1.003.419 1.084.955l9.271 9.272L49.44 24.149a1.102 1.102 0 0 1 1.054-.808c.616 0 1.116.5 1.116 1.116 0 .481-.308.882-.734 1.039z"/></symbol><symbol id="trash" viewBox="0 0 12 15"><path d="M11.11 4.462v9.524c0 .575-.453 1.014-1.035 1.014H1.924a1.002 1.002 0 0 1-1.026-1.014V4.462H0V2.789c0-.575.453-1.023 1.035-1.023h2.036V.465A.46.46 0 0 1 3.541 0h4.832c.009 0 .026.008.035.017C8.416.008 8.433 0 8.459 0c.265 0 .479.203.479.465v1.301h2.027c.582 0 1.035.448 1.035 1.023v1.673h-.89zm-9.271 9.524c0 .059.026.084.085.084h8.151c.06 0 .086-.025.086-.084V4.462H1.839v9.524zM7.989.929H4.011v.837h3.978V.929zm3.062 1.86c0-.059-.026-.093-.086-.093h-9.93c-.06 0-.086.034-.086.093v.743h10.102v-.743zM7.723 5.552h.95v7.69h-.95v-7.69zm-2.189 0h.949v7.69h-.949v-7.69zm-2.19 0h.95v7.69h-.95v-7.69z"/></symbol><symbol id="turbo" viewBox="0 0 63 64"><path fill-rule="evenodd" fill-opacity=".149" fill="#FFF" d="M42.405 39.491c1.728-1.344 3.792-3.288 6.192-5.832 2.4-2.544 4.752-5.376 7.056-8.496 2.304-3.12 4.128-6.744 5.472-10.872 1.344-4.128 1.776-8.16 1.296-12.097-.096-.479-.24-.815-.432-1.007a1.382 1.382 0 0 0-1.008-.432c-3.84-.576-7.8-.12-11.88 1.368-4.08 1.488-7.56 3.288-10.44 5.399-2.88 2.113-5.712 4.609-8.496 7.488-2.784 2.881-4.632 4.921-5.544 6.121-.912 1.2-1.608 2.135-2.088 2.808l-5.112-.432h-3.744c-1.104 0-2.088.312-2.952.935a44.874 44.874 0 0 1-2.088 1.441c-.528.335-1.128 1.2-1.8 2.591l-1.584 3.24c-.384.769-1.032 2.329-1.944 4.68l-2.232 5.688c-.576 1.537-.504 2.641.216 3.312.72.673 1.752.721 3.096.144l7.632-2.879 9.36 9.503-2.88 7.921c-.48 1.343-.408 2.399.216 3.167.624.768 1.704.865 3.24.289l11.16-4.897c.624-.288 1.704-.911 3.24-1.871 1.536-.96 2.376-1.729 2.52-2.305.144-.575.456-1.535.936-2.88.48-1.342.672-2.759.576-4.248-.096-1.487-.288-3.431-.576-5.832l2.592-2.015zm-.576-23.329c0-1.535.528-2.855 1.584-3.96 1.056-1.103 2.352-1.656 3.888-1.656s2.832.553 3.888 1.656c1.056 1.105 1.584 2.425 1.584 3.96 0 1.537-.528 2.857-1.584 3.96-1.056 1.105-2.352 1.656-3.888 1.656s-2.832-.527-3.888-1.583c-1.056-1.152-1.584-2.496-1.584-4.033z"/></symbol><symbol id="undo" viewBox="0 0 512 512"><path d="M255.545 8c-66.269.119-126.438 26.233-170.86 68.685L48.971 40.971C33.851 25.851 8 36.559 8 57.941V192c0 13.255 10.745 24 24 24h134.059c21.382 0 32.09-25.851 16.971-40.971l-41.75-41.75c30.864-28.899 70.801-44.907 113.23-45.273 92.398-.798 170.283 73.977 169.484 169.442C423.236 348.009 349.816 424 256 424c-41.127 0-79.997-14.678-110.63-41.556-4.743-4.161-11.906-3.908-16.368.553L89.34 422.659c-4.872 4.872-4.631 12.815.482 17.433C133.798 479.813 192.074 504 256 504c136.966 0 247.999-111.033 248-247.998C504.001 119.193 392.354 7.755 255.545 8z"/></symbol><symbol id="up" viewBox="0 0 512 512"><path d="M8 256C8 119 119 8 256 8s248 111 248 248-111 248-248 248S8 393 8 256zm292 116V256h70.9c10.7 0 16.1-13 8.5-20.5L264.5 121.2c-4.7-4.7-12.2-4.7-16.9 0l-115 114.3c-7.6 7.6-2.2 20.5 8.5 20.5H212v116c0 6.6 5.4 12 12 12h64c6.6 0 12-5.4 12-12z"/></symbol><symbol id="urgent" viewBox="0 0 69 60"><path fill-rule="evenodd" fill-opacity=".2" fill="#FFF" d="M18.662 9.131c-5.713 5.568-8.665 12.336-8.856 20.303H.878l13.248 14.833 13.248-14.833H17.15c.191-5.951 2.423-10.991 6.696-15.119 4.272-4.128 9.407-6.192 15.408-6.192 6 0 11.16 2.16 15.48 6.48s6.48 9.529 6.48 15.624c0 6.096-2.16 11.304-6.48 15.623-4.32 4.321-9.504 6.481-15.552 6.481-4.8 0-9.169-1.441-13.104-4.32l-5.04 5.471c5.472 4.224 11.52 6.337 18.144 6.337 8.16 0 15.095-2.881 20.808-8.64 5.712-5.761 8.568-12.72 8.568-20.881 0-8.159-2.856-15.12-8.568-20.879C54.277 3.659 47.342.778 39.182.778c-7.968 0-14.808 2.785-20.52 8.353zM36.59 31.306l10.8 10.801 3.6-3.601-9.36-9.359V14.459h-5.04v16.847z"/></symbol><symbol id="user-reg" viewBox="0 0 10.719 12.844"><path d="M10.651 9.297a7.216 7.216 0 0 0-.264-1.272 4.238 4.238 0 0 0-.49-1.1 2.349 2.349 0 0 0-.787-.745 2.179 2.179 0 0 0-1.126-.289 3.738 3.738 0 0 1-5.24 0 2.179 2.179 0 0 0-1.126.289 2.348 2.348 0 0 0-.787.745 4.231 4.231 0 0 0-.49 1.1 7.189 7.189 0 0 0-.264 1.272 12 12 0 0 0-.071 1.343 2.427 2.427 0 0 0 .523 1.566 1.568 1.568 0 0 0 1.26.653h7.15a1.569 1.569 0 0 0 1.26-.653 2.428 2.428 0 0 0 .523-1.566 12.049 12.049 0 0 0-.071-1.343zm-5.286-9.3a3.216 3.216 0 1 0 2.273.942A3.1 3.1 0 0 0 5.369.001z"/></symbol><symbol id="user" viewBox="0 0 17 16"><path d="M.675 16h15.65a.71.71 0 0 0 .535-.233.573.573 0 0 0 .14-.458 8.584 8.584 0 0 0-4.532-6.493 5.619 5.619 0 0 1-7.94 0A8.583 8.583 0 0 0 0 15.309a.575.575 0 0 0 .142.459.709.709 0 0 0 .533.232zm4.3-7.8c.091.1.187.186.285.275a4.853 4.853 0 0 0 6.482 0c.1-.088.194-.179.285-.275s.179-.193.263-.3a4.872 4.872 0 1 0-7.579 0c.083.106.171.2.263.3z"/></symbol><symbol id="users" viewBox="0 0 15 14"><path d="M4.008 5.006a3.893 3.893 0 0 1 .039-.516 3.134 3.134 0 0 1-1.039.18 2.741 2.741 0 0 1-.93-.168 5.074 5.074 0 0 1-.762-.332 1.508 1.508 0 0 0-.34-.164q-.969 0-.969 2.758a1.071 1.071 0 0 0 .438.926 1.79 1.79 0 0 0 1.078.316h1.046a2.692 2.692 0 0 1 2.07-1 3.439 3.439 0 0 1-.633-2zm8.973 6.168a7.941 7.941 0 0 0-.109-.851 6.589 6.589 0 0 0-.207-.848 4.025 4.025 0 0 0-.336-.762 2.77 2.77 0 0 0-.484-.633 2.061 2.061 0 0 0-.668-.418 2.349 2.349 0 0 0-.871-.156.92.92 0 0 0-.336.168q-.258.168-.57.375a3.627 3.627 0 0 1-3.781 0q-.312-.207-.57-.375a.921.921 0 0 0-.336-.168 2.349 2.349 0 0 0-.871.156 2.059 2.059 0 0 0-.668.418 2.77 2.77 0 0 0-.484.633 4.018 4.018 0 0 0-.336.762 6.589 6.589 0 0 0-.207.848 7.916 7.916 0 0 0-.109.851q-.027.394-.027.809a1.946 1.946 0 0 0 .57 1.48 2.107 2.107 0 0 0 1.516.543h6.828a2.107 2.107 0 0 0 1.516-.543 1.946 1.946 0 0 0 .57-1.48q-.003-.414-.031-.809zM3.008.006a2 2 0 1 0 1.414.586A1.925 1.925 0 0 0 3.008.006zm4.5 2a3 3 0 1 0 2.121.879 2.89 2.89 0 0 0-2.121-.879zm6.531 2a1.509 1.509 0 0 0-.34.164 5.076 5.076 0 0 1-.762.332 2.742 2.742 0 0 1-.93.168 3.133 3.133 0 0 1-1.039-.18 3.912 3.912 0 0 1 .039.516 3.439 3.439 0 0 1-.633 2 2.692 2.692 0 0 1 2.07 1h1.047a1.791 1.791 0 0 0 1.078-.316 1.071 1.071 0 0 0 .438-.926q0-2.758-.969-2.758zm-2.031-4a2 2 0 1 0 1.414.586 1.925 1.925 0 0 0-1.414-.586z"/></symbol><symbol id="vip" viewBox="0 0 13 10"><path d="M12.086 3.149c-.01 0-.019-.003-.027-.004l-1.237 5.571H2.489L1.253 3.145c-.009.001-.017.004-.027.004-.504 0-.915-.433-.915-.968 0-.534.411-.967.915-.967.505 0 .916.433.916.967a.98.98 0 0 1-.433.82c.55.803 1.329 1.735 2.129 2.005 1.056.355 2.039-1.829 2.522-3.128a.966.966 0 0 1-.62-.913c0-.533.411-.967.915-.967.505 0 .915.434.915.967a.966.966 0 0 1-.62.913c.484 1.299 1.468 3.483 2.522 3.128.802-.27 1.579-1.202 2.13-2.005a.978.978 0 0 1-.433-.82c0-.534.41-.967.917-.967.503 0 .914.433.914.967 0 .535-.41.968-.914.968zM10.78 9.998H2.531V8.912h8.249v1.086z"/></symbol><symbol id="visa" viewBox="0 0 88.0487 26.9959"><path fill="#004686" d="M31.018 26.608L35.475.454h7.13l-4.46 26.154h-7.127zM63.999 1.098C62.586.568 60.373 0 57.609 0c-7.043 0-12.005 3.547-12.047 8.63-.04 3.759 3.542 5.855 6.246 7.106 2.775 1.281 3.708 2.1 3.694 3.244-.017 1.753-2.215 2.554-4.264 2.554-2.854 0-4.37-.396-6.71-1.372l-.92-.417-1 5.855c1.666.73 4.744 1.363 7.941 1.396 7.494 0 12.358-3.507 12.413-8.935.027-2.976-1.872-5.24-5.984-7.106-2.492-1.21-4.018-2.017-4.002-3.242 0-1.088 1.292-2.25 4.082-2.25 2.332-.037 4.02.472 5.336 1.002l.639.301.966-5.668zM82.279.478H76.77c-1.706 0-2.983.467-3.733 2.17L62.45 26.616h7.486s1.224-3.223 1.5-3.93c.82 0 8.09.011 9.13.011.214.916.868 3.92.868 3.92l6.615-.001L82.279.478m-8.79 16.858c.589-1.507 2.84-7.31 2.84-7.31-.042.069.584-1.515.945-2.496l.482 2.254 1.65 7.553h-5.918zM25.04.473l-6.98 17.835-.743-3.624c-1.3-4.179-5.348-8.705-9.873-10.971l6.381 22.872 7.543-.009L32.59.473H25.04z"/><path d="M11.586.457H.091L0 1.001c8.943 2.165 14.86 7.397 17.317 13.683l-2.5-12.019C14.386 1.01 13.134.515 11.586.457z" fill="#ef9b11"/></symbol><symbol id="vk" viewBox="0 0 576 512"><path d="M545 117.7c3.7-12.5 0-21.7-17.8-21.7h-58.9c-15 0-21.9 7.9-25.6 16.7 0 0-30 73.1-72.4 120.5-13.7 13.7-20 18.1-27.5 18.1-3.7 0-9.4-4.4-9.4-16.9V117.7c0-15-4.2-21.7-16.6-21.7h-92.6c-9.4 0-15 7-15 13.5 0 14.2 21.2 17.5 23.4 57.5v86.8c0 19-3.4 22.5-10.9 22.5-20 0-68.6-73.4-97.4-157.4-5.8-16.3-11.5-22.9-26.6-22.9H38.8c-16.8 0-20.2 7.9-20.2 16.7 0 15.6 20 93.1 93.1 195.5C160.4 378.1 229 416 291.4 416c37.5 0 42.1-8.4 42.1-22.9 0-66.8-3.4-73.1 15.4-73.1 8.7 0 23.7 4.4 58.7 38.1 40 40 46.6 57.9 69 57.9h58.9c16.8 0 25.3-8.4 20.4-25-11.2-34.9-86.9-106.7-90.3-111.5-8.7-11.2-6.2-16.2 0-26.2.1-.1 72-101.3 79.4-135.6z"/></symbol><symbol id="washer" viewBox="0 0 18.718 18.85"><path id="Icon" class="cls-1" d="M141.955 1437.34a3.35 3.35 0 1 0 3.321 3.35 3.338 3.338 0 0 0-3.321-3.35zm-2.717 3.35a2.731 2.731 0 0 1 2.609-2.73 3.359 3.359 0 0 0 0 5.46 2.731 2.731 0 0 1-2.609-2.73zm3.621 2.58a2.744 2.744 0 0 1 0-5.16 2.742 2.742 0 0 1 0 5.16zm-5.433-13.23a1.525 1.525 0 1 0 1.51 1.53 1.524 1.524 0 0 0-1.51-1.53zm0 2.44a.915.915 0 1 1 .906-.91.911.911 0 0 1-.906.91zm4.831-2.44a1.525 1.525 0 1 0 1.509 1.53 1.524 1.524 0 0 0-1.509-1.53zm0 2.44a.915.915 0 1 1 .905-.91.91.91 0 0 1-.905.91zm3.622-1.83h2.114v.61h-2.114v-.61zm0 1.22h2.114v.61h-2.114v-.61zm-1.207-1.22h.6v.61h-.6v-.61zm0 1.22h.6v.61h-.6v-.61zm-5.132-1.22h.6v.61h-.6v-.61zm0 1.22h.6v.61h-.6v-.61zm-4.529 13.99h.6v.61h-.6v-.61zm1.208 0h.6v.61h-.6v-.61zm16.3-6.08h-2.415v-10.04a.91.91 0 0 0-.906-.91h-14.489a.911.911 0 0 0-.906.91v17.03a.913.913 0 0 0 .906.92H149.2a.912.912 0 0 0 .906-.92v-.91h2.415v-6.08zm-18.114-10.04a.3.3 0 0 1 .3-.3H149.2a.3.3 0 0 1 .3.3v3.95h-15.093v-3.95zm11.538 8.21h3.557v4.92a1 1 0 0 0-.3-.05h-2.909a4.867 4.867 0 0 0-.346-4.87zm.236 2.74a4.227 4.227 0 1 1-4.226-4.26 4.247 4.247 0 0 1 4.228 4.26zm2.415 2.74h.6a.3.3 0 0 1 .3.3.307.307 0 0 1-.3.31h-.3a1 1 0 0 0-.3.05v-.66zm.906 3.34a.307.307 0 0 1-.3.31h-14.491a.307.307 0 0 1-.3-.31v-12.47h15.1v3.04h-4.049a4.809 4.809 0 0 0-3.5-1.52 4.87 4.87 0 1 0 3.99 7.61h2.048v1.52a.91.91 0 0 0 .905.91h.6v.91zm2.415-1.52H148.9a.3.3 0 0 1-.3-.3.307.307 0 0 1 .3-.31h.3a.91.91 0 0 0 .906-.91v-3.34h1.811v4.86z" transform="translate(-133.813 -1428.84)"/></symbol><symbol id="water" viewBox="0 0 19 22.625"><path id="Icon" class="cls-1" d="M194.372 916.456a15.415 15.415 0 0 0-1.349-1.921l-.269-.32-.27.32a15.348 15.348 0 0 0-1.348 1.921c-.871 1.482-1.126 2.632-.759 3.416.333.71 1.132 1.071 2.377 1.071s2.044-.361 2.376-1.071c.37-.784.112-1.934-.758-3.416zm.12 3.12a2.6 2.6 0 0 1-3.476 0c-.256-.546 0-1.526.723-2.758a14.652 14.652 0 0 1 1.016-1.5c.807 1.053 2.22 3.226 1.737 4.258zm-1.815-1.7l-.315-.627a1.53 1.53 0 0 0-.664 1.48h.7a.965.965 0 0 1 .288-.86zm12.149-13.261v-.7h-2.11v-1.866h-1.172v-1.631h2.344v-2.1h-7.268v2.1h2.345v1.631h-1.173v1.866h-2.109v.7h-4.922v6.532h-1.407v2.567h6.33v-2.567h-1.172v-1.632h1.171v.7h9.143v-.7h3.515v-4.9h-3.515zm-9.846 7.233v1.165h-4.921v-1.165h4.921zm.7-3.034h-1.875v2.333h-2.343v-5.831h4.218v3.5zm4.923-9.8h2.577v.7h-2.577v-.7zm.234 1.4v1.631h-1.171v-1.631h1.171zm-3.515-.7v-.7h2.578v.7h-2.577zm1.172 3.033h3.514v1.165H198.5v-1.165zm3.983 6.764h-4.452v-2.565h4.452v2.565zm1.641-.35v.35h-.936v-3.266h-5.861v3.266h-.937v-4.9h7.734v4.548zm3.516-.35h-2.811v-3.5h2.811v3.5zm-9.024-.933h1.641v.7h-1.641v-.7zm2.345 0h.945v.7h-.937v-.7z" transform="translate(-189.344 -898.313)"/></symbol><symbol id="wifi" viewBox="0 0 23.719 18.88"><path d="M23.596 5.43a15.449 15.449 0 0 0-23.485 0 .519.519 0 0 0 0 .68.4.4 0 0 0 .611 0 14.641 14.641 0 0 1 22.262 0 .4.4 0 0 0 .611 0 .52.52 0 0 0 .001-.68zM2.652 8.26a.519.519 0 0 0 0 .68.387.387 0 0 0 .611 0 11.3 11.3 0 0 1 17.179 0 .4.4 0 0 0 .611 0 .519.519 0 0 0 0-.68 12.108 12.108 0 0 0-18.401 0zm9.2-.23a8.894 8.894 0 0 0-6.66 3.07.519.519 0 0 0 0 .68.4.4 0 0 0 .611 0 7.951 7.951 0 0 1 12.1 0 .4.4 0 0 0 .611 0 .519.519 0 0 0 0-.68 8.893 8.893 0 0 0-6.661-3.07zm0 4.53a3.179 3.179 0 1 0 2.833 3.16 3.015 3.015 0 0 0-2.832-3.16zm0 5.35a2.208 2.208 0 1 1 1.968-2.19 2.088 2.088 0 0 1-1.967 2.19z"/></symbol><symbol id="youtube" viewBox="0 0 576 512"><path d="M549.655 124.083c-6.281-23.65-24.787-42.276-48.284-48.597C458.781 64 288 64 288 64S117.22 64 74.629 75.486c-23.497 6.322-42.003 24.947-48.284 48.597-11.412 42.867-11.412 132.305-11.412 132.305s0 89.438 11.412 132.305c6.281 23.65 24.787 41.5 48.284 47.821C117.22 448 288 448 288 448s170.78 0 213.371-11.486c23.497-6.321 42.003-24.171 48.284-47.821 11.412-42.867 11.412-132.305 11.412-132.305s0-89.438-11.412-132.305zm-317.51 213.508V175.185l142.739 81.205-142.739 81.201z"/></symbol></svg>