<svg xmlns="http://www.w3.org/2000/svg" preserveAspectRatio="none" xmlns:xlink="http://www.w3.org/1999/xlink" viewBox="0 0 1871 305">
<defs><style>.cls-1{fill:url(#Безымянный_градиент);}.cls-2{fill-opacity:0.2;fill:url(#Безымянный_градиент_4);}.cls-3{fill-opacity:0.05;fill:url(#Безымянный_градиент_4-2);}.cls-4{fill:url(#Безымянный_градиент_4-3);}</style>
<linearGradient id="Безымянный_градиент" x1="512.91" y1="430.51" x2="513.91" y2="430.51" gradientTransform="matrix(0, 305, 1866, 0, -802387.04, -156437.24)" gradientUnits="userSpaceOnUse">
<stop offset="0" stop-color="#f2f2f2" stop-opacity="0"/>
<stop offset="1" stop-color="#f2f2f2"/>
</linearGradient>

<linearGradient id="Безымянный_градиент_4" x1="512.27" y1="431.2" x2="513.27" y2="431.2" gradientTransform="matrix(-2269.97, -151.97, -1969.29, 175.18, 2014277.89, 2501.76)" gradientUnits="userSpaceOnUse"><stop offset="0" stop-color="#ff6b69"/>
<stop offset="1" stop-color="#ffe6c6"/>
</linearGradient>

<linearGradient id="Безымянный_градиент_4-2" x1="512.3" y1="431.52" x2="513.3" y2="431.52" gradientTransform="matrix(-1878.26, -151.97, -1629.47, 175.18, 1666781.3, 2548.76)" xlink:href="#Безымянный_градиент_4"/>
<linearGradient id="Безымянный_градиент_4-3" x1="512.59" y1="430.31" x2="513.59" y2="430.31" gradientTransform="matrix(2266.32, 239.57, 1966.12, -276.14, -2008141.39, -3878.88)" xlink:href="#Безымянный_градиент_4"/>
</defs>
<path id="path0_fill" data-name="path0 fill" class="cls-1" d="M2.5,0h1866V305H2.5Z"/>
<path id="path1_stroke" data-name="path1 stroke" class="cls-2" d="M1868.49,56.5a2.5,2.5,0,0,0,0-5ZM878.33,104.06l0-2.5ZM257.2,75.49l.27,2.49ZM2.79,136.18a2.5,2.5,0,0,0-.58,5ZM1868.51,51.5c-97-.17-165,36.07-228.14,72.15s-121.15,71.95-199.16,71.85v5c79.37-.09,138.61-36.47,201.64-72.51s129.91-71.8,225.65-71.49Zm-427.3,144c-78.34,0-164-24.35-257.7-48.32S988.1,99.67,878.28,101.56l.09,5c109.21-1.92,210.26,21.51,303.9,45.47s179.91,48.45,258.94,48.48ZM878.28,101.56c-184.17,3.21-291.7-9.1-377.1-19.63S352.39,62.63,256.93,73l.54,5c94.85-10.35,157.67-1.62,243.1,8.91s193.3,22.87,377.8,19.67ZM256.93,73c-87.39,9.53-142.25,26.48-179.65,40.47-18.72,7-33.06,13.25-45,17.45s-21,6.26-29.54,5.25l-.58,5c9.71,1.15,19.74-1.24,31.79-5.5s26.43-10.53,45-17.48C116.29,104.22,170.55,87.43,257.47,78Z"/>
<path id="path2_stroke" data-name="path2 stroke" class="cls-3" d="M1546.49,293.5a2.5,2.5,0,1,0,0-5Zm-819.3-62.45-.05-2.5ZM283.25,132.49l.33,2.48ZM2.85,294.19a2.5,2.5,0,0,0-.7,4.95Zm1543.66-5.68c-79-.14-134.17-36.31-186.32-72.73S1259,142.5,1192.94,142.5v5c64.17,0,112,35.8,164.38,72.37s108.73,73.29,189.16,73.63Zm-353.56-146c-65.46,0-136.91,20.65-214.4,41.69s-161.08,42.49-251.41,44.37l.1,5c90.9-1.93,175.09-23.5,252.61-44.54s148.33-41.54,213.09-41.51Zm-465.8,86.06C575.05,231.75,503.85,202,451,174.19c-26.51-14-48.65-27.63-74.07-36.51s-54.34-12.88-94-7.68l.66,5c39-5.16,66.81-1.26,91.75,7.44s46.72,22.15,73.38,36.21c53.53,28.22,125.57,58.15,278.54,54.94ZM282.92,130C210.09,139.6,147,182.1,98.53,221.37,74.28,241,53.64,259.91,37.21,273.58,29,280.4,22,285.86,16,289.49s-10.34,5.1-13.16,4.69l-.7,4.95c4.72.68,10.36-1.65,16.46-5.38s13.53-9.45,21.8-16.34c16.51-13.74,37.13-32.61,61.27-52.17,48.3-39.15,110.5-80.89,181.9-90.29Z"/>
<path id="path3_stroke" data-name="path3 stroke" class="cls-4" d="M5.51,299.5a2.5,2.5,0,0,0,0,5Zm988.57-76.4.07,2.5Zm620.13,45-.43-2.46ZM1868,171a2.5,2.5,0,1,0,.92-4.91ZM5.49,304.5c97.26.39,165.29-57.05,228.21-113.86,31.5-28.44,61.73-56.76,93.89-78S393.31,77.45,432.1,77.5v-5c-39.77,0-74.73,14.53-107.26,36s-63,50-94.49,78.44c-63,56.89-129.72,112.95-224.84,112.57ZM432.1,77.5c77.94,0,163.2,38.24,257,76.12,93.56,37.79,195.27,74.95,305.08,72l-.14-5c-108.87,3-209.59-33.86-303.07-71.61C597.67,111.31,511.27,72.5,432.1,72.5Zm562,148.09c183.78-5.06,291,14.33,376.3,30.93s148.7,30.43,244.18,14.07l-.85-4.93c-94.52,16.3-157.08,2.56-242.38-14s-193.09-36.07-377.39-31Zm620.48,45c87.36-15,142.25-41.82,179.6-63.88,18.71-11,33-20.89,44.87-27.51s20.78-9.73,28.94-8.2l.92-4.91c-10-1.88-20.3,2-32.3,8.75s-26.41,16.61-45,27.57c-37.18,22-91.23,48.38-177.91,63.26Z"/>
</svg>