<?xml version="1.0" encoding="utf-8"?>
<!-- Generator: Adobe Illustrator 22.0.1, SVG Export Plug-In . SVG Version: 6.00 Build 0)  -->
<svg version="1.1" id="Layer_1" xmlns="http://www.w3.org/2000/svg" xmlns:xlink="http://www.w3.org/1999/xlink" x="0px" y="0px"
	 viewBox="0 0 176 106" style="enable-background:new 0 0 176 106;" xml:space="preserve">
<style type="text/css">
	.st0{fill:#1CA2FF;}
</style>
<g>
	<path class="st0" d="M175.4,76.7c-2.6-11.3-12.8-23.9-23.2-34.6c-17.8-18.3-39.5-35.2-59-40.4C87.9,0.4,83.1-0.1,78.5,0
		c-2.3,0.1-4.5,0.3-6.6,0.6C60.3,2.9,49.3,6.2,39.4,10.9c-3.3,1.6-6.4,3.3-9.4,5.2c-7.9,5.2-14.9,11.5-20.1,19.4
		c-2.5,3.6-4.5,7-6,9.6c-1.5,2.6-2.4,4.6-2.7,5.4c-2.2,5.7-1.3,13.5,3.7,21.9c1.3,2.2,2.7,4.3,4.3,6.4c6.5,8.3,15.3,15.6,24,20.3
		c20.9,11.2,35,6.4,48,0.8c2.2-0.9,4.3-1.9,6.4-2.8c5.8-2,10.7-5.1,15.7-8.2c7.1-4.5,18.1-1.1,30.1,4.3c12.2,5.4,22.9,6.4,31.2,3.9
		c1.6-0.5,3.1-1.1,4.5-2C174.5,91.8,177.4,85.3,175.4,76.7z"/>
</g>
</svg>
