<?xml version="1.0" encoding="UTF-8" standalone="no"?>
<svg
   xmlns:dc="http://purl.org/dc/elements/1.1/"
   xmlns:cc="http://creativecommons.org/ns#"
   xmlns:rdf="http://www.w3.org/1999/02/22-rdf-syntax-ns#"
   xmlns:svg="http://www.w3.org/2000/svg"
   xmlns="http://www.w3.org/2000/svg"
   xml:space="preserve"
   style="enable-background:new 0 0 176 106;"
   viewBox="0 0 176 106"
   y="0px"
   x="0px"
   id="Layer_1"
   version="1.1"><metadata
     id="metadata3347"><rdf:RDF><cc:Work
         rdf:about=""><dc:format>image/svg+xml</dc:format><dc:type
           rdf:resource="http://purl.org/dc/dcmitype/StillImage" /><dc:title></dc:title></cc:Work></rdf:RDF></metadata><defs
     id="defs3345" /><style
     id="style3337"
     type="text/css">
	.st0{fill:#1CA2FF;}
</style><g
     transform="matrix(-1,0,0,1,176.10461,0)"
     id="g3339"><path
       style="fill:#1ca2ff"
       id="path3341"
       d="M 175.4,76.7 C 172.8,65.4 162.6,52.8 152.2,42.1 134.4,23.8 112.7,6.9 93.2,1.7 87.9,0.4 83.1,-0.1 78.5,0 76.2,0.1 74,0.3 71.9,0.6 60.3,2.9 49.3,6.2 39.4,10.9 36.1,12.5 33,14.2 30,16.1 22.1,21.3 15.1,27.6 9.9,35.5 c -2.5,3.6 -4.5,7 -6,9.6 -1.5,2.6 -2.4,4.6 -2.7,5.4 -2.2,5.7 -1.3,13.5 3.7,21.9 1.3,2.2 2.7,4.3 4.3,6.4 6.5,8.3 15.3,15.6 24,20.3 20.9,11.2 35,6.4 48,0.8 2.2,-0.9 4.3,-1.9 6.4,-2.8 5.8,-2 10.7,-5.1 15.7,-8.2 7.1,-4.5 18.1,-1.1 30.1,4.3 12.2,5.4 22.9,6.4 31.2,3.9 1.6,-0.5 3.1,-1.1 4.5,-2 5.4,-3.3 8.3,-9.8 6.3,-18.4 z"
       class="st0" /></g></svg>