<svg id="Слой_1" data-name="Слой 1" xmlns="http://www.w3.org/2000/svg" viewBox="0 0 7 5.5"><defs><style>.cls-1{fill:#fff;}.cls-2{fill:#1ca2ff;}</style></defs><title>check-blue</title><path class="cls-1" d="M6.59,1,6,.41A.38.38,0,0,0,5.75.29a.36.36,0,0,0-.28.12L2.75,3.13,1.53,1.91a.36.36,0,0,0-.28-.12A.38.38,0,0,0,1,1.91l-.56.56A.39.39,0,0,0,.41,3l1.5,1.5.56.56a.39.39,0,0,0,.56,0l.57-.56,3-3a.36.36,0,0,0,.12-.28A.38.38,0,0,0,6.59,1Z"/><path class="cls-2" d="M2.75,5.5a.68.68,0,0,1-.49-.2L.2,3.24a.7.7,0,0,1,0-1L.76,1.7a.7.7,0,0,1,.49-.2.68.68,0,0,1,.49.2l1,1L5.26.2A.68.68,0,0,1,5.75,0a.7.7,0,0,1,.49.2L6.8.76a.7.7,0,0,1,.2.49.68.68,0,0,1-.2.49L3.24,5.3A.68.68,0,0,1,2.75,5.5ZM1.25,2.08a.13.13,0,0,0-.08,0l-.56.56a.12.12,0,0,0,0,.16L2.67,4.89a.12.12,0,0,0,.16,0L6.39,1.33a.12.12,0,0,0,0-.16L5.83.61a.12.12,0,0,0-.16,0L2.75,3.54,1.33,2.11A.13.13,0,0,0,1.25,2.08Z"/></svg>