<?xml version="1.0" encoding="utf-8"?>
<!-- Generator: Adobe Illustrator 22.1.0, SVG Export Plug-In . SVG Version: 6.00 Build 0)  -->
<svg version="1.1" id="Capa_1" xmlns="http://www.w3.org/2000/svg" xmlns:xlink="http://www.w3.org/1999/xlink" x="0px" y="0px"
	 viewBox="0 0 7 7" style="enable-background:new 0 0 7 7;" xml:space="preserve">
<style type="text/css">
	.st0{fill:#CCCCCC;}
</style>
<g id="Close">
	<path class="st0" d="M4.3,3.5L6.8,1c0.2-0.2,0.2-0.6,0-0.8C6.6-0.1,6.2-0.1,6,0.2L3.5,2.7L1,0.2c-0.2-0.2-0.6-0.2-0.8,0
		c-0.2,0.2-0.2,0.6,0,0.8l2.5,2.5L0.2,6c-0.2,0.2-0.2,0.6,0,0.8c0.2,0.2,0.6,0.2,0.8,0l2.5-2.5L6,6.8c0.2,0.2,0.6,0.2,0.8,0
		c0.2-0.2,0.2-0.6,0-0.8L4.3,3.5z"/>
</g>
</svg>
