<svg id="Слой_1" data-name="Слой 1" xmlns="http://www.w3.org/2000/svg" viewBox="0 0 5 5"><defs><style>.cls-1{fill:#fff;}</style></defs><title>close</title><path class="cls-1" d="M8.52,7.83l1.66-1.66a.5.5,0,0,0,0-.7.51.51,0,0,0-.71,0L7.82,7.12,6.17,5.47a.5.5,0,0,0-.7,0,.48.48,0,0,0,0,.7L7.12,7.83,5.47,9.48a.49.49,0,0,0-.15.35.45.45,0,0,0,.15.35.5.5,0,0,0,.7,0L7.82,8.53l1.65,1.65a.49.49,0,0,0,.35.15.49.49,0,0,0,.36-.15.48.48,0,0,0,.14-.35.52.52,0,0,0-.14-.35Z" transform="translate(-5.32 -5.33)"/></svg>