<svg id="Layer_1" data-name="Layer 1" xmlns="http://www.w3.org/2000/svg" viewBox="0 0 512 482.4"><defs><style>.cls-1{fill:#495a79;}.cls-2{fill:#42516d;}.cls-3{fill:#ffde33;}.cls-4{fill:#ffbc33;}</style></defs><title>danger</title><path class="cls-1" d="M501.46,383.8,320.5,51.4a75.13,75.13,0,0,0-129,0l-181,332.4c-13.8,23.7-14.1,51.9-.6,75.6A74,74,0,0,0,75,497.2H437a74,74,0,0,0,65.1-37.8C515.56,435.7,515.26,407.5,501.46,383.8Z" transform="translate(0 -14.8)"/><path class="cls-2" d="M502.06,459.4A74,74,0,0,1,437,497.2H256V14.8a74.89,74.89,0,0,1,64.5,36.6l181,332.4C515.26,407.5,515.56,435.7,502.06,459.4Z" transform="translate(0 -14.8)"/><path class="cls-3" d="M475.66,399.1,294.7,66.7a45.14,45.14,0,0,0-77.4,0l-181,332.4A45.19,45.19,0,0,0,75,467.2H437a45.19,45.19,0,0,0,38.7-68.1Z" transform="translate(0 -14.8)"/><path class="cls-4" d="M476,444.4a44.28,44.28,0,0,1-39,22.8H256V44.8a44.55,44.55,0,0,1,38.7,21.9l181,332.4A44.55,44.55,0,0,1,476,444.4Z" transform="translate(0 -14.8)"/><path class="cls-1" d="M256,437.2a30,30,0,1,1,30-30A30,30,0,0,1,256,437.2Z" transform="translate(0 -14.8)"/><path class="cls-1" d="M286,317.2a30,30,0,1,1-60,0v-150a30,30,0,0,1,60,0Z" transform="translate(0 -14.8)"/><path class="cls-2" d="M286,407.2a30,30,0,0,0-30-30v60A30,30,0,0,0,286,407.2Z" transform="translate(0 -14.8)"/><path class="cls-2" d="M286,317.2v-150a30,30,0,0,0-30-30v210A30,30,0,0,0,286,317.2Z" transform="translate(0 -14.8)"/></svg>