<?xml version="1.0" encoding="utf-8"?>
<!-- Generator: Adobe Illustrator 22.0.1, SVG Export Plug-In . SVG Version: 6.00 Build 0)  -->
<svg version="1.1" id="Icons" xmlns="http://www.w3.org/2000/svg" xmlns:xlink="http://www.w3.org/1999/xlink" x="0px" y="0px"
	 viewBox="0 0 86 79" style="enable-background:new 0 0 86 79;" xml:space="preserve">
<style type="text/css">
	.st0{fill:#1CA2FF;}
	.st1{fill:none;stroke:#0970E9;stroke-width:5;stroke-miterlimit:10;}
	.st2{fill:#3EB8FF;}
</style>
<g>
	<path class="st0" d="M82.4,57.5H58.7c-1.1,0-2-0.6-2.5-1.6c-1.7-3.3-5.2-5.6-9.1-5.6h-8.1c-4,0-7.4,2.3-9.1,5.6
		c-0.5,0.9-1.4,1.6-2.5,1.6H3.6c-2,0-3.6,1.6-3.6,3.6v3c0,8.3,6.7,15,15,15H71c8.3,0,15-6.7,15-15v-3C86,59.1,84.4,57.5,82.4,57.5z"
		/>
	<line class="st1" x1="43" y1="50.3" x2="43" y2="21.5"/>
	<ellipse class="st2" cx="43" cy="14.4" rx="14.3" ry="14.4"/>
	<ellipse class="st2" cx="43" cy="64.6" rx="3.6" ry="3.6"/>
</g>
</svg>
