<?xml version="1.0" encoding="utf-8"?>
<!-- Generator: Adobe Illustrator 22.0.1, SVG Export Plug-In . SVG Version: 6.00 Build 0)  -->
<svg version="1.1" id="Icons" xmlns="http://www.w3.org/2000/svg" xmlns:xlink="http://www.w3.org/1999/xlink" x="0px" y="0px"
	 viewBox="0 0 121 74" style="enable-background:new 0 0 121 74;" xml:space="preserve">
<style type="text/css">
	.st0{fill:#0970E9;}
	.st1{fill:#1CA2FF;}
</style>
<g>
	<g>
		<polygon class="st0" points="121,74 95.6,33.3 82.2,43.7 75.3,38.3 53,74 		"/>
		<path class="st0" d="M87,23l6.2,10l-11,8.6L77.6,38L87,23 M87,21c-0.5,0-1.1,0.3-1.4,0.8L75.3,38.3l6.9,5.4l13.4-10.4l-7.2-11.5
			C88.1,21.3,87.5,21,87,21L87,21z"/>
	</g>
	<g>
		<path class="st1" d="M45.4,1.5c0.1,0,0.2,0,0.3,0.2l12,20L53,26.4l-6.5-6.5L45,18.4L44,20.3l-6.4,12.8l-6-9L45.1,1.7
			C45.2,1.5,45.3,1.5,45.4,1.5 M45.4,0c-0.6,0-1.2,0.3-1.6,0.9l-14,23.3l8,12L45.4,21l7.6,7.6l6.6-6.6L47,0.9C46.6,0.3,46,0,45.4,0
			L45.4,0z"/>
		<polygon class="st1" points="90.8,74 59.6,21.9 53,28.6 45.4,21 37.8,36.1 29.9,24.2 0,74 		"/>
	</g>
</g>
</svg>
