<svg id="Режим_изоляции" data-name="Режим изоляции" xmlns="http://www.w3.org/2000/svg" viewBox="0 0 68 73.24"><defs><style>.cls-1{fill:#1ca2ff;}.cls-2{fill:none;stroke:#0970e9;stroke-miterlimit:10;}.cls-3{fill:#0970e9;}.cls-4{fill:#3eb8ff;}</style></defs><title>hand</title><path class="cls-1" d="M66.83,17.94a4,4,0,0,0-5.64,0L49.9,29.17h0l1.89-1.87a4,4,0,1,0-5.65-5.62L48,19.81a4,4,0,0,0,0-5.62,4,4,0,0,0-5.64,0l6.39-6.47A4,4,0,0,0,43.12,2.1L33,12.32l-8.81,8.77A1.88,1.88,0,0,1,21,20.23l-.55-2.15c-.86-3.34-4.15-5.55-8-5.71a2.41,2.41,0,0,0-2.48,3l5.6,21.85a10.25,10.25,0,0,0,.28,1.09l.07.28a2.77,2.77,0,0,1-.73,2.64L7.59,48.83,24.51,65.68l8.61-8.57,2.68-2.66,5.64-5.62,8.46-8.42h0L66.83,23.55A4,4,0,0,0,66.83,17.94Z"/><path class="cls-2" d="M18.87,65.68l8.61-8.57,2.68-2.66,5.64-5.62,8.46-8.42h0L61.19,23.55a4,4,0,0,0,0-5.61,4,4,0,0,0-5.64,0L44.26,29.17h0l1.88-1.87a4,4,0,0,0,0-5.62,4,4,0,0,0-5.64,0l1.88-1.87a4,4,0,0,0,0-5.62,4,4,0,0,0-5.64,0l6.91-6.91a4,4,0,0,0,0-5.62,4,4,0,0,0-5.64,0L27.33,12.32l-8.8,8.77a1.88,1.88,0,0,1-3.14-.86l-.55-2.15c-.86-3.34-4.16-5.55-8-5.71a2.41,2.41,0,0,0-2.48,3L10,37.2"/><path class="cls-3" d="M31.48,64.37l-8.29,8.25a2.14,2.14,0,0,1-3,0L13.4,65.85l2.27-9-9.3,2L.62,53.13a2.09,2.09,0,0,1,0-3L8.91,41.9a2.12,2.12,0,0,1,3,0L31.48,61.38A2.11,2.11,0,0,1,31.48,64.37Z"/><ellipse class="cls-4" cx="10.41" cy="48.83" rx="1.99" ry="1.99"/></svg>