<?xml version="1.0" encoding="utf-8"?>
<!-- Generator: Adobe Illustrator 22.0.1, SVG Export Plug-In . SVG Version: 6.00 Build 0)  -->
<svg version="1.1" id="Режим_изоляции"
	 xmlns="http://www.w3.org/2000/svg" xmlns:xlink="http://www.w3.org/1999/xlink" x="0px" y="0px" viewBox="0 0 29 20.4"
	 style="enable-background:new 0 0 29 20.4;" xml:space="preserve">
<style type="text/css">
	.st0{fill:none;}
	.st1{fill:url(#SVGID_1_);}
	.st2{fill:url(#SVGID_2_);}
	.st3{fill:url(#SVGID_3_);}
	.st4{fill:url(#SVGID_4_);}
	.st5{fill:url(#SVGID_5_);}
	.st6{fill:url(#SVGID_6_);}
	.st7{fill:url(#SVGID_7_);}
	.st8{fill:url(#SVGID_8_);}
	.st9{fill:url(#SVGID_9_);}
	.st10{fill:url(#SVGID_10_);}
	.st11{fill:url(#SVGID_11_);}
	.st12{fill:url(#SVGID_12_);}
	.st13{fill:url(#SVGID_13_);}
	.st14{fill:url(#SVGID_14_);}
	.st15{fill:url(#SVGID_15_);}
	.st16{fill:url(#SVGID_16_);}
	.st17{fill:url(#SVGID_17_);}
	.st18{fill:url(#SVGID_18_);}
	.st19{fill:url(#SVGID_19_);}
	.st20{fill:url(#SVGID_20_);}
	.st21{fill:url(#SVGID_21_);}
	.st22{fill:url(#SVGID_22_);}
	.st23{fill:#1CA3FF;}
</style>
<polygon class="st0" points="16.2,2.9 16.2,2.9 11.1,11.5 "/>
<linearGradient id="SVGID_1_" gradientUnits="userSpaceOnUse" x1="12.9201" y1="6.2781" x2="21.8922" y2="13.8066">
	<stop  offset="0" style="stop-color:#0EAFFF"/>
	<stop  offset="1" style="stop-color:#0163E5"/>
</linearGradient>
<path class="st1" d="M27.9,6.6c0.1-0.1,0.2-0.2,0.2-0.4c0-0.1-0.1-0.3-0.2-0.3l0,0l-1.7-0.4l-3.3-0.8l-0.1,0l-6.5-1.6l-5.1,8.6
	L11,11.7l0,0l-2.2,3.7l2.4,2.4L27.9,6.6L27.9,6.6z"/>
<linearGradient id="SVGID_2_" gradientUnits="userSpaceOnUse" x1="12.9201" y1="6.2781" x2="21.8922" y2="13.8066">
	<stop  offset="0" style="stop-color:#0EAFFF"/>
	<stop  offset="1" style="stop-color:#0163E5"/>
</linearGradient>
<path class="st2" d="M27.9,6.6c0.1-0.1,0.2-0.2,0.2-0.4c0-0.1-0.1-0.3-0.2-0.3l0,0l-1.7-0.4l-3.3-0.8l-0.1,0l-6.5-1.6l-5.1,8.6
	L11,11.7l0,0l-2.2,3.7l2.4,2.4L27.9,6.6L27.9,6.6z"/>
<linearGradient id="SVGID_3_" gradientUnits="userSpaceOnUse" x1="13.4878" y1="3.6992" x2="22.3844" y2="14.3018">
	<stop  offset="0" style="stop-color:#48BEFF"/>
	<stop  offset="0.427" style="stop-color:#1CA3FF"/>
</linearGradient>
<path class="st3" d="M28.4,4.6l-4.5-4.2C23.6,0.1,23.2,0,22.9,0h-1l-4,0l-1.7,2.9h0l0,0h0h0l6.5,1.6l0.1,0l0,0l3.3,0.8l1.7,0.4
	c0,0,0,0,0,0c0.1,0,0.2,0.2,0.2,0.3c0,0.2-0.1,0.3-0.2,0.4l0,0L11.2,17.8l2.1,2.1c0.3,0.3,0.8,0.5,1.2,0.5c0.3,0,0.7-0.1,1-0.3
	c0.1-0.1,0.2-0.2,0.3-0.3L28.5,7.2C28.8,6.9,29,6.5,29,6v0C29,5.5,28.8,5,28.4,4.6z"/>
<linearGradient id="SVGID_4_" gradientUnits="userSpaceOnUse" x1="13.4878" y1="3.6992" x2="22.3844" y2="14.3018">
	<stop  offset="0" style="stop-color:#48BEFF"/>
	<stop  offset="0.427" style="stop-color:#1CA3FF"/>
</linearGradient>
<path class="st4" d="M28.4,4.6l-4.5-4.2C23.6,0.1,23.2,0,22.9,0h-1l-4,0l-1.7,2.9h0l0,0h0h0l6.5,1.6l0.1,0l0,0l3.3,0.8l1.7,0.4
	c0,0,0,0,0,0c0.1,0,0.2,0.2,0.2,0.3c0,0.2-0.1,0.3-0.2,0.4l0,0L11.2,17.8l2.1,2.1c0.3,0.3,0.8,0.5,1.2,0.5c0.3,0,0.7-0.1,1-0.3
	c0.1-0.1,0.2-0.2,0.3-0.3L28.5,7.2C28.8,6.9,29,6.5,29,6v0C29,5.5,28.8,5,28.4,4.6z"/>
<linearGradient id="SVGID_5_" gradientUnits="userSpaceOnUse" x1="12.7473" y1="6.4841" x2="21.7194" y2="14.0126">
	<stop  offset="0" style="stop-color:#0EAFFF"/>
	<stop  offset="1" style="stop-color:#0163E5"/>
</linearGradient>
<polygon class="st5" points="27.9,6.6 11.2,17.8 27.9,6.6 "/>
<linearGradient id="SVGID_6_" gradientUnits="userSpaceOnUse" x1="12.8636" y1="4.223" x2="21.7602" y2="14.8256">
	<stop  offset="0" style="stop-color:#48BEFF"/>
	<stop  offset="0.427" style="stop-color:#1CA3FF"/>
</linearGradient>
<polygon class="st6" points="27.9,6.6 11.2,17.8 27.9,6.6 "/>
<linearGradient id="SVGID_7_" gradientUnits="userSpaceOnUse" x1="12.7473" y1="6.4841" x2="21.7194" y2="14.0126">
	<stop  offset="0" style="stop-color:#0EAFFF"/>
	<stop  offset="1" style="stop-color:#0163E5"/>
</linearGradient>
<polygon class="st7" points="27.9,6.6 11.2,17.8 27.9,6.6 "/>
<linearGradient id="SVGID_8_" gradientUnits="userSpaceOnUse" x1="12.8636" y1="4.223" x2="21.7602" y2="14.8256">
	<stop  offset="0" style="stop-color:#48BEFF"/>
	<stop  offset="0.427" style="stop-color:#1CA3FF"/>
</linearGradient>
<polygon class="st8" points="27.9,6.6 11.2,17.8 27.9,6.6 "/>
<linearGradient id="SVGID_9_" gradientUnits="userSpaceOnUse" x1="19.0619" y1="-3.219" x2="31.4095" y2="7.1419">
	<stop  offset="0" style="stop-color:#0EAFFF"/>
	<stop  offset="1" style="stop-color:#0163E5"/>
</linearGradient>
<polygon class="st9" points="25.9,2.5 25.8,2.5 25.9,2.5 "/>
<linearGradient id="SVGID_10_" gradientUnits="userSpaceOnUse" x1="19.9865" y1="-4.5128" x2="32.2303" y2="10.0788">
	<stop  offset="0" style="stop-color:#48BEFF"/>
	<stop  offset="0.427" style="stop-color:#1CA3FF"/>
</linearGradient>
<polygon class="st10" points="25.9,2.5 25.8,2.5 25.9,2.5 "/>
<linearGradient id="SVGID_11_" gradientUnits="userSpaceOnUse" x1="19.0619" y1="-3.219" x2="31.4095" y2="7.1419">
	<stop  offset="0" style="stop-color:#0EAFFF"/>
	<stop  offset="1" style="stop-color:#0163E5"/>
</linearGradient>
<polygon class="st11" points="25.9,2.5 25.8,2.5 25.9,2.5 "/>
<linearGradient id="SVGID_12_" gradientUnits="userSpaceOnUse" x1="19.9865" y1="-4.5128" x2="32.2303" y2="10.0788">
	<stop  offset="0" style="stop-color:#48BEFF"/>
	<stop  offset="0.427" style="stop-color:#1CA3FF"/>
</linearGradient>
<polygon class="st12" points="25.9,2.5 25.8,2.5 25.9,2.5 "/>
<linearGradient id="SVGID_13_" gradientUnits="userSpaceOnUse" x1="19.0619" y1="-3.219" x2="31.4095" y2="7.1419">
	<stop  offset="0" style="stop-color:#0EAFFF"/>
	<stop  offset="1" style="stop-color:#0163E5"/>
</linearGradient>
<polygon class="st13" points="25.9,2.5 25.8,2.5 25.9,2.5 "/>
<linearGradient id="SVGID_14_" gradientUnits="userSpaceOnUse" x1="19.9865" y1="-4.5128" x2="32.2303" y2="10.0788">
	<stop  offset="0" style="stop-color:#48BEFF"/>
	<stop  offset="0.427" style="stop-color:#1CA3FF"/>
</linearGradient>
<polygon class="st14" points="25.9,2.5 25.8,2.5 25.9,2.5 "/>
<linearGradient id="SVGID_15_" gradientUnits="userSpaceOnUse" x1="19.0619" y1="-3.219" x2="31.4095" y2="7.1419">
	<stop  offset="0" style="stop-color:#0EAFFF"/>
	<stop  offset="1" style="stop-color:#0163E5"/>
</linearGradient>
<polygon class="st15" points="25.9,2.5 25.8,2.5 25.9,2.5 "/>
<linearGradient id="SVGID_16_" gradientUnits="userSpaceOnUse" x1="19.9865" y1="-4.5128" x2="32.2303" y2="10.0788">
	<stop  offset="0" style="stop-color:#48BEFF"/>
	<stop  offset="0.427" style="stop-color:#1CA3FF"/>
</linearGradient>
<polygon class="st16" points="25.9,2.5 25.8,2.5 25.9,2.5 "/>
<linearGradient id="SVGID_17_" gradientUnits="userSpaceOnUse" x1="0" y1="6.7784" x2="16.2055" y2="6.7784">
	<stop  offset="0" style="stop-color:#2BAAFB"/>
	<stop  offset="1" style="stop-color:#0163E5"/>
</linearGradient>
<path class="st17" d="M16.2,2.9L16.2,2.9L16.2,2.9L16.2,2.9L6.1,0.2l0,0l0,0l0,0L5.7,0.1h0l0,0l0,0l0,0C5.5,0.1,5.3,0.2,5.2,0.4
	L0.6,4.6C0.2,5,0,5.5,0,6v0c0,0.4,0.2,0.8,0.5,1.1l6.3,6.3l4.2-1.8l0.1-0.2L16.2,2.9z"/>
<linearGradient id="SVGID_18_" gradientUnits="userSpaceOnUse" x1="0" y1="6.7784" x2="16.2055" y2="6.7784">
	<stop  offset="0" style="stop-color:#2BAAFB"/>
	<stop  offset="1" style="stop-color:#0163E5"/>
</linearGradient>
<path class="st18" d="M16.2,2.9L16.2,2.9L16.2,2.9L16.2,2.9L6.1,0.2l0,0l0,0l0,0L5.7,0.1h0l0,0l0,0l0,0C5.5,0.1,5.3,0.2,5.2,0.4
	L0.6,4.6C0.2,5,0,5.5,0,6v0c0,0.4,0.2,0.8,0.5,1.1l6.3,6.3l4.2-1.8l0.1-0.2L16.2,2.9z"/>
<linearGradient id="SVGID_19_" gradientUnits="userSpaceOnUse" x1="16.7989" y1="0.1547" x2="16.894" y2="0.268">
	<stop  offset="0" style="stop-color:#48BEFF"/>
	<stop  offset="0.427" style="stop-color:#1CA3FF"/>
</linearGradient>
<polygon class="st19" points="16.8,0.2 16.8,0.2 16.8,0.2 16.8,0.2 16.8,0.2 16.8,0.2 "/>
<linearGradient id="SVGID_20_" gradientUnits="userSpaceOnUse" x1="16.7549" y1="0.2121" x2="16.9393" y2="0.2121">
	<stop  offset="0" style="stop-color:#2BAAFB"/>
	<stop  offset="1" style="stop-color:#0163E5"/>
</linearGradient>
<polygon class="st20" points="16.8,0.2 16.8,0.2 16.8,0.2 16.8,0.2 16.8,0.2 16.8,0.2 "/>
<linearGradient id="SVGID_21_" gradientUnits="userSpaceOnUse" x1="16.7989" y1="0.1547" x2="16.894" y2="0.268">
	<stop  offset="0" style="stop-color:#48BEFF"/>
	<stop  offset="0.427" style="stop-color:#1CA3FF"/>
</linearGradient>
<polygon class="st21" points="16.8,0.2 16.8,0.2 16.8,0.2 16.8,0.2 16.8,0.2 16.8,0.2 "/>
<linearGradient id="SVGID_22_" gradientUnits="userSpaceOnUse" x1="16.7549" y1="0.2121" x2="16.9393" y2="0.2121">
	<stop  offset="0" style="stop-color:#2BAAFB"/>
	<stop  offset="1" style="stop-color:#0163E5"/>
</linearGradient>
<polygon class="st22" points="16.8,0.2 16.8,0.2 16.8,0.2 16.8,0.2 16.8,0.2 16.8,0.2 "/>
<path class="st23" d="M5.7,0.1L5.7,0.1l0.4,0.1l0,0l0,0l0,0l10.1,2.8l0,0l0,0l0,0L17.9,0H7.1h0h0h0h-1h0H6.1h0C6,0,6,0,5.9,0l0,0
	c0,0,0,0,0,0l0,0C5.8,0,5.8,0,5.7,0.1L5.7,0.1L5.7,0.1L5.7,0.1z"/>
</svg>
