<?xml version="1.0" encoding="utf-8"?>
<!-- Generator: Adobe Illustrator 22.0.1, SVG Export Plug-In . SVG Version: 6.00 Build 0)  -->
<svg version="1.1" id="main" xmlns="http://www.w3.org/2000/svg" xmlns:xlink="http://www.w3.org/1999/xlink" x="0px" y="0px"
	 viewBox="0 0 158 28" style="enable-background:new 0 0 158 28;" xml:space="preserve">
<style type="text/css">
	.st0{fill:#FFFFFF;}
	.st1{fill:none;}
	.st2{fill:url(#SVGID_1_);}
	.st3{fill:url(#SVGID_2_);}
	.st4{fill:url(#SVGID_3_);}
	.st5{fill:url(#SVGID_4_);}
	.st6{fill:url(#SVGID_5_);}
	.st7{fill:url(#SVGID_6_);}
	.st8{fill:url(#SVGID_7_);}
	.st9{fill:url(#SVGID_8_);}
	.st10{fill:url(#SVGID_9_);}
	.st11{fill:url(#SVGID_10_);}
	.st12{fill:url(#SVGID_11_);}
	.st13{fill:url(#SVGID_12_);}
	.st14{fill:url(#SVGID_13_);}
	.st15{fill:url(#SVGID_14_);}
	.st16{fill:url(#SVGID_15_);}
	.st17{fill:url(#SVGID_16_);}
	.st18{fill:url(#SVGID_17_);}
	.st19{fill:url(#SVGID_18_);}
	.st20{fill:url(#SVGID_19_);}
	.st21{fill:url(#SVGID_20_);}
	.st22{fill:url(#SVGID_21_);}
	.st23{fill:url(#SVGID_22_);}
	.st24{fill:url(#SVGID_23_);}
	.st25{fill:url(#SVGID_24_);}
	.st26{fill:url(#SVGID_25_);}
	.st27{fill:url(#SVGID_26_);}
	.st28{fill:url(#SVGID_27_);}
	.st29{fill:url(#SVGID_28_);}
	.st30{fill:url(#SVGID_29_);}
	.st31{fill:url(#SVGID_30_);}
	.st32{fill:#1CA3FF;}
</style>
<g id="kryptex">
	<g>
		<path class="st0" d="M58.4,15.2l-2.5,2.6v4.8h-4.3V3.7h4.3v8.8l8.3-8.8h4.8l-7.8,8.4l8.3,10.4h-5.1L58.4,15.2z"/>
		<path class="st0" d="M77.2,8.4c0.9-0.4,1.8-0.5,2.9-0.5v3.9c-0.5,0-0.8-0.1-0.9-0.1c-1.2,0-2.1,0.3-2.8,1c-0.7,0.7-1,1.7-1,3v6.8
			h-4.2V8.1h4V10C75.7,9.3,76.4,8.8,77.2,8.4z"/>
		<path class="st0" d="M98.2,8.1l-6.5,15.4c-0.7,1.7-1.5,2.8-2.5,3.5c-1,0.7-2.2,1-3.5,1c-0.8,0-1.5-0.1-2.2-0.4
			c-0.7-0.2-1.3-0.6-1.8-1l1.5-3c0.3,0.3,0.7,0.5,1.1,0.7c0.4,0.2,0.8,0.2,1.3,0.2c0.6,0,1-0.1,1.4-0.4c0.4-0.3,0.7-0.7,1-1.4
			l0.1-0.1L81.7,8.1H86l4.1,9.8l4.1-9.8H98.2z"/>
		<path class="st0" d="M111.7,8.8c1.1,0.6,2,1.5,2.6,2.6c0.6,1.1,0.9,2.4,0.9,3.9c0,1.5-0.3,2.8-0.9,3.9c-0.6,1.1-1.5,2-2.6,2.6
			c-1.1,0.6-2.3,0.9-3.7,0.9c-1.8,0-3.3-0.6-4.4-1.8v6.8h-4.2V8.1h4v1.7c1-1.3,2.6-1.9,4.6-1.9C109.3,7.9,110.6,8.2,111.7,8.8z
			 M109.9,18.3c0.7-0.7,1-1.7,1-2.9c0-1.2-0.3-2.2-1-2.9c-0.7-0.7-1.6-1.1-2.7-1.1c-1.1,0-2,0.4-2.7,1.1c-0.7,0.7-1,1.7-1,2.9
			c0,1.2,0.3,2.2,1,2.9c0.7,0.7,1.6,1.1,2.7,1.1C108.3,19.4,109.2,19,109.9,18.3z"/>
		<path class="st0" d="M126.8,21.9c-0.4,0.3-0.9,0.5-1.5,0.7c-0.6,0.2-1.2,0.2-1.9,0.2c-1.7,0-3.1-0.4-4-1.3
			c-0.9-0.9-1.4-2.2-1.4-3.9v-6h-2.2V8.4h2.2V4.9h4.2v3.5h3.6v3.2h-3.6v5.9c0,0.6,0.2,1.1,0.5,1.4c0.3,0.3,0.8,0.5,1.3,0.5
			c0.7,0,1.2-0.2,1.7-0.5L126.8,21.9z"/>
		<path class="st0" d="M142.2,16.5h-11c0.2,0.9,0.7,1.6,1.4,2.1c0.7,0.5,1.7,0.8,2.7,0.8c0.8,0,1.4-0.1,2-0.3
			c0.6-0.2,1.1-0.6,1.6-1.1l2.2,2.4c-1.4,1.6-3.4,2.3-6,2.3c-1.6,0-3.1-0.3-4.3-1c-1.3-0.6-2.2-1.5-2.9-2.7c-0.7-1.1-1-2.4-1-3.9
			c0-1.4,0.3-2.7,1-3.8c0.7-1.1,1.6-2,2.8-2.7c1.2-0.6,2.5-1,3.9-1c1.4,0,2.7,0.3,3.9,0.9c1.1,0.6,2.1,1.5,2.7,2.6
			c0.7,1.1,1,2.5,1,4C142.3,15.5,142.3,15.8,142.2,16.5z M132.4,11.9c-0.6,0.5-1,1.3-1.2,2.2h7.1c-0.1-0.9-0.5-1.6-1.2-2.2
			c-0.6-0.5-1.4-0.8-2.4-0.8C133.8,11.1,133,11.3,132.4,11.9z"/>
		<path class="st0" d="M153.2,22.6l-3.2-4.4l-3.3,4.4h-4.6l5.6-7.3l-5.4-7.2h4.7l3.1,4.2l3.2-4.2h4.5l-5.4,7.1l5.6,7.4H153.2z"/>
	</g>
</g>
<g id="diamond">
	<g>
		<path class="st1" d="M38.7,8.5c0-0.2-0.1-0.4-0.3-0.4C38.6,8.1,38.7,8.3,38.7,8.5z"/>
		<polygon class="st1" points="8.4,0.2 8.4,0.2 8.4,0.2 8.4,0.2 		"/>
		<polygon class="st1" points="22.3,4 22.3,4 15.3,15.9 		"/>
		<path class="st1" d="M38.4,9.1L38.4,9.1c0.2-0.1,0.3-0.3,0.3-0.5C38.7,8.7,38.6,8.9,38.4,9.1z"/>
		<linearGradient id="SVGID_1_" gradientUnits="userSpaceOnUse" x1="17.781" y1="8.64" x2="30.1287" y2="19.001">
			<stop  offset="0" style="stop-color:#0EAFFF"/>
			<stop  offset="1" style="stop-color:#0163E5"/>
		</linearGradient>
		<path class="st2" d="M38.4,9.1c0.2-0.1,0.3-0.3,0.3-0.5c0-0.2-0.1-0.4-0.3-0.4c0,0,0,0,0,0L36,7.5l-4.6-1.2l-0.2,0L22.3,4l-7,11.9
			l-0.2,0.3l0,0l-3,5.1l3.3,3.3L38.4,9.1L38.4,9.1z"/>
		<linearGradient id="SVGID_2_" gradientUnits="userSpaceOnUse" x1="17.781" y1="8.64" x2="30.1287" y2="19.001">
			<stop  offset="0" style="stop-color:#0EAFFF"/>
			<stop  offset="1" style="stop-color:#0163E5"/>
		</linearGradient>
		<path class="st3" d="M38.4,9.1c0.2-0.1,0.3-0.3,0.3-0.5c0-0.2-0.1-0.4-0.3-0.4c0,0,0,0,0,0L36,7.5l-4.6-1.2l-0.2,0L22.3,4l-7,11.9
			l-0.2,0.3l0,0l-3,5.1l3.3,3.3L38.4,9.1L38.4,9.1z"/>
		<linearGradient id="SVGID_3_" gradientUnits="userSpaceOnUse" x1="18.5622" y1="5.0909" x2="30.806" y2="19.6825">
			<stop  offset="0" style="stop-color:#48BEFF"/>
			<stop  offset="0.427" style="stop-color:#1CA3FF"/>
		</linearGradient>
		<path class="st4" d="M39,6.3l-6.2-5.8C32.4,0.2,32,0,31.5,0h-1.4l-5.4,0l-2.4,4h0l0,0h0h0l8.9,2.2l0.2,0l0,0L36,7.5l2.4,0.6
			c0,0,0,0,0,0c0.2,0.1,0.3,0.2,0.3,0.4c0,0.2-0.1,0.4-0.3,0.5l0,0L15.4,24.5l2.8,2.8c0.5,0.5,1.1,0.7,1.7,0.7c0.5,0,1-0.1,1.4-0.4
			c0.2-0.1,0.3-0.2,0.5-0.4L39.3,9.9c0.4-0.4,0.7-1,0.7-1.6v0C39.9,7.6,39.6,6.8,39,6.3z"/>
		<linearGradient id="SVGID_4_" gradientUnits="userSpaceOnUse" x1="18.5622" y1="5.0909" x2="30.806" y2="19.6825">
			<stop  offset="0" style="stop-color:#48BEFF"/>
			<stop  offset="0.427" style="stop-color:#1CA3FF"/>
		</linearGradient>
		<path class="st5" d="M39,6.3l-6.2-5.8C32.4,0.2,32,0,31.5,0h-1.4l-5.4,0l-2.4,4h0l0,0h0h0l8.9,2.2l0.2,0l0,0L36,7.5l2.4,0.6
			c0,0,0,0,0,0c0.2,0.1,0.3,0.2,0.3,0.4c0,0.2-0.1,0.4-0.3,0.5l0,0L15.4,24.5l2.8,2.8c0.5,0.5,1.1,0.7,1.7,0.7c0.5,0,1-0.1,1.4-0.4
			c0.2-0.1,0.3-0.2,0.5-0.4L39.3,9.9c0.4-0.4,0.7-1,0.7-1.6v0C39.9,7.6,39.6,6.8,39,6.3z"/>
		<linearGradient id="SVGID_5_" gradientUnits="userSpaceOnUse" x1="17.5431" y1="8.9235" x2="29.8908" y2="19.2845">
			<stop  offset="0" style="stop-color:#0EAFFF"/>
			<stop  offset="1" style="stop-color:#0163E5"/>
		</linearGradient>
		<polygon class="st6" points="38.4,9.1 15.4,24.5 38.4,9.1 		"/>
		<linearGradient id="SVGID_6_" gradientUnits="userSpaceOnUse" x1="17.7032" y1="5.8118" x2="29.9469" y2="20.4034">
			<stop  offset="0" style="stop-color:#48BEFF"/>
			<stop  offset="0.427" style="stop-color:#1CA3FF"/>
		</linearGradient>
		<polygon class="st7" points="38.4,9.1 15.4,24.5 38.4,9.1 		"/>
		<linearGradient id="SVGID_7_" gradientUnits="userSpaceOnUse" x1="17.5431" y1="8.9235" x2="29.8908" y2="19.2845">
			<stop  offset="0" style="stop-color:#0EAFFF"/>
			<stop  offset="1" style="stop-color:#0163E5"/>
		</linearGradient>
		<polygon class="st8" points="38.4,9.1 15.4,24.5 38.4,9.1 		"/>
		<linearGradient id="SVGID_8_" gradientUnits="userSpaceOnUse" x1="17.7032" y1="5.8118" x2="29.9469" y2="20.4034">
			<stop  offset="0" style="stop-color:#48BEFF"/>
			<stop  offset="0.427" style="stop-color:#1CA3FF"/>
		</linearGradient>
		<polygon class="st9" points="38.4,9.1 15.4,24.5 38.4,9.1 		"/>
		<linearGradient id="SVGID_9_" gradientUnits="userSpaceOnUse" x1="23.2012" y1="2.1805" x2="35.5489" y2="12.5414">
			<stop  offset="0" style="stop-color:#0EAFFF"/>
			<stop  offset="1" style="stop-color:#0163E5"/>
		</linearGradient>
		<polygon class="st10" points="22.3,4 22.3,4 31.2,6.3 		"/>
		<linearGradient id="SVGID_10_" gradientUnits="userSpaceOnUse" x1="23.3355" y1="1.0857" x2="35.5793" y2="15.6773">
			<stop  offset="0" style="stop-color:#48BEFF"/>
			<stop  offset="0.427" style="stop-color:#1CA3FF"/>
		</linearGradient>
		<polygon class="st11" points="22.3,4 22.3,4 31.2,6.3 		"/>
		<linearGradient id="SVGID_11_" gradientUnits="userSpaceOnUse" x1="23.2012" y1="2.1805" x2="35.5489" y2="12.5414">
			<stop  offset="0" style="stop-color:#0EAFFF"/>
			<stop  offset="1" style="stop-color:#0163E5"/>
		</linearGradient>
		<polygon class="st12" points="22.3,4 22.3,4 31.2,6.3 		"/>
		<linearGradient id="SVGID_12_" gradientUnits="userSpaceOnUse" x1="23.3355" y1="1.0857" x2="35.5793" y2="15.6773">
			<stop  offset="0" style="stop-color:#48BEFF"/>
			<stop  offset="0.427" style="stop-color:#1CA3FF"/>
		</linearGradient>
		<polygon class="st13" points="22.3,4 22.3,4 31.2,6.3 		"/>
		<linearGradient id="SVGID_13_" gradientUnits="userSpaceOnUse" x1="25.5535" y1="-0.6229" x2="37.9012" y2="9.7381">
			<stop  offset="0" style="stop-color:#0EAFFF"/>
			<stop  offset="1" style="stop-color:#0163E5"/>
		</linearGradient>
		<polygon class="st14" points="38.4,8.1 38.4,8.1 38.4,8.1 36,7.5 31.4,6.3 36,7.5 		"/>
		<linearGradient id="SVGID_14_" gradientUnits="userSpaceOnUse" x1="27.1005" y1="-2.0735" x2="39.3443" y2="12.5181">
			<stop  offset="0" style="stop-color:#48BEFF"/>
			<stop  offset="0.427" style="stop-color:#1CA3FF"/>
		</linearGradient>
		<polygon class="st15" points="38.4,8.1 38.4,8.1 38.4,8.1 36,7.5 31.4,6.3 36,7.5 		"/>
		<linearGradient id="SVGID_15_" gradientUnits="userSpaceOnUse" x1="25.5535" y1="-0.6229" x2="37.9012" y2="9.7381">
			<stop  offset="0" style="stop-color:#0EAFFF"/>
			<stop  offset="1" style="stop-color:#0163E5"/>
		</linearGradient>
		<polygon class="st16" points="38.4,8.1 38.4,8.1 38.4,8.1 36,7.5 31.4,6.3 36,7.5 		"/>
		<linearGradient id="SVGID_16_" gradientUnits="userSpaceOnUse" x1="27.1005" y1="-2.0735" x2="39.3443" y2="12.5181">
			<stop  offset="0" style="stop-color:#48BEFF"/>
			<stop  offset="0.427" style="stop-color:#1CA3FF"/>
		</linearGradient>
		<polygon class="st17" points="38.4,8.1 38.4,8.1 38.4,8.1 36,7.5 31.4,6.3 36,7.5 		"/>
		<linearGradient id="SVGID_17_" gradientUnits="userSpaceOnUse" x1="24.5171" y1="0.6122" x2="36.8648" y2="10.9731">
			<stop  offset="0" style="stop-color:#0EAFFF"/>
			<stop  offset="1" style="stop-color:#0163E5"/>
		</linearGradient>
		<polygon class="st18" points="31.4,6.3 31.2,6.3 31.4,6.3 		"/>
		<linearGradient id="SVGID_18_" gradientUnits="userSpaceOnUse" x1="25.4417" y1="-0.6816" x2="37.6855" y2="13.91">
			<stop  offset="0" style="stop-color:#48BEFF"/>
			<stop  offset="0.427" style="stop-color:#1CA3FF"/>
		</linearGradient>
		<polygon class="st19" points="31.4,6.3 31.2,6.3 31.4,6.3 		"/>
		<linearGradient id="SVGID_19_" gradientUnits="userSpaceOnUse" x1="24.5171" y1="0.6122" x2="36.8648" y2="10.9731">
			<stop  offset="0" style="stop-color:#0EAFFF"/>
			<stop  offset="1" style="stop-color:#0163E5"/>
		</linearGradient>
		<polygon class="st20" points="31.4,6.3 31.2,6.3 31.4,6.3 		"/>
		<linearGradient id="SVGID_20_" gradientUnits="userSpaceOnUse" x1="25.4417" y1="-0.6816" x2="37.6855" y2="13.91">
			<stop  offset="0" style="stop-color:#48BEFF"/>
			<stop  offset="0.427" style="stop-color:#1CA3FF"/>
		</linearGradient>
		<polygon class="st21" points="31.4,6.3 31.2,6.3 31.4,6.3 		"/>
		<linearGradient id="SVGID_21_" gradientUnits="userSpaceOnUse" x1="24.5171" y1="0.6122" x2="36.8648" y2="10.9731">
			<stop  offset="0" style="stop-color:#0EAFFF"/>
			<stop  offset="1" style="stop-color:#0163E5"/>
		</linearGradient>
		<polygon class="st22" points="31.4,6.3 31.2,6.3 31.4,6.3 		"/>
		<linearGradient id="SVGID_22_" gradientUnits="userSpaceOnUse" x1="25.4417" y1="-0.6816" x2="37.6855" y2="13.91">
			<stop  offset="0" style="stop-color:#48BEFF"/>
			<stop  offset="0.427" style="stop-color:#1CA3FF"/>
		</linearGradient>
		<polygon class="st23" points="31.4,6.3 31.2,6.3 31.4,6.3 		"/>
		<linearGradient id="SVGID_23_" gradientUnits="userSpaceOnUse" x1="24.5171" y1="0.6122" x2="36.8648" y2="10.9731">
			<stop  offset="0" style="stop-color:#0EAFFF"/>
			<stop  offset="1" style="stop-color:#0163E5"/>
		</linearGradient>
		<polygon class="st24" points="31.4,6.3 31.2,6.3 31.4,6.3 		"/>
		<linearGradient id="SVGID_24_" gradientUnits="userSpaceOnUse" x1="25.4417" y1="-0.6816" x2="37.6855" y2="13.91">
			<stop  offset="0" style="stop-color:#48BEFF"/>
			<stop  offset="0.427" style="stop-color:#1CA3FF"/>
		</linearGradient>
		<polygon class="st25" points="31.4,6.3 31.2,6.3 31.4,6.3 		"/>
		<linearGradient id="SVGID_25_" gradientUnits="userSpaceOnUse" x1="0" y1="9.3286" x2="22.3024" y2="9.3286">
			<stop  offset="0" style="stop-color:#2BAAFB"/>
			<stop  offset="1" style="stop-color:#0163E5"/>
		</linearGradient>
		<path class="st26" d="M22.3,4L22.3,4L22.3,4L22.3,4L8.4,0.2l0,0l0,0l0,0L7.8,0.1h0l0,0l0,0l0,0C7.6,0.2,7.3,0.3,7.1,0.5L0.9,6.3
			C0.3,6.8,0,7.6,0,8.3v0c0,0.6,0.2,1.2,0.7,1.6l8.7,8.7l5.7-2.4l0.2-0.3L22.3,4z"/>
		<linearGradient id="SVGID_26_" gradientUnits="userSpaceOnUse" x1="0" y1="9.3286" x2="22.3024" y2="9.3286">
			<stop  offset="0" style="stop-color:#2BAAFB"/>
			<stop  offset="1" style="stop-color:#0163E5"/>
		</linearGradient>
		<path class="st27" d="M22.3,4L22.3,4L22.3,4L22.3,4L8.4,0.2l0,0l0,0l0,0L7.8,0.1h0l0,0l0,0l0,0C7.6,0.2,7.3,0.3,7.1,0.5L0.9,6.3
			C0.3,6.8,0,7.6,0,8.3v0c0,0.6,0.2,1.2,0.7,1.6l8.7,8.7l5.7-2.4l0.2-0.3L22.3,4z"/>
		<linearGradient id="SVGID_27_" gradientUnits="userSpaceOnUse" x1="22.2542" y1="3.9859" x2="22.3493" y2="4.0992">
			<stop  offset="0" style="stop-color:#48BEFF"/>
			<stop  offset="0.427" style="stop-color:#1CA3FF"/>
		</linearGradient>
		<polygon class="st28" points="22.3,4 22.3,4 22.3,4 22.3,4 22.3,4 22.3,4 		"/>
		<linearGradient id="SVGID_28_" gradientUnits="userSpaceOnUse" x1="22.2102" y1="4.0433" x2="22.3946" y2="4.0433">
			<stop  offset="0" style="stop-color:#2BAAFB"/>
			<stop  offset="1" style="stop-color:#0163E5"/>
		</linearGradient>
		<polygon class="st29" points="22.3,4 22.3,4 22.3,4 22.3,4 22.3,4 22.3,4 		"/>
		<linearGradient id="SVGID_29_" gradientUnits="userSpaceOnUse" x1="22.2542" y1="3.9859" x2="22.3493" y2="4.0992">
			<stop  offset="0" style="stop-color:#48BEFF"/>
			<stop  offset="0.427" style="stop-color:#1CA3FF"/>
		</linearGradient>
		<polygon class="st30" points="22.3,4 22.3,4 22.3,4 22.3,4 22.3,4 22.3,4 		"/>
		<linearGradient id="SVGID_30_" gradientUnits="userSpaceOnUse" x1="22.2102" y1="4.0433" x2="22.3946" y2="4.0433">
			<stop  offset="0" style="stop-color:#2BAAFB"/>
			<stop  offset="1" style="stop-color:#0163E5"/>
		</linearGradient>
		<polygon class="st31" points="22.3,4 22.3,4 22.3,4 22.3,4 22.3,4 22.3,4 		"/>
		<path class="st32" d="M7.8,0.1L7.8,0.1l0.6,0.2l0,0l0,0l0,0L22.3,4l0,0l0,0l0,0l2.4-4H9.8h0h0h0H8.5h0H8.4h0C8.3,0,8.2,0,8.2,0
			c0,0,0,0,0,0c0,0,0,0-0.1,0l0,0C8,0,7.9,0.1,7.8,0.1L7.8,0.1L7.8,0.1L7.8,0.1z"/>
	</g>
</g>
</svg>
