<svg id="Icons" xmlns="http://www.w3.org/2000/svg" viewBox="0 0 119.12 73.17"><defs><style>.cls-1{fill:#1ca2ff;}.cls-2{fill:#0970e9;}.cls-3{fill:none;stroke:#0970e9;stroke-miterlimit:10;}.cls-4{fill:#3eb8ff;}.cls-5{fill:#fdb62f;}</style></defs><title>money</title><rect class="cls-1" x="32.84" y="25.57" width="66.5" height="38.08" rx="4.64" ry="4.64"/><path class="cls-2" d="M90.18,30.33H32.5a4.42,4.42,0,0,0-4.41,4.42V64a4.42,4.42,0,0,0,4.41,4.42H52.14a4.59,4.59,0,1,1,9.17,0H90.18A4.42,4.42,0,0,0,94.59,64V34.75A4.42,4.42,0,0,0,90.18,30.33Z"/><path class="cls-1" d="M85.43,73.17H61.34l-4.75-5.23L51.8,73.17h-24a4.42,4.42,0,0,1-4.41-4.42V39.51a4.42,4.42,0,0,1,4.41-4.42H85.43a4.42,4.42,0,0,1,4.41,4.42V68.75A4.42,4.42,0,0,1,85.43,73.17Z"/><path class="cls-3" d="M66.09,39.85H83.35a1.74,1.74,0,0,1,1.74,1.74V66.67a1.73,1.73,0,0,1-1.74,1.74H66.09"/><path class="cls-3" d="M47.09,68.41H29.83a1.73,1.73,0,0,1-1.74-1.74V41.59a1.74,1.74,0,0,1,1.74-1.74H47.09"/><ellipse class="cls-3" cx="56.59" cy="54.13" rx="11.46" ry="11.49"/><ellipse class="cls-1" cx="56.59" cy="54.13" rx="9.5" ry="9.52"/><ellipse class="cls-4" cx="56.74" cy="54.29" rx="3.04" ry="3.05"/><path class="cls-5" d="M6.58,39.26h0A8,8,0,0,0,0,32.67H0a8,8,0,0,0,6.58-6.58h0a8,8,0,0,0,6.59,6.58h0A8,8,0,0,0,6.58,39.26Z"/><path class="cls-5" d="M65.12,11.65h0a7.08,7.08,0,0,0-5.83-5.82h0A7.1,7.1,0,0,0,65.12,0h0a7.07,7.07,0,0,0,5.82,5.83h0A7.06,7.06,0,0,0,65.12,11.65Z"/><path class="cls-5" d="M114.49,33.41h0a5.61,5.61,0,0,0-4.63-4.63h0a5.63,5.63,0,0,0,4.63-4.63h0a5.63,5.63,0,0,0,4.63,4.63h0A5.61,5.61,0,0,0,114.49,33.41Z"/></svg>