<svg id="Capa_1" data-name="Capa 1" xmlns="http://www.w3.org/2000/svg" viewBox="0 0 42 40.55"><defs><style>.cls-1{fill:#0391fd;}.cls-2{fill:#4362a5;}.cls-3{fill:#fff;}</style></defs><title>notify</title><path class="cls-1" d="M34.76,13.71V29a3.57,3.57,0,0,1-3.57,3.57H15.93l-7.24,8v-8H3.57A3.57,3.57,0,0,1,0,29V13.71a3.57,3.57,0,0,1,3.57-3.57H31.19A3.57,3.57,0,0,1,34.76,13.71Z"/><path class="cls-2" d="M38.43,0H10.81A3.57,3.57,0,0,0,7.24,3.57v6.57h24a3.57,3.57,0,0,1,3.57,3.57v8.74h3.67A3.57,3.57,0,0,0,42,18.88V3.57A3.57,3.57,0,0,0,38.43,0Z"/><circle class="cls-3" cx="7.97" cy="21.72" r="2.17"/><circle class="cls-3" cx="17.38" cy="21.72" r="2.17"/><circle class="cls-3" cx="26.79" cy="21.72" r="2.17"/></svg>