<svg id="Слой_1" data-name="Слой 1" xmlns="http://www.w3.org/2000/svg" viewBox="0 0 16 18"><defs><style>.cls-1{fill:#fff;}</style></defs><title>ring</title><path class="cls-1" d="M15.86,14.6h0a7,7,0,0,1-2.23-5.12V6.59A4.83,4.83,0,0,0,10.77,2.2a6.11,6.11,0,0,0-1-.37V1.77a1.79,1.79,0,0,0-3.57,0v.09a5.61,5.61,0,0,0-.92.34,5,5,0,0,0-3,4.39V9.48A6.94,6.94,0,0,1,.14,14.6a.49.49,0,0,0-.12.49.49.49,0,0,0,.38.33L3.48,16c.54.09,1,.17,1.53.23a3.37,3.37,0,0,0,6,0c.48-.06,1-.14,1.52-.23l3.08-.53a.48.48,0,0,0,.38-.33A.49.49,0,0,0,15.86,14.6Zm-5.93.74-.61.05H9.21l-.51,0H7.3l-.51,0H6.67l-.6-.05-.69-.08c-.52-.07-1.08-.15-1.73-.26l-2.21-.38a7.84,7.84,0,0,0,1.8-5.14V6.59a4.05,4.05,0,0,1,2.4-3.51,5.52,5.52,0,0,1,1.08-.37h0a5.67,5.67,0,0,1,2.39,0h0a6.51,6.51,0,0,1,1.18.38,3.9,3.9,0,0,1,2.29,3.52V9.48a8,8,0,0,0,1.9,5.14l-2.2.38c-.63.11-1.2.19-1.72.26Zm-.23,1a2.38,2.38,0,0,1-3.39,0A19.19,19.19,0,0,0,9.7,16.33ZM7.14,1.65A.82.82,0,0,1,7.94,1a.83.83,0,0,1,.81.68A7.22,7.22,0,0,0,7.14,1.65Z"/></svg>