<svg id="Слой_1" data-name="Слой 1" xmlns="http://www.w3.org/2000/svg" viewBox="0 0 12 13.2"><title>ruble</title><path d="M.3,11.1H2.4v1.8a.33.33,0,0,0,.08.22.33.33,0,0,0,.22.08H4.27a.32.32,0,0,0,.21-.08.29.29,0,0,0,.09-.22V11.1H9.3a.28.28,0,0,0,.3-.3V9.6a.28.28,0,0,0-.3-.3H4.57V8.19H7.75a4.23,4.23,0,0,0,3.06-1.14A3.92,3.92,0,0,0,12,4.1a4,4,0,0,0-1.19-3A4.23,4.23,0,0,0,7.75,0h-5a.33.33,0,0,0-.22.08A.33.33,0,0,0,2.4.3V6.2H.3a.29.29,0,0,0-.22.09A.32.32,0,0,0,0,6.5V7.89a.33.33,0,0,0,.08.22.29.29,0,0,0,.22.08H2.4V9.3H.3a.33.33,0,0,0-.22.08A.33.33,0,0,0,0,9.6v1.2A.33.33,0,0,0,.08,11,.33.33,0,0,0,.3,11.1ZM4.57,2h3a2.22,2.22,0,0,1,1.6.58A2,2,0,0,1,9.78,4.1a2,2,0,0,1-.61,1.52,2.26,2.26,0,0,1-1.6.58h-3Z"/></svg>