<?xml version="1.0" encoding="UTF-8" standalone="no"?>
<svg
   xmlns:dc="http://purl.org/dc/elements/1.1/"
   xmlns:cc="http://creativecommons.org/ns#"
   xmlns:rdf="http://www.w3.org/1999/02/22-rdf-syntax-ns#"
   xmlns:svg="http://www.w3.org/2000/svg"
   xmlns="http://www.w3.org/2000/svg"
   height="77.955742"
   width="87.900002"
   xml:space="preserve"
   viewBox="0 0 87.900002 77.955739"
   y="0px"
   x="0px"
   id="Icons"
   version="1.1"><metadata
     id="metadata3452"><rdf:RDF><cc:Work
         rdf:about=""><dc:format>image/svg+xml</dc:format><dc:type
           rdf:resource="http://purl.org/dc/dcmitype/StillImage" /><dc:title></dc:title></cc:Work></rdf:RDF></metadata><defs
     id="defs3450" /><style
     id="style3436"
     type="text/css">
	.st0{fill:#1CA2FF;}
	.st1{fill:none;stroke:#0970E9;stroke-width:1.5;stroke-miterlimit:10;}
	.st2{fill:#0970E9;}
	.st3{fill:#3EB8FF;}
</style><g
     transform="translate(-2848.6,-1930.6443)"
     id="g3438"><path
       style="fill:#1ca2ff"
       id="path3440"
       d="m 2936.5,1964.1 c 0,-3.1 -2.5,-5.6 -5.5,-5.6 l -11,0 -17.2,0 c -2,0 -3.2,-2.2 -2.2,-4 l 1.6,-2.7 c 2.4,-4.2 1.4,-9.6 -2.2,-13.5 -1.5,-1.7 -4.2,-1.4 -5.3,0.5 l -15.9,27.2 c -0.3,0.4 -0.6,0.9 -0.8,1.4 l -0.2,0.3 c -0.7,1.2 -1.9,1.9 -3.3,1.9 l -14.9,0 0,33.4 16.8,0 5.2,0 11,0 27.5,0 c 3,0 5.5,-2.5 5.5,-5.6 0,-3.1 -2.5,-5.6 -5.5,-5.6 l 3.7,0 c 3,0 5.5,-2.5 5.5,-5.6 0,-3.1 -2.5,-5.6 -5.5,-5.6 l 3.7,0 c 3,0 5.5,-2.5 5.5,-5.6 0,-3.1 -2.5,-5.6 -5.5,-5.6 l 3.7,0 c 2.9,0.2 5.3,-2.3 5.3,-5.3 z"
       class="st0" /><path
       style="fill:none;stroke:#0970e9;stroke-width:1.5;stroke-miterlimit:10"
       id="path3442"
       d="m 2854,1997.5 16.8,0 5.2,0 11,0 27.5,0 c 3,0 5.5,-2.5 5.5,-5.6 0,-3.1 -2.5,-5.6 -5.5,-5.6 l 3.7,0 c 3,0 5.5,-2.5 5.5,-5.6 0,-3.1 -2.5,-5.6 -5.5,-5.6 l 3.7,0 c 3,0 5.5,-2.5 5.5,-5.6 0,-3.1 -2.5,-5.6 -5.5,-5.6 l 3.7,0 c 3,0 5.5,-2.5 5.5,-5.6 0,-3.1 -2.5,-5.6 -5.5,-5.6 l -11,0 -17.2,0 c -2,0 -3.2,-2.2 -2.2,-4 l 1.6,-2.7 c 2.4,-4.2 1.4,-9.6 -2.2,-13.5 -1.5,-1.7 -4.2,-1.4 -5.3,0.5 l -15.9,27.2"
       class="st1" /><path
       style="fill:#0970e9"
       id="path3444"
       d="m 2867.9,2008.6 -16.6,0 c -1.5,0 -2.7,-1.2 -2.7,-2.7 l 0,-39.2 c 0,-1.5 1.2,-2.7 2.7,-2.7 l 16.6,0 c 1.5,0 2.7,1.2 2.7,2.7 l 0,39.2 c -0.1,1.5 -1.3,2.7 -2.7,2.7 z"
       class="st2" /><circle
       style="fill:#3eb8ff"
       r="2.8"
       id="ellipse3446"
       cy="1972.4"
       cx="2862.3"
       class="st3" /></g></svg>