<?xml version="1.0" encoding="utf-8"?>
<!-- Generator: Adobe Illustrator 22.0.1, SVG Export Plug-In . SVG Version: 6.00 Build 0)  -->
<svg version="1.1" id="Icons" xmlns="http://www.w3.org/2000/svg" xmlns:xlink="http://www.w3.org/1999/xlink" x="0px" y="0px"
	 viewBox="0 0 107.8 90.8" style="enable-background:new 0 0 107.8 90.8;" xml:space="preserve">
<style type="text/css">
	.st0{fill:#0970E9;}
	.st1{fill:#1CA2FF;}
	.st2{fill:none;stroke:#0970E9;stroke-width:1.5;stroke-miterlimit:10;}
	.st3{fill:#3EB8FF;}
</style>
<g>
	<path class="st0" d="M107.8,74.4H9v13.2c0,1.8,1.4,3.2,3.2,3.2h92.4c1.8,0,3.2-1.4,3.2-3.2V74.4z"/>
	<path class="st1" d="M104.6,8.9H12.2c-1.8,0-3.2,1.4-3.2,3.2v62.3h98.8V12.1C107.8,10.4,106.3,8.9,104.6,8.9z"/>
	<path class="st2" d="M66.6,82.6h27.7c2.9,0,5.2-2.3,5.2-5.2V66.2V6c0-2.9-2.3-5.2-5.2-5.2H6C3.1,0.8,0.8,3.1,0.8,6v60.2v11.2
		c0,2.9,2.3,5.2,5.2,5.2h44.1"/>
	<ellipse class="st3" cx="58.4" cy="82.6" rx="4.1" ry="4.1"/>
</g>
</svg>
