<svg id="Слой_1" data-name="Слой 1" xmlns="http://www.w3.org/2000/svg" viewBox="0 0 18 18"><defs><style>.cls-1{fill:#1ca2ff;}</style></defs><title>settings-active</title><path class="cls-1" d="M16.93,6.87H15.27a.43.43,0,0,1-.43-.29.44.44,0,0,1,.1-.51L16.11,4.9a1.09,1.09,0,0,0,0-1.52L14.62,1.89a1.11,1.11,0,0,0-1.52,0L11.93,3.06a.44.44,0,0,1-.51.1.43.43,0,0,1-.29-.43V1.07A1.07,1.07,0,0,0,10.05,0H8A1.07,1.07,0,0,0,6.87,1.07V2.73a.43.43,0,0,1-.29.43.44.44,0,0,1-.51-.1L4.9,1.89a1.11,1.11,0,0,0-1.52,0L1.89,3.38a1.09,1.09,0,0,0,0,1.52L3.06,6.07a.44.44,0,0,1,.1.51.43.43,0,0,1-.43.29H1.07A1.07,1.07,0,0,0,0,8v2.1a1.07,1.07,0,0,0,1.07,1.08H2.73a.43.43,0,0,1,.43.29.44.44,0,0,1-.1.51L1.89,13.1a1.09,1.09,0,0,0,0,1.52l1.49,1.49a1.16,1.16,0,0,0,.76.31h0a1.09,1.09,0,0,0,.76-.31l1.17-1.17a.44.44,0,0,1,.51-.1.43.43,0,0,1,.29.43v1.66A1.07,1.07,0,0,0,8,18h2.1a1.07,1.07,0,0,0,1.08-1.07V15.27a.43.43,0,0,1,.29-.43.44.44,0,0,1,.51.1l1.17,1.17a1.11,1.11,0,0,0,1.52,0l1.49-1.49a1.09,1.09,0,0,0,0-1.52l-1.17-1.17a.44.44,0,0,1-.1-.51.43.43,0,0,1,.43-.29h1.66A1.07,1.07,0,0,0,18,10.05V8A1.07,1.07,0,0,0,16.93,6.87Zm-3,4.17a1.43,1.43,0,0,0,.32,1.59l1.16,1.16a.09.09,0,0,1,0,.13l-1.48,1.49a.1.1,0,0,1-.14,0l-1.16-1.16a1.45,1.45,0,0,0-2.48,1v1.66a.1.1,0,0,1-.1.09H8a.1.1,0,0,1-.1-.09V15.27A1.43,1.43,0,0,0,7,13.93a1.6,1.6,0,0,0-.57-.11,1.43,1.43,0,0,0-1,.43L4.21,15.41a.11.11,0,0,1-.07,0h0a.07.07,0,0,1-.06,0L2.59,13.92a.07.07,0,0,1,0-.06.09.09,0,0,1,0-.07l1.16-1.16a1.45,1.45,0,0,0-1-2.48H1.07a.1.1,0,0,1-.09-.1V8a.1.1,0,0,1,.09-.1H2.73a1.45,1.45,0,0,0,1-2.48L2.59,4.21a.11.11,0,0,1,0-.07.07.07,0,0,1,0-.06L4.08,2.59a.09.09,0,0,1,.13,0L5.37,3.75a1.45,1.45,0,0,0,2.48-1V1.07A.1.1,0,0,1,8,1h2.1a.1.1,0,0,1,.1.09V2.73a1.45,1.45,0,0,0,2.48,1l1.16-1.16a.09.09,0,0,1,.13,0l1.49,1.49a.07.07,0,0,1,0,.06.09.09,0,0,1,0,.07L14.25,5.37a1.45,1.45,0,0,0,1,2.48h1.66l.06,0A.09.09,0,0,1,17,8v2.1a.1.1,0,0,1-.09.1H15.27A1.43,1.43,0,0,0,13.93,11Z"/><path class="cls-1" d="M9,5.89A3.11,3.11,0,1,0,12.11,9,3.12,3.12,0,0,0,9,5.89Zm0,5.24A2.13,2.13,0,1,1,11.13,9,2.14,2.14,0,0,1,9,11.13Z"/></svg>