<?xml version="1.0" encoding="UTF-8" standalone="no"?>
<svg
   xmlns:dc="http://purl.org/dc/elements/1.1/"
   xmlns:cc="http://creativecommons.org/ns#"
   xmlns:rdf="http://www.w3.org/1999/02/22-rdf-syntax-ns#"
   xmlns:svg="http://www.w3.org/2000/svg"
   xmlns="http://www.w3.org/2000/svg"
   height="56.900002"
   width="91"
   xml:space="preserve"
   viewBox="0 0 91 56.899999"
   y="0px"
   x="0px"
   id="Icons"
   version="1.1"><metadata
     id="metadata3388"><rdf:RDF><cc:Work
         rdf:about=""><dc:format>image/svg+xml</dc:format><dc:type
           rdf:resource="http://purl.org/dc/dcmitype/StillImage" /><dc:title></dc:title></cc:Work></rdf:RDF></metadata><defs
     id="defs3386" /><style
     id="style3364"
     type="text/css">
	.st0{fill:#1CA2FF;}
	.st1{fill:#0970E9;}
	.st2{fill:none;stroke:#0970E9;stroke-miterlimit:10;}
	.st3{fill:#3EB8FF;}
</style><g
     transform="translate(-2859.5,-2036.2)"
     id="g3366"><path
       style="fill:#1ca2ff"
       id="path3368"
       d="m 2945.9,2081.7 -70.3,0 c -2.6,0 -4.6,-2.1 -4.6,-4.6 l 0,-36.3 c 0,-2.6 2.1,-4.6 4.6,-4.6 l 70.3,0 c 2.6,0 4.6,2.1 4.6,4.6 l 0,36.3 c 0,2.5 -2,4.6 -4.6,4.6 z"
       class="st0" /><path
       style="fill:#0970e9"
       id="path3370"
       d="m 2939.6,2041.8 -69.1,0 c -2.9,0 -5.3,2.4 -5.3,5.3 l 0,35 c 0,2.9 2.4,5.3 5.3,5.3 l 23.5,0 c 0,-2.9 1.8,-5.7 5.5,-5.7 3.7,0 5.5,2.9 5.5,5.7 l 34.6,0 c 2.9,0 5.3,-2.4 5.3,-5.3 l 0,-35 c -0.1,-3 -2.4,-5.3 -5.3,-5.3 z"
       class="st1" /><path
       style="fill:#1ca2ff"
       id="path3372"
       d="m 2933.9,2093.1 -28.9,0 -5.7,-6.3 -5.7,6.3 -28.8,0 c -2.9,0 -5.3,-2.4 -5.3,-5.3 l 0,-35 c 0,-2.9 2.4,-5.3 5.3,-5.3 l 69.1,0 c 2.9,0 5.3,2.4 5.3,5.3 l 0,35 c 0,2.9 -2.4,5.3 -5.3,5.3 z"
       class="st0" /><path
       style="fill:none;stroke:#0970e9;stroke-miterlimit:10"
       id="path3374"
       d="m 2910.7,2053.2 20.7,0 c 1.1,0 2.1,0.9 2.1,2.1 l 0,30 c 0,1.2 -0.9,2.1 -2.1,2.1 l -20.7,0"
       class="st2" /><path
       style="fill:none;stroke:#0970e9;stroke-miterlimit:10"
       id="path3376"
       d="m 2888,2087.4 -20.7,0 c -1.1,0 -2.1,-0.9 -2.1,-2.1 l 0,-30 c 0,-1.1 0.9,-2.1 2.1,-2.1 l 20.7,0"
       class="st2" /><ellipse
       style="fill:none;stroke:#0970e9;stroke-miterlimit:10"
       id="ellipse3378"
       ry="13.8"
       rx="13.7"
       cy="2070.3"
       cx="2899.3"
       class="st2" /><circle
       style="fill:#1ca2ff"
       r="11.4"
       id="ellipse3380"
       cy="2070.3"
       cx="2899.3"
       class="st0" /></g><ellipse
     style="fill:#3eb8ff"
     id="ellipse3382"
     ry="3.7"
     rx="3.5999999"
     cy="34.299999"
     cx="40"
     class="st3" /></svg>