<?xml version="1.0" encoding="UTF-8" standalone="no"?>
<svg
   xmlns:dc="http://purl.org/dc/elements/1.1/"
   xmlns:cc="http://creativecommons.org/ns#"
   xmlns:rdf="http://www.w3.org/1999/02/22-rdf-syntax-ns#"
   xmlns:svg="http://www.w3.org/2000/svg"
   xmlns="http://www.w3.org/2000/svg"
   height="92.445892"
   width="86.089783"
   xml:space="preserve"
   viewBox="0 0 86.089783 92.445889"
   y="0px"
   x="0px"
   id="Режим_изоляции"
   version="1.1"><metadata
     id="metadata3353"><rdf:RDF><cc:Work
         rdf:about=""><dc:format>image/svg+xml</dc:format><dc:type
           rdf:resource="http://purl.org/dc/dcmitype/StillImage" /><dc:title></dc:title></cc:Work></rdf:RDF></metadata><defs
     id="defs3351" /><style
     id="style3337"
     type="text/css">
	.st0{fill:#1CA2FF;}
	.st1{fill:none;stroke:#0970E9;stroke-miterlimit:10;}
	.st2{fill:#0970E9;}
	.st3{fill:#3EB8FF;}
</style><g
     transform="translate(-2690.55,-1935.0041)"
     id="g3339"><path
       style="fill:#1ca2ff"
       id="path3341"
       d="m 2775.1,1957.6 c -2,-2 -5.2,-2 -7.1,0 l -14.3,14.2 0,0 2.4,-2.4 c 2,-2 2,-5.1 0,-7.1 -2,-2 -5.2,-2 -7.1,0 l 2.4,-2.4 c 2,-2 2,-5.1 0,-7.1 -2,-2 -5.2,-2 -7.1,0 l 8.1,-8.2 c 2,-2 2,-5.1 0,-7.1 -2,-2 -5.2,-2 -7.1,0 l -12.8,12.9 -11.1,11.1 c -1.3,1.3 -3.5,0.7 -4,-1.1 l -0.7,-2.7 c -1.1,-4.2 -5.3,-7 -10.1,-7.2 -2.1,-0.1 -3.6,1.8 -3.1,3.8 l 7.1,27.6 c 0.1,0.5 0.2,0.9 0.4,1.4 l 0.1,0.4 c 0.3,1.2 0,2.5 -0.9,3.3 l -9.7,9.6 21.4,21.3 10.9,-10.8 3.4,-3.4 7.1,-7.1 10.7,-10.7 0,0 21.4,-21.3 c 1.7,-1.9 1.7,-5.1 -0.3,-7 z"
       class="st0" /><path
       style="fill:none;stroke:#0970e9;stroke-miterlimit:10"
       id="path3343"
       d="m 2714.5,2018 10.9,-10.8 3.4,-3.4 7.1,-7.1 10.7,-10.7 0,0 21.4,-21.3 c 2,-2 2,-5.1 0,-7.1 -2,-2 -5.2,-2 -7.1,0 l -14.3,14.2 0,0 2.4,-2.4 c 2,-2 2,-5.1 0,-7.1 -2,-2 -5.2,-2 -7.1,0 l 2.4,-2.4 c 2,-2 2,-5.1 0,-7.1 -2,-2 -5.2,-2 -7.1,0 l 8.7,-8.7 c 2,-2 2,-5.1 0,-7.1 -2,-2 -5.2,-2 -7.1,0 l -13.5,13.5 -11.1,11.1 c -1.3,1.3 -3.5,0.7 -4,-1.1 l -0.7,-2.7 c -1.1,-4.2 -5.3,-7 -10.1,-7.2 -2.1,-0.1 -3.6,1.8 -3.1,3.8 l 7.1,27.6"
       class="st1" /><path
       style="fill:#0970e9"
       id="path3345"
       d="m 2730.4,2016.3 -10.5,10.4 c -1,1 -2.7,1 -3.8,0 l -8.6,-8.6 2.9,-11.3 -11.8,2.5 -7.3,-7.2 c -1,-1 -1,-2.7 0,-3.8 l 10.5,-10.4 c 1,-1 2.7,-1 3.8,0 l 24.8,24.6 c 1.1,1.1 1.1,2.7 0,3.8 z"
       class="st2" /><circle
       style="fill:#3eb8ff"
       r="2.5"
       id="ellipse3347"
       cy="1996.6"
       cx="2703.8"
       class="st3" /></g></svg>