<?xml version="1.0" encoding="UTF-8" standalone="no"?>
<svg
   xmlns:dc="http://purl.org/dc/elements/1.1/"
   xmlns:cc="http://creativecommons.org/ns#"
   xmlns:rdf="http://www.w3.org/1999/02/22-rdf-syntax-ns#"
   xmlns:svg="http://www.w3.org/2000/svg"
   xmlns="http://www.w3.org/2000/svg"
   version="1.1"
   id="Icons"
   x="0px"
   y="0px"
   viewBox="0 0 82.800003 85.374996"
   xml:space="preserve"
   width="82.800003"
   height="85.375"><metadata
     id="metadata3438"><rdf:RDF><cc:Work
         rdf:about=""><dc:format>image/svg+xml</dc:format><dc:type
           rdf:resource="http://purl.org/dc/dcmitype/StillImage" /><dc:title></dc:title></cc:Work></rdf:RDF></metadata><defs
     id="defs3436" /><style
     type="text/css"
     id="style3414">
	.st0{fill:none;stroke:#1CA2FF;stroke-miterlimit:10;}
	.st1{fill:#1CA2FF;}
	.st2{fill:#0970E9;}
</style><g
     id="g3416"
     transform="translate(-2864,-2164.7)"><path
       class="st0"
       d="m 2893.8,2243.5 c 0,8.1 -29.3,8.1 -29.3,0 0,-8.1 6.6,-14.7 14.6,-14.7 8.2,0.1 14.7,6.6 14.7,14.7 z"
       id="path3418"
       style="fill:none;stroke:#1ca2ff;stroke-miterlimit:10" /><path
       class="st1"
       d="m 2880.9,2231.8 -3.4,0 c -5.5,0 -10,-4.5 -10,-10 l 0,-9.3 c 0,-5.5 4.5,-10 10,-10 l 3.4,0 c 5.5,0 10,4.5 10,10 l 0,9.3 c 0,5.5 -4.5,10 -10,10 z"
       id="path3420"
       style="fill:#1ca2ff" /><path
       class="st2"
       d="m 2892.6,2210.5 c 0,-0.2 -0.1,-0.4 -0.2,-0.7 -0.3,-1.3 -0.9,-2.5 -1.6,-3.7 -0.7,-1.1 -1.5,-2.2 -2.5,-3 -1.1,-1 -2.4,-1.9 -3.9,-2.5 -0.2,-0.1 -0.4,-0.2 -0.6,-0.2 -0.4,-0.2 -0.8,-0.3 -1.3,-0.4 -0.4,-0.1 -0.9,-0.2 -1.3,-0.3 -0.5,-0.1 -0.9,-0.1 -1.4,-0.1 -0.2,0 -0.5,0 -0.7,0 -0.3,0 -0.5,0 -0.7,0 -0.1,0 -0.2,0 -0.2,0 -0.2,0 -0.3,0 -0.5,0 -0.1,0 -0.2,0 -0.3,0 -0.2,0 -0.3,0 -0.5,0.1 -0.1,0 -0.2,0 -0.3,0.1 -0.1,0 -0.3,0.1 -0.4,0.1 -0.1,0 -0.2,0 -0.3,0.1 -0.1,0 -0.3,0.1 -0.4,0.1 -0.1,0 -0.2,0 -0.3,0.1 -0.2,0 -0.3,0.1 -0.5,0.1 -0.1,0 -0.1,0 -0.2,0.1 -0.2,0.1 -0.4,0.1 -0.6,0.2 0,0 -0.1,0 -0.1,0 -0.2,0.1 -0.4,0.2 -0.7,0.3 0,0 0,0 0,0 -0.2,0.1 -0.4,0.2 -0.6,0.3 0,0 -0.1,0.1 -0.1,0.1 -0.2,0.1 -0.3,0.2 -0.5,0.3 -0.1,0 -0.1,0.1 -0.2,0.1 -0.1,0.1 -0.3,0.2 -0.4,0.3 -0.1,0 -0.1,0.1 -0.2,0.1 -0.1,0.1 -0.3,0.2 -0.4,0.3 -0.1,0 -0.1,0.1 -0.2,0.1 -0.1,0.1 -0.3,0.2 -0.4,0.3 0,0 -0.1,0.1 -0.1,0.1 -0.2,0.1 -0.3,0.3 -0.4,0.4 0,0 0,0 -0.1,0.1 -2.5,2.5 -4.1,5.9 -4.1,9.7 l 0,7.8 c 0,1.1 0.9,2 2,2 l 0,0 0.4,0 c -0.2,-0.9 -0.4,-1.9 -0.4,-2.9 l 0,-2.6 c 0,-1.8 1.5,-3.3 3.3,-3.3 l 5.6,0 c 2.9,1.9 6.4,2.9 10.1,2.9 1.5,0 2.9,-0.2 4.3,-0.5 0.1,0.3 0.1,0.5 0.1,0.8 l 0,2.6 c 0,1 -0.1,2 -0.4,2.9 l 0.4,0 0,0 c 1.1,0 2,-0.9 2,-2 l 0,-7.8 c 0,-0.7 -0.1,-1.6 -0.2,-2.5 z"
       id="path3422"
       style="fill:#0970e9" /><path
       class="st0"
       d="m 2944.7,2205.6 c 0,7.6 -21.9,7.6 -21.9,0 0,-7.6 4.9,-13.7 10.9,-13.7 6,0 11,6.2 11,13.7 z"
       id="path3424"
       style="fill:none;stroke:#1ca2ff;stroke-miterlimit:10" /><path
       class="st1"
       d="m 2935.4,2194.7 -3.2,0 c -5.1,0 -9.3,-4.2 -9.3,-9.3 l 0,-8.7 c 0,-5.1 4.2,-9.3 9.3,-9.3 l 3.2,0 c 5.1,0 9.0635,4.2055 9.3,9.3 l 0.4045,8.7106 c 0.2365,5.0946 -4.6045,9.2894 -9.7045,9.2894 z"
       id="path3426"
       style="fill:#1ca2ff" /><path
       class="st2"
       d="m 2946.3,2174.8 c 0,-0.2 -0.1,-0.4 -0.1,-0.6 -0.3,-1.2 -0.8,-2.4 -1.4,-3.4 -0.6,-1.1 -1.4,-2 -2.3,-2.8 -1.1,-1 -2.3,-1.8 -3.6,-2.3 -0.2,-0.1 -0.4,-0.2 -0.6,-0.2 -0.4,-0.1 -0.8,-0.3 -1.2,-0.4 -0.4,-0.1 -0.8,-0.2 -1.2,-0.3 -0.4,-0.1 -0.8,-0.1 -1.3,-0.1 -0.2,0 -0.4,0 -0.7,0 -0.2,0 -0.5,0 -0.7,0 -0.1,0 -0.1,0 -0.2,0 -0.2,0 -0.3,0 -0.5,0 -0.1,0 -0.2,0 -0.3,0 -0.1,0 -0.3,0 -0.4,0.1 -0.1,0 -0.2,0 -0.3,0 -0.1,0 -0.3,0.1 -0.4,0.1 -0.1,0 -0.2,0 -0.3,0.1 -0.1,0 -0.3,0.1 -0.4,0.1 -0.1,0 -0.2,0 -0.2,0.1 -0.1,0 -0.3,0.1 -0.4,0.1 -0.1,0 -0.1,0 -0.2,0.1 -0.2,0.1 -0.3,0.1 -0.5,0.2 0,0 -0.1,0 -0.1,0 -0.2,0.1 -0.4,0.2 -0.6,0.3 0,0 0,0 0,0 -0.2,0.1 -0.4,0.2 -0.6,0.3 0,0 -0.1,0.1 -0.1,0.1 -0.1,0.1 -0.3,0.2 -0.4,0.3 -0.1,0 -0.1,0.1 -0.2,0.1 -0.1,0.1 -0.3,0.2 -0.4,0.3 -0.1,0 -0.1,0.1 -0.2,0.1 -0.1,0.1 -0.3,0.2 -0.4,0.3 -0.1,0 -0.1,0.1 -0.2,0.1 -0.1,0.1 -0.3,0.2 -0.4,0.3 0,0 -0.1,0.1 -0.1,0.1 -0.1,0.1 -0.3,0.3 -0.4,0.4 0,0 0,0 -0.1,0.1 -2.3,2.3 -3.8,5.5 -3.8,9.1 l 0,0.9 0,6.4 0,6.1 c 0,2.3 -1.8,4.1 -4.1,4.1 -0.4,0 -0.8,-0.1 -1.1,-0.2 0.8,2.9 3.4,5.1 6.6,5.1 3.5,0 6.4,-2.7 6.8,-6.1 -2.9,-1.4 -5.2,-4 -6,-7.2 l 0,0 c -0.2,-0.6 -0.3,-1.3 -0.3,-2 0,-0.2 0,-0.5 0,-0.7 l 0,-2.4 c 0,-1.7 1.4,-3.1 3.1,-3.1 l 5.2,0 c 2.7,1.7 6,2.7 9.5,2.7 1.4,0 2.7,-0.2 4,-0.5 0.1,0.3 0.1,0.5 0.1,0.8 l 0,2.4 c 0,0.2 0,0.5 0,0.7 0,0.7 -0.2,1.4 -0.3,2 l 0,0 c -0.8,3 -2.9,5.6 -5.6,7 0.6,0.4 1.2,0.9 1.7,1.4 0.2,0 0.4,0 0.6,0 3,0 5.5,-2.5 5.5,-5.5 l 0,-4.8 0,-3.5 0,-3.8 c -0.3,-0.8 -0.4,-1.7 -0.5,-2.5 z"
       id="path3428"
       style="fill:#0970e9" /><path
       class="st0"
       d="m 2876.2,2193.7 c 0,-11 8.9,-19.9 19.9,-19.9 l 15.2,0"
       id="path3430"
       style="fill:none;stroke:#1ca2ff;stroke-miterlimit:10" /><path
       class="st0"
       d="m 2934.8,2217.2 c 0,11 -8.9,19.9 -19.9,19.9 l -9.4,0"
       id="path3432"
       style="fill:none;stroke:#1ca2ff;stroke-miterlimit:10" /></g></svg>