<svg width="12" height="12" viewBox="0 0 12 12" version="1.1" xmlns="http://www.w3.org/2000/svg" xmlns:xlink="http://www.w3.org/1999/xlink">
    <g id="Canvas" transform="translate(-15519 636)">
        <g id="Vector">
            <path d="M 6.4476 0.180472C 6.216 -0.0601572 5.83055 -0.0601572 5.59085 0.180472C 5.35926 0.412971 5.35926 0.799928 5.59085 1.03189L 9.93506 5.39301L 0.599778 5.39301C 0.265608 5.39355 0 5.66019 0 5.99566C 0 6.33114 0.265608 6.60645 0.599778 6.60645L 9.93506 6.60645L 5.59085 10.9594C 5.35926 11.2001 5.35926 11.5876 5.59085 11.8195C 5.83055 12.0602 6.21654 12.0602 6.4476 11.8195L 11.8202 6.42598C 12.0599 6.19348 12.0599 5.80652 11.8202 5.57456L 6.4476 0.180472Z" transform="matrix(-1 -1.22465e-16 1.22465e-16 -1 15531 -624)" fill="#A7ACBA"></path>
        </g>
    </g>
</svg>
