<svg width="24" height="19" viewBox="0 0 24 19" version="1.1" xmlns="http://www.w3.org/2000/svg" xmlns:xlink="http://www.w3.org/1999/xlink">
<title>menu</title>
<desc>Created using Figma</desc>
<g id="Canvas" transform="translate(-12928 -3653)">
<rect x="12928" y="3653" width="24" height="19" fill="#191919"/>
<clipPath id="clip-0" clip-rule="evenodd">
<path d="M 12729 2969L 13774 2969L 13774 3985L 12729 3985L 12729 2969Z" fill="#FFFFFF"/>
</clipPath>
<g id="icoKit" clip-path="url(#clip-0)">
<path d="M 12729 2969L 13774 2969L 13774 3985L 12729 3985L 12729 2969Z" fill="#F5F5F5"/>
<g id="menu">
<g id="Rectangle">
<use xlink:href="#path0_fill" transform="translate(12928 3669)" fill="#47437A"/>
</g>
<g id="Rectangle">
<use xlink:href="#path0_fill" transform="translate(12928 3653)" fill="#47437A"/>
</g>
<g id="Rectangle">
<use xlink:href="#path0_fill" transform="translate(12928 3661)" fill="#47437A"/>
</g>
</g>
</g>
</g>
<defs>
<path id="path0_fill" d="M 0 1.5C 0 0.671573 0.671573 0 1.5 0L 22.5 0C 23.3284 0 24 0.671573 24 1.5C 24 2.32843 23.3284 3 22.5 3L 1.5 3C 0.671573 3 0 2.32843 0 1.5Z"/>
</defs>
</svg>
