<svg xmlns="http://www.w3.org/2000/svg" fill="#c1b1c4" viewBox="0 0 32 18">
<path d="M27.54,11.45a43.43,43.43,0,0,1,3.13,3.13,9.1,9.1,0,0,1,1.12,1.61c.43.83,0,1.75-.71,1.8H26.43a3.61,3.61,0,0,1-3-1.2c-.65-.65-1.24-1.35-1.86-2a4.41,4.41,0,0,0-.84-.74,1,1,0,0,0-1.55.37,4.84,4.84,0,0,0-.49,2.16c0,1.09-.38,1.38-1.48,1.43a12,12,0,0,1-6.67-1.43,14.7,14.7,0,0,1-4.49-4.18A56.14,56.14,0,0,1,.16,1.91C-.21,1.09.06.64,1,.63c1.52,0,3,0,4.56,0a1.34,1.34,0,0,1,1.27.94A28.07,28.07,0,0,0,9.9,7.27a4.87,4.87,0,0,0,1.17,1.28.71.71,0,0,0,1.21-.35A3.93,3.93,0,0,0,12.54,7a17.69,17.69,0,0,0-.07-4.19A1.75,1.75,0,0,0,11,1.21c-.45-.08-.38-.25-.16-.5A1.68,1.68,0,0,1,12.24,0h5.27c.83.16,1,.53,1.13,1.36V7.18c0,.32.16,1.27.74,1.49s.77-.22,1.05-.51a18,18,0,0,0,3-4.53c.36-.72.66-1.46,1-2.2A1.13,1.13,0,0,1,25.55.61h5.07a2.69,2.69,0,0,1,.45,0c.85.14,1.09.51.82,1.34a12.57,12.57,0,0,1-2,3.47C29,6.62,28.13,7.74,27.29,8.91S26.58,10.52,27.54,11.45Z"/>
</svg>