<svg width="16" height="16" viewBox="0 0 16 16" version="1.1" xmlns="http://www.w3.org/2000/svg" xmlns:xlink="http://www.w3.org/1999/xlink">
    <title>Group</title>
    <desc>Created using Figma</desc>
    <g id="Canvas" transform="translate(-28619 326)">
        <g id="Group">
            <g id="Vector">
                <path d="M 8 16C 12.4183 16 16 12.4183 16 8C 16 3.58172 12.4183 0 8 0C 3.58172 0 0 3.58172 0 8C 0 12.4183 3.58172 16 8 16Z" transform="translate(28619 -326)" fill="#55ACEE"></path>
            </g>
            <g id="Group">
                <g id="Vector">
                    <path d="M 9.32055 0.896717C 8.97772 1.04874 8.60893 1.15156 8.22218 1.19748C 8.61706 0.96089 8.9201 0.586545 9.06314 0.139755C 8.69364 0.358943 8.28422 0.517951 7.84884 0.603658C 7.50002 0.232165 7.00303 -1.74082e-08 6.45271 -1.74082e-08C 5.39684 -1.74082e-08 4.54048 0.856359 4.54048 1.91223C 4.54048 2.06211 4.55745 2.20799 4.59025 2.34803C 3.00103 2.26832 1.59193 1.50708 0.648722 0.349816C 0.484153 0.632179 0.389747 0.96089 0.389747 1.31128C 0.389747 1.97454 0.727584 2.56009 1.2404 2.90292C 0.927092 2.89308 0.632037 2.80709 0.374345 2.66348C 0.374202 2.67161 0.374202 2.67974 0.374202 2.68773C 0.374202 3.61425 1.03362 4.38704 1.90823 4.56259C 1.74794 4.60651 1.57867 4.62975 1.40454 4.62975C 1.28104 4.62975 1.1614 4.61792 1.04474 4.59567C 1.28803 5.3552 1.99408 5.90809 2.83105 5.92363C 2.17648 6.43659 1.35206 6.7422 0.455916 6.7422C 0.3019 6.7422 0.14931 6.73322 9.13928e-08 6.71539C 0.845806 7.25815 1.85119 7.5746 2.93101 7.5746C 6.44829 7.5746 8.37178 4.66084 8.37178 2.13369C 8.37178 2.05084 8.36992 1.96827 8.36622 1.88641C 8.74013 1.61688 9.06428 1.28019 9.32055 0.896717Z" transform="translate(28622.6 -321.147)" fill="#F1F2F2"></path>
                </g>
            </g>
        </g>
    </g>
</svg>
