<svg xmlns="http://www.w3.org/2000/svg" fill="#c1b1c4" viewBox="0 0 25 20">
<path d="M25,2.37a10.36,10.36,0,0,1-2.94.8A5.09,5.09,0,0,0,24.31.37,10.44,10.44,0,0,1,21.05,1.6,5.15,5.15,0,0,0,17.31,0a5.09,5.09,0,0,0-5.13,5,5,5,0,0,0,.13,1.15A14.64,14.64,0,0,1,1.74.92,5,5,0,0,0,1,3.46a5,5,0,0,0,2.28,4.2A5.19,5.19,0,0,1,1,7v.06a5.08,5.08,0,0,0,4.11,5,5.27,5.27,0,0,1-1.35.18,5,5,0,0,1-1-.09,5.12,5.12,0,0,0,4.79,3.51A10.39,10.39,0,0,1,1.22,17.8,11.07,11.07,0,0,1,0,17.73,14.66,14.66,0,0,0,7.86,20,14.37,14.37,0,0,0,22.45,5.63l0-.65A10.16,10.16,0,0,0,25,2.37Z"/>
</svg>