<svg width="16" height="16" viewBox="0 0 16 16" version="1.1" xmlns="http://www.w3.org/2000/svg" xmlns:xlink="http://www.w3.org/1999/xlink">
    <title>Group</title>
    <desc>Created using Figma</desc>
    <g id="Canvas" transform="translate(-28593 326)">
        <g id="Group">
            <g id="Group">
                <g id="XMLID 11">
                    <path d="M 8 16C 12.4183 16 16 12.4183 16 8C 16 3.58172 12.4183 0 8 0C 3.58172 0 0 3.58172 0 8C 0 12.4183 3.58172 16 8 16Z" transform="translate(28593 -326)" fill="#4D76A1"></path>
                </g>
            </g>
            <g id="Vector">
                <path fill-rule="evenodd" d="M 5.1395 5.96764L 5.7674 5.96764C 5.7674 5.96764 5.95707 5.94681 6.0539 5.84243C 6.14303 5.74659 6.14018 5.56662 6.14018 5.56662C 6.14018 5.56662 6.12791 4.7241 6.51894 4.60003C 6.90441 4.47781 7.3994 5.41432 7.92406 5.7744C 8.32079 6.04693 8.62226 5.98717 8.62226 5.98717L 10.0251 5.96764C 10.0251 5.96764 10.759 5.92243 10.411 5.34544C 10.3825 5.29823 10.2083 4.91861 9.36796 4.13855C 8.48835 3.32212 8.60615 3.45418 9.66572 2.04193C 10.311 1.18187 10.569 0.656786 10.4884 0.431894C 10.4116 0.217698 9.93696 0.274313 9.93696 0.274313L 8.35744 0.284153C 8.35744 0.284153 8.24036 0.268181 8.15351 0.32009C 8.06866 0.371001 8.01404 0.489651 8.01404 0.489651C 8.01404 0.489651 7.76405 1.1552 7.43063 1.72121C 6.72729 2.91555 6.44607 2.97858 6.33113 2.90442C 6.06374 2.73158 6.13048 2.21007 6.13048 1.83957C 6.13048 0.682171 6.30603 0.199587 5.78865 0.0746626C 5.61695 0.0331638 5.4906 0.00578315 5.05151 0.00136231C 4.48793 -0.0044846 4.01091 0.00307341 3.74081 0.135413C 3.56112 0.223402 3.42251 0.419487 3.50693 0.430753C 3.61132 0.444729 3.84776 0.494499 3.97311 0.6652C 4.13497 0.885387 4.12927 1.37995 4.12927 1.37995C 4.12927 1.37995 4.22225 2.74242 3.91208 2.9117C 3.69917 3.02778 3.4071 2.79077 2.78006 1.70723C 2.45876 1.15221 2.21619 0.538707 2.21619 0.538707C 2.21619 0.538707 2.16941 0.424051 2.08599 0.362729C 1.98474 0.288431 1.84327 0.264759 1.84327 0.264759L 0.342325 0.274598C 0.342325 0.274598 0.117005 0.280873 0.0342926 0.378844C -0.0392929 0.465978 0.0284456 0.646234 0.0284456 0.646234C 0.0284456 0.646234 1.20353 3.39542 2.53406 4.78085C 3.75407 6.05106 5.1395 5.96764 5.1395 5.96764Z" transform="translate(28595.6 -320.459)" fill="#FFFFFF"></path>
            </g>
        </g>
    </g>
</svg>
