<svg width="16" height="16" viewBox="0 0 16 16" version="1.1" xmlns="http://www.w3.org/2000/svg" xmlns:xlink="http://www.w3.org/1999/xlink">
    <title>Group</title>
    <desc>Created using Figma</desc>
    <g id="Canvas" transform="translate(-28671 326)">
        <g id="Group">
            <g id="Group">
                <g id="XMLID 30">
                    <path d="M 8 16C 12.4183 16 16 12.4183 16 8C 16 3.58172 12.4183 0 8 0C 3.58172 0 0 3.58172 0 8C 0 12.4183 3.58172 16 8 16Z" transform="translate(28671 -326)" fill="#DC4E41"></path>
                </g>
            </g>
            <g id="Group">
                <g id="Vector">
                    <path d="M 0.00202564 3.3031C -0.0263533 4.67955 0.921702 5.9931 2.22585 6.4215C 3.45427 6.8342 4.96463 6.52546 5.78205 5.47344C 6.37887 4.7363 6.51449 3.75359 6.44988 2.83549C 5.39787 2.82608 4.34585 2.82921 3.2954 2.83078C 3.29369 3.20555 3.29541 3.5789 3.29697 3.95367C 3.92687 3.97107 4.55691 3.96309 5.18681 3.97578C 5.0278 4.52068 4.66558 5.02779 4.11583 5.22459C 3.0544 5.69234 1.70005 5.08127 1.36607 3.96779C 0.962916 2.90151 1.6229 1.61477 2.71257 1.3046C 3.38824 1.06687 4.08431 1.33454 4.66244 1.68578C 4.95536 1.41169 5.22945 1.11878 5.49869 0.822724C 4.84184 0.273115 3.99775 -0.0638674 3.12998 0.0101459C 1.42739 0.0303962 -0.0625756 1.60222 0.00202564 3.3031Z" transform="translate(28673.8 -320.945)" fill="#DC4E41"></path>
                </g>
                <g id="Vector">
                    <path d="M 0.949766 -1.04449e-07C 0.946629 0.313451 0.943349 0.628471 0.94178 0.94178C 0.62676 0.944918 0.313452 0.946487 1.9149e-07 0.948055C 1.9149e-07 1.26151 1.9149e-07 1.57325 1.9149e-07 1.8867C 0.313452 1.88827 0.628471 1.88984 0.94178 1.89312C 0.944918 2.20657 0.944917 2.51988 0.948055 2.8349C 1.25994 2.8349 1.57339 2.83333 1.8867 2.8349C 1.88841 2.51988 1.88984 2.20657 1.89312 1.89155C 2.20642 1.88998 2.52144 1.88841 2.8349 1.88684C 2.8349 1.57339 2.8349 1.26165 2.8349 0.948198C 2.52159 0.946629 2.20657 0.94506 1.89312 0.941923C 1.8914 0.628471 1.88841 0.313451 1.8867 0.000142425C 1.57339 -1.82785e-07 1.26151 -1.04449e-07 0.949766 -1.04449e-07Z" transform="translate(28681.3 -319.059)" fill="#DC4E41"></path>
                </g>
                <g id="Group">
                    <g id="Vector">
                        <path d="M 0.00202583 3.30324C -0.0625754 1.60236 1.42725 0.0305389 3.12984 0.010146C 3.99761 -0.0638673 4.84184 0.273115 5.49855 0.822724C 5.22916 1.11892 4.95507 1.41169 4.6623 1.68578C 4.08417 1.33454 3.3881 1.06687 2.71243 1.30459C 1.62262 1.61491 0.96263 2.90166 1.36592 3.96779C 1.69991 5.08127 3.05426 5.69235 4.11568 5.22459C 4.66529 5.02779 5.02766 4.52068 5.18667 3.97578C 4.55677 3.96323 3.92673 3.97107 3.29683 3.95367C 3.29526 3.5789 3.29369 3.20555 3.29526 2.83078C 4.34571 2.82921 5.39773 2.82608 6.44974 2.83549C 6.51434 3.75374 6.37887 4.73645 5.78191 5.47344C 4.96448 6.52546 3.45427 6.8342 2.22571 6.4215C 0.921845 5.99325 -0.0263531 4.67969 0.00202583 3.30324Z" transform="translate(28673.8 -320.945)" fill="#FFFFFF"></path>
                    </g>
                    <g id="Vector">
                        <path d="M 0.949766 -1.04449e-07C 1.26165 -1.04449e-07 1.57339 -1.04449e-07 1.8867 -1.04449e-07C 1.88841 0.313451 1.8914 0.628471 1.89312 0.94178C 2.20642 0.944918 2.52144 0.946487 2.8349 0.948055C 2.8349 1.26151 2.8349 1.57325 2.8349 1.8867C 2.52159 1.88827 2.20657 1.88984 1.89312 1.8914C 1.88998 2.20642 1.88841 2.51973 1.8867 2.83475C 1.57339 2.83318 1.25979 2.83475 0.948055 2.83475C 0.94506 2.51973 0.94506 2.20642 0.94178 1.89297C 0.628471 1.88969 0.313452 1.88827 1.9149e-07 1.88656C 1.9149e-07 1.5731 1.9149e-07 1.26136 1.9149e-07 0.947912C 0.313452 0.946344 0.626903 0.944775 0.94178 0.941638C 0.943349 0.628472 0.946486 0.313451 0.949766 -1.04449e-07Z" transform="translate(28681.3 -319.059)" fill="#FFFFFF"></path>
                    </g>
                </g>
            </g>
        </g>
    </g>
</svg>
