<svg xmlns="http://www.w3.org/2000/svg" fill="#c1b1c4" viewBox="0 0 28 22">
<path fill-rule="evenodd" d="M 26.5996 1.6499C 27.4209 2.59985 27.71 4.75 27.71 4.75C 27.71 4.75 28 7.30005 28 9.84985L 28 12.2C 28 14.7 27.71 17.25 27.71 17.25C 27.71 17.25 27.4209 19.4001 26.5996 20.3501C 25.5898 21.4917 24.4482 21.5925 23.8818 21.6426L 23.7998 21.6499C 19.8896 22 14 22 14 22C 14 22 6.70996 21.95 4.48926 21.7002C 4.37109 21.6719 4.22559 21.6509 4.06055 21.6267C 3.34766 21.5229 2.26172 21.3647 1.40039 20.3501C 0.579102 19.4001 0.290039 17.25 0.290039 17.25C 0.290039 17.25 0 14.75 0 12.2L 0 9.8501C 0 7.30005 0.290039 4.75 0.290039 4.75C 0.290039 4.75 0.53125 2.6001 1.40039 1.6499C 2.41016 0.508301 3.55176 0.407471 4.11816 0.357422L 4.2002 0.350098C 8.11035 0.0500488 14 0 14 0C 14 0 19.8896 0.0500488 23.7998 0.350098L 23.9316 0.361084C 24.5127 0.406982 25.6182 0.494385 26.5996 1.6499ZM 10.6201 16.8003L 10.6201 5.9502L 19.793 11.5002L 10.6201 16.8003Z"/>
</svg>
